<svg id="Layer_1" data-name="Layer 1" xmlns="http://www.w3.org/2000/svg" viewBox="0 0 150 150"><defs><style>.cls-1{fill:#283142;}.cls-2{fill:#1eb9d5;}.cls-3{fill:#ff6346;}</style></defs><rect class="cls-1" x="104.91" y="90.14" width="1.13" height="0.9"/><rect class="cls-1" x="108.78" y="90.14" width="1.13" height="0.9"/><rect class="cls-1" x="80.45" y="90.14" width="1.13" height="0.9"/><path class="cls-1" d="M85.63,91.05h-2v-.91h2Zm4.05,0h-2v-.91h2Z"/><rect class="cls-1" x="91.69" y="90.14" width="1.13" height="0.9"/><rect class="cls-1" x="40.09" y="90.14" width="1.13" height="0.9"/><path class="cls-1" d="M45.9,91.05H43.56v-.91H45.9Zm4.71,0H48.27v-.91h2.34Zm4.68,0H53v-.91h2.34Zm4.69,0H57.64v-.91H60Zm4.71,0H62.34v-.91h2.35Z"/><rect class="cls-1" x="67.05" y="90.14" width="1.13" height="0.9"/><rect class="cls-1" x="105" y="70.78" width="1.13" height="0.9"/><rect class="cls-1" x="108.78" y="70.78" width="1.13" height="0.9"/><rect class="cls-1" x="40.09" y="70.78" width="1.13" height="0.9"/><path class="cls-1" d="M45.63,71.68h-2.2v-.9h2.2Zm4.4,0H47.82v-.9H50Zm4.39,0H52.21v-.9h2.21Zm4.39,0H56.6v-.9h2.21Zm4.41,0H61v-.9h2.21Zm4.39,0h-2.2v-.9h2.2Zm4.39,0H69.82v-.9H72v.9Zm4.42,0H74.21v-.9h2.21Zm4.39,0H78.6v-.9h2.21Zm4.39,0H83v-.9H85.2Zm4.39,0h-2.2v-.9h2.2Z"/><rect class="cls-1" x="91.8" y="70.78" width="1.13" height="0.9"/><rect class="cls-1" x="40.09" y="51.41" width="1.13" height="0.9"/><path class="cls-1" d="M45.59,52.31H43.4v-.9h2.19Zm4.35,0H47.75v-.9h2.19Zm4.36,0H52.12v-.9H54.3Zm4.35,0H56.47v-.9h2.18Zm4.37,0H60.83v-.9H63Zm4.35,0H65.18v-.9h2.19Zm4.36,0H69.55v-.9h2.18Zm4.35,0H73.9v-.9h2.18Zm4.37,0H78.27v-.9h2.18Zm4.35,0H82.61v-.9H84.8Zm4.37,0H87v-.9h2.19Zm4.34,0H91.33v-.9h2.18Zm4.37,0H95.7v-.9h2.18Zm4.37,0h-2.18v-.9h2.18Zm4.35,0h-2.19v-.9h2.19Z"/><rect class="cls-1" x="108.78" y="51.41" width="1.13" height="0.9"/><path class="cls-2" d="M68.65,104H79.91V84.72H68.65Zm12.16.9H67.75v-21H80.81Z"/><path class="cls-2" d="M93.35,103.93h11.26V69.85H93.35Zm12.16.9H92.45V69h13.06Z"/><path class="cls-2" d="M43.92,104H55.18V95.32H43.92Zm12.16.9H43V94.42H56.08Z"/><rect class="cls-2" x="40.09" y="103.93" width="69.81" height="0.9"/><path class="cls-3" d="M49.35,82.17l-.09-.9a69.86,69.86,0,0,0,18.58-5.56A71.52,71.52,0,0,0,100,47.85l.76.47A72.43,72.43,0,0,1,68.18,76.57a78.89,78.89,0,0,1-13.36,4.57C51.47,81.92,49.44,82.15,49.35,82.17Z"/><path class="cls-3" d="M102.34,47.45a2.27,2.27,0,0,1-.18.88,2.17,2.17,0,0,1-.49.74,2.35,2.35,0,0,1-.75.5,2.19,2.19,0,0,1-.88.17,2.22,2.22,0,0,1-.88-.17,2.35,2.35,0,0,1-1.24-1.24,2.26,2.26,0,0,1-.17-.88,2.19,2.19,0,0,1,.17-.88,2.32,2.32,0,0,1,1.24-1.25,2.42,2.42,0,0,1,.88-.17,2.38,2.38,0,0,1,.88.17,2.52,2.52,0,0,1,.75.5,2.32,2.32,0,0,1,.49.75A2.2,2.2,0,0,1,102.34,47.45Z"/><path class="cls-3" d="M51.49,81.81a2.2,2.2,0,0,1-.18.88,2.18,2.18,0,0,1-1.24,1.24,2.2,2.2,0,0,1-.88.18,2.23,2.23,0,0,1-.88-.18,2.17,2.17,0,0,1-.74-.49,2.35,2.35,0,0,1-.5-.75,2.2,2.2,0,0,1-.18-.88,2.23,2.23,0,0,1,.18-.88,2.35,2.35,0,0,1,1.24-1.24,2.22,2.22,0,0,1,.88-.17,2.19,2.19,0,0,1,.88.17,2.35,2.35,0,0,1,.75.5,2.17,2.17,0,0,1,.49.74A2.23,2.23,0,0,1,51.49,81.81Z"/></svg>