<svg id="Layer_1" data-name="Layer 1" xmlns="http://www.w3.org/2000/svg" viewBox="0 0 150 150"><defs><style>.cls-1{fill:#283142;}.cls-2{fill:#ff6346;}.cls-3{fill:#1eb9d5;}</style></defs><polygon class="cls-1" points="53.61 72.34 52.8 71.98 64.98 45.79 75.5 52.23 75.05 53 65.38 47.1 53.61 72.34"/><path class="cls-2" d="M90.7,58.43a2.2,2.2,0,0,0-.72-2.8c-1-.67-1.85-.36-2.8.21Zm-8.07-2.91c.84.61,1.67.32,2.59-.23L82.05,53A1.9,1.9,0,0,0,82.63,55.52Zm-1.82-4.39.59.43c.63-.81,2.07-2.05,2.56-1.69.23.16.54.9.43,1s-1.1.36-1.91,1.42l3.42,2.55c1.44-1,3.09-2.07,5.09-.57a3.47,3.47,0,0,1,.81,4.94l.72.54c.16.11.18.27,0,.45s-.29.24-.45.13l-.72-.54c-1.28,1.62-2.81,2.41-3.22,2.12-.25-.18-.54-.95-.4-1.11a6.71,6.71,0,0,0,2.56-1.77l-3.78-2.8c-1.46.93-3,2-4.91.57C80.18,55.77,80,53.94,81,52.19l-.64-.48c-.15-.11-.18-.27,0-.45S80.65,51,80.81,51.13Z"/><polygon class="cls-2" points="86.01 72.61 85.34 72.03 99.53 55.99 81.69 43.16 63.09 72.05 62.32 71.55 81.46 41.85 100.88 55.86 86.01 72.61"/><path class="cls-3" d="M77.34,108.15H49.12V71.6H88.31a6.68,6.68,0,0,1,6.78,6.78V84h-.9V78.38a5.78,5.78,0,0,0-5.88-5.88H50v34.75H77.34Z"/><path class="cls-3" d="M87.16,108.15h-4v-.9h4c1.64,0,7-.36,7-4.91V95.56H98.4A.56.56,0,0,0,99,95V84.77a.56.56,0,0,0-.56-.56H85.49a.56.56,0,0,0-.56.56V95a.56.56,0,0,0,.56.56h4.94v.9H85.49A1.46,1.46,0,0,1,84,95V84.77a1.46,1.46,0,0,1,1.46-1.46H98.4a1.46,1.46,0,0,1,1.46,1.46V95a1.46,1.46,0,0,1-1.46,1.46H95.09v5.88C95.09,106.62,91,108.15,87.16,108.15Z"/></svg>