<svg id="Layer_1" data-name="Layer 1" xmlns="http://www.w3.org/2000/svg" viewBox="0 0 150 150"><defs><style>.cls-1{fill:#1eb9d5;}.cls-2{fill:#ff6346;}.cls-3{fill:#283142;}</style></defs><path class="cls-1" d="M95.18,110.4h-20c-5.61,0-10-1.62-14.15-3.22-3.65-1.37-7.09-2.66-11-2.66H45.41v-.9h4.68c4.06,0,7.59,1.33,11.31,2.73,4.12,1.55,8.38,3.15,13.83,3.15h20c3.29,0,6.66-1.35,6.66-3.58a2.15,2.15,0,0,0-1.08-1.76,6.85,6.85,0,0,0-3.69-.85c-1.62,0-3.56,0-6-.09-2.86,0-6.42-.14-11-.16a18.14,18.14,0,0,1-8.29-1.24c-4.5-1.94-7-5.83-7.52-11.57l0-.45.45,0a21.92,21.92,0,0,1,4.86.45,40,40,0,0,1,12.1,4.58,5,5,0,0,0,5,.36,1.82,1.82,0,0,0,.94-1.69c0-.72-.6-2.62-4.91-4.62l-.49-.23c-6-2.83-12.27-5.76-20.09-5.69-8.74.06-19.79.58-22.09.7v20.42h-.9V82.75l.43,0c.13,0,12.79-.65,22.56-.72,8-.06,14.37,2.91,20.47,5.77l.5.22c4.55,2.14,5.36,4.28,5.42,5.39a2.76,2.76,0,0,1-1.37,2.52,6,6,0,0,1-5.94-.34c-8-4.55-14.28-4.91-16-4.91.54,4.82,3.24,12.18,14.84,11.51h0c4.55,0,8.13.11,11,.16,2.43,0,4.35.09,6,.09a7.58,7.58,0,0,1,4.19,1,3,3,0,0,1,1.48,2.5C102.74,108.08,100.09,110.4,95.18,110.4Z"/><path class="cls-2" d="M93.15,64.62a3.07,3.07,0,0,0,2.66-3.13c0-1.65-1.1-2.46-2.55-3.09ZM89.93,52.86c0,1.47,1,2.21,2.39,2.82l.11-5.61A2.68,2.68,0,0,0,89.93,52.86Zm3.6-5.74,0,1c1.47.06,4.1.74,4.08,1.59,0,.41-.61,1.38-.86,1.36-.4,0-1.3-1-3.24-1.08l-.16,6c2.3.88,4.93,1.89,4.84,5.48-.06,3-2,4.77-5.09,5l0,1.29c0,.27-.16.43-.52.4s-.51-.15-.51-.42l0-1.29c-3-.16-5.11-1.3-5.11-2,0-.43.65-1.42.94-1.38a9.18,9.18,0,0,0,4.19,1.53L92.23,58C90,57,87.45,56.06,87.54,52.68c.07-2.54,2-4.28,4.94-4.5l0-1.11c0-.27.16-.42.52-.4S93.58,46.83,93.53,47.12Z"/><path class="cls-3" d="M93.06,75.27a17.84,17.84,0,1,1,13.72-29.21l-.7.56A16.93,16.93,0,1,0,110,57.41a16.39,16.39,0,0,0-.33-3.29l.87-.18a17.45,17.45,0,0,1,.34,3.47A17.78,17.78,0,0,1,93.06,75.27Z"/></svg>