<svg id="Layer_1" data-name="Layer 1" xmlns="http://www.w3.org/2000/svg" viewBox="0 0 150 150"><defs><style>.cls-1{fill:#283142;}.cls-2{fill:#1eb9d5;}.cls-3{fill:#ff6346;}</style></defs><path class="cls-1" d="M58.58,49.17h-.9v-.54h.9Zm0,4.5h-.9V51.42h.9Zm0,4.51h-.9V55.93h.9Zm0,4.5h-.9V60.43h.9Zm0,4.51h-.9V64.93h.9Zm0,4.5h-.9V69.44h.9Zm0,4.5h-.9V73.94h.9Zm0,4.51h-.9V78.45h.9Zm0,4.5h-.9V83h.9Zm0,4.51h-.9V87.45h.9Zm0,4.5h-.9V92h.9Zm0,4.5h-.9V96.46h.9Z"/><path class="cls-1" d="M77.05,49.17h-.9v-.54h.9Zm0,4.5h-.9V51.42h.9Zm0,4.51h-.9V55.93h.9Zm0,4.5h-.9V60.43h.9Zm0,4.51h-.9V64.93h.9Zm0,4.5h-.9V69.44h.9Zm0,4.5h-.9V73.94h.9Zm0,4.51h-.9V78.45h.9Zm0,4.5h-.9V83h.9Zm0,4.51h-.9V87.45h.9Zm0,4.5h-.9V92h.9Zm0,4.5h-.9V96.46h.9Z"/><path class="cls-1" d="M95.52,49.17h-.9v-.54h.9Zm0,4.5h-.9V51.42h.9Zm0,4.51h-.9V55.93h.9Zm0,4.5h-.9V60.43h.9Zm0,4.51h-.9V64.93h.9Zm0,4.5h-.9V69.44h.9Zm0,4.5h-.9V73.94h.9Zm0,4.51h-.9V78.45h.9Zm0,4.5h-.9V83h.9Zm0,4.51h-.9V87.45h.9Zm0,4.5h-.9V92h.9Zm0,4.5h-.9V96.46h.9Z"/><polygon class="cls-2" points="105.97 104.3 41.63 104.3 41.63 45.41 42.53 45.41 42.53 103.4 105.97 103.4 105.97 104.3"/><path class="cls-3" d="M53.76,78.94a2.17,2.17,0,0,1-.15.79,2,2,0,0,1-.45.66,2,2,0,0,1-.66.44,2,2,0,0,1-1.57,0,2,2,0,0,1-.66-.44,1.85,1.85,0,0,1-.45-.66,2.18,2.18,0,0,1-.16-.79,2.09,2.09,0,0,1,.16-.78,1.89,1.89,0,0,1,.45-.67,2,2,0,0,1,.66-.44,2,2,0,0,1,1.57,0,2,2,0,0,1,.66.44,2,2,0,0,1,.45.67A2.08,2.08,0,0,1,53.76,78.94Z"/><path class="cls-3" d="M101.42,76.71a2.18,2.18,0,0,1-.16.79,2,2,0,0,1-.44.66,2.11,2.11,0,0,1-.67.44,1.91,1.91,0,0,1-.78.16,2.07,2.07,0,0,1-1.45-.6,2.15,2.15,0,0,1-.45-.66,2.17,2.17,0,0,1-.15-.79,2.08,2.08,0,0,1,.15-.78,2.19,2.19,0,0,1,.45-.67,2.07,2.07,0,0,1,1.45-.6,1.91,1.91,0,0,1,.78.16,2.11,2.11,0,0,1,.67.44,2,2,0,0,1,.44.67A2.09,2.09,0,0,1,101.42,76.71Z"/><path class="cls-3" d="M64.37,91.06C57,91.06,51.56,79.8,51.31,79.3l.81-.38c.07.13,6.06,12.59,13.49,11.12,4.37-.87,7.77-4,11.35-7.23,3.2-2.92,6.53-5.94,10.61-7.2,7.32-2.28,12.18.94,12.38,1.1l-.49.74a14.37,14.37,0,0,0-11.62-1c-3.9,1.19-7.14,4.16-10.27,7C74.05,86.73,70.41,90,65.79,91,65.32,91,64.82,91.06,64.37,91.06Z"/><path class="cls-3" d="M67.23,73.74a2.6,2.6,0,0,0,2.25-2.64c0-1.39-.92-2.07-2.14-2.61Zm-2.72-9.93c0,1.24.85,1.87,2,2.38l.12-4.72A2.23,2.23,0,0,0,64.51,63.81Zm3.06-4.87,0,.88c1.23,0,3.46.63,3.44,1.35,0,.34-.52,1.17-.72,1.13a7.38,7.38,0,0,0-2.75-.9l-.13,5.11c1.93.74,4.16,1.6,4.07,4.62,0,2.5-1.73,4-4.3,4.21l0,1.08c0,.22-.13.36-.45.34s-.45-.14-.45-.36l0-1.08c-2.48-.14-4.32-1.11-4.32-1.72,0-.36.54-1.19.81-1.17a7.56,7.56,0,0,0,3.53,1.29l.14-5.66c-1.91-.81-4-1.6-4-4.43,0-2.14,1.69-3.63,4.16-3.81l0-.92c0-.23.13-.36.45-.34S67.59,58.72,67.57,58.94Z"/><polyline class="cls-2" points="44.84 48.47 42.01 43.56 39.17 48.47 42.86 48.47"/><polyline class="cls-2" points="105.9 106.44 110.83 103.6 105.9 100.76 105.9 104.46"/></svg>