<?xml version="1.0" encoding="utf-8"?>
<!-- Generator: Adobe Illustrator 25.2.1, SVG Export Plug-In . SVG Version: 6.00 Build 0)  -->
<svg version="1.1" id="Layer_1" xmlns="http://www.w3.org/2000/svg" xmlns:xlink="http://www.w3.org/1999/xlink" x="0px" y="0px"
	 viewBox="0 0 1043.8 693" style="enable-background:new 0 0 1043.8 693;" xml:space="preserve">
<style type="text/css">
	.st0{fill:#05798A;}
	.st1{fill:none;stroke:#F2634A;stroke-width:3;stroke-miterlimit:10;}
	.st2{fill:none;stroke:#F2634A;stroke-width:3;stroke-miterlimit:10;stroke-dasharray:11.9647,11.9647;}
	.st3{fill:none;stroke:#FEE161;stroke-width:3;stroke-miterlimit:10;}
	.st4{fill:none;stroke:#1DBAD6;stroke-width:3;stroke-miterlimit:10;}
	.st5{fill:#283142;}
	.st6{fill:#FEE161;}
</style>
<circle class="st0" cx="711.5" cy="148.8" r="92.9"/>
<g>
	<g>
		<path class="st1" d="M944.9,470.7c1.6-1.2,3.1-2.5,4.7-3.7"/>
		<path class="st2" d="M958.6,459.1c41.5-38.1,67.5-92.9,67.5-153.7c0-115.3-93.4-208.7-208.7-208.7c-48.9,0-93.8,16.8-129.4,44.9"
			/>
		<path class="st1" d="M683.3,145.5c-1.5,1.3-3,2.6-4.5,3.9"/>
	</g>
</g>
<path class="st3" d="M102.3,543.2c-25.6-11.3-55.5,0.4-66.8,26c-11.3,25.6,0.4,55.5,26,66.8c25.6,11.3,55.5-0.4,66.8-26
	c5.4-12.3,5.5-25.6,1.4-37.4"/>
<g>
	<g>
		<g>
			<path class="st4" d="M170.5,223.6v-64.7c0-5.1,4.2-9.3,9.3-9.3h725.8c5.1,0,9.2,4.1,9.2,9.2v440.5"/>
		</g>
	</g>
</g>
<polyline class="st4" points="914.8,635.6 170.5,635.6 170.5,267.6 "/>
<path class="st4" d="M631.1,649.9h311.4c0,1.9,1.5,13.3-34.9,13.3H177.4c-35.2,0-34.5-13.3-34.5-13.3h90.9"/>
<path class="st4" d="M626.4,650.9H459.8c-3.2,0-5.3-0.6-5.3-1l0,0v-6H631v6l0,0C631,650.6,628.4,650.9,626.4,650.9z"/>
<path class="st4" d="M547.3,164c0,2.7-2.2,4.9-4.9,4.9c-2.7,0-4.9-2.2-4.9-4.9c0-2.7,2.2-4.9,4.9-4.9
	C545.1,159,547.3,161.2,547.3,164z"/>
<polyline class="st5" points="235,177.2 890.4,177.2 890.4,614.1 195,614.1 195,177.2 "/>
<line class="st4" x1="241.2" y1="341.7" x2="437.6" y2="341.7"/>
<line class="st4" x1="241.2" y1="368.7" x2="437.6" y2="368.7"/>
<line class="st4" x1="241.2" y1="395.7" x2="437.6" y2="395.7"/>
<line class="st4" x1="241.2" y1="422.7" x2="437.6" y2="422.7"/>
<line class="st4" x1="241.2" y1="449.7" x2="377.6" y2="449.7"/>
<path class="st6" d="M321.6,496.5h-76.1c-2.3,0-4.2-1.9-4.2-4.2v-12.4c0-2.3,1.9-4.2,4.2-4.2h76.1c2.3,0,4.2,1.9,4.2,4.2v12.4
	C325.8,494.6,323.9,496.5,321.6,496.5z"/>
<path class="st6" d="M427.1,496.5H351c-2.3,0-4.2-1.9-4.2-4.2v-12.4c0-2.3,1.9-4.2,4.2-4.2h76.1c2.3,0,4.2,1.9,4.2,4.2v12.4
	C431.3,494.6,429.4,496.5,427.1,496.5z"/>
<polyline class="st1" points="261.2,221.2 323.3,221.2 323.3,263.8 241.2,263.8 241.2,221.2 "/>
</svg>
