<?xml version="1.0" encoding="utf-8"?>
<!-- Generator: Adobe Illustrator 24.1.0, SVG Export Plug-In . SVG Version: 6.00 Build 0)  -->
<svg version="1.1" id="Layer_1" xmlns="http://www.w3.org/2000/svg" xmlns:xlink="http://www.w3.org/1999/xlink" x="0px" y="0px"
	 viewBox="0 0 100 50" style="enable-background:new 0 0 100 50;" xml:space="preserve">
<style type="text/css">
	.st0{fill:#CE1126;}
	.st1{fill:#339E35;}
</style>
<g>
	<rect id="_x33_7" x="-0.1" y="-0.1" width="100.3" height="50.1"/>
	<circle id="_x33_6" class="st0" cx="50" cy="19" r="10.8"/>
	<rect id="_x33_5" x="-0.1" y="16.6" class="st0" width="100.3" height="16.7"/>
	<path id="_x33_4" class="st0" d="M50,1.9c-0.4,0-0.5,0.6-0.5,1.1c0,1.3,0.2,2,0.5,3.9C50.3,5,50.5,4.3,50.5,3
		C50.5,2.5,50.3,1.9,50,1.9"/>
	<path id="_x33_3" class="st0" d="M51.5,2c-0.4,0-0.5,0.5-0.6,1c-0.1,1.3,0,2,0.2,4c0.5-1.9,0.7-2.6,0.8-3.9C51.9,2.6,51.8,2,51.5,2
		"/>
	<path id="_x33_2" class="st0" d="M53,2.2c-0.4-0.1-0.6,0.5-0.7,1c-0.2,1.3-0.2,2-0.2,4c0.7-1.8,0.9-2.5,1.2-3.8
		C53.4,2.8,53.3,2.2,53,2.2"/>
	<path id="_x33_1" class="st0" d="M54.4,2.5c-0.4-0.1-0.6,0.4-0.8,0.9c-0.3,1.3-0.4,2-0.5,3.9c0.8-1.8,1.2-2.4,1.5-3.7
		C54.8,3.2,54.7,2.6,54.4,2.5"/>
	<path id="_x33_0" class="st0" d="M55.8,3c-0.3-0.1-0.7,0.3-0.8,0.8c-0.5,1.3-0.5,1.9-0.9,3.9c1-1.7,1.4-2.3,1.8-3.5
		C56.1,3.6,56.1,3.1,55.8,3"/>
	<path id="_x32_9" class="st0" d="M57.2,3.5c-0.3-0.2-0.7,0.3-0.9,0.8c-0.6,1.2-0.7,1.9-1.2,3.8c1.1-1.6,1.6-2.1,2.1-3.3
		C57.4,4.2,57.5,3.7,57.2,3.5"/>
	<path id="_x32_8" class="st0" d="M58.5,4.2c-0.3-0.2-0.7,0.2-1,0.7c-0.7,1.2-0.9,1.8-1.5,3.6c1.3-1.5,1.7-2,2.4-3.1
		C58.7,4.9,58.8,4.4,58.5,4.2"/>
	<path id="_x32_7" class="st0" d="M59.8,5c-0.3-0.2-0.7,0.2-1,0.6c-0.8,1.1-1,1.7-1.8,3.5c1.4-1.4,1.9-1.8,2.7-2.9
		C59.9,5.7,60,5.2,59.8,5"/>
	<path id="_x32_6" class="st0" d="M60.9,5.9c-0.3-0.2-0.7,0.1-1.1,0.5c-0.9,1-1.2,1.6-2.1,3.3c1.5-1.3,2.1-1.7,2.9-2.7
		C61,6.6,61.2,6.1,60.9,5.9"/>
	<path id="_x32_5" class="st0" d="M62,6.9c-0.3-0.3-0.7,0-1.1,0.4c-0.9,0.9-1.3,1.5-2.4,3.1C60.1,9.3,60.7,9,61.6,8
		C62,7.6,62.3,7.2,62,6.9"/>
	<path id="_x32_4" class="st0" d="M63,8c-0.2-0.3-0.7,0-1.2,0.3c-1,0.9-1.4,1.4-2.7,2.9c1.7-1,2.3-1.3,3.3-2.1C63,8.7,63.3,8.3,63,8
		"/>
	<path id="_x32_3" class="st0" d="M63.9,9.2c-0.2-0.3-0.7-0.1-1.2,0.2c-1.1,0.8-1.5,1.3-2.9,2.7c1.8-0.8,2.4-1.1,3.5-1.8
		C63.8,9.9,64.1,9.5,63.9,9.2"/>
	<path id="_x32_2" class="st0" d="M64.7,10.4c-0.2-0.3-0.7-0.2-1.2,0.1c-1.2,0.7-1.7,1.1-3.1,2.4c1.8-0.7,2.5-0.9,3.6-1.5
		C64.5,11.1,64.9,10.7,64.7,10.4"/>
	<path id="_x32_1" class="st0" d="M65.4,11.8c-0.2-0.3-0.7-0.2-1.2,0c-1.2,0.6-1.7,1-3.3,2.1c1.9-0.5,2.6-0.6,3.8-1.2
		C65.2,12.4,65.6,12.1,65.4,11.8"/>
	<path id="_x32_0" class="st0" d="M66,13.1c-0.1-0.3-0.7-0.3-1.2-0.1c-1.3,0.5-1.8,0.8-3.5,1.8c1.9-0.3,2.6-0.4,3.9-0.9
		C65.7,13.8,66.1,13.4,66,13.1"/>
	<path id="_x31_9" class="st0" d="M66.4,14.5c-0.1-0.4-0.7-0.3-1.2-0.2c-1.3,0.3-1.9,0.7-3.7,1.5c1.9-0.2,2.6-0.2,3.9-0.5
		C66.1,15.2,66.5,14.9,66.4,14.5"/>
	<path id="_x31_8" class="st0" d="M33.2,16c-0.1,0.4,0.5,0.6,1,0.7c1.3,0.2,2,0.2,4,0.2c-1.8-0.7-2.5-0.9-3.8-1.2
		C33.8,15.6,33.3,15.7,33.2,16"/>
	<path id="_x31_7" class="st0" d="M33.6,14.5c-0.1,0.4,0.4,0.6,0.9,0.8c1.3,0.3,2,0.4,3.9,0.5c-1.8-0.8-2.4-1.2-3.7-1.5
		C34.2,14.2,33.6,14.2,33.6,14.5"/>
	<path id="_x31_6" class="st0" d="M34,13.1c-0.1,0.3,0.3,0.7,0.8,0.8c1.3,0.5,1.9,0.5,3.9,0.9c-1.7-1-2.3-1.4-3.5-1.8
		C34.7,12.8,34.1,12.8,34,13.1"/>
	<path id="_x31_5" class="st0" d="M34.6,11.8c-0.2,0.3,0.3,0.7,0.8,0.9c1.2,0.6,1.9,0.7,3.8,1.2c-1.6-1.1-2.1-1.6-3.3-2.1
		C35.3,11.5,34.7,11.5,34.6,11.8"/>
	<path id="_x31_4" class="st0" d="M35.3,10.4c-0.2,0.3,0.2,0.7,0.7,1c1.2,0.7,1.8,0.9,3.6,1.5c-1.5-1.3-2-1.7-3.1-2.4
		C36,10.3,35.4,10.2,35.3,10.4"/>
	<path id="_x31_3" class="st0" d="M36.1,9.2c-0.2,0.3,0.2,0.7,0.6,1c1.1,0.8,1.7,1,3.5,1.8c-1.4-1.4-1.8-1.9-2.9-2.7
		C36.8,9.1,36.2,8.9,36.1,9.2"/>
	<path id="_x31_2" class="st0" d="M37,8c-0.2,0.3,0.1,0.7,0.5,1.1c1,0.9,1.6,1.2,3.3,2.1c-1.3-1.5-1.7-2.1-2.7-2.9
		C37.7,8,37.2,7.8,37,8"/>
	<path id="_x31_1" class="st0" d="M38,6.9c-0.3,0.3,0,0.7,0.4,1.1c0.9,0.9,1.5,1.3,3.1,2.4c-1.1-1.6-1.5-2.2-2.4-3.1
		C38.7,6.9,38.2,6.7,38,6.9"/>
	<path id="_x31_0" class="st0" d="M39.1,5.9c-0.3,0.2,0,0.7,0.3,1.2c0.9,1,1.4,1.4,2.9,2.7c-1-1.7-1.3-2.3-2.1-3.3
		C39.8,6,39.3,5.7,39.1,5.9"/>
	<path id="_x39_" class="st0" d="M40.2,5c-0.3,0.2-0.1,0.7,0.2,1.2c0.8,1.1,1.3,1.5,2.7,2.9c-0.8-1.8-1.1-2.4-1.8-3.5
		C40.9,5.2,40.5,4.8,40.2,5"/>
	<path id="_x38_" class="st0" d="M41.5,4.2c-0.3,0.2-0.2,0.7,0.1,1.2c0.7,1.2,1.1,1.7,2.4,3.1c-0.7-1.8-0.9-2.5-1.5-3.6
		C42.2,4.4,41.8,4,41.5,4.2"/>
	<path id="_x37_" class="st0" d="M42.8,3.5c-0.3,0.2-0.2,0.7,0,1.2c0.6,1.2,1,1.7,2.1,3.3c-0.5-1.9-0.6-2.6-1.2-3.8
		C43.5,3.8,43.1,3.4,42.8,3.5"/>
	<path id="_x36_" class="st0" d="M44.2,3c-0.3,0.1-0.3,0.7-0.1,1.2c0.5,1.3,0.8,1.8,1.8,3.5C45.6,5.7,45.5,5,45,3.8
		C44.8,3.3,44.5,2.8,44.2,3"/>
	<path id="_x35_" class="st0" d="M45.6,2.5c-0.4,0.1-0.3,0.7-0.2,1.2c0.3,1.3,0.7,1.9,1.5,3.7c-0.2-1.9-0.2-2.6-0.5-3.9
		C46.2,2.9,45.9,2.4,45.6,2.5"/>
	<path id="_x34_" class="st0" d="M47,2.2c-0.4,0.1-0.4,0.6-0.3,1.2c0.2,1.3,0.5,1.9,1.2,3.8c0-1.9,0-2.7-0.2-4
		C47.6,2.6,47.4,2.1,47,2.2"/>
	<path id="_x33_" class="st0" d="M48.5,2c-0.4,0-0.5,0.6-0.4,1.1c0.1,1.3,0.3,2,0.8,3.9c0.2-1.9,0.3-2.6,0.2-4
		C49.1,2.5,48.8,2,48.5,2"/>
	<rect id="_x32_" x="12.4" y="15.4" width="75.1" height="1.3"/>
	<rect id="_x31_" x="-0.1" y="33.3" class="st1" width="100.3" height="16.7"/>
</g>
</svg>
