<?xml version="1.0" encoding="utf-8"?>
<!-- Generator: Adobe Illustrator 24.1.0, SVG Export Plug-In . SVG Version: 6.00 Build 0)  -->
<svg version="1.1" id="Layer_1" xmlns="http://www.w3.org/2000/svg" xmlns:xlink="http://www.w3.org/1999/xlink" x="0px" y="0px"
	 viewBox="0 0 450 450" style="enable-background:new 0 0 450 450;" xml:space="preserve">
<style type="text/css">
	.st0{fill:#FF6346;}
	.st1{fill:none;stroke:#1EB9D5;stroke-width:4;stroke-miterlimit:10;}
	.st2{fill:none;stroke:#334054;stroke-width:4;stroke-miterlimit:10;}
	.st3{fill:none;stroke:#FF6346;stroke-width:4;stroke-miterlimit:10;stroke-dasharray:6,6;}
</style>
<g id="Layer_2_1_">
	<g id="Layer_3">
		<path class="st0" d="M309.5,138.3v3.1c4.4,0.1,12.1,1.8,12.1,4.4c0,1.1-1.7,4.1-2.5,4.1c-1.1,0-3.9-2.8-9.6-2.9v17.8
			c6.8,2.5,14.6,5.2,14.6,15.8c0,8.7-5.7,14.2-14.6,15v3.9c0,0.8-0.5,1.3-1.5,1.3s-1.5-0.4-1.5-1.3v-3.8c-8.6-0.2-15.2-3.5-15.2-5.6
			c0-1.3,1.8-4.1,2.7-4.1c0.8,0,5,4,12.5,4.2v-19.8c-6.7-2.6-14.2-5.3-14.2-15.2c0-7.5,5.5-12.7,14.2-13.6v-3.3
			c0-0.8,0.5-1.2,1.5-1.2S309.5,137.5,309.5,138.3z M299.2,155.5c0,4.4,3.1,6.5,7.2,8.1v-16.4C302.1,148,299.3,150.7,299.2,155.5
			L299.2,155.5z M309.5,189.9c4.6-0.7,7.9-4.7,7.7-9.3c0-4.8-3.4-7.1-7.7-9V189.9z"/>
		<line class="st1" x1="208.4" y1="313" x2="208.4" y2="155.3"/>
		<path class="st1" d="M202.5,155.3c0,0-86,67.4-2.6,157.4"/>
		<path class="st1" d="M214.2,155.3c0,0,86,67.5,2.6,157.4"/>
		<line class="st1" x1="141.4" y1="234" x2="287.1" y2="234"/>
		<line class="st1" x1="155.4" y1="191.8" x2="274.6" y2="191.8"/>
		<line class="st1" x1="155.4" y1="276.3" x2="274.6" y2="276.3"/>
		<path class="st2" d="M173,163.7c38.9-19.6,86.4-4,106,34.9s4,86.4-34.9,106c-38.9,19.6-86.4,4-106-34.9
			c-15.9-31.6-8.9-70,17.3-93.8"/>
		<circle class="st0" cx="223.7" cy="264.2" r="5.5"/>
		<path class="st3" d="M308.5,210.8c3.8,15.9-8,36.4-21.9,46.1c-25.6,17.8-49,10.2-61.8,7.6"/>
	</g>
</g>
</svg>
