<svg id="Layer_1" data-name="Layer 1" xmlns="http://www.w3.org/2000/svg" viewBox="0 0 150 150"><defs><style>.cls-1{fill:#1eb9d5;}.cls-2{fill:#283142;}.cls-3{fill:#ff6346;}</style></defs><path class="cls-1" d="M95.94,51a2.51,2.51,0,0,0-1.73.72,2.39,2.39,0,0,0-.72,1.73,2.51,2.51,0,0,0,.72,1.73,2.39,2.39,0,0,0,1.73.73,2.48,2.48,0,0,0,1.74-4.22A2.45,2.45,0,0,0,95.94,51Zm0,5.83a3.38,3.38,0,0,1-3.37-3.38,3.44,3.44,0,0,1,1-2.39,3.36,3.36,0,0,1,2.38-1,3.42,3.42,0,0,1,2.39,1,3.37,3.37,0,0,1,0,4.76A3.24,3.24,0,0,1,95.94,56.85ZM64.35,109.64,39.8,85.07l.32-.32L79.3,45.59,98,47.39A5,5,0,0,1,102.54,52l1.33,18.11L74.46,99.52l-.63-.63,29.1-29.09-1.29-17.7a4.12,4.12,0,0,0-3.74-3.83L79.62,46.51,41.06,85.07l23.29,23.3,3.4-3.4.63.63Z"/><path class="cls-2" d="M107.34,54.3l-.59-.67a7,7,0,1,0-11.53-5.25,6.89,6.89,0,0,0,1.53,4.35l-.69.56a7.87,7.87,0,1,1,11.28,1Z"/><path class="cls-1" d="M77,57.84h-.07a7.67,7.67,0,0,0-5.4,2.25L52.05,79.53A7.61,7.61,0,0,0,52,90.29l7,7a7.61,7.61,0,0,0,10.77-.09L89.14,77.75a7.61,7.61,0,0,0,2.25-5.41A7.34,7.34,0,0,0,89.23,67l-7-7A7.46,7.46,0,0,0,77,57.84ZM64.24,100.36a8.34,8.34,0,0,1-5.93-2.43l-7-7a8.52,8.52,0,0,1,.09-12L70.86,59.48a8.62,8.62,0,0,1,6-2.52H77a8.27,8.27,0,0,1,5.92,2.43l7,7a8.3,8.3,0,0,1,2.44,6,8.71,8.71,0,0,1-2.53,6L70.34,97.86A8.79,8.79,0,0,1,64.24,100.36Z"/><path class="cls-3" d="M76.49,79.08a1.82,1.82,0,0,0,2.61,0,1.77,1.77,0,0,0,.54-1.31,1.75,1.75,0,0,0-.54-1.3,1.68,1.68,0,0,0-.63-.41,1.56,1.56,0,0,0-.7-.11,1.85,1.85,0,0,0-.7.13,1.69,1.69,0,0,0-.58.39A1.81,1.81,0,0,0,76,77.77,1.69,1.69,0,0,0,76.49,79.08Zm-9-8.72L69,68.87l4.86,18.27-1.51,1.51ZM62.25,81a1.91,1.91,0,0,0,1.29.56A1.72,1.72,0,0,0,64.87,81a1.69,1.69,0,0,0,.38-.61,1.92,1.92,0,0,0,0-1.39,2.24,2.24,0,0,0-.38-.61,1.76,1.76,0,0,0-.63-.41,1.58,1.58,0,0,0-.7-.11,1.82,1.82,0,0,0-.7.14,1.71,1.71,0,0,0-.59.38,2,2,0,0,0-.54,1.28A1.9,1.9,0,0,0,62.25,81Z"/></svg>