<svg id="Layer_1" data-name="Layer 1" xmlns="http://www.w3.org/2000/svg" viewBox="0 0 150 150"><defs><style>.cls-1{fill:#283142;}.cls-2{fill:#ff6346;}.cls-3{fill:#1eb9d5;}</style></defs><polygon class="cls-1" points="52.41 49.26 41.38 42.86 52.41 36.49 52.41 39.1 51.51 39.1 51.51 38.07 43.18 42.86 51.51 47.68 51.51 41.2 52.41 41.2 52.41 49.26"/><path class="cls-1" d="M54,43.31l-.14-.9s.47-.06,1.17-.09l0,.9C54.37,43.25,54,43.31,54,43.31Z"/><path class="cls-1" d="M59.1,43.47a16.32,16.32,0,0,0-2-.25l0-.9a19,19,0,0,1,2.14.27Zm3.76,1.4a9.07,9.07,0,0,0-1.8-.86l.32-.85a10,10,0,0,1,2,.94Zm2.41,3a6.22,6.22,0,0,0-1-1.71l.7-.57a7.51,7.51,0,0,1,1.08,1.94Zm.86,4a17.35,17.35,0,0,0-.3-2l.88-.18A18.88,18.88,0,0,1,67,51.69Z"/><path class="cls-1" d="M67.07,55l-.9-.09a10.34,10.34,0,0,0,0-1.08h.9C67.12,54.55,67.07,55,67.07,55Z"/><polygon class="cls-1" points="97.59 113.51 97.59 110.9 98.49 110.9 98.49 111.93 106.82 107.14 98.49 102.32 98.49 108.8 97.59 108.8 97.59 100.74 108.62 107.14 97.59 113.51"/><path class="cls-1" d="M95,107.68l0-.9c.65,0,1-.09,1.08-.09l.13.9S95.72,107.65,95,107.68Z"/><path class="cls-1" d="M83.29,100.43A18.88,18.88,0,0,1,83,98.31l.9-.07a17,17,0,0,0,.3,2Zm1.69,4a7.51,7.51,0,0,1-1.08-1.94l.83-.34a6.22,6.22,0,0,0,1,1.71Zm3.67,2.38a9.49,9.49,0,0,1-2-.94l.47-.77a9.07,9.07,0,0,0,1.8.86Zm4.23.84a19,19,0,0,1-2.14-.27l.18-.88a16.32,16.32,0,0,0,2,.25Z"/><path class="cls-1" d="M83.78,96.17h-.9c0-.72.05-1.15.05-1.17l.9.09A10.34,10.34,0,0,0,83.78,96.17Z"/><path class="cls-2" d="M83.87,84.44a3.07,3.07,0,0,0,2.66-3.13c0-1.65-1.1-2.46-2.54-3.09ZM80.65,72.68c0,1.46,1,2.21,2.39,2.82l.11-5.61A2.66,2.66,0,0,0,80.65,72.68Zm3.63-5.76,0,1c1.46.07,4.09.74,4.07,1.6,0,.41-.61,1.37-.85,1.35-.41,0-1.31-1-3.25-1.08l-.15,6.06c2.29.88,4.93,1.89,4.84,5.47-.07,3-2,4.77-5.09,5l0,1.28c0,.27-.16.43-.52.41s-.52-.16-.52-.43l0-1.28c-3-.16-5.11-1.31-5.11-2,0-.43.65-1.42.95-1.37a9.06,9.06,0,0,0,4.18,1.53L83,77.75c-2.27-1-4.77-1.89-4.68-5.27.07-2.55,2-4.28,4.93-4.51l0-1.1c0-.27.16-.43.52-.41S84.3,66.64,84.28,66.92Z"/><path class="cls-3" d="M60.92,81.51A14.24,14.24,0,1,1,78.67,60.25l-.72.54A13.33,13.33,0,1,0,61.33,80.7Z"/><path class="cls-3" d="M83.78,95.09A17.84,17.84,0,1,1,97.5,65.88l-.7.56a16.92,16.92,0,1,0,3.9,10.79,16.32,16.32,0,0,0-.34-3.29l.88-.18a18.22,18.22,0,0,1,.33,3.47A17.79,17.79,0,0,1,83.78,95.09Z"/></svg>