<?xml version="1.0" encoding="utf-8"?>
<!-- Generator: Adobe Illustrator 23.0.4, SVG Export Plug-In . SVG Version: 6.00 Build 0)  -->
<svg version="1.1" id="Layer_1" xmlns="http://www.w3.org/2000/svg" xmlns:xlink="http://www.w3.org/1999/xlink" x="0px" y="0px"
	 viewBox="0 0 450 450" style="enable-background:new 0 0 450 450;" xml:space="preserve">
<style type="text/css">
	.st0{fill:none;stroke:#FF6346;stroke-width:6;stroke-miterlimit:10;}
	.st1{fill:none;stroke:#1EB9D5;stroke-width:6;stroke-miterlimit:10;}
	.st2{fill:none;stroke:#FFE161;stroke-width:6;stroke-miterlimit:10;}
</style>
<g id="Layer_4_copy">
</g>
<g id="Layer_4">
</g>
<g id="Layer_6">
</g>
<g id="Layer_10">
</g>
<g id="Layer_5">
</g>
<g id="Layer_8">
</g>
<g id="Layer_9">
</g>
<path class="st0" d="M199,243.4c-24-10.2-40.8-33.9-40.8-61.6c0-36.9,29.9-66.9,66.9-66.9s66.9,29.9,66.9,66.9s-29.9,66.9-66.9,66.9
	c-2.3,0-4.6-0.1-6.8-0.3"/>
<polyline class="st1" points="244.4,272.1 266.5,311.7 272.7,291.9 292.9,296.5 280,276.2 "/>
<polyline class="st1" points="208.5,273.8 188.7,311.7 182.9,291.7 162.6,296 180.4,264.3 "/>
<path class="st1" d="M140.1,145.9c-2.1-6.4,3.8-14.2,11.7-11.6l0,0c4.5,1.5,8.2-3.7,5.4-7.4l0,0c-6.2-8.5,4.4-19.1,12.8-12.8l0,0
	c3.8,2.8,8.9-0.9,7.4-5.4l0,0c-3.3-10,10-16.8,16.2-8.2l0,0c2.7,3.8,8.8,1.9,8.7-2.8l0,0c0-10.5,14.7-12.8,17.9-2.8l0,0
	c1.4,4.5,7.8,4.5,9.2,0l0,0c3.2-10,18-7.7,17.9,2.8l0,0c0,4.7,6,6.7,8.7,2.8l0,0c6.1-8.5,19.5-1.7,16.2,8.2l0,0
	c-1.5,4.5,3.7,8.2,7.4,5.4l0,0c8.5-6.2,19.1,4.4,12.8,12.8l0,0c-2.8,3.8,0.9,8.9,5.4,7.4l0,0c10-3.3,16.8,10,8.2,16.2l0,0
	c-3.8,2.7-1.9,8.8,2.8,8.7l0,0c10.5,0,12.8,14.7,2.8,17.9l0,0c-4.5,1.4-4.5,7.8,0,9.2l0,0c10,3.2,7.7,18-2.8,17.9l0,0
	c-4.7,0-6.7,6-2.8,8.7l0,0c8.5,6.1,1.7,19.5-8.2,16.2l0,0c-4.5-1.5-8.2,3.7-5.4,7.4l0,0c6.2,8.5-4.4,19.1-12.8,12.8l0,0
	c-3.8-2.8-8.9,0.9-7.4,5.4l0,0c3.3,10-10,16.8-16.2,8.2l0,0c-2.7-3.8-8.8-1.9-8.7,2.8l0,0c0,10.5-14.7,12.8-17.9,2.8l0,0
	c-1.4-4.5-7.8-4.5-9.2,0l0,0c-3.2,10-18,7.7-17.9-2.8l0,0c0-4.7-6-6.7-8.7-2.8l0,0c-6.1,8.5-19.5,1.7-16.2-8.2l0,0
	c1.5-4.5-3.7-8.2-7.4-5.4l0,0c-8.5,6.2-19.1-4.4-12.8-12.8l0,0c2.8-3.8-0.9-8.9-5.4-7.4l0,0c-10,3.3-16.8-10-8.2-16.2l0,0
	c3.8-2.7,1.9-8.8-2.8-8.7l0,0c-10.5,0-12.8-14.7-2.8-17.9l0,0c4.5-1.4,4.5-7.8,0-9.2l0,0c-10-3.2-7.7-18,2.8-17.9l0,0
	c4.7,0,6.7-6,2.8-8.7l0,0C141.8,149.2,140.7,147.6,140.1,145.9"/>
<polyline class="st2" points="197.3,184.9 215.1,202.7 255.6,162.4 "/>
</svg>
