<?xml version="1.0" encoding="utf-8"?>
<!-- Generator: Adobe Illustrator 23.0.4, SVG Export Plug-In . SVG Version: 6.00 Build 0)  -->
<svg version="1.1" id="Layer_1" xmlns="http://www.w3.org/2000/svg" xmlns:xlink="http://www.w3.org/1999/xlink" x="0px" y="0px"
	 viewBox="0 0 450 450" style="enable-background:new 0 0 450 450;" xml:space="preserve">
<style type="text/css">
	.st0{fill:none;stroke:#1EB9D5;stroke-width:6;stroke-miterlimit:10;}
	.st1{fill:none;stroke:#FFE161;stroke-width:6;stroke-miterlimit:10;}
	.st2{fill:#FF6346;}
</style>
<g>
	<path class="st0" d="M166.1,271.4c15.3,15.5,36.5,20.7,58.5,20.7c24,0,44.4-3.4,62-22.3s12.2-55.9,12.2-55.9"/>
	<ellipse class="st0" cx="224.6" cy="213.8" rx="74.2" ry="55.9"/>
	<path class="st1" d="M163.2,211.7c5.7-14.8,19.3-27,37.2-34"/>
	<g>
		<path class="st2" d="M227,190.2v3.4c5.8,0.3,10.9,2.1,10.9,3.9c0,1.4-1.7,4.7-2.8,4.7c-0.5,0-3.3-1.9-8.1-2.3v33.9
			c5.4-0.3,8.7-2.6,9.3-2.6c1.2,0,3,3.2,3,4.4c0,1.9-5.4,4.2-12.3,4.4v4.6c0,1-0.5,1.4-1.7,1.4s-1.7-0.4-1.7-1.4v-4.7
			c-12.3-0.7-18.6-7.6-18.6-23.4c0-17.2,9.2-22.4,18.6-22.9v-3.4c0-1,0.5-1.4,1.7-1.4C226.5,188.8,227,189.2,227,190.2z
			 M212.7,216.3c0,11.2,3,16.4,10.9,17.3v-33.8C217,200.4,212.7,205,212.7,216.3z"/>
	</g>
</g>
</svg>
