<?xml version="1.0" encoding="utf-8"?>
<!-- Generator: Adobe Illustrator 23.0.4, SVG Export Plug-In . SVG Version: 6.00 Build 0)  -->
<svg version="1.1" id="Layer_1" xmlns="http://www.w3.org/2000/svg" xmlns:xlink="http://www.w3.org/1999/xlink" x="0px" y="0px"
	 viewBox="0 0 450 450" style="enable-background:new 0 0 450 450;" xml:space="preserve">
<style type="text/css">
	.st0{fill:none;stroke:#FF6346;stroke-width:6;stroke-miterlimit:10;}
	.st1{fill:none;stroke:#FFE161;stroke-width:6;stroke-miterlimit:10;}
	.st2{fill:#1EB9D5;}
</style>
<title>number-icon-2</title>
<line class="st0" x1="137.3" y1="318.8" x2="249.9" y2="318.8"/>
<path class="st1" d="M242.7,297.6c-13.4,43.6-59.5,68.2-103.2,54.8s-68.2-59.5-54.8-103.2s59.5-68.2,103.2-54.8
	c33.4,10.2,56.7,40.3,58.3,75.2"/>
<path class="st2" d="M253.5,315.5H133.9v-17.8l47.9-48.2c14.6-14.8,24.2-25.3,28.9-31.6c4.3-5.7,7.8-11.9,10.5-18.4
	c2.4-6.2,3.5-12.7,3.5-19.3c0-9.7-2.9-17.4-8.8-23.1c-5.9-5.7-14.1-8.5-24.5-8.5c-7.3,0-14.6,1.2-21.5,3.7
	c-6.8,2.5-14.3,7-22.6,13.6l-11-14.1c16.8-13.9,35-20.9,54.8-20.9c17.1,0,30.5,4.4,40.2,13.1c9.7,8.8,14.6,20.5,14.6,35.3
	c0,11.5-3.2,23-9.7,34.2c-6.5,11.3-18.6,25.6-36.4,42.8l-39.8,39v1h93.6L253.5,315.5z"/>
<path class="st2" d="M286.1,302.3c0-5.6,1.3-9.8,3.8-12.6s6.2-4.3,10.9-4.3c4.8,0,8.6,1.4,11.3,4.3s4,7.1,4,12.6
	c0,5.4-1.4,9.6-4.1,12.5s-6.5,4.4-11.2,4.4c-3.9,0.1-7.7-1.3-10.5-3.9C287.5,312.6,286.1,308.3,286.1,302.3z"/>
</svg>
