<?xml version="1.0" encoding="utf-8"?>
<!-- Generator: Adobe Illustrator 23.0.4, SVG Export Plug-In . SVG Version: 6.00 Build 0)  -->
<svg version="1.1" id="Layer_1" xmlns="http://www.w3.org/2000/svg" xmlns:xlink="http://www.w3.org/1999/xlink" x="0px" y="0px"
	 viewBox="0 0 450 450" style="enable-background:new 0 0 450 450;" xml:space="preserve">
<style type="text/css">
	.st0{fill:none;stroke:#FF6346;stroke-width:6;stroke-miterlimit:10;}
	.st1{fill:none;stroke:#FFE161;stroke-width:6;stroke-miterlimit:10;}
	.st2{fill:#1EB9D5;}
</style>
<title>number-icon-1</title>
<line class="st0" x1="207.1" y1="139.7" x2="207.1" y2="310.3"/>
<path class="st1" d="M159.5,250.7c-40.1-22.1-54.6-72.6-32.5-112.7s72.6-54.6,112.7-32.5s54.6,72.6,32.5,112.7
	c-14,25.4-40.2,41.6-69.2,42.7c-5.6,0.2-11.2-0.1-16.8-1"/>
<path class="st2" d="M205,314.2h-20.2V184.5c0-10.8,0.3-21,1-30.6c-1.7,1.7-3.7,3.6-5.9,5.5s-12,10-29.6,24.3l-10.9-14.2l48.2-37.2
	H205V314.2z"/>
<path class="st2" d="M280.7,301c0-5.6,1.3-9.8,3.8-12.6s6.2-4.3,10.9-4.3c4.8,0,8.6,1.4,11.3,4.3s4,7.1,4,12.6
	c0,5.4-1.4,9.6-4.1,12.5s-6.5,4.4-11.2,4.4c-3.9,0.1-7.7-1.3-10.5-3.9C282,311.3,280.7,307,280.7,301z"/>
</svg>
