<?xml version="1.0" encoding="utf-8"?>
<!-- Generator: Adobe Illustrator 23.0.4, SVG Export Plug-In . SVG Version: 6.00 Build 0)  -->
<svg version="1.1" id="Layer_1" xmlns="http://www.w3.org/2000/svg" xmlns:xlink="http://www.w3.org/1999/xlink" x="0px" y="0px"
	 viewBox="0 0 450 450" style="enable-background:new 0 0 450 450;" xml:space="preserve">
<style type="text/css">
	.st0{fill:none;stroke:#FF6346;stroke-width:6;stroke-miterlimit:10;}
	.st1{fill:none;stroke:#FFE161;stroke-width:6;stroke-miterlimit:10;}
	.st2{fill:none;stroke:#1EB9D5;stroke-width:6;stroke-miterlimit:10;}
</style>
<g id="Layer_4_copy">
	<g>
		<path class="st0" d="M253.1,143.9c25.3,0,45.8,20.5,45.8,45.8s-20.5,45.8-45.8,45.8"/>
		<path class="st0" d="M201.5,236.7c-25.3,0-45.8-20.5-45.8-45.8s20.5-45.8,45.8-45.8"/>
		<g>
			<path class="st1" d="M325.3,157.2v100.1h-73V219c-0.2,0-0.5,0-0.7,0c-15.4,0-27.9-12.5-27.9-27.9s12.5-27.9,27.9-27.9
				c0.2,0,0.5,0,0.7,0v-40.6l67.1,0.4"/>
		</g>
		<path class="st2" d="M131.7,257.7h70.6v-36.9v-1.9c-15.4,0-28.4-12.5-28.4-27.9s13-27.9,28.4-27.9v-3.9v-36.9h-36.9h-12.9h-27.8
			v105.9"/>
	</g>
</g>
<g id="Layer_4">
</g>
<g id="Layer_6">
</g>
<g id="Layer_10">
</g>
<g id="Layer_5">
</g>
<g id="Layer_8">
</g>
<g id="Layer_9">
</g>
<g id="Layer_3">
</g>
</svg>
