<?xml version="1.0" encoding="utf-8"?>
<!-- Generator: Adobe Illustrator 23.0.4, SVG Export Plug-In . SVG Version: 6.00 Build 0)  -->
<svg version="1.1" id="Layer_1" xmlns="http://www.w3.org/2000/svg" xmlns:xlink="http://www.w3.org/1999/xlink" x="0px" y="0px"
	 viewBox="0 0 450 450" style="enable-background:new 0 0 450 450;" xml:space="preserve">
<style type="text/css">
	.st0{fill:none;stroke:#1EB9D5;stroke-width:6;stroke-miterlimit:10;}
	.st1{fill:#FF6346;}
	.st2{fill:none;stroke:#FFE161;stroke-width:6;stroke-miterlimit:10;}
</style>
<g id="Layer_4_copy">
</g>
<g id="Layer_4">
</g>
<g id="Layer_6">
</g>
<g id="Layer_10">
</g>
<g id="Layer_5">
</g>
<g id="Layer_8">
</g>
<g id="Layer_9">
</g>
<g>
	<g>
		<g>
			<polyline class="st0" points="279,170.3 296.6,189.1 224.3,261.4 153.4,189.1 181.5,158.9 268.5,158.9 			"/>
			<line class="st0" x1="156.2" y1="189.1" x2="296.6" y2="189.1"/>
			<polyline class="st0" points="209.9,159 194.4,188.2 224.3,261.4 			"/>
			<polyline class="st0" points="238.9,159 254.3,188.2 224.5,261.4 			"/>
		</g>
		<polygon class="st1" points="265.9,133.7 272.6,146 284.8,152.7 272.6,159.4 265.9,171.6 259.2,159.4 246.9,152.7 259.2,146 		"/>
		<path class="st2" d="M187.4,96c6.4-2.4,13.2-4.2,20.3-5.3c58.7-9.6,114.1,30.3,123.6,89c9.6,58.7-30.3,114.1-89,123.6
			c-58.7,9.6-114.1-30.3-123.6-89c-5.4-32.9,4.8-64.8,25.2-88.1"/>
	</g>
</g>
<g id="Layer_3">
</g>
</svg>
