<?xml version="1.0" encoding="utf-8"?>
<!-- Generator: Adobe Illustrator 23.0.4, SVG Export Plug-In . SVG Version: 6.00 Build 0)  -->
<svg version="1.1" id="Layer_1" xmlns="http://www.w3.org/2000/svg" xmlns:xlink="http://www.w3.org/1999/xlink" x="0px" y="0px"
	 viewBox="0 0 2086.8 2086.8" style="enable-background:new 0 0 2086.8 2086.8;" xml:space="preserve">
<style type="text/css">
	.st0{fill:#ED1C24;}
	.st1{fill:#FFFFFF;}
</style>
<rect class="st0" width="2086.8" height="2086.8"/>
<path class="st1" d="M277.1,1458.8l-46.7,136.3l-46.7-136.3H124l72.8,199.8h65.4l72.8-199.8H277.1 M741.9,1376.7v98.9
	c-16.8-13-37.3-20.5-57.9-20.5c-56,0-100.8,46.7-100.8,102.7c0,57.9,44.8,102.6,100.8,102.6c20.5,0,41.1-7.5,57.9-18.6v16.8h50.4
	v-281.9L741.9,1376.7 M637.4,1557.7c0-29.9,22.4-54.2,52.3-54.2c29.8,0,54.1,24.3,54.1,54.2c0,29.8-24.3,54.1-54.1,54.1
	S637.4,1587.6,637.4,1557.7z M986.5,1458.8v16.8h-1.9c-15-13-35.5-20.5-57.9-20.5c-54.1,0-98.9,46.7-98.9,102.7
	c0,57.9,44.8,102.6,98.9,102.6c22.5,0,43-7.5,59.8-18.6v16.8h50.4v-199.7L986.5,1458.8 M880.1,1557.7c0-29.9,24.2-54.2,54.1-54.2
	c29.9,0,54.1,24.3,54.1,54.2c0,29.8-24.2,54.1-54.1,54.1C904.3,1611.9,880.1,1587.6,880.1,1557.7z M1176.9,1458.8h-31.7v-13.1
	c0-11.2,0-28,20.5-28h9.3v-44.8h-13c-46.7,1.9-67.2,16.8-67.2,65.3v20.5h-24.3v46.7h24.3v153.1h50.4v-153.1h31.7V1458.8
	 M1486.8,1475.6c14.9-13,35.5-20.5,57.9-20.5c46.7,0,74.6,29.9,74.6,69.1v134.4h-52.3v-117.6c0-28-20.5-37.3-37.3-37.3
	c-14.9,0-42.9,7.5-41.1,42.9v112h-54.1v-199.7h52.3V1475.6 M1804.2,1535.3c-3.7-22.4-24.3-35.5-46.7-35.5
	c-24.3,0-42.9,13.1-46.7,35.5L1804.2,1535.3 M1709,1574.5c1.8,24.3,22.4,42.9,48.5,42.9c20.5,0,33.6-7.5,41.1-22.4h56
	c-9.4,29.9-43,65.3-95.3,65.3c-61.5,0-104.5-46.7-104.5-102.6c0-56,46.7-102.7,104.5-102.7c59.8,0,100.9,50.4,100.9,102.7
	c0,11.2-1.9,16.8-1.9,16.8L1709,1574.5L1709,1574.5z M486.2,1460.7c-18.6,5.6-31.7,22.4-31.7,41.1v1.9c29.9,7.5,44.8,26.1,44.8,54.2
	c0,29.8-24.3,54.1-54.1,54.1c-29.9,0-57.9-26.1-57.9-61.6c0-46.7,37.3-87.7,93.4-89.6h3.7c-11.2-5.6-24.3-7.5-39.2-7.5
	c-57.9,0-106.4,46.7-106.4,104.6c0,56,48.5,102.6,106.4,102.6c59.7,0,108.2-46.7,108.2-102.6
	C553.4,1514.8,525.4,1477.5,486.2,1460.7 M1294.5,1455.1c-57.9,0-106.4,44.8-106.4,102.7c0,42.9,28,80.3,65.4,95.2
	c18.6-3.7,33.6-20.5,33.6-41.1c-29.9-7.5-44.8-28-44.8-54.1c0-29.9,24.3-54.2,54.2-54.2c29.9,0,57.9,24.3,57.9,61.6
	c0,46.7-39.2,87.7-93.4,89.6h-5.6c13,3.7,26.1,7.5,39.2,7.5c59.7,0,108.2-46.7,108.2-104.5
	C1402.8,1499.9,1354.3,1455.1,1294.5,1455.1 M1180.7,458.2c-80.3,18.7-141.9,89.6-141.9,175.5v7.5c128.8,26.1,192.3,112,192.3,225.8
	c0,127-104.5,231.5-231.5,231.5S753.1,992.1,753.1,833.4c0-192.3,164.3-373.4,399.5-379c5.6,0,11.2,0,18.7,1.9
	c-52.3-20.5-108.3-31.7-166.2-31.7c-253.9,0-457.4,197.9-457.4,442.4c0,244.6,203.5,442.5,457.4,442.5
	c252,0,455.5-197.9,455.5-442.5C1460.6,684.1,1344.9,525.4,1180.7,458.2 M1884.4,1456.9h-7.4v-57.9h-16.8v-7.5h41.1v7.5h-16.8
	L1884.4,1456.9 M1908.7,1391.6h13.1l13,52.3l13.1-52.3h15v65.3h-9.4v-57.9l-14.9,57.9h-7.5l-14.9-57.9v57.9h-7.5V1391.6"/>
</svg>
