<?xml version="1.0" encoding="utf-8"?>
<!-- Generator: Adobe Illustrator 23.0.4, SVG Export Plug-In . SVG Version: 6.00 Build 0)  -->
<svg version="1.1" id="Layer_1" xmlns="http://www.w3.org/2000/svg" xmlns:xlink="http://www.w3.org/1999/xlink" x="0px" y="0px"
	 viewBox="0 0 500 500" style="enable-background:new 0 0 500 500;" xml:space="preserve">
<style type="text/css">
	.st0{fill:none;stroke:#FFE161;stroke-width:4;stroke-miterlimit:10;}
	.st1{fill:none;stroke:#FFE161;stroke-width:4;stroke-miterlimit:10;stroke-dasharray:9.3081,9.3081;}
	.st2{fill:#FF6346;}
	.st3{fill:none;stroke:#1EB9D5;stroke-width:4;stroke-miterlimit:10;}
</style>
<g id="Layer_4_copy">
</g>
<g id="Layer_4">
</g>
<g id="Layer_6">
</g>
<g id="Layer_10">
</g>
<g id="Layer_5">
</g>
<g id="Layer_8">
</g>
<g id="Layer_9">
</g>
<g id="Layer_3">
	<g>
		<polyline class="st0" points="147.7,90.6 147.7,82.5 104.7,107.3 147.7,132.2 147.7,99.9 		"/>
		<g>
			<g>
				<path class="st0" d="M156.3,107.3c0,0,1.9-0.3,5-0.4"/>
				<path class="st1" d="M170.5,106.9c8.8,0.5,20,2.7,29.1,9.2c10.5,7.5,12.9,24.5,13.3,35.3"/>
				<path class="st0" d="M213,156c0,3.1-0.2,5-0.2,5"/>
			</g>
		</g>
		<polyline class="st0" points="352.3,409.4 352.3,417.5 395.3,392.7 352.3,367.8 352.3,400.1 		"/>
		<g>
			<g>
				<path class="st0" d="M343.7,392.7c0,0-1.9,0.3-5,0.4"/>
				<path class="st1" d="M329.5,393.1c-8.8-0.5-20-2.7-29.1-9.2c-10.5-7.5-12.9-24.5-13.3-35.3"/>
				<path class="st0" d="M287,344c0-3.1,0.2-5,0.2-5"/>
			</g>
		</g>
		<g>
			<g>
				<path class="st2" d="M291.2,214.1l-0.1,4.6c6.5,0.3,18.2,3.3,18.1,7.1c0,1.8-2.7,6.1-3.8,6c-1.8,0-5.8-4.4-14.4-4.8l-0.7,26.9
					c10.2,3.9,21.9,8.4,21.5,24.3c-0.3,13.2-9.1,21.2-22.6,22.2l-0.1,5.7c0,1.2-0.7,1.9-2.3,1.8c-1.6,0-2.3-0.7-2.3-1.9l0.1-5.7
					c-13.1-0.7-22.7-5.8-22.7-9c0-1.9,2.9-6.3,4.2-6.1c1.4,0,7.5,6.3,18.6,6.8l0.7-29.8c-10.1-4.2-21.2-8.4-20.8-23.4
					c0.3-11.3,8.8-19,21.9-20l0.1-4.9c0-1.2,0.7-1.9,2.3-1.8C290.6,212.2,291.3,212.9,291.2,214.1z M275.1,239.7
					c-0.1,6.5,4.5,9.8,10.6,12.5l0.5-24.9C279.6,228.2,275.2,232.3,275.1,239.7L275.1,239.7z M289.4,291.9
					c6.8-1.1,11.7-6.3,11.8-13.9c0.1-7.3-4.9-10.9-11.3-13.7L289.4,291.9z"/>
			</g>
			<path class="st3" d="M188.4,277.1c-20.1-10.1-34-30.9-34-54.8c0-33.9,27.3-61.2,61.2-61.2c20.1,0,37.9,9.7,49.1,24.6"/>
			<path class="st3" d="M364.7,245c1,4.9,1.5,9.8,1.5,15c0,42.7-34.5,77.2-77.2,77.2s-77.2-34.5-77.2-77.2s34.5-77.2,77.2-77.2
				c23.9,0,45.3,10.9,59.4,28"/>
		</g>
	</g>
</g>
</svg>
