<svg xmlns="http://www.w3.org/2000/svg" viewBox="0 0 432.25 167.91"><defs><style>.cls-1,.cls-3{fill:none;stroke-miterlimit:10;stroke-width:6px;}.cls-1{stroke:#334054;}.cls-2{fill:#ff6346;}.cls-3{stroke:#1eb9d5;}</style></defs><g id="Layer_2" data-name="Layer 2"><g id="Layer_3" data-name="Layer 3"><path class="cls-1" d="M265.67,51.63S250.93,64.44,252.36,100s21.43,47,21.43,47"/><path class="cls-2" d="M249.6,144.09c-8.73-12.69-13.29-29.74-13.29-48.58s4.56-35.89,13.29-48.58C259.71,32.26,273,27.1,283.5,27.1s23.8,5.16,33.91,19.83c8.73,12.69,13.29,29.74,13.29,48.58s-4.56,35.89-13.29,48.58c-10.11,14.68-23.4,19.83-33.91,19.83S259.71,158.77,249.6,144.09Zm11.1-88.83C253.56,66.56,251,81.63,251,95.51s2.58,28.95,9.72,40.25c6.94,11.11,16.06,14.68,22.8,14.68s15.87-3.57,22.81-14.68c7.13-11.3,9.71-26.37,9.71-40.25s-2.58-28.95-9.71-40.25c-6.94-11.11-16.07-14.67-22.81-14.67S267.64,44.15,260.7,55.26Z"/><polyline class="cls-1" points="398.52 61.54 398.52 86.31 425.6 86.31"/><path class="cls-2" d="M346.27,89h35.86V54.9h14.26V89h35.86v13.08H396.39v34.07H382.13V102.05H346.27Z"/><path class="cls-3" d="M93.57,118.5A61,61,0,1,1,110,105.59"/><line class="cls-1" x1="96.17" y1="34.24" x2="96.17" y2="160.67"/><path class="cls-2" d="M94.54,163.54H79.6V67.41q0-12,.73-22.7C79,46,77.6,47.36,76,48.77s-8.92,7.41-22,18L45.92,56.24,81.63,28.66H94.54Z"/><path class="cls-1" d="M213,126.56s-3.21,33.15-44.6,38.37"/><path class="cls-2" d="M211.73,40.61h-43l-8.65,28.94a36.76,36.76,0,0,1,8.45-.8c26.93,0,44.22,20.3,44.22,46.43,0,29.95-22.51,48.25-48.85,48.25-10.85,0-20.9-3-29.95-10.46a55.86,55.86,0,0,1-11.66-13.66l11.86-8.45a31.17,31.17,0,0,0,9.05,10.86,32.91,32.91,0,0,0,21.71,8c18.89,0,33-15.48,33-34.38,0-19.29-13.87-33-33-33-4.83,0-13.87.8-25.93,9.24l19.5-64.72h53.27Z"/></g></g></svg>