<?xml version="1.0" encoding="utf-8"?>
<!-- Generator: Adobe Illustrator 23.0.4, SVG Export Plug-In . SVG Version: 6.00 Build 0)  -->
<svg version="1.1" id="Layer_1" xmlns="http://www.w3.org/2000/svg" xmlns:xlink="http://www.w3.org/1999/xlink" x="0px" y="0px"
	 viewBox="0 0 500 500" style="enable-background:new 0 0 500 500;" xml:space="preserve">
<style type="text/css">
	.st0{fill:none;stroke:#1EB9D5;stroke-width:4;stroke-miterlimit:10;}
	.st1{fill:#FF6346;}
	.st2{fill:none;stroke:#FFE161;stroke-width:4;stroke-miterlimit:10;}
</style>
<g id="Layer_4_copy">
</g>
<g id="Layer_4">
</g>
<g id="Layer_6">
</g>
<g id="Layer_10">
</g>
<g id="Layer_5">
</g>
<g id="Layer_8">
</g>
<g id="Layer_9">
</g>
<g>
	<path class="st0" d="M118.5,379.1c6,0,13,0,20.8,0c37.4,0,65,26.1,111.6,26.1c24.6,0,63.9,0,88.6,0c37.9,0,43-31.5,8.4-31.5
		c-15.7,0-38-0.8-75.3-1.1c-10,0.6-63.2,3.6-68.2-55c0,0,31.5-2.2,74.2,22c24.5,13.9,48.7-10.3,6.6-30
		c-27.3-12.8-56.1-26.8-92.3-26.5c-43.8,0.3-100.1,3.2-100.1,3.2V379"/>
</g>
<g>
	<path class="st1" d="M332.2,126.2l-0.1,4.6c6.5,0.3,18.2,3.3,18.1,7.1c0,1.8-2.7,6.1-3.8,6c-1.8,0-5.8-4.4-14.4-4.8l-0.7,26.9
		c10.2,3.9,21.9,8.4,21.5,24.3c-0.3,13.2-9.1,21.2-22.6,22.2l-0.1,5.7c0,1.2-0.7,1.9-2.3,1.8c-1.6,0-2.3-0.7-2.3-1.9l0.1-5.7
		c-13.1-0.7-22.7-5.8-22.7-9c0-1.9,2.9-6.3,4.2-6.1c1.4,0,7.5,6.3,18.6,6.8l0.7-29.8c-10.1-4.2-21.2-8.4-20.8-23.4
		c0.3-11.3,8.8-19,21.9-20l0.1-4.9c0-1.2,0.7-1.9,2.3-1.8C331.7,124.3,332.4,124.9,332.2,126.2z M316.2,151.7
		c-0.1,6.5,4.5,9.8,10.6,12.5l0.5-24.9C320.7,140.3,316.3,144.4,316.2,151.7L316.2,151.7z M330.5,203.9c6.8-1.1,11.7-6.3,11.8-13.9
		c0.1-7.3-4.9-10.9-11.3-13.7L330.5,203.9z"/>
</g>
<path class="st2" d="M405.8,157c1,4.9,1.5,9.8,1.5,15c0,42.7-34.5,77.2-77.2,77.2s-77.2-34.5-77.2-77.2s34.5-77.2,77.2-77.2
	c23.9,0,45.3,10.9,59.4,28"/>
</svg>
