<?xml version="1.0" encoding="utf-8"?>
<!-- Generator: Adobe Illustrator 23.0.4, SVG Export Plug-In . SVG Version: 6.00 Build 0)  -->
<svg version="1.1" id="Layer_1" xmlns="http://www.w3.org/2000/svg" xmlns:xlink="http://www.w3.org/1999/xlink" x="0px" y="0px"
	 viewBox="0 0 450 450" style="enable-background:new 0 0 450 450;" xml:space="preserve">
<style type="text/css">
	.st0{fill:#1EB9D5;}
	.st1{fill:none;stroke:#334054;stroke-width:2;stroke-miterlimit:10;}
	.st2{fill:none;stroke:#1EB9D5;stroke-width:1.5;stroke-linecap:round;stroke-linejoin:round;}
	.st3{fill:none;stroke:#FF6346;stroke-width:2;stroke-miterlimit:10;}
	.st4{fill:#334054;}
	.st5{fill:#FF6346;}
	.st6{fill:none;stroke:#1EB9D5;stroke-width:1.5;stroke-miterlimit:10;}
	.st7{fill:#FFE161;}
</style>
<title>3-steps-2</title>
<path class="st0" d="M261.3,125.5c-5.4-1.1-24-4-44.1-7l-24.3-3.5l-6.5-0.9c-15.1-2.1-20.3,1.2-23.2,11.4L147,225
	c0,0-13.2,77-17.4,105.7c-2.2,14.7,9.3,18.2,15.7,19.7c4,1,28.5,4.1,50.8,7l32.8,4.4c13,2,18.4-4.7,20-17.6
	c0.4-3.3,4.9-32.1,10.3-66.8c-1.2-0.9-2.5-1.6-3.9-2.1l-3.9,24.8l-4.4,28.6l-2.4,15.1c-1.1,6.8-7.1,11.5-13.4,10.5l-87.9-13.7
	c-6.3-1-10.6-7.3-9.5-14.1L165.2,126c1.1-6.8,7.1-11.5,13.4-10.5l23.3,3.6l1.8,10.7l34.1,5.3l5.6-9.5l23.1,3.6
	c6.3,1,10.6,7.3,9.5,14.1l-16.3,104.2c1.6,0.1,3.1,1.1,3.8,2.6c7-44.6,14.3-90.8,16.3-102.9C282.5,130.1,273.8,128,261.3,125.5z"/>
<path class="st1" d="M265.3,251.1c0.8-6.2,1.3-8.6,1.3-8.6l2.5-17c0,0,8.1-59.2,10-72c3-20.4,2.6-27.7-17.9-31l-5.8-0.9"/>
<path class="st2" d="M256.8,315.1l3.7-26.6c0.4-2.8,0.8-4.9,1.1-7.5"/>
<path class="st1" d="M229.2,117.6c-20.4-3-39-5.6-44.6-6.1c-12.9-1.3-22.1-1.8-24.5,15.8c-1.3,10-6,43-11,77.8l-17.1,117.2
	c-2.2,13.1,1,21.2,14.3,23.1c18.2,2.7,78.3,13.2,85,13.6s18.9,0.4,21.2-14.6c0.3-1.9,0.6-4,0.9-6.3"/>
<path class="st1" d="M162.4,343.6l-8.2-1.1l-7.9-1.1c-6.3-0.9-10.7-7.1-9.7-14l5.8-40.9l4.7-33.3l1.1-7.6l4.8-34.3l3.2-22.4"/>
<path class="st1" d="M256.6,276.3l-9.3,66.7c-1,6.8-6.9,11.6-13.2,10.7l-44.6-6.3"/>
<path class="st1" d="M159.7,162.9l5.1-36c0.9-6.2,5.9-10.8,11.6-10.8l18.5,2.5l6.3,0.9l2.6,10.7l34.1,4.8l4.8-9.7l23.2,3.3
	c6.3,0.9,10.7,7.1,9.7,13.9l-14.9,104.9"/>
<line class="st1" x1="226.9" y1="126.6" x2="207.2" y2="123.8"/>
<g>
	<line class="st3" x1="157" y1="107.3" x2="138.3" y2="94.5"/>
	<line class="st3" x1="166.8" y1="100.2" x2="157.6" y2="86.1"/>
	<line class="st3" x1="151.9" y1="118.9" x2="133.6" y2="114.2"/>
	<line class="st3" x1="289.9" y1="126.3" x2="311.5" y2="119.3"/>
	<line class="st3" x1="282.6" y1="116.8" x2="295.3" y2="105.8"/>
	<line class="st3" x1="291.6" y1="138.9" x2="310.5" y2="139.5"/>
</g>
<circle class="st4" cx="233.9" cy="127.7" r="1.9"/>
<g>
	<circle class="st5" cx="133" cy="90.8" r="1.9"/>
	<circle class="st5" cx="154.1" cy="80.7" r="1.9"/>
	<circle class="st5" cx="127.3" cy="112.5" r="1.9"/>
	<circle class="st5" cx="317.7" cy="117.3" r="1.9"/>
	<circle class="st5" cx="300.3" cy="101.6" r="1.9"/>
	<circle class="st5" cx="317" cy="139.7" r="1.9"/>
</g>
<circle class="st0" cx="216.6" cy="164.6" r="14.5"/>
<path class="st2" d="M233.9,256c-7.4,1.1-14.3-3.9-15.5-11.3c-1.1-7.4,3.9-14.3,11.3-15.5c2.1-0.3,4.3-0.1,6.4,0.6
	c4.2,1.3,7.4,4.7,8.5,9"/>
<polyline class="st2" points="256.6,208 255.6,214.7 164.2,200.9 171.2,154.1 203.2,158.9 "/>
<polyline class="st2" points="231.2,163.1 262.6,167.9 257.6,200.6 "/>
<polyline class="st2" points="191.1,244.3 190.6,247.8 165.1,244 168.6,221 177.5,222.3 185.3,223.5 194,224.8 193.1,231 "/>
<polyline class="st2" points="212.4,327 202.4,325.5 203.5,318.3 215,320 225.1,321.5 236.4,323.2 235.3,330.4 223.6,328.7 "/>
<polyline class="st2" points="233.2,290.2 235.4,296.4 209.9,292.6 226.6,272 230.1,281.6 "/>
<circle class="st2" cx="163.4" cy="275.3" r="2.8"/>
<circle class="st2" cx="172.5" cy="276.3" r="2.8"/>
<circle class="st2" cx="181.6" cy="277.5" r="2.8"/>
<polyline class="st2" points="160,312.8 158.2,307.8 166.6,310.5 173.6,305.1 173.7,313.9 181,318.9 172.6,321.7 170.1,330.2 
	164.9,323.1 156,323.4 158.9,319.3 "/>
<line class="st2" x1="207.9" y1="218.4" x2="190.5" y2="335.6"/>
<line class="st2" x1="154.9" y1="253.3" x2="244.7" y2="266.5"/>
<line class="st2" x1="151.2" y1="292.8" x2="241" y2="306"/>
<path class="st3" d="M290.9,272.4c7.3,5.9,14,11.2,18.1,14c11.4,7.7,24.7,9.5,31.6,7.5s29.5-11.9,29.5-11.9"/>
<path class="st3" d="M320.3,380c0,0-2.5-40.9-29.1-71.9c-13.1-15.2-46.4-41.5-51.1-45.9c-5.8-5.4-11.6-13.1-4.1-20.8
	c6.1-6.3,14.1-1,21.8,4.2c2.6,1.8,8.2,6.3,14.8,11.7"/>
<path class="st0" d="M-190.9,159.5l0.4,10.1c0,0.1,0,0.2,0,0.2c-0.1,0.2-0.3,0.2-0.8,0.1l-0.4-0.1c-0.4-0.1-0.6-0.3-0.6-0.5
	l-0.1-2.1l-3.6-1.1l-1.2,1.7c-0.1,0.2-0.4,0.2-0.7,0.1l-0.4-0.1c-0.5-0.2-0.7-0.3-0.7-0.5c0-0.1,0.1-0.2,0.1-0.2l6-8.1
	c0.1-0.2,0.4-0.2,0.8-0.1l0.6,0.2C-191.2,159.1-190.9,159.3-190.9,159.5z M-192.5,161c-0.1,0.3-0.3,0.5-0.5,0.8l-2,2.8l2.6,0.8
	l-0.1-3.4C-192.5,161.7-192.5,161.4-192.5,161L-192.5,161z"/>
<path class="st0" d="M-219.5,261.1c-0.3,0.9-1.2,1.6-2.2,1.7v0.1c1,0.6,1.5,1.8,1.2,2.9c-0.6,1.9-2.1,2.5-4.4,1.8l-2.8-0.9
	c-0.2,0-0.4-0.3-0.4-0.5c0,0,0-0.1,0-0.1l2.7-8.8c0-0.2,0.2-0.4,0.5-0.4c0.1,0,0.1,0,0.2,0.1l2.7,0.8
	C-219.7,258.3-219,259.6-219.5,261.1z M-225,262.8l-0.8,2.7l1.6,0.5c0.7,0.4,1.5,0.1,1.9-0.6c0-0.1,0.1-0.2,0.1-0.3
	c0.2-0.9-0.2-1.5-1.4-1.9L-225,262.8z M-223.8,258.7l-0.8,2.5l1.2,0.4c0.7,0.3,1.5,0,1.9-0.7c0,0,0-0.1,0-0.1
	c0.2-0.8-0.1-1.4-1.2-1.7L-223.8,258.7z"/>
<path class="st0" d="M-114.7,150.1l12.8,3.9c2.6,0.8,4,3.5,3.3,6.1l-3.5,11.4c-0.8,2.6-3.5,4-6.1,3.3l-81.2-24.8
	c-2.6-0.8-4-3.5-3.3-6.1l3.5-11.4c0.8-2.6,3.5-4,6.1-3.3l49.6,15.1"/>
<path class="st0" d="M-93.2,120c-5.3-1.9-23.6-7.7-43.5-13.8l-24-7.2l-6.4-1.9c-15-4.4-20.7-1.8-25.2,8l-31.1,98.2
	c0,0-24.9,75.8-33.4,104.1c-4.4,14.5,6.6,19.7,12.9,22.2c3.9,1.5,28.2,8.4,50.2,14.7l32.5,9.4c12.9,4,19.2-2,22.9-14.8
	c2.3-8.1,52.9-170.1,60.7-194.3C-72.4,127.9-80.9,124.4-93.2,120z M-81,140.3l-48.3,154.6l-8.8,28.3l-4.7,14.9
	c-2.1,6.7-8.9,10.6-15.1,8.6l-86.7-27.1c-6.2-2-9.6-9-7.5-15.7l61.8-197.8c2.1-6.7,8.9-10.6,15.1-8.6l23,7.2l0.2,11.1l33.6,10.5
	l7.1-8.8l22.8,7.1C-82.3,126.5-78.9,133.6-81,140.3z"/>
<circle class="st4" cx="-120.1" cy="117.8" r="1.9"/>
<circle class="st1" cx="-180.8" cy="139.9" r="5.1"/>
<line class="st1" x1="-178.3" y1="144.5" x2="-175.3" y2="150.3"/>
<line class="st6" x1="-202.2" y1="177.1" x2="-113.1" y2="204.3"/>
<line class="st6" x1="-205.3" y1="187.2" x2="-116.2" y2="214.4"/>
<line class="st6" x1="-208.4" y1="197.3" x2="-119.3" y2="224.5"/>
<line class="st6" x1="-211.5" y1="207.5" x2="-122.4" y2="234.6"/>
<line class="st6" x1="-146.8" y1="238.3" x2="-125.5" y2="244.8"/>
<line class="st6" x1="-214.6" y1="217.6" x2="-175.4" y2="229.5"/>
<line class="st6" x1="-217.7" y1="227.7" x2="-128.6" y2="254.9"/>
<line class="st6" x1="-220.8" y1="237.8" x2="-131.6" y2="265"/>
<line class="st6" x1="-223.8" y1="248" x2="-134.7" y2="275.2"/>
<line class="st6" x1="-232.2" y1="275.4" x2="-143.1" y2="302.5"/>
<line class="st6" x1="-235.3" y1="285.5" x2="-146.2" y2="312.7"/>
<line class="st6" x1="-202.3" y1="306.6" x2="-149.3" y2="322.8"/>
<line class="st2" x1="-238.4" y1="295.6" x2="-225.5" y2="299.6"/>
<path class="st7" d="M-221.5,188.5c0,0,19.5-61.8,23.4-74.4c1.2-4.3,2.7-8.5,4.4-12.6"/>
<path class="st1" d="M-81,140.3l-48.3,154.6l-8.8,28.3l-4.7,14.9c-2.1,6.7-8.9,10.6-15.1,8.6l-86.7-27.1c-6.2-2-9.6-9-7.5-15.7
	l61.8-197.8c2.1-6.7,8.9-10.6,15.1-8.6l23,7.2l0.2,11.1l33.6,10.5l7.1-8.8l22.8,7.1C-82.3,126.5-78.9,133.6-81,140.3z"/>
<path class="st1" d="M-192.6,340.1c-22.6-6.4-47.4-13.5-51.4-15c-6.4-2.5-17.7-7.9-13.2-22.8c8.7-28.9,31.7-100.4,31.7-100.4"/>
<path class="st1" d="M-136.8,102.6c20.4,6.2,39.1,12.1,44.5,14.1c12.5,4.5,21.3,8.1,15.7,25.3c-7.9,24.8-57.2,184.3-59.5,192.6
	c-3.7,13.1-10.2,19.1-23.4,15.1"/>
<path class="st1" d="M-220.8,186.8c0,0,23.4-75.6,27.1-85.3s10.4-12.7,25.7-8.2l6.6,1.9"/>
<line class="st1" x1="-146.5" y1="110.4" x2="-126.9" y2="116.1"/>
<g>
	<path class="st3" d="M-85.3,170c0,0,13.5-1.2,12.6,12.6S-94,198.2-94,198.2"/>
	<path class="st3" d="M-95.5,204.4c0,0,13.5-1.2,12.6,12.6s-21.4,15.4-21.4,15.4"/>
	<path class="st3" d="M-106.8,241.4c0,0,13.5-1.2,12.6,12.6s-21.4,15.4-21.4,15.4"/>
	<path class="st3" d="M-117.9,278.4c0,0,13.5-1.2,12.6,12.6s-21.8,15.4-21.8,15.4"/>
	<path class="st3" d="M-221,332.4c0,0-52.6,23.2-106.8,30V239.2c0,0,36.1-15.4,60.1-35.5"/>
	<path class="st3" d="M-251.7,190.2c6.6-5.5,19.9-16.8,28.9-6.3c7.6,8.9-2.6,18.4-8.9,23.3s-34.6,25.9-47.2,33.2
		c-7.7,4.5-3.1,12.9,7,9.6c9.6-3.2,24.2-12.4,24.2-12.4"/>
	<line class="st3" x1="-327.8" y1="243.1" x2="-327.8" y2="173.9"/>
</g>
</svg>
