<?xml version="1.0" encoding="utf-8"?>
<!-- Generator: Adobe Illustrator 23.0.4, SVG Export Plug-In . SVG Version: 6.00 Build 0)  -->
<svg version="1.1" id="Layer_1" xmlns="http://www.w3.org/2000/svg" xmlns:xlink="http://www.w3.org/1999/xlink" x="0px" y="0px"
	 viewBox="0 0 450 450" style="enable-background:new 0 0 450 450;" xml:space="preserve">
<style type="text/css">
	.st0{fill:none;stroke:#334054;stroke-width:2;stroke-miterlimit:10;}
	.st1{fill:none;stroke:#FF6346;stroke-width:2;stroke-miterlimit:10;}
	.st2{fill:#334054;}
	.st3{fill:#FF6346;}
	.st4{fill:#1EB9D5;}
	.st5{fill:none;stroke:#1EB9D5;stroke-width:1.5;}
</style>
<title>3-steps-2</title>
<path class="st0" d="M265.3,251.1c0.8-6.2,1.3-8.6,1.3-8.6l2.5-17c0,0,8.1-59.2,10-72c3-20.4,2.6-27.7-17.9-31l-5.8-0.9"/>
<path class="st0" d="M256.8,315.1l3.7-26.6c0.4-2.8,0.8-4.9,1.1-7.5"/>
<path class="st0" d="M229.2,117.6c-20.4-3-39-5.6-44.6-6.1c-12.9-1.3-22.1-1.8-24.5,15.8c-1.3,10-6,43-11,77.8L132,322.3
	c-2.2,13.1,1,21.2,14.3,23.1c18.2,2.7,78.3,13.2,85,13.6s18.9,0.4,21.2-14.6c0.3-1.9,0.6-4,0.9-6.3"/>
<path class="st0" d="M162.4,343.6l-8.2-1.1l-7.9-1.1c-6.3-0.9-10.7-7.1-9.7-14l5.8-40.9l4.7-33.3l1.1-7.6l4.8-34.3l3.2-22.4"/>
<path class="st0" d="M256.6,276.3l-9.3,66.7c-1,6.8-6.9,11.6-13.2,10.7l-44.6-6.3"/>
<path class="st0" d="M159.7,162.9l5.1-36c0.9-6.2,5.9-10.8,11.6-10.8l18.5,2.5l6.3,0.9l2.6,10.7l34.1,4.8l4.8-9.7l23.2,3.3
	c6.3,0.9,10.7,7.1,9.7,13.9l-14.9,104.9"/>
<line class="st0" x1="226.9" y1="126.6" x2="207.2" y2="123.8"/>
<g>
	<line class="st1" x1="157" y1="107.3" x2="138.3" y2="94.5"/>
	<line class="st1" x1="166.8" y1="100.2" x2="157.6" y2="86.1"/>
	<line class="st1" x1="151.9" y1="118.9" x2="133.6" y2="114.2"/>
	<line class="st1" x1="289.9" y1="126.3" x2="311.5" y2="119.3"/>
	<line class="st1" x1="282.6" y1="116.8" x2="295.3" y2="105.8"/>
	<line class="st1" x1="291.6" y1="138.9" x2="310.5" y2="139.5"/>
</g>
<circle class="st2" cx="233.9" cy="127.7" r="1.9"/>
<g>
	<circle class="st3" cx="133" cy="90.8" r="1.9"/>
	<circle class="st3" cx="154.1" cy="80.7" r="1.9"/>
	<circle class="st3" cx="127.3" cy="112.5" r="1.9"/>
	<circle class="st3" cx="317.7" cy="117.3" r="1.9"/>
	<circle class="st3" cx="300.3" cy="101.6" r="1.9"/>
	<circle class="st3" cx="317" cy="139.7" r="1.9"/>
</g>
<circle class="st4" cx="216.6" cy="164.6" r="14.5"/>
<path class="st5" d="M233.9,256c-7.4,1.1-14.3-3.9-15.5-11.3c-1.1-7.4,3.9-14.3,11.3-15.5c2.1-0.3,4.3-0.1,6.4,0.6
	c4.2,1.3,7.4,4.7,8.5,9"/>
<polyline class="st5" points="256.6,208 255.6,214.7 164.2,200.9 171.2,154.1 203.2,158.9 "/>
<polyline class="st5" points="231.2,163.1 262.6,167.9 257.6,200.6 "/>
<polyline class="st5" points="191.1,244.3 190.6,247.8 165.1,244 168.6,221 177.5,222.3 185.3,223.5 194,224.8 193.1,231 "/>
<polyline class="st5" points="212.4,327 202.4,325.5 203.5,318.3 215,320 225.1,321.5 236.4,323.2 235.3,330.4 223.6,328.7 "/>
<polyline class="st5" points="233.2,290.2 235.4,296.4 209.9,292.6 226.6,272 230.1,281.6 "/>
<circle class="st5" cx="163.4" cy="275.3" r="2.8"/>
<circle class="st5" cx="172.5" cy="276.3" r="2.8"/>
<circle class="st5" cx="181.6" cy="277.5" r="2.8"/>
<polyline class="st5" points="160,312.8 158.2,307.8 166.6,310.5 173.6,305.1 173.7,313.9 181,318.9 172.6,321.7 170.1,330.2 
	164.9,323.1 156,323.4 158.9,319.3 "/>
<line class="st5" x1="207.9" y1="218.4" x2="190.5" y2="335.6"/>
<line class="st5" x1="154.9" y1="253.3" x2="244.7" y2="266.5"/>
<line class="st5" x1="151.2" y1="292.8" x2="241" y2="306"/>
<path class="st1" d="M290.9,272.4c7.3,5.9,14,11.2,18.1,14c11.4,7.7,24.7,9.5,31.6,7.5s29.5-11.9,29.5-11.9"/>
<path class="st1" d="M320.3,380c0,0-2.5-40.9-29.1-71.9c-13.1-15.2-46.4-41.5-51.1-45.9c-5.8-5.4-11.6-13.1-4.1-20.8
	c6.1-6.3,14.1-1,21.8,4.2c2.6,1.8,8.2,6.3,14.8,11.7"/>
</svg>
