<svg xmlns="http://www.w3.org/2000/svg" viewBox="0 0 450 450"><defs><style>.a,.c{fill:none;stroke-miterlimit:10;stroke-width:1.5px;}.a{stroke:#1eb9d5;}.b{fill:#ffe161;}.c{stroke:#fee161;}.d{fill:#1fbad6;}.e{fill:#1eb9d5;}</style></defs><title>3-steps-3</title><polyline class="a" points="267.78 183.79 267.75 190.43 176.38 190.14 176.53 143.32 208.5 143.42"/><polyline class="a" points="236.47 143.51 267.9 143.61 267.86 157.94"/><line class="a" x1="222.68" y1="200.54" x2="223.66" y2="317.62"/><line class="a" x1="176.33" y1="242.76" x2="241.66" y2="241.8"/><line class="a" x1="178.74" y1="281.87" x2="268.43" y2="280.92"/><path class="b" d="M282,251.48c0-4,0-7.88,0-11.4-.66.94-1.79.54-3,.45l-.09,8.46C280,249.66,280.66,251.06,282,251.48Z"/><path class="b" d="M278.12,324.55c-.08,7.1-5.49,12.79-12.1,12.72l-91.51-1c-6.6-.08-11.89-5.89-11.81-13l.17-15.77.33-29.87L165,114.42c.07-7.1,5.48-12.79,12.09-12.72l24.08.26,4.1,10.62,35.47.39,3.63-10.54,24.23.27c6.6.07,11.89,5.88,11.81,13l-1,88.79c1.37,0,1.67-1.33,2.45-1.94l.71-87.15c-1.22-10.85-5.92-15.06-21.62-15.53l-6.76-.19-25.28-.55c-21-.37-40.31-.51-46-.35-13.11.37-22.38,1.11-22.43,18.93-.08,25.63-1.92,196.63-2.25,205.11-.52,13.37,3.75,21,17.33,21.25l34,1.09c23.08.84,48.52,1.8,52.73,1.52,6.75-.45,18.94-2,19.26-17.31.22-10.33.32-26.78.36-43.84a16.53,16.53,0,0,1-3.42-2.8Z"/><path class="c" d="M302.74,137.13c2.61,13.94-18.07,21.55-18.07,21.55"/><path class="c" d="M132,151.86c.65-10.33,2.8-20.6,12-20.6,11.75,0,13.06,15.67,13.06,22.2"/><path class="c" d="M73.75,301.7s35.48-24.82,49.41-74.67a264.56,264.56,0,0,0,8.11-51.67"/><path class="c" d="M284.89,158.46c4.34,4.32,9.5,8.77,14.51,16.88s1.75,14.64-1.88,17.3-9.8,2.58-12.85-1.09"/><path class="c" d="M285.27,128.51a20.4,20.4,0,0,1,5.31-1"/><path class="a" d="M284.81,322.51c.36,13.91-4.18,21.81-18.29,21.85-19.33.06-83.22,2.08-90.23,1.52s-19.66-2.35-19.79-18.25c-.23-30.92.58-107.74.58-107.74"/><path class="a" d="M284.65,288.53c0,5,0,9.56,0,13.64"/><path class="a" d="M284.56,239.33c0,6,0,7.54,0,13.28"/><line class="a" x1="279.6" y1="248.69" x2="279.62" y2="240.64"/><path class="a" d="M258.85,340.23l8.4,0c6.71,0,12.16-5.82,12.17-13l.11-43.27"/><path class="a" d="M250,101.88l-6.63,0L239,112.6,203,112.52l-3.54-10.76-24.62-.05c-6.71,0-12.15,5.81-12.17,13L162.16,327c0,7.21,5.41,13.07,12.12,13.08l51.91.12"/><path class="a" d="M279.71,204.29l.2-89.29c0-6.59-4.51-12-10.41-13"/><line class="a" x1="205.88" y1="106.44" x2="226.77" y2="106.44"/><path class="d" d="M200.89,215.52v.32c0,.4-.13.57-.42.57h-3.16l-.17,2.53h.54c2.08,0,3.79.77,3.79,3.34s-2,3.39-3.82,3.39-3-.51-3-1c0-.29.43-1,.72-1a6,6,0,0,0,2.21.55,1.74,1.74,0,0,0,1.9-1.82c0-1.18-.68-1.85-2.22-1.85h-1.53c-.41,0-.52-.17-.52-.55l.28-4.5c0-.39.2-.55.6-.55h4.33C200.76,214.87,200.89,215.06,200.89,215.52Z"/><path class="d" d="M191.22,214.14v.29c.69,0,1.35.28,1.35.55s-.23.64-.39.64a3,3,0,0,0-1-.26v1.55c.73.3,1.62.64,1.62,1.78a1.69,1.69,0,0,1-1.62,1.81v.39c0,.16-.07.22-.21.22s-.23-.06-.23-.22v-.38c-1.1,0-1.78-.44-1.78-.7s.3-.66.45-.66a3.48,3.48,0,0,0,1.33.43v-1.7c-.75-.28-1.66-.61-1.66-1.79a1.66,1.66,0,0,1,1.66-1.65v-.3c0-.16.07-.22.21-.22S191.22,214,191.22,214.14Zm-1,1.89c0,.34.24.53.57.7V215.4C190.37,215.5,190.21,215.74,190.21,216Zm1,3.48a.73.73,0,0,0,.54-.72.81.81,0,0,0-.54-.72Z"/><path class="d" d="M236.18,214.14v.29c.7,0,1.36.28,1.36.55s-.23.64-.39.64a3,3,0,0,0-1-.26v1.55c.74.3,1.63.64,1.63,1.78a1.69,1.69,0,0,1-1.63,1.81v.39c0,.16-.06.22-.2.22s-.23-.06-.23-.22v-.38c-1.1,0-1.78-.44-1.78-.7s.3-.66.45-.66a3.41,3.41,0,0,0,1.33.43v-1.7c-.75-.28-1.66-.61-1.66-1.79a1.65,1.65,0,0,1,1.66-1.65v-.3c0-.16.07-.22.21-.22S236.18,214,236.18,214.14Zm-1,1.89c0,.34.24.53.57.7V215.4C235.34,215.5,235.18,215.74,235.18,216Zm1,3.48a.72.72,0,0,0,.55-.72.81.81,0,0,0-.55-.72Z"/><path class="d" d="M186.9,257.05v.29c.7,0,1.36.29,1.36.55s-.23.64-.39.64a3,3,0,0,0-1-.26v1.56c.74.3,1.63.64,1.63,1.77a1.69,1.69,0,0,1-1.63,1.81v.4c0,.15-.06.21-.2.21s-.23-.06-.23-.21v-.39c-1.1,0-1.78-.43-1.78-.7s.3-.66.45-.66a3.41,3.41,0,0,0,1.33.43v-1.7c-.75-.28-1.66-.6-1.66-1.78a1.66,1.66,0,0,1,1.66-1.66v-.3c0-.15.07-.21.21-.21S186.9,256.9,186.9,257.05Zm-1,1.9c0,.33.24.53.57.69v-1.32A.63.63,0,0,0,185.9,259Zm1,3.47a.71.71,0,0,0,.55-.71.8.8,0,0,0-.55-.72Z"/><path class="d" d="M236.18,257.05v.29c.7,0,1.36.29,1.36.55s-.23.64-.39.64a3,3,0,0,0-1-.26v1.56c.74.3,1.63.64,1.63,1.77a1.69,1.69,0,0,1-1.63,1.81v.4c0,.15-.06.21-.2.21s-.23-.06-.23-.21v-.39c-1.1,0-1.78-.43-1.78-.7s.3-.66.45-.66a3.41,3.41,0,0,0,1.33.43v-1.7c-.75-.28-1.66-.6-1.66-1.78a1.66,1.66,0,0,1,1.66-1.66v-.3c0-.15.07-.21.21-.21S236.18,256.9,236.18,257.05Zm-1,1.9c0,.33.24.53.57.69v-1.32A.63.63,0,0,0,235.18,259Zm1,3.47a.71.71,0,0,0,.55-.71.8.8,0,0,0-.55-.72Z"/><path class="d" d="M186.9,296.27v.29c.7,0,1.36.28,1.36.55s-.23.64-.39.64a3,3,0,0,0-1-.26v1.56c.74.3,1.63.64,1.63,1.77a1.69,1.69,0,0,1-1.63,1.81V303c0,.16-.06.22-.2.22s-.23-.06-.23-.22v-.38c-1.1,0-1.78-.43-1.78-.7s.3-.66.45-.66a3.41,3.41,0,0,0,1.33.43V300c-.75-.28-1.66-.61-1.66-1.78a1.66,1.66,0,0,1,1.66-1.66v-.3c0-.15.07-.21.21-.21S186.9,296.12,186.9,296.27Zm-1,1.9c0,.33.24.53.57.69v-1.33A.64.64,0,0,0,185.9,298.17Zm1,3.47a.72.72,0,0,0,.55-.72.79.79,0,0,0-.55-.71Z"/><path class="d" d="M236.18,296.27v.29c.7,0,1.36.28,1.36.55s-.23.64-.39.64a3,3,0,0,0-1-.26v1.56c.74.3,1.63.64,1.63,1.77a1.69,1.69,0,0,1-1.63,1.81V303c0,.16-.06.22-.2.22s-.23-.06-.23-.22v-.38c-1.1,0-1.78-.43-1.78-.7s.3-.66.45-.66a3.41,3.41,0,0,0,1.33.43V300c-.75-.28-1.66-.61-1.66-1.78a1.66,1.66,0,0,1,1.66-1.66v-.3c0-.15.07-.21.21-.21S236.18,296.12,236.18,296.27Zm-1,1.9c0,.33.24.53.57.69v-1.33A.64.64,0,0,0,235.18,298.17Zm1,3.47a.72.72,0,0,0,.55-.72.79.79,0,0,0-.55-.71Z"/><path class="d" d="M244,215.17V224h1.86c.29,0,.42.2.42.65v.23c0,.46-.13.66-.42.66h-6c-.29,0-.41-.2-.41-.66v-.23c0-.45.12-.65.41-.65h2.27v-7.35l-2.31.35c-.34,0-.43-.72-.43-1.1,0-.2.12-.32.35-.37l3.71-.73C243.67,214.82,244,215,244,215.17Z"/><path class="d" d="M254.59,220.21c0,3.58-1.45,5.46-3.57,5.46s-3.56-1.88-3.56-5.46,1.46-5.45,3.56-5.45S254.59,216.64,254.59,220.21Zm-5.19,0c0,2.71.69,3.93,1.63,3.93s1.65-1.22,1.65-3.93-.7-3.92-1.65-3.92S249.4,217.51,249.4,220.21Z"/><path class="d" d="M195.2,257.47v8.85h1.86c.29,0,.41.19.41.65v.23c0,.46-.12.66-.41.66h-6c-.29,0-.41-.2-.41-.66V267c0-.46.12-.65.41-.65h2.26V259l-2.31.35c-.33,0-.42-.72-.42-1.1,0-.2.12-.32.35-.37l3.71-.73C194.88,257.12,195.2,257.29,195.2,257.47Z"/><path class="d" d="M205,257.82v.32c0,.4-.12.57-.41.57H201.4l-.17,2.53h.53c2.08,0,3.79.77,3.79,3.33s-2,3.4-3.82,3.4-2.94-.51-2.94-1c0-.29.42-1.05.71-1.05a6.19,6.19,0,0,0,2.22.55,1.73,1.73,0,0,0,1.89-1.82c0-1.18-.67-1.85-2.21-1.85h-1.53c-.41,0-.52-.17-.52-.55l.28-4.51c0-.38.19-.55.59-.55h4.34C204.85,257.16,205,257.36,205,257.82Z"/><path class="d" d="M246,259.9c0,1.16-.4,1.88-1.86,3.68l-2.23,2.75h3.83c.29,0,.41.2.41.64v.23c0,.46-.12.66-.41.66h-6c-.21,0-.38-.72-.38-1.1a.52.52,0,0,1,.05-.25l3.89-4.81a2.56,2.56,0,0,0,.75-1.74c0-.87-.66-1.36-1.6-1.36-1.12,0-1.7.7-2,.7s-.72-.61-.72-.94c0-.81,1.68-1.3,2.93-1.3C244.81,257.06,246,258.22,246,259.9Z"/><path class="d" d="M252.68,262.51c0,2.71-.7,3.93-1.65,3.93s-1.63-1.22-1.63-3.93c0-1.92.35-3.08.89-3.6-.28-.41-.15-1.12-.48-1.61-1.43.61-2.35,2.38-2.35,5.21,0,3.58,1.46,5.46,3.56,5.46s3.57-1.88,3.57-5.46a10.46,10.46,0,0,0-.07-1.29,9.05,9.05,0,0,0-2.05-.88A9.81,9.81,0,0,1,252.68,262.51Z"/><path class="d" d="M196.89,299.15a2.31,2.31,0,0,1-1.48,2.2v.07a2.7,2.7,0,0,1,1.83,2.75,3.14,3.14,0,0,1-3.43,3.22c-1.38,0-3.23-.37-3.23-1.12,0-.29.38-1,.67-1a6.83,6.83,0,0,0,2.3.59,1.61,1.61,0,0,0,1.75-1.71c0-1.21-.65-1.73-2-1.73h-.46c-.27,0-.39-.19-.39-.65v-.23c0-.46.12-.66.39-.66h.36a1.56,1.56,0,0,0,1.74-1.54,1.27,1.27,0,0,0-1.45-1.32,5.07,5.07,0,0,0-2,.49c-.24,0-.66-.68-.66-1,0-.64,1.58-1,2.88-1C195.65,296.48,196.89,297.46,196.89,299.15Z"/><path class="d" d="M205.8,301.94c0,3.57-1.45,5.45-3.58,5.45s-3.56-1.88-3.56-5.45,1.47-5.46,3.56-5.46S205.8,298.36,205.8,301.94Zm-5.2,0c0,2.7.69,3.92,1.64,3.92s1.65-1.22,1.65-3.92-.7-3.93-1.65-3.93S200.6,299.23,200.6,301.94Z"/><path class="d" d="M245.59,297.25v.32c0,.39-.12.56-.41.56H242l-.17,2.54h.54c2.07,0,3.78.76,3.78,3.33s-2,3.39-3.81,3.39-3-.5-3-1c0-.29.42-1.06.71-1.06a6.19,6.19,0,0,0,2.22.55,1.73,1.73,0,0,0,1.89-1.82c0-1.17-.67-1.84-2.21-1.84h-1.53c-.41,0-.52-.17-.52-.55l.28-4.51a.51.51,0,0,1,.59-.55h4.34C245.47,296.59,245.59,296.79,245.59,297.25Z"/><path class="d" d="M254.59,301.94c0,3.57-1.45,5.45-3.57,5.45s-3.56-1.88-3.56-5.45,1.46-5.46,3.56-5.46S254.59,298.36,254.59,301.94Zm-5.19,0c0,2.7.69,3.92,1.63,3.92s1.65-1.22,1.65-3.92S252,298,251,298,249.4,299.23,249.4,301.94Z"/><circle class="e" cx="222.45" cy="147.11" r="14.37"/><circle class="e" cx="233.96" cy="106.22" r="1.96"/><path class="c" d="M289.47,194.23a29.14,29.14,0,0,1,8.48,14.3c3,11.79-5.29,22.07-11.1,28.3-6.09,6.53-13.49,2.83-16.76-2.18-4.13-6.33-2.43-15.17,14.55-36.72"/><path class="c" d="M303.57,308.44C282.26,283,255,262.52,250.06,257.94c-6.09-5.66-12.19-13.71-4.35-21.76,6.44-6.63,14.8-1.09,22.86,4.35s41.79,34.61,53.76,42.66,25.91,10,33.09,7.84,30.91-12.41,30.91-12.41"/><path class="a" d="M157,201.86s.38-62.66.32-76.16c-.09-21.62,1.45-29.16,23.22-29.52,30.7-.51,72.16-.43,81.1-.06,13.62.56,23.24,1.46,23.06,20-.11,10.56-.15,45.51-.13,82.32"/></svg>