<svg xmlns="http://www.w3.org/2000/svg" viewBox="0 0 450 450"><defs><style>.a{fill:#ffe161;}.b,.c{fill:none;stroke-linecap:round;stroke-linejoin:round;stroke-width:1.5px;}.b{stroke:#1eb9d5;}.c{stroke:#fee161;}.d{fill:#1eb9d5;}.e{fill:#fee161;}</style></defs><title>3-steps-2</title><path class="a" d="M261.26,125.49c-5.42-1.07-24-4-44.13-7l-24.32-3.54-6.5-.9c-15.12-2.08-20.3,1.2-23.22,11.4L147,225s-13.23,77-17.41,105.65c-2.15,14.71,9.28,18.16,15.68,19.68,4,.95,28.52,4.11,50.77,7l32.82,4.43c13,2,18.36-4.68,20-17.58.43-3.3,4.88-32.06,10.29-66.78a14.57,14.57,0,0,0-3.88-2.09l-3.89,24.82L247,328.78l-2.37,15.15c-1.07,6.82-7.07,11.54-13.41,10.54l-87.86-13.74c-6.34-1-10.61-7.32-9.54-14.14l31.38-200.54c1.06-6.81,7.06-11.53,13.4-10.54l23.27,3.64,1.78,10.68,34.06,5.33,5.63-9.52,23.13,3.62c6.33,1,10.6,7.32,9.54,14.13l-16.3,104.16a4.66,4.66,0,0,1,3.8,2.58c7-44.61,14.26-90.76,16.26-102.9C282.53,130.15,273.77,128,261.26,125.49Z"/><path class="b" d="M265.31,251.07c.83-6.21,1.33-8.55,1.33-8.55l2.54-17s8.12-59.24,10-72c3-20.41,2.58-27.74-17.93-31l-5.76-.91"/><path class="b" d="M256.79,315.07l3.67-26.57c.38-2.77.75-4.88,1.11-7.55"/><path class="b" d="M229.22,117.59c-20.35-3-39-5.56-44.57-6.12-12.94-1.31-22.14-1.77-24.47,15.75-1.33,10-6,43-11,77.76L132.1,322.16c-2.21,13.09,1,21.16,14.33,23.12,18.24,2.67,78.32,13.22,85,13.64s18.89.44,21.16-14.56c.29-1.93.61-4,.94-6.32"/><path class="b" d="M162.43,343.56l-8.2-1.15-7.94-1.12c-6.34-.89-10.69-7.14-9.73-14l5.75-40.88L147,253.14l1.07-7.61,4.84-34.34,3.16-22.42"/><path class="b" d="M256.62,276.3,247.35,343c-1,6.82-6.87,11.61-13.21,10.72l-44.57-6.28"/><path class="b" d="M159.74,162.86l5.08-36c.87-6.23,5.89-10.77,11.58-10.82l18.49,2.48,6.26.88,2.61,10.72,34.05,4.8,4.81-9.68,23.25,3.28c6.34.9,10.7,7.14,9.74,13.95l-14.9,104.9"/><line class="b" x1="226.94" y1="126.64" x2="207.21" y2="123.81"/><line class="c" x1="157.04" y1="107.29" x2="138.31" y2="94.53"/><line class="c" x1="166.77" y1="100.18" x2="157.65" y2="86.09"/><line class="c" x1="151.93" y1="118.9" x2="133.59" y2="114.18"/><line class="c" x1="289.93" y1="126.33" x2="311.49" y2="119.35"/><line class="c" x1="282.59" y1="116.78" x2="295.3" y2="105.81"/><line class="c" x1="291.58" y1="138.9" x2="310.51" y2="139.53"/><circle class="d" cx="233.89" cy="127.73" r="1.87"/><circle class="e" cx="132.97" cy="90.83" r="1.87"/><circle class="e" cx="154.06" cy="80.67" r="1.87"/><circle class="e" cx="127.31" cy="112.48" r="1.87"/><circle class="e" cx="317.66" cy="117.29" r="1.87"/><circle class="e" cx="300.27" cy="101.62" r="1.87"/><circle class="e" cx="317.01" cy="139.66" r="1.87"/><circle class="d" cx="216.63" cy="164.65" r="14.54"/><path class="b" d="M233.86,256.05a13.55,13.55,0,1,1,2.27-26.23,12.87,12.87,0,0,1,8.54,9"/><polyline class="b" points="256.58 208.05 255.58 214.69 164.19 200.91 171.25 154.09 203.22 158.9"/><polyline class="b" points="231.21 163.12 262.64 167.86 257.63 200.59"/><polyline class="b" points="191.1 244.32 190.57 247.84 165.08 244 168.55 220.96 177.47 222.31 185.27 223.48 194.04 224.81 193.1 231.02"/><polyline class="b" points="212.37 326.99 202.41 325.49 203.49 318.29 215.01 320.03 225.09 321.55 236.41 323.25 235.33 330.45 223.59 328.68"/><polyline class="b" points="233.19 290.25 235.43 296.44 209.94 292.6 226.6 272.03 230.07 281.6"/><circle class="b" cx="163.42" cy="275.27" r="2.8"/><circle class="b" cx="172.49" cy="276.29" r="2.8"/><circle class="b" cx="181.58" cy="277.52" r="2.8"/><polyline class="b" points="159.99 312.85 158.18 307.81 166.63 310.5 173.64 305.07 173.69 313.94 181.03 318.93 172.6 321.72 170.12 330.24 164.87 323.09 156 323.36 158.9 319.33"/><line class="b" x1="207.91" y1="218.45" x2="190.46" y2="335.59"/><line class="b" x1="154.95" y1="253.34" x2="244.71" y2="266.5"/><line class="b" x1="151.21" y1="292.8" x2="240.97" y2="305.96"/><path class="c" d="M290.94,272.38c7.32,5.93,14,11.24,18.12,14,11.42,7.68,24.72,9.55,31.57,7.47S370.12,282,370.12,282"/><path class="c" d="M320.28,380s-2.5-40.92-29.12-71.87c-13.08-15.2-46.35-41.53-51.06-45.9-5.81-5.4-11.63-13.08-4.15-20.77,6.15-6.32,14.12-1,21.81,4.16,2.65,1.79,8.2,6.26,14.82,11.68"/></svg>