<?xml version="1.0" encoding="utf-8"?>
<!-- Generator: Adobe Illustrator 23.0.4, SVG Export Plug-In . SVG Version: 6.00 Build 0)  -->
<svg version="1.1" id="Layer_1" xmlns="http://www.w3.org/2000/svg" xmlns:xlink="http://www.w3.org/1999/xlink" x="0px" y="0px"
	 viewBox="0 0 450 450" style="enable-background:new 0 0 450 450;" xml:space="preserve">
<style type="text/css">
	.st0{fill:#1EB9D5;}
	.st1{fill:#334054;}
	.st2{fill:#1EB9D5;stroke:#FFFFFF;stroke-width:2;stroke-linecap:round;stroke-linejoin:round;}
	.st3{fill:none;stroke:#FFFFFF;stroke-width:2;stroke-linecap:round;stroke-linejoin:round;}
	.st4{fill:none;stroke:#1EB9D5;stroke-width:1.5;stroke-miterlimit:10;}
	.st5{fill:none;stroke:#1EB9D5;stroke-width:1.5;stroke-linecap:round;stroke-linejoin:round;}
	.st6{fill:#FFE161;}
	.st7{fill:none;stroke:#334054;stroke-width:2;stroke-miterlimit:10;}
	.st8{fill:none;stroke:#FF6346;stroke-width:2;stroke-miterlimit:10;}
</style>
<title>3-steps-1</title>
<path class="st0" d="M235.1,161.5l0.4,10.1c0,0.1,0,0.2,0,0.2c-0.1,0.2-0.3,0.2-0.8,0.1l-0.4-0.1c-0.4-0.1-0.6-0.3-0.6-0.5l-0.1-2.1
	l-3.6-1.1l-1.2,1.7c-0.1,0.2-0.4,0.2-0.7,0.1l-0.4-0.1c-0.5-0.2-0.7-0.3-0.7-0.5c0-0.1,0.1-0.2,0.1-0.2l6-8.1
	c0.1-0.2,0.4-0.2,0.8-0.1l0.6,0.2C234.8,161.1,235.1,161.3,235.1,161.5z M233.5,163c-0.1,0.3-0.3,0.5-0.5,0.8l-2,2.8l2.6,0.8
	l-0.1-3.4C233.5,163.7,233.5,163.4,233.5,163L233.5,163z"/>
<path class="st0" d="M206.5,263.1c-0.3,0.9-1.2,1.6-2.2,1.7v0.1c1,0.6,1.5,1.8,1.2,2.9c-0.6,1.9-2.1,2.5-4.4,1.8l-2.8-0.9
	c-0.2,0-0.4-0.3-0.4-0.5c0,0,0-0.1,0-0.1l2.7-8.8c0-0.2,0.2-0.4,0.5-0.4c0.1,0,0.1,0,0.2,0.1l2.7,0.8
	C206.3,260.3,207,261.6,206.5,263.1z M201,264.8l-0.8,2.7l1.6,0.5c0.7,0.4,1.5,0.1,1.9-0.6c0-0.1,0.1-0.2,0.1-0.3
	c0.2-0.9-0.2-1.5-1.4-1.9L201,264.8z M202.2,260.7l-0.8,2.5l1.2,0.4c0.7,0.3,1.5,0,1.9-0.7c0,0,0-0.1,0-0.1c0.2-0.8-0.1-1.4-1.2-1.7
	L202.2,260.7z"/>
<path class="st0" d="M311.3,152.1l12.8,3.9c2.6,0.8,4,3.5,3.3,6.1l-3.5,11.4c-0.8,2.6-3.5,4-6.1,3.3L236.6,152
	c-2.6-0.8-4-3.5-3.3-6.1l3.5-11.4c0.8-2.6,3.5-4,6.1-3.3l49.6,15.1"/>
<path class="st0" d="M332.8,122c-5.3-1.9-23.6-7.7-43.5-13.8l-24-7.2l-6.4-1.9c-15-4.4-20.7-1.8-25.2,8l-31.1,98.2
	c0,0-24.9,75.8-33.4,104.1c-4.4,14.5,6.6,19.7,12.9,22.2c3.9,1.5,28.2,8.4,50.2,14.7l32.5,9.4c12.9,4,19.2-2,22.9-14.8
	c2.3-8.1,52.9-170.1,60.7-194.3C353.6,129.9,345.1,126.4,332.8,122z M345,142.3l-48.3,154.6l-8.8,28.3l-4.7,14.9
	c-2.1,6.7-8.9,10.6-15.1,8.6l-86.7-27.1c-6.2-2-9.6-9-7.5-15.7l61.8-197.8c2.1-6.7,8.9-10.6,15.1-8.6l23,7.2l0.2,11.1l33.6,10.5
	l7.1-8.8l22.8,7.1C343.7,128.5,347.1,135.6,345,142.3z"/>
<circle class="st1" cx="305.9" cy="119.8" r="1.9"/>
<circle class="st2" cx="245.2" cy="141.9" r="5.1"/>
<line class="st3" x1="247.7" y1="146.5" x2="250.7" y2="152.3"/>
<line class="st4" x1="223.8" y1="179.1" x2="312.9" y2="206.3"/>
<line class="st4" x1="220.7" y1="189.2" x2="309.8" y2="216.4"/>
<line class="st4" x1="217.6" y1="199.3" x2="306.7" y2="226.5"/>
<line class="st4" x1="214.5" y1="209.5" x2="303.6" y2="236.6"/>
<line class="st4" x1="279.2" y1="240.3" x2="300.5" y2="246.8"/>
<line class="st4" x1="211.4" y1="219.6" x2="250.6" y2="231.5"/>
<line class="st4" x1="208.3" y1="229.7" x2="297.4" y2="256.9"/>
<line class="st4" x1="205.2" y1="239.8" x2="294.4" y2="267"/>
<line class="st4" x1="202.2" y1="250" x2="291.3" y2="277.2"/>
<line class="st4" x1="193.8" y1="277.4" x2="282.9" y2="304.5"/>
<line class="st4" x1="190.7" y1="287.5" x2="279.8" y2="314.7"/>
<line class="st4" x1="223.7" y1="308.6" x2="276.7" y2="324.8"/>
<line class="st5" x1="187.6" y1="297.6" x2="200.5" y2="301.6"/>
<path class="st6" d="M204.5,190.5c0,0,19.5-61.8,23.4-74.4c1.2-4.3,2.7-8.5,4.4-12.6"/>
<path class="st7" d="M345,142.3l-48.3,154.6l-8.8,28.3l-4.7,14.9c-2.1,6.7-8.9,10.6-15.1,8.6l-86.7-27.1c-6.2-2-9.6-9-7.5-15.7
	l61.8-197.8c2.1-6.7,8.9-10.6,15.1-8.6l23,7.2l0.2,11.1l33.6,10.5l7.1-8.8l22.8,7.1C343.7,128.5,347.1,135.6,345,142.3z"/>
<path class="st7" d="M233.4,342.1c-22.6-6.4-47.4-13.5-51.4-15c-6.4-2.5-17.7-7.9-13.2-22.8c8.7-28.9,31.7-100.4,31.7-100.4"/>
<path class="st7" d="M289.2,104.6c20.4,6.2,39.1,12.1,44.5,14.1c12.5,4.5,21.3,8.1,15.7,25.3c-7.9,24.8-57.2,184.3-59.5,192.6
	c-3.7,13.1-10.2,19.1-23.4,15.1"/>
<path class="st7" d="M205.2,188.8c0,0,23.4-75.6,27.1-85.3s10.4-12.7,25.7-8.2l6.6,1.9"/>
<line class="st7" x1="279.5" y1="112.4" x2="299.1" y2="118.1"/>
<g>
	<path class="st8" d="M340.7,172c0,0,13.5-1.2,12.6,12.6S332,200.2,332,200.2"/>
	<path class="st8" d="M330.5,206.4c0,0,13.5-1.2,12.6,12.6s-21.4,15.4-21.4,15.4"/>
	<path class="st8" d="M319.2,243.4c0,0,13.5-1.2,12.6,12.7c-0.9,13.8-21.4,15.4-21.4,15.4"/>
	<path class="st8" d="M308.1,280.4c0,0,13.5-1.2,12.6,12.6S299,308.4,299,308.4"/>
	<path class="st8" d="M205,334.4c0,0-52.6,23.2-106.8,30V241.2c0,0,36.1-15.4,60.1-35.5"/>
	<path class="st8" d="M174.3,192.2c6.6-5.5,19.9-16.8,28.9-6.3c7.6,8.9-2.6,18.4-8.9,23.3s-34.6,25.9-47.2,33.2
		c-7.7,4.5-3.1,12.9,7,9.6c9.6-3.2,24.2-12.4,24.2-12.4"/>
	<line class="st8" x1="98.2" y1="245.1" x2="98.2" y2="175.9"/>
</g>
</svg>
