<?xml version="1.0" encoding="utf-8"?>
<!-- Generator: Adobe Illustrator 23.0.4, SVG Export Plug-In . SVG Version: 6.00 Build 0)  -->
<svg version="1.1" id="Layer_1" xmlns="http://www.w3.org/2000/svg" xmlns:xlink="http://www.w3.org/1999/xlink" x="0px" y="0px"
	 viewBox="0 0 450 450" style="enable-background:new 0 0 450 450;" xml:space="preserve">
<style type="text/css">
	.st0{fill:none;stroke:#FF6346;stroke-width:2;stroke-miterlimit:10;}
	.st1{fill:#1EB9D5;}
	.st2{fill:none;stroke:#334054;stroke-width:2;stroke-miterlimit:10;}
	.st3{fill:none;stroke:#1EB9D5;stroke-width:1.5;stroke-miterlimit:10;}
	.st4{fill:#1FBAD6;}
	.st5{fill:#334054;}
</style>
<path class="st0" d="M132,151.9c0.6-10.3,2.8-20.6,12-20.6c11.8,0,13.1,15.7,13.1,22.2"/>
<path class="st0" d="M285.3,128.5c1.7-0.6,3.5-0.9,5.3-1"/>
<path class="st0" d="M302.7,137.1c2.6,13.9-18.1,21.6-18.1,21.6"/>
<path class="st0" d="M284.9,158.5c4.3,4.3,9.5,8.8,14.5,16.9s1.8,14.6-1.9,17.3s-9.8,2.6-12.9-1.1"/>
<path class="st1" d="M282,251.5c0-4,0-7.9,0-11.4c-0.7,0.9-1.8,0.5-3,0.4l-0.1,8.5C280,249.7,280.7,251.1,282,251.5z"/>
<path class="st2" d="M284.6,288.5c0,5,0,9.6,0,13.6"/>
<path class="st2" d="M284.6,239.3c0,6,0,7.5,0,13.3"/>
<line class="st2" x1="279.6" y1="248.7" x2="279.6" y2="240.6"/>
<path class="st2" d="M279.7,204.3l0.2-89.3c0-6.6-4.5-12-10.4-13"/>
<path class="st2" d="M284.8,322.5c0.4,13.9-4.2,21.8-18.3,21.9c-19.3,0.1-83.2,2.1-90.2,1.5s-19.7-2.4-19.8-18.2
	c-0.2-30.9,0.6-107.7,0.6-107.7"/>
<path class="st2" d="M258.9,340.2h8.4c6.7,0,12.2-5.8,12.2-13l0.1-43.3"/>
<path class="st2" d="M250,101.9h-6.6l-4.4,10.7l-36-0.1l-3.5-10.8l-24.6-0.1c-6.7,0-12.1,5.8-12.2,13L162.2,327
	c0,7.2,5.4,13.1,12.1,13.1l51.9,0.1"/>
<line class="st2" x1="205.9" y1="106.4" x2="226.8" y2="106.4"/>
<title>3-steps-3</title>
<path class="st2" d="M157,201.9c0,0,0.4-62.7,0.3-76.2c-0.1-21.6,1.4-29.2,23.2-29.5c30.7-0.5,72.2-0.4,81.1-0.1
	c13.6,0.6,23.2,1.5,23.1,20c-0.1,10.6-0.1,45.5-0.1,82.3"/>
<polyline class="st3" points="267.8,183.8 267.8,190.4 176.4,190.1 176.5,143.3 208.5,143.4 "/>
<polyline class="st3" points="236.5,143.5 267.9,143.6 267.9,157.9 "/>
<line class="st3" x1="222.7" y1="200.5" x2="223.7" y2="317.6"/>
<line class="st3" x1="176.3" y1="242.8" x2="241.7" y2="241.8"/>
<line class="st3" x1="178.7" y1="281.9" x2="268.4" y2="280.9"/>
<path class="st0" d="M73.8,301.7c0,0,35.5-24.8,49.4-74.7c4.4-16.9,7.1-34.2,8.1-51.7"/>
<path class="st4" d="M200.9,215.5v0.3c0,0.4-0.1,0.6-0.4,0.6h-3.2l-0.2,2.5h0.5c2.1,0,3.8,0.8,3.8,3.3s-2,3.4-3.8,3.4s-3-0.5-3-1
	c0-0.3,0.4-1,0.7-1c0.7,0.3,1.4,0.5,2.2,0.6c1,0.1,1.8-0.6,1.9-1.6c0-0.1,0-0.2,0-0.2c0-1.2-0.7-1.9-2.2-1.9h-1.5
	c-0.4,0-0.5-0.2-0.5-0.6l0.3-4.5c0-0.4,0.2-0.6,0.6-0.6h4.3C200.8,214.9,200.9,215.1,200.9,215.5z"/>
<path class="st4" d="M191.2,214.1v0.3c0.7,0,1.4,0.3,1.4,0.6s-0.2,0.6-0.4,0.6c-0.3-0.1-0.7-0.2-1-0.3v1.6c0.7,0.3,1.6,0.6,1.6,1.8
	c0.1,0.9-0.6,1.7-1.6,1.8c0,0,0,0-0.1,0v0.4c0,0.2-0.1,0.2-0.2,0.2s-0.2-0.1-0.2-0.2v-0.4c-1.1,0-1.8-0.4-1.8-0.7s0.3-0.7,0.4-0.7
	c0.4,0.2,0.9,0.4,1.3,0.4v-1.7c-0.8-0.3-1.7-0.6-1.7-1.8c0-0.9,0.7-1.7,1.7-1.6v-0.3c0-0.2,0.1-0.2,0.2-0.2S191.2,214,191.2,214.1z
	 M190.2,216c0,0.3,0.2,0.5,0.6,0.7v-1.3C190.4,215.5,190.2,215.7,190.2,216L190.2,216z M191.2,219.5c0.3-0.1,0.5-0.4,0.5-0.7
	s-0.2-0.6-0.5-0.7V219.5z"/>
<path class="st4" d="M236.2,214.1v0.3c0.7,0,1.4,0.3,1.4,0.6s-0.2,0.6-0.4,0.6c-0.3-0.1-0.7-0.2-1-0.3v1.6c0.7,0.3,1.6,0.6,1.6,1.8
	c0.1,0.9-0.6,1.7-1.6,1.8c0,0,0,0-0.1,0v0.4c0,0.2-0.1,0.2-0.2,0.2s-0.2-0.1-0.2-0.2v-0.4c-1.1,0-1.8-0.4-1.8-0.7s0.3-0.7,0.4-0.7
	c0.4,0.2,0.9,0.4,1.3,0.4v-1.7c-0.8-0.3-1.7-0.6-1.7-1.8c0-0.9,0.7-1.7,1.6-1.7l0,0V214c0-0.2,0.1-0.2,0.2-0.2
	S236.2,214,236.2,214.1z M235.2,216c0,0.3,0.2,0.5,0.6,0.7v-1.3C235.3,215.5,235.2,215.7,235.2,216L235.2,216z M236.2,219.5
	c0.3-0.1,0.6-0.4,0.6-0.7s-0.2-0.6-0.6-0.7V219.5z"/>
<path class="st4" d="M186.9,257v0.3c0.7,0,1.4,0.3,1.4,0.5s-0.2,0.6-0.4,0.6c-0.3-0.1-0.7-0.2-1-0.3v1.6c0.7,0.3,1.6,0.6,1.6,1.8
	c0.1,0.9-0.6,1.7-1.6,1.8c0,0,0,0-0.1,0v0.4c0,0.1-0.1,0.2-0.2,0.2s-0.2-0.1-0.2-0.2v-0.4c-1.1,0-1.8-0.4-1.8-0.7s0.3-0.7,0.4-0.7
	c0.4,0.2,0.9,0.4,1.3,0.4v-1.7c-0.8-0.3-1.7-0.6-1.7-1.8c0-0.9,0.7-1.7,1.7-1.7l0,0V257c0-0.1,0.1-0.2,0.2-0.2
	S186.9,256.9,186.9,257z M185.9,258.9c0,0.3,0.2,0.5,0.6,0.7v-1.3C186.1,258.4,185.9,258.7,185.9,258.9L185.9,258.9z M186.9,262.4
	c0.3-0.1,0.6-0.4,0.6-0.7c0-0.3-0.2-0.6-0.6-0.7V262.4z"/>
<path class="st4" d="M236.2,257v0.3c0.7,0,1.4,0.3,1.4,0.5s-0.2,0.6-0.4,0.6c-0.3-0.1-0.7-0.2-1-0.3v1.6c0.7,0.3,1.6,0.6,1.6,1.8
	c0.1,0.9-0.6,1.7-1.6,1.8c0,0,0,0-0.1,0v0.4c0,0.1-0.1,0.2-0.2,0.2s-0.2-0.1-0.2-0.2v-0.4c-1.1,0-1.8-0.4-1.8-0.7s0.3-0.7,0.4-0.7
	c0.4,0.2,0.9,0.4,1.3,0.4v-1.7c-0.8-0.3-1.7-0.6-1.7-1.8c0-0.9,0.7-1.7,1.7-1.7l0,0V257c0-0.1,0.1-0.2,0.2-0.2
	S236.2,256.9,236.2,257z M235.2,258.9c0,0.3,0.2,0.5,0.6,0.7v-1.3C235.4,258.4,235.2,258.7,235.2,258.9L235.2,258.9z M236.2,262.4
	c0.3-0.1,0.6-0.4,0.6-0.7c0-0.3-0.2-0.6-0.6-0.7V262.4z"/>
<path class="st4" d="M186.9,296.3v0.3c0.7,0,1.4,0.3,1.4,0.5s-0.2,0.6-0.4,0.6c-0.3-0.1-0.7-0.2-1-0.3v1.6c0.7,0.3,1.6,0.6,1.6,1.8
	c0.1,0.9-0.6,1.7-1.6,1.8c0,0,0,0-0.1,0v0.4c0,0.2-0.1,0.2-0.2,0.2s-0.2-0.1-0.2-0.2v-0.4c-1.1,0-1.8-0.4-1.8-0.7s0.3-0.7,0.4-0.7
	c0.4,0.2,0.9,0.4,1.3,0.4V300c-0.8-0.3-1.7-0.6-1.7-1.8c0-0.9,0.7-1.7,1.7-1.7l0,0v-0.3c0-0.1,0.1-0.2,0.2-0.2
	S186.9,296.1,186.9,296.3z M185.9,298.2c0,0.3,0.2,0.5,0.6,0.7v-1.3C186.1,297.6,185.9,297.8,185.9,298.2L185.9,298.2z M186.9,301.6
	c0.3-0.1,0.6-0.4,0.6-0.7c0-0.3-0.2-0.6-0.6-0.7V301.6z"/>
<path class="st4" d="M236.2,296.3v0.3c0.7,0,1.4,0.3,1.4,0.5s-0.2,0.6-0.4,0.6c-0.3-0.1-0.7-0.2-1-0.3v1.6c0.7,0.3,1.6,0.6,1.6,1.8
	c0.1,0.9-0.6,1.7-1.6,1.8c0,0,0,0-0.1,0v0.4c0,0.2-0.1,0.2-0.2,0.2s-0.2-0.1-0.2-0.2v-0.4c-1.1,0-1.8-0.4-1.8-0.7s0.3-0.7,0.4-0.7
	c0.4,0.2,0.9,0.4,1.3,0.4V300c-0.8-0.3-1.7-0.6-1.7-1.8c0-0.9,0.7-1.7,1.7-1.7l0,0v-0.3c0-0.1,0.1-0.2,0.2-0.2
	S236.2,296.1,236.2,296.3z M235.2,298.2c0,0.3,0.2,0.5,0.6,0.7v-1.3C235.4,297.6,235.2,297.8,235.2,298.2L235.2,298.2z M236.2,301.6
	c0.3-0.1,0.6-0.4,0.6-0.7c0-0.3-0.2-0.6-0.6-0.7V301.6z"/>
<path class="st4" d="M244,215.2v8.8h1.9c0.3,0,0.4,0.2,0.4,0.6v0.2c0,0.5-0.1,0.7-0.4,0.7h-6c-0.3,0-0.4-0.2-0.4-0.7v-0.2
	c0-0.4,0.1-0.6,0.4-0.6h2.3v-7.4l-2.3,0.4c-0.3,0-0.4-0.7-0.4-1.1c0-0.2,0.1-0.3,0.4-0.4l3.7-0.7C243.7,214.8,244,215,244,215.2z"/>
<path class="st4" d="M254.6,220.2c0,3.6-1.4,5.5-3.6,5.5s-3.6-1.9-3.6-5.5s1.5-5.4,3.6-5.4S254.6,216.6,254.6,220.2z M249.4,220.2
	c0,2.7,0.7,3.9,1.6,3.9s1.6-1.2,1.6-3.9s-0.7-3.9-1.6-3.9S249.4,217.5,249.4,220.2z"/>
<path class="st4" d="M195.2,257.5v8.9h1.9c0.3,0,0.4,0.2,0.4,0.6v0.2c0,0.5-0.1,0.7-0.4,0.7h-6c-0.3,0-0.4-0.2-0.4-0.7V267
	c0-0.5,0.1-0.6,0.4-0.6h2.3V259l-2.3,0.4c-0.3,0-0.4-0.7-0.4-1.1c0-0.2,0.1-0.3,0.4-0.4l3.7-0.7
	C194.9,257.1,195.2,257.3,195.2,257.5z"/>
<path class="st4" d="M205,257.8v0.3c0,0.4-0.1,0.6-0.4,0.6h-3.2l-0.2,2.5h0.5c2.1,0,3.8,0.8,3.8,3.3s-2,3.4-3.8,3.4s-2.9-0.5-2.9-1
	c0-0.3,0.4-1,0.7-1c0.7,0.3,1.5,0.5,2.2,0.5c1,0.1,1.8-0.6,1.9-1.6c0-0.1,0-0.2,0-0.3c0-1.2-0.7-1.9-2.2-1.9h-1.5
	c-0.4,0-0.5-0.2-0.5-0.5l0.3-4.5c0-0.4,0.2-0.5,0.6-0.5h4.3C204.9,257.2,205,257.4,205,257.8z"/>
<path class="st4" d="M246,259.9c0,1.2-0.4,1.9-1.9,3.7l-2.2,2.8h3.8c0.3,0,0.4,0.2,0.4,0.6v0.2c0,0.5-0.1,0.7-0.4,0.7h-6
	c-0.2,0-0.4-0.7-0.4-1.1c0-0.1,0-0.2,0.1-0.2l3.9-4.8c0.5-0.5,0.7-1.1,0.8-1.7c0-0.9-0.7-1.4-1.6-1.4c-1.1,0-1.7,0.7-2,0.7
	s-0.7-0.6-0.7-0.9c0-0.8,1.7-1.3,2.9-1.3C244.8,257.1,246,258.2,246,259.9z"/>
<path class="st4" d="M252.7,262.5c0,2.7-0.7,3.9-1.6,3.9s-1.6-1.2-1.6-3.9c0-1.9,0.4-3.1,0.9-3.6c-0.3-0.4-0.1-1.1-0.5-1.6
	c-1.4,0.6-2.4,2.4-2.4,5.2c0,3.6,1.5,5.5,3.6,5.5s3.6-1.9,3.6-5.5c0-0.4,0-0.9-0.1-1.3c-0.6-0.4-1.3-0.7-2.1-0.9
	C252.6,261.1,252.7,261.8,252.7,262.5z"/>
<path class="st4" d="M196.9,299.1c0,1-0.6,1.9-1.5,2.2v0.1c1.2,0.4,1.9,1.5,1.8,2.8c0.1,1.7-1.3,3.2-3,3.2c-0.1,0-0.3,0-0.4,0
	c-1.4,0-3.2-0.4-3.2-1.1c0-0.3,0.4-1,0.7-1c0.7,0.3,1.5,0.5,2.3,0.6c0.9,0.1,1.7-0.6,1.7-1.5c0-0.1,0-0.2,0-0.2c0-1.2-0.6-1.7-2-1.7
	h-0.5c-0.3,0-0.4-0.2-0.4-0.6v-0.2c0-0.5,0.1-0.7,0.4-0.7h0.4c0.9,0.1,1.6-0.5,1.7-1.4c0-0.1,0-0.1,0-0.2c0-0.7-0.5-1.3-1.2-1.3
	c-0.1,0-0.2,0-0.2,0c-0.7,0-1.4,0.2-2,0.5c-0.2,0-0.7-0.7-0.7-1c0-0.6,1.6-1,2.9-1C195.6,296.5,196.9,297.5,196.9,299.1z"/>
<path class="st4" d="M205.8,301.9c0,3.6-1.4,5.5-3.6,5.5s-3.6-1.9-3.6-5.5s1.5-5.5,3.6-5.5S205.8,298.4,205.8,301.9z M200.6,301.9
	c0,2.7,0.7,3.9,1.6,3.9s1.6-1.2,1.6-3.9s-0.7-3.9-1.6-3.9S200.6,299.2,200.6,301.9z"/>
<path class="st4" d="M245.6,297.2v0.3c0,0.4-0.1,0.6-0.4,0.6H242l-0.2,2.5h0.5c2.1,0,3.8,0.8,3.8,3.3s-2,3.4-3.8,3.4s-3-0.5-3-1
	c0-0.3,0.4-1.1,0.7-1.1c0.7,0.3,1.5,0.5,2.2,0.5c1,0.1,1.8-0.6,1.9-1.6c0-0.1,0-0.2,0-0.3c0-1.2-0.7-1.8-2.2-1.8h-1.5
	c-0.4,0-0.5-0.2-0.5-0.5l0.3-4.5c0-0.3,0.2-0.5,0.5-0.6h0.1h4.3C245.5,296.6,245.6,296.8,245.6,297.2z"/>
<path class="st4" d="M254.6,301.9c0,3.6-1.4,5.5-3.6,5.5s-3.6-1.9-3.6-5.5s1.5-5.5,3.6-5.5S254.6,298.4,254.6,301.9z M249.4,301.9
	c0,2.7,0.7,3.9,1.6,3.9s1.6-1.2,1.6-3.9S252,298,251,298S249.4,299.2,249.4,301.9z"/>
<circle class="st1" cx="222.4" cy="147.1" r="14.4"/>
<circle class="st5" cx="234" cy="106.2" r="2"/>
<path class="st0" d="M289.5,194.2c4.2,3.8,7.1,8.8,8.5,14.3c3,11.8-5.3,22.1-11.1,28.3c-6.1,6.5-13.5,2.8-16.8-2.2
	c-4.1-6.3-2.4-15.2,14.5-36.7"/>
<path class="st0" d="M303.6,308.4c-21.3-25.4-48.6-45.9-53.5-50.5c-6.1-5.7-12.2-13.7-4.4-21.8c6.4-6.6,14.8-1.1,22.9,4.4
	s41.8,34.6,53.8,42.7s25.9,10,33.1,7.8s30.9-12.4,30.9-12.4"/>
</svg>
