<svg xmlns="http://www.w3.org/2000/svg" viewBox="0 0 450 450"><defs><style>.a,.c{fill:#1eb9d5;}.b{fill:#ffe161;}.c{stroke:#fff;stroke-width:2px;}.c,.e{stroke-linecap:round;stroke-linejoin:round;}.d,.e,.f{fill:none;stroke-width:1.5px;}.d,.e{stroke:#1eb9d5;}.d,.f{stroke-miterlimit:10;}.f{stroke:#ffe161;}</style></defs><title>3-steps-1</title><path class="a" d="M235.09,161.49l.39,10.11a.9.9,0,0,1,0,.24c-.06.17-.29.22-.75.08l-.44-.14c-.36-.11-.62-.26-.62-.48l-.07-2.13-3.62-1.1-1.24,1.73c-.13.18-.39.17-.7.08l-.39-.12c-.52-.16-.73-.33-.68-.52a1.38,1.38,0,0,1,.13-.22l6-8.15c.13-.17.43-.16.8-.05l.6.19C234.82,161.12,235.08,161.28,235.09,161.49Zm-1.61,1.56a8.21,8.21,0,0,1-.48.81l-2,2.8,2.57.78-.09-3.45a5.82,5.82,0,0,1,.07-.93Z"/><path class="a" d="M206.54,263.1a2.48,2.48,0,0,1-2.18,1.67v.06a2.6,2.6,0,0,1,1.22,2.91c-.56,1.86-2.08,2.47-4.44,1.75l-2.79-.85A.45.45,0,0,1,198,268l2.7-8.84a.45.45,0,0,1,.66-.35l2.69.82C206.32,260.3,207,261.62,206.54,263.1ZM201,264.79l-.82,2.69,1.62.5a1.41,1.41,0,0,0,2-.91c.25-.85-.22-1.5-1.36-1.85Zm1.24-4.05-.76,2.49,1.21.37a1.41,1.41,0,0,0,1.92-.8c.25-.81-.11-1.37-1.16-1.69Z"/><path class="a" d="M311.32,152.06,324.13,156a4.91,4.91,0,0,1,3.26,6.12l-3.49,11.44a4.92,4.92,0,0,1-6.12,3.26L236.56,152a4.92,4.92,0,0,1-3.26-6.12l3.49-11.44a4.92,4.92,0,0,1,6.12-3.26l49.63,15.14"/><path class="b" d="M332.81,122c-5.32-1.89-23.6-7.68-43.52-13.75l-24-7.22-6.43-1.89c-15-4.36-20.69-1.83-25.16,8l-31.15,98.15s-24.93,75.83-33.45,104.09c-4.38,14.54,6.65,19.74,12.88,22.24,3.89,1.55,28.2,8.43,50.24,14.7l32.47,9.4c12.88,3.95,19.25-2,22.86-14.75,2.28-8.11,52.89-170.06,60.67-194.28C353.59,129.9,345.07,126.36,332.81,122ZM345,142.28,296.68,296.89l-8.84,28.29-4.67,14.94c-2.1,6.73-8.87,10.59-15.12,8.64l-86.68-27.07c-6.25-2-9.62-9-7.52-15.71l61.8-197.84c2.1-6.72,8.87-10.59,15.12-8.64l23,7.17.2,11.06,33.6,10.5,7.12-8.78,22.81,7.13C343.7,128.53,347.07,135.56,345,142.28Z"/><circle class="a" cx="305.92" cy="119.85" r="1.91"/><circle class="c" cx="245.21" cy="141.88" r="5.12"/><line class="c" x1="247.68" y1="146.52" x2="250.73" y2="152.26"/><line class="d" x1="223.79" y1="179.08" x2="312.89" y2="206.26"/><line class="d" x1="220.7" y1="189.21" x2="309.8" y2="216.39"/><line class="d" x1="217.61" y1="199.34" x2="306.71" y2="226.51"/><line class="d" x1="214.52" y1="209.47" x2="303.62" y2="236.64"/><line class="d" x1="279.24" y1="240.28" x2="300.53" y2="246.77"/><line class="d" x1="211.43" y1="219.59" x2="250.56" y2="231.53"/><line class="d" x1="208.34" y1="229.72" x2="297.44" y2="256.9"/><line class="d" x1="205.25" y1="239.85" x2="294.35" y2="267.03"/><line class="d" x1="202.16" y1="249.98" x2="291.26" y2="277.16"/><line class="d" x1="193.81" y1="277.37" x2="282.91" y2="304.55"/><line class="d" x1="190.72" y1="287.5" x2="279.82" y2="314.68"/><line class="d" x1="223.72" y1="308.64" x2="276.73" y2="324.81"/><line class="e" x1="187.63" y1="297.63" x2="200.54" y2="301.57"/><path class="b" d="M204.5,190.55s19.54-61.81,23.39-74.41a107,107,0,0,1,4.45-12.61"/><path class="d" d="M345,142.28,296.68,296.89l-8.84,28.29-4.67,14.94c-2.1,6.73-8.87,10.59-15.12,8.64l-86.68-27.07c-6.25-2-9.62-9-7.52-15.71l61.8-197.84c2.1-6.72,8.87-10.59,15.12-8.64l23,7.17.2,11.06,33.6,10.5,7.12-8.78,22.81,7.13C343.7,128.53,347.07,135.56,345,142.28Z"/><path class="f" d="M340.67,172s13.5-1.17,12.65,12.65S332,200.17,332,200.17"/><path class="f" d="M330.47,206.39S344,205.22,343.12,219s-21.37,15.41-21.37,15.41"/><path class="f" d="M319.2,243.38s13.5-1.17,12.65,12.65-21.37,15.41-21.37,15.41"/><path class="f" d="M308.14,280.37s13.5-1.17,12.65,12.65S299,308.43,299,308.43"/><path class="f" d="M205,334.37s-52.57,23.18-106.78,30V241.19s36.12-15.44,60.08-35.54"/><path class="d" d="M233.36,342.08c-22.55-6.42-47.42-13.45-51.39-15-6.38-2.55-17.67-7.88-13.18-22.75,8.71-28.91,31.67-100.35,31.67-100.35"/><path class="d" d="M289.24,104.62c20.37,6.22,39.08,12.14,44.52,14.07,12.55,4.47,21.26,8.08,15.73,25.3C341.54,168.77,292.31,328.31,290,336.6c-3.69,13.08-10.21,19.14-23.39,15.1"/><path class="d" d="M205.23,188.77s23.39-75.58,27.11-85.28,10.43-12.68,25.74-8.22l6.58,1.93"/><line class="d" x1="279.53" y1="112.39" x2="299.13" y2="118.09"/><path class="f" d="M174.31,192.25c6.59-5.53,19.9-16.79,28.92-6.27,7.65,8.93-2.55,18.39-8.93,23.28s-34.64,25.91-47.2,33.25c-7.74,4.52-3.12,12.93,7,9.56,9.56-3.17,24.23-12.41,24.23-12.41"/><line class="f" x1="98.23" y1="245.09" x2="98.23" y2="175.95"/></svg>