<?xml version="1.0" encoding="utf-8"?>
<!-- Generator: Adobe Illustrator 23.0.4, SVG Export Plug-In . SVG Version: 6.00 Build 0)  -->
<svg version="1.1" id="Layer_1" xmlns="http://www.w3.org/2000/svg" xmlns:xlink="http://www.w3.org/1999/xlink" x="0px" y="0px"
	 viewBox="0 0 500 500" style="enable-background:new 0 0 500 500;" xml:space="preserve">
<style type="text/css">
	.st0{fill:none;stroke:#FFE161;stroke-width:4;stroke-miterlimit:10;stroke-dasharray:10,10;}
	.st1{fill:none;stroke:#1EB9D5;stroke-width:4;stroke-miterlimit:10;}
	.st2{fill:#FF6346;}
	.st3{fill:none;stroke:#FF6346;stroke-width:4;stroke-miterlimit:10;}
	.st4{fill:#1EB9D5;}
</style>
<g id="Layer_4_copy">
</g>
<g id="Layer_4">
</g>
<g id="Layer_6">
</g>
<g id="Layer_10">
</g>
<g id="Layer_5">
</g>
<g id="Layer_8">
</g>
<g id="Layer_9">
</g>
<g id="Layer_3">
	<g>
		<line class="st0" x1="175.1" y1="355.3" x2="175.1" y2="132.9"/>
		<line class="st0" x1="257.1" y1="355.3" x2="257.1" y2="132.9"/>
		<line class="st0" x1="339.1" y1="355.3" x2="339.1" y2="132.9"/>
		<polyline class="st1" points="103.8,118.6 103.8,378.1 387.5,378.1 		"/>
		<g>
			<circle class="st2" cx="146.6" cy="267.5" r="9.1"/>
			<circle class="st2" cx="358.2" cy="257.6" r="9.1"/>
			<path class="st3" d="M359.7,259.1c0,0-21.3-14.5-53.3-4.6c-37.2,11.5-59.6,56.6-97.7,64.2c-34.9,6.9-62.1-50.5-62.1-50.5"/>
		</g>
		<g>
			<path class="st2" d="M217,178.7l-0.1,3.9c5.5,0.2,15.4,2.8,15.3,6c0,1.5-2.3,5.2-3.2,5c-1.5,0-4.9-3.7-12.2-4l-0.6,22.7
				c8.6,3.3,18.5,7.1,18.1,20.5c-0.2,11.1-7.7,17.9-19.1,18.7l-0.1,4.8c0,1-0.6,1.6-2,1.5c-1.4,0-2-0.6-2-1.6l0.1-4.8
				c-11-0.6-19.2-4.9-19.2-7.6c0-1.6,2.4-5.3,3.6-5.2c1.1,0,6.3,5.3,15.7,5.7l0.6-25.1c-8.5-3.6-17.9-7.1-17.6-19.7
				c0.2-9.5,7.5-16.1,18.5-16.9l0.1-4.1c0-1,0.6-1.6,2-1.5C216.5,177.1,217.1,177.7,217,178.7z M203.4,200.3
				c-0.1,5.5,3.8,8.3,9,10.6l0.5-21C207.2,190.7,203.5,194.1,203.4,200.3L203.4,200.3z M215.5,244.4c5.7-0.9,9.9-5.3,10-11.7
				c0.1-6.2-4.1-9.2-9.5-11.6L215.5,244.4z"/>
		</g>
		<polyline class="st4" points="116.1,132.2 103.5,110.4 90.9,132.2 107.3,132.2 		"/>
		<polyline class="st4" points="387.2,389.6 409.1,377 387.2,364.4 387.2,380.8 		"/>
	</g>
</g>
</svg>
