<?xml version="1.0" encoding="utf-8"?>
<!-- Generator: Adobe Illustrator 23.0.4, SVG Export Plug-In . SVG Version: 6.00 Build 0)  -->
<svg version="1.1" id="Layer_1" xmlns="http://www.w3.org/2000/svg" xmlns:xlink="http://www.w3.org/1999/xlink" x="0px" y="0px"
	 viewBox="0 0 500 500" style="enable-background:new 0 0 500 500;" xml:space="preserve">
<style type="text/css">
	.st0{fill:none;stroke:#FFE161;stroke-width:4;stroke-miterlimit:10;}
	.st1{fill:#FF6346;}
	.st2{fill:none;stroke:#FF6346;stroke-width:4;stroke-miterlimit:10;}
	.st3{fill:none;stroke:#1EB9D5;stroke-width:4;stroke-miterlimit:10;}
</style>
<g id="Layer_4_copy">
</g>
<g id="Layer_4">
</g>
<g id="Layer_6">
</g>
<g id="Layer_10">
</g>
<g id="Layer_5">
</g>
<g id="Layer_8">
</g>
<g id="Layer_9">
</g>
<polyline class="st0" points="153.7,236.9 206.9,122.7 251.7,150.1 "/>
<g>
	<path class="st1" d="M276.3,143.5l2.6,1.9c2.8-3.6,9.2-9.1,11.4-7.5c1,0.7,2.4,4,1.9,4.6c-0.7,1-4.9,1.6-8.5,6.3l15.2,11.3
		c6.4-4.3,13.7-9.2,22.6-2.5c7.5,5.5,8.5,13.8,3.6,21.9l3.2,2.4c0.7,0.5,0.8,1.2,0.1,2c-0.7,0.9-1.3,1.1-2,0.6l-3.2-2.4
		c-5.7,7.2-12.5,10.7-14.3,9.4c-1.1-0.8-2.4-4.2-1.8-4.9c0.5-0.8,6.6-1.8,11.4-7.9l-16.8-12.4c-6.5,4.1-13.4,8.8-21.8,2.5
		c-6.4-4.7-7.4-12.8-2.6-20.6l-2.8-2.1c-0.7-0.5-0.8-1.2-0.1-2C275,143,275.6,142.9,276.3,143.5z M284.4,163c3.7,2.7,7.4,1.4,11.5-1
		l-14.1-10.4C279.7,155.8,280.3,159.9,284.4,163L284.4,163z M320.2,175.9c2.1-4.3,1.1-9.2-3.2-12.4c-4.2-3-8.2-1.6-12.4,0.9
		L320.2,175.9z"/>
</g>
<polyline class="st2" points="195.9,235.3 279.7,105.2 362.4,164.8 297.9,237.6 "/>
<path class="st3" d="M337.7,289.5c0-11.9,0-21.3,0-25c0-11.9-8.5-28.1-28.1-28.1s-172,0-172,0v158.3c0,0,73.7,0,123.3,0"/>
<path class="st3" d="M319,342.8h-21.9c-2.5,0-4.5-2-4.5-4.5v-45.4c0-2.5,2-4.5,4.5-4.5h57.3c2.5,0,4.5,2,4.5,4.5v45.4
	c0,2.5-2,4.5-4.5,4.5h-16.7c0,0,0,22.3,0,28.1c0,20.4-22.1,23.8-33.2,23.8c-2,0-8.5,0-17.8,0"/>
</svg>
