<?xml version="1.0" encoding="utf-8"?>
<!-- Generator: Adobe Illustrator 23.0.4, SVG Export Plug-In . SVG Version: 6.00 Build 0)  -->
<svg version="1.1" id="Layer_1" xmlns="http://www.w3.org/2000/svg" xmlns:xlink="http://www.w3.org/1999/xlink" x="0px" y="0px"
	 viewBox="0 0 500 500" style="enable-background:new 0 0 500 500;" xml:space="preserve">
<style type="text/css">
	.st0{fill:none;stroke:#FFE161;stroke-width:4;stroke-miterlimit:10;}
	.st1{fill:none;stroke:#FFE161;stroke-width:4;stroke-miterlimit:10;stroke-dasharray:8.9937,8.9937;}
	.st2{fill:none;stroke:#FFE161;stroke-width:4;stroke-miterlimit:10;stroke-dasharray:10.4211,10.4211;}
	.st3{fill:none;stroke:#FFE161;stroke-width:4;stroke-miterlimit:10;stroke-dasharray:9.7639,9.7639;}
	.st4{fill:none;stroke:#FFE161;stroke-width:4;stroke-miterlimit:10;stroke-dasharray:9.676,9.676;}
	.st5{fill:none;stroke:#1EB9D5;stroke-width:4;stroke-miterlimit:10;}
	.st6{fill:none;stroke:#FF6346;stroke-width:4;stroke-miterlimit:10;}
	.st7{fill:#FF6346;}
</style>
<g id="Layer_4_copy">
</g>
<g id="Layer_4">
</g>
<g id="Layer_6">
</g>
<g id="Layer_10">
</g>
<g id="Layer_5">
</g>
<g id="Layer_8">
</g>
<g id="Layer_9">
</g>
<g>
	<g>
		<line class="st0" x1="382.8" y1="320.3" x2="387.8" y2="320.3"/>
		<line class="st0" x1="400" y1="320.3" x2="405" y2="320.3"/>
	</g>
</g>
<g>
	<g>
		<line class="st0" x1="274.2" y1="320.3" x2="279.2" y2="320.3"/>
		<line class="st1" x1="288.2" y1="320.3" x2="319.6" y2="320.3"/>
		<line class="st0" x1="324.1" y1="320.3" x2="329.1" y2="320.3"/>
	</g>
</g>
<g>
	<g>
		<line class="st0" x1="95" y1="320.3" x2="100" y2="320.3"/>
		<line class="st2" x1="110.4" y1="320.3" x2="209.4" y2="320.3"/>
		<line class="st0" x1="214.7" y1="320.3" x2="219.7" y2="320.3"/>
	</g>
</g>
<g>
	<g>
		<line class="st0" x1="383.2" y1="234.3" x2="388.2" y2="234.3"/>
		<line class="st0" x1="400" y1="234.3" x2="405" y2="234.3"/>
	</g>
</g>
<g>
	<g>
		<line class="st0" x1="95" y1="234.3" x2="100" y2="234.3"/>
		<line class="st3" x1="109.8" y1="234.3" x2="319.7" y2="234.3"/>
		<line class="st0" x1="324.6" y1="234.3" x2="329.6" y2="234.3"/>
	</g>
</g>
<g>
	<g>
		<line class="st0" x1="95" y1="148.3" x2="100" y2="148.3"/>
		<line class="st4" x1="109.7" y1="148.3" x2="395.1" y2="148.3"/>
		<line class="st0" x1="400" y1="148.3" x2="405" y2="148.3"/>
	</g>
</g>
<g>
	<rect x="219.8" y="292.2" class="st5" width="54" height="89.4"/>
</g>
<g>
	<rect x="329.5" y="226.2" class="st5" width="54" height="155.3"/>
</g>
<g>
	<rect x="110" y="339.3" class="st5" width="54" height="42.3"/>
</g>
<line class="st5" x1="95" y1="381.5" x2="405" y2="381.5"/>
<path class="st6" d="M135.9,280.9c0,0,145.7-16.3,226.8-149.3"/>
<circle class="st7" cx="361.2" cy="128.7" r="10.2"/>
<circle class="st7" cx="135.4" cy="281.3" r="10.2"/>
</svg>
