<?xml version="1.0" encoding="utf-8"?>
<!-- Generator: Adobe Illustrator 23.0.4, SVG Export Plug-In . SVG Version: 6.00 Build 0)  -->
<svg version="1.1" id="Layer_1" xmlns="http://www.w3.org/2000/svg" xmlns:xlink="http://www.w3.org/1999/xlink" x="0px" y="0px"
	 viewBox="0 0 500 500" style="enable-background:new 0 0 500 500;" xml:space="preserve">
<style type="text/css">
	.st0{fill:none;stroke:#1EB9D5;stroke-width:4;stroke-miterlimit:10;}
	.st1{fill:none;stroke:#FFE161;stroke-width:4;stroke-miterlimit:10;}
	.st2{fill:#FF6346;}
</style>
<g id="Layer_4_copy">
</g>
<g id="Layer_4">
</g>
<g id="Layer_6">
</g>
<g id="Layer_10">
</g>
<g id="Layer_5">
</g>
<g id="Layer_8">
</g>
<g id="Layer_9">
</g>
<path class="st0" d="M246.2,357.5l129.9-129.8l-5.8-79.5c-0.7-9.9-8.5-17.9-18.4-18.8l-82.1-7.9L96.5,294.7L202.7,401l16.5-16.5
	 M352.2,163.6c-5.1,5.1-13.2,5.1-18.3,0c-5.1-5.1-5.1-13.2,0-18.3s13.2-5.1,18.3,0C357.2,150.4,357.2,158.6,352.2,163.6z"/>
<path class="st1" d="M345,152.4c-4.5-5.6-7.2-12.8-7.2-20.6c0-18.2,14.7-32.9,32.9-32.9s32.9,14.7,32.9,32.9
	c0,9.9-4.4,18.8-11.3,24.8"/>
<path class="st0" d="M224.2,191.2l8.8-8.8c14-14,36.8-14.2,50.6-0.4l31,31c13.8,13.8,13.6,36.6-0.4,50.6l-86.3,86.3
	c-14,14-36.8,14.2-50.6,0.4l-31-31c-13.8-13.8-13.6-36.6,0.4-50.6l61.1-61.1L224.2,191.2z"/>
<g>
	<path class="st2" d="M193.4,276.5c1.5,1.5,3.5,2.4,5.7,2.5c2.3,0.1,4.2-0.7,5.9-2.4c0.8-0.8,1.3-1.7,1.7-2.7s0.6-2.1,0.6-3.1
		s-0.2-2.1-0.6-3.1c-0.4-1-1-1.9-1.7-2.7c-0.8-0.8-1.7-1.4-2.8-1.8c-1-0.4-2.1-0.6-3.1-0.5c-1.1,0-2.1,0.2-3.1,0.6s-1.9,1-2.6,1.7
		c-1.5,1.5-2.3,3.5-2.4,5.7C191.1,273,191.8,274.9,193.4,276.5z M216.7,229.4l6.6-6.6l21.6,81.1l-6.7,6.7L216.7,229.4z M256.6,268.1
		c1.6,1.6,3.6,2.5,5.8,2.5c2.2,0,4.2-0.8,5.8-2.4c1.6-1.6,2.4-3.5,2.4-5.8s-0.8-4.2-2.4-5.8c-0.8-0.8-1.7-1.4-2.8-1.8
		c-1-0.4-2.1-0.6-3.1-0.5c-1.1,0-2.1,0.2-3.1,0.6c-1,0.4-1.9,1-2.6,1.7c-1.5,1.5-2.3,3.4-2.4,5.7
		C254.2,264.5,254.9,266.5,256.6,268.1z"/>
</g>
<g id="Layer_3">
</g>
<text transform="matrix(1 0 0 1 -282 404.76)" style="fill:#FFE161; font-family:'Futura-Bold'; font-size:59.7824px;">FFE161</text>
</svg>
