<svg xmlns="http://www.w3.org/2000/svg" viewBox="0 0 414.29 169.49"><defs><style>.cls-1,.cls-2{fill:none;stroke-miterlimit:10;stroke-width:6px;}.cls-1{stroke:#1eb9d5;}.cls-2{stroke:#334054;}.cls-3{fill:#ff6346;}</style></defs><g id="Layer_2" data-name="Layer 2"><g id="Layer_3" data-name="Layer 3"><path class="cls-1" d="M266.72,38.4a61.14,61.14,0,1,1-12-17.16"/><path class="cls-2" d="M78.69,73.43A31.76,31.76,0,0,1,62.9,97.84c13.47,5.94,20,18,20,32.29a40.49,40.49,0,0,1-6.6,22.78"/><path class="cls-2" d="M248.05,57.54s-14.74,12.81-13.32,48.39,21.43,47,21.43,47"/><path class="cls-2" d="M135.5,57.54s-14.74,12.81-13.32,48.39,21.43,47,21.43,47"/><polyline class="cls-2" points="380.9 67.45 380.9 92.22 407.98 92.22"/><path class="cls-3" d="M80.84,130.66c0,20.61-13.47,38.83-40.42,38.83S0,151.27,0,130.66c0-14.27,6.54-26.35,20-32.3C9.51,92.22,4,81.72,4,69.44,4,50.61,16.64,32.78,40.42,32.78S76.88,50.61,76.88,69.44c0,12.28-5.55,22.78-16,28.92C74.3,104.31,80.84,116.39,80.84,130.66Zm-14.66-.4c0-14.86-10.7-25.16-25.76-25.16s-25.76,10.3-25.76,25.16c0,15.06,10.5,25.76,25.76,25.76S66.18,145.32,66.18,130.26ZM63,69.63c0-14.46-10.5-23.38-22.59-23.38S17.83,55.17,17.83,69.63c0,13.08,9.71,22.79,22.59,22.79S63,82.71,63,69.63Z"/><path class="cls-3" d="M119.07,149.68C110.36,137,105.8,120,105.8,101.14s4.56-35.87,13.27-48.55C129.18,37.93,142.45,32.78,153,32.78s23.77,5.15,33.88,19.81c8.71,12.68,13.27,29.72,13.27,48.55s-4.56,35.86-13.27,48.54c-10.11,14.66-23.38,19.81-33.88,19.81S129.18,164.34,119.07,149.68Zm11.1-88.76c-7.13,11.29-9.71,26.35-9.71,40.22s2.58,28.92,9.71,40.22C137.1,152.45,146.22,156,153,156s15.85-3.57,22.78-14.66c7.13-11.3,9.71-26.35,9.71-40.22s-2.58-28.93-9.71-40.22c-6.93-11.1-16.05-14.67-22.78-14.67S137.1,49.82,130.17,60.92Z"/><path class="cls-3" d="M231.61,149.68C222.89,137,218.34,120,218.34,101.14s4.55-35.87,13.27-48.55C241.72,37.93,255,32.78,265.49,32.78s23.78,5.15,33.88,19.81c8.72,12.68,13.28,29.72,13.28,48.55s-4.56,35.86-13.28,48.54c-10.1,14.66-23.38,19.81-33.88,19.81S241.72,164.34,231.61,149.68Zm11.1-88.76C235.57,72.21,233,87.27,233,101.14s2.57,28.92,9.71,40.22c6.93,11.09,16,14.66,22.78,14.66s15.85-3.57,22.79-14.66c7.13-11.3,9.71-26.35,9.71-40.22s-2.58-28.93-9.71-40.22c-6.94-11.1-16-14.67-22.79-14.67S249.64,49.82,242.71,60.92Z"/><path class="cls-3" d="M328.3,94.6h35.86V60.52h14.26V94.6h35.87v13.08H378.42v34.07H364.16V107.68H328.3Z"/></g></g></svg>