<?xml version="1.0" encoding="utf-8"?>
<!-- Generator: Adobe Illustrator 25.0.1, SVG Export Plug-In . SVG Version: 6.00 Build 0)  -->
<svg version="1.1" id="Layer_1" xmlns="http://www.w3.org/2000/svg" xmlns:xlink="http://www.w3.org/1999/xlink" x="0px" y="0px"
	 viewBox="0 0 450 450" style="enable-background:new 0 0 450 450;" xml:space="preserve">
<style type="text/css">
	.st0{fill:none;stroke:#1EB9D5;stroke-width:6;stroke-miterlimit:10;}
	.st1{fill:none;stroke:#FF6346;stroke-width:6;stroke-miterlimit:10;}
	.st2{fill:none;stroke:#FFE161;stroke-width:6;stroke-miterlimit:10;}
</style>
<g id="Layer_4_copy">
</g>
<g id="Layer_4">
</g>
<g id="Layer_6">
</g>
<g id="Layer_10">
</g>
<g id="Layer_5">
</g>
<g id="Layer_8">
	<g>
		<path class="st0" d="M159.7,289.9c0,0,2.1-20.4,2.5-36.3c0.6-22.9-7.9-45.3-10.5-55.5s11.8-16.9,19.6-5.3
			c7.8,11.5,19.5,40.8,19.5,40.8s36.6-25.9,49.9-35.8c13.3-9.9,29.8-21.1,37-25.7c14.2-9,28.7,7.9,15.9,20.1
			c-12.5,11.9-24.7,18.1-42.6,32.2c-0.2,0.2,0,0.5,0.2,0.4c6.4-3,11.9-4.7,15.8,1.2c5.3,8.1,0.9,14.3-3.4,19.2
			c-0.1,0.1,0,0.3,0.2,0.2c5.8-3.2,14.8-3.1,18.4,3.1c3.3,5.7,2.2,12.3-2.6,17.4c-0.5,0.5,0,1.4,0.7,1.2c5.4-1.5,9,0,11.9,3.5
			c3.3,4.2,6.3,13.4-11.3,25.3c-18.3,12.3-85.1,45.6-85.1,45.6L159.7,289.9z"/>
		<line class="st1" x1="250.7" y1="147.3" x2="288.1" y2="108.4"/>
		<line class="st2" x1="225.6" y1="176.2" x2="242.8" y2="116"/>
	</g>
</g>
<g id="Layer_9">
</g>
<g id="Layer_2_1_">
</g>
<g id="Layer_1_1_">
</g>
<g id="Layer_3">
</g>
</svg>
