<svg id="Layer_1" data-name="Layer 1" xmlns="http://www.w3.org/2000/svg" viewBox="0 0 450 450"><defs><style>.cls-1,.cls-3,.cls-4{fill:none;stroke-width:4px;}.cls-1{stroke:#334054;stroke-miterlimit:10;}.cls-2{fill:#ff6346;fill-rule:evenodd;}.cls-3,.cls-4{stroke:#1eb9d5;}.cls-3{stroke-miterlimit:10;}.cls-4{stroke-miterlimit:10.02;}</style></defs><path class="cls-1" d="M259.16,170.31s-18.88.79-38.76,16.59-26.6,28-18.39,33.66c6.92,4.81,20.2-10.89,37.37-18.13,7.5,6.5,44.24,42,46.08,45,2.93,4.81,4.74,8.83-.26,13.82s-13.28.8-13.28.8,2.44,8.85-3.05,13.36-12.9-.07-12.9-.07,3,9.55-4,13.55-13.55-1.59-13.55-1.59,1.46,10.59-5,13.09-11.68-1.67-21-10c-10.56-9.5-53.46-53.47-59-69.46"/><path class="cls-1" d="M189.82,172.47a118.39,118.39,0,0,1,33.6,11"/><path class="cls-1" d="M298,223.47s-6.11,12.76-14.1,21.42"/><path class="cls-2" d="M149.15,215.49a6.59,6.59,0,1,1-1.38-9.22h0A6.59,6.59,0,0,1,149.15,215.49Z"/><rect class="cls-3" x="119.77" y="176.25" width="80.93" height="26.55" transform="translate(-87.45 205.16) rotate(-53.4)"/><path class="cls-2" d="M310.87,207a6.59,6.59,0,1,1-9.21-1.41,6.59,6.59,0,0,1,9.21,1.41Z"/><rect class="cls-4" x="276.62" y="148.97" width="26.6" height="81.1" transform="translate(-56.01 207.03) rotate(-36.07)"/></svg>