<svg xmlns="http://www.w3.org/2000/svg" viewBox="0 0 450 450"><defs><style>.a{fill:#ffe161;opacity:0.39;}.b,.c,.d,.e{fill:none;stroke-miterlimit:10;stroke-width:6px;}.b,.c{stroke:#1fbad6;}.c{stroke-dasharray:10.34 10.34;}.d{stroke:#1eb9d5;}.e{stroke:#334054;}.f{fill:#334054;}</style></defs><title>airtime-icon1</title><circle class="a" cx="225" cy="225" r="175.42"/><path class="b" d="M92.67,150.18q-.66-2.44-1.18-4.86"/><path class="c" d="M89.76,135.12C83.7,84.31,117.18,42.65,163.91,33.89,214,24.51,251.58,63,264.57,92.14"/><path class="b" d="M266.51,96.93c.6,1.63,1.11,3.23,1.53,4.76"/><path class="d" d="M192.59,154.46V113.13a11.08,11.08,0,0,1,11.25-10.89H310.28a11.07,11.07,0,0,1,11.24,10.89V312.36a11.07,11.07,0,0,1-11.24,10.9H243.15"/><path class="d" d="M217.38,323.26H203.84a11.08,11.08,0,0,1-11.25-10.9v-48"/><path class="e" d="M203.51,261.51v38.87a11.07,11.07,0,0,0,11.25,10.89h84.13a11.07,11.07,0,0,0,11.24-10.89V124.2a11.07,11.07,0,0,0-11.24-10.9H277.23l-4,9h-33.4l-3.3-9h-21.8a11.07,11.07,0,0,0-11.25,10.9v32.9"/><path class="d" d="M105.33,221.76a45,45,0,1,1,56.08-67.21"/><path class="d" d="M235,198.13a57.79,57.79,0,0,1,1.06,11,56.77,56.77,0,1,1-13-36.22"/><path class="f" d="M181,180.85v2.84c4,.07,11.21,1.7,11.21,4.05,0,1.06-1.56,3.76-2.27,3.76-1.07,0-3.62-2.56-8.94-2.7v16.53c6.31,2.27,13.55,4.83,13.55,14.62,0,8.09-5.25,13.2-13.55,13.91v3.54c0,.79-.43,1.14-1.42,1.14s-1.42-.35-1.42-1.14v-3.47c-8-.21-14.05-3.27-14.05-5.18,0-1.14,1.7-3.83,2.48-3.83s4.69,3.69,11.57,3.9V210.51c-6.24-2.41-13.13-4.89-13.13-14,0-7,5.11-11.78,13.13-12.63v-3c0-.78.43-1.13,1.42-1.13S181,180.07,181,180.85Zm-9.51,15.9c0,4,2.91,6,6.67,7.52V189C174.07,189.72,171.45,192.28,171.45,196.75ZM181,228.61a8.44,8.44,0,0,0,7.09-8.66c0-4.47-3.19-6.6-7.09-8.3Z"/></svg>