<svg xmlns="http://www.w3.org/2000/svg" viewBox="0 0 450 450"><defs><style>.a,.b,.c,.d{fill:none;stroke-miterlimit:10;stroke-width:6px;}.a,.b{stroke:#1fbad6;}.b{stroke-dasharray:10.34 10.34;}.c{stroke:#1eb9d5;}.d{stroke:#334054;}.e{fill:#ff6346;}</style></defs><title>airtime-icon1</title><path class="a" d="M105.1,193.17c-.43-1.62-.83-3.24-1.18-4.85"/><path class="b" d="M102.19,178.12c-6-50.81,27.43-92.47,74.15-101.23C226.4,67.5,264,106,277,135.14"/><path class="a" d="M279,139.93q.89,2.44,1.52,4.76"/><path class="c" d="M205,197.45V156.13a11.08,11.08,0,0,1,11.24-10.89H322.72A11.07,11.07,0,0,1,334,156.13V355.36a11.07,11.07,0,0,1-11.24,10.9H255.59"/><path class="c" d="M229.81,366.26H216.27A11.08,11.08,0,0,1,205,355.36v-48"/><path class="d" d="M216,304.5v38.88a11.07,11.07,0,0,0,11.24,10.89h84.14a11.07,11.07,0,0,0,11.24-10.89V167.2a11.07,11.07,0,0,0-11.24-10.9H289.66l-4,9H252.3l-3.3-9H227.19A11.07,11.07,0,0,0,216,167.2v32.9"/><path class="c" d="M117.76,264.76a45,45,0,1,1,56.09-67.21"/><path class="c" d="M247.44,241.13a56.79,56.79,0,1,1-12-25.23"/><path class="e" d="M193.39,223.85v2.84c4.05.07,11.21,1.7,11.21,4,0,1.07-1.56,3.76-2.27,3.76-1.06,0-3.61-2.55-8.94-2.69v16.53C199.71,250.6,207,253.16,207,263c0,8.09-5.25,13.2-13.56,13.91v3.54c0,.78-.42,1.14-1.42,1.14s-1.41-.36-1.41-1.14v-3.47c-8-.22-14.05-3.27-14.05-5.18,0-1.14,1.7-3.84,2.48-3.84s4.68,3.69,11.57,3.91V253.51c-6.25-2.41-13.13-4.9-13.13-14,0-7,5.11-11.78,13.13-12.63v-3c0-.78.42-1.14,1.41-1.14S193.39,223.07,193.39,223.85Zm-9.5,15.89c0,4,2.91,6,6.67,7.53V232C186.51,232.72,183.89,235.27,183.89,239.74Zm9.5,31.86a8.42,8.42,0,0,0,7.1-8.65c0-4.47-3.19-6.6-7.1-8.3Z"/></svg>