<svg xmlns="http://www.w3.org/2000/svg" viewBox="0 0 259.05 257.08"><defs><style>.a,.b,.c{fill:none;}.a,.b,.d{stroke:#ffe161;}.a,.b,.c,.d{stroke-miterlimit:10;stroke-width:3px;}.b{stroke-dasharray:10.19 10.19;}.c{stroke:#1eb9d5;}.d{fill:#fff;}.e{fill:#ffe161;}</style></defs><title>airtime-1-icon</title><path class="a" d="M41.35,106.35q-.66-2.44-1.15-4.86"/><path class="b" d="M38.77,91.4c-2.9-37.84,22.58-68.5,57.74-75.1,37.64-7,66.2,20.81,77,43.12"/><path class="a" d="M175.57,64.06a48.88,48.88,0,0,1,1.58,4.75"/><path class="c" d="M137.92,240.38H127.44a8.57,8.57,0,0,1-8.71-8.44V77.67a8.58,8.58,0,0,1,8.71-8.44h82.42a8.58,8.58,0,0,1,8.71,8.44V231.94a8.57,8.57,0,0,1-8.71,8.44h-52"/><path class="c" d="M210.52,174.62V85.46a8.57,8.57,0,0,0-8.7-8.44H184.27l-3.07,7H155.33l-2.55-7H135.12a8.58,8.58,0,0,0-8.71,8.44v137.2a8.58,8.58,0,0,0,8.71,8.44h66.7a8.57,8.57,0,0,0,8.7-8.44V194.85"/><circle class="d" cx="66.65" cy="130.57" r="34.84"/><circle class="d" cx="108.43" cy="152" r="43.97"/><path class="e" d="M109.72,130.11v2.2c3.13.05,8.68,1.31,8.68,3.13,0,.82-1.21,2.91-1.76,2.91-.82,0-2.8-2-6.92-2.09v12.8c4.89,1.76,10.49,3.74,10.49,11.32,0,6.27-4.06,10.22-10.49,10.77v2.75c0,.6-.33.88-1.1.88s-1.1-.28-1.1-.88v-2.69c-6.21-.17-10.88-2.53-10.88-4,0-.88,1.32-3,1.92-3s3.63,2.86,9,3V153.08c-4.83-1.87-10.16-3.8-10.16-10.88,0-5.39,4-9.13,10.16-9.79v-2.3c0-.61.33-.88,1.1-.88S109.72,129.5,109.72,130.11Zm-7.36,12.31c0,3.13,2.25,4.61,5.16,5.82V136.43C104.39,137,102.36,139,102.36,142.42Zm7.36,24.67a6.54,6.54,0,0,0,5.49-6.71c0-3.46-2.47-5.11-5.49-6.43Z"/></svg>