<svg xmlns="http://www.w3.org/2000/svg" viewBox="0 0 450 450"><defs><style>.a{fill:#ffe161;opacity:0.39;}.b,.c,.d,.e{fill:none;stroke-miterlimit:10;stroke-width:6px;}.b{stroke:#334054;}.b,.e{fill-rule:evenodd;}.c,.e{stroke:#1eb9d5;}.d{stroke:#ff6346;}</style></defs><title>airtime-icon3</title><circle class="a" cx="225" cy="225" r="175.42"/><path class="b" d="M274.2,280.33c-1.81,3.17-7,5.94-13.27,7.28,21.37,5.33,12.46,24.71-3.57,26.49,15.14,3.1,14.25,26.71-13.35,26.71H167c-40.5,0-64.55-22.71-97-22.71H51.87"/><line class="c" x1="224.01" y1="187.95" x2="365.84" y2="187.95"/><line class="d" x1="198.67" y1="204" x2="365.84" y2="204"/><path class="e" d="M168.49,219.68l.1,43.86A16.49,16.49,0,0,0,185.09,280H349.93a16.49,16.49,0,0,0,16.5-16.49V156.88a16.49,16.49,0,0,0-16.5-16.49H185.09a16.49,16.49,0,0,0-16.5,16.49v28.6"/><path class="b" d="M29.44,318.1V244.65s51.86.43,82.13-22.73,53-38.35,77.77-42.94c39.28-7.27,45.95,17,16.49,23.28-34,7.27-47,24.92-47,24.92"/></svg>