<svg xmlns="http://www.w3.org/2000/svg" viewBox="0 0 450 450"><defs><style>.a,.b,.c,.d{fill:none;stroke-miterlimit:10;stroke-width:6px;}.a{stroke:#334054;}.a,.d{fill-rule:evenodd;}.b,.d{stroke:#1eb9d5;}.c{stroke:#ff6346;}</style></defs><title>airtime-icon3</title><path class="a" d="M301.27,310.11c-1.81,3.18-7,5.94-13.28,7.28,21.37,5.34,12.47,24.71-3.56,26.5,15.14,3.1,14.25,26.7-13.35,26.7h-77c-40.5,0-64.55-22.71-97-22.71H78.94"/><line class="b" x1="251.08" y1="217.73" x2="392.91" y2="217.73"/><line class="c" x1="225.74" y1="233.78" x2="392.91" y2="233.78"/><path class="d" d="M195.56,249.47l.1,43.85a16.49,16.49,0,0,0,16.49,16.5H377a16.49,16.49,0,0,0,16.49-16.5V186.66A16.49,16.49,0,0,0,377,170.17H212.15a16.49,16.49,0,0,0-16.49,16.49v28.61"/><path class="a" d="M56.51,347.88V274.43s51.86.43,82.13-22.72,53-38.36,77.77-42.94c39.28-7.28,46,17,16.49,23.28-34,7.26-47,24.91-47,24.91"/></svg>