<svg xmlns="http://www.w3.org/2000/svg" viewBox="0 0 450 450"><defs><style>.a,.e{fill:#1eb9d5;}.a{fill-rule:evenodd;}.b{fill:#ffe161;}.c,.d{fill:none;stroke-miterlimit:10;stroke-width:2px;}.c{stroke:#fee161;}.d{stroke:#1eb9d5;}</style></defs><title>app-1</title><path class="a" d="M227.71,156.14l13,13.06L203,168.84l0-3,0-2.55,0-2.16.12-12.08v-1.47l.15-16,13.81,13.89a12.37,12.37,0,1,0-20.84-9.27h0v.13l-.24,24.43-.07,8-15-.15.31-32.41a27.38,27.38,0,1,1,46.43,19.92Z"/><path d="M183.21,182.81a4.89,4.89,0,0,0-.53-1.81,9.66,9.66,0,0,0-1.53-2.36,10.32,10.32,0,0,0-2.41-2.06,5.9,5.9,0,0,0-3.15-.9,24.64,24.64,0,0,0-5.93.72,29.35,29.35,0,0,0-7,2.76c-.36.21-.79.45-1.27.75a10.8,10.8,0,0,0-1.37,1,6.72,6.72,0,0,0-1.09,1.19,2.26,2.26,0,0,0-.46,1.34,2.9,2.9,0,0,0,.18.95,4.47,4.47,0,0,0,.55,1.09,3.51,3.51,0,0,0,.87.89,2.07,2.07,0,0,0,1.16.36.43.43,0,0,0,.47-.37,3.75,3.75,0,0,0,.09-.75,4.44,4.44,0,0,0-.06-.56c0-.28-.07-.56-.11-.86s-.07-.59-.1-.87a5.14,5.14,0,0,1-.06-.59,2.09,2.09,0,0,1,.91-1.45,10.84,10.84,0,0,1,2.15-1.35,17,17,0,0,1,2.59-1,7.91,7.91,0,0,1,2.24-.38h.27s.12.06.19.18a1.73,1.73,0,0,0,.19.25,15.71,15.71,0,0,0-.68,2.61c-.19,1.05-.35,2.19-.46,3.41s-.21,2.51-.29,3.83-.13,2.6-.17,3.86-.06,2.42-.08,3.51l0,2.8c0,.8,0,1.47,0,2a5.83,5.83,0,0,0,.16,1.28,1.52,1.52,0,0,0,.36.7.86.86,0,0,0,.62.22h.66c.31,0,.64,0,1-.05a6.94,6.94,0,0,0,1-.19,1.46,1.46,0,0,0,.74-.36q-.47-.15-.51-.51a3.36,3.36,0,0,1-.06-.5l0-4.35,0-2.91a10.93,10.93,0,0,1,.09-1.63c0-.11.14-.17.41-.19a6,6,0,0,1,.61,0,2.68,2.68,0,0,1,1.51.37,2.28,2.28,0,0,1,.76,1.32,15.18,15.18,0,0,1,.4,2.73c.09,1.16.25,2.67.46,4.51a3,3,0,0,0,.94,2.08,3.15,3.15,0,0,0,2,.62,3.43,3.43,0,0,0,2.12-.56,1.71,1.71,0,0,0,.81-1.39,1.57,1.57,0,0,0,0-.25,2.25,2.25,0,0,0-.05-.22,2.18,2.18,0,0,1-.52.6,1,1,0,0,1-.66.17c-.25,0-.45-.17-.59-.51a5.31,5.31,0,0,1-.32-1.32c-.07-.55-.13-1.16-.16-1.83s-.08-1.35-.13-2a13.87,13.87,0,0,0-.3-1.91,4.16,4.16,0,0,0-.58-1.44,4.1,4.1,0,0,0-1.6-1.39c-.61-.28-1.21-.53-1.8-.74a7.62,7.62,0,0,0,2.69-1,10.23,10.23,0,0,0,2.37-1.94,10.36,10.36,0,0,0,1.69-2.58,7.17,7.17,0,0,0,.67-2.95Zm-3.06-.68a6.78,6.78,0,0,1-.57,2.4,11.3,11.3,0,0,1-1.46,2.54,8.94,8.94,0,0,1-2.1,2,4.19,4.19,0,0,1-2.47.81,1.75,1.75,0,0,1-1-.16,1,1,0,0,1-.17-.7l.09-9a3.61,3.61,0,0,1,.22-1.46.74.74,0,0,1,.57-.48l1,0h.37a7.16,7.16,0,0,1,4,1.05,3.35,3.35,0,0,1,1.51,3Zm15,12.79v-.27c0-.44-.18-.66-.57-.67a.43.43,0,0,0-.39.2,2.63,2.63,0,0,0-.24.73c-.11.54-.25,1.11-.43,1.69a5.33,5.33,0,0,1-.73,1.56,3.84,3.84,0,0,1-1.2,1.14,3.41,3.41,0,0,1-1.84.42,2.43,2.43,0,0,1-1.38-.38,3.37,3.37,0,0,1-.9-.86,4.29,4.29,0,0,1-.52-1,2.42,2.42,0,0,1-.16-.78v-1.13a4.61,4.61,0,0,0,.56.12,3.26,3.26,0,0,0,.48.05,3.19,3.19,0,0,0,2-.62,5.77,5.77,0,0,0,1.45-1.58,8,8,0,0,0,.91-2.05,7.62,7.62,0,0,0,.34-2l0-.54a3.68,3.68,0,0,0-.3-1.29,3.51,3.51,0,0,0-.72-1.09,4,4,0,0,0-1.08-.77,3,3,0,0,0-1.32-.3,3.44,3.44,0,0,0-2.46.93,7.66,7.66,0,0,0-1.69,2.35,12.91,12.91,0,0,0-1,3,15.92,15.92,0,0,0-.34,3,11.57,11.57,0,0,0,.27,2.67,5.84,5.84,0,0,0,1,2.2,4.93,4.93,0,0,0,1.71,1.49,5.53,5.53,0,0,0,2.56.57,5.23,5.23,0,0,0,2.74-.67,6.39,6.39,0,0,0,1.9-1.71,7.39,7.39,0,0,0,1.11-2.23,7.59,7.59,0,0,0,.37-2.17Zm-4.52-6.06v.23a8.66,8.66,0,0,1-.16,1.4,8.16,8.16,0,0,1-.51,1.66,4.35,4.35,0,0,1-.88,1.39,1.72,1.72,0,0,1-1.33.57h-.19c-.24,0-.37-.07-.41-.22a2.75,2.75,0,0,1-.05-.56v-.11a8.13,8.13,0,0,1,.17-1.15,11.6,11.6,0,0,1,.5-1.82,7.35,7.35,0,0,1,.85-1.68,1.46,1.46,0,0,1,1.21-.73.67.67,0,0,1,.64.36,1.61,1.61,0,0,1,.17.66Zm11.35,11a1.19,1.19,0,0,1-.34.81,3.27,3.27,0,0,1-.82.62,4.83,4.83,0,0,1-1,.4,3.63,3.63,0,0,1-.88.12,7.85,7.85,0,0,1-1.45-.15,2.86,2.86,0,0,1-1.34-.57,3.61,3.61,0,0,1-1-1.62,12.25,12.25,0,0,1-.6-2.65c-.13-1-.22-2.16-.26-3.42s-.05-2.57,0-3.94c0-.57,0-1.21.08-1.9s.1-1.43.16-2.19.13-1.53.21-2.29.17-1.49.26-2.19c.08-.49.17-1,.28-1.59s.23-1.11.35-1.63a10.45,10.45,0,0,1,.42-1.39,2.64,2.64,0,0,1,.51-.89,1.58,1.58,0,0,1,.84-.4,5.7,5.7,0,0,1,1-.09,2.19,2.19,0,0,1,1.44.48,3,3,0,0,1,.82,1.27,7.41,7.41,0,0,1,.37,1.83c.06.69.08,1.42.08,2.19,0,1.2-.07,2.48-.16,3.87a35,35,0,0,1-.52,4.16,26.51,26.51,0,0,1-1.09,4.07,14.65,14.65,0,0,1-1.84,3.59c0,.36.06.79.12,1.26a8.69,8.69,0,0,0,.28,1.35,3.66,3.66,0,0,0,.5,1.05,1,1,0,0,0,.81.44,1.18,1.18,0,0,0,.74-.21,3.17,3.17,0,0,0,.49-.48,5.19,5.19,0,0,1,.43-.48.76.76,0,0,1,.56-.21.56.56,0,0,1,.53.24,1.05,1.05,0,0,1,.13.54Zm-2.74-18.27c0-.26,0-.57,0-.93a7.61,7.61,0,0,0-.11-1.07,4.48,4.48,0,0,0-.24-.9c-.1-.24-.24-.37-.42-.37s-.47.36-.64,1.08a22.62,22.62,0,0,0-.39,2.85c-.1,1.18-.18,2.51-.23,4s-.09,3-.11,4.52v1.38a9.35,9.35,0,0,0,.07,1.26,22.54,22.54,0,0,0,1.68-5.93,47.07,47.07,0,0,0,.41-5.89ZM214.87,190a2.56,2.56,0,0,0-.3.64,8.5,8.5,0,0,1-.36.87,6.51,6.51,0,0,1-.57,1,4.54,4.54,0,0,1-.94,1c0-.44,0-.87,0-1.28s0-.8-.1-1.17q-.1-1-.3-1.92a2.78,2.78,0,0,0-.57-1.38c-.33-.4-.68-.79-1-1.2a11.45,11.45,0,0,0-1.14-1.08,6.76,6.76,0,0,0-1.19-.78,2.77,2.77,0,0,0-1.24-.33,3.54,3.54,0,0,0-1.13.21,2.62,2.62,0,0,0-1.13.74,8.39,8.39,0,0,0-1.07,1.62,15.23,15.23,0,0,0-1,2.36A25.12,25.12,0,0,0,202,192a14.53,14.53,0,0,0-.32,2.83,12.39,12.39,0,0,0,.11,1.69,6.92,6.92,0,0,0,.43,1.71,5.43,5.43,0,0,0,.93,1.58,5.7,5.7,0,0,0,1.58,1.3,5.07,5.07,0,0,0,.74.38c.28.12.58.22.89.32s.61.16.91.22a4.8,4.8,0,0,0,.79.08,2.92,2.92,0,0,0,1.85-.58,6.1,6.1,0,0,0,1.38-1.44,8.43,8.43,0,0,0,.89-1.74,8.53,8.53,0,0,0,.4-1.47c0-.11,0-.24.06-.41s0-.47.07-.91c.26-.21.51-.42.76-.66a5.57,5.57,0,0,0,.69-.76,10.92,10.92,0,0,0,1-1.65,5.1,5.1,0,0,0,.55-2.15,1.41,1.41,0,0,0-.08-.39.28.28,0,0,0-.27-.23.58.58,0,0,0-.54.26Zm-4.42,3.3h0V194q0,.19-.72.54a4.17,4.17,0,0,1-1.85.33,2.68,2.68,0,0,1-2.13-.74,3.42,3.42,0,0,1-.6-2.28,7.36,7.36,0,0,1,.27-1.82,6.74,6.74,0,0,1,.7-1.66,4.19,4.19,0,0,1,1-1.19,1.67,1.67,0,0,1,1.13-.46,1.22,1.22,0,0,1,1,.45,3.78,3.78,0,0,1,.64,1.12,8.41,8.41,0,0,1,.37,1.46c.09.53.14,1,.18,1.53s0,.92.06,1.28,0,.6,0,.7Zm-.23,3.18a3.56,3.56,0,0,1-.18,1,3.48,3.48,0,0,1-.56,1.08,2.85,2.85,0,0,1-1,.83,3.1,3.1,0,0,1-1.45.32,2.53,2.53,0,0,1-1.17-.27,1.87,1.87,0,0,1-.71-.65,2.65,2.65,0,0,1-.36-.86,3.94,3.94,0,0,1-.11-.89l.05-.81a4.19,4.19,0,0,0,1.22.63,6.4,6.4,0,0,0,1.61.17,7.71,7.71,0,0,0,1.36-.14,3.4,3.4,0,0,0,1.28-.46Zm19.68.54a5.16,5.16,0,0,1-.39,1.28,7.72,7.72,0,0,1-.82,1.41,4.66,4.66,0,0,1-1.13,1.13,2.38,2.38,0,0,1-1.42.46,2.73,2.73,0,0,1-2-.92,4.18,4.18,0,0,1-1.05-2.53l-.55,1.43a8.31,8.31,0,0,1-.79,1.51,5.84,5.84,0,0,1-1.08,1.18,2.3,2.3,0,0,1-1.43.47,1.38,1.38,0,0,1-.35,0l-.25-.1a1.89,1.89,0,0,0-.31-.1,2.68,2.68,0,0,0-.48,0,2.23,2.23,0,0,1-1.57-.62,4.35,4.35,0,0,1-1-1.54,8.6,8.6,0,0,1-.54-2,11.9,11.9,0,0,1-.16-2.08,36.49,36.49,0,0,1,.29-4.43,18,18,0,0,1,.87-3.7,7.11,7.11,0,0,1,1.54-2.54,3,3,0,0,1,2.26-.93,4,4,0,0,1,1.19.14,6.5,6.5,0,0,1,.75.32l.75.38a4.5,4.5,0,0,0,1.15.32,2.7,2.7,0,0,1,1.13,1.12,4.1,4.1,0,0,1,.42,1.38,8.59,8.59,0,0,1,0,1.53A8.33,8.33,0,0,0,225,191s.06.06.18.11a3.89,3.89,0,0,0,.4.18,1.3,1.3,0,0,1,.41.28.63.63,0,0,1,.17.45v.15a7.08,7.08,0,0,0-.49,1.78c0,.52-.09,1.14-.09,1.86,0,.37,0,.76,0,1.19a8.75,8.75,0,0,0,.19,1.21,2.47,2.47,0,0,0,.4.93.83.83,0,0,0,.69.38,1.07,1.07,0,0,0,.84-.46,4.44,4.44,0,0,0,.63-1.06,11.13,11.13,0,0,0,.44-1.22,7.52,7.52,0,0,0,.22-.93c.06-.31.19-.47.4-.46a.46.46,0,0,1,.36.21,1.24,1.24,0,0,1,.17.76v.29a1.47,1.47,0,0,1,0,.33Zm-7.12-6.36a8,8,0,0,0-.07-1,4.16,4.16,0,0,0-.26-1.08,2.24,2.24,0,0,0-.57-.87,1.53,1.53,0,0,0-1-.35,2,2,0,0,0-1.77,1,7.78,7.78,0,0,0-1.09,2.32,13.37,13.37,0,0,0-.53,2.75c-.09.94-.14,1.69-.14,2.23s0,.92,0,1.49a13.72,13.72,0,0,0,.2,1.66,4.76,4.76,0,0,0,.43,1.32.86.86,0,0,0,.76.55,2,2,0,0,0,1.73-.85,6.47,6.47,0,0,0,.94-2.17,20.26,20.26,0,0,0,.47-2.79c.1-1,.19-1.91.28-2.74a1.11,1.11,0,0,1,.35-.83c.19-.11.28-.2.28-.25v-.35Zm21.82,4.1.05-.62a2.92,2.92,0,0,0-.05-.88c-.06-.3-.21-.45-.44-.45s-.43.07-.51.23a1.63,1.63,0,0,0-.16.54,16.36,16.36,0,0,1-1,4.09,1.82,1.82,0,0,1-1.7,1.28.86.86,0,0,1-.78-.45,3.58,3.58,0,0,1-.39-1.21,12.18,12.18,0,0,1-.16-1.75c0-.66,0-1.35,0-2.08l0-3.92c0-1.78.07-3.46.16-5s.19-3,.28-4.17.17-2.18.26-2.93.12-1.2.12-1.36a.62.62,0,0,0-.47-.68,5.88,5.88,0,0,0-1.38-.15,10,10,0,0,0-1.18.07,7.78,7.78,0,0,0-1.31.26,2.72,2.72,0,0,1,.27.54,5.8,5.8,0,0,1,.2.82,7.73,7.73,0,0,1,.13,1.22c0,.48,0,1.06,0,1.73v1.28c0,.57,0,1.18,0,1.85s0,1.32-.06,2,0,1.25-.07,1.71l-1.26-.48a5.51,5.51,0,0,0-1.8-.33,2.25,2.25,0,0,0-1.54.61,6.38,6.38,0,0,0-1.22,1.54,11.65,11.65,0,0,0-.91,2.05c-.25.75-.47,1.47-.64,2.15a17.63,17.63,0,0,0-.39,1.8,8.65,8.65,0,0,0-.12,1v.66c0,.29,0,.68,0,1.18a6.91,6.91,0,0,0,.25,1.58,6.16,6.16,0,0,0,.72,1.6,3.77,3.77,0,0,0,1.39,1.26c.41.2.81.38,1.18.53a3.21,3.21,0,0,0,1.14.22,2.21,2.21,0,0,0,1.4-.39,3.56,3.56,0,0,0,.93-1,5.72,5.72,0,0,0,.59-1.33c.15-.5.28-.95.38-1.36l0-.19a5.82,5.82,0,0,0,1.25,2.41,3.2,3.2,0,0,0,2.41.8,2.87,2.87,0,0,0,1.93-.64,4.89,4.89,0,0,0,1.3-1.61,9.57,9.57,0,0,0,.76-2.06,14.11,14.11,0,0,0,.34-1.93ZM236.47,189l-.06,1.39c0,.42-.08,1-.17,1.65s-.2,1.41-.35,2.17-.32,1.54-.53,2.31a18.52,18.52,0,0,1-.66,2.09,6.05,6.05,0,0,1-.79,1.51,1.2,1.2,0,0,1-.93.57.88.88,0,0,1-.74-.39,3.24,3.24,0,0,1-.42-.94,5.31,5.31,0,0,1-.18-1.17c0-.41,0-.78,0-1.09a24.11,24.11,0,0,1,.22-2.83,18.89,18.89,0,0,1,.63-3,9.09,9.09,0,0,1,1-2.34,1.68,1.68,0,0,1,1.38-.94,1.41,1.41,0,0,1,.47.12,3.74,3.74,0,0,1,.52.28,2.55,2.55,0,0,1,.42.32q.18.15.18.27Zm14.6,11.28a1.13,1.13,0,0,1-.33.81,3.27,3.27,0,0,1-.82.62,4.91,4.91,0,0,1-1,.4,3.5,3.5,0,0,1-.87.12,8,8,0,0,1-1.46-.15,2.83,2.83,0,0,1-1.33-.57,3.71,3.71,0,0,1-1-1.62,13.06,13.06,0,0,1-.59-2.65c-.13-1-.22-2.16-.26-3.42s-.05-2.57,0-3.94c0-.57,0-1.21.08-1.9s.09-1.43.15-2.19.14-1.53.22-2.29.17-1.5.25-2.19c.09-.49.18-1,.29-1.59s.22-1.11.35-1.63a10.45,10.45,0,0,1,.42-1.39,2.64,2.64,0,0,1,.51-.89,1.58,1.58,0,0,1,.84-.4,5.7,5.7,0,0,1,.95-.09,2.16,2.16,0,0,1,1.43.48,3,3,0,0,1,.83,1.27,7.41,7.41,0,0,1,.37,1.83c.06.68.08,1.42.07,2.19q0,1.78-.15,3.87a37.22,37.22,0,0,1-.52,4.16,27.71,27.71,0,0,1-1.09,4.07,15,15,0,0,1-1.84,3.59c0,.36.06.79.12,1.26a7.67,7.67,0,0,0,.28,1.35,3.93,3.93,0,0,0,.49,1.05,1,1,0,0,0,.82.44,1.2,1.2,0,0,0,.74-.21,3.17,3.17,0,0,0,.49-.48,4.06,4.06,0,0,1,.43-.48.76.76,0,0,1,.56-.21.54.54,0,0,1,.52.24,1,1,0,0,1,.13.54ZM248.34,182c0-.26,0-.57,0-.93a7.61,7.61,0,0,0-.11-1.07,4.48,4.48,0,0,0-.24-.9c-.1-.24-.25-.37-.43-.37s-.47.36-.63,1.08a24.34,24.34,0,0,0-.4,2.85c-.1,1.18-.17,2.51-.23,4s-.08,3-.1,4.52v1.38a9.49,9.49,0,0,0,.06,1.26,22.2,22.2,0,0,0,1.69-5.93,49.05,49.05,0,0,0,.41-5.89Zm14.42,19.28a.61.61,0,0,0-.39-.65,3.66,3.66,0,0,0-.81-.18l.11-11.49a.28.28,0,0,0,.23-.27.53.53,0,0,0-.3-.49,3.17,3.17,0,0,0-.76-.3,5.3,5.3,0,0,0-.93-.16c-.32,0-.61-.05-.87-.05-.22,1.47-.47,2.93-.74,4.38s-.57,2.74-.89,3.87a13.2,13.2,0,0,1-1.06,2.75c-.38.7-.8,1-1.27,1s-.73-.42-.86-1.25a28.1,28.1,0,0,1-.18-4.16c0-1.29.05-2.39.11-3.28s.14-1.62.24-2.17a5.46,5.46,0,0,1,.34-1.28,1.43,1.43,0,0,1,.43-.6,1.18,1.18,0,0,1,.18-.13.19.19,0,0,0,.1-.17.91.91,0,0,0-.38-.73,3.59,3.59,0,0,0-.89-.47,5.62,5.62,0,0,0-1-.26,4.18,4.18,0,0,0-.62-.09c-.34,0-.61.3-.83.91a11.06,11.06,0,0,0-.48,2.3c-.12.93-.19,2-.23,3.05s-.06,2.16-.07,3.16c0,.26,0,.68,0,1.24a16.28,16.28,0,0,0,.16,1.79,9.84,9.84,0,0,0,.39,1.78,2.53,2.53,0,0,0,.73,1.22,15.21,15.21,0,0,0,1.39,1,2.92,2.92,0,0,0,1.43.48,1.71,1.71,0,0,0,1.28-.57,5.69,5.69,0,0,0,1-1.43,10.91,10.91,0,0,0,.7-1.82l.48-1.7,0,5a12.68,12.68,0,0,0-2.47,2.25,16.22,16.22,0,0,0-2,2.87,16.52,16.52,0,0,0-1.31,3.21,12.08,12.08,0,0,0-.5,3.22,3,3,0,0,0,.66,2.2,4.76,4.76,0,0,0,2.42,1.05l.48.14.28.1.19.07.29,0a1,1,0,0,0,.84-.46,3,3,0,0,1,.88-.81,2.58,2.58,0,0,0,.31-.19l.49-.32.47-.31.25-.17a3.09,3.09,0,0,0,1-1.2,7.2,7.2,0,0,0,.5-1.59,10.91,10.91,0,0,0,.19-1.72c0-.59,0-1.12,0-1.62l.06-6.17a.4.4,0,0,1,.3-.13l.4,0a.86.86,0,0,0,.35-.16.5.5,0,0,0,.17-.42Zm-4.3,1.86,0,4.31v.15c0,.39,0,1-.09,1.81a17.1,17.1,0,0,1-.36,2.44,7.61,7.61,0,0,1-.75,2.13,1.47,1.47,0,0,1-1.35.9,1.06,1.06,0,0,1-.87-.34,2.3,2.3,0,0,1-.44-.76,2.92,2.92,0,0,1-.17-.87c0-.3,0-.52,0-.64a10.49,10.49,0,0,1,.29-2.22,15.29,15.29,0,0,1,.82-2.57,15.54,15.54,0,0,1,1.29-2.46A7.72,7.72,0,0,1,258.46,203.18Z"/><path class="b" d="M300.61,256.72c0-5.83,0-11.37,0-16.44-1,1.36-2.59.77-4.27.65l-.14,12.2C297.67,254.1,298.66,256.11,300.61,256.72Z"/><path class="b" d="M295,362.12c-.12,10.24-7.92,18.45-17.45,18.35l-132-1.44c-9.52-.1-17.14-8.49-17-18.72l.25-22.76.47-43.08L131.8,59c.11-10.24,7.92-18.45,17.44-18.35l34.74.38,5.91,15.32,51.17.56,5.23-15.2,35,.38c9.53.11,17.15,8.49,17,18.72l-1.4,128.07c2,0,2.41-1.92,3.55-2.8l1-125.71c-1.75-15.65-8.54-21.72-31.18-22.4l-9.74-.27-36.47-.79c-30.26-.54-58.14-.74-66.34-.51-18.91.54-32.28,1.6-32.36,27.3-.11,37-2.76,283.63-3.24,295.86-.74,19.29,5.41,30.33,25,30.65l49.13,1.57c33.28,1.21,70,2.6,76,2.19,9.74-.65,27.33-2.9,27.79-25,.31-14.9.45-38.62.51-63.24a23.56,23.56,0,0,1-4.93-4Z"/><path class="c" d="M330.51,91.78c3.77,20.1-26.06,31.09-26.06,31.09"/><path class="c" d="M84.28,113c.94-14.89,4-29.71,17.34-29.71,17,0,18.84,22.6,18.84,32"/><path class="c" d="M.21,329.15s51.18-35.79,71.27-107.69c5.16-18.44,10.63-50.06,11.7-74.53"/><path class="c" d="M304.77,122.55c6.25,6.23,13.7,12.65,20.92,24.35C333,158.77,328.21,168,323,171.85s-14.14,3.73-18.53-1.57"/><path class="d" d="M305.32,79.35A29.52,29.52,0,0,1,313,77.94"/><path class="d" d="M304.65,359.18c.52,20.06-6,31.45-26.39,31.51-27.87.09-120,3-130.14,2.2s-28.37-3.4-28.54-26.33c-.34-44.6.83-155.41.83-155.41"/><path class="d" d="M304.42,310.16c0,7.18,0,13.79.06,19.68"/><path class="d" d="M304.3,239.2c0,8.64,0,10.88,0,19.15"/><line class="d" x1="297.13" y1="252.7" x2="297.17" y2="241.08"/><path class="d" d="M267.2,384.73l12.13,0c9.67,0,17.53-8.39,17.55-18.8l.15-62.4"/><path class="d" d="M254.37,40.93l-9.55,0L238.61,56.4l-52-.12-5.11-15.51L146,40.69c-9.68,0-17.54,8.38-17.56,18.78l-.71,306.11c0,10.4,7.8,18.85,17.48,18.87l74.87.17"/><path class="d" d="M297.29,188.65l.29-128.79c0-9.5-6.5-17.38-15-18.68"/><line class="d" x1="190.79" y1="47.51" x2="220.94" y2="47.51"/><circle class="e" cx="231.3" cy="47.2" r="2.83"/><path class="c" d="M311.37,174.15a42,42,0,0,1,12.24,20.62c4.26,17-7.63,31.83-16,40.82-8.79,9.42-19.46,4.08-24.17-3.14-6-9.13-3.51-21.88,21-53"/><path class="c" d="M331.71,338.88C301,302.23,261.64,272.64,254.53,266c-8.79-8.16-17.58-19.78-6.28-31.4,9.29-9.55,21.35-1.57,33,6.28s60.28,49.93,77.55,61.54,37.37,14.45,47.73,11.31,44.58-17.9,44.58-17.9"/><path class="d" d="M120.25,185.15s.55-90.39.47-109.85c-.13-31.19,2.09-42.06,33.48-42.59,44.29-.73,104.09-.62,117-.09,19.65.82,33.52,2.11,33.25,28.82-.15,15.23-.2,65.64-.19,118.73"/></svg>