<?xml version="1.0" encoding="utf-8"?>
<!-- Generator: Adobe Illustrator 23.0.3, SVG Export Plug-In . SVG Version: 6.00 Build 0)  -->
<svg version="1.1" id="Layer_1" xmlns="http://www.w3.org/2000/svg" xmlns:xlink="http://www.w3.org/1999/xlink" x="0px" y="0px"
	 viewBox="0 0 885 575" style="enable-background:new 0 0 885 575;" xml:space="preserve">
<style type="text/css">
	.st0{fill:none;stroke:#1EB9D5;stroke-width:2;stroke-miterlimit:10;}
	.st1{fill:none;stroke:#FFE161;stroke-width:2;stroke-miterlimit:10;}
	.st2{fill:#1EB9D5;}
	.st3{fill-rule:evenodd;clip-rule:evenodd;fill:#1EB9D5;}
	.st4{fill:#FFFFFF;}
</style>
<title>homepic2</title>
<path class="st0" d="M641.8,178.9l-79.4,254.2l-14.5,46.5l-7.7,24.6c-3.5,11-14.6,17.4-24.9,14.2l-142.5-44.5
	c-10.3-3.2-15.8-14.8-12.4-25.8L462,122.8c3.5-11,14.6-17.4,24.9-14.2l37.7,11.8l0.3,18.2l55.3,17.3l11.7-14.4l37.5,11.7
	C639.7,156.3,645.2,167.9,641.8,178.9z"/>
<path class="st1" d="M634.7,227.7c0,0,22.2-1.9,20.8,20.8s-33.4,25.3-33.4,25.3"/>
<path class="st1" d="M617.9,284.3c0,0,22.2-1.9,20.8,20.8s-35.1,25.4-35.1,25.4"/>
<path class="st1" d="M599.4,345.1c0,0,22.2-1.9,20.8,20.8s-35.1,25.4-35.1,25.4"/>
<path class="st1" d="M581.2,406c0,0,22.2-1.9,20.8,20.8s-35.8,25.4-35.8,25.4"/>
<path class="st1" d="M411.7,494.8c0,0-86.4,38.1-175.6,49.4V341.5c0,0,59.4-25.4,98.8-58.4"/>
<path class="st0" d="M458.2,507.4c-37.1-10.5-78-22.1-84.5-24.7c-10.5-4.2-29-13-21.7-37.4c14.3-47.5,52.1-165,52.1-165"/>
<path class="st0" d="M550.1,117c33.5,10.2,64.3,20,73.2,23.1c20.6,7.3,35,13.3,25.9,41.6c-13.1,40.7-94,303.1-97.9,316.7
	c-6.1,21.5-16.8,31.5-38.5,24.8"/>
<path class="st0" d="M412,255.4c0,0,38.5-124.3,44.6-140.2s17.1-20.9,42.3-13.5l10.8,3.2"/>
<line class="st0" x1="534.2" y1="129.7" x2="566.4" y2="139.1"/>
<circle class="st2" cx="577.6" cy="142" r="3.2"/>
<path class="st1" d="M361.2,261.1c10.8-9.1,32.7-27.6,47.5-10.3c12.6,14.7-4.2,30.2-14.7,38.2s-57,42.6-77.6,54.7
	c-12.7,7.4-5.1,21.3,11.5,15.7c15.7-5.2,39.9-20.4,39.9-20.4"/>
<path class="st3" d="M526.4,279.6l8.5,16.1l-35.5-11.3l0.9-2.8l0.8-2.4l0.6-2l3.6-11.4l0.4-1.4l4.8-15l9,17.1
	c6.1-3,8.6-10.3,5.6-16.4s-10.3-8.6-16.4-5.6c-2.9,1.4-5.2,4-6.2,7.1l0,0v0.1l-7.3,23l-2.4,7.5l-14.1-4.5l9.7-30.5
	c4.5-14.2,19.8-22.1,34-17.6c14.2,4.5,22.1,19.8,17.6,34C537.8,270.6,532.9,276.4,526.4,279.6L526.4,279.6z"/>
<path class="st4" d="M476.6,291.9c0.1-0.6,0.1-1.2,0-1.9c-0.1-0.9-0.4-1.8-0.8-2.7c-0.4-1-1-1.9-1.7-2.6c-0.7-0.8-1.7-1.4-2.7-1.8
	c-1.9-0.6-3.8-0.9-5.8-1c-2.5-0.1-5,0.1-7.4,0.6l-1.4,0.3c-0.5,0.1-1.1,0.3-1.6,0.5c-0.5,0.2-1,0.5-1.4,0.8
	c-0.4,0.3-0.7,0.7-0.8,1.1c-0.1,0.3-0.1,0.6-0.1,1c0,0.4,0.1,0.8,0.2,1.2c0.1,0.4,0.3,0.8,0.6,1.1c0.3,0.3,0.6,0.6,1,0.7
	c0.2,0.1,0.4,0,0.5-0.2c0,0,0,0,0,0c0.1-0.2,0.2-0.4,0.3-0.7c0-0.1,0.1-0.3,0.1-0.5s0.1-0.5,0.1-0.8s0.1-0.6,0.2-0.9
	c0-0.2,0.1-0.4,0.1-0.6c0.2-0.5,0.7-0.9,1.3-1.1c0.8-0.3,1.6-0.5,2.4-0.6c0.9-0.1,1.8-0.2,2.7-0.2c0.8,0,1.5,0.1,2.2,0.3l0.2,0.1
	c0,0,0.1,0.1,0.1,0.2c0,0.1,0.1,0.2,0.1,0.3c-0.5,0.7-1,1.5-1.4,2.3c-0.5,0.9-1,2-1.4,3.1s-0.9,2.3-1.4,3.5s-0.9,2.4-1.3,3.6
	s-0.8,2.3-1.1,3.3l-0.8,2.6c-0.2,0.8-0.4,1.4-0.6,1.9c-0.1,0.4-0.2,0.8-0.2,1.3c0,0.3,0,0.5,0.1,0.8c0.1,0.2,0.3,0.3,0.5,0.4
	l0.6,0.2c0.3,0.1,0.6,0.2,1,0.2c0.3,0.1,0.7,0.1,1,0.1c0.3,0,0.6,0,0.8-0.1c-0.2-0.1-0.4-0.4-0.3-0.6c0-0.2,0-0.3,0.1-0.5l1.3-4.1
	l0.9-2.7c0.1-0.5,0.3-1,0.6-1.5c0-0.1,0.2-0.1,0.4-0.1l0.6,0.1c0.5,0.1,1,0.4,1.3,0.8c0.3,0.4,0.4,1,0.3,1.5
	c-0.1,0.9-0.2,1.8-0.4,2.7c-0.2,1.1-0.5,2.6-0.9,4.4c-0.2,0.8-0.1,1.6,0.3,2.2c0.4,0.6,1.1,1,1.8,1.1c0.7,0.3,1.4,0.3,2.2,0.1
	c0.5-0.1,1-0.5,1.2-1.1c0-0.1,0-0.2,0.1-0.2c0-0.1,0-0.1,0-0.2c-0.2,0.2-0.4,0.3-0.7,0.4c-0.2,0.1-0.5,0.1-0.7,0
	c-0.2-0.1-0.4-0.3-0.4-0.6c0-0.5,0-0.9,0.1-1.4c0.1-0.5,0.2-1.1,0.4-1.8s0.3-1.3,0.5-2c0.1-0.6,0.2-1.2,0.3-1.9c0.1-0.5,0-1-0.1-1.5
	c-0.2-0.7-0.6-1.3-1.1-1.8c-0.5-0.4-1-0.9-1.5-1.2c0.9,0.1,1.9,0.1,2.8-0.2c2-0.5,3.8-1.6,5.1-3.1
	C475.8,293.7,476.3,292.8,476.6,291.9L476.6,291.9z M473.9,290.3c-0.3,0.8-0.7,1.5-1.2,2.1c-0.6,0.8-1.3,1.4-2.1,2
	c-0.8,0.6-1.6,1-2.6,1.3c-0.8,0.3-1.7,0.3-2.6,0c-0.3-0.1-0.6-0.2-0.9-0.4c-0.1-0.2-0.1-0.5,0-0.7l2.7-8.5c0.1-0.5,0.3-0.9,0.6-1.3
	c0.2-0.2,0.4-0.3,0.7-0.3c0.5,0.1,0.8,0.2,0.9,0.3l0.4,0.1c1.3,0.4,2.5,1.1,3.5,2.1C474.1,288,474.3,289.2,473.9,290.3L473.9,290.3z
	 M484.3,306.8l0.1-0.3c0.1-0.4,0-0.7-0.4-0.8c-0.1-0.1-0.3,0-0.4,0.1c-0.2,0.2-0.3,0.4-0.4,0.6c-0.3,0.5-0.6,1-0.9,1.5
	c-0.3,0.5-0.7,0.9-1.1,1.3c-0.4,0.3-0.9,0.6-1.5,0.7c-0.6,0.1-1.3,0.1-1.9-0.1c-0.5-0.1-0.9-0.4-1.2-0.8c-0.3-0.3-0.5-0.7-0.6-1.1
	c-0.1-0.4-0.2-0.7-0.2-1.1c0-0.3,0-0.5,0.1-0.8l0.3-1.1c0.3,0.2,0.6,0.4,0.9,0.5c0.6,0.2,1.4,0.2,2,0c0.7-0.2,1.3-0.6,1.8-1.1
	c0.6-0.5,1-1.1,1.5-1.7c0.4-0.6,0.7-1.2,0.9-1.8l0.1-0.5c0.2-0.9,0.1-1.8-0.3-2.5c-0.2-0.4-0.5-0.7-0.8-1c-0.3-0.3-0.7-0.5-1.2-0.7
	c-0.9-0.3-1.8-0.2-2.6,0.2c-0.9,0.4-1.6,1-2.3,1.7c-0.7,0.8-1.3,1.6-1.8,2.6c-0.5,0.9-0.9,1.8-1.2,2.7c-0.3,0.8-0.5,1.7-0.5,2.6
	c-0.1,0.8,0,1.6,0.3,2.4c0.2,0.7,0.6,1.4,1.2,1.9c0.6,0.6,1.4,1,2.2,1.3c0.9,0.3,1.9,0.4,2.8,0.2c0.8-0.2,1.6-0.6,2.3-1.1
	c0.7-0.5,1.2-1.1,1.7-1.8C483.8,308.2,484.1,307.5,484.3,306.8L484.3,306.8z M481.8,299.8l-0.1,0.2c-0.2,0.4-0.3,0.9-0.6,1.3
	c-0.3,0.5-0.6,1-1,1.4c-0.3,0.4-0.8,0.8-1.2,1c-0.4,0.3-0.9,0.3-1.4,0.1h-0.2c-0.2-0.1-0.3-0.2-0.3-0.3c0-0.2,0.1-0.4,0.1-0.5v-0.1
	c0.1-0.3,0.3-0.7,0.5-1c0.3-0.5,0.6-1.1,1-1.6c0.4-0.5,0.8-1,1.3-1.3c0.4-0.3,0.9-0.5,1.4-0.3c0.3,0.1,0.5,0.3,0.5,0.5
	C481.8,299.4,481.8,299.6,481.8,299.8L481.8,299.8z M489.4,313.4c-0.1,0.3-0.3,0.5-0.6,0.7c-0.3,0.2-0.6,0.3-1,0.3
	c-0.4,0.1-0.7,0.1-1.1,0.1c-0.3,0-0.6-0.1-0.9-0.1c-0.5-0.1-0.9-0.3-1.3-0.6c-0.4-0.2-0.8-0.5-1.1-0.9c-0.3-0.6-0.5-1.2-0.5-1.9
	c0-0.9,0-1.8,0.2-2.7c0.2-1.1,0.4-2.2,0.8-3.3c0.3-1.2,0.7-2.4,1.1-3.7c0.2-0.5,0.4-1.1,0.6-1.8c0.2-0.6,0.5-1.3,0.8-2
	s0.6-1.4,0.9-2.1l0.9-2l0.8-1.4c0.3-0.5,0.5-1,0.8-1.4c0.2-0.4,0.5-0.8,0.8-1.2c0.2-0.3,0.4-0.5,0.7-0.7c0.3-0.1,0.6-0.2,0.9-0.1
	c0.3,0,0.6,0.1,0.9,0.2c0.5,0.1,0.9,0.4,1.2,0.9c0.3,0.4,0.4,0.9,0.4,1.4c0,0.6,0,1.2-0.2,1.8c-0.1,0.7-0.3,1.4-0.6,2.1
	c-0.4,1.1-0.8,2.3-1.3,3.6c-0.5,1.3-1.1,2.6-1.7,3.8c-0.6,1.2-1.4,2.4-2.2,3.5c-0.8,1.1-1.7,2-2.8,2.9c-0.1,0.4-0.2,0.8-0.2,1.2
	c-0.1,0.4-0.1,0.9-0.1,1.4c0,0.4,0.1,0.8,0.2,1.1c0.1,0.3,0.3,0.5,0.6,0.6c0.2,0.1,0.5,0.1,0.8,0c0.2-0.1,0.4-0.2,0.6-0.3
	c0.2-0.1,0.4-0.2,0.5-0.3c0.2-0.1,0.4-0.1,0.6,0c0.2,0,0.4,0.2,0.4,0.4C489.5,313,489.5,313.2,489.4,313.4L489.4,313.4z
	 M492.1,295.4c0.1-0.2,0.2-0.5,0.3-0.9c0.1-0.3,0.2-0.7,0.2-1c0-0.3,0-0.6,0-0.9c0-0.2-0.1-0.4-0.3-0.5c-0.2-0.1-0.5,0.2-0.9,0.8
	c-0.5,0.8-0.9,1.7-1.2,2.6c-0.4,1.1-0.9,2.3-1.4,3.7s-1,2.8-1.4,4.2l-0.4,1.3c-0.1,0.4-0.2,0.8-0.3,1.2c1.3-1.5,2.5-3.3,3.3-5.1
	C490.8,299.1,491.5,297.3,492.1,295.4L492.1,295.4z M504.4,307.9c-0.2,0.2-0.3,0.3-0.5,0.5c-0.2,0.2-0.4,0.5-0.6,0.7
	c-0.3,0.3-0.5,0.5-0.8,0.8c-0.4,0.3-0.8,0.5-1.2,0.6c0.1-0.4,0.2-0.8,0.4-1.2s0.2-0.8,0.2-1.1c0.1-0.6,0.2-1.3,0.3-1.9
	c0.1-0.5,0-1-0.1-1.5c-0.2-0.5-0.4-0.9-0.6-1.4c-0.2-0.5-0.5-0.9-0.8-1.4c-0.3-0.4-0.6-0.8-0.9-1.1c-0.3-0.3-0.7-0.5-1.1-0.7
	c-0.4-0.1-0.7-0.2-1.1-0.1c-0.5,0-0.9,0.1-1.3,0.4c-0.5,0.3-1,0.8-1.5,1.2c-0.6,0.6-1.1,1.2-1.6,1.9c-0.5,0.8-1.1,1.6-1.5,2.4
	c-0.5,0.8-0.8,1.7-1.1,2.6c-0.2,0.5-0.3,1.1-0.4,1.6c-0.1,0.6-0.1,1.2-0.1,1.7c0,0.6,0.2,1.2,0.4,1.8c0.3,0.6,0.7,1.2,1.1,1.7
	c0.2,0.2,0.4,0.4,0.6,0.6c0.2,0.2,0.5,0.4,0.8,0.6c0.3,0.2,0.5,0.3,0.8,0.5c0.2,0.1,0.5,0.2,0.7,0.3c0.6,0.2,1.3,0.2,1.9,0
	c0.6-0.2,1.2-0.6,1.7-1c0.5-0.4,1-0.9,1.4-1.4c0.3-0.4,0.6-0.8,0.8-1.3c0.1-0.1,0.1-0.2,0.2-0.4l0.3-0.8c0.3-0.1,0.6-0.2,0.9-0.4
	c0.3-0.1,0.6-0.3,0.9-0.5c0.5-0.4,1-0.8,1.5-1.2c0.5-0.5,0.9-1.2,1.1-1.9c0-0.1,0-0.3,0-0.4c0-0.1-0.1-0.3-0.2-0.3
	C504.8,307.7,504.5,307.7,504.4,307.9L504.4,307.9z M499.3,309.7L499.3,309.7l-0.2,0.7c0,0.1-0.3,0.2-0.8,0.3
	c-0.6,0.1-1.3,0-1.9-0.2c-0.8-0.2-1.4-0.6-1.8-1.3c-0.2-0.8-0.2-1.6,0.1-2.3c0.2-0.6,0.4-1.1,0.8-1.6c0.3-0.5,0.7-1,1.1-1.4
	c0.4-0.4,0.8-0.6,1.3-0.8c0.4-0.2,0.8-0.2,1.2-0.1c0.4,0.1,0.6,0.4,0.8,0.7c0.2,0.4,0.2,0.8,0.3,1.2c0,0.5,0,1-0.1,1.5
	c-0.1,0.5-0.2,1-0.3,1.5s-0.2,0.9-0.3,1.2L499.3,309.7L499.3,309.7z M498.1,312.7c-0.1,0.3-0.3,0.6-0.5,0.9
	c-0.2,0.3-0.5,0.6-0.8,0.9c-0.3,0.2-0.7,0.4-1.2,0.5c-0.5,0.1-1,0-1.5-0.1c-0.4-0.1-0.7-0.3-1-0.6c-0.2-0.2-0.4-0.5-0.5-0.8
	c-0.1-0.3-0.1-0.6-0.1-0.9c0-0.3,0.1-0.6,0.2-0.9l0.3-0.8c0.3,0.4,0.6,0.7,1,1c0.5,0.3,1,0.5,1.5,0.6c0.4,0.1,0.9,0.2,1.3,0.3
	C497.3,312.8,497.8,312.8,498.1,312.7L498.1,312.7z M516.6,318.9c-0.2,0.4-0.5,0.8-0.8,1.1c-0.4,0.4-0.7,0.8-1.2,1.1
	c-0.4,0.3-0.9,0.6-1.4,0.7c-0.5,0.2-1,0.2-1.5,0c-0.7-0.2-1.3-0.8-1.6-1.5c-0.4-0.8-0.5-1.8-0.2-2.7l-0.9,1.2
	c-0.3,0.4-0.7,0.8-1.2,1.2c-0.4,0.3-0.9,0.6-1.4,0.8c-0.5,0.2-1,0.2-1.5,0c-0.1,0-0.2-0.1-0.3-0.1l-0.2-0.2
	c-0.1-0.1-0.2-0.1-0.3-0.2c-0.1-0.1-0.3-0.1-0.4-0.2c-0.5-0.2-1-0.5-1.3-1c-0.3-0.5-0.5-1.1-0.5-1.8c-0.1-0.7,0-1.4,0.1-2.1
	c0.1-0.7,0.3-1.3,0.5-2c0.4-1.4,1-2.8,1.6-4.1c0.5-1.1,1.2-2.2,1.9-3.2c0.6-0.8,1.3-1.5,2.2-2c0.7-0.4,1.6-0.5,2.4-0.2
	c0.4,0.1,0.7,0.3,1.1,0.5c0.2,0.2,0.4,0.3,0.6,0.5l0.6,0.6c0.3,0.3,0.6,0.5,1,0.6c0.4,0.4,0.6,0.9,0.8,1.4c0.1,0.5,0.1,1,0,1.4
	c-0.1,0.5-0.2,1-0.4,1.5c-0.2,0.5-0.3,1-0.4,1.5c0,0,0,0.1,0.1,0.2l0.3,0.3c0.1,0.1,0.2,0.2,0.3,0.4c0.1,0.1,0.1,0.3,0,0.5v0.1
	c-0.4,0.5-0.7,1-1,1.5c-0.2,0.5-0.4,1-0.6,1.7c-0.1,0.4-0.2,0.7-0.3,1.1c-0.1,0.4-0.1,0.8-0.2,1.2c0,0.3,0,0.7,0.1,1
	c0.1,0.3,0.3,0.5,0.5,0.5c0.3,0.1,0.7,0,0.9-0.2c0.3-0.2,0.6-0.5,0.9-0.8c0.3-0.3,0.5-0.7,0.8-1c0.2-0.3,0.3-0.5,0.5-0.8
	c0.2-0.3,0.3-0.4,0.5-0.3c0.1,0.1,0.2,0.2,0.3,0.3c0.1,0.3,0,0.5-0.1,0.8l-0.1,0.3C516.7,318.7,516.7,318.8,516.6,318.9L516.6,318.9
	z M511.7,310.8c0.1-0.3,0.2-0.7,0.2-1c0.1-0.4,0.1-0.7,0.1-1.1c0-0.4-0.1-0.7-0.3-1c-0.2-0.3-0.5-0.5-0.9-0.6
	c-0.7-0.2-1.5-0.1-2,0.4c-0.7,0.5-1.2,1.2-1.7,1.9c-0.5,0.8-1,1.6-1.3,2.4c-0.4,0.9-0.6,1.6-0.8,2.1c-0.1,0.4-0.3,0.9-0.4,1.4
	c-0.1,0.5-0.2,1.1-0.3,1.6c-0.1,0.5-0.1,0.9,0,1.4c0,0.3,0.2,0.6,0.5,0.7c0.6,0.2,1.4,0.1,1.9-0.3c0.6-0.5,1.1-1.1,1.5-1.8
	c0.5-0.8,0.9-1.6,1.2-2.5c0.4-0.9,0.7-1.8,1.1-2.5c0.2-0.4,0.4-0.6,0.6-0.7s0.3-0.1,0.3-0.1L511.7,310.8L511.7,310.8z M531.1,321
	l0.2-0.6c0.1-0.3,0.2-0.6,0.2-0.8c0-0.3-0.1-0.5-0.3-0.5c-0.2-0.1-0.4-0.1-0.5,0.1c-0.1,0.1-0.2,0.3-0.3,0.5
	c-0.5,1.3-1.2,2.5-2.1,3.6c-0.4,0.6-1.2,0.9-2,0.7c-0.3-0.1-0.5-0.3-0.6-0.7c-0.1-0.4-0.1-0.8,0-1.2c0.1-0.6,0.2-1.1,0.4-1.7
	c0.2-0.6,0.4-1.3,0.6-2l1.2-3.7c0.5-1.7,1.1-3.2,1.6-4.7c0.5-1.5,1-2.8,1.5-3.9s0.8-2,1.1-2.7s0.5-1.1,0.5-1.2
	c0.1-0.3,0-0.6-0.2-0.8c-0.4-0.2-0.8-0.4-1.3-0.5c-0.3-0.1-0.7-0.2-1.1-0.3c-0.4-0.1-0.9-0.1-1.3-0.1c0.1,0.2,0.1,0.4,0.1,0.6
	c0,0.3,0,0.6,0,0.8c-0.1,0.4-0.1,0.8-0.2,1.2c-0.1,0.5-0.3,1-0.5,1.6l-0.4,1.2c-0.2,0.5-0.4,1.1-0.6,1.7s-0.4,1.2-0.6,1.9
	s-0.4,1.2-0.6,1.6l-1-0.8c-0.5-0.4-1-0.7-1.6-0.8c-0.5-0.2-1.1-0.1-1.6,0.1c-0.6,0.3-1.1,0.6-1.6,1.1c-0.5,0.5-1,1.1-1.5,1.7
	c-0.5,0.6-0.9,1.2-1.2,1.8c-0.3,0.5-0.6,1-0.9,1.6c-0.2,0.3-0.3,0.6-0.4,0.9l-0.2,0.6c-0.1,0.3-0.2,0.6-0.3,1.1
	c-0.1,0.5-0.2,1-0.2,1.6c0,0.6,0.1,1.2,0.2,1.7c0.2,0.6,0.5,1.2,0.9,1.6c0.3,0.3,0.7,0.6,1,0.9c0.3,0.2,0.6,0.4,1,0.5
	c0.5,0.2,1,0.2,1.4,0c0.4-0.2,0.8-0.4,1.2-0.7c0.4-0.3,0.7-0.7,0.9-1.1c0.3-0.4,0.5-0.8,0.8-1.2l0.1-0.2c-0.1,0.9,0.1,1.8,0.5,2.6
	c0.5,0.7,1.2,1.3,2,1.5c0.7,0.2,1.4,0.2,2,0c0.6-0.3,1.2-0.7,1.7-1.1c0.5-0.5,0.9-1.1,1.3-1.7C530.7,322.1,531,321.5,531.1,321
	L531.1,321z M525.1,313.2l-0.5,1.3c-0.2,0.4-0.4,0.9-0.6,1.5s-0.6,1.3-1,1.9s-0.8,1.4-1.2,2c-0.4,0.6-0.8,1.2-1.2,1.8
	c-0.3,0.4-0.7,0.9-1.2,1.2c-0.3,0.3-0.7,0.4-1,0.3c-0.3-0.1-0.5-0.3-0.6-0.6c-0.1-0.3-0.1-0.7-0.1-1c0-0.4,0.1-0.8,0.2-1.2
	c0.1-0.4,0.2-0.7,0.3-1c0.3-0.9,0.6-1.8,1-2.6c0.4-0.9,0.9-1.8,1.5-2.6c0.5-0.7,1-1.4,1.7-1.9c0.4-0.4,1-0.6,1.6-0.5
	c0.2,0.1,0.3,0.1,0.4,0.2c0.1,0.1,0.3,0.3,0.4,0.4c0.1,0.1,0.2,0.3,0.3,0.4C525,313,525.1,313.1,525.1,313.2L525.1,313.2z
	 M535.7,328.2c-0.1,0.3-0.3,0.5-0.6,0.7c-0.3,0.2-0.7,0.3-1,0.3c-0.4,0.1-0.7,0.1-1.1,0.1c-0.3,0-0.6-0.1-0.9-0.1
	c-0.5-0.2-0.9-0.3-1.3-0.6c-0.4-0.2-0.8-0.5-1.1-0.9c-0.3-0.6-0.5-1.2-0.5-1.8c0-0.9,0-1.8,0.2-2.7c0.2-1.1,0.4-2.2,0.8-3.3
	c0.3-1.2,0.7-2.4,1.1-3.7c0.2-0.5,0.4-1.1,0.6-1.8s0.5-1.3,0.8-2s0.6-1.4,0.9-2.1s0.6-1.4,0.9-2c0.2-0.4,0.5-0.9,0.7-1.4
	s0.5-1,0.8-1.4c0.2-0.4,0.5-0.8,0.8-1.2c0.2-0.3,0.5-0.5,0.7-0.7c0.3-0.1,0.6-0.2,0.9-0.1c0.3,0,0.6,0.1,0.9,0.2
	c0.5,0.1,0.9,0.4,1.2,0.9c0.3,0.4,0.4,0.9,0.4,1.4c0,0.6,0,1.2-0.2,1.8c-0.1,0.7-0.3,1.4-0.6,2.1c-0.4,1.1-0.8,2.3-1.3,3.6
	c-0.5,1.3-1.1,2.6-1.7,3.8c-0.6,1.2-1.4,2.4-2.2,3.5c-0.8,1.1-1.7,2-2.8,2.9c-0.1,0.4-0.2,0.8-0.2,1.2c-0.1,0.4-0.1,0.9-0.1,1.4
	c0,0.4,0,0.8,0.2,1.1c0.1,0.3,0.3,0.6,0.6,0.6c0.2,0.1,0.5,0.1,0.8,0c0.2-0.1,0.4-0.2,0.6-0.3c0.2-0.1,0.4-0.2,0.5-0.3
	c0.2-0.1,0.4-0.1,0.6,0c0.2,0.1,0.4,0.2,0.4,0.4C535.7,327.8,535.7,328,535.7,328.2L535.7,328.2z M538.4,310.1
	c0.1-0.2,0.2-0.5,0.3-0.9c0.1-0.3,0.2-0.7,0.2-1c0-0.3,0-0.6,0-0.9c0-0.3-0.1-0.4-0.3-0.5s-0.5,0.2-0.9,0.8
	c-0.5,0.8-0.9,1.7-1.2,2.6c-0.4,1.1-0.9,2.3-1.4,3.7s-1,2.8-1.4,4.2l-0.4,1.3c-0.1,0.4-0.2,0.8-0.3,1.2c1.3-1.5,2.5-3.3,3.3-5.1
	C537.1,313.8,537.8,312,538.4,310.1L538.4,310.1z M546.4,332.5c0.1-0.3,0-0.6-0.2-0.7c-0.2-0.2-0.5-0.3-0.7-0.4l3.5-10.8
	c0.1,0,0.3-0.1,0.3-0.2c0.1-0.2,0-0.4-0.2-0.5c-0.2-0.2-0.4-0.4-0.6-0.5c-0.3-0.2-0.5-0.3-0.8-0.4c-0.3-0.1-0.6-0.2-0.8-0.3
	c-0.6,1.3-1.3,2.6-2,3.9s-1.3,2.4-2,3.4c-0.5,0.8-1.1,1.6-1.8,2.3c-0.6,0.5-1.1,0.8-1.5,0.6s-0.6-0.6-0.5-1.4c0.2-1.4,0.6-2.7,1-4
	c0.4-1.2,0.8-2.2,1.1-3.1s0.6-1.5,0.9-2c0.2-0.4,0.4-0.8,0.7-1.1c0.2-0.2,0.4-0.3,0.6-0.4l0.2-0.1c0.1,0,0.1-0.1,0.1-0.1
	c0.1-0.3,0-0.6-0.2-0.8c-0.2-0.3-0.4-0.5-0.7-0.7c-0.3-0.2-0.5-0.4-0.8-0.5c-0.3-0.1-0.5-0.2-0.6-0.3c-0.3-0.1-0.7,0.1-1,0.6
	c-0.4,0.6-0.8,1.3-1.1,2c-0.4,0.9-0.8,1.8-1.1,2.8s-0.7,2-1,3c-0.1,0.2-0.2,0.6-0.3,1.2c-0.2,0.6-0.3,1.1-0.4,1.7
	c-0.1,0.6-0.2,1.2-0.2,1.8c0,0.5,0.1,1,0.3,1.4c0.3,0.5,0.6,0.9,1,1.3c0.3,0.4,0.7,0.7,1.2,0.9c0.5,0.1,1,0.1,1.4-0.2
	c0.5-0.3,0.9-0.7,1.3-1.1c0.4-0.5,0.8-1,1.2-1.5c0.4-0.6,0.7-1,1-1.5l-1.5,4.7c-1.1,0.3-2.1,0.8-3,1.4c-1,0.6-1.9,1.3-2.7,2.1
	c-0.8,0.8-1.5,1.7-2.2,2.7c-0.6,0.9-1.1,1.9-1.4,2.9c-0.3,0.7-0.3,1.5,0,2.3c0.5,0.7,1.2,1.3,2,1.7l0.4,0.3c0.1,0.1,0.2,0.1,0.2,0.2
	l0.2,0.1c0.1,0,0.2,0.1,0.3,0.1c0.3,0.1,0.7,0.1,1-0.1c0.3-0.2,0.7-0.4,1.1-0.5l0.3-0.1l0.5-0.2l0.5-0.2l0.3-0.1
	c0.5-0.2,0.9-0.5,1.2-0.9c0.4-0.4,0.7-0.9,0.9-1.4c0.3-0.5,0.5-1,0.7-1.6c0.2-0.5,0.4-1,0.5-1.5l1.8-5.8c0.1,0,0.2,0,0.3,0l0.4,0.1
	c0.1,0,0.2,0,0.4,0c0.1-0.1,0.2-0.2,0.3-0.4L546.4,332.5z M541.8,333l-1.3,4.1l0,0.1c-0.1,0.4-0.3,0.9-0.6,1.7
	c-0.3,0.8-0.7,1.5-1,2.2c-0.4,0.7-0.8,1.3-1.3,1.8c-0.4,0.4-1,0.6-1.5,0.5c-0.3-0.1-0.6-0.3-0.7-0.6c-0.1-0.3-0.2-0.6-0.2-0.8
	c0-0.3,0-0.6,0.1-0.9c0.1-0.3,0.1-0.5,0.2-0.6c0.2-0.7,0.6-1.4,0.9-2c0.4-0.8,1-1.5,1.5-2.2c0.6-0.7,1.2-1.4,1.9-1.9
	C540.3,333.8,541,333.3,541.8,333L541.8,333z"/>
<line class="st1" x1="236.1" y1="348" x2="236.1" y2="234.2"/>
</svg>
