<svg xmlns="http://www.w3.org/2000/svg" viewBox="0 0 503.83 459.7"><defs><style>.a,.c,.e,.f,.g{fill:none;stroke-miterlimit:10;stroke-width:2px;}.a,.c{stroke:#1fbad6;}.a{fill-rule:evenodd;}.b{fill:#666;}.d{fill:#ffe161;}.e,.f,.g{stroke:#ffe161;}.f{stroke-dasharray:5.97 5.97;}.g{stroke-dasharray:6.04 6.04;}</style></defs><title>art-1</title><path class="a" d="M160.64,416H145.35s-6.64-23.8-19.91-31.76-22.89-9.62-29.53-9.62H93.69c-6.63,0-16.25,1.66-29.52,9.62S44.26,416,44.26,416H14s35.58-45.36,38.23-49.68,2-17.91,2-17.91h6.64s12.27-31.19,13.93-38.82c-1-9-2.32-9.95-.66-11.61s5-1.66,5-1.66,8-40.81,9.29-75.31,1.33-44.46,1.33-44.46-2.65-12.6-2-16.59,1.33-8,6.3-8.95c.34-3,1-20.24,1-20.24s.23,17.25.56,20.24c5,1,5.64,5,6.3,8.95s-2,16.59-2,16.59,0,10,1.33,44.46,9.29,75.31,9.29,75.31,3.32,0,5,1.66.33,2.65-.67,11.61c1.66,7.63,13.94,38.82,13.94,38.82l6.38.23s-.41,13.37,2.24,17.68S175.61,416,175.61,416"/><polygon class="a" points="94.92 323.49 100.89 323.49 105.2 348.37 94.92 348.37 94.69 348.37 84.4 348.37 88.72 323.49 94.69 323.49 94.92 323.49"/><path class="b" d="M78,177.21a1.81,1.81,0,1,1-1.8-1.8A1.8,1.8,0,0,1,78,177.21Z"/><path class="b" d="M116.76,177.21a1.81,1.81,0,1,1-1.81-1.8A1.81,1.81,0,0,1,116.76,177.21Z"/><path class="b" d="M310.37,177.21a1.81,1.81,0,1,1-1.8-1.8A1.81,1.81,0,0,1,310.37,177.21Z"/><path class="b" d="M397.29,177.21a1.81,1.81,0,1,1-1.8-1.8A1.81,1.81,0,0,1,397.29,177.21Z"/><path class="b" d="M397.29,215.31a1.81,1.81,0,1,1-1.8-1.8A1.81,1.81,0,0,1,397.29,215.31Z"/><path class="b" d="M78,100.35a1.81,1.81,0,1,1-1.8-1.81A1.8,1.8,0,0,1,78,100.35Z"/><path class="b" d="M116.76,100.35A1.81,1.81,0,1,1,115,98.54,1.81,1.81,0,0,1,116.76,100.35Z"/><path class="b" d="M155.48,100.35a1.81,1.81,0,1,1-1.81-1.81A1.81,1.81,0,0,1,155.48,100.35Z"/><path class="b" d="M194.2,100.35a1.81,1.81,0,1,1-1.8-1.81A1.81,1.81,0,0,1,194.2,100.35Z"/><path class="b" d="M271.65,100.35a1.81,1.81,0,1,1-1.81-1.81A1.81,1.81,0,0,1,271.65,100.35Z"/><path class="b" d="M310.37,100.35a1.81,1.81,0,1,1-1.8-1.81A1.81,1.81,0,0,1,310.37,100.35Z"/><path class="b" d="M39.31,177.21a1.81,1.81,0,1,1-1.8-1.8A1.81,1.81,0,0,1,39.31,177.21Z"/><path class="b" d="M39.31,214.9a1.81,1.81,0,1,1-1.8-1.8A1.81,1.81,0,0,1,39.31,214.9Z"/><path class="b" d="M78,214.9a1.81,1.81,0,1,1-1.8-1.8A1.81,1.81,0,0,1,78,214.9Z"/><path class="b" d="M78,138a1.81,1.81,0,1,1-1.8-1.8A1.8,1.8,0,0,1,78,138Z"/><path class="b" d="M39.31,255a1.81,1.81,0,1,1-1.8-1.8A1.81,1.81,0,0,1,39.31,255Z"/><path class="b" d="M39.31,294.24a1.81,1.81,0,1,1-1.8-1.81A1.81,1.81,0,0,1,39.31,294.24Z"/><path class="b" d="M39.31,335.09a1.81,1.81,0,1,1-1.8-1.8A1.81,1.81,0,0,1,39.31,335.09Z"/><path class="b" d="M78,255a1.81,1.81,0,1,1-1.8-1.8A1.8,1.8,0,0,1,78,255Z"/><path class="b" d="M194.2,138a1.81,1.81,0,1,1-1.8-1.8A1.81,1.81,0,0,1,194.2,138Z"/><path class="b" d="M155.48,138a1.81,1.81,0,1,1-1.81-1.8A1.81,1.81,0,0,1,155.48,138Z"/><path class="b" d="M232.93,138a1.81,1.81,0,1,1-1.81-1.8A1.81,1.81,0,0,1,232.93,138Z"/><path class="b" d="M271.65,138a1.81,1.81,0,1,1-1.81-1.8A1.81,1.81,0,0,1,271.65,138Z"/><path class="b" d="M232.93,177.21a1.81,1.81,0,1,1-1.81-1.8A1.81,1.81,0,0,1,232.93,177.21Z"/><path class="b" d="M271.65,177.21a1.81,1.81,0,1,1-1.81-1.8A1.81,1.81,0,0,1,271.65,177.21Z"/><path class="b" d="M310.37,215.31a1.81,1.81,0,1,1-1.8-1.8A1.81,1.81,0,0,1,310.37,215.31Z"/><path class="b" d="M310.37,254a1.81,1.81,0,1,1-1.8-1.81A1.81,1.81,0,0,1,310.37,254Z"/><path class="b" d="M356.26,215.31a1.81,1.81,0,1,1-1.8-1.8A1.81,1.81,0,0,1,356.26,215.31Z"/><path class="b" d="M356.26,100.35a1.81,1.81,0,1,1-1.8-1.81A1.81,1.81,0,0,1,356.26,100.35Z"/><path class="b" d="M397.29,100.35a1.81,1.81,0,1,1-1.8-1.81A1.81,1.81,0,0,1,397.29,100.35Z"/><path class="b" d="M436,215.31a1.8,1.8,0,1,1-1.8-1.8A1.8,1.8,0,0,1,436,215.31Z"/><path class="b" d="M474.74,215.31a1.81,1.81,0,1,1-1.81-1.8A1.81,1.81,0,0,1,474.74,215.31Z"/><path class="b" d="M397.29,138a1.81,1.81,0,1,1-1.8-1.8A1.81,1.81,0,0,1,397.29,138Z"/><path class="b" d="M436,254a1.8,1.8,0,1,1-1.8-1.81A1.8,1.8,0,0,1,436,254Z"/><path class="b" d="M474.74,254a1.81,1.81,0,1,1-1.81-1.81A1.81,1.81,0,0,1,474.74,254Z"/><path class="b" d="M155.48,23.48a1.81,1.81,0,1,1-1.81-1.8A1.8,1.8,0,0,1,155.48,23.48Z"/><path class="b" d="M194.2,23.48a1.81,1.81,0,1,1-1.8-1.8A1.8,1.8,0,0,1,194.2,23.48Z"/><path class="b" d="M271.65,23.48a1.81,1.81,0,1,1-1.81-1.8A1.8,1.8,0,0,1,271.65,23.48Z"/><path class="b" d="M78,61.13a1.81,1.81,0,1,1-1.8-1.8A1.8,1.8,0,0,1,78,61.13Z"/><path class="b" d="M155.48,61.13a1.81,1.81,0,1,1-1.81-1.8A1.81,1.81,0,0,1,155.48,61.13Z"/><path class="b" d="M194.2,61.13a1.81,1.81,0,1,1-1.8-1.8A1.81,1.81,0,0,1,194.2,61.13Z"/><path class="b" d="M232.93,61.13a1.81,1.81,0,1,1-1.81-1.8A1.81,1.81,0,0,1,232.93,61.13Z"/><path class="b" d="M271.65,61.13a1.81,1.81,0,1,1-1.81-1.8A1.81,1.81,0,0,1,271.65,61.13Z"/><path class="b" d="M310.37,61.13a1.81,1.81,0,1,1-1.8-1.8A1.81,1.81,0,0,1,310.37,61.13Z"/><path class="b" d="M356.26,61.13a1.81,1.81,0,1,1-1.8-1.8A1.81,1.81,0,0,1,356.26,61.13Z"/><path class="b" d="M436,177.21a1.8,1.8,0,1,1-1.8-1.8A1.8,1.8,0,0,1,436,177.21Z"/><path class="a" d="M278,275.73a43.85,43.85,0,0,1,6.86-.55,27.21,27.21,0,0,1,6,.55"/><path class="a" d="M124.58,338.84s23-.59,43.65,9.73c13.87-4.72,28-8.85,39.52-9.14-2.94-12.39-9.14-33.92-9.14-33.92s36.57-10.91,73.14,10"/><line class="c" x1="207.75" y1="339.43" x2="218.3" y2="371.2"/><path class="a" d="M269.4,370.54l-20.35-51.76s27.72-8.26,55.15,2.36,52.72,32.74,73.36,54.27"/><path class="a" d="M286.8,316.13s25.66-55.16,90.84-66.66a168.6,168.6,0,0,1-2.07,20.35"/><path class="a" d="M381.76,375.85s.43-7.92,8.56-52.94c6.44-35.7,12.81-49.43,23.3-69.31C354.93,264.81,324,330,324,330"/><path class="a" d="M393.86,304.92s28.61-15,52.2-18.58c-7.37,16.81-13,34.06-19.17,78"/><path class="a" d="M435.44,316.13s35.1-10,57.51-6.49c-11.79,16.51-27.13,41.58-29.19,46.6"/><path class="a" d="M146.7,378.06s4-.48,10.56-1.21c16.66-1.86,50.14-5.38,79.1-7.05,25.66-1.47,57.22,3.54,76.69,2.66s68.71,3.24,68.71,3.24,18.59-8.85,23.3-10,19.76-.59,19.76-.59,16.82-5.6,28.91-8.55,31.85,4.72,40.7,8c-29.2,15.64-60.17,31.56-60.17,31.56H180"/><path class="a" d="M280,302.4a43.85,43.85,0,0,1,6.86-.55,27.21,27.21,0,0,1,6,.55"/><path class="a" d="M103.48,250.38l11.5-2.65V234.16a1.76,1.76,0,0,1,1.73-1.32,1.4,1.4,0,0,1,1.44,1.43V247.1H147V222.55l-1.11-2.21V204.41c0-5.09,8.08-22.56,21.9-27.87,1.22-3.32,4.76-4.64,6.08-5a79.19,79.19,0,0,0,7.19-6.08s-.11-2.87,2.33-3.1c-.23-.77-.89-1.37-.89-2.21a3.15,3.15,0,0,1,.89-1.88,2.87,2.87,0,0,1-1.22-2.32,3.59,3.59,0,0,1,1.44-2.65L185.17,142l1.68,11.32a3.6,3.6,0,0,1,1.43,2.65,2.88,2.88,0,0,1-1.21,2.32,3.16,3.16,0,0,1,.88,1.88c0,.84-.66,1.44-.88,2.21,2.43.23,2.32,3.1,2.32,3.1a79.19,79.19,0,0,0,7.19,6.08c1.33.34,4.86,1.66,6.08,5,13.83,5.31,21.9,22.78,21.9,27.87v15.93l-1.11,2.21V247.1h28.87V234.27a1.4,1.4,0,0,1,1.44-1.43,1.74,1.74,0,0,1,1.73,1.32v13.57l16.25,3.54v-13c0-1.25.59-1.69,1.62-1.69a1.59,1.59,0,0,1,1.55,1.69v77.16"/><line class="c" x1="116.71" y1="232.84" x2="116.71" y2="225.49"/><line class="c" x1="253.83" y1="232.84" x2="253.83" y2="225.49"/><line class="c" x1="273.3" y1="236.49" x2="273.3" y2="229.14"/><line class="c" x1="286.46" y1="238.92" x2="286.46" y2="231.57"/><line class="c" x1="183.41" y1="162.38" x2="187.07" y2="162.38"/><line class="c" x1="183.41" y1="158.29" x2="187.07" y2="158.29"/><path class="a" d="M181.08,165.48a36.83,36.83,0,0,1,4.09-.22,40.73,40.73,0,0,1,4.22.22"/><path class="a" d="M145.91,220.34s14.6-8.3,40.59-8.08,37.94,7.3,37.94,7.3"/><path class="a" d="M147.13,223s13.38-7.63,39.37-7.41,36.94,6.64,36.94,6.64"/><path class="a" d="M291.35,308l-.6-53.53s2-1.77-.22-2.65c-.22-2.1.88-12.94-4.32-13.05h.38c-5.19.11-4.09,10.95-4.31,13.05-2.21.88-.22,2.65-.22,2.65l-.66,61.28"/><path class="a" d="M280.73,245.33a39.34,39.34,0,0,1,5.86-.55,32.42,32.42,0,0,1,5.53.55"/><path class="a" d="M205.16,303.91V276c0-4.87-3.54-11.28-9.52-13.94a53.76,53.76,0,0,1-10.83-6.63A45.65,45.65,0,0,1,174.34,262c-6,2.66-9.52,9.07-9.52,13.94v40.26h36.72"/><circle class="d" cx="94.96" cy="159.91" r="3.95"/><circle class="d" cx="184.38" cy="270.51" r="3.95"/><circle class="d" cx="34.2" cy="406.27" r="4.04"/><circle class="d" cx="386.13" cy="276.63" r="3.95"/><path class="e" d="M94.78,159.66s.78-.7,2.28-1.94"/><path class="f" d="M101.74,154C126,135.46,210,79.91,298.73,123.75c84.81,41.89,88.57,123.58,87.9,146.27"/><path class="e" d="M386.5,273c-.11,1.94-.23,3-.23,3"/><path class="e" d="M34.56,406.7s.94.06,3,.15"/><path class="g" d="M43.58,407.08c11.07.36,33.2.86,71.18.86,72.08,0,71.2-105.14,69.83-131.63"/><path class="e" d="M184.42,273.29c-.13-1.93-.23-3-.23-3"/></svg>