<svg xmlns="http://www.w3.org/2000/svg" xmlns:xlink="http://www.w3.org/1999/xlink" viewBox="0 0 810.86 575.06"><defs><style>.a,.b,.c,.d{fill:none;}.b{stroke:#ffe161;}.b,.c,.d{stroke-miterlimit:10;stroke-width:2px;}.b,.c{fill-rule:evenodd;}.c,.d{stroke:#1eb9d5;}.e{clip-path:url(#a);}</style><clipPath id="a"><rect class="a" x="186.2" y="146.29" width="47.12" height="76.91"/></clipPath></defs><title>homepic2</title><path class="b" d="M234.08,177a12.24,12.24,0,1,1,.1-22.3"/><polyline class="b" points="506.58 176.25 509.91 182.03 486.54 222.5 439.8 222.5 416.44 182.03 439.8 141.55 486.54 141.55 500.2 165.22"/><path class="b" d="M458.64,170.65a12.41,12.41,0,0,1,4.53-.86,12.24,12.24,0,1,1-11.1,7.08"/><path class="c" d="M495.5,304a12.25,12.25,0,1,1-13.49,2.6,12.09,12.09,0,0,1,4.45-2.85"/><polyline class="b" points="528.64 254.33 522.2 252.61 510.11 207.46 543.15 174.41 588.3 186.51 600.39 231.66 567.34 264.7 540.95 257.63"/><path class="b" d="M566.5,224.4a12.25,12.25,0,1,1,.25-9.05"/><polyline class="b" points="589.61 112.09 591.27 105.63 636.28 93.04 669.69 125.72 658.09 171 613.08 183.58 579.67 150.9 586.46 124.44"/><path class="b" d="M620,149.61a12.08,12.08,0,0,1-3.85-2.55A12.21,12.21,0,1,1,629,149.77"/><polyline class="b" points="700.52 256.56 699.9 263.2 657.45 282.75 619.29 255.75 623.6 209.21 666.05 189.67 704.2 216.67 701.69 243.87"/><path class="b" d="M664.62,224.31a12.24,12.24,0,1,1-12.86,4.83,12,12,0,0,1,3.91-3.56"/><path class="d" d="M269.2,202.62V97.77a26.94,26.94,0,0,1,26.94-26.94H690.89a26.94,26.94,0,0,1,26.94,26.94v218a26.94,26.94,0,0,1-26.94,26.94H374.06"/><line class="d" x1="525.83" y1="342.66" x2="525.83" y2="400.33"/><line class="d" x1="451.06" y1="352.64" x2="451.06" y2="400.33"/><line class="d" x1="330.03" y1="401.59" x2="647.49" y2="401.59"/><line class="d" x1="374.43" y1="291.33" x2="717.2" y2="291.33"/><line class="d" x1="233.86" y1="202.93" x2="318.04" y2="202.93"/><path class="d" d="M341.11,202.93h20A13.09,13.09,0,0,1,374.22,216V366.33a13.09,13.09,0,0,1-13.09,13.09H121.86a13.09,13.09,0,0,1-13.09-13.09V216a13.09,13.09,0,0,1,13.09-13.08H180.5"/><path class="d" d="M180.5,211.53H129a13.74,13.74,0,0,0-13.75,13.75V357.06A13.74,13.74,0,0,0,129,370.82H251.63"/><path class="d" d="M271,370.82h81.62a13.75,13.75,0,0,0,13.76-13.76V225.28a13.75,13.75,0,0,0-13.76-13.75H233.86"/><path class="d" d="M238.65,229.5v8.78a5.74,5.74,0,0,1-5.74,5.74H186.53a5.73,5.73,0,0,1-5.74-5.74v-105a5.73,5.73,0,0,1,5.74-5.74h46.38a5.74,5.74,0,0,1,5.74,5.74v70.62"/><polyline class="d" points="185.17 152.52 185.17 145.24 234.26 145.24 234.26 225.11 185.17 225.11 185.17 173.53"/><circle class="d" cx="209.72" cy="234.07" r="4.76"/><polyline class="b" points="211.23 329.87 209.5 336.31 164.36 348.4 131.31 315.35 143.41 270.21 188.55 258.11 221.6 291.16 214.53 317.55"/><g class="e"><polyline class="b" points="266.4 167 269.6 172.56 247.13 211.49 202.18 211.49 179.7 171.56 202.18 132.63 247.13 133.63 260.26 156.39"/></g><path class="b" d="M181.29,292a12.24,12.24,0,1,1-9-.25"/></svg>