<?xml version="1.0" encoding="utf-8"?>
<!-- Generator: Adobe Illustrator 23.0.4, SVG Export Plug-In . SVG Version: 6.00 Build 0)  -->
<svg version="1.1" id="Layer_1" xmlns="http://www.w3.org/2000/svg" xmlns:xlink="http://www.w3.org/1999/xlink" x="0px" y="0px"
	 viewBox="0 0 1600 439.4" style="enable-background:new 0 0 1600 439.4;" xml:space="preserve">
<style type="text/css">
	.st0{fill:#666666;}
	.st1{fill:#FFE161;}
	.st2{fill-rule:evenodd;clip-rule:evenodd;fill:none;stroke:#1FBAD6;stroke-width:2;stroke-miterlimit:10;}
	.st3{fill:#FF6346;}
	.st4{fill:none;stroke:#FFE161;stroke-width:2;stroke-miterlimit:10;}
	.st5{fill:none;stroke:#FFE161;stroke-width:2;stroke-miterlimit:10;stroke-dasharray:5.9572,5.9572;}
	.st6{fill:none;stroke:#FF6346;stroke-width:2;stroke-miterlimit:10;}
	.st7{fill:none;stroke:#FF6346;stroke-width:2;stroke-miterlimit:10;stroke-dasharray:5.976,5.976;}
	.st8{fill:none;stroke:#FF6346;stroke-width:2;stroke-miterlimit:10;stroke-dasharray:5.9845,5.9845;}
	.st9{fill:none;stroke:#FFE161;stroke-width:2;stroke-miterlimit:10;stroke-dasharray:5.9112,5.9112;}
</style>
<title>art-1</title>
<path class="st0" d="M81.2,175.4c0,1-0.8,1.8-1.8,1.8c-1,0-1.8-0.8-1.8-1.8c0-1,0.8-1.8,1.8-1.8C80.4,173.6,81.2,174.4,81.2,175.4z"
	/>
<path class="st0" d="M119.9,175.4c0,1-0.8,1.8-1.8,1.8c-1,0-1.8-0.8-1.8-1.8c0-1,0.8-1.8,1.8-1.8
	C119.1,173.6,119.9,174.4,119.9,175.4z"/>
<path class="st0" d="M158.7,175.4c0,1-0.8,1.8-1.8,1.8c-1,0-1.8-0.8-1.8-1.8c0-1,0.8-1.8,1.8-1.8
	C157.9,173.6,158.7,174.4,158.7,175.4z"/>
<path class="st0" d="M197.4,175.4c0,1-0.8,1.8-1.8,1.8c-1,0-1.8-0.8-1.8-1.8c0-1,0.8-1.8,1.8-1.8
	C196.6,173.6,197.4,174.4,197.4,175.4z"/>
<path class="st0" d="M236.1,175.4c0,1-0.8,1.8-1.8,1.8c-1,0-1.8-0.8-1.8-1.8c0-1,0.8-1.8,1.8-1.8
	C235.3,173.6,236.1,174.4,236.1,175.4z"/>
<path class="st0" d="M274.8,175.4c0,1-0.8,1.8-1.8,1.8c-1,0-1.8-0.8-1.8-1.8c0-1,0.8-1.8,1.8-1.8C274,173.6,274.8,174.4,274.8,175.4
	z"/>
<path class="st0" d="M313.5,175.4c0,1-0.8,1.8-1.8,1.8c-1,0-1.8-0.8-1.8-1.8c0-1,0.8-1.8,1.8-1.8
	C312.7,173.6,313.5,174.4,313.5,175.4z"/>
<path class="st0" d="M352.3,175.4c0,1-0.8,1.8-1.8,1.8c-1,0-1.8-0.8-1.8-1.8c0-1,0.8-1.8,1.8-1.8
	C351.5,173.6,352.3,174.4,352.3,175.4z"/>
<path class="st0" d="M391,175.4c0,1-0.8,1.8-1.8,1.8c-1,0-1.8-0.8-1.8-1.8c0-1,0.8-1.8,1.8-1.8C390.2,173.6,391,174.4,391,175.4z"/>
<path class="st0" d="M429.7,175.4c0,1-0.8,1.8-1.8,1.8c-1,0-1.8-0.8-1.8-1.8c0-1,0.8-1.8,1.8-1.8
	C428.9,173.6,429.7,174.4,429.7,175.4z"/>
<path class="st0" d="M468.4,175.4c0,1-0.8,1.8-1.8,1.8c-1,0-1.8-0.8-1.8-1.8c0-1,0.8-1.8,1.8-1.8
	C467.6,173.6,468.4,174.4,468.4,175.4z"/>
<path class="st0" d="M662.1,175.4c0,1-0.8,1.8-1.8,1.8c-1,0-1.8-0.8-1.8-1.8c0-1,0.8-1.8,1.8-1.8
	C661.2,173.6,662.1,174.4,662.1,175.4z"/>
<path class="st0" d="M700.8,175.4c0,1-0.8,1.8-1.8,1.8c-1,0-1.8-0.8-1.8-1.8c0-1,0.8-1.8,1.8-1.8C700,173.6,700.8,174.4,700.8,175.4
	z"/>
<path class="st0" d="M81.2,213.1c0,1-0.8,1.8-1.8,1.8c-1,0-1.8-0.8-1.8-1.8c0-1,0.8-1.8,1.8-1.8C80.4,211.3,81.2,212.1,81.2,213.1z"
	/>
<path class="st0" d="M119.9,213.1c0,1-0.8,1.8-1.8,1.8c-1,0-1.8-0.8-1.8-1.8c0-1,0.8-1.8,1.8-1.8
	C119.1,211.3,119.9,212.1,119.9,213.1z"/>
<path class="st0" d="M158.7,213.1c0,1-0.8,1.8-1.8,1.8c-1,0-1.8-0.8-1.8-1.8c0-1,0.8-1.8,1.8-1.8
	C157.9,211.3,158.7,212.1,158.7,213.1z"/>
<path class="st0" d="M197.4,213.1c0,1-0.8,1.8-1.8,1.8c-1,0-1.8-0.8-1.8-1.8c0-1,0.8-1.8,1.8-1.8
	C196.6,211.3,197.4,212.1,197.4,213.1z"/>
<path class="st0" d="M236.1,213.1c0,1-0.8,1.8-1.8,1.8c-1,0-1.8-0.8-1.8-1.8c0-1,0.8-1.8,1.8-1.8
	C235.3,211.3,236.1,212.1,236.1,213.1z"/>
<path class="st0" d="M274.8,213.1c0,1-0.8,1.8-1.8,1.8c-1,0-1.8-0.8-1.8-1.8c0-1,0.8-1.8,1.8-1.8C274,211.3,274.8,212.1,274.8,213.1
	z"/>
<path class="st0" d="M313.5,213.1c0,1-0.8,1.8-1.8,1.8c-1,0-1.8-0.8-1.8-1.8c0-1,0.8-1.8,1.8-1.8
	C312.7,211.3,313.5,212.1,313.5,213.1z"/>
<path class="st0" d="M352.3,213.1c0,1-0.8,1.8-1.8,1.8c-1,0-1.8-0.8-1.8-1.8c0-1,0.8-1.8,1.8-1.8
	C351.5,211.3,352.3,212.1,352.3,213.1z"/>
<path class="st0" d="M391,213.1c0,1-0.8,1.8-1.8,1.8c-1,0-1.8-0.8-1.8-1.8c0-1,0.8-1.8,1.8-1.8C390.2,211.3,391,212.1,391,213.1z"/>
<path class="st0" d="M42.5,247.9c0,1-0.8,1.8-1.8,1.8c-1,0-1.8-0.8-1.8-1.8c0-1,0.8-1.8,1.8-1.8C41.7,246.1,42.5,247,42.5,247.9z"/>
<path class="st0" d="M81.2,247.9c0,1-0.8,1.8-1.8,1.8c-1,0-1.8-0.8-1.8-1.8c0-1,0.8-1.8,1.8-1.8C80.4,246.1,81.2,247,81.2,247.9z"/>
<path class="st0" d="M119.9,247.9c0,1-0.8,1.8-1.8,1.8c-1,0-1.8-0.8-1.8-1.8c0-1,0.8-1.8,1.8-1.8C119.1,246.1,119.9,247,119.9,247.9
	z"/>
<path class="st0" d="M158.7,247.9c0,1-0.8,1.8-1.8,1.8c-1,0-1.8-0.8-1.8-1.8c0-1,0.8-1.8,1.8-1.8C157.9,246.1,158.7,247,158.7,247.9
	z"/>
<path class="st0" d="M197.4,247.9c0,1-0.8,1.8-1.8,1.8c-1,0-1.8-0.8-1.8-1.8c0-1,0.8-1.8,1.8-1.8C196.6,246.1,197.4,247,197.4,247.9
	z"/>
<path class="st0" d="M236.1,247.9c0,1-0.8,1.8-1.8,1.8c-1,0-1.8-0.8-1.8-1.8c0-1,0.8-1.8,1.8-1.8C235.3,246.1,236.1,247,236.1,247.9
	z"/>
<path class="st0" d="M274.8,247.9c0,1-0.8,1.8-1.8,1.8c-1,0-1.8-0.8-1.8-1.8c0-1,0.8-1.8,1.8-1.8C274,246.1,274.8,247,274.8,247.9z"
	/>
<path class="st0" d="M313.5,247.9c0,1-0.8,1.8-1.8,1.8c-1,0-1.8-0.8-1.8-1.8c0-1,0.8-1.8,1.8-1.8C312.7,246.1,313.5,247,313.5,247.9
	z"/>
<path class="st0" d="M81.2,282.3c0,1-0.8,1.8-1.8,1.8c-1,0-1.8-0.8-1.8-1.8c0-1,0.8-1.8,1.8-1.8C80.4,280.5,81.2,281.3,81.2,282.3z"
	/>
<path class="st0" d="M119.9,282.3c0,1-0.8,1.8-1.8,1.8c-1,0-1.8-0.8-1.8-1.8c0-1,0.8-1.8,1.8-1.8
	C119.1,280.5,119.9,281.3,119.9,282.3z"/>
<path class="st0" d="M158.7,282.3c0,1-0.8,1.8-1.8,1.8c-1,0-1.8-0.8-1.8-1.8c0-1,0.8-1.8,1.8-1.8
	C157.9,280.5,158.7,281.3,158.7,282.3z"/>
<path class="st0" d="M197.4,282.3c0,1-0.8,1.8-1.8,1.8c-1,0-1.8-0.8-1.8-1.8c0-1,0.8-1.8,1.8-1.8
	C196.6,280.5,197.4,281.3,197.4,282.3z"/>
<path class="st0" d="M236.1,282.3c0,1-0.8,1.8-1.8,1.8c-1,0-1.8-0.8-1.8-1.8c0-1,0.8-1.8,1.8-1.8
	C235.3,280.5,236.1,281.3,236.1,282.3z"/>
<path class="st0" d="M274.8,282.3c0,1-0.8,1.8-1.8,1.8c-1,0-1.8-0.8-1.8-1.8c0-1,0.8-1.8,1.8-1.8C274,280.5,274.8,281.3,274.8,282.3
	z"/>
<path class="st0" d="M119.9,319.4c0,1-0.8,1.8-1.8,1.8c-1,0-1.8-0.8-1.8-1.8c0-1,0.8-1.8,1.8-1.8
	C119.1,317.6,119.9,318.4,119.9,319.4z"/>
<path class="st0" d="M158.7,319.4c0,1-0.8,1.8-1.8,1.8c-1,0-1.8-0.8-1.8-1.8c0-1,0.8-1.8,1.8-1.8
	C157.9,317.6,158.7,318.4,158.7,319.4z"/>
<path class="st0" d="M197.4,319.4c0,1-0.8,1.8-1.8,1.8c-1,0-1.8-0.8-1.8-1.8c0-1,0.8-1.8,1.8-1.8
	C196.6,317.6,197.4,318.4,197.4,319.4z"/>
<path class="st0" d="M119.9,355.2c0,1-0.8,1.8-1.8,1.8c-1,0-1.8-0.8-1.8-1.8c0-1,0.8-1.8,1.8-1.8
	C119.1,353.4,119.9,354.2,119.9,355.2z"/>
<path class="st0" d="M158.7,355.2c0,1-0.8,1.8-1.8,1.8c-1,0-1.8-0.8-1.8-1.8c0-1,0.8-1.8,1.8-1.8
	C157.9,353.4,158.7,354.2,158.7,355.2z"/>
<path class="st0" d="M197.4,355.2c0,1-0.8,1.8-1.8,1.8c-1,0-1.8-0.8-1.8-1.8c0-1,0.8-1.8,1.8-1.8
	C196.6,353.4,197.4,354.2,197.4,355.2z"/>
<path class="st0" d="M236.1,319.4c0,1-0.8,1.8-1.8,1.8c-1,0-1.8-0.8-1.8-1.8c0-1,0.8-1.8,1.8-1.8
	C235.3,317.6,236.1,318.4,236.1,319.4z"/>
<path class="st0" d="M274.8,319.4c0,1-0.8,1.8-1.8,1.8c-1,0-1.8-0.8-1.8-1.8c0-1,0.8-1.8,1.8-1.8C274,317.6,274.8,318.4,274.8,319.4
	z"/>
<path class="st0" d="M313.5,282.3c0,1-0.8,1.8-1.8,1.8c-1,0-1.8-0.8-1.8-1.8c0-1,0.8-1.8,1.8-1.8
	C312.7,280.5,313.5,281.3,313.5,282.3z"/>
<path class="st0" d="M391,247.9c0,1-0.8,1.8-1.8,1.8c-1,0-1.8-0.8-1.8-1.8c0-1,0.8-1.8,1.8-1.8C390.2,246.1,391,247,391,247.9z"/>
<path class="st0" d="M429.7,213.1c0,1-0.8,1.8-1.8,1.8c-1,0-1.8-0.8-1.8-1.8c0-1,0.8-1.8,1.8-1.8
	C428.9,211.3,429.7,212.1,429.7,213.1z"/>
<path class="st0" d="M700.8,213.1c0,1-0.8,1.8-1.8,1.8c-1,0-1.8-0.8-1.8-1.8c0-1,0.8-1.8,1.8-1.8C700,211.3,700.8,212.1,700.8,213.1
	z"/>
<path class="st0" d="M981.3,175.4c0,1-0.8,1.8-1.8,1.8c-1,0-1.8-0.8-1.8-1.8c0-1,0.8-1.8,1.8-1.8
	C980.5,173.6,981.3,174.4,981.3,175.4z"/>
<path class="st0" d="M1097.5,175.4c0,1-0.8,1.8-1.8,1.8c-1,0-1.8-0.8-1.8-1.8c0-1,0.8-1.8,1.8-1.8
	C1096.7,173.6,1097.5,174.4,1097.5,175.4z"/>
<path class="st0" d="M1136.2,175.4c0,1-0.8,1.8-1.8,1.8c-1,0-1.8-0.8-1.8-1.8c0-1,0.8-1.8,1.8-1.8
	C1135.4,173.6,1136.2,174.4,1136.2,175.4z"/>
<path class="st0" d="M1174.9,175.4c0,1-0.8,1.8-1.8,1.8s-1.8-0.8-1.8-1.8c0-1,0.8-1.8,1.8-1.8S1174.9,174.4,1174.9,175.4z"/>
<path class="st0" d="M1213.6,175.4c0,1-0.8,1.8-1.8,1.8s-1.8-0.8-1.8-1.8c0-1,0.8-1.8,1.8-1.8S1213.6,174.4,1213.6,175.4z"/>
<path class="st0" d="M1252.4,175.4c0,1-0.8,1.8-1.8,1.8c-1,0-1.8-0.8-1.8-1.8c0-1,0.8-1.8,1.8-1.8
	C1251.6,173.6,1252.4,174.4,1252.4,175.4z"/>
<path class="st0" d="M1291.1,175.4c0,1-0.8,1.8-1.8,1.8c-1,0-1.8-0.8-1.8-1.8c0-1,0.8-1.8,1.8-1.8
	C1290.3,173.6,1291.1,174.4,1291.1,175.4z"/>
<path class="st0" d="M1329.8,175.4c0,1-0.8,1.8-1.8,1.8c-1,0-1.8-0.8-1.8-1.8c0-1,0.8-1.8,1.8-1.8
	C1329,173.6,1329.8,174.4,1329.8,175.4z"/>
<path class="st0" d="M1368.5,175.4c0,1-0.8,1.8-1.8,1.8c-1,0-1.8-0.8-1.8-1.8c0-1,0.8-1.8,1.8-1.8
	C1367.7,173.6,1368.5,174.4,1368.5,175.4z"/>
<path class="st0" d="M1407.3,175.4c0,1-0.8,1.8-1.8,1.8s-1.8-0.8-1.8-1.8c0-1,0.8-1.8,1.8-1.8S1407.3,174.4,1407.3,175.4z"/>
<path class="st0" d="M1446,175.4c0,1-0.8,1.8-1.8,1.8c-1,0-1.8-0.8-1.8-1.8c0-1,0.8-1.8,1.8-1.8C1445.2,173.6,1446,174.4,1446,175.4
	z"/>
<path class="st0" d="M1484.7,175.4c0,1-0.8,1.8-1.8,1.8c-1,0-1.8-0.8-1.8-1.8c0-1,0.8-1.8,1.8-1.8
	C1483.9,173.6,1484.7,174.4,1484.7,175.4z"/>
<path class="st0" d="M1523.4,175.4c0,1-0.8,1.8-1.8,1.8s-1.8-0.8-1.8-1.8c0-1,0.8-1.8,1.8-1.8S1523.4,174.4,1523.4,175.4z"/>
<path class="st0" d="M981.3,213.1c0,1-0.8,1.8-1.8,1.8c-1,0-1.8-0.8-1.8-1.8c0-1,0.8-1.8,1.8-1.8
	C980.5,211.3,981.3,212.1,981.3,213.1z"/>
<path class="st0" d="M1174.9,213.1c0,1-0.8,1.8-1.8,1.8s-1.8-0.8-1.8-1.8c0-1,0.8-1.8,1.8-1.8S1174.9,212.1,1174.9,213.1z"/>
<path class="st0" d="M1213.6,213.1c0,1-0.8,1.8-1.8,1.8s-1.8-0.8-1.8-1.8c0-1,0.8-1.8,1.8-1.8S1213.6,212.1,1213.6,213.1z"/>
<path class="st0" d="M1252.4,213.1c0,1-0.8,1.8-1.8,1.8c-1,0-1.8-0.8-1.8-1.8c0-1,0.8-1.8,1.8-1.8
	C1251.6,211.3,1252.4,212.1,1252.4,213.1z"/>
<path class="st0" d="M1291.1,213.1c0,1-0.8,1.8-1.8,1.8c-1,0-1.8-0.8-1.8-1.8c0-1,0.8-1.8,1.8-1.8
	C1290.3,211.3,1291.1,212.1,1291.1,213.1z"/>
<path class="st0" d="M1329.8,213.1c0,1-0.8,1.8-1.8,1.8c-1,0-1.8-0.8-1.8-1.8c0-1,0.8-1.8,1.8-1.8
	C1329,211.3,1329.8,212.1,1329.8,213.1z"/>
<path class="st0" d="M1368.5,213.1c0,1-0.8,1.8-1.8,1.8c-1,0-1.8-0.8-1.8-1.8c0-1,0.8-1.8,1.8-1.8
	C1367.7,211.3,1368.5,212.1,1368.5,213.1z"/>
<path class="st0" d="M1407.3,213.1c0,1-0.8,1.8-1.8,1.8s-1.8-0.8-1.8-1.8c0-1,0.8-1.8,1.8-1.8S1407.3,212.1,1407.3,213.1z"/>
<path class="st0" d="M1446,213.1c0,1-0.8,1.8-1.8,1.8c-1,0-1.8-0.8-1.8-1.8c0-1,0.8-1.8,1.8-1.8C1445.2,211.3,1446,212.1,1446,213.1
	z"/>
<path class="st0" d="M1484.7,213.1c0,1-0.8,1.8-1.8,1.8c-1,0-1.8-0.8-1.8-1.8c0-1,0.8-1.8,1.8-1.8
	C1483.9,211.3,1484.7,212.1,1484.7,213.1z"/>
<path class="st0" d="M1523.4,213.1c0,1-0.8,1.8-1.8,1.8s-1.8-0.8-1.8-1.8c0-1,0.8-1.8,1.8-1.8S1523.4,212.1,1523.4,213.1z"/>
<path class="st0" d="M1561.1,213.1c0,1-0.8,1.8-1.8,1.8c-1,0-1.8-0.8-1.8-1.8c0-1,0.8-1.8,1.8-1.8
	C1560.3,211.3,1561.1,212.1,1561.1,213.1z"/>
<path class="st0" d="M1291.1,247.9c0,1-0.8,1.8-1.8,1.8c-1,0-1.8-0.8-1.8-1.8c0-1,0.8-1.8,1.8-1.8
	C1290.3,246.1,1291.1,247,1291.1,247.9z"/>
<path class="st0" d="M1329.8,247.9c0,1-0.8,1.8-1.8,1.8c-1,0-1.8-0.8-1.8-1.8c0-1,0.8-1.8,1.8-1.8
	C1329,246.1,1329.8,247,1329.8,247.9z"/>
<path class="st0" d="M1368.5,247.9c0,1-0.8,1.8-1.8,1.8c-1,0-1.8-0.8-1.8-1.8c0-1,0.8-1.8,1.8-1.8
	C1367.7,246.1,1368.5,247,1368.5,247.9z"/>
<path class="st0" d="M1407.3,247.9c0,1-0.8,1.8-1.8,1.8s-1.8-0.8-1.8-1.8c0-1,0.8-1.8,1.8-1.8S1407.3,247,1407.3,247.9z"/>
<path class="st0" d="M1446,247.9c0,1-0.8,1.8-1.8,1.8c-1,0-1.8-0.8-1.8-1.8c0-1,0.8-1.8,1.8-1.8C1445.2,246.1,1446,247,1446,247.9z"
	/>
<path class="st0" d="M1484.7,247.9c0,1-0.8,1.8-1.8,1.8c-1,0-1.8-0.8-1.8-1.8c0-1,0.8-1.8,1.8-1.8
	C1483.9,246.1,1484.7,247,1484.7,247.9z"/>
<path class="st0" d="M1523.4,247.9c0,1-0.8,1.8-1.8,1.8s-1.8-0.8-1.8-1.8c0-1,0.8-1.8,1.8-1.8S1523.4,247,1523.4,247.9z"/>
<path class="st0" d="M1368.5,282.3c0,1-0.8,1.8-1.8,1.8c-1,0-1.8-0.8-1.8-1.8c0-1,0.8-1.8,1.8-1.8
	C1367.7,280.5,1368.5,281.3,1368.5,282.3z"/>
<path class="st0" d="M1407.3,282.3c0,1-0.8,1.8-1.8,1.8s-1.8-0.8-1.8-1.8c0-1,0.8-1.8,1.8-1.8S1407.3,281.3,1407.3,282.3z"/>
<path class="st0" d="M1446,282.3c0,1-0.8,1.8-1.8,1.8c-1,0-1.8-0.8-1.8-1.8c0-1,0.8-1.8,1.8-1.8C1445.2,280.5,1446,281.3,1446,282.3
	z"/>
<path class="st0" d="M1484.7,282.3c0,1-0.8,1.8-1.8,1.8c-1,0-1.8-0.8-1.8-1.8c0-1,0.8-1.8,1.8-1.8
	C1483.9,280.5,1484.7,281.3,1484.7,282.3z"/>
<path class="st0" d="M1446,319.4c0,1-0.8,1.8-1.8,1.8c-1,0-1.8-0.8-1.8-1.8c0-1,0.8-1.8,1.8-1.8C1445.2,317.6,1446,318.4,1446,319.4
	z"/>
<path class="st0" d="M1484.7,319.4c0,1-0.8,1.8-1.8,1.8c-1,0-1.8-0.8-1.8-1.8c0-1,0.8-1.8,1.8-1.8
	C1483.9,317.6,1484.7,318.4,1484.7,319.4z"/>
<path class="st0" d="M1407.2,354.1c0,1-0.8,1.8-1.8,1.8c-1,0-1.8-0.8-1.8-1.8c0-1,0.8-1.8,1.8-1.8
	C1406.4,352.3,1407.2,353.1,1407.2,354.1z"/>
<path class="st0" d="M1523.4,282.3c0,1-0.8,1.8-1.8,1.8s-1.8-0.8-1.8-1.8c0-1,0.8-1.8,1.8-1.8S1523.4,281.3,1523.4,282.3z"/>
<path class="st0" d="M1368.5,319.4c0,1-0.8,1.8-1.8,1.8c-1,0-1.8-0.8-1.8-1.8c0-1,0.8-1.8,1.8-1.8
	C1367.7,317.6,1368.5,318.4,1368.5,319.4z"/>
<path class="st0" d="M1368.5,354.1c0,1-0.8,1.8-1.8,1.8c-1,0-1.8-0.8-1.8-1.8c0-1,0.8-1.8,1.8-1.8
	C1367.7,352.3,1368.5,353.1,1368.5,354.1z"/>
<path class="st0" d="M1407.2,319.4c0,1-0.8,1.8-1.8,1.8s-1.8-0.8-1.8-1.8c0-1,0.8-1.8,1.8-1.8S1407.2,318.4,1407.2,319.4z"/>
<path class="st0" d="M197.4,98.6c0,1-0.8,1.8-1.8,1.8c-1,0-1.8-0.8-1.8-1.8c0-1,0.8-1.8,1.8-1.8C196.6,96.7,197.4,97.6,197.4,98.6z"
	/>
<path class="st0" d="M236.1,98.6c0,1-0.8,1.8-1.8,1.8c-1,0-1.8-0.8-1.8-1.8c0-1,0.8-1.8,1.8-1.8C235.3,96.7,236.1,97.6,236.1,98.6z"
	/>
<path class="st0" d="M313.5,98.6c0,1-0.8,1.8-1.8,1.8c-1,0-1.8-0.8-1.8-1.8c0-1,0.8-1.8,1.8-1.8C312.7,96.7,313.5,97.6,313.5,98.6z"
	/>
<path class="st0" d="M352.3,98.6c0,1-0.8,1.8-1.8,1.8c-1,0-1.8-0.8-1.8-1.8c0-1,0.8-1.8,1.8-1.8C351.5,96.7,352.3,97.6,352.3,98.6z"
	/>
<path class="st0" d="M391,98.6c0,1-0.8,1.8-1.8,1.8c-1,0-1.8-0.8-1.8-1.8c0-1,0.8-1.8,1.8-1.8C390.2,96.7,391,97.6,391,98.6z"/>
<path class="st0" d="M429.7,98.6c0,1-0.8,1.8-1.8,1.8c-1,0-1.8-0.8-1.8-1.8c0-1,0.8-1.8,1.8-1.8C428.9,96.7,429.7,97.6,429.7,98.6z"
	/>
<path class="st0" d="M468.4,98.6c0,1-0.8,1.8-1.8,1.8c-1,0-1.8-0.8-1.8-1.8c0-1,0.8-1.8,1.8-1.8C467.6,96.7,468.4,97.6,468.4,98.6z"
	/>
<path class="st0" d="M507.2,98.6c0,1-0.8,1.8-1.8,1.8c-1,0-1.8-0.8-1.8-1.8c0-1,0.8-1.8,1.8-1.8C506.4,96.7,507.2,97.6,507.2,98.6z"
	/>
<path class="st0" d="M545.9,98.6c0,1-0.8,1.8-1.8,1.8c-1,0-1.8-0.8-1.8-1.8c0-1,0.8-1.8,1.8-1.8C545.1,96.7,545.9,97.6,545.9,98.6z"
	/>
<path class="st0" d="M623.3,98.6c0,1-0.8,1.8-1.8,1.8s-1.8-0.8-1.8-1.8c0-1,0.8-1.8,1.8-1.8S623.3,97.6,623.3,98.6z"/>
<path class="st0" d="M662.1,98.6c0,1-0.8,1.8-1.8,1.8c-1,0-1.8-0.8-1.8-1.8c0-1,0.8-1.8,1.8-1.8C661.2,96.7,662.1,97.6,662.1,98.6z"
	/>
<path class="st0" d="M700.8,98.6c0,1-0.8,1.8-1.8,1.8c-1,0-1.8-0.8-1.8-1.8c0-1,0.8-1.8,1.8-1.8C700,96.7,700.8,97.6,700.8,98.6z"/>
<path class="st0" d="M739.5,98.6c0,1-0.8,1.8-1.8,1.8c-1,0-1.8-0.8-1.8-1.8c0-1,0.8-1.8,1.8-1.8C738.7,96.7,739.5,97.6,739.5,98.6z"
	/>
<path class="st0" d="M778.2,98.6c0,1-0.8,1.8-1.8,1.8c-1,0-1.8-0.8-1.8-1.8c0-1,0.8-1.8,1.8-1.8C777.4,96.7,778.2,97.6,778.2,98.6z"
	/>
<path class="st0" d="M816.9,98.6c0,1-0.8,1.8-1.8,1.8c-1,0-1.8-0.8-1.8-1.8c0-1,0.8-1.8,1.8-1.8C816.1,96.7,816.9,97.6,816.9,98.6z"
	/>
<path class="st0" d="M81.2,136.2c0,1-0.8,1.8-1.8,1.8c-1,0-1.8-0.8-1.8-1.8c0-1,0.8-1.8,1.8-1.8C80.4,134.4,81.2,135.2,81.2,136.2z"
	/>
<path class="st0" d="M158.7,136.2c0,1-0.8,1.8-1.8,1.8c-1,0-1.8-0.8-1.8-1.8c0-1,0.8-1.8,1.8-1.8
	C157.9,134.4,158.7,135.2,158.7,136.2z"/>
<path class="st0" d="M197.4,136.2c0,1-0.8,1.8-1.8,1.8c-1,0-1.8-0.8-1.8-1.8c0-1,0.8-1.8,1.8-1.8
	C196.6,134.4,197.4,135.2,197.4,136.2z"/>
<path class="st0" d="M236.1,136.2c0,1-0.8,1.8-1.8,1.8c-1,0-1.8-0.8-1.8-1.8c0-1,0.8-1.8,1.8-1.8
	C235.3,134.4,236.1,135.2,236.1,136.2z"/>
<path class="st0" d="M313.5,136.2c0,1-0.8,1.8-1.8,1.8c-1,0-1.8-0.8-1.8-1.8c0-1,0.8-1.8,1.8-1.8
	C312.7,134.4,313.5,135.2,313.5,136.2z"/>
<path class="st0" d="M352.3,136.2c0,1-0.8,1.8-1.8,1.8c-1,0-1.8-0.8-1.8-1.8c0-1,0.8-1.8,1.8-1.8
	C351.5,134.4,352.3,135.2,352.3,136.2z"/>
<path class="st0" d="M391,136.2c0,1-0.8,1.8-1.8,1.8c-1,0-1.8-0.8-1.8-1.8c0-1,0.8-1.8,1.8-1.8C390.2,134.4,391,135.2,391,136.2z"/>
<path class="st0" d="M429.7,136.2c0,1-0.8,1.8-1.8,1.8c-1,0-1.8-0.8-1.8-1.8c0-1,0.8-1.8,1.8-1.8
	C428.9,134.4,429.7,135.2,429.7,136.2z"/>
<path class="st0" d="M468.4,136.2c0,1-0.8,1.8-1.8,1.8c-1,0-1.8-0.8-1.8-1.8c0-1,0.8-1.8,1.8-1.8
	C467.6,134.4,468.4,135.2,468.4,136.2z"/>
<path class="st0" d="M507.2,136.2c0,1-0.8,1.8-1.8,1.8c-1,0-1.8-0.8-1.8-1.8c0-1,0.8-1.8,1.8-1.8
	C506.4,134.4,507.2,135.2,507.2,136.2z"/>
<path class="st0" d="M623.3,136.2c0,1-0.8,1.8-1.8,1.8s-1.8-0.8-1.8-1.8c0-1,0.8-1.8,1.8-1.8S623.3,135.2,623.3,136.2z"/>
<path class="st0" d="M662.1,136.2c0,1-0.8,1.8-1.8,1.8c-1,0-1.8-0.8-1.8-1.8c0-1,0.8-1.8,1.8-1.8
	C661.2,134.4,662.1,135.2,662.1,136.2z"/>
<path class="st0" d="M700.8,136.2c0,1-0.8,1.8-1.8,1.8c-1,0-1.8-0.8-1.8-1.8c0-1,0.8-1.8,1.8-1.8C700,134.4,700.8,135.2,700.8,136.2
	z"/>
<path class="st0" d="M778.2,136.2c0,1-0.8,1.8-1.8,1.8c-1,0-1.8-0.8-1.8-1.8c0-1,0.8-1.8,1.8-1.8
	C777.4,134.4,778.2,135.2,778.2,136.2z"/>
<path class="st0" d="M816.9,136.2c0,1-0.8,1.8-1.8,1.8c-1,0-1.8-0.8-1.8-1.8c0-1,0.8-1.8,1.8-1.8
	C816.1,134.4,816.9,135.2,816.9,136.2z"/>
<path class="st0" d="M942.6,98.6c0,1-0.8,1.8-1.8,1.8c-1,0-1.8-0.8-1.8-1.8c0-1,0.8-1.8,1.8-1.8C941.8,96.7,942.6,97.6,942.6,98.6z"
	/>
<path class="st0" d="M981.3,98.6c0,1-0.8,1.8-1.8,1.8c-1,0-1.8-0.8-1.8-1.8c0-1,0.8-1.8,1.8-1.8C980.5,96.7,981.3,97.6,981.3,98.6z"
	/>
<path class="st0" d="M1020,98.6c0,1-0.8,1.8-1.8,1.8c-1,0-1.8-0.8-1.8-1.8c0-1,0.8-1.8,1.8-1.8C1019.2,96.7,1020,97.6,1020,98.6z"/>
<path class="st0" d="M1058.8,98.6c0,1-0.8,1.8-1.8,1.8c-1,0-1.8-0.8-1.8-1.8c0-1,0.8-1.8,1.8-1.8C1058,96.7,1058.8,97.6,1058.8,98.6
	z"/>
<path class="st0" d="M1136.2,98.6c0,1-0.8,1.8-1.8,1.8c-1,0-1.8-0.8-1.8-1.8c0-1,0.8-1.8,1.8-1.8
	C1135.4,96.7,1136.2,97.6,1136.2,98.6z"/>
<path class="st0" d="M1174.9,98.6c0,1-0.8,1.8-1.8,1.8s-1.8-0.8-1.8-1.8c0-1,0.8-1.8,1.8-1.8S1174.9,97.6,1174.9,98.6z"/>
<path class="st0" d="M1213.6,98.6c0,1-0.8,1.8-1.8,1.8s-1.8-0.8-1.8-1.8c0-1,0.8-1.8,1.8-1.8S1213.6,97.6,1213.6,98.6z"/>
<path class="st0" d="M1291.1,98.6c0,1-0.8,1.8-1.8,1.8c-1,0-1.8-0.8-1.8-1.8c0-1,0.8-1.8,1.8-1.8
	C1290.3,96.7,1291.1,97.6,1291.1,98.6z"/>
<path class="st0" d="M1329.8,98.6c0,1-0.8,1.8-1.8,1.8c-1,0-1.8-0.8-1.8-1.8c0-1,0.8-1.8,1.8-1.8C1329,96.7,1329.8,97.6,1329.8,98.6
	z"/>
<path class="st0" d="M1368.5,98.6c0,1-0.8,1.8-1.8,1.8c-1,0-1.8-0.8-1.8-1.8c0-1,0.8-1.8,1.8-1.8
	C1367.7,96.7,1368.5,97.6,1368.5,98.6z"/>
<path class="st0" d="M1446,98.6c0,1-0.8,1.8-1.8,1.8c-1,0-1.8-0.8-1.8-1.8c0-1,0.8-1.8,1.8-1.8C1445.2,96.7,1446,97.6,1446,98.6z"/>
<path class="st0" d="M1484.7,98.6c0,1-0.8,1.8-1.8,1.8c-1,0-1.8-0.8-1.8-1.8c0-1,0.8-1.8,1.8-1.8
	C1483.9,96.7,1484.7,97.6,1484.7,98.6z"/>
<path class="st0" d="M981.3,136.2c0,1-0.8,1.8-1.8,1.8c-1,0-1.8-0.8-1.8-1.8c0-1,0.8-1.8,1.8-1.8
	C980.5,134.4,981.3,135.2,981.3,136.2z"/>
<path class="st0" d="M1097.5,136.2c0,1-0.8,1.8-1.8,1.8c-1,0-1.8-0.8-1.8-1.8c0-1,0.8-1.8,1.8-1.8
	C1096.7,134.4,1097.5,135.2,1097.5,136.2z"/>
<path class="st0" d="M1136.2,136.2c0,1-0.8,1.8-1.8,1.8c-1,0-1.8-0.8-1.8-1.8c0-1,0.8-1.8,1.8-1.8
	C1135.4,134.4,1136.2,135.2,1136.2,136.2z"/>
<path class="st0" d="M1174.9,136.2c0,1-0.8,1.8-1.8,1.8s-1.8-0.8-1.8-1.8c0-1,0.8-1.8,1.8-1.8S1174.9,135.2,1174.9,136.2z"/>
<path class="st0" d="M1213.6,136.2c0,1-0.8,1.8-1.8,1.8s-1.8-0.8-1.8-1.8c0-1,0.8-1.8,1.8-1.8S1213.6,135.2,1213.6,136.2z"/>
<path class="st0" d="M1252.4,136.2c0,1-0.8,1.8-1.8,1.8c-1,0-1.8-0.8-1.8-1.8c0-1,0.8-1.8,1.8-1.8
	C1251.6,134.4,1252.4,135.2,1252.4,136.2z"/>
<path class="st0" d="M1291.1,136.2c0,1-0.8,1.8-1.8,1.8c-1,0-1.8-0.8-1.8-1.8c0-1,0.8-1.8,1.8-1.8
	C1290.3,134.4,1291.1,135.2,1291.1,136.2z"/>
<path class="st0" d="M1329.8,136.2c0,1-0.8,1.8-1.8,1.8c-1,0-1.8-0.8-1.8-1.8c0-1,0.8-1.8,1.8-1.8
	C1329,134.4,1329.8,135.2,1329.8,136.2z"/>
<path class="st0" d="M1368.5,136.2c0,1-0.8,1.8-1.8,1.8c-1,0-1.8-0.8-1.8-1.8c0-1,0.8-1.8,1.8-1.8
	C1367.7,134.4,1368.5,135.2,1368.5,136.2z"/>
<path class="st0" d="M1407.3,136.2c0,1-0.8,1.8-1.8,1.8s-1.8-0.8-1.8-1.8c0-1,0.8-1.8,1.8-1.8S1407.3,135.2,1407.3,136.2z"/>
<path class="st0" d="M1446,136.2c0,1-0.8,1.8-1.8,1.8c-1,0-1.8-0.8-1.8-1.8c0-1,0.8-1.8,1.8-1.8C1445.2,134.4,1446,135.2,1446,136.2
	z"/>
<path class="st0" d="M1484.7,136.2c0,1-0.8,1.8-1.8,1.8c-1,0-1.8-0.8-1.8-1.8c0-1,0.8-1.8,1.8-1.8
	C1483.9,134.4,1484.7,135.2,1484.7,136.2z"/>
<path class="st0" d="M468.4,21.7c0,1-0.8,1.8-1.8,1.8c-1,0-1.8-0.8-1.8-1.8c0-1,0.8-1.8,1.8-1.8C467.6,19.9,468.4,20.7,468.4,21.7z"
	/>
<path class="st0" d="M545.9,21.7c0,1-0.8,1.8-1.8,1.8c-1,0-1.8-0.8-1.8-1.8c0-1,0.8-1.8,1.8-1.8C545.1,19.9,545.9,20.7,545.9,21.7z"
	/>
<path class="st0" d="M584.6,21.7c0,1-0.8,1.8-1.8,1.8s-1.8-0.8-1.8-1.8c0-1,0.8-1.8,1.8-1.8S584.6,20.7,584.6,21.7z"/>
<path class="st0" d="M662.1,21.7c0,1-0.8,1.8-1.8,1.8c-1,0-1.8-0.8-1.8-1.8c0-1,0.8-1.8,1.8-1.8C661.2,19.9,662.1,20.7,662.1,21.7z"
	/>
<path class="st0" d="M739.5,21.7c0,1-0.8,1.8-1.8,1.8c-1,0-1.8-0.8-1.8-1.8c0-1,0.8-1.8,1.8-1.8C738.7,19.9,739.5,20.7,739.5,21.7z"
	/>
<path class="st0" d="M778.2,21.7c0,1-0.8,1.8-1.8,1.8c-1,0-1.8-0.8-1.8-1.8c0-1,0.8-1.8,1.8-1.8C777.4,19.9,778.2,20.7,778.2,21.7z"
	/>
<path class="st0" d="M855.7,21.7c0,1-0.8,1.8-1.8,1.8c-1,0-1.8-0.8-1.8-1.8c0-1,0.8-1.8,1.8-1.8C854.9,19.9,855.7,20.7,855.7,21.7z"
	/>
<path class="st0" d="M894.4,21.7c0,1-0.8,1.8-1.8,1.8c-1,0-1.8-0.8-1.8-1.8c0-1,0.8-1.8,1.8-1.8C893.6,19.9,894.4,20.7,894.4,21.7z"
	/>
<path class="st0" d="M197.4,59.3c0,1-0.8,1.8-1.8,1.8c-1,0-1.8-0.8-1.8-1.8c0-1,0.8-1.8,1.8-1.8C196.6,57.5,197.4,58.3,197.4,59.3z"
	/>
<path class="st0" d="M313.5,59.3c0,1-0.8,1.8-1.8,1.8c-1,0-1.8-0.8-1.8-1.8c0-1,0.8-1.8,1.8-1.8C312.7,57.5,313.5,58.3,313.5,59.3z"
	/>
<path class="st0" d="M391,59.3c0,1-0.8,1.8-1.8,1.8c-1,0-1.8-0.8-1.8-1.8c0-1,0.8-1.8,1.8-1.8C390.2,57.5,391,58.3,391,59.3z"/>
<path class="st0" d="M429.7,59.3c0,1-0.8,1.8-1.8,1.8c-1,0-1.8-0.8-1.8-1.8c0-1,0.8-1.8,1.8-1.8C428.9,57.5,429.7,58.3,429.7,59.3z"
	/>
<path class="st0" d="M468.4,59.3c0,1-0.8,1.8-1.8,1.8c-1,0-1.8-0.8-1.8-1.8c0-1,0.8-1.8,1.8-1.8C467.6,57.5,468.4,58.3,468.4,59.3z"
	/>
<path class="st0" d="M545.9,59.3c0,1-0.8,1.8-1.8,1.8c-1,0-1.8-0.8-1.8-1.8c0-1,0.8-1.8,1.8-1.8C545.1,57.5,545.9,58.3,545.9,59.3z"
	/>
<path class="st0" d="M584.6,59.3c0,1-0.8,1.8-1.8,1.8s-1.8-0.8-1.8-1.8c0-1,0.8-1.8,1.8-1.8S584.6,58.3,584.6,59.3z"/>
<path class="st0" d="M662.1,59.3c0,1-0.8,1.8-1.8,1.8c-1,0-1.8-0.8-1.8-1.8c0-1,0.8-1.8,1.8-1.8C661.2,57.5,662.1,58.3,662.1,59.3z"
	/>
<path class="st0" d="M894.4,59.3c0,1-0.8,1.8-1.8,1.8c-1,0-1.8-0.8-1.8-1.8c0-1,0.8-1.8,1.8-1.8C893.6,57.5,894.4,58.3,894.4,59.3z"
	/>
<path class="st0" d="M1213.6,21.7c0,1-0.8,1.8-1.8,1.8s-1.8-0.8-1.8-1.8c0-1,0.8-1.8,1.8-1.8S1213.6,20.7,1213.6,21.7z"/>
<path class="st0" d="M1329.8,21.7c0,1-0.8,1.8-1.8,1.8c-1,0-1.8-0.8-1.8-1.8c0-1,0.8-1.8,1.8-1.8C1329,19.9,1329.8,20.7,1329.8,21.7
	z"/>
<path class="st0" d="M942.6,59.3c0,1-0.8,1.8-1.8,1.8c-1,0-1.8-0.8-1.8-1.8c0-1,0.8-1.8,1.8-1.8C941.8,57.5,942.6,58.3,942.6,59.3z"
	/>
<path class="st0" d="M1020,59.3c0,1-0.8,1.8-1.8,1.8c-1,0-1.8-0.8-1.8-1.8c0-1,0.8-1.8,1.8-1.8C1019.2,57.5,1020,58.3,1020,59.3z"/>
<path class="st0" d="M1058.8,59.3c0,1-0.8,1.8-1.8,1.8c-1,0-1.8-0.8-1.8-1.8c0-1,0.8-1.8,1.8-1.8C1058,57.5,1058.8,58.3,1058.8,59.3
	z"/>
<path class="st0" d="M1174.9,59.3c0,1-0.8,1.8-1.8,1.8s-1.8-0.8-1.8-1.8c0-1,0.8-1.8,1.8-1.8S1174.9,58.3,1174.9,59.3z"/>
<path class="st0" d="M1213.6,59.3c0,1-0.8,1.8-1.8,1.8s-1.8-0.8-1.8-1.8c0-1,0.8-1.8,1.8-1.8S1213.6,58.3,1213.6,59.3z"/>
<path class="st0" d="M1291.1,59.3c0,1-0.8,1.8-1.8,1.8c-1,0-1.8-0.8-1.8-1.8c0-1,0.8-1.8,1.8-1.8
	C1290.3,57.5,1291.1,58.3,1291.1,59.3z"/>
<path class="st0" d="M1329.8,59.3c0,1-0.8,1.8-1.8,1.8c-1,0-1.8-0.8-1.8-1.8c0-1,0.8-1.8,1.8-1.8C1329,57.5,1329.8,58.3,1329.8,59.3
	z"/>
<path class="st0" d="M1446,59.3c0,1-0.8,1.8-1.8,1.8c-1,0-1.8-0.8-1.8-1.8c0-1,0.8-1.8,1.8-1.8C1445.2,57.5,1446,58.3,1446,59.3z"/>
<line class="st1" x1="1003.5" y1="372.5" x2="996.8" y2="375.3"/>
<g>
	<polyline class="st2" points="586.5,364.5 586.5,410.7 452.7,419.5 430.3,415.8 390.4,415.8 368,419.5 262,412.5 	"/>
	<path class="st2" d="M248.9,411.7l-14.8-1v-71l65.6-14.6c0,0-1.4-7.3,2-7.9c3.4-0.6,4.6-1.2,4.6-1.2s0.8-3.8,4-4.8
		c3.2-1,5.4-1.8,5.4-1.8s1.4-4.6,4.6-5.2c3.2-0.6,4.2-1,4.2-1l0.4-3.8l21-5.4l0.4-3.8l4.6-1.4l4,1.2v1.8c0,0,9.5-3,12.9-3
		s9.9,0,9.9,0l0.6-13.1c0,0,10.6-8.8,19.9-7.7c0-11.1,0-14.3,0-14.3s-2.4-5.6,12.1-5.6h0.4c14.5,0,12.1,5.6,12.1,5.6s0,3.2,0,14.3
		c13.9,0.6,19.9,7.7,19.9,7.7l0.6,13.1c0,0,6.6,0,9.9,0c3.4,0,12.9,3,12.9,3v-1.8l4-1.2l4.6,1.4l0.4,3.8l21,5.4l0.4,3.8
		c0,0,1,0.4,4.2,1c3.2,0.6,4.6,5.2,4.6,5.2s2.2,0.8,5.4,1.8c3.2,1,4,4.8,4,4.8s1.2,0.6,4.6,1.2c3.4,0.6,3,7.9,3,7.9l64.6,14.6v11"/>
	<path class="st2" d="M324.4,343.6c0,0,17.1-2.3,31.4-3.7c14.4-1.3,51.5-2,63.9-2c12.4,0,47.8,2.7,56.8,3.7c9,1,22.4,3,22.4,3"/>
	<polyline class="st2" points="390.4,415.8 390.4,344.6 430.1,344.6 430.1,415.8 	"/>
	<line class="st2" x1="390.9" y1="383.7" x2="429.1" y2="383.7"/>
	<line class="st2" x1="350.8" y1="289" x2="350.8" y2="240.3"/>
	<line class="st2" x1="470.8" y1="289" x2="470.8" y2="240.3"/>
	<line class="st2" x1="410.5" y1="248.3" x2="410.5" y2="195.8"/>
	<path class="st2" d="M377.6,289c0,0,4,0.7,9.7,2.4c0,16.1,0,46.5,0,46.5"/>
	<path class="st2" d="M443.1,289c0,0-4.6-1.6-11,2.4c0,6,0,46.5,0,46.5"/>
	<ellipse class="st2" cx="322.9" cy="314.8" rx="4.5" ry="7"/>
	<ellipse class="st2" cx="312.3" cy="319.8" rx="3.1" ry="4.9"/>
	<ellipse class="st2" cx="304.6" cy="322.9" rx="2.2" ry="3.5"/>
	<ellipse class="st2" cx="498.4" cy="314.8" rx="4.5" ry="7"/>
	<ellipse class="st2" cx="509" cy="319.8" rx="3.1" ry="4.9"/>
	<ellipse class="st2" cx="516.7" cy="322.9" rx="2.2" ry="3.5"/>
</g>
<g>
	<polyline class="st2" points="704.8,360.9 691.8,318.8 679.2,360.1 670.2,319 656.3,358 647.7,318 633.3,361.2 623.4,319 
		607.6,359 604.9,410.4 613.4,410.4 	"/>
	<polyline class="st2" points="624.4,323.4 635.8,289.5 645.4,324.8 	"/>
	<polyline class="st2" points="649.1,324.6 659.9,289.5 668.6,323.2 	"/>
	<polyline class="st2" points="671.1,323.3 681.3,289.5 690.6,322.5 	"/>
	<polyline class="st2" points="692.7,322 702.7,289.5 711.3,323.2 	"/>
	<path class="st2" d="M715.3,410.4h29.2c0,0,2.8-24.4,7.8-48.5c3.6-17,9.5-33.6,10.9-43c3.4-22.5,0.4-34.4,1.5-43.9
		c1.1-9.6,2.3-30.6,6.5-30.6h1.2c4.2,0,5.4,21,6.5,30.6c1.1,9.6-1.9,21.4,1.5,43.9c1.4,9.3,7.6,26.8,11.2,43.8
		c5.1,24.2,7.6,47.6,7.6,47.6h39.4c0,0,1.1-51.3-2.1-58.3c-3.2-7-5.9-18.2-5.9-52.4s-11.2-129.2-11.2-129.2s9.2-4.6-1.6-13
		c-8.9,6.1-6.4,10.5-3.5,12.8c0,15-6.8,106.2-6.8,106.2c0-34.2-11.2-129.2-11.2-129.2s9.2-4.6-1.6-13c-8.9,6.1-6.4,10.5-3.5,12.8
		c0,15-7.2,106.4-7.2,106.4l-0.5-81h-24.8v81c0,0-7.2-91.4-7.2-106.4c2.8-2.3,5.4-6.8-3.5-12.8c-10.8,8.4-1.6,13-1.6,13
		s-11.2,95-11.2,129.2c0,0-6.8-91.3-6.8-106.2c2.8-2.3,5.4-6.8-3.5-12.8c-10.8,8.4-1.6,13-1.6,13s-11.2,95-11.2,129.2
		s-2.7,45.4-5.9,52.4s-2.1,58.3-2.1,58.3h-77.4"/>
	<circle class="st2" cx="620.1" cy="376.6" r="7.8"/>
	<circle class="st2" cx="642.4" cy="376.6" r="7.8"/>
	<circle class="st2" cx="667.1" cy="376.6" r="7.8"/>
	<circle class="st2" cx="691" cy="376.6" r="7.8"/>
</g>
<g>
	<path class="st2" d="M1006.3,410.2h-15.7c0,0-6.8-24.4-20.4-32.5c-13.6-8.1-23.4-9.8-30.2-9.8h-2.3c-6.8,0-16.6,1.7-30.2,9.8
		c-13.6,8.1-20.4,32.5-20.4,32.5h-31"/>
	<path class="st2" d="M856.3,410.2c0,0,36.4-46.4,39.1-50.8c2.7-4.4,2-18.3,2-18.3h6.8c0,0,12.6-31.9,14.3-39.7
		c-1-9.2-2.4-10.2-0.7-11.9s5.1-1.7,5.1-1.7s8.1-41.8,9.5-77.1c1.4-35.3,1.4-45.5,1.4-45.5s-2.7-12.9-2-17s1.4-8.1,6.5-9.2
		c0.3-3.1,1-20.7,1-20.7s0.2,17.7,0.6,20.7c5.1,1,5.8,5.1,6.5,9.2s-2,17-2,17s0,10.2,1.4,45.5s9.5,77.1,9.5,77.1s3.4,0,5.1,1.7
		s0.3,2.7-0.7,11.9c1.7,7.8,14.3,39.7,14.3,39.7l6.5,0.2c0,0-0.4,13.7,2.3,18.1c2.7,4.4,39.1,50.8,39.1,50.8"/>
	<polygon class="st2" points="939.1,315.5 945.2,315.5 949.6,341 939.1,341 938.8,341 928.3,341 932.7,315.5 938.8,315.5 	"/>
</g>
<g>
	<polyline class="st2" points="428.9,268.7 569,95.8 711.9,292.8 	"/>
	<line class="st2" x1="569" y1="95.8" x2="483.3" y2="297.1"/>
</g>
<path class="st2" d="M1128.4,270.8c0,0,3.2-0.6,7-0.6s6.1,0.6,6.1,0.6"/>
<g>
	<path class="st2" d="M969.4,331.2c0,0,23.5-0.6,44.7,10c14.2-4.8,28.7-9.1,40.4-9.4c-3-12.7-9.4-34.7-9.4-34.7s37.4-11.2,74.9,10.3
		"/>
	<line class="st2" x1="1054.6" y1="331.8" x2="1065.3" y2="364.4"/>
	<path class="st2" d="M1117.6,363.7l-20.8-53c0,0,28.4-8.5,56.4,2.4s53.9,33.5,75.1,55.5"/>
	<path class="st2" d="M1135.4,308c0,0,26.3-56.4,93-68.2c-0.3,10.3-2.1,20.8-2.1,20.8"/>
	<path class="st2" d="M1232.6,369.1c0,0,0.4-8.1,8.8-54.2c6.6-36.5,13.1-50.6,23.8-70.9c-60.1,11.5-91.8,78.2-91.8,78.2"/>
	<path class="st2" d="M1245,296.5c0,0,29.3-15.4,53.4-19c-7.5,17.2-13.3,34.9-19.6,79.8"/>
	<path class="st2" d="M1287.6,308c0,0,35.9-10.3,58.9-6.6c-12.1,16.9-27.8,42.6-29.9,47.7"/>
	<path class="st2" d="M992.1,371.4c0,0,4.1-0.5,10.8-1.2c17.1-1.9,51.3-5.5,80.9-7.2c26.3-1.5,58.6,3.6,78.5,2.7s70.3,3.3,70.3,3.3
		s19-9.1,23.8-10.3c4.8-1.2,20.2-0.6,20.2-0.6s17.2-5.7,29.6-8.8c12.4-3,32.6,4.8,41.7,8.1c-29.9,16-61.6,32.3-61.6,32.3h-260.2"/>
	<path class="st2" d="M1128.4,294c0,0,3.2-0.6,7-0.6s6.1,0.6,6.1,0.6"/>
</g>
<g>
	<path class="st2" d="M947.8,240.7l11.8-2.7v-13.9c0,0,0.3-1.4,1.8-1.4c1.5,0,1.5,1.5,1.5,1.5v13.1h29.5v-25.1l-1.1-2.3
		c0,0,0-11.1,0-16.3s8.3-23.1,22.4-28.5c1.2-3.4,4.9-4.8,6.2-5.1c2-1.2,7.4-6.2,7.4-6.2s-0.1-2.9,2.4-3.2c-0.2-0.8-0.9-1.4-0.9-2.3
		c0-1,0.9-1.9,0.9-1.9s-1.3-0.9-1.2-2.4c0.1-1.8,1.5-2.7,1.5-2.7l1.6-11.6l1.7,11.6c0,0,1.4,0.9,1.5,2.7c0.1,1.5-1.2,2.4-1.2,2.4
		s0.9,0.9,0.9,1.9c0,0.9-0.7,1.5-0.9,2.3c2.5,0.2,2.4,3.2,2.4,3.2s5.3,5,7.4,6.2c1.4,0.3,5,1.7,6.2,5.1
		c14.1,5.4,22.4,23.3,22.4,28.5s0,16.3,0,16.3l-1.1,2.3v25.1h29.5v-13.1c0,0,0-1.5,1.5-1.5c1.5,0,1.8,1.4,1.8,1.4V238l16.6,3.6
		c0,0,0-11.6,0-13.3c0-1.3,0.6-1.7,1.7-1.7s1.6,0.9,1.6,1.7c0,1,0,79,0,79"/>
	<line class="st2" x1="961.4" y1="222.8" x2="961.4" y2="215.2"/>
	<line class="st2" x1="1101.7" y1="222.8" x2="1101.7" y2="215.2"/>
	<line class="st2" x1="1121.6" y1="226.5" x2="1121.6" y2="219"/>
	<line class="st2" x1="1135.1" y1="229" x2="1135.1" y2="221.5"/>
	<line class="st2" x1="1029.6" y1="150.7" x2="1033.4" y2="150.7"/>
	<line class="st2" x1="1029.6" y1="146.5" x2="1033.4" y2="146.5"/>
	<path class="st2" d="M1027.3,153.8c0,0,1.8-0.2,4.2-0.2s4.3,0.2,4.3,0.2"/>
	<path class="st2" d="M991.3,210c0,0,14.9-8.5,41.5-8.3c26.6,0.2,38.8,7.5,38.8,7.5"/>
	<path class="st2" d="M992.5,212.7c0,0,13.7-7.8,40.3-7.6c26.6,0.2,37.8,6.8,37.8,6.8"/>
	<path class="st2" d="M1140.1,299.7l-0.6-54.8c0,0,2-1.8-0.2-2.7c-0.2-2.2,0.9-13.2-4.4-13.4h0.4c-5.3,0.1-4.2,11.2-4.4,13.4
		c-2.3,0.9-0.2,2.7-0.2,2.7l-0.7,62.7"/>
	<path class="st2" d="M1129.2,235.6c0,0,3.2-0.6,6-0.6c2.8,0,5.7,0.6,5.7,0.6"/>
	<path class="st2" d="M1051.9,295.5c0,0,0-23.6,0-28.6s-3.6-11.5-9.7-14.3c-6.1-2.7-11.1-6.8-11.1-6.8s-4.6,4.1-10.7,6.8
		c-6.1,2.7-9.7,9.3-9.7,14.3s0,41.2,0,41.2h37.6"/>
</g>
<path class="st2" d="M909.1,328.6v-24.1l2.8-2.7l-0.2-11.9h-7.9v-15.2c0,0-5.1-2.2-7-4.4c-1.9-2.2-4.3-11.1-4-24.4
	c0.3-13.3-0.2-32.5-0.2-32.5s4.5-3.1,8.9-10.6c3.6-6.1,3.8-13.6,1.5-18.7c-1.9-4.1-6.3-8.7-11.3-13c-4.9-4.3-8.1-4.6-10.1-7.8
	c-2.1-3,0.2-13,0.2-13l2.3-0.1c0,0-3.3-1.1-3.2-1.6c0.2-0.5-0.8-1.9-0.8-1.9l5.4-3.8l-6.8,2.3l-1.8-1.4l2.6-7l-4.4,6.3l-2.4-0.3
	l-3.3-8.5l1,8.4l-1.9,0.5l-3.4-3.2l2.5,3.8l-1.1,1.4l-4.5-1.3l4.1,2.9l-0.2,2l-2.5,1.5l2.7,0.8l1.2,4.3c-1.3,3.4-5.5,2.1-5.5-0.8
	s-3-5.5-3-5.5s-1.7-6.3-5.5-17.8c0.4-10.1-3.8-9-3.8-13.6c0-4.7,2.9-7.3,2.9-7.3l-3.8-2.3l2.5-5.1l-4-3.5l-4,3.2l1.9,5.6l-3.2,1.9
	c0,0,3.6,3.6,3.6,10s-0.3,11.6,2.6,13c0,7.2,4.7,22,4.7,22s-4.2,5.9-0.8,11.8c3.8,1.3,3.4,11.4,6.3,15.2c-7.2,8.9-3.8,15.2-2.1,39.3
	c1.7,24.1,2.7,38.1,2.3,42.3c-0.6,7-6.6,7.2-6.6,7.2l-7.2,0.8v18.2h-9.4v11.9l2.6,2.7v35.7l-4.2,3.6"/>
<path class="st2" d="M884.4,166c0,0-10.3,0-26.1,16"/>
<path class="st2" d="M866.5,152.8c0,0-1.8-5.6,1.2-8.1s6-1.9,9.2-0.5s4.9,5.5,4.5,7.9"/>
<circle class="st1" cx="939.1" cy="112" r="4"/>
<circle class="st1" cx="1030.6" cy="261.3" r="4"/>
<circle class="st1" cx="818.3" cy="380.4" r="4"/>
<circle class="st3" cx="1190.9" cy="277.8" r="4"/>
<circle class="st1" cx="572.2" cy="118.3" r="4"/>
<circle class="st3" cx="620.1" cy="376.4" r="4"/>
<circle class="st3" cx="546.7" cy="349" r="4"/>
<g>
	<g>
		<path class="st4" d="M574.1,116.6c0,0,0.8-0.7,2.3-1.9"/>
		<path class="st5" d="M581.1,111c21.1-15.9,88.7-60,188.9-60c86.1,0,147.6,43.1,164.4,56.3"/>
		<path class="st4" d="M936.8,109.1c1.5,1.2,2.3,1.9,2.3,1.9"/>
	</g>
</g>
<g>
	<g>
		<path class="st6" d="M878.8,277.2c0,0,0.5-0.9,1.6-2.5"/>
		<path class="st7" d="M883.9,269.8c16-22.2,69.4-86.5,151.3-86.5c102.6,0,143.1,68.9,152.7,89"/>
		<path class="st6" d="M1189.1,275c0.8,1.8,1.1,2.8,1.1,2.8"/>
	</g>
</g>
<g>
	<g>
		<path class="st6" d="M546.9,345.8c0,0,0-1.1,0-3"/>
		<path class="st8" d="M547.2,336.8c1.1-21.4,6.2-73.5,31.2-73.5c41,0,41.6,85.3,41,108.9"/>
		<path class="st6" d="M619.3,375.3c-0.1,1.9-0.1,3-0.1,3"/>
	</g>
</g>
<g>
	<g>
		<path class="st4" d="M819.4,380.8c0,0,0.2,0.1,3,0.2"/>
		<path class="st9" d="M828.3,381.2c12.7,0.4,43.4,0.8,118,0.8c84.6,0,85.8-90.7,84.6-115"/>
		<path class="st4" d="M1030.7,264.1c-0.1-1.9-0.3-3-0.3-3"/>
	</g>
</g>
<circle class="st3" cx="878" cy="277.8" r="4"/>
</svg>
