<?xml version="1.0" encoding="utf-8"?>
<!-- Generator: Adobe Illustrator 23.0.4, SVG Export Plug-In . SVG Version: 6.00 Build 0)  -->
<svg version="1.1" id="Layer_1" xmlns="http://www.w3.org/2000/svg" xmlns:xlink="http://www.w3.org/1999/xlink" x="0px" y="0px"
	 viewBox="0 0 783.9 565.4" style="enable-background:new 0 0 783.9 565.4;" xml:space="preserve">
<style type="text/css">
	.st0{fill:none;stroke:#1EB9D5;stroke-width:3;stroke-miterlimit:10;}
	.st1{fill:none;stroke:#FFE161;stroke-width:3;stroke-miterlimit:10;}
	.st2{fill:#FFE161;}
	.st3{fill:#1EB9D5;}
	.st4{fill:none;stroke:#1FBAD6;stroke-width:3;stroke-miterlimit:10;}
</style>
<title>homepic2</title>
<g>
	<path class="st0" d="M316.9,330.2H195.2c-14.9,0-26.9-12.1-26.9-26.9v-218c0-14.9,12.1-26.9,26.9-26.9h394.7
		c14.9,0,26.9,12.1,26.9,26.9v218c0,14.9-12.1,26.9-26.9,26.9h-77.7"/>
	<line class="st0" x1="488" y1="278.9" x2="616.2" y2="278.9"/>
	<line class="st0" x1="168.9" y1="278.9" x2="340.1" y2="278.9"/>
</g>
<path class="st1" d="M402.7,258"/>
<line class="st1" x1="394" y1="239.9" x2="394" y2="246.4"/>
<line class="st1" x1="438.4" y1="239.9" x2="438.4" y2="246.4"/>
<path class="st1" d="M402.7,258"/>
<g>
	<path class="st2" d="M184,110.8h4.4V96l-4.5,3.2l-1.1-1.6l6.2-4.4h1.6v17.7h4.4v2h-11L184,110.8L184,110.8z"/>
	<path class="st2" d="M199.5,108.1c0-2.3,1.4-4.1,4.2-5.5c-0.5-0.3-1-0.6-1.5-0.9s-0.8-0.6-1.2-1s-0.6-0.8-0.8-1.3s-0.3-1.1-0.3-1.7
		c0-0.7,0.1-1.3,0.4-1.9c0.3-0.6,0.7-1.1,1.2-1.6c0.5-0.4,1.2-0.8,1.9-1c0.8-0.3,1.6-0.4,2.5-0.4s1.7,0.1,2.4,0.3
		c0.7,0.2,1.3,0.5,1.8,0.9s0.9,0.9,1.1,1.4c0.3,0.5,0.4,1.1,0.4,1.8c0,1.1-0.3,2.1-0.8,3s-1.4,1.7-2.6,2.4c0.5,0.3,1.1,0.6,1.5,0.9
		s0.9,0.7,1.2,1.1s0.6,0.8,0.8,1.3s0.3,1.1,0.3,1.7c0,0.8-0.1,1.5-0.4,2.2s-0.7,1.3-1.3,1.8s-1.2,0.9-2,1.2
		c-0.8,0.3-1.8,0.4-2.8,0.4s-1.9-0.1-2.7-0.4s-1.4-0.7-1.9-1.1s-0.9-1-1.2-1.6C199.7,109.4,199.5,108.7,199.5,108.1z M210,107.8
		c0-0.5-0.1-1-0.4-1.5c-0.3-0.4-0.6-0.8-1-1.1c-0.4-0.3-0.9-0.7-1.5-0.9c-0.5-0.3-1.1-0.6-1.7-0.8c-1.4,0.7-2.3,1.4-2.9,2.2
		c-0.6,0.8-0.9,1.5-0.9,2.2c0,0.5,0.1,0.9,0.3,1.3s0.4,0.8,0.8,1.1c0.3,0.3,0.8,0.6,1.3,0.8c0.5,0.2,1.1,0.3,1.8,0.3
		c0.5,0,1.1-0.1,1.6-0.2c0.5-0.2,0.9-0.4,1.3-0.7c0.4-0.3,0.7-0.7,0.9-1.1C209.9,108.9,210,108.4,210,107.8z M202.2,97.6
		c0,0.5,0.1,1,0.4,1.4c0.2,0.4,0.6,0.8,1,1.1c0.4,0.3,0.9,0.6,1.4,0.9s1.1,0.5,1.7,0.8c1-0.7,1.7-1.3,2.2-2s0.7-1.4,0.7-2.2
		c0-0.5-0.1-0.9-0.3-1.3s-0.5-0.7-0.8-0.9c-0.3-0.3-0.7-0.5-1.1-0.6c-0.4-0.1-0.9-0.2-1.4-0.2c-0.6,0-1.1,0.1-1.6,0.3
		c-0.5,0.2-0.9,0.4-1.2,0.7c-0.3,0.3-0.6,0.6-0.7,0.9C202.3,96.9,202.2,97.2,202.2,97.6z"/>
	<path class="st2" d="M217.9,112.9l8.6-17.7h-10.2v-2h12.5V95l-8.6,17.9H217.9z"/>
	<path class="st2" d="M184,144.7h4.4v-14.9L184,133l-1.1-1.6l6.2-4.4h1.6v17.7h4.4v2h-11L184,144.7L184,144.7z"/>
	<path class="st2" d="M199.5,142c0-2.3,1.4-4.1,4.2-5.5c-0.5-0.3-1-0.6-1.5-0.9c-0.5-0.3-0.8-0.6-1.2-1s-0.6-0.8-0.8-1.3
		s-0.3-1.1-0.3-1.7c0-0.7,0.1-1.3,0.4-1.9c0.3-0.6,0.7-1.1,1.2-1.6c0.5-0.4,1.2-0.8,1.9-1c0.8-0.3,1.6-0.4,2.5-0.4s1.7,0.1,2.4,0.3
		c0.7,0.2,1.3,0.5,1.8,0.9c0.5,0.4,0.9,0.9,1.1,1.4c0.3,0.5,0.4,1.1,0.4,1.8c0,1.1-0.3,2.1-0.8,3s-1.4,1.7-2.6,2.4
		c0.5,0.3,1.1,0.6,1.5,0.9s0.9,0.7,1.2,1.1s0.6,0.8,0.8,1.3s0.3,1.1,0.3,1.7c0,0.8-0.1,1.5-0.4,2.2s-0.7,1.3-1.3,1.8s-1.2,0.9-2,1.2
		s-1.8,0.4-2.8,0.4s-1.9-0.1-2.7-0.4c-0.8-0.3-1.4-0.7-1.9-1.1s-0.9-1-1.2-1.6C199.7,143.3,199.5,142.6,199.5,142z M210,141.7
		c0-0.5-0.1-1-0.4-1.5c-0.3-0.4-0.6-0.8-1-1.1s-0.9-0.7-1.5-0.9c-0.5-0.3-1.1-0.6-1.7-0.8c-1.4,0.7-2.3,1.4-2.9,2.2
		c-0.6,0.8-0.9,1.5-0.9,2.2c0,0.5,0.1,0.9,0.3,1.3c0.2,0.4,0.4,0.8,0.8,1.1c0.3,0.3,0.8,0.6,1.3,0.8s1.1,0.3,1.8,0.3
		c0.5,0,1.1-0.1,1.6-0.2c0.5-0.2,0.9-0.4,1.3-0.7c0.4-0.3,0.7-0.7,0.9-1.1C209.9,142.8,210,142.3,210,141.7z M202.2,131.5
		c0,0.5,0.1,1,0.4,1.4c0.2,0.4,0.6,0.8,1,1.1s0.9,0.6,1.4,0.9c0.5,0.3,1.1,0.5,1.7,0.8c1-0.7,1.7-1.3,2.2-2s0.7-1.4,0.7-2.2
		c0-0.5-0.1-0.9-0.3-1.3c-0.2-0.4-0.5-0.7-0.8-0.9c-0.3-0.3-0.7-0.5-1.1-0.6c-0.4-0.1-0.9-0.2-1.4-0.2c-0.6,0-1.1,0.1-1.6,0.3
		s-0.9,0.4-1.2,0.7s-0.6,0.6-0.7,0.9C202.3,130.8,202.2,131.1,202.2,131.5z"/>
	<path class="st2" d="M216.5,142c0-2.3,1.4-4.1,4.2-5.5c-0.5-0.3-1-0.6-1.5-0.9c-0.5-0.3-0.8-0.6-1.2-1s-0.6-0.8-0.8-1.3
		s-0.3-1.1-0.3-1.7c0-0.7,0.1-1.3,0.4-1.9c0.3-0.6,0.7-1.1,1.2-1.6c0.5-0.4,1.2-0.8,1.9-1c0.8-0.3,1.6-0.4,2.5-0.4s1.7,0.1,2.4,0.3
		c0.7,0.2,1.3,0.5,1.8,0.9c0.5,0.4,0.9,0.9,1.1,1.4c0.3,0.5,0.4,1.1,0.4,1.8c0,1.1-0.3,2.1-0.8,3s-1.4,1.7-2.6,2.4
		c0.5,0.3,1.1,0.6,1.5,0.9s0.9,0.7,1.2,1.1s0.6,0.8,0.8,1.3s0.3,1.1,0.3,1.7c0,0.8-0.1,1.5-0.4,2.2s-0.7,1.3-1.3,1.8s-1.2,0.9-2,1.2
		s-1.8,0.4-2.8,0.4s-1.9-0.1-2.7-0.4c-0.8-0.3-1.4-0.7-1.9-1.1s-0.9-1-1.2-1.6C216.6,143.3,216.5,142.6,216.5,142z M227,141.7
		c0-0.5-0.1-1-0.4-1.5c-0.3-0.4-0.6-0.8-1-1.1s-0.9-0.7-1.5-0.9c-0.5-0.3-1.1-0.6-1.7-0.8c-1.4,0.7-2.3,1.4-2.9,2.2
		c-0.6,0.8-0.9,1.5-0.9,2.2c0,0.5,0.1,0.9,0.3,1.3c0.2,0.4,0.4,0.8,0.8,1.1c0.3,0.3,0.8,0.6,1.3,0.8s1.1,0.3,1.8,0.3
		c0.5,0,1.1-0.1,1.6-0.2c0.5-0.2,0.9-0.4,1.3-0.7c0.4-0.3,0.7-0.7,0.9-1.1C226.8,142.8,227,142.3,227,141.7z M219.2,131.5
		c0,0.5,0.1,1,0.4,1.4c0.2,0.4,0.6,0.8,1,1.1s0.9,0.6,1.4,0.9c0.5,0.3,1.1,0.5,1.7,0.8c1-0.7,1.7-1.3,2.2-2s0.7-1.4,0.7-2.2
		c0-0.5-0.1-0.9-0.3-1.3c-0.2-0.4-0.5-0.7-0.8-0.9c-0.3-0.3-0.7-0.5-1.1-0.6c-0.4-0.1-0.9-0.2-1.4-0.2c-0.6,0-1.1,0.1-1.6,0.3
		s-0.9,0.4-1.2,0.7s-0.6,0.6-0.7,0.9C219.2,130.8,219.2,131.1,219.2,131.5z"/>
	<path class="st2" d="M184,178.6h4.4v-14.9l-4.5,3.2l-1.1-1.6l6.2-4.4h1.6v17.7h4.4v2h-11L184,178.6L184,178.6z"/>
	<path class="st2" d="M199.5,175.9c0-2.3,1.4-4.1,4.2-5.5c-0.5-0.3-1-0.6-1.5-0.9c-0.5-0.3-0.8-0.6-1.2-1s-0.6-0.8-0.8-1.3
		s-0.3-1.1-0.3-1.7c0-0.7,0.1-1.3,0.4-1.9c0.3-0.6,0.7-1.1,1.2-1.6c0.5-0.4,1.2-0.8,1.9-1c0.8-0.3,1.6-0.4,2.5-0.4s1.7,0.1,2.4,0.3
		s1.3,0.5,1.8,0.9s0.9,0.9,1.1,1.4c0.3,0.5,0.4,1.1,0.4,1.8c0,1.1-0.3,2.1-0.8,3s-1.4,1.7-2.6,2.4c0.5,0.3,1.1,0.6,1.5,0.9
		s0.9,0.7,1.2,1.1s0.6,0.8,0.8,1.3s0.3,1.1,0.3,1.7c0,0.8-0.1,1.5-0.4,2.2s-0.7,1.3-1.3,1.8s-1.2,0.9-2,1.2s-1.8,0.4-2.8,0.4
		s-1.9-0.1-2.7-0.4c-0.8-0.3-1.4-0.7-1.9-1.1s-0.9-1-1.2-1.6C199.7,177.2,199.5,176.5,199.5,175.9z M210,175.6c0-0.5-0.1-1-0.4-1.5
		c-0.3-0.4-0.6-0.8-1-1.1s-0.9-0.7-1.5-0.9c-0.5-0.3-1.1-0.6-1.7-0.8c-1.4,0.7-2.3,1.4-2.9,2.2c-0.6,0.8-0.9,1.5-0.9,2.2
		c0,0.5,0.1,0.9,0.3,1.3c0.2,0.4,0.4,0.8,0.8,1.1c0.3,0.3,0.8,0.6,1.3,0.8s1.1,0.3,1.8,0.3c0.5,0,1.1-0.1,1.6-0.2
		c0.5-0.2,0.9-0.4,1.3-0.7c0.4-0.3,0.7-0.7,0.9-1.1C209.9,176.7,210,176.2,210,175.6z M202.2,165.4c0,0.5,0.1,1,0.4,1.4
		c0.2,0.4,0.6,0.8,1,1.1s0.9,0.6,1.4,0.9c0.5,0.3,1.1,0.5,1.7,0.8c1-0.7,1.7-1.3,2.2-2s0.7-1.4,0.7-2.2c0-0.5-0.1-0.9-0.3-1.3
		c-0.2-0.4-0.5-0.7-0.8-0.9c-0.3-0.3-0.7-0.5-1.1-0.6c-0.4-0.1-0.9-0.2-1.4-0.2c-0.6,0-1.1,0.1-1.6,0.3s-0.9,0.4-1.2,0.7
		s-0.6,0.6-0.7,0.9C202.3,164.7,202.2,165,202.2,165.4z"/>
	<path class="st2" d="M216.1,166.9c0-0.9,0.1-1.7,0.4-2.4s0.7-1.4,1.3-2s1.3-1,2.1-1.4c0.8-0.3,1.8-0.5,3-0.5c1.1,0,2,0.2,2.8,0.5
		s1.5,0.8,2.1,1.4s1,1.4,1.3,2.2c0.3,0.9,0.5,1.9,0.5,2.9c0,2.1-0.3,4-0.8,5.6s-1.3,3-2.2,4.1s-2.1,2-3.4,2.6
		c-1.3,0.6-2.7,1-4.2,1.1l-0.4-1.8c1.2-0.1,2.4-0.4,3.3-0.9c1-0.5,1.8-1.1,2.5-1.8s1.3-1.6,1.8-2.5c0.5-1,0.8-2,0.9-3.1
		c-0.3,0.3-0.6,0.6-0.9,0.8c-0.3,0.2-0.7,0.4-1,0.5c-0.4,0.1-0.8,0.2-1.2,0.3s-1,0.1-1.6,0.1c-0.9,0-1.7-0.1-2.5-0.4
		c-0.8-0.3-1.4-0.6-2-1.1s-1-1.1-1.4-1.8C216.2,168.5,216.1,167.7,216.1,166.9z M218.4,166.6c0,1.4,0.4,2.4,1.2,3.1
		c0.8,0.7,1.9,1,3.3,1c1.1,0,2-0.2,2.8-0.5s1.3-0.7,1.6-1.2c0-0.3,0.1-0.5,0.1-0.6c0-0.2,0-0.3,0-0.6c0-0.7-0.1-1.3-0.3-1.9
		c-0.2-0.6-0.5-1.2-0.8-1.7s-0.9-0.9-1.5-1.2s-1.3-0.5-2.1-0.5c-1.4,0-2.4,0.4-3.2,1.1C218.8,164.3,218.4,165.3,218.4,166.6z"/>
	<path class="st2" d="M184,212.5h4.4v-14.9l-4.5,3.2l-1.1-1.6l6.2-4.4h1.6v17.7h4.4v2h-11L184,212.5L184,212.5z"/>
	<path class="st2" d="M199.1,200.8c0-0.9,0.1-1.7,0.4-2.4s0.7-1.4,1.3-2s1.3-1,2.1-1.4c0.8-0.3,1.8-0.5,3-0.5c1.1,0,2,0.2,2.8,0.5
		s1.5,0.8,2.1,1.4s1,1.4,1.3,2.2c0.3,0.9,0.5,1.9,0.5,2.9c0,2.1-0.3,4-0.8,5.6s-1.3,3-2.2,4.1s-2.1,2-3.4,2.6
		c-1.3,0.6-2.7,1-4.2,1.1l-0.4-1.8c1.2-0.1,2.4-0.4,3.3-0.9c1-0.5,1.8-1.1,2.5-1.8s1.3-1.6,1.8-2.5c0.5-1,0.8-2,0.9-3.1
		c-0.3,0.3-0.6,0.6-0.9,0.8c-0.3,0.2-0.7,0.4-1,0.5c-0.4,0.1-0.8,0.2-1.2,0.3s-1,0.1-1.6,0.1c-0.9,0-1.7-0.1-2.5-0.4
		c-0.8-0.3-1.4-0.6-2-1.1s-1-1.1-1.4-1.8C199.3,202.4,199.1,201.6,199.1,200.8z M201.5,200.5c0,1.4,0.4,2.4,1.2,3.1
		c0.8,0.7,1.9,1,3.3,1c1.1,0,2-0.2,2.8-0.5s1.3-0.7,1.6-1.2c0-0.3,0.1-0.5,0.1-0.6c0-0.2,0-0.3,0-0.6c0-0.7-0.1-1.3-0.3-1.9
		c-0.2-0.6-0.5-1.2-0.8-1.7s-0.9-0.9-1.5-1.2s-1.3-0.5-2.1-0.5c-1.4,0-2.4,0.4-3.2,1.1C201.8,198.2,201.5,199.2,201.5,200.5z"/>
	<path class="st2" d="M215.9,204.7c0-1.6,0.1-3,0.4-4.3s0.7-2.3,1.3-3.2s1.3-1.5,2.2-2s1.9-0.7,3.1-0.7c1.3,0,2.3,0.2,3.2,0.7
		s1.6,1.1,2.1,2s0.9,1.9,1.2,3.2s0.4,2.7,0.4,4.4c0,1.6-0.1,3-0.4,4.3s-0.7,2.3-1.3,3.2s-1.3,1.5-2.2,2s-1.9,0.7-3.1,0.7
		c-1.2,0-2.3-0.2-3.2-0.7s-1.6-1.2-2.2-2.1c-0.6-0.9-1-2-1.2-3.2C216,207.6,215.9,206.2,215.9,204.7z M218.3,204.7
		c0,0.5,0,0.9,0,1.4s0.1,0.9,0.1,1.3l8.4-7.6c-0.3-1-0.8-1.8-1.4-2.4c-0.6-0.6-1.5-0.9-2.6-0.9c-1.7,0-2.9,0.7-3.5,2.1
		C218.6,199.8,218.3,201.9,218.3,204.7z M227.4,204.7c0-1-0.1-1.9-0.2-2.9l-8.4,7.7c0.3,1.1,0.8,1.9,1.4,2.6c0.6,0.6,1.5,1,2.5,1
		c1.7,0,2.8-0.7,3.5-2.1C227.1,209.6,227.4,207.5,227.4,204.7z"/>
	<path class="st2" d="M184,246.4h4.4v-14.9l-4.5,3.2l-1.1-1.6l6.2-4.4h1.6v17.7h4.4v2h-11L184,246.4L184,246.4z"/>
	<path class="st2" d="M199.1,234.7c0-0.9,0.1-1.7,0.4-2.4s0.7-1.4,1.3-2s1.3-1,2.1-1.4c0.8-0.3,1.8-0.5,3-0.5c1.1,0,2,0.2,2.8,0.5
		s1.5,0.8,2.1,1.4s1,1.4,1.3,2.2c0.3,0.9,0.5,1.9,0.5,2.9c0,2.1-0.3,4-0.8,5.6s-1.3,3-2.2,4.1s-2.1,2-3.4,2.6
		c-1.3,0.6-2.7,1-4.2,1.1l-0.4-1.8c1.2-0.1,2.4-0.4,3.3-0.9c1-0.5,1.8-1.1,2.5-1.8s1.3-1.6,1.8-2.5c0.5-1,0.8-2,0.9-3.1
		c-0.3,0.3-0.6,0.6-0.9,0.8c-0.3,0.2-0.7,0.4-1,0.5c-0.4,0.1-0.8,0.2-1.2,0.3s-1,0.1-1.6,0.1c-0.9,0-1.7-0.1-2.5-0.4
		c-0.8-0.3-1.4-0.6-2-1.1s-1-1.1-1.4-1.8C199.3,236.3,199.1,235.5,199.1,234.7z M201.5,234.4c0,1.4,0.4,2.4,1.2,3.1
		c0.8,0.7,1.9,1,3.3,1c1.1,0,2-0.2,2.8-0.5s1.3-0.7,1.6-1.2c0-0.3,0.1-0.5,0.1-0.6c0-0.2,0-0.3,0-0.6c0-0.7-0.1-1.3-0.3-1.9
		c-0.2-0.6-0.5-1.2-0.8-1.7s-0.9-0.9-1.5-1.2s-1.3-0.5-2.1-0.5c-1.4,0-2.4,0.4-3.2,1.1C201.8,232.1,201.5,233.1,201.5,234.4z"/>
	<path class="st2" d="M217.9,246.4h4.4v-14.9l-4.5,3.2l-1.1-1.6l6.2-4.4h1.6v17.7h4.4v2h-11L217.9,246.4L217.9,246.4z"/>
</g>
<line class="st0" x1="238.5" y1="67.8" x2="238.5" y2="259.5"/>
<g>
	<line class="st0" x1="394" y1="239.9" x2="394" y2="255.2"/>
	<line class="st0" x1="438.4" y1="239.9" x2="438.4" y2="256.2"/>
	<path class="st0" d="M368.3,218.2c0,22.2,23.1,22.8,46.5,22.8c33.2,0,51.1-3.7,51.1-22.6c0,0,0.5-4.7,0.5-9.5
		c9.4,2.2,19.9,1.5,19.6-12c-0.2-9.2-26.1,39.1-113.1,22.2c-34-6.6-26.8-82.4-26.8-82.4s1.8-49,56.7-50.6
		c32.6-0.9,53.7,0.9,66.6,13.7C506.9,137,492,182,492,182"/>
	<path class="st0" d="M345.2,402.1c0,0-2.4-79.9,12.8-79.9c9.8,0,8.5,17.3,8.5,29.1s-1.3,50.8-1.3,50.8h98.3c0,0-1.3-38.9-1.3-50.8
		s-1.3-29.1,8.5-29.1c15.1,0,12.8,79.9,12.8,79.9h34c0,0,10.3-121.2-57.8-142c-14.6-4.5-30.1-6.5-45-6.6H414c-15,0-30.4,2.1-45,6.6
		c-68.1,20.8-55.7,142-55.7,142H345.2z"/>
</g>
<g>
	<path class="st3" d="M260,102.2v-0.8l13.3-8.1l1.1,1.8l-11.2,6.7l11.2,6.5l-1.1,1.7L260,102.2z"/>
	<path class="st3" d="M288.4,90.7l1.8,0.8l-10.3,23.3l-1.8-0.8L288.4,90.7z"/>
	<path class="st3" d="M295,109.8l-1.1-1.7l11.2-6.5L293.9,95l1.1-1.8l13.3,8.1v0.8L295,109.8z"/>
	<path class="st3" d="M310.9,102.2v-0.8l13.3-8.1l1.1,1.8l-11.2,6.7l11.2,6.5l-1.1,1.7L310.9,102.2z"/>
</g>
<line class="st4" x1="243.9" y1="402.7" x2="587.5" y2="402.7"/>
</svg>
