<?xml version="1.0" encoding="utf-8"?>
<!-- Generator: Adobe Illustrator 23.0.3, SVG Export Plug-In . SVG Version: 6.00 Build 0)  -->
<svg version="1.1" id="Layer_1" xmlns="http://www.w3.org/2000/svg" xmlns:xlink="http://www.w3.org/1999/xlink" x="0px" y="0px"
	 viewBox="0 0 810.9 575.1" style="enable-background:new 0 0 810.9 575.1;" xml:space="preserve">
<style type="text/css">
	.st0{fill:none;stroke:#FFE161;stroke-width:2;stroke-miterlimit:10;}
	.st1{fill:none;stroke:#1EB9D5;stroke-width:2;stroke-miterlimit:10;}
	.st2{clip-path:url(#SVGID_2_);}
</style>
<title>homepic2</title>
<path class="st0" d="M234.1,242.6c-6.2,2.8-13.4,0-16.2-6.2c-2.8-6.2,0-13.4,6.2-16.2c3.2-1.4,6.9-1.4,10.1,0"/>
<polyline class="st0" points="506.6,241.9 509.9,247.7 486.5,288.1 439.8,288.1 416.4,247.7 439.8,207.2 486.5,207.2 500.2,230.9 
	"/>
<path class="st0" d="M458.6,236.3c1.4-0.6,3-0.9,4.5-0.9c6.8,0,12.2,5.5,12.2,12.2c0,6.8-5.5,12.2-12.2,12.2
	c-6.8,0-12.2-5.5-12.2-12.2c0-1.8,0.4-3.5,1.1-5.2"/>
<path class="st1" d="M495.5,369.6c6.2,2.7,9.1,9.9,6.4,16.1s-9.9,9.1-16.1,6.4c-6.2-2.7-9.1-9.9-6.4-16.1c0.6-1.4,1.5-2.7,2.6-3.8
	c1.3-1.3,2.8-2.2,4.5-2.9"/>
<polyline class="st0" points="528.6,320 522.2,318.3 510.1,273.1 543.2,240.1 588.3,252.2 600.4,297.3 567.3,330.3 541,323.3 "/>
<path class="st0" d="M566.5,290c-2.7,6.2-9.9,9.1-16.1,6.4c-6.2-2.7-9.1-9.9-6.4-16.1s9.9-9.1,16.1-6.4c3.1,1.3,5.5,3.9,6.7,7"/>
<polyline class="st0" points="589.6,177.7 591.3,171.3 636.3,158.7 669.7,191.4 658.1,236.6 613.1,249.2 579.7,216.5 586.5,190.1 
	"/>
<path class="st0" d="M620,215.3c-1.4-0.6-2.7-1.5-3.8-2.6c-4.8-4.7-4.9-12.5-0.2-17.3c4.7-4.8,12.5-4.9,17.3-0.2
	c4.8,4.7,4.9,12.5,0.2,17.3c-1.2,1.3-2.8,2.3-4.4,2.9"/>
<polyline class="st0" points="700.5,322.2 699.9,328.8 657.5,348.4 619.3,321.4 623.6,274.9 666,255.3 704.2,282.3 701.7,309.5 "/>
<path class="st0" d="M664.6,290c6.6,1.6,10.6,8.2,9,14.8c-1.6,6.6-8.2,10.6-14.8,9c-6.6-1.6-10.6-8.2-9-14.8c0.4-1.5,1-2.9,1.9-4.2
	c1-1.5,2.4-2.7,3.9-3.6"/>
<path class="st1" d="M269.2,268.3V163.4c0-14.9,12.1-26.9,26.9-26.9l0,0h394.8c14.9,0,26.9,12.1,26.9,26.9l0,0v218
	c0,14.9-12.1,26.9-26.9,26.9l0,0H374.1"/>
<line class="st1" x1="525.8" y1="408.3" x2="525.8" y2="466"/>
<line class="st1" x1="451.1" y1="418.3" x2="451.1" y2="466"/>
<line class="st1" x1="330" y1="467.2" x2="647.5" y2="467.2"/>
<line class="st1" x1="374.4" y1="357" x2="717.2" y2="357"/>
<line class="st1" x1="237.9" y1="268.6" x2="318" y2="268.6"/>
<path class="st1" d="M341.1,268.6h20c7.2,0,13.1,5.8,13.1,13.1c0,0,0,0,0,0V432c0,7.2-5.9,13.1-13.1,13.1H121.9
	c-7.2,0-13.1-5.9-13.1-13.1V281.6c0-7.2,5.9-13.1,13.1-13.1h58.6"/>
<path class="st1" d="M180.5,277.2H129c-7.6,0-13.7,6.1-13.8,13.7c0,0,0,0,0,0v131.8c0,7.6,6.1,13.7,13.7,13.8c0,0,0,0,0,0h122.6"/>
<path class="st1" d="M271,436.5h81.6c7.6,0,13.8-6.1,13.8-13.7c0,0,0,0,0,0V290.9c0-7.6-6.2-13.8-13.8-13.8c0,0,0,0,0,0h-115"/>
<path class="st1" d="M238.6,295.1v8.8c0,3.2-2.6,5.7-5.7,5.7c0,0,0,0,0,0h-46.4c-3.2,0-5.7-2.6-5.7-5.7c0,0,0,0,0,0v-105
	c0-3.2,2.6-5.7,5.7-5.7c0,0,0,0,0,0h46.4c3.2,0,5.7,2.6,5.7,5.7l0,0v78.2"/>
<polyline class="st1" points="185.2,218.2 185.2,210.9 234.3,210.9 234.3,290.8 185.2,290.8 185.2,239.2 "/>
<circle class="st1" cx="209.7" cy="299.7" r="4.8"/>
<polyline class="st0" points="211.2,395.5 209.5,402 164.4,414 131.3,381 143.4,335.9 188.6,323.8 221.6,356.8 214.5,383.2 "/>
<g>
	<defs>
		<rect id="SVGID_1_" x="186.2" y="211.9" width="47" height="76.9"/>
	</defs>
	<clipPath id="SVGID_2_">
		<use xlink:href="#SVGID_1_"  style="overflow:visible;"/>
	</clipPath>
	<g class="st2">
		<polyline class="st0" points="266.4,232.6 269.6,238.2 247.1,277.1 202.2,277.1 179.7,237.2 202.2,198.3 247.1,199.3 260.3,222 		
			"/>
	</g>
</g>
<path class="st0" d="M181.3,357.6c6.2,2.7,9.1,9.9,6.4,16.1c-2.7,6.2-9.9,9.1-16.1,6.4s-9.1-9.9-6.4-16.1c1.3-3.1,3.9-5.5,7.1-6.7"
	/>
</svg>
