<svg xmlns="http://www.w3.org/2000/svg" viewBox="0 0 783.86 565.37"><defs><style>.a,.b,.f{fill:none;}.a,.c{stroke:#1eb9d5;}.a,.b,.c,.f{stroke-miterlimit:10;stroke-width:2px;}.b{stroke:#ffe161;}.c{fill:#fff;}.d,.e{font-size:28.25px;font-family:PTMono-Regular, PT Mono;}.d{fill:#ffe161;}.e{fill:#1eb9d5;}.f{stroke:#1fbad6;}</style></defs><title>homepic2</title><path class="a" d="M305,327.19H183.33a26.94,26.94,0,0,1-26.94-26.94V82.3a26.94,26.94,0,0,1,26.94-26.94H578.08A26.94,26.94,0,0,1,605,82.3v218a26.94,26.94,0,0,1-26.94,26.94H500.42"/><line class="a" x1="476.18" y1="275.87" x2="604.39" y2="275.87"/><line class="a" x1="157.02" y1="275.87" x2="328.19" y2="275.87"/><line class="b" x1="382.14" y1="236.88" x2="382.14" y2="243.43"/><line class="b" x1="426.52" y1="236.88" x2="426.52" y2="243.43"/><line class="a" x1="382.14" y1="236.88" x2="382.14" y2="252.15"/><line class="c" x1="426.52" y1="236.88" x2="426.52" y2="253.15"/><path class="a" d="M356.45,215.14c0,22.25,23.06,22.81,46.46,22.81,33.2,0,51.07-3.66,51.07-22.56,0,0,.46-4.67.46-9.54,9.37,2.25,19.92,1.47,19.58-12C473.78,184.66,448,232.88,361,216c-34-6.61-26.76-82.45-26.76-82.45s1.83-49,56.68-50.62c32.58-.94,53.73.93,66.61,13.7,37.49,37.16,22.57,82.2,22.57,82.2"/><text class="d" transform="translate(168.6 109.84)">187 <tspan x="0" y="33.9">188</tspan><tspan x="0" y="67.81">189</tspan><tspan x="0" y="101.71">190</tspan><tspan x="0" y="135.62">191</tspan></text><line class="a" x1="226.66" y1="64.79" x2="226.66" y2="256.53"/><path class="a" d="M333.37,399.13s-2.38-79.9,12.76-79.9c9.76,0,8.49,17.31,8.49,29.14s-1.26,50.76-1.26,50.76h98.32s-1.27-38.94-1.27-50.76-1.26-29.14,8.5-29.14c15.14,0,12.76,79.9,12.76,79.9h34s10.3-121.2-57.83-142a156.69,156.69,0,0,0-45.05-6.57h-.73A156.59,156.59,0,0,0,357,257.09c-68.14,20.84-55.75,142-55.75,142Z"/><text class="e" transform="translate(246.87 107.79)">&lt;/&gt;&lt;</text><line class="f" x1="232.01" y1="399.64" x2="575.69" y2="399.64"/></svg>