<svg xmlns="http://www.w3.org/2000/svg" viewBox="0 0 1600 366.03"><defs><style>.a{fill:#ffe161;}.b,.c{fill:none;stroke-miterlimit:10;stroke-width:2px;}.b{stroke:#ffe161;}.c{stroke:#1fbad6;}</style></defs><title>homepic2</title><line class="a" x1="1005.11" y1="160.3" x2="998.35" y2="163.12"/><path class="b" d="M1473,160.39S1279.88,344.54,792.43,344.54c-471.28,0-674.08-182.11-674.08-182.11"/><path class="c" d="M1516.07,141.28l4.7-10.58,24.31-54.81a5.91,5.91,0,0,0-3-7.81l-51.25-22.74a5.93,5.93,0,0,0-7.81,3l-43.92,99a5.92,5.92,0,0,0,3,7.82l51.25,22.73a5.91,5.91,0,0,0,7.81-3l8.86-20"/><path class="c" d="M1460.41,112.79l25.38-57.22a5.93,5.93,0,0,1,7.82-3l10.91,4.84-.07,5.31,16.08,7.13,3.57-3.75,11,4.87a5.93,5.93,0,0,1,3,7.82l-22,49.5L1499,166.81a5.93,5.93,0,0,1-7.82,3l-41.47-18.4a5.93,5.93,0,0,1-3-7.82l7.92-17.85Z"/><path class="c" d="M119.89,106.21l20.28,37a5.92,5.92,0,0,1-2.34,8L98.05,173a5.92,5.92,0,0,1-8-2.34l-9.4-17.12-6.83-12.45L43.68,86.25a5.92,5.92,0,0,1,2.34-8l10.47-5.74,4.17,3.27,15.42-8.46-.82-5.12,10.53-5.78a5.94,5.94,0,0,1,8,2.35l4.49,8.19"/><path class="c" d="M101.31,61.49,95.78,51.42a5.91,5.91,0,0,0-8-2.34l-49.15,27a5.93,5.93,0,0,0-2.34,8L88.35,179a5.93,5.93,0,0,0,8,2.35l49.15-27a5.94,5.94,0,0,0,2.35-8L124.63,104"/><path class="c" d="M101.31,61.49a205.63,205.63,0,0,0,16-41.76,222.09,222.09,0,0,1,23.38,9.8"/><line class="c" x1="101.31" y1="61.49" x2="98.33" y2="66.92"/><path class="c" d="M101.31,61.49c-1,1.91-2,3.72-3,5.43"/><path class="c" d="M112.88,105.7c-3.07,2.32-6.31,4.61-9.77,6.84C89.85,100,78.93,91.65,78.93,91.65s9-6.79,19.4-24.73"/><path class="c" d="M149.88,65.36a141.43,141.43,0,0,1-28.21,33.22"/><path class="c" d="M156.72,52.34a73.74,73.74,0,0,0,4.4-12.15s-8.83-5.1-20.41-10.66"/><path class="c" d="M140.71,29.53c1.68-3.11,3.35-6.37,5-9.82,18.91,10.62,39.35,28.08,39.35,28.08S170.48,81.55,124.63,104"/><path class="c" d="M112.88,105.7c.65.88,1.31,1.77,2,2.68,1.72-.71,3.4-1.44,5-2.17"/><path class="c" d="M124.63,104q-2.32,1.14-4.74,2.23"/><path class="c" d="M117.59,102c1.4-1.15,2.76-2.29,4.08-3.44"/><line class="c" x1="117.59" y1="102.02" x2="121.67" y2="98.58"/><line class="c" x1="112.88" y1="105.7" x2="117.59" y2="102.02"/><path class="c" d="M112.88,105.7c1.63-1.22,3.19-2.45,4.71-3.68"/><path class="a" d="M85.22,91.16S114.47,44.54,118.13,26c14.5,3.79,37.73,14.69,37.73,14.69S152.06,65,130.32,85.54s-24.8,22.8-24.8,22.8Z"/><circle class="a" cx="121.39" cy="164.03" r="8.97"/><circle class="a" cx="1468.93" cy="163.12" r="8.97"/></svg>