<svg xmlns="http://www.w3.org/2000/svg" viewBox="0 0 1600 459.7"><defs><style>.a{fill:#dfe8f4;}.b,.c{fill:none;stroke:#1fbad6;stroke-miterlimit:10;stroke-width:2px;}.b{fill-rule:evenodd;}</style></defs><title>homepic2</title><path class="a" d="M82.8,181.21a1.8,1.8,0,1,1-1.8-1.8A1.81,1.81,0,0,1,82.8,181.21Z"/><path class="a" d="M121.53,181.21a1.81,1.81,0,1,1-1.81-1.8A1.81,1.81,0,0,1,121.53,181.21Z"/><path class="a" d="M160.25,181.21a1.81,1.81,0,1,1-1.8-1.8A1.81,1.81,0,0,1,160.25,181.21Z"/><path class="a" d="M199,181.21a1.81,1.81,0,1,1-1.8-1.8A1.81,1.81,0,0,1,199,181.21Z"/><path class="a" d="M237.7,181.21a1.81,1.81,0,1,1-1.81-1.8A1.81,1.81,0,0,1,237.7,181.21Z"/><path class="a" d="M276.42,181.21a1.81,1.81,0,1,1-1.81-1.8A1.81,1.81,0,0,1,276.42,181.21Z"/><path class="a" d="M315.14,181.21a1.81,1.81,0,1,1-1.8-1.8A1.81,1.81,0,0,1,315.14,181.21Z"/><path class="a" d="M353.86,181.21a1.81,1.81,0,1,1-1.8-1.8A1.81,1.81,0,0,1,353.86,181.21Z"/><path class="a" d="M392.59,181.21a1.81,1.81,0,1,1-1.81-1.8A1.81,1.81,0,0,1,392.59,181.21Z"/><path class="a" d="M431.31,181.21a1.81,1.81,0,1,1-1.81-1.8A1.81,1.81,0,0,1,431.31,181.21Z"/><path class="a" d="M470,181.21a1.81,1.81,0,1,1-1.8-1.8A1.81,1.81,0,0,1,470,181.21Z"/><path class="a" d="M663.64,181.21a1.8,1.8,0,1,1-1.8-1.8A1.8,1.8,0,0,1,663.64,181.21Z"/><path class="a" d="M702.37,181.21a1.81,1.81,0,1,1-1.81-1.8A1.81,1.81,0,0,1,702.37,181.21Z"/><path class="a" d="M896,181.21a1.81,1.81,0,1,1-1.8-1.8A1.81,1.81,0,0,1,896,181.21Z"/><path class="a" d="M44.08,218.86a1.81,1.81,0,1,1-1.8-1.8A1.81,1.81,0,0,1,44.08,218.86Z"/><path class="a" d="M82.8,218.86a1.8,1.8,0,1,1-1.8-1.8A1.81,1.81,0,0,1,82.8,218.86Z"/><path class="a" d="M121.53,218.86a1.81,1.81,0,1,1-1.81-1.8A1.81,1.81,0,0,1,121.53,218.86Z"/><path class="a" d="M160.25,218.86a1.81,1.81,0,1,1-1.8-1.8A1.81,1.81,0,0,1,160.25,218.86Z"/><path class="a" d="M199,218.86a1.81,1.81,0,1,1-1.8-1.8A1.81,1.81,0,0,1,199,218.86Z"/><path class="a" d="M237.7,218.86a1.81,1.81,0,1,1-1.81-1.8A1.81,1.81,0,0,1,237.7,218.86Z"/><path class="a" d="M276.42,218.86a1.81,1.81,0,1,1-1.81-1.8A1.81,1.81,0,0,1,276.42,218.86Z"/><path class="a" d="M315.14,218.86a1.81,1.81,0,1,1-1.8-1.8A1.81,1.81,0,0,1,315.14,218.86Z"/><path class="a" d="M353.86,218.86a1.81,1.81,0,1,1-1.8-1.8A1.81,1.81,0,0,1,353.86,218.86Z"/><path class="a" d="M392.59,218.86a1.81,1.81,0,1,1-1.81-1.8A1.81,1.81,0,0,1,392.59,218.86Z"/><path class="a" d="M431.31,218.86a1.81,1.81,0,1,1-1.81-1.8A1.81,1.81,0,0,1,431.31,218.86Z"/><path class="a" d="M702.37,218.86a1.81,1.81,0,1,1-1.81-1.8A1.81,1.81,0,0,1,702.37,218.86Z"/><path class="a" d="M982.9,181.21a1.81,1.81,0,1,1-1.8-1.8A1.81,1.81,0,0,1,982.9,181.21Z"/><path class="a" d="M1099.07,181.21a1.81,1.81,0,1,1-1.8-1.8A1.81,1.81,0,0,1,1099.07,181.21Z"/><path class="a" d="M1137.79,181.21a1.8,1.8,0,1,1-1.8-1.8A1.8,1.8,0,0,1,1137.79,181.21Z"/><path class="a" d="M1176.52,181.21a1.81,1.81,0,1,1-1.81-1.8A1.81,1.81,0,0,1,1176.52,181.21Z"/><path class="a" d="M1215.24,181.21a1.81,1.81,0,1,1-1.8-1.8A1.81,1.81,0,0,1,1215.24,181.21Z"/><path class="a" d="M1254,181.21a1.81,1.81,0,1,1-1.8-1.8A1.81,1.81,0,0,1,1254,181.21Z"/><path class="a" d="M1292.68,181.21a1.8,1.8,0,1,1-1.8-1.8A1.8,1.8,0,0,1,1292.68,181.21Z"/><path class="a" d="M1331.41,181.21a1.81,1.81,0,1,1-1.81-1.8A1.81,1.81,0,0,1,1331.41,181.21Z"/><path class="a" d="M1370.13,181.21a1.81,1.81,0,1,1-1.8-1.8A1.81,1.81,0,0,1,1370.13,181.21Z"/><path class="a" d="M1408.85,181.21a1.81,1.81,0,1,1-1.8-1.8A1.81,1.81,0,0,1,1408.85,181.21Z"/><path class="a" d="M1447.58,181.21a1.81,1.81,0,1,1-1.81-1.8A1.81,1.81,0,0,1,1447.58,181.21Z"/><path class="a" d="M1486.3,181.21a1.81,1.81,0,1,1-1.8-1.8A1.81,1.81,0,0,1,1486.3,181.21Z"/><path class="a" d="M1525,181.21a1.81,1.81,0,1,1-1.8-1.8A1.81,1.81,0,0,1,1525,181.21Z"/><path class="a" d="M982.9,218.86a1.81,1.81,0,1,1-1.8-1.8A1.81,1.81,0,0,1,982.9,218.86Z"/><path class="a" d="M1099.07,218.86a1.81,1.81,0,1,1-1.8-1.8A1.81,1.81,0,0,1,1099.07,218.86Z"/><path class="a" d="M1137.79,218.86a1.8,1.8,0,1,1-1.8-1.8A1.8,1.8,0,0,1,1137.79,218.86Z"/><path class="a" d="M1176.52,218.86a1.81,1.81,0,1,1-1.81-1.8A1.81,1.81,0,0,1,1176.52,218.86Z"/><path class="a" d="M1215.24,218.86a1.81,1.81,0,1,1-1.8-1.8A1.81,1.81,0,0,1,1215.24,218.86Z"/><path class="a" d="M1254,218.86a1.81,1.81,0,1,1-1.8-1.8A1.81,1.81,0,0,1,1254,218.86Z"/><path class="a" d="M1292.68,218.86a1.8,1.8,0,1,1-1.8-1.8A1.8,1.8,0,0,1,1292.68,218.86Z"/><path class="a" d="M1331.41,218.86a1.81,1.81,0,1,1-1.81-1.8A1.81,1.81,0,0,1,1331.41,218.86Z"/><path class="a" d="M1370.13,218.86a1.81,1.81,0,1,1-1.8-1.8A1.81,1.81,0,0,1,1370.13,218.86Z"/><path class="a" d="M1408.85,218.86a1.81,1.81,0,1,1-1.8-1.8A1.81,1.81,0,0,1,1408.85,218.86Z"/><path class="a" d="M1447.58,218.86a1.81,1.81,0,1,1-1.81-1.8A1.81,1.81,0,0,1,1447.58,218.86Z"/><path class="a" d="M1486.3,218.86a1.81,1.81,0,1,1-1.8-1.8A1.81,1.81,0,0,1,1486.3,218.86Z"/><path class="a" d="M1525,218.86a1.81,1.81,0,1,1-1.8-1.8A1.81,1.81,0,0,1,1525,218.86Z"/><path class="a" d="M1562.71,218.86a1.81,1.81,0,1,1-1.8-1.8A1.81,1.81,0,0,1,1562.71,218.86Z"/><path class="a" d="M199,104.35a1.81,1.81,0,1,1-1.8-1.81A1.81,1.81,0,0,1,199,104.35Z"/><path class="a" d="M237.7,104.35a1.81,1.81,0,1,1-1.81-1.81A1.81,1.81,0,0,1,237.7,104.35Z"/><path class="a" d="M315.14,104.35a1.81,1.81,0,1,1-1.8-1.81A1.81,1.81,0,0,1,315.14,104.35Z"/><path class="a" d="M353.86,104.35a1.81,1.81,0,1,1-1.8-1.81A1.81,1.81,0,0,1,353.86,104.35Z"/><path class="a" d="M392.59,104.35a1.81,1.81,0,1,1-1.81-1.81A1.81,1.81,0,0,1,392.59,104.35Z"/><path class="a" d="M431.31,104.35a1.81,1.81,0,1,1-1.81-1.81A1.81,1.81,0,0,1,431.31,104.35Z"/><path class="a" d="M470,104.35a1.81,1.81,0,1,1-1.8-1.81A1.81,1.81,0,0,1,470,104.35Z"/><path class="a" d="M508.75,104.35a1.81,1.81,0,1,1-1.8-1.81A1.8,1.8,0,0,1,508.75,104.35Z"/><path class="a" d="M547.48,104.35a1.81,1.81,0,1,1-1.81-1.81A1.81,1.81,0,0,1,547.48,104.35Z"/><path class="a" d="M586.2,104.35a1.81,1.81,0,1,1-1.8-1.81A1.81,1.81,0,0,1,586.2,104.35Z"/><path class="a" d="M624.92,104.35a1.81,1.81,0,1,1-1.8-1.81A1.81,1.81,0,0,1,624.92,104.35Z"/><path class="a" d="M663.64,104.35a1.8,1.8,0,1,1-1.8-1.81A1.8,1.8,0,0,1,663.64,104.35Z"/><path class="a" d="M702.37,104.35a1.81,1.81,0,1,1-1.81-1.81A1.81,1.81,0,0,1,702.37,104.35Z"/><path class="a" d="M741.09,104.35a1.81,1.81,0,1,1-1.8-1.81A1.81,1.81,0,0,1,741.09,104.35Z"/><path class="a" d="M779.81,104.35a1.8,1.8,0,1,1-1.8-1.81A1.81,1.81,0,0,1,779.81,104.35Z"/><path class="a" d="M818.54,104.35a1.81,1.81,0,1,1-1.81-1.81A1.81,1.81,0,0,1,818.54,104.35Z"/><path class="a" d="M857.26,104.35a1.81,1.81,0,1,1-1.81-1.81A1.81,1.81,0,0,1,857.26,104.35Z"/><path class="a" d="M896,104.35a1.81,1.81,0,1,1-1.8-1.81A1.81,1.81,0,0,1,896,104.35Z"/><path class="a" d="M82.8,142a1.8,1.8,0,1,1-1.8-1.8A1.81,1.81,0,0,1,82.8,142Z"/><path class="a" d="M160.25,142a1.81,1.81,0,1,1-1.8-1.8A1.81,1.81,0,0,1,160.25,142Z"/><path class="a" d="M199,142a1.81,1.81,0,1,1-1.8-1.8A1.81,1.81,0,0,1,199,142Z"/><path class="a" d="M237.7,142a1.81,1.81,0,1,1-1.81-1.8A1.81,1.81,0,0,1,237.7,142Z"/><path class="a" d="M315.14,142a1.81,1.81,0,1,1-1.8-1.8A1.81,1.81,0,0,1,315.14,142Z"/><path class="a" d="M353.86,142a1.81,1.81,0,1,1-1.8-1.8A1.81,1.81,0,0,1,353.86,142Z"/><path class="a" d="M392.59,142a1.81,1.81,0,1,1-1.81-1.8A1.81,1.81,0,0,1,392.59,142Z"/><path class="a" d="M431.31,142a1.81,1.81,0,1,1-1.81-1.8A1.81,1.81,0,0,1,431.31,142Z"/><path class="a" d="M470,142a1.81,1.81,0,1,1-1.8-1.8A1.81,1.81,0,0,1,470,142Z"/><path class="a" d="M508.75,142a1.81,1.81,0,1,1-1.8-1.8A1.8,1.8,0,0,1,508.75,142Z"/><path class="a" d="M624.92,142a1.81,1.81,0,1,1-1.8-1.8A1.81,1.81,0,0,1,624.92,142Z"/><path class="a" d="M663.64,142a1.8,1.8,0,1,1-1.8-1.8A1.8,1.8,0,0,1,663.64,142Z"/><path class="a" d="M702.37,142a1.81,1.81,0,1,1-1.81-1.8A1.81,1.81,0,0,1,702.37,142Z"/><path class="a" d="M779.81,142a1.8,1.8,0,1,1-1.8-1.8A1.81,1.81,0,0,1,779.81,142Z"/><path class="a" d="M818.54,142a1.81,1.81,0,1,1-1.81-1.8A1.81,1.81,0,0,1,818.54,142Z"/><path class="a" d="M857.26,142a1.81,1.81,0,1,1-1.81-1.8A1.81,1.81,0,0,1,857.26,142Z"/><path class="a" d="M896,142a1.81,1.81,0,1,1-1.8-1.8A1.81,1.81,0,0,1,896,142Z"/><path class="a" d="M944.18,104.35a1.81,1.81,0,1,1-1.8-1.81A1.81,1.81,0,0,1,944.18,104.35Z"/><path class="a" d="M982.9,104.35a1.81,1.81,0,1,1-1.8-1.81A1.81,1.81,0,0,1,982.9,104.35Z"/><path class="a" d="M1021.63,104.35a1.81,1.81,0,1,1-1.81-1.81A1.81,1.81,0,0,1,1021.63,104.35Z"/><path class="a" d="M1060.35,104.35a1.81,1.81,0,1,1-1.8-1.81A1.81,1.81,0,0,1,1060.35,104.35Z"/><path class="a" d="M1137.79,104.35a1.8,1.8,0,1,1-1.8-1.81A1.8,1.8,0,0,1,1137.79,104.35Z"/><path class="a" d="M1176.52,104.35a1.81,1.81,0,1,1-1.81-1.81A1.81,1.81,0,0,1,1176.52,104.35Z"/><path class="a" d="M1215.24,104.35a1.81,1.81,0,1,1-1.8-1.81A1.81,1.81,0,0,1,1215.24,104.35Z"/><path class="a" d="M1292.68,104.35a1.8,1.8,0,1,1-1.8-1.81A1.8,1.8,0,0,1,1292.68,104.35Z"/><path class="a" d="M1331.41,104.35a1.81,1.81,0,1,1-1.81-1.81A1.81,1.81,0,0,1,1331.41,104.35Z"/><path class="a" d="M1370.13,104.35a1.81,1.81,0,1,1-1.8-1.81A1.81,1.81,0,0,1,1370.13,104.35Z"/><path class="a" d="M1447.58,104.35a1.81,1.81,0,1,1-1.81-1.81A1.81,1.81,0,0,1,1447.58,104.35Z"/><path class="a" d="M1486.3,104.35a1.81,1.81,0,1,1-1.8-1.81A1.81,1.81,0,0,1,1486.3,104.35Z"/><path class="a" d="M982.9,142a1.81,1.81,0,1,1-1.8-1.8A1.81,1.81,0,0,1,982.9,142Z"/><path class="a" d="M1021.63,142a1.81,1.81,0,1,1-1.81-1.8A1.81,1.81,0,0,1,1021.63,142Z"/><path class="a" d="M1060.35,142a1.81,1.81,0,1,1-1.8-1.8A1.81,1.81,0,0,1,1060.35,142Z"/><path class="a" d="M1099.07,142a1.81,1.81,0,1,1-1.8-1.8A1.81,1.81,0,0,1,1099.07,142Z"/><path class="a" d="M1137.79,142a1.8,1.8,0,1,1-1.8-1.8A1.8,1.8,0,0,1,1137.79,142Z"/><path class="a" d="M1176.52,142a1.81,1.81,0,1,1-1.81-1.8A1.81,1.81,0,0,1,1176.52,142Z"/><path class="a" d="M1215.24,142a1.81,1.81,0,1,1-1.8-1.8A1.81,1.81,0,0,1,1215.24,142Z"/><path class="a" d="M1254,142a1.81,1.81,0,1,1-1.8-1.8A1.81,1.81,0,0,1,1254,142Z"/><path class="a" d="M1292.68,142a1.8,1.8,0,1,1-1.8-1.8A1.8,1.8,0,0,1,1292.68,142Z"/><path class="a" d="M1331.41,142a1.81,1.81,0,1,1-1.81-1.8A1.81,1.81,0,0,1,1331.41,142Z"/><path class="a" d="M1370.13,142a1.81,1.81,0,1,1-1.8-1.8A1.81,1.81,0,0,1,1370.13,142Z"/><path class="a" d="M1408.85,142a1.81,1.81,0,1,1-1.8-1.8A1.81,1.81,0,0,1,1408.85,142Z"/><path class="a" d="M1447.58,142a1.81,1.81,0,1,1-1.81-1.8A1.81,1.81,0,0,1,1447.58,142Z"/><path class="a" d="M1486.3,142a1.81,1.81,0,1,1-1.8-1.8A1.81,1.81,0,0,1,1486.3,142Z"/><path class="a" d="M470,27.48a1.81,1.81,0,1,1-1.8-1.8A1.8,1.8,0,0,1,470,27.48Z"/><path class="a" d="M547.48,27.48a1.81,1.81,0,1,1-1.81-1.8A1.8,1.8,0,0,1,547.48,27.48Z"/><path class="a" d="M586.2,27.48a1.81,1.81,0,1,1-1.8-1.8A1.8,1.8,0,0,1,586.2,27.48Z"/><path class="a" d="M663.64,27.48a1.8,1.8,0,1,1-1.8-1.8A1.79,1.79,0,0,1,663.64,27.48Z"/><path class="a" d="M741.09,27.48a1.81,1.81,0,1,1-1.8-1.8A1.8,1.8,0,0,1,741.09,27.48Z"/><path class="a" d="M779.81,27.48a1.8,1.8,0,1,1-1.8-1.8A1.8,1.8,0,0,1,779.81,27.48Z"/><path class="a" d="M857.26,27.48a1.81,1.81,0,1,1-1.81-1.8A1.8,1.8,0,0,1,857.26,27.48Z"/><path class="a" d="M896,27.48a1.81,1.81,0,1,1-1.8-1.8A1.8,1.8,0,0,1,896,27.48Z"/><path class="a" d="M199,65.13a1.81,1.81,0,1,1-1.8-1.8A1.81,1.81,0,0,1,199,65.13Z"/><path class="a" d="M315.14,65.13a1.81,1.81,0,1,1-1.8-1.8A1.81,1.81,0,0,1,315.14,65.13Z"/><path class="a" d="M392.59,65.13a1.81,1.81,0,1,1-1.81-1.8A1.81,1.81,0,0,1,392.59,65.13Z"/><path class="a" d="M431.31,65.13a1.81,1.81,0,1,1-1.81-1.8A1.81,1.81,0,0,1,431.31,65.13Z"/><path class="a" d="M470,65.13a1.81,1.81,0,1,1-1.8-1.8A1.81,1.81,0,0,1,470,65.13Z"/><path class="a" d="M547.48,65.13a1.81,1.81,0,1,1-1.81-1.8A1.81,1.81,0,0,1,547.48,65.13Z"/><path class="a" d="M586.2,65.13a1.81,1.81,0,1,1-1.8-1.8A1.81,1.81,0,0,1,586.2,65.13Z"/><path class="a" d="M663.64,65.13a1.8,1.8,0,1,1-1.8-1.8A1.8,1.8,0,0,1,663.64,65.13Z"/><path class="a" d="M741.09,65.13a1.81,1.81,0,1,1-1.8-1.8A1.81,1.81,0,0,1,741.09,65.13Z"/><path class="a" d="M779.81,65.13a1.8,1.8,0,1,1-1.8-1.8A1.81,1.81,0,0,1,779.81,65.13Z"/><path class="a" d="M818.54,65.13a1.81,1.81,0,1,1-1.81-1.8A1.81,1.81,0,0,1,818.54,65.13Z"/><path class="a" d="M857.26,65.13a1.81,1.81,0,1,1-1.81-1.8A1.81,1.81,0,0,1,857.26,65.13Z"/><path class="a" d="M896,65.13a1.81,1.81,0,1,1-1.8-1.8A1.81,1.81,0,0,1,896,65.13Z"/><path class="a" d="M1215.24,27.48a1.81,1.81,0,1,1-1.8-1.8A1.8,1.8,0,0,1,1215.24,27.48Z"/><path class="a" d="M1331.41,27.48a1.81,1.81,0,1,1-1.81-1.8A1.8,1.8,0,0,1,1331.41,27.48Z"/><path class="a" d="M944.18,65.13a1.81,1.81,0,1,1-1.8-1.8A1.81,1.81,0,0,1,944.18,65.13Z"/><path class="a" d="M1021.63,65.13a1.81,1.81,0,1,1-1.81-1.8A1.81,1.81,0,0,1,1021.63,65.13Z"/><path class="a" d="M1060.35,65.13a1.81,1.81,0,1,1-1.8-1.8A1.81,1.81,0,0,1,1060.35,65.13Z"/><path class="a" d="M1176.52,65.13a1.81,1.81,0,1,1-1.81-1.8A1.81,1.81,0,0,1,1176.52,65.13Z"/><path class="a" d="M1215.24,65.13a1.81,1.81,0,1,1-1.8-1.8A1.81,1.81,0,0,1,1215.24,65.13Z"/><path class="a" d="M1292.68,65.13a1.8,1.8,0,1,1-1.8-1.8A1.8,1.8,0,0,1,1292.68,65.13Z"/><path class="a" d="M1331.41,65.13a1.81,1.81,0,1,1-1.81-1.8A1.81,1.81,0,0,1,1331.41,65.13Z"/><path class="a" d="M1447.58,65.13a1.81,1.81,0,1,1-1.81-1.8A1.81,1.81,0,0,1,1447.58,65.13Z"/><polyline class="b" points="588.13 370.28 588.13 416.49 454.3 425.31 431.86 421.63 391.99 421.63 369.55 425.31 263.56 418.32"/><path class="b" d="M250.53,417.46l-14.82-1v-71l65.61-14.58s-1.39-7.35,2-7.94a19.64,19.64,0,0,0,4.57-1.19s.79-3.78,4-4.77,5.36-1.79,5.36-1.79,1.39-4.56,4.57-5.16a26.47,26.47,0,0,0,4.17-1l.39-3.77L347.39,300l.4-3.77,4.57-1.39,4,1.19v1.79s9.53-3,12.91-3h9.92l.6-13.11s10.58-8.83,19.86-7.74v-14.3s-2.39-5.56,12.11-5.56h.38c14.5,0,12.12,5.56,12.12,5.56V274c13.9.6,19.85,7.74,19.85,7.74l.6,13.11h9.93c3.37,0,12.9,3,12.9,3V296l4-1.19,4.56,1.39.4,3.77,21.05,5.37.4,3.77a26,26,0,0,0,4.17,1c3.17.6,4.56,5.16,4.56,5.16s2.19.8,5.37,1.79,4,4.77,4,4.77a19.4,19.4,0,0,0,4.56,1.19c3.38.59,2,7.94,2,7.94l65.61,14.58v11"/><path class="b" d="M326,349.38s17.06-2.34,31.44-3.68,51.49-2,63.87-2,47.82,2.67,56.85,3.67,22.4,3,22.4,3"/><polyline class="b" points="391.99 421.63 391.99 350.38 431.67 350.38 431.67 421.63"/><line class="c" x1="392.47" y1="389.51" x2="430.67" y2="389.51"/><line class="c" x1="352.36" y1="294.8" x2="352.36" y2="246.05"/><line class="c" x1="472.41" y1="294.8" x2="472.41" y2="246.05"/><line class="c" x1="412.11" y1="254.09" x2="412.11" y2="201.58"/><path class="b" d="M379.16,294.8s4,.74,9.71,2.41V343.7"/><path class="b" d="M444.68,294.8s-4.65-1.6-11,2.41V343.7"/><ellipse class="c" cx="322.49" cy="318.62" rx="4.51" ry="7.02"/><ellipse class="c" cx="311.91" cy="323.63" rx="3.14" ry="4.88"/><ellipse class="c" cx="304.16" cy="326.65" rx="2.22" ry="3.45"/><ellipse class="c" cx="501.99" cy="318.62" rx="4.51" ry="7.02"/><ellipse class="c" cx="512.58" cy="323.64" rx="3.14" ry="4.88"/><ellipse class="c" cx="520.33" cy="326.65" rx="2.22" ry="3.45"/><polyline class="b" points="706.38 366.7 693.36 324.6 680.84 365.89 671.75 324.83 657.85 363.75 649.29 323.76 634.86 366.95 625 324.83 609.19 364.82 606.52 416.15 614.95 416.15"/><polyline class="b" points="625.95 329.19 637.43 295.31 647.03 330.63"/><polyline class="b" points="650.67 330.37 661.5 295.31 670.14 328.99"/><polyline class="b" points="672.67 329.13 682.88 295.31 692.16 328.34"/><polyline class="b" points="694.32 327.77 704.27 295.31 712.92 328.99"/><path class="b" d="M716.87,416.15h29.22s2.79-24.36,7.83-48.5c3.56-17,9.47-33.63,10.89-43,3.44-22.55.38-34.39,1.53-43.95s2.29-30.57,6.5-30.57H774c4.21,0,5.35,21,6.5,30.57s-1.91,21.4,1.53,43.95c1.42,9.29,7.63,26.84,11.17,43.82,5,24.21,7.56,47.64,7.56,47.64h39.39s1.06-51.33-2.14-58.28-5.88-18.18-5.88-52.4S820.9,176.28,820.9,176.28s9.19-4.65-1.61-13c-8.88,6.08-6.37,10.51-3.53,12.83,0,15-6.8,106.23-6.8,106.23,0-34.22-11.22-129.18-11.22-129.18s9.19-4.65-1.61-13c-8.88,6.07-6.38,10.51-3.53,12.83,0,15-7.16,106.4-7.16,106.4l-.49-81H760.14v81S753,167.88,753,152.91c2.85-2.32,5.35-6.76-3.53-12.83-10.8,8.39-1.61,13-1.61,13s-11.22,95-11.22,129.18c0,0-6.8-91.26-6.8-106.23,2.84-2.32,5.35-6.75-3.53-12.83-10.8,8.39-1.61,13-1.61,13s-11.23,95-11.23,129.19-2.67,45.44-5.88,52.4-2.14,58.28-2.14,58.28H628"/><circle class="c" cx="621.65" cy="382.4" r="7.85"/><circle class="c" cx="644.02" cy="382.4" r="7.85"/><circle class="c" cx="668.73" cy="382.4" r="7.85"/><circle class="c" cx="692.59" cy="382.4" r="7.85"/><path class="b" d="M1007.94,416H992.28s-6.79-24.35-20.37-32.5-23.43-9.85-30.22-9.85h-2.27c-6.79,0-16.63,1.7-30.22,9.85S888.83,416,888.83,416h-31"/><path class="b" d="M857.86,416s36.41-46.42,39.12-50.84,2-18.33,2-18.33h6.79s12.56-31.91,14.26-39.72c-1-9.17-2.38-10.19-.68-11.89s5.09-1.69,5.09-1.69,8.15-41.76,9.51-77.07,1.36-45.5,1.36-45.5-2.72-12.9-2-17,1.36-8.15,6.45-9.17c.34-3.06,1-20.71,1-20.71s.23,17.65.57,20.71c5.1,1,5.78,5.09,6.45,9.17s-2,17-2,17,0,10.19,1.36,45.5,9.5,77.07,9.5,77.07,3.4,0,5.09,1.69.34,2.72-.67,11.89c1.69,7.81,14.26,39.72,14.26,39.72l6.52.24s-.41,13.68,2.3,18.09S1023.26,416,1023.26,416"/><polygon class="b" points="940.67 321.33 946.79 321.33 951.2 346.79 940.67 346.79 940.44 346.79 929.91 346.79 934.33 321.33 940.44 321.33 940.67 321.33"/><polyline class="c" points="900.51 346.69 900.51 282.62 895.67 279.4 895.67 261.69"/><path class="c" d="M851.39,262.49V221.43c0-6.44-7.25-6.44-7.25,0,0,3.22.81,42.67.81,42.67l-2.42,2.42v15.3l-3.22,2.41v80"/><path class="c" d="M849.74,205.93c0,3.22-.77-14.29,4.06-14.29s3.23,16.9,3.23,21.74"/><path class="c" d="M853,191.64s0-12.08,4.83-12.08c2.42,0,1.48,11.26,1.48,11.26"/><path class="c" d="M857,179.56s-.39-11.72,4.44-12.52c.08-5.89-.83-13.89,3.61-14.86,0-7.25-.81-12.88.8-14.49,0-4.83,0-12.89,1.61-16.11,0-6.44,2.42-42.67,2.42-42.67l1.61,42.67s2.41,5.64,1.61,16.11c1.61,4,1.51,7.7,1.51,14.14"/><path class="c" d="M864.27,165.06s-1.36-14.47,6.44-14.49c6.45,0,8.06,7.25,8.06,14.49"/><path class="c" d="M873.13,137.69s-3.22-4-7.25,0"/><path class="c" d="M860.83,184.2s-1.47-13.77,2.64-18.33c4.57-5.08,10.46-5.64,16.1,0,4,4,4.13,12.5,4.13,16.52"/><path class="c" d="M858,202.14s.63-17.2,5.47-21.78c5.11-4.83,15.91-6,20.93,3.22a34.37,34.37,0,0,1,4,17.72"/><path class="c" d="M857.1,208.2s2.34-12.54,8-16.56,12.88-4.84,18.52,1.61c2.65,3,6.44,5.63,6.44,23.35"/><path class="c" d="M856.22,217.4s3.22-10.47,9.66-13.69,12.89-2.41,16.91,1.61A27,27,0,0,1,890.84,219c1,3.84.82,12.35.81,20.94,0,11.26,0,22.54,0,22.54"/><path class="c" d="M890.84,219s4.84-1.61,4.84,8.86v34.62l-39.46-.8"/><path class="c" d="M845,264.91l11.27-3.22V217.4c0-3.22.81-12.08-4-12.08s-4,11.28-4,11.28"/><polyline class="b" points="430.54 274.46 570.64 101.62 713.53 298.58"/><line class="c" x1="570.64" y1="101.62" x2="484.92" y2="302.87"/><path class="b" d="M1130,276.55a44.08,44.08,0,0,1,7-.57,27.5,27.5,0,0,1,6.11.57"/><path class="b" d="M971,337s23.55-.61,44.67,10c14.19-4.83,28.68-9.06,40.45-9.36-3-12.68-9.36-34.71-9.36-34.71s37.43-11.17,74.85,10.26"/><line class="c" x1="1056.15" y1="337.64" x2="1066.94" y2="370.16"/><path class="b" d="M1119.23,369.48l-20.83-53s28.37-8.45,56.44,2.42,54,33.5,75.08,55.53"/><path class="b" d="M1137,313.8s26.26-56.44,93-68.22a171.82,171.82,0,0,1-2.11,20.83"/><path class="b" d="M1234.22,374.91s.44-8.1,8.75-54.17c6.59-36.53,13.11-50.59,23.84-70.93-60.06,11.47-91.75,78.17-91.75,78.17"/><path class="b" d="M1246.59,302.33s29.28-15.4,53.42-19c-7.54,17.21-13.28,34.86-19.61,79.83"/><path class="b" d="M1289.15,313.8s35.92-10.27,58.85-6.64c-12.07,16.9-27.76,42.55-29.88,47.68"/><path class="b" d="M993.67,377.18s4.05-.49,10.8-1.25c17-1.9,51.32-5.5,81-7.2,26.26-1.51,58.56,3.62,78.48,2.71s70.32,3.32,70.32,3.32,19-9.05,23.84-10.26,20.22-.6,20.22-.6,17.21-5.74,29.58-8.76,32.6,4.83,41.65,8.15c-29.88,16-61.57,32.3-61.57,32.3H1027.78"/><path class="b" d="M1130,299.75a44.84,44.84,0,0,1,7-.56,28,28,0,0,1,6.11.56"/><path class="b" d="M949.44,246.52l11.77-2.72V229.92a1.79,1.79,0,0,1,1.77-1.36,1.44,1.44,0,0,1,1.47,1.47v13.13H994V218l-1.13-2.27v-16.3c0-5.2,8.26-23.09,22.41-28.52,1.24-3.39,4.87-4.75,6.22-5.09a82.36,82.36,0,0,0,7.36-6.23s-.11-2.94,2.38-3.17c-.23-.79-.91-1.4-.91-2.26a3.18,3.18,0,0,1,.91-1.92,3,3,0,0,1-1.25-2.38,3.74,3.74,0,0,1,1.47-2.72L1033,135.6l1.71,11.58a3.7,3.7,0,0,1,1.47,2.72,3,3,0,0,1-1.25,2.38,3.18,3.18,0,0,1,.91,1.92c0,.86-.68,1.47-.91,2.26,2.49.23,2.38,3.17,2.38,3.17a82.36,82.36,0,0,0,7.36,6.23c1.36.34,5,1.7,6.22,5.09,14.15,5.43,22.41,23.32,22.41,28.52v16.3l-1.13,2.27v25.12h29.54V230a1.44,1.44,0,0,1,1.47-1.47,1.81,1.81,0,0,1,1.78,1.36V243.8l16.62,3.62V234.14c0-1.28.61-1.73,1.66-1.73a1.62,1.62,0,0,1,1.59,1.73v79"/><line class="c" x1="962.98" y1="228.56" x2="962.98" y2="221.04"/><line class="c" x1="1103.3" y1="228.56" x2="1103.3" y2="221.04"/><line class="c" x1="1123.22" y1="232.3" x2="1123.22" y2="224.78"/><line class="c" x1="1136.69" y1="234.79" x2="1136.69" y2="227.27"/><line class="c" x1="1031.23" y1="156.46" x2="1034.97" y2="156.46"/><line class="c" x1="1031.23" y1="152.28" x2="1034.97" y2="152.28"/><path class="b" d="M1028.85,159.63a38.57,38.57,0,0,1,4.19-.22,42.47,42.47,0,0,1,4.31.22"/><path class="b" d="M992.86,215.77s14.94-8.49,41.54-8.26,38.82,7.47,38.82,7.47"/><path class="b" d="M994.1,218.49s13.7-7.81,40.3-7.59,37.8,6.8,37.8,6.8"/><path class="b" d="M1141.69,305.52l-.61-54.78s2-1.81-.23-2.71c-.23-2.15.91-13.24-4.41-13.36h.39c-5.32.12-4.19,11.21-4.42,13.36-2.26.9-.22,2.71-.22,2.71l-.68,62.71"/><path class="b" d="M1130.83,241.35a39.74,39.74,0,0,1,6-.57,32.87,32.87,0,0,1,5.66.57"/><path class="b" d="M1053.49,301.3V272.7c0-5-3.62-11.54-9.74-14.26a55.48,55.48,0,0,1-11.09-6.79,46.84,46.84,0,0,1-10.71,6.79c-6.11,2.72-9.74,9.28-9.74,14.26v41.2h37.58"/></svg>