<svg xmlns="http://www.w3.org/2000/svg" xmlns:xlink="http://www.w3.org/1999/xlink" viewBox="0 0 810.86 575.06"><defs><style>.a,.d,.e{fill:none;}.b{fill:#ffe161;}.b,.d{fill-rule:evenodd;}.c,.f{fill:#fff;}.d,.e,.f{stroke:#1eb9d5;stroke-miterlimit:10;stroke-width:2px;}.g{clip-path:url(#a);}.h{clip-path:url(#b);}.i{clip-path:url(#c);}.j{clip-path:url(#d);}</style><clipPath id="a"><rect class="a" x="186.2" y="146.29" width="47.12" height="76.91"/></clipPath><clipPath id="b"><rect class="a" x="186.14" y="146.34" width="47.12" height="76.91"/></clipPath><clipPath id="c"><rect class="a" x="213.14" y="156.14" width="20.13" height="33.93"/></clipPath><clipPath id="d"><rect class="a" x="206.99" y="155.72" width="26.29" height="37.22"/></clipPath></defs><title>art-2</title><polyline class="b" points="498.85 180.64 502.02 186.15 479.73 224.76 435.15 224.76 412.86 186.15 435.15 147.53 479.73 147.53 492.76 170.1"/><polyline class="b" points="533.48 250.46 527.46 248.85 516.15 206.66 547.03 175.77 589.22 187.08 600.53 229.27 569.64 260.15 544.98 253.54"/><polyline class="b" points="591.18 106.51 592.78 100.31 636.03 88.21 668.13 119.61 656.98 163.12 613.73 175.21 581.63 143.81 588.15 118.38"/><polyline class="b" points="696.9 259.95 696.32 266.21 656.28 284.64 620.29 259.18 624.35 215.28 664.4 196.85 700.38 222.32 698.01 247.97"/><circle class="c" cx="460.46" cy="184.93" r="12.29"/><circle class="c" cx="557.7" cy="216.47" r="12.29"/><circle class="c" cx="660.18" cy="239.74" r="12.29"/><circle class="c" cx="624.9" cy="134.63" r="12.29"/><polyline class="d" points="506.58 176.25 509.91 182.03 486.54 222.5 439.8 222.5 416.44 182.03 439.8 141.55 486.54 141.55 500.2 165.22"/><path class="d" d="M458.64,170.65a12.41,12.41,0,0,1,4.53-.86,12.24,12.24,0,1,1-11.1,7.08"/><path class="d" d="M495.5,304a12.25,12.25,0,1,1-13.49,2.6,12.09,12.09,0,0,1,4.45-2.85"/><polyline class="d" points="528.64 254.33 522.2 252.61 510.11 207.46 543.15 174.41 588.3 186.51 600.39 231.66 567.34 264.7 540.95 257.63"/><path class="d" d="M566.5,224.4a12.25,12.25,0,1,1,.25-9.05"/><polyline class="d" points="589.61 112.09 591.27 105.63 636.28 93.04 669.69 125.72 658.09 171 613.08 183.58 579.67 150.9 586.46 124.44"/><path class="d" d="M620,149.61a12.08,12.08,0,0,1-3.85-2.55A12.21,12.21,0,1,1,629,149.77"/><polyline class="d" points="700.52 256.56 699.9 263.2 657.45 282.75 619.29 255.75 623.6 209.21 666.05 189.67 704.2 216.67 701.69 243.87"/><path class="d" d="M664.62,224.31a12.24,12.24,0,1,1-12.86,4.83,12,12,0,0,1,3.91-3.56"/><rect class="e" x="269.2" y="70.83" width="448.63" height="271.84" rx="26.94"/><line class="e" x1="525.83" y1="342.66" x2="525.83" y2="400.33"/><line class="e" x1="451.06" y1="352.64" x2="451.06" y2="400.33"/><line class="e" x1="330.03" y1="401.59" x2="647.49" y2="401.59"/><line class="e" x1="269.83" y1="291.33" x2="717.2" y2="291.33"/><path class="f" d="M341.11,202.93h20A13.09,13.09,0,0,1,374.22,216V366.33a13.09,13.09,0,0,1-13.09,13.09H121.86a13.09,13.09,0,0,1-13.09-13.09V216a13.09,13.09,0,0,1,13.09-13.08H318"/><path class="f" d="M271,370.82h81.62a13.75,13.75,0,0,0,13.76-13.76V225.28a13.75,13.75,0,0,0-13.76-13.75H129a13.74,13.74,0,0,0-13.75,13.75V357.06A13.74,13.74,0,0,0,129,370.82H251.63"/><path class="f" d="M238.65,229.5v8.78a5.74,5.74,0,0,1-5.74,5.74H186.53a5.73,5.73,0,0,1-5.74-5.74v-105a5.73,5.73,0,0,1,5.74-5.74h46.38a5.74,5.74,0,0,1,5.74,5.74v70.62"/><polyline class="f" points="185.17 152.52 185.17 145.24 234.26 145.24 234.26 225.11 185.17 225.11 185.17 173.53"/><circle class="f" cx="209.72" cy="234.07" r="4.76"/><polyline class="b" points="216.14 281.6 220.64 286.1 209.1 329.17 166.03 340.71 134.5 309.18 146.04 266.12 189.11 254.58 207.54 273.01"/><polyline class="d" points="211.23 329.87 209.5 336.31 164.36 348.4 131.31 315.35 143.41 270.21 188.55 258.11 221.6 291.16 214.53 317.55"/><g class="g"><polyline class="d" points="266.4 167 269.6 172.56 247.13 211.49 202.18 211.49 179.7 172.56 202.18 133.63 247.13 133.63 260.26 156.39"/></g><g class="h"><polyline class="b" points="269.58 169.77 272.83 175.23 251.08 214.15 206.5 214.77 183.67 176.48 205.42 137.56 250 136.94 263.35 159.32"/></g><circle class="c" cx="178.34" cy="298.4" r="12.29"/><path class="d" d="M181.29,292a12.24,12.24,0,1,1-9-.25"/><g class="i"><circle class="c" cx="227.52" cy="174.8" r="12.29"/></g><g class="j"><path class="d" d="M221.1,161.54a11.84,11.84,0,0,1,4.34-.83,11.71,11.71,0,1,1-10.63,6.78"/></g></svg>