<?xml version="1.0" encoding="utf-8"?>
<!-- Generator: Adobe Illustrator 23.0.0, SVG Export Plug-In . SVG Version: 6.00 Build 0)  -->
<svg version="1.1" id="Layer_1" xmlns="http://www.w3.org/2000/svg" xmlns:xlink="http://www.w3.org/1999/xlink" x="0px" y="0px"
	 viewBox="0 0 810 575" style="enable-background:new 0 0 810 575;" xml:space="preserve">
<style type="text/css">
	.st0{fill:#D6E1ED;}
	.st1{fill:#FFE161;}
	.st2{fill:none;stroke:#FFE161;stroke-width:2;stroke-miterlimit:10;}
	.st3{fill:none;stroke:#1EB9D5;stroke-width:2;stroke-miterlimit:10;}
	.st4{fill:#FFFFFF;}
	.st5{fill:#1EB9D5;}
	.st6{fill-rule:evenodd;clip-rule:evenodd;fill:#1EB9D5;}
</style>
<title>homepic1</title>
<path class="st0" d="M191.1,207.7c0-1-0.8-1.8-1.8-1.8c-1,0-1.8,0.8-1.8,1.8s0.8,1.8,1.8,1.8c0,0,0,0,0,0
	C190.3,209.5,191.1,208.7,191.1,207.7z"/>
<path class="st0" d="M229.9,207.7c0-1-0.8-1.8-1.8-1.8c-1,0-1.8,0.8-1.8,1.8s0.8,1.8,1.8,1.8c0,0,0,0,0,0
	C229.1,209.5,229.9,208.7,229.9,207.7z"/>
<path class="st0" d="M75,207.7c0-1-0.8-1.8-1.8-1.8c-1,0-1.8,0.8-1.8,1.8c0,1,0.8,1.8,1.8,1.8c0,0,0,0,0,0
	C74.2,209.5,75,208.7,75,207.7z"/>
<path class="st0" d="M113.7,207.7c0-1-0.8-1.8-1.8-1.8c-1,0-1.8,0.8-1.8,1.8c0,1,0.8,1.8,1.8,1.8
	C112.9,209.5,113.7,208.7,113.7,207.7C113.7,207.7,113.7,207.7,113.7,207.7z"/>
<path class="st0" d="M152.4,207.7c0-1-0.8-1.8-1.8-1.8s-1.8,0.8-1.8,1.8s0.8,1.8,1.8,1.8l0,0C151.6,209.5,152.4,208.7,152.4,207.7z"
	/>
<path class="st0" d="M229.9,167c0-1-0.8-1.8-1.8-1.8s-1.8,0.8-1.8,1.8s0.8,1.8,1.8,1.8c0,0,0,0,0,0C229,168.8,229.8,168,229.9,167z"
	/>
<path class="st0" d="M113.7,167c0-1-0.8-1.8-1.8-1.8c-1,0-1.8,0.8-1.8,1.8s0.8,1.8,1.8,1.8S113.7,168,113.7,167L113.7,167z"/>
<path class="st0" d="M152.4,167c0-1-0.8-1.8-1.8-1.8c-1,0-1.8,0.8-1.8,1.8s0.8,1.8,1.8,1.8c0,0,0,0,0,0
	C151.6,168.8,152.4,168,152.4,167z"/>
<path class="st0" d="M113.7,129.4c0-1-0.8-1.8-1.8-1.8c-1,0-1.8,0.8-1.8,1.8c0,1,0.8,1.8,1.8,1.8
	C112.9,131.2,113.7,130.4,113.7,129.4C113.7,129.4,113.7,129.4,113.7,129.4z"/>
<path class="st0" d="M310.7,207.7c0-1-0.8-1.8-1.8-1.8s-1.8,0.8-1.8,1.8s0.8,1.8,1.8,1.8l0,0C309.9,209.5,310.7,208.7,310.7,207.7z"
	/>
<path class="st0" d="M349.5,207.7c0-1-0.8-1.8-1.8-1.8s-1.8,0.8-1.8,1.8s0.8,1.8,1.8,1.8l0,0C348.7,209.5,349.5,208.7,349.5,207.7z"
	/>
<path class="st0" d="M272,207.7c0-1-0.8-1.8-1.8-1.8c-1,0-1.8,0.8-1.8,1.8c0,1,0.8,1.8,1.8,1.8c0,0,0,0,0,0
	C271.2,209.5,272,208.7,272,207.7z"/>
<path class="st0" d="M310.7,167c0-1-0.8-1.8-1.8-1.8c-1,0-1.8,0.8-1.8,1.8s0.8,1.8,1.8,1.8c0,0,0,0,0,0
	C309.9,168.8,310.7,168,310.7,167z"/>
<path class="st0" d="M349.5,167c0-1-0.8-1.8-1.8-1.8c-1,0-1.8,0.8-1.8,1.8s0.8,1.8,1.8,1.8c0,0,0,0,0,0
	C348.7,168.8,349.5,168,349.5,167z"/>
<path class="st0" d="M388.2,167c0-1-0.8-1.8-1.8-1.8c-1,0-1.8,0.8-1.8,1.8c0,1,0.8,1.8,1.8,1.8c0,0,0,0,0,0
	C387.4,168.8,388.2,168,388.2,167z"/>
<path class="st0" d="M310.7,129.4c0-1-0.8-1.8-1.8-1.8c-1,0-1.8,0.8-1.8,1.8s0.8,1.8,1.8,1.8l0,0
	C309.9,131.2,310.7,130.4,310.7,129.4z"/>
<path class="st0" d="M388.2,129.4c0-1-0.8-1.8-1.8-1.8s-1.8,0.8-1.8,1.8c0,1,0.8,1.8,1.8,1.8c0,0,0,0,0,0
	C387.4,131.2,388.2,130.4,388.2,129.4z"/>
<path class="st0" d="M662,207.7c0-1-0.8-1.8-1.8-1.8c-1,0-1.8,0.8-1.8,1.8s0.8,1.8,1.8,1.8c0,0,0,0,0,0
	C661.2,209.5,662,208.7,662,207.7z"/>
<path class="st0" d="M700.7,207.7c0-1-0.8-1.8-1.8-1.8c-1,0-1.8,0.8-1.8,1.8s0.8,1.8,1.8,1.8c0,0,0,0,0,0
	C699.9,209.5,700.7,208.7,700.7,207.7z"/>
<path class="st0" d="M584.5,207.7c0-1-0.8-1.8-1.8-1.8c-1,0-1.8,0.8-1.8,1.8c0,1,0.8,1.8,1.8,1.8
	C583.7,209.5,584.5,208.7,584.5,207.7C584.5,207.7,584.5,207.7,584.5,207.7z"/>
<path class="st0" d="M623.2,207.7c0-1-0.8-1.8-1.8-1.8s-1.8,0.8-1.8,1.8s0.8,1.8,1.8,1.8l0,0C622.4,209.5,623.2,208.7,623.2,207.7z"
	/>
<path class="st0" d="M662,167c0-1-0.8-1.8-1.8-1.8s-1.8,0.8-1.8,1.8s0.8,1.8,1.8,1.8c0,0,0,0,0,0C661.2,168.8,662,168,662,167z"/>
<path class="st0" d="M700.7,167c0-1-0.8-1.8-1.8-1.8s-1.8,0.8-1.8,1.8s0.8,1.8,1.8,1.8c0,0,0,0,0,0C699.9,168.8,700.7,168,700.7,167
	z"/>
<path class="st0" d="M700.7,129.4c0-1-0.8-1.8-1.8-1.8s-1.8,0.8-1.8,1.8s0.8,1.8,1.8,1.8c0,0,0,0,0,0
	C699.9,131.2,700.7,130.4,700.7,129.4z"/>
<path class="st0" d="M743.2,207.7c0-1-0.8-1.8-1.8-1.8c-1,0-1.8,0.8-1.8,1.8s0.8,1.8,1.8,1.8c0,0,0,0,0,0
	C742.4,209.5,743.2,208.7,743.2,207.7z"/>
<path class="st0" d="M191.1,324.9c0-1-0.8-1.8-1.8-1.8c-1,0-1.8,0.8-1.8,1.8c0,1,0.8,1.8,1.8,1.8c0,0,0,0,0,0
	C190.3,326.7,191.1,325.9,191.1,324.9z"/>
<path class="st0" d="M75,324.9c0-1-0.8-1.8-1.8-1.8c-1,0-1.8,0.8-1.8,1.8c0,1,0.8,1.8,1.8,1.8c0,0,0,0,0,0
	C74.2,326.7,75,325.9,75,324.9z"/>
<path class="st0" d="M191.1,284.3c0-1-0.8-1.8-1.8-1.8c-1,0-1.8,0.8-1.8,1.8s0.8,1.8,1.8,1.8c0,0,0,0,0,0
	C190.3,286.1,191.1,285.3,191.1,284.3z"/>
<path class="st0" d="M229.9,284.3c0-1-0.8-1.8-1.8-1.8c-1,0-1.8,0.8-1.8,1.8s0.8,1.8,1.8,1.8c0,0,0,0,0,0
	C229.1,286.1,229.9,285.3,229.9,284.3z"/>
<path class="st0" d="M191.1,246.7c0-1-0.8-1.8-1.8-1.8s-1.8,0.8-1.8,1.8s0.8,1.8,1.8,1.8c0,0,0,0,0,0
	C190.3,248.5,191.1,247.7,191.1,246.7z"/>
<path class="st0" d="M229.9,246.7c0-1-0.8-1.8-1.8-1.8s-1.8,0.8-1.8,1.8s0.8,1.8,1.8,1.8c0,0,0,0,0,0
	C229,248.5,229.8,247.7,229.9,246.7z"/>
<path class="st0" d="M75,284.3c0-1-0.8-1.8-1.8-1.8c-1,0-1.8,0.8-1.8,1.8c0,1,0.8,1.8,1.8,1.8c0,0,0,0,0,0
	C74.2,286.1,75,285.3,75,284.3z"/>
<path class="st0" d="M152.4,284.3c0-1-0.8-1.8-1.8-1.8s-1.8,0.8-1.8,1.8s0.8,1.8,1.8,1.8l0,0C151.6,286.1,152.4,285.3,152.4,284.3z"
	/>
<path class="st0" d="M75,246.7c0-1-0.8-1.8-1.8-1.8s-1.8,0.8-1.8,1.8c0,1,0.8,1.8,1.8,1.8c0,0,0,0,0,0C74.2,248.5,75,247.7,75,246.7
	z"/>
<path class="st0" d="M113.7,246.7c0-1-0.8-1.8-1.8-1.8c-1,0-1.8,0.8-1.8,1.8s0.8,1.8,1.8,1.8S113.7,247.7,113.7,246.7L113.7,246.7z"
	/>
<path class="st0" d="M152.4,246.7c0-1-0.8-1.8-1.8-1.8c-1,0-1.8,0.8-1.8,1.8s0.8,1.8,1.8,1.8c0,0,0,0,0,0
	C151.6,248.5,152.4,247.7,152.4,246.7z"/>
<path class="st0" d="M36.2,284.3c0-1-0.8-1.8-1.8-1.8s-1.8,0.8-1.8,1.8c0,1,0.8,1.8,1.8,1.8l0,0C35.4,286.1,36.2,285.3,36.2,284.3z"
	/>
<path class="st0" d="M36.2,246.7c0-1-0.8-1.8-1.8-1.8c-1,0-1.8,0.8-1.8,1.8c0,1,0.8,1.8,1.8,1.8c0,0,0,0,0,0
	C35.4,248.5,36.2,247.7,36.2,246.7z"/>
<path class="st0" d="M310.7,324.9c0-1-0.8-1.8-1.8-1.8c-1,0-1.8,0.8-1.8,1.8c0,1,0.8,1.8,1.8,1.8c0,0,0,0,0,0
	C309.9,326.7,310.7,325.9,310.7,324.9z"/>
<path class="st0" d="M310.7,246.7c0-1-0.8-1.8-1.8-1.8c-1,0-1.8,0.8-1.8,1.8s0.8,1.8,1.8,1.8c0,0,0,0,0,0
	C309.9,248.5,310.7,247.7,310.7,246.7z"/>
<path class="st0" d="M272,284.3c0-1-0.8-1.8-1.8-1.8c-1,0-1.8,0.8-1.8,1.8c0,1,0.8,1.8,1.8,1.8c0,0,0,0,0,0
	C271.2,286.1,272,285.3,272,284.3z"/>
<path class="st0" d="M272,246.7c0-1-0.8-1.8-1.8-1.8c-1,0-1.8,0.8-1.8,1.8c0,1,0.8,1.8,1.8,1.8c0,0,0,0,0,0
	C271.2,248.5,272,247.7,272,246.7z"/>
<path class="st0" d="M584.5,324.9c0-1-0.8-1.8-1.8-1.8s-1.8,0.8-1.8,1.8c0,1,0.8,1.8,1.8,1.8l0,0
	C583.7,326.7,584.5,325.9,584.5,324.9z"/>
<path class="st0" d="M623.2,324.9c0-1-0.8-1.8-1.8-1.8s-1.8,0.8-1.8,1.8c0,1,0.8,1.8,1.8,1.8c0,0,0,0,0,0
	C622.4,326.7,623.2,325.9,623.2,324.9z"/>
<path class="st0" d="M662,284.3c0-1-0.8-1.8-1.8-1.8c-1,0-1.8,0.8-1.8,1.8s0.8,1.8,1.8,1.8c0,0,0,0,0,0
	C661.2,286.1,662,285.3,662,284.3z"/>
<path class="st0" d="M662,246.7c0-1-0.8-1.8-1.8-1.8s-1.8,0.8-1.8,1.8s0.8,1.8,1.8,1.8c0,0,0,0,0,0C661.2,248.5,662,247.7,662,246.7
	z"/>
<path class="st0" d="M700.7,246.7c0-1-0.8-1.8-1.8-1.8s-1.8,0.8-1.8,1.8s0.8,1.8,1.8,1.8c0,0,0,0,0,0
	C699.9,248.5,700.7,247.7,700.7,246.7z"/>
<path class="st0" d="M623.2,284.3c0-1-0.8-1.8-1.8-1.8s-1.8,0.8-1.8,1.8s0.8,1.8,1.8,1.8l0,0C622.4,286.1,623.2,285.3,623.2,284.3z"
	/>
<path class="st0" d="M584.5,246.7c0-1-0.8-1.8-1.8-1.8c-1,0-1.8,0.8-1.8,1.8c0,1,0.8,1.8,1.8,1.8l0,0
	C583.7,248.5,584.5,247.7,584.5,246.7z"/>
<path class="st0" d="M743.2,324.9c0-1-0.8-1.8-1.8-1.8c-1,0-1.8,0.8-1.8,1.8c0,1,0.8,1.8,1.8,1.8c0,0,0,0,0,0
	C742.4,326.7,743.2,325.9,743.2,324.9z"/>
<path class="st0" d="M781.9,284.3c0-1-0.8-1.8-1.8-1.8s-1.8,0.8-1.8,1.8s0.8,1.8,1.8,1.8l0,0C781.1,286.1,781.9,285.3,781.9,284.3z"
	/>
<path class="st0" d="M781.9,246.7c0-1-0.8-1.8-1.8-1.8c-1,0-1.8,0.8-1.8,1.8s0.8,1.8,1.8,1.8c0,0,0,0,0,0
	C781.1,248.5,781.9,247.7,781.9,246.7z"/>
<path class="st0" d="M743.2,284.3c0-1-0.8-1.8-1.8-1.8c-1,0-1.8,0.8-1.8,1.8s0.8,1.8,1.8,1.8c0,0,0,0,0,0
	C742.4,286.1,743.2,285.3,743.2,284.3z"/>
<path class="st0" d="M743.2,246.7c0-1-0.8-1.8-1.8-1.8s-1.8,0.8-1.8,1.8s0.8,1.8,1.8,1.8c0,0,0,0,0,0
	C742.4,248.5,743.2,247.7,743.2,246.7z"/>
<path class="st1" d="M424.4,109c7.4-16.2,16.8-20.4,41.4-13.2c3.5,1,7,2,10.6,3.1l39.5,11.9c32.7,10,62.8,19.5,71.6,22.6
	c20.2,7.2,34.2,13,25.3,40.7c-12.8,39.8-96,306.1-99.8,319.5c-5.9,21-16.4,30.8-37.6,24.3L422,502.3c-36.2-10.3-76.2-21.6-82.6-24.2
	c-10.2-4.1-28.4-12.7-21.2-36.6c14-46.5,55-171.2,55-171.2L424.4,109z"/>
<path class="st1" d="M375.8,247.3c0,0,32.1-101.6,38.4-122.4c2-7.1,4.4-14,7.3-20.7"/>
<path class="st2" d="M599.7,216.7c0,0,22.2-1.9,20.8,20.8s-33.4,25.3-33.4,25.3"/>
<path class="st2" d="M582.9,273.3c0,0,22.2-1.9,20.8,20.8s-35.1,25.4-35.1,25.4"/>
<path class="st2" d="M564.4,334.2c0,0,22.2-1.9,20.8,20.8s-35.1,25.4-35.1,25.4"/>
<path class="st2" d="M546.2,395c0,0,22.2-1.9,20.8,20.8s-35.8,25.3-35.8,25.3"/>
<path class="st2" d="M376.7,483.8c0,0-86.4,38.1-175.6,49.4V330.6c0,0,59.4-25.4,98.8-58.4"/>
<path class="st3" d="M423.2,496.5c-37.1-10.5-78-22.1-84.5-24.7c-10.5-4.2-29-13-21.7-37.4c14.3-47.5,52.1-165,52.1-165"/>
<path class="st3" d="M515.1,106c33.5,10.2,64.3,20,73.2,23.1c20.6,7.3,35,13.3,25.9,41.6c-13.1,40.7-94,303.1-97.9,316.7
	c-6.1,21.5-16.8,31.5-38.5,24.8"/>
<path class="st3" d="M421.6,104.2c7.5-16.6,17.2-20.9,42.3-13.5l10.8,3.2"/>
<path class="st3" d="M377,244.4c0,0,30.9-98.7,37.2-119.4c2-7.1,4.4-14,7.3-20.7"/>
<path class="st4" d="M528,421l79.4-254.2c3.5-11.1-2.1-22.6-12.4-25.8l-37.5-11.7l-11.7,14.4l-55.2-17.3l-0.3-18.2l-37.7-11.8
	c-10.3-3.2-21.4,3.1-24.9,14.2L326.1,436c-3.5,11,2.1,22.6,12.4,25.8L481,506.3c10.3,3.2,21.4-3.1,24.9-14.2l7.7-24.6"/>
<line class="st3" x1="499.2" y1="118.8" x2="531.4" y2="128.1"/>
<circle class="st5" cx="542.6" cy="131" r="3.2"/>
<path class="st2" d="M326.1,250.1c10.8-9.1,32.7-27.6,47.5-10.3c12.6,14.7-4.2,30.2-14.7,38.3s-57,42.6-77.6,54.7
	c-12.7,7.4-5.1,21.3,11.5,15.7c15.7-5.2,39.9-20.4,39.9-20.4"/>
<path class="st6" d="M491.4,268.6l8.5,16.1l-35.5-11.3l0.9-2.8l0.8-2.4l0.6-2l3.6-11.4l0.4-1.4l4.8-15l9,17.1
	c6.1-3,8.6-10.3,5.6-16.4c-3-6.1-10.3-8.6-16.4-5.6c-2.9,1.4-5.2,4-6.2,7.1l0,0v0.1l-7.3,23l-2.4,7.5l-14.1-4.5l9.7-30.5
	c4.5-14.2,19.8-22.1,34-17.6c14.2,4.5,22.1,19.8,17.6,34C502.8,259.7,497.9,265.4,491.4,268.6L491.4,268.6z"/>
<path d="M441.6,280.9c0.1-0.6,0.1-1.2,0-1.9c-0.1-0.9-0.4-1.8-0.8-2.7c-0.4-1-1-1.9-1.7-2.6c-0.7-0.8-1.7-1.4-2.7-1.8
	c-1.9-0.6-3.8-0.9-5.8-1c-2.5-0.1-5,0.1-7.4,0.6l-1.4,0.3c-0.5,0.1-1.1,0.3-1.6,0.5c-0.5,0.2-1,0.5-1.4,0.8
	c-0.4,0.3-0.7,0.7-0.8,1.1c-0.1,0.3-0.1,0.6-0.1,1c0,0.4,0.1,0.8,0.2,1.2c0.1,0.4,0.3,0.8,0.6,1.1c0.3,0.3,0.6,0.6,1,0.7
	c0.2,0.1,0.5,0,0.5-0.2c0.1-0.2,0.2-0.4,0.3-0.7c0.1-0.2,0.1-0.4,0.1-0.5c0-0.3,0.1-0.5,0.1-0.8c0-0.3,0.1-0.6,0.1-0.9
	s0.1-0.5,0.1-0.6c0.2-0.5,0.7-0.9,1.3-1.1c0.8-0.3,1.6-0.5,2.4-0.6c0.9-0.1,1.8-0.2,2.7-0.2c0.8,0,1.5,0.1,2.2,0.3l0.2,0.1
	c0,0,0.1,0.1,0.1,0.2c0,0.1,0.1,0.2,0.1,0.3c-0.5,0.7-1,1.5-1.4,2.3c-0.5,0.9-1,2-1.4,3.1s-0.9,2.3-1.4,3.5s-0.9,2.4-1.3,3.6
	s-0.8,2.3-1.1,3.3l-0.8,2.6c-0.2,0.8-0.4,1.4-0.6,1.9c-0.1,0.4-0.2,0.8-0.2,1.3c0,0.3,0,0.5,0.1,0.8c0.1,0.2,0.3,0.3,0.5,0.4
	l0.6,0.2c0.3,0.1,0.6,0.2,1,0.2c0.3,0.1,0.7,0.1,1,0.1c0.3,0,0.5,0,0.8-0.1c-0.2-0.1-0.4-0.4-0.3-0.6c0-0.2,0-0.3,0.1-0.5l1.3-4.1
	l0.9-2.7c0.1-0.5,0.3-1,0.6-1.5c0-0.1,0.2-0.1,0.4-0.1l0.6,0.1c0.5,0.1,1,0.4,1.3,0.8c0.3,0.4,0.4,1,0.3,1.5
	c-0.1,0.9-0.2,1.8-0.4,2.7c-0.2,1.1-0.5,2.6-0.9,4.4c-0.2,0.8-0.1,1.6,0.3,2.2c0.4,0.6,1,1,1.7,1.2c0.7,0.3,1.5,0.3,2.2,0.1
	c0.5-0.1,1-0.5,1.2-1.1c0-0.1,0-0.2,0-0.2c0-0.1,0-0.1,0-0.2c-0.2,0.2-0.4,0.3-0.6,0.4c-0.2,0.1-0.5,0.1-0.7,0
	c-0.2-0.1-0.4-0.3-0.4-0.6c0-0.5,0-0.9,0.1-1.4c0.1-0.5,0.2-1.1,0.4-1.8s0.3-1.3,0.5-2c0.1-0.6,0.2-1.2,0.3-1.9c0-0.5,0-1-0.1-1.5
	c-0.2-0.7-0.6-1.3-1.1-1.8c-0.5-0.4-1-0.9-1.5-1.2c0.9,0.1,1.9,0.1,2.8-0.2c2-0.5,3.8-1.6,5.2-3.1
	C440.7,282.8,441.2,281.9,441.6,280.9L441.6,280.9z M438.9,279.3c-0.3,0.8-0.7,1.5-1.2,2.1c-0.6,0.8-1.3,1.4-2.1,2
	c-0.8,0.6-1.7,1-2.6,1.3c-0.8,0.3-1.7,0.3-2.6,0c-0.5-0.2-0.8-0.3-0.9-0.4c-0.1-0.2-0.1-0.5,0-0.7l2.7-8.5c0.1-0.5,0.3-0.9,0.6-1.3
	c0.2-0.2,0.4-0.3,0.7-0.3c0.5,0.1,0.8,0.2,1,0.3l0.3,0.1c1.3,0.4,2.5,1.1,3.5,2.1C439.1,277,439.3,278.2,438.9,279.3L438.9,279.3z
	 M449.3,295.8l0.1-0.3c0.1-0.4,0-0.7-0.4-0.8c-0.1-0.1-0.3,0-0.4,0.1c-0.2,0.2-0.3,0.4-0.4,0.6c-0.3,0.5-0.6,1-0.9,1.5
	c-0.3,0.5-0.7,0.9-1.1,1.3c-0.4,0.3-0.9,0.6-1.5,0.7c-0.6,0.1-1.3,0.1-1.9-0.1c-0.5-0.1-0.9-0.4-1.2-0.8c-0.3-0.3-0.5-0.7-0.6-1.1
	c-0.1-0.4-0.2-0.7-0.2-1.1c0-0.3,0-0.5,0.1-0.8l0.3-1c0.2,0.1,0.3,0.2,0.5,0.3c0.1,0.1,0.3,0.1,0.5,0.2c0.6,0.2,1.4,0.2,2,0
	c0.7-0.2,1.3-0.6,1.8-1.1c0.6-0.5,1-1.1,1.5-1.7c0.4-0.6,0.7-1.2,0.9-1.8l0.1-0.5c0.1-0.4,0.1-0.9,0.1-1.3c0-0.4-0.2-0.9-0.4-1.2
	c-0.2-0.4-0.5-0.7-0.8-1c-0.3-0.3-0.7-0.5-1.2-0.7c-0.9-0.3-1.8-0.2-2.6,0.2c-0.9,0.4-1.6,1-2.3,1.7c-0.7,0.8-1.3,1.6-1.8,2.6
	c-0.5,0.9-0.9,1.8-1.2,2.7c-0.3,0.8-0.5,1.7-0.5,2.6c-0.1,0.8,0,1.6,0.3,2.4c0.2,0.7,0.6,1.4,1.2,1.9c0.6,0.6,1.4,1,2.2,1.3
	c0.9,0.3,1.9,0.4,2.8,0.2c0.8-0.2,1.6-0.6,2.3-1.1c0.7-0.5,1.2-1.1,1.7-1.8c0.4-0.6,0.8-1.2,1-1.9L449.3,295.8z M446.8,288.8
	l-0.1,0.2c-0.1,0.4-0.3,0.9-0.6,1.3c-0.3,0.5-0.6,1-1,1.4c-0.3,0.4-0.8,0.8-1.2,1c-0.4,0.3-0.9,0.3-1.4,0.1h-0.2
	c-0.2-0.1-0.3-0.2-0.3-0.3c0-0.2,0-0.4,0.1-0.5v-0.1c0.1-0.3,0.3-0.7,0.5-1c0.3-0.6,0.6-1.1,1-1.6c0.4-0.5,0.8-1,1.3-1.3
	c0.4-0.3,0.9-0.5,1.4-0.3c0.3,0.1,0.5,0.3,0.5,0.5C446.8,288.4,446.8,288.7,446.8,288.8L446.8,288.8z M454.3,302.5
	c-0.1,0.3-0.3,0.5-0.5,0.7c-0.3,0.2-0.7,0.3-1,0.3c-0.4,0.1-0.7,0.1-1.1,0.1c-0.3,0-0.6-0.1-0.9-0.1c-0.5-0.2-0.9-0.3-1.3-0.6
	c-0.4-0.2-0.8-0.5-1.1-0.9c-0.3-0.6-0.5-1.2-0.5-1.8c0-0.9,0-1.8,0.2-2.7c0.2-1,0.4-2.1,0.8-3.3s0.7-2.4,1.1-3.7
	c0.2-0.5,0.4-1.1,0.6-1.8l0.8-2c0.3-0.7,0.6-1.4,0.9-2.1s0.6-1.4,0.9-2c0.2-0.4,0.5-0.9,0.7-1.4s0.5-1,0.8-1.4
	c0.2-0.4,0.5-0.8,0.8-1.2c0.2-0.3,0.5-0.5,0.8-0.7c0.3-0.1,0.6-0.2,0.9-0.1c0.3,0,0.6,0.1,0.9,0.2c0.5,0.1,0.9,0.4,1.2,0.9
	c0.3,0.4,0.4,0.9,0.4,1.4c0,0.6,0,1.2-0.2,1.8c-0.2,0.7-0.3,1.4-0.6,2.1c-0.4,1.1-0.8,2.3-1.3,3.6c-0.5,1.3-1.1,2.6-1.7,3.8
	c-0.6,1.2-1.4,2.4-2.2,3.5c-0.8,1.1-1.7,2-2.8,2.9c-0.1,0.4-0.2,0.8-0.2,1.2c-0.1,0.4-0.1,0.9-0.1,1.4c0,0.4,0,0.8,0.2,1.1
	c0.1,0.3,0.3,0.6,0.6,0.6c0.2,0.1,0.5,0.1,0.8,0c0.2-0.1,0.4-0.2,0.6-0.3c0.2-0.1,0.4-0.2,0.5-0.3c0.2-0.1,0.4-0.1,0.6,0
	c0.2,0,0.4,0.2,0.4,0.4C454.4,302.1,454.4,302.3,454.3,302.5L454.3,302.5z M457.1,284.4c0.1-0.2,0.2-0.5,0.3-0.9
	c0.1-0.3,0.2-0.7,0.2-1c0-0.3,0-0.6,0-0.9c0-0.3-0.1-0.4-0.3-0.5s-0.5,0.2-0.9,0.8c-0.5,0.8-0.9,1.7-1.2,2.6
	c-0.4,1.1-0.9,2.3-1.4,3.7s-1,2.8-1.4,4.2l-0.4,1.3c-0.1,0.4-0.2,0.8-0.3,1.2c1.3-1.5,2.4-3.3,3.3-5.1
	C455.8,288.1,456.5,286.3,457.1,284.4L457.1,284.4z M469.4,296.9c-0.2,0.2-0.3,0.3-0.5,0.5c-0.2,0.2-0.4,0.5-0.6,0.7
	c-0.3,0.3-0.5,0.5-0.8,0.8c-0.4,0.3-0.7,0.5-1.2,0.6c0.1-0.4,0.2-0.8,0.3-1.2c0.1-0.4,0.2-0.7,0.2-1.1c0.1-0.6,0.2-1.3,0.3-1.9
	c0.1-0.5,0-1-0.1-1.5c-0.2-0.5-0.4-0.9-0.6-1.4c-0.2-0.5-0.5-0.9-0.8-1.4c-0.3-0.4-0.6-0.8-0.9-1.1c-0.3-0.3-0.7-0.5-1.1-0.7
	c-0.4-0.1-0.7-0.2-1.1-0.1c-0.5,0-0.9,0.1-1.3,0.4c-0.5,0.3-1,0.8-1.5,1.2c-0.6,0.6-1.1,1.2-1.6,1.9c-0.5,0.8-1,1.6-1.5,2.4
	c-0.5,0.8-0.8,1.7-1.1,2.6c-0.2,0.5-0.3,1.1-0.4,1.6c-0.1,0.6-0.1,1.2-0.1,1.7c0,0.6,0.2,1.2,0.4,1.8c0.3,0.6,0.6,1.2,1.1,1.7
	c0.2,0.2,0.4,0.4,0.6,0.6c0.2,0.2,0.5,0.4,0.7,0.6c0.3,0.2,0.5,0.3,0.8,0.5c0.2,0.1,0.5,0.2,0.7,0.3c0.6,0.2,1.3,0.2,1.9,0
	c0.6-0.2,1.2-0.6,1.7-1c0.5-0.4,1-0.9,1.4-1.4c0.3-0.4,0.6-0.8,0.8-1.3c0.1-0.1,0.1-0.2,0.2-0.4c0.1-0.2,0.2-0.4,0.3-0.8
	c0.3-0.1,0.6-0.2,0.9-0.4c0.3-0.1,0.6-0.3,0.9-0.5c0.5-0.4,1-0.8,1.5-1.2c0.5-0.5,0.9-1.2,1.1-1.9c0-0.1,0.1-0.3,0-0.4
	c0-0.1-0.1-0.3-0.2-0.3C469.8,296.7,469.6,296.8,469.4,296.9L469.4,296.9z M464.3,298.8L464.3,298.8l-0.2,0.7c0,0.1-0.3,0.2-0.8,0.3
	c-0.6,0.1-1.3,0-1.8-0.2c-0.8-0.2-1.4-0.6-1.8-1.3c-0.2-0.8-0.2-1.6,0.1-2.3c0.2-0.6,0.4-1.1,0.8-1.6c0.3-0.5,0.7-1,1.1-1.4
	c0.4-0.4,0.8-0.6,1.3-0.8c0.4-0.2,0.8-0.2,1.2-0.1c0.4,0.1,0.6,0.4,0.8,0.7c0.2,0.4,0.3,0.8,0.3,1.2c0,0.5,0,1-0.1,1.5
	c-0.1,0.5-0.2,1-0.3,1.5s-0.2,0.9-0.3,1.2S464.3,298.7,464.3,298.8L464.3,298.8z M463.1,301.7c-0.1,0.3-0.3,0.6-0.5,0.9
	c-0.2,0.3-0.5,0.6-0.8,0.9c-0.3,0.2-0.7,0.4-1.2,0.5c-0.5,0.1-1,0-1.5-0.1c-0.4-0.1-0.7-0.3-1-0.6c-0.2-0.2-0.4-0.5-0.5-0.8
	c-0.1-0.3-0.1-0.6-0.1-0.9c0-0.3,0.1-0.6,0.2-0.9l0.3-0.8c0.3,0.4,0.6,0.7,1,1c0.5,0.3,1,0.5,1.5,0.6c0.4,0.1,0.9,0.2,1.3,0.3
	C462.3,301.8,462.7,301.8,463.1,301.7L463.1,301.7z M481.6,307.9c-0.2,0.4-0.5,0.8-0.8,1.1c-0.3,0.4-0.7,0.8-1.2,1.1
	c-0.4,0.3-0.9,0.6-1.4,0.7c-0.5,0.2-1,0.2-1.5,0c-0.7-0.2-1.3-0.8-1.7-1.5c-0.4-0.8-0.5-1.8-0.2-2.7l-1,1.2
	c-0.3,0.4-0.7,0.8-1.2,1.2c-0.4,0.3-0.9,0.6-1.4,0.8c-0.5,0.2-1,0.2-1.5,0c-0.1,0-0.2-0.1-0.3-0.1l-0.2-0.2
	c-0.1-0.1-0.2-0.1-0.3-0.2c-0.1-0.1-0.3-0.1-0.4-0.2c-0.5-0.2-1-0.5-1.3-1c-0.3-0.5-0.5-1.1-0.5-1.8c-0.1-0.7,0-1.4,0.1-2.1
	c0.1-0.7,0.3-1.3,0.5-2c0.4-1.4,1-2.8,1.6-4.1c0.5-1.2,1.1-2.2,1.9-3.2c0.6-0.8,1.3-1.5,2.2-2c0.7-0.4,1.6-0.5,2.4-0.2
	c0.4,0.1,0.7,0.3,1.1,0.5c0.2,0.2,0.4,0.3,0.6,0.5l0.6,0.6c0.3,0.3,0.6,0.5,1,0.6c0.4,0.4,0.6,0.9,0.8,1.4c0.1,0.5,0.1,1,0,1.4
	c-0.1,0.5-0.2,1-0.4,1.5c-0.2,0.5-0.3,1-0.4,1.5c0,0,0,0.1,0.1,0.2l0.3,0.3c0.1,0.1,0.2,0.2,0.3,0.4c0.1,0.2,0.1,0.3,0,0.5l0,0.1
	c-0.4,0.5-0.7,1-1,1.5c-0.2,0.5-0.4,1-0.6,1.7c-0.1,0.4-0.2,0.7-0.3,1.1c-0.1,0.4-0.1,0.8-0.2,1.2c0,0.3,0,0.7,0.1,1
	c0.1,0.3,0.3,0.5,0.5,0.5c0.3,0.1,0.7,0,0.9-0.2c0.3-0.2,0.6-0.5,0.9-0.8c0.3-0.3,0.5-0.7,0.8-1c0.2-0.3,0.3-0.5,0.5-0.8
	c0.1-0.3,0.3-0.4,0.5-0.3c0.1,0.1,0.2,0.2,0.3,0.3c0.1,0.3,0,0.5-0.1,0.8l-0.1,0.3C481.7,307.8,481.6,307.9,481.6,307.9L481.6,307.9
	z M476.7,299.9c0.1-0.3,0.2-0.7,0.2-1c0.1-0.4,0.1-0.7,0.1-1.1c0-0.4-0.1-0.7-0.3-1c-0.2-0.3-0.5-0.6-0.9-0.6
	c-0.7-0.2-1.5-0.1-2,0.4c-0.7,0.5-1.2,1.2-1.7,1.9c-0.5,0.8-0.9,1.6-1.3,2.4c-0.4,0.9-0.6,1.6-0.8,2.1c-0.1,0.4-0.3,0.9-0.4,1.4
	c-0.1,0.5-0.2,1.1-0.3,1.6c-0.1,0.5-0.1,0.9,0,1.4c0,0.3,0.2,0.6,0.5,0.7c0.6,0.2,1.4,0.1,1.9-0.3c0.6-0.5,1.1-1.1,1.5-1.8
	c0.5-0.8,0.9-1.6,1.3-2.5c0.4-0.9,0.7-1.8,1.1-2.5c0.2-0.4,0.4-0.6,0.6-0.7s0.3-0.1,0.3-0.1L476.7,299.9L476.7,299.9z M496.1,310
	l0.2-0.6c0.1-0.3,0.2-0.6,0.2-0.8c0-0.3-0.1-0.5-0.3-0.5c-0.2-0.1-0.4-0.1-0.5,0.1c-0.1,0.1-0.2,0.3-0.3,0.5
	c-0.5,1.3-1.2,2.5-2.1,3.6c-0.4,0.6-1.2,0.9-2,0.7c-0.3-0.1-0.5-0.3-0.6-0.7c-0.1-0.4-0.1-0.8,0-1.2c0.1-0.6,0.2-1.1,0.4-1.7
	c0.2-0.6,0.4-1.3,0.6-2l1.2-3.7c0.5-1.7,1.1-3.2,1.6-4.7c0.5-1.5,1-2.8,1.5-3.9s0.8-2,1.1-2.7s0.5-1.1,0.5-1.2
	c0.1-0.3,0-0.6-0.2-0.8c-0.4-0.2-0.8-0.4-1.3-0.5c-0.3-0.1-0.7-0.2-1.1-0.3c-0.4-0.1-0.9-0.1-1.3-0.1c0.1,0.2,0.1,0.4,0.1,0.6
	c0,0.3,0,0.6,0,0.8c-0.1,0.4-0.1,0.8-0.2,1.2c-0.1,0.5-0.3,1-0.5,1.6l-0.4,1.2c-0.2,0.5-0.4,1.1-0.6,1.7s-0.4,1.2-0.6,1.9
	s-0.4,1.2-0.6,1.6l-1-0.8c-0.5-0.4-1-0.7-1.6-0.8c-0.5-0.2-1.1-0.1-1.6,0.1c-0.6,0.3-1.1,0.6-1.6,1.1c-0.5,0.5-1,1.1-1.5,1.7
	c-0.5,0.6-0.9,1.2-1.2,1.8c-0.3,0.5-0.6,1-0.9,1.6c-0.2,0.3-0.3,0.6-0.4,0.9l-0.2,0.6c-0.1,0.3-0.2,0.6-0.3,1.1
	c-0.1,0.5-0.2,1-0.2,1.6c0,0.6,0.1,1.2,0.2,1.7c0.2,0.6,0.5,1.2,0.9,1.6c0.3,0.3,0.6,0.6,1,0.9c0.3,0.2,0.6,0.4,1,0.5
	c0.5,0.2,1,0.2,1.4,0c0.4-0.2,0.8-0.4,1.2-0.7c0.4-0.3,0.7-0.7,1-1.1c0.3-0.4,0.5-0.8,0.8-1.2l0.1-0.2c-0.1,0.9,0.1,1.8,0.5,2.6
	c0.5,0.7,1.2,1.3,2,1.5c0.7,0.2,1.4,0.2,2,0c0.6-0.3,1.2-0.7,1.7-1.1c0.5-0.5,0.9-1.1,1.3-1.7C495.6,311.1,495.9,310.6,496.1,310
	L496.1,310z M490.1,302.3l-0.5,1.3c-0.1,0.4-0.4,0.9-0.6,1.5s-0.6,1.3-1,1.9s-0.8,1.4-1.2,2c-0.4,0.6-0.8,1.2-1.2,1.8
	c-0.3,0.5-0.7,0.9-1.2,1.2c-0.3,0.3-0.7,0.4-1,0.3c-0.3-0.1-0.5-0.3-0.6-0.6c-0.1-0.3-0.1-0.7-0.1-1c0-0.4,0.1-0.8,0.2-1.2
	c0.1-0.4,0.2-0.7,0.3-1c0.3-0.9,0.6-1.8,1-2.6c0.4-0.9,0.9-1.8,1.5-2.6c0.5-0.7,1-1.4,1.7-1.9c0.4-0.4,1-0.6,1.6-0.5
	c0.2,0.1,0.3,0.1,0.4,0.2c0.1,0.1,0.3,0.3,0.4,0.4c0.1,0.1,0.2,0.3,0.3,0.4C490.1,302.1,490.1,302.2,490.1,302.3L490.1,302.3z
	 M500.6,317.2c-0.1,0.3-0.3,0.5-0.6,0.7c-0.3,0.2-0.6,0.3-1,0.3c-0.4,0.1-0.7,0.1-1.1,0.1c-0.3,0-0.6-0.1-0.9-0.1
	c-0.5-0.2-0.9-0.3-1.3-0.6c-0.4-0.2-0.8-0.5-1.1-0.9c-0.3-0.6-0.5-1.2-0.5-1.8c0-0.9,0-1.8,0.2-2.7c0.2-1.1,0.4-2.2,0.8-3.3
	c0.3-1.2,0.7-2.4,1.1-3.7c0.2-0.5,0.4-1.1,0.6-1.8c0.2-0.6,0.5-1.3,0.8-2s0.6-1.4,0.9-2.1l0.9-2c0.2-0.4,0.5-0.9,0.7-1.4
	s0.5-1,0.8-1.4c0.2-0.4,0.5-0.8,0.8-1.2c0.2-0.3,0.5-0.5,0.7-0.7c0.3-0.1,0.6-0.2,0.9-0.1c0.3,0,0.6,0.1,0.9,0.2
	c0.5,0.1,0.9,0.4,1.2,0.9c0.3,0.4,0.4,0.9,0.4,1.4c0,0.6,0,1.2-0.2,1.8c-0.1,0.7-0.3,1.4-0.6,2.1c-0.4,1.1-0.8,2.3-1.3,3.6
	c-0.5,1.3-1.1,2.6-1.7,3.8c-0.6,1.2-1.4,2.4-2.2,3.5c-0.8,1.1-1.7,2-2.8,2.9c-0.1,0.4-0.2,0.8-0.2,1.2c-0.1,0.4-0.1,0.9-0.1,1.4
	c0,0.4,0.1,0.8,0.2,1.1c0.1,0.3,0.3,0.6,0.6,0.6c0.2,0.1,0.5,0.1,0.8,0c0.2-0.1,0.4-0.2,0.6-0.3c0.2-0.1,0.4-0.2,0.5-0.3
	c0.2-0.1,0.4-0.1,0.6,0c0.2,0.1,0.4,0.2,0.4,0.4C500.7,316.8,500.7,317,500.6,317.2L500.6,317.2z M503.4,299.1
	c0.1-0.2,0.2-0.5,0.3-0.9c0.1-0.3,0.2-0.7,0.2-1c0-0.3,0-0.6,0-0.9c0-0.3-0.1-0.4-0.3-0.5s-0.5,0.2-0.9,0.8
	c-0.5,0.8-0.9,1.7-1.2,2.6c-0.4,1.1-0.9,2.3-1.4,3.7s-1,2.8-1.4,4.2l-0.4,1.3c-0.1,0.4-0.2,0.8-0.3,1.2c1.3-1.5,2.5-3.3,3.3-5.1
	C502.1,302.8,502.8,301,503.4,299.1L503.4,299.1z M511.4,321.5c0.1-0.3,0-0.5-0.2-0.7c-0.2-0.2-0.5-0.3-0.7-0.4l3.4-10.8
	c0.1,0,0.3-0.1,0.3-0.2c0.1-0.2,0-0.4-0.1-0.5c-0.2-0.2-0.4-0.4-0.6-0.5c-0.3-0.2-0.5-0.3-0.8-0.4l-0.8-0.3c-0.6,1.3-1.3,2.6-2,3.9
	s-1.3,2.4-2,3.4c-0.5,0.8-1.1,1.6-1.8,2.3c-0.6,0.5-1.1,0.8-1.5,0.6s-0.6-0.6-0.5-1.4c0.2-1.4,0.6-2.7,1-4c0.4-1.2,0.7-2.2,1.1-3.1
	c0.2-0.7,0.5-1.3,0.9-2c0.2-0.4,0.4-0.8,0.7-1.1c0.2-0.2,0.4-0.3,0.6-0.4l0.2-0.1c0.1,0,0.1-0.1,0.1-0.1c0.1-0.3,0-0.6-0.1-0.8
	c-0.2-0.3-0.4-0.5-0.7-0.7c-0.3-0.2-0.5-0.4-0.8-0.5c-0.3-0.1-0.5-0.2-0.6-0.3c-0.3-0.1-0.7,0.1-1,0.6c-0.4,0.6-0.8,1.3-1.1,2
	c-0.4,0.9-0.7,1.8-1.1,2.8s-0.7,2-1,3c-0.1,0.2-0.2,0.6-0.3,1.2c-0.2,0.6-0.3,1.1-0.4,1.7c-0.1,0.6-0.1,1.2-0.1,1.8
	c0,0.5,0.1,1,0.3,1.4c0.3,0.5,0.6,0.9,1,1.3c0.3,0.4,0.7,0.7,1.2,0.9c0.5,0.1,1,0.1,1.4-0.2c0.5-0.3,0.9-0.7,1.3-1.1
	c0.4-0.5,0.8-1,1.2-1.5l1-1.5l-1.5,4.7c-1.1,0.3-2.1,0.8-3,1.4c-1,0.6-1.9,1.3-2.7,2.1c-0.8,0.8-1.5,1.7-2.2,2.7
	c-0.6,0.9-1.1,1.9-1.4,2.9c-0.3,0.7-0.3,1.5,0,2.3c0.5,0.7,1.2,1.3,2,1.7l0.4,0.3l0.2,0.2l0.2,0.1c0.1,0,0.2,0.1,0.3,0.1
	c0.3,0.1,0.7,0,0.9-0.2c0.3-0.2,0.7-0.4,1.1-0.5l0.4-0.1l0.6-0.2l0.5-0.2l0.3-0.1c0.5-0.2,0.9-0.5,1.3-0.9c0.4-0.4,0.7-0.9,0.9-1.4
	c0.3-0.5,0.5-1,0.7-1.6c0.2-0.5,0.4-1,0.5-1.5l1.9-5.8c0.1,0,0.2,0,0.3,0l0.4,0.1c0.1,0,0.3,0,0.4,0
	C511.2,321.9,511.3,321.8,511.4,321.5L511.4,321.5z M506.8,322l-1.3,4.1l0,0.1c-0.1,0.4-0.3,0.9-0.6,1.7c-0.3,0.8-0.6,1.5-1,2.2
	c-0.4,0.7-0.8,1.3-1.3,1.8c-0.4,0.4-1,0.6-1.5,0.5c-0.3-0.1-0.6-0.3-0.7-0.6c-0.1-0.3-0.2-0.6-0.2-0.8c0-0.3,0-0.6,0.1-0.9
	c0.1-0.3,0.1-0.5,0.2-0.6c0.2-0.7,0.6-1.4,0.9-2c0.4-0.8,0.9-1.5,1.5-2.2c0.6-0.7,1.2-1.4,1.9-1.9C505.3,322.8,506,322.3,506.8,322
	L506.8,322z"/>
<line class="st2" x1="201" y1="337" x2="201" y2="223.3"/>
</svg>
