<svg xmlns="http://www.w3.org/2000/svg" xmlns:xlink="http://www.w3.org/1999/xlink" viewBox="0 0 783.86 565.37"><defs><style>.a{mask:url(#a);filter:url(#e);}.b,.f,.j{mix-blend-mode:multiply;}.b{fill:url(#c);}.c{mask:url(#d);}.d{fill:url(#f);}.e{mask:url(#g);filter:url(#k);}.f{fill:url(#i);}.g{mask:url(#j);}.h{fill:url(#l);}.i{mask:url(#m);filter:url(#q);}.j{fill:url(#o);}.k{mask:url(#p);}.l{fill:url(#r);}.bx,.cj,.m{fill:#fff;}.m{opacity:0;}.n{fill:#f8f8f8;opacity:0.03;}.o{fill:#f0f0f0;opacity:0.06;}.bs,.p{fill:#e9e9e9;}.p{opacity:0.1;}.q{fill:#e2e2e2;opacity:0.13;}.r{fill:#dbdbda;opacity:0.16;}.s{fill:#d3d3d3;opacity:0.19;}.t{fill:#ccc;opacity:0.23;}.u{fill:#c5c5c4;opacity:0.26;}.v{fill:#bdbdbd;opacity:0.29;}.w{fill:#b6b6b5;opacity:0.32;}.x{fill:#afafae;opacity:0.35;}.y{fill:#a8a8a7;opacity:0.39;}.z{fill:#a0a09f;opacity:0.42;}.aa{fill:#999998;opacity:0.45;}.ab{fill:#929291;opacity:0.48;}.ac{fill:#8a8a89;opacity:0.52;}.ad{fill:#838382;opacity:0.55;}.ae{fill:#7c7c7b;opacity:0.58;}.af{fill:#747473;opacity:0.61;}.ag{fill:#6d6d6c;opacity:0.65;}.ah{fill:#666665;opacity:0.68;}.ai{fill:#5f5f5d;opacity:0.71;}.aj{fill:#575756;opacity:0.74;}.ak{fill:#50504e;opacity:0.77;}.al{fill:#494947;opacity:0.81;}.am{fill:#414140;opacity:0.84;}.an{fill:#3a3a38;opacity:0.87;}.ao{fill:#333331;opacity:0.9;}.ap{fill:#2c2c2a;opacity:0.94;}.aq{fill:#242422;opacity:0.97;}.ar{fill:#1d1d1b;}.as{fill:#797979;}.at{fill:#7d7d7d;}.au{fill:#828282;}.av{fill:#868686;}.aw{fill:#8a8a8a;}.ax{fill:#8f8f8f;}.ay{fill:#939393;}.az{fill:#979797;}.ba{fill:#9c9c9c;}.bb{fill:#a0a0a0;}.bc{fill:#a4a4a4;}.bd{fill:#a9a9a9;}.be{fill:#adadad;}.bf{fill:#b1b1b1;}.bg{fill:#b6b6b6;}.bh{fill:#bababa;}.bi{fill:#bebebe;}.bj{fill:#c2c2c2;}.bk{fill:#c7c7c7;}.bl{fill:#cbcbcb;}.bm{fill:#cfcfcf;}.bn{fill:#d4d4d4;}.bo{fill:#d8d8d8;}.bp{fill:#dcdcdc;}.bq{fill:#e1e1e1;}.br{fill:#e5e5e5;}.bt{fill:#eee;}.bu{fill:#f2f2f2;}.bv{fill:#f6f6f6;}.bw{fill:#fbfbfb;}.by{fill:url(#s);}.bz{mask:url(#t);}.ca{mask:url(#u);}.cb{fill:#4d4d4d;}.cc{fill:#010101;}.cd{fill:url(#v);}.ce{fill:url(#w);}.cf{mask:url(#x);}.cg{stroke:#303030;fill:url(#y);}.cg,.ci,.cp{stroke-miterlimit:10;}.ch,.ck{fill:#1eb9d5;}.ci,.cp{fill:none;}.ci{stroke:#1eb9d5;}.cj,.ck{font-size:12px;font-family:OpenSans-SemiBold, Open Sans;font-weight:600;}.cl{font-size:10px;font-family:PTMono-Regular, PT Mono;}.cm{letter-spacing:1.8em;}.cn{letter-spacing:3em;}.co{letter-spacing:1.2em;}.cp{stroke:#fff;}.cq{filter:url(#n);}.cr{filter:url(#h);}.cs{filter:url(#b);}</style><filter id="b" x="298.74" y="-7179.68" width="42.21" height="32766" filterUnits="userSpaceOnUse" color-interpolation-filters="sRGB"><feFlood flood-color="#fff" result="bg"/><feBlend in="SourceGraphic" in2="bg"/></filter><mask id="a" x="298.74" y="-7179.68" width="42.21" height="32766" maskUnits="userSpaceOnUse"><g class="cs"/></mask><linearGradient id="c" x1="296.09" y1="476.36" x2="333.03" y2="462.91" gradientUnits="userSpaceOnUse"><stop offset="0" stop-color="#b3b3b3"/><stop offset="0.11" stop-color="#aaa"/><stop offset="0.29" stop-color="#929292"/><stop offset="0.52" stop-color="#6a6a6a"/><stop offset="0.78" stop-color="#333"/><stop offset="1"/></linearGradient><filter id="e" x="298.74" y="441.73" width="42.21" height="42.93" filterUnits="userSpaceOnUse" color-interpolation-filters="sRGB"><feFlood flood-color="#fff" result="bg"/><feBlend in="SourceGraphic" in2="bg"/></filter><mask id="d" x="298.74" y="441.73" width="42.21" height="42.93" maskUnits="userSpaceOnUse"><g class="a"><path class="b" d="M323.54,441.73l-.89,12.47c-.59,10-1.33,16.91-14.47,23.89l-7.73,3.61c-2.08.85-2.44,2.78-.08,2.79l40.58.17Z"/></g></mask><linearGradient id="f" x1="296.09" y1="476.36" x2="333.03" y2="462.91" gradientUnits="userSpaceOnUse"><stop offset="0" stop-color="#fff"/><stop offset="0.09" stop-color="#f6f6f6"/><stop offset="0.24" stop-color="#dedede"/><stop offset="0.43" stop-color="#b7b7b6"/><stop offset="0.65" stop-color="#80807f"/><stop offset="0.9" stop-color="#3b3b39"/><stop offset="1" stop-color="#1d1d1b"/></linearGradient><filter id="h" x="413.54" y="-7179.68" width="42.61" height="32766" filterUnits="userSpaceOnUse" color-interpolation-filters="sRGB"><feFlood flood-color="#fff" result="bg"/><feBlend in="SourceGraphic" in2="bg"/></filter><mask id="g" x="413.54" y="-7179.68" width="42.61" height="32766" maskUnits="userSpaceOnUse"><g class="cr"/></mask><linearGradient id="i" x1="421.01" y1="459" x2="460.03" y2="473.2" gradientUnits="userSpaceOnUse"><stop offset="0"/><stop offset="0.09" stop-color="#1e1e1e"/><stop offset="0.24" stop-color="#4b4b4b"/><stop offset="0.4" stop-color="#717171"/><stop offset="0.55" stop-color="#8e8e8e"/><stop offset="0.71" stop-color="#a2a2a2"/><stop offset="0.86" stop-color="#afafaf"/><stop offset="1" stop-color="#b3b3b3"/></linearGradient><filter id="k" x="413.54" y="433.65" width="42.61" height="51.49" filterUnits="userSpaceOnUse" color-interpolation-filters="sRGB"><feFlood flood-color="#fff" result="bg"/><feBlend in="SourceGraphic" in2="bg"/></filter><mask id="j" x="413.54" y="433.65" width="42.61" height="51.49" maskUnits="userSpaceOnUse"><g class="e"><path class="f" d="M454.33,481.6l-8-4.46c-7.48-4.24-14.16-11.77-14.56-20.36l-1.5-23.13L413.54,485l39.86.17C456.31,485.16,457.34,483.36,454.33,481.6Z"/></g></mask><linearGradient id="l" x1="421.01" y1="459" x2="460.03" y2="473.2" gradientUnits="userSpaceOnUse"><stop offset="0" stop-color="#1d1d1b"/><stop offset="0.06" stop-color="#363634"/><stop offset="0.19" stop-color="#6a6a69"/><stop offset="0.33" stop-color="#989897"/><stop offset="0.47" stop-color="#bdbdbd"/><stop offset="0.61" stop-color="#dadada"/><stop offset="0.74" stop-color="#efefee"/><stop offset="0.87" stop-color="#fbfbfb"/><stop offset="1" stop-color="#fff"/></linearGradient><filter id="n" x="340.95" y="-7179.68" width="289.77" height="32766" filterUnits="userSpaceOnUse" color-interpolation-filters="sRGB"><feFlood flood-color="#fff" result="bg"/><feBlend in="SourceGraphic" in2="bg"/></filter><mask id="m" x="340.95" y="-7179.68" width="289.77" height="32766" maskUnits="userSpaceOnUse"><g class="cq"/></mask><linearGradient id="o" x1="463.48" y1="31.15" x2="608.46" y2="389.97" gradientUnits="userSpaceOnUse"><stop offset="0" stop-color="gray"/><stop offset="1"/></linearGradient><filter id="q" x="340.95" y="80.61" width="289.77" height="300.37" filterUnits="userSpaceOnUse" color-interpolation-filters="sRGB"><feFlood flood-color="#fff" result="bg"/><feBlend in="SourceGraphic" in2="bg"/></filter><mask id="p" x="340.95" y="80.61" width="289.77" height="300.37" maskUnits="userSpaceOnUse"><g class="i"><path class="j" d="M616.32,80.61,341,80.66,531.57,381h99.15l-.05-286A14.35,14.35,0,0,0,616.32,80.61Z"/></g></mask><linearGradient id="r" x1="463.48" y1="31.15" x2="608.46" y2="389.97" gradientUnits="userSpaceOnUse"><stop offset="0" stop-color="#fff"/><stop offset="1"/></linearGradient><linearGradient id="s" x1="377.44" y1="400.13" x2="377.44" y2="485.14" gradientUnits="userSpaceOnUse"><stop offset="0" stop-color="#919297"/><stop offset="0.12" stop-color="#9fa0a4"/><stop offset="0.35" stop-color="#c2c3c7"/><stop offset="0.45" stop-color="#d4d5d9"/><stop offset="0.51" stop-color="#e8e9eb"/><stop offset="0.58" stop-color="#f4f6f5"/><stop offset="0.64" stop-color="#f8faf9"/><stop offset="0.7" stop-color="#babbbd"/><stop offset="0.75" stop-color="#828388"/><stop offset="0.79" stop-color="#84858a"/><stop offset="0.8" stop-color="#8c8d92"/><stop offset="0.82" stop-color="#9a9b9f"/><stop offset="0.82" stop-color="#a0a1a5"/></linearGradient><mask id="t" x="298.74" y="441.73" width="42.21" height="42.93" maskUnits="userSpaceOnUse"><g class="c"><path class="d" d="M323.54,441.73l-.89,12.47c-.59,10-1.33,16.91-14.47,23.89l-7.73,3.61c-2.08.85-2.44,2.78-.08,2.79l40.58.17Z"/></g></mask><mask id="u" x="413.54" y="433.65" width="42.61" height="51.49" maskUnits="userSpaceOnUse"><g class="g"><path class="h" d="M454.33,481.6l-8-4.46c-7.48-4.24-14.16-11.77-14.56-20.36l-1.5-23.13L413.54,485l39.86.17C456.31,485.16,457.34,483.36,454.33,481.6Z"/></g></mask><linearGradient id="v" x1="122.51" y1="405.27" x2="631.88" y2="405.27" gradientUnits="userSpaceOnUse"><stop offset="0" stop-color="#9a9b9f"/><stop offset="0.61" stop-color="#cdced0"/><stop offset="1" stop-color="#d3d4d6"/></linearGradient><linearGradient id="w" x1="122.51" y1="383.11" x2="631.87" y2="383.11" gradientUnits="userSpaceOnUse"><stop offset="0" stop-color="#9a9b9f"/><stop offset="0.12" stop-color="#b3b4b8"/><stop offset="0.26" stop-color="#c6c7cb"/><stop offset="0.43" stop-color="#d4d5d9"/><stop offset="0.63" stop-color="#dcdde1"/><stop offset="1" stop-color="#dedfe3"/></linearGradient><mask id="x" x="340.95" y="80.61" width="289.77" height="300.37" maskUnits="userSpaceOnUse"><g class="k"><path class="l" d="M616.32,80.61,341,80.66,531.57,381h99.15l-.05-286A14.35,14.35,0,0,0,616.32,80.61Z"/></g></mask><radialGradient id="y" cx="372.79" cy="47.04" r="393.69" gradientUnits="userSpaceOnUse"><stop offset="0" stop-color="#fff"/><stop offset="0.48" stop-color="#fbfbfb"/><stop offset="0.9" stop-color="#f1f1f1"/><stop offset="1" stop-color="#ededed"/></radialGradient></defs><title>art-5</title><ellipse class="m" cx="376.2" cy="489.41" rx="116.4" ry="7.35"/><ellipse class="n" cx="376.2" cy="489.23" rx="114.8" ry="7.25"/><ellipse class="o" cx="376.19" cy="489.05" rx="113.2" ry="7.15"/><ellipse class="p" cx="376.19" cy="488.88" rx="111.61" ry="7.05"/><ellipse class="q" cx="376.19" cy="488.7" rx="110.01" ry="6.95"/><path class="r" d="M484.61,488.52c0,3.78-48.54,6.85-108.42,6.85s-108.41-3.07-108.41-6.85,48.54-6.85,108.41-6.85S484.61,484.74,484.61,488.52Z"/><path class="s" d="M483,488.35c0,3.72-47.83,6.74-106.82,6.74s-106.82-3-106.82-6.74,47.83-6.75,106.82-6.75S483,484.62,483,488.35Z"/><path class="t" d="M481.41,488.17c0,3.67-47.11,6.64-105.22,6.64S271,491.84,271,488.17s47.11-6.65,105.22-6.65S481.41,484.5,481.41,488.17Z"/><path class="u" d="M479.81,488c0,3.61-46.39,6.55-103.62,6.55S272.56,491.6,272.56,488s46.4-6.54,103.63-6.54S479.81,484.38,479.81,488Z"/><path class="v" d="M478.22,487.81c0,3.56-45.68,6.45-102,6.45s-102-2.89-102-6.45,45.68-6.44,102-6.44S478.22,484.25,478.22,487.81Z"/><path class="w" d="M476.62,487.64c0,3.5-45,6.34-100.43,6.34s-100.44-2.84-100.44-6.34,45-6.35,100.44-6.35S476.62,484.13,476.62,487.64Z"/><path class="x" d="M475,487.46c0,3.45-44.25,6.24-98.83,6.24s-98.84-2.79-98.84-6.24,44.25-6.24,98.84-6.24S475,484,475,487.46Z"/><path class="y" d="M473.43,487.28c0,3.39-43.54,6.14-97.24,6.14s-97.25-2.75-97.25-6.14,43.54-6.14,97.25-6.14S473.43,483.89,473.43,487.28Z"/><path class="z" d="M471.83,487.1c0,3.34-42.82,6-95.65,6s-95.64-2.7-95.64-6,42.82-6,95.64-6S471.83,483.77,471.83,487.1Z"/><path class="aa" d="M470.23,486.93c0,3.28-42.11,5.94-94.05,5.94s-94-2.66-94-5.94,42.1-5.94,94-5.94S470.23,483.65,470.23,486.93Z"/><path class="ab" d="M468.63,486.75c0,3.22-41.39,5.84-92.45,5.84s-92.45-2.62-92.45-5.84,41.39-5.84,92.45-5.84S468.63,483.52,468.63,486.75Z"/><path class="ac" d="M467,486.57c0,3.17-40.68,5.74-90.86,5.74s-90.85-2.57-90.85-5.74,40.67-5.74,90.85-5.74S467,483.4,467,486.57Z"/><path class="ad" d="M465.44,486.4c0,3.11-40,5.63-89.26,5.63s-89.26-2.52-89.26-5.63,40-5.64,89.26-5.64S465.44,483.28,465.44,486.4Z"/><path class="ae" d="M463.84,486.22c0,3.06-39.25,5.53-87.66,5.53s-87.66-2.47-87.66-5.53,39.24-5.54,87.66-5.54S463.84,483.16,463.84,486.22Z"/><path class="af" d="M462.24,486c0,3-38.53,5.44-86.06,5.44S290.11,489,290.11,486s38.54-5.43,86.07-5.43S462.24,483,462.24,486Z"/><path class="ag" d="M460.65,485.86c0,2.95-37.82,5.34-84.47,5.34s-84.47-2.39-84.47-5.34,37.82-5.33,84.47-5.33S460.65,482.92,460.65,485.86Z"/><path class="ah" d="M459.05,485.69c0,2.89-37.1,5.23-82.87,5.23s-82.88-2.34-82.88-5.23,37.11-5.24,82.88-5.24S459.05,482.8,459.05,485.69Z"/><path class="ai" d="M457.45,485.51c0,2.83-36.39,5.13-81.27,5.13s-81.28-2.3-81.28-5.13,36.39-5.13,81.28-5.13S457.45,482.67,457.45,485.51Z"/><path class="aj" d="M455.86,485.33c0,2.78-35.68,5-79.69,5s-79.68-2.25-79.68-5,35.68-5,79.68-5S455.86,482.55,455.86,485.33Z"/><path class="ak" d="M454.26,485.15c0,2.73-35,4.94-78.09,4.94s-78.08-2.21-78.08-4.94,35-4.93,78.08-4.93S454.26,482.43,454.26,485.15Z"/><path class="al" d="M452.66,485c0,2.67-34.24,4.83-76.49,4.83s-76.49-2.16-76.49-4.83,34.25-4.83,76.49-4.83S452.66,482.31,452.66,485Z"/><path class="am" d="M451.06,484.8c0,2.61-33.53,4.73-74.89,4.73s-74.89-2.12-74.89-4.73,33.53-4.73,74.89-4.73S451.06,482.19,451.06,484.8Z"/><path class="an" d="M449.47,484.62c0,2.56-32.82,4.63-73.3,4.63s-73.3-2.07-73.3-4.63,32.82-4.63,73.3-4.63S449.47,482.07,449.47,484.62Z"/><path class="ao" d="M447.87,484.45c0,2.5-32.1,4.52-71.7,4.52s-71.7-2-71.7-4.52,32.1-4.53,71.7-4.53S447.87,481.94,447.87,484.45Z"/><path class="ap" d="M446.27,484.27c0,2.44-31.38,4.43-70.1,4.43s-70.1-2-70.1-4.43,31.38-4.43,70.1-4.43S446.27,481.82,446.27,484.27Z"/><path class="aq" d="M444.68,484.09c0,2.39-30.68,4.33-68.51,4.33s-68.51-1.94-68.51-4.33,30.67-4.33,68.51-4.33S444.68,481.7,444.68,484.09Z"/><path class="ar" d="M443.08,483.91c0,2.34-30,4.23-66.91,4.23s-66.91-1.89-66.91-4.23,29.95-4.22,66.91-4.22S443.08,481.58,443.08,483.91Z"/><path class="as" d="M453.4,489.34H300.45c-3.5,0-4.16-6.14,0-7.64l7.73-3.61c13.14-7,13.88-13.93,14.47-23.89l3.67-51.45,101.74-2.62,3.67,56.65c.4,8.59,7.08,16.12,14.56,20.36l8,4.46C458.28,483.64,457.21,489.34,453.4,489.34Z"/><path class="at" d="M453.4,489.22H300.47c-3.51,0-4.14-6,0-7.51l7.73-3.61c13.14-7,13.88-13.93,14.47-23.89l3.67-51.45,101.74-2.62,3.67,56.65c.4,8.59,7.08,16.12,14.56,20.36l8,4.46C458.23,483.63,457.22,489.22,453.4,489.22Z"/><path class="au" d="M453.41,489.09l-152.92,0c-3.53,0-4.12-5.88,0-7.37l7.73-3.61c13.14-7,13.88-13.93,14.47-23.89l3.67-51.45,101.74-2.62,3.67,56.65c.4,8.59,7.08,16.12,14.56,20.36l8,4.46C458.18,483.61,457.23,489.09,453.41,489.09Z"/><path class="av" d="M453.41,489l-152.89,0c-3.55,0-4.1-5.76-.07-7.24l7.73-3.61c13.14-7,13.88-13.93,14.47-23.89l3.67-51.45,101.74-2.62,3.67,56.65c.4,8.59,7.08,16.12,14.56,20.36l8,4.46C458.13,483.59,457.24,489,453.41,489Z"/><path class="aw" d="M453.41,488.85l-152.87-.05c-3.57,0-4.08-5.63-.09-7.1l7.73-3.61c13.14-7,13.88-13.93,14.47-23.89l3.67-51.45,101.74-2.62,3.67,56.65c.4,8.59,7.08,16.12,14.56,20.36l8,4.46C458.09,483.57,457.25,488.85,453.41,488.85Z"/><path class="ax" d="M453.41,488.72l-152.85-.06c-3.58,0-4.06-5.5-.11-7l7.73-3.61c13.14-7,13.88-13.93,14.47-23.89l3.67-51.45,101.74-2.62,3.67,56.65c.4,8.59,7.08,16.12,14.56,20.36l8,4.46C458,483.55,457.27,488.72,453.41,488.72Z"/><path class="ay" d="M453.42,488.6l-152.83-.07c-3.61,0-4-5.37-.14-6.83l7.73-3.61c13.14-7,13.88-13.93,14.47-23.89l3.67-51.45,101.74-2.62,3.67,56.65c.4,8.59,7.08,16.12,14.56,20.36l8,4.46C458,483.53,457.28,488.6,453.42,488.6Z"/><path class="az" d="M453.42,488.48l-152.81-.09c-3.62.05-4-5.24-.16-6.69l7.73-3.61c13.14-7,13.88-13.93,14.47-23.89l3.67-51.45,101.74-2.62,3.67,56.65c.4,8.59,7.08,16.12,14.56,20.36l8,4.46C458,483.51,457.29,488.48,453.42,488.48Z"/><path class="ba" d="M453.42,488.35l-152.79-.09c-3.64.05-4-5.12-.18-6.56l7.73-3.61c13.14-7,13.88-13.93,14.47-23.89l3.67-51.45,101.74-2.62,3.67,56.65c.4,8.59,7.08,16.12,14.56,20.36l8,4.46C457.9,483.5,457.3,488.35,453.42,488.35Z"/><path class="bb" d="M453.43,488.23l-152.78-.11c-3.65.06-4-5-.2-6.42l7.73-3.61c13.14-7,13.88-13.93,14.47-23.89l3.67-51.45,101.74-2.62,3.67,56.65c.4,8.59,7.08,16.12,14.56,20.36l8,4.46C457.85,483.48,457.31,488.23,453.43,488.23Z"/><path class="bc" d="M453.43,488.11,300.68,488c-3.68.06-4-4.87-.23-6.29l7.73-3.61c13.14-7,13.88-13.93,14.47-23.89l3.67-51.45,101.74-2.62,3.67,56.65c.4,8.59,7.08,16.12,14.56,20.36l8,4.46C457.81,483.46,457.32,488.11,453.43,488.11Z"/><path class="bd" d="M453.43,488l-152.73-.13c-3.69.07-3.95-4.73-.25-6.15l7.73-3.61c13.14-7,13.88-13.93,14.47-23.89l3.67-51.45,101.74-2.62,3.67,56.65c.4,8.59,7.08,16.12,14.56,20.36l8,4.46C457.76,483.44,457.34,488,453.43,488Z"/><path class="be" d="M453.44,487.86l-152.72-.14c-3.71.08-3.93-4.61-.27-6l7.73-3.61c13.14-7,13.88-13.93,14.47-23.89l3.67-51.45,101.74-2.62,3.67,56.65c.4,8.59,7.08,16.12,14.56,20.36l8,4.46C457.71,483.42,457.35,487.86,453.44,487.86Z"/><path class="bf" d="M453.44,487.74l-152.69-.16c-3.73.09-3.92-4.48-.3-5.88l7.73-3.61c13.14-7,13.88-13.93,14.47-23.89l3.67-51.45,101.74-2.62,3.67,56.65c.4,8.59,7.08,16.12,14.56,20.36l8,4.46C457.66,483.4,457.36,487.74,453.44,487.74Z"/><path class="bg" d="M453.44,487.61l-152.67-.16c-3.75.09-3.9-4.36-.32-5.75l7.73-3.61c13.14-7,13.88-13.93,14.47-23.89l3.67-51.45,101.74-2.62,3.67,56.65c.4,8.59,7.08,16.12,14.56,20.36l8,4.46C457.62,483.38,457.37,487.61,453.44,487.61Z"/><path class="bh" d="M453.45,487.49l-152.66-.18c-3.76.1-3.88-4.23-.34-5.61l7.73-3.61c13.14-7,13.88-13.93,14.47-23.89l3.67-51.45,101.74-2.62,3.67,56.65c.4,8.59,7.08,16.12,14.56,20.36l8,4.46C457.57,483.37,457.38,487.49,453.45,487.49Z"/><path class="bi" d="M453.45,487.37l-152.63-.2c-3.79.11-3.87-4.09-.37-5.47l7.73-3.61c13.14-7,13.88-13.93,14.47-23.89l3.67-51.45,101.74-2.62,3.67,56.65c.4,8.59,7.08,16.12,14.56,20.36l8,4.46C457.52,483.35,457.39,487.37,453.45,487.37Z"/><path class="bj" d="M453.45,487.25,300.84,487c-3.8.11-3.85-4-.39-5.34l7.73-3.61c13.14-7,13.88-13.93,14.47-23.89l3.67-51.45,101.74-2.62,3.67,56.65c.4,8.59,7.08,16.12,14.56,20.36l8,4.46C457.48,483.33,457.4,487.25,453.45,487.25Z"/><path class="bk" d="M453.46,487.12l-152.6-.22c-3.82.12-3.82-3.84-.41-5.2l7.73-3.61c13.14-7,13.88-13.93,14.47-23.89l3.67-51.45,101.74-2.62,3.67,56.65c.4,8.59,7.08,16.12,14.56,20.36l8,4.46C457.43,483.31,457.42,487.12,453.46,487.12Z"/><path class="bl" d="M453.46,487l-152.57-.23c-3.84.12-3.81-3.72-.44-5.07l7.73-3.61c13.14-7,13.88-13.93,14.47-23.89l3.67-51.45,101.74-2.62,3.67,56.65c.4,8.59,7.08,16.12,14.56,20.36l8,4.46C457.38,483.29,457.43,487,453.46,487Z"/><path class="bm" d="M453.46,486.88l-152.55-.25c-3.86.13-3.79-3.58-.46-4.93l7.73-3.61c13.14-7,13.88-13.93,14.47-23.89l3.67-51.45,101.74-2.62,3.67,56.65c.4,8.59,7.08,16.12,14.56,20.36l8,4.46C457.34,483.27,457.44,486.88,453.46,486.88Z"/><path class="bn" d="M453.47,486.75l-152.54-.25c-3.87.14-3.77-3.46-.48-4.8l7.73-3.61c13.14-7,13.88-13.93,14.47-23.89l3.67-51.45,101.74-2.62,3.67,56.65c.4,8.59,7.08,16.12,14.56,20.36l8,4.46C457.29,483.25,457.45,486.75,453.47,486.75Z"/><path class="bo" d="M453.47,486.63,301,486.36c-3.89.15-3.76-3.33-.51-4.66l7.73-3.61c13.14-7,13.88-13.93,14.47-23.89l3.67-51.45,101.74-2.62,3.67,56.65c.4,8.59,7.08,16.12,14.56,20.36l8,4.46C457.24,483.24,457.46,486.63,453.47,486.63Z"/><path class="bp" d="M453.47,486.51,301,486.23c-3.91.15-3.74-3.21-.53-4.53l7.73-3.61c13.14-7,13.88-13.93,14.47-23.89l3.67-51.45,101.74-2.62,3.67,56.65c.4,8.59,7.08,16.12,14.56,20.36l8,4.46C457.2,483.22,457.47,486.51,453.47,486.51Z"/><path class="bq" d="M453.47,486.38,301,486.09c-3.92.16-3.72-3.08-.55-4.39l7.73-3.61c13.14-7,13.88-13.93,14.47-23.89l3.67-51.45,101.74-2.62,3.67,56.65c.4,8.59,7.08,16.12,14.56,20.36l8,4.46C457.15,483.2,457.48,486.38,453.47,486.38Z"/><path class="br" d="M453.48,486.26,301,486c-3.95.16-3.71-2.95-.58-4.26l7.73-3.61c13.14-7,13.88-13.93,14.47-23.89l3.67-51.45,101.74-2.62,3.67,56.65c.4,8.59,7.08,16.12,14.56,20.36l8,4.46C457.1,483.18,457.5,486.26,453.48,486.26Z"/><path class="bs" d="M453.48,486.14l-152.43-.32c-4,.17-3.68-2.82-.6-4.12l7.73-3.61c13.14-7,13.88-13.93,14.47-23.89l3.67-51.45,101.74-2.62,3.67,56.65c.4,8.59,7.08,16.12,14.56,20.36l8,4.46C457.05,483.16,457.51,486.14,453.48,486.14Z"/><path class="bt" d="M453.48,486l-152.41-.33c-4,.18-3.66-2.69-.62-4l7.73-3.61c13.14-7,13.88-13.93,14.47-23.89l3.67-51.45,101.74-2.62,3.67,56.65c.4,8.59,7.08,16.12,14.56,20.36l8,4.46C457,483.14,457.52,486,453.48,486Z"/><path class="bu" d="M453.49,485.89l-152.39-.34c-4,.18-3.65-2.57-.65-3.85l7.73-3.61c13.14-7,13.88-13.93,14.47-23.89l3.67-51.45,101.74-2.62,3.67,56.65c.4,8.59,7.08,16.12,14.56,20.36l8,4.46C457,483.12,457.53,485.89,453.49,485.89Z"/><path class="bv" d="M453.49,485.77l-152.37-.36c-4,.2-3.63-2.44-.67-3.71l7.73-3.61c13.14-7,13.88-13.93,14.47-23.89l3.67-51.45,101.74-2.62,3.67,56.65c.4,8.59,7.08,16.12,14.56,20.36l8,4.46C456.91,483.11,457.54,485.77,453.49,485.77Z"/><path class="bw" d="M453.49,485.64l-152.35-.36c-4,.2-3.61-2.31-.69-3.58l7.73-3.61c13.14-7,13.88-13.93,14.47-23.89l3.67-51.45,101.74-2.62,3.67,56.65c.4,8.59,7.08,16.12,14.56,20.36l8,4.46C456.87,483.09,457.55,485.64,453.49,485.64Z"/><path class="bx" d="M453.5,485.52l-152.33-.38c-4.06.21-3.6-2.18-.72-3.44l7.73-3.61c13.14-7,13.88-13.93,14.47-23.89l3.67-51.45,101.74-2.62,3.67,56.65c.4,8.59,7.08,16.12,14.56,20.36l8,4.46C456.82,483.07,457.56,485.52,453.5,485.52Z"/><path class="by" d="M453.4,485.14l-153-.65c-2.36,0-2-1.94.08-2.79l7.73-3.61c13.14-7,13.88-13.93,14.47-23.89l3.67-51.45,101.74-2.62,3.67,56.65c.4,8.59,7.08,16.12,14.56,20.36l8,4.46C457.34,483.36,456.31,485.16,453.4,485.14Z"/><g class="bz"><path class="bx" d="M323.54,441.73l-.89,12.47c-.59,10-1.33,16.91-14.47,23.89l-7.73,3.61c-2.08.85-2.44,2.78-.08,2.79l40.58.17Z"/></g><g class="ca"><path class="bx" d="M454.33,481.6l-8-4.46c-7.48-4.24-14.16-11.77-14.56-20.36l-1.5-23.13L413.54,485l39.86.17C456.31,485.16,457.34,483.36,454.33,481.6Z"/></g><path class="cb" d="M617.46,428.28l-480.52.09A14.42,14.42,0,0,1,122.52,414L122.46,93.6a14.42,14.42,0,0,1,14.42-14.43l480.52-.09A14.42,14.42,0,0,1,631.82,93.5l.06,320.36A14.42,14.42,0,0,1,617.46,428.28Z"/><path class="cc" d="M630.36,381l-.05-286A14.35,14.35,0,0,0,616,80.61l-477.65.09A14.34,14.34,0,0,0,124,95.05L124,381Z"/><path class="cd" d="M136.94,428.37l480.52-.09a14.42,14.42,0,0,0,14.42-14.42V382.18H122.51V414A14.42,14.42,0,0,0,136.94,428.37Z"/><rect class="ce" x="122.51" y="382.18" width="509.36" height="1.87"/><g class="cf"><path class="bx" d="M616.32,80.61,341,80.66,531.57,381h99.15l-.05-286A14.35,14.35,0,0,0,616.32,80.61Z"/></g><rect class="cg" x="141.3" y="99.01" width="469.8" height="267.08"/><rect class="ch" x="152.88" y="113.43" width="153.73" height="38.01" rx="2.26"/><rect class="ch" x="315.06" y="113.43" width="153.73" height="38.01" rx="2.26"/><rect class="ci" x="488.22" y="113.43" width="47.84" height="38.01" rx="2.26"/><text class="cj" transform="translate(169.78 136.23)">Production</text><text class="cj" transform="translate(325.2 136.23)">cURL</text><text class="ck" transform="translate(504.28 136.23)">Try</text><text class="cl" transform="translate(154.09 171.03)">01<tspan class="cm" x="12" y="0">	</tspan><tspan x="36" y="0">curl --include \</tspan><tspan x="0" y="12">02</tspan><tspan class="cm" x="12" y="12">	</tspan><tspan class="cn" x="36" y="12">	</tspan><tspan x="72" y="12">--request POST \</tspan><tspan x="0" y="24">03</tspan><tspan class="cm" x="12" y="24">	</tspan><tspan class="cn" x="36" y="24">	</tspan><tspan x="72" y="24">--header “Content-Type: application/json”\</tspan><tspan x="0" y="36">04</tspan><tspan class="cm" x="12" y="36">	</tspan><tspan class="cn" x="36" y="36">	</tspan><tspan x="72" y="36">--header “Accept: application/com.reloadly.topups-v1+json” \</tspan><tspan x="0" y="48">05</tspan><tspan class="cm" x="12" y="48">	</tspan><tspan class="cn" x="36" y="48">	</tspan><tspan x="72" y="48">--header “Authorization: Bearer ey J0eXAiOiJKV1QiLCJhbGciOiJSI </tspan><tspan x="0" y="60">06</tspan><tspan class="cm" x="12" y="60">	</tspan><tspan class="cn" x="36" y="60">	</tspan><tspan x="72" y="60">--data-binary ”{</tspan><tspan x="0" y="72">07</tspan><tspan class="cm" x="12" y="72">	</tspan><tspan x="36" y="72">\”recipientPhone\”: {</tspan><tspan x="0" y="84">08</tspan><tspan class="cm" x="12" y="84">	</tspan><tspan x="36" y="84">\”countryCode\”: \”HT\”,</tspan><tspan x="0" y="96">09</tspan><tspan class="cm" x="12" y="96">	</tspan><tspan x="36" y="96">\”number\”: \”36377111\”</tspan><tspan x="0" y="108">10</tspan><tspan class="cm" x="12" y="108">	</tspan><tspan x="36" y="108">},</tspan><tspan x="0" y="120">11</tspan><tspan class="cm" x="12" y="120">	</tspan><tspan x="36" y="120">\”senderPhone\”: {</tspan><tspan x="0" y="132">12</tspan><tspan class="cm" x="12" y="132">	</tspan><tspan x="36" y="132">\”countryCode\”: \”US\”,</tspan><tspan x="0" y="144">13</tspan><tspan class="cm" x="12" y="144">	</tspan><tspan x="36" y="144">\”number\”: \”3059547862\”</tspan><tspan x="0" y="156">14</tspan><tspan class="cm" x="12" y="156">	</tspan><tspan x="36" y="156">},</tspan><tspan x="0" y="168">15 </tspan><tspan class="co" x="18" y="168">	</tspan><tspan x="36" y="168">\”operatorId\”: 173,</tspan><tspan x="0" y="180">16</tspan><tspan class="cm" x="12" y="180">	</tspan><tspan x="36" y="180">\”amount\”: 15,</tspan></text><polyline class="cp" points="289.66 131.12 293.58 135.29 297.74 131.12"/><polyline class="cp" points="451.55 131.12 455.47 135.29 459.64 131.12"/></svg>