<svg xmlns="http://www.w3.org/2000/svg" viewBox="0 0 1600 584"><defs><style>.a,.c{fill:#ffe161;}.b{fill:#fff;}.c,.d{fill-rule:evenodd;}.d,.e,.f,.g{fill:none;stroke-miterlimit:10;stroke-width:2px;}.d,.e{stroke:#1fbad6;}.f,.g{stroke:#ffe161;}.g{stroke-dasharray:6.03 12.07;}</style></defs><title>homepic1</title><path class="a" d="M866.58,541.6l27.6,1.12s9.57-41.11,46.73-43.36S986,540.47,986,540.47h27s-35.47-46.74-41.67-59.69-22-56.88-25.34-92.35S942,310.72,942,301.71s2.82-14.08,2.25-17.46-3.2-5.94-8.44-5.07c-3.38.57-6.2,5.63-4,18,2.52,13.86,1.92,29.93,2.09,48.75s-2.09,68.38-5.46,79.64-5.64,31-21.4,58S866.58,541.6,866.58,541.6Z"/><path class="a" d="M860.39,383.36V347.88c0-5.63,2.25-14.64,13-14.07s11.83,7.32,12.39,14.07,1.69,36.61,1.69,36.61Z"/><path class="a" d="M436.64,438c.85-13.51,16.05-11,16.05,0,0,10.21,2.53,110.66,2.53,110.66L435,543.57S435.8,451.5,436.64,438Z"/><polyline class="a" points="462.83 479.37 582.77 493.73 588.13 546.02 588.13 546.02 461.98 547.79 462.83 479.37"/><polygon class="b" points="928.53 478.25 936.3 448.89 948.76 448.89 951.61 479.09 928.53 478.25"/><path class="c" d="M1097.77,389.89a9.16,9.16,0,0,0-5.3-7.76,30.35,30.35,0,0,1-6-3.69,25.74,25.74,0,0,1-5.83,3.69,9.16,9.16,0,0,0-5.3,7.76v22.42h22.78S1097.77,392.6,1097.77,389.89Z"/><path class="c" d="M1097.77,427.81a9.16,9.16,0,0,0-5.3-7.76,30.12,30.12,0,0,1-6-3.7,25.57,25.57,0,0,1-5.83,3.7,9.16,9.16,0,0,0-5.3,7.76V430l10.75.7,12,2.68S1097.77,430.52,1097.77,427.81Z"/><path class="c" d="M991.9,389.89a9.17,9.17,0,0,0-5.29-7.76,30.24,30.24,0,0,1-6-3.69,25.46,25.46,0,0,1-5.83,3.69,9.17,9.17,0,0,0-5.29,7.76v22.42h22.77S991.9,392.6,991.9,389.89Z"/><path class="c" d="M991.9,427.81a9.17,9.17,0,0,0-5.29-7.76,30,30,0,0,1-6-3.7,25.3,25.3,0,0,1-5.83,3.7,9.17,9.17,0,0,0-5.29,7.76v22.41h22.77S991.9,430.52,991.9,427.81Z"/><path class="a" d="M753.21,544.79h43.17s-6.38-37.17-8.26-46.55-5.25-12.39-12.76-13.14-12.39,4.5-13.89,11.63S753.21,544.79,753.21,544.79Z"/><line class="a" x1="1005.11" y1="507.81" x2="998.35" y2="510.62"/><path class="a" d="M143.54,439.67s36.6-40.54,43.36-58c13.51,6.19,34.35,20.84,34.35,20.84s-7.89,23.08-32.66,39.41-28.16,18-28.16,18Z"/><polyline class="d" points="588.13 499.81 588.13 546.02 454.3 554.85 431.86 551.17 391.99 551.17 369.55 554.85 263.56 547.86"/><path class="d" d="M250.53,547l-14.82-1v-71l65.61-14.58s-1.39-7.35,2-8a19,19,0,0,0,4.57-1.19s.79-3.77,4-4.76,5.36-1.79,5.36-1.79,1.39-4.57,4.57-5.16a26.91,26.91,0,0,0,4.17-1l.39-3.77,21.05-5.36.4-3.77,4.57-1.39,4,1.19v1.78s9.53-3,12.91-3h9.92l.6-13.11s10.58-8.84,19.86-7.75V389.19s-2.39-5.56,12.11-5.56h.38c14.5,0,12.12,5.56,12.12,5.56v14.29c13.9.6,19.85,7.75,19.85,7.75l.6,13.11h9.93c3.37,0,12.9,3,12.9,3v-1.78l4-1.19,4.56,1.39.4,3.77,21.05,5.36.4,3.77a26.44,26.44,0,0,0,4.17,1c3.17.59,4.56,5.16,4.56,5.16s2.19.79,5.37,1.79,4,4.76,4,4.76a18.75,18.75,0,0,0,4.56,1.19c3.38.6,2,8,2,8l65.61,14.58v11"/><path class="d" d="M326,478.91s17.06-2.34,31.44-3.67,51.49-2,63.87-2,47.82,2.67,56.85,3.68,22.4,3,22.4,3"/><polyline class="d" points="391.99 551.17 391.99 479.92 431.67 479.92 431.67 551.17"/><line class="e" x1="392.47" y1="519.04" x2="430.67" y2="519.04"/><line class="e" x1="352.36" y1="424.34" x2="352.36" y2="375.58"/><line class="e" x1="472.41" y1="424.34" x2="472.41" y2="375.58"/><line class="e" x1="412.11" y1="383.63" x2="412.11" y2="331.11"/><path class="d" d="M379.16,424.34s4,.74,9.71,2.41v46.48"/><path class="d" d="M444.68,424.34s-4.65-1.6-11,2.41v46.48"/><ellipse class="e" cx="322.49" cy="448.15" rx="4.51" ry="7.02"/><ellipse class="e" cx="311.91" cy="453.17" rx="3.14" ry="4.88"/><ellipse class="e" cx="304.16" cy="456.18" rx="2.22" ry="3.45"/><ellipse class="e" cx="501.99" cy="448.15" rx="4.51" ry="7.02"/><ellipse class="e" cx="512.58" cy="453.17" rx="3.14" ry="4.88"/><ellipse class="e" cx="520.33" cy="456.19" rx="2.22" ry="3.45"/><polyline class="d" points="706.38 496.23 693.36 454.14 680.84 495.42 671.75 454.37 657.85 493.28 649.29 453.3 634.86 496.49 625 454.37 609.19 494.35 606.52 545.68 614.95 545.68"/><polyline class="d" points="625.95 458.72 637.43 424.84 647.03 460.17"/><polyline class="d" points="650.67 459.9 661.5 424.84 670.14 458.53"/><polyline class="d" points="672.67 458.67 682.88 424.84 692.16 457.87"/><polyline class="d" points="694.32 457.31 704.27 424.84 712.92 458.53"/><path class="d" d="M716.87,545.68h29.22s2.79-24.35,7.83-48.49c3.56-17,9.47-33.64,10.89-43,3.44-22.54.38-34.39,1.53-43.94s2.29-30.58,6.5-30.58H774c4.21,0,5.35,21,6.5,30.58s-1.91,21.4,1.53,43.94c1.42,9.3,7.63,26.85,11.17,43.82,5,24.21,7.56,47.64,7.56,47.64h39.39s1.06-51.33-2.14-58.28-5.88-18.18-5.88-52.4S820.9,305.81,820.9,305.81s9.19-4.64-1.61-13c-8.88,6.08-6.37,10.52-3.53,12.84,0,15-6.8,106.23-6.8,106.23,0-34.22-11.22-129.19-11.22-129.19s9.19-4.65-1.61-13c-8.88,6.08-6.38,10.52-3.53,12.83,0,15-7.16,106.41-7.16,106.41l-.49-81H760.14v81S753,297.42,753,282.44c2.85-2.31,5.35-6.75-3.53-12.83-10.8,8.39-1.61,13-1.61,13s-11.22,95-11.22,129.19c0,0-6.8-91.26-6.8-106.23,2.84-2.32,5.35-6.76-3.53-12.84-10.8,8.4-1.61,13-1.61,13s-11.23,95-11.23,129.19-2.67,45.45-5.88,52.4-2.14,58.28-2.14,58.28H628"/><circle class="e" cx="621.65" cy="511.93" r="7.85"/><circle class="e" cx="644.02" cy="511.93" r="7.85"/><circle class="e" cx="668.73" cy="511.93" r="7.85"/><circle class="e" cx="692.59" cy="511.93" r="7.85"/><path class="d" d="M1007.94,545.49H992.28s-6.79-24.35-20.37-32.5-23.43-9.84-30.22-9.84h-2.27c-6.79,0-16.63,1.69-30.22,9.84s-20.37,32.5-20.37,32.5h-31"/><path class="d" d="M857.86,545.49s36.41-46.42,39.12-50.83,2-18.34,2-18.34h6.79s12.56-31.91,14.26-39.72c-1-9.17-2.38-10.18-.68-11.88s5.09-1.7,5.09-1.7S932.63,381.26,934,346s1.36-45.49,1.36-45.49-2.72-12.9-2-17,1.36-8.15,6.45-9.17c.34-3.05,1-20.71,1-20.71s.23,17.66.57,20.71c5.1,1,5.78,5.1,6.45,9.17s-2,17-2,17,0,10.18,1.36,45.49,9.5,77.07,9.5,77.07,3.4,0,5.09,1.7.34,2.71-.67,11.88c1.69,7.81,14.26,39.72,14.26,39.72l6.52.24s-.41,13.68,2.3,18.1,39.13,50.83,39.13,50.83"/><polygon class="d" points="940.67 450.86 946.79 450.86 951.2 476.32 940.67 476.32 940.44 476.32 929.91 476.32 934.33 450.86 940.44 450.86 940.67 450.86"/><path class="e" d="M123.78,486.54l-20-58.81a5.87,5.87,0,0,1,3.67-7.45l11.22-3.82,3.52,3.92,16.52-5.63.08-5.13,11.29-3.84a5.87,5.87,0,0,1,7.45,3.67l3,8.77c1.25-1.49,2.54-3.09,3.85-4.78l-3.68-10.8a5.87,5.87,0,0,0-7.46-3.67l-52.67,17.92a5.87,5.87,0,0,0-3.67,7.45L131.5,526.09a5.87,5.87,0,0,0,7.46,3.67l52.67-17.91a5.88,5.88,0,0,0,3.67-7.46L179.85,459c-1.63.47-3.31.93-5,1.36l13.47,39.61a5.86,5.86,0,0,1-3.67,7.45L142,521.89a5.88,5.88,0,0,1-7.46-3.67l-6.24-18.34"/><path class="e" d="M208.37,389a218.92,218.92,0,0,0-21.18-13.6,204.81,204.81,0,0,1-22.82,38.07"/><path class="e" d="M164.37,413.44c-1.31,1.69-2.6,3.29-3.85,4.78"/><path class="e" d="M160.52,418.22c-13.23,15.76-23.21,20.85-23.21,20.85s9.24,10,20,24.57c3.77-1.59,7.33-3.27,10.73-5"/><path class="e" d="M211.17,425.56a140.57,140.57,0,0,1-33.28,27.63"/><path class="e" d="M173.31,455.84c-1.69,1-3.44,1.88-5.23,2.79l1.46,3q2.7-.6,5.3-1.26l5-1.36c48.67-14.05,68.73-44.53,68.73-44.53s-17-20.58-33.63-34.21c-2.22,3.08-4.41,6-6.58,8.74,10.36,7.42,18.11,13.92,18.11,13.92A72.49,72.49,0,0,1,220.09,414"/><path class="e" d="M222,411.11a63.75,63.75,0,0,0,4.5-8.22s-7.75-6.5-18.11-13.92"/><path class="e" d="M177.89,453.19a139.9,139.9,0,0,0,33.82-28.26"/><path class="e" d="M173.31,455.84c1.57-.87,3.09-1.76,4.58-2.65"/><path class="e" d="M168.08,458.63c1.79-.91,3.54-1.84,5.23-2.79"/><path class="e" d="M1486.17,396.12a5.88,5.88,0,0,0-3-7.75l-50.86-22.56a5.87,5.87,0,0,0-7.75,3L1381,467a5.87,5.87,0,0,0,3,7.76l50.85,22.56a5.87,5.87,0,0,0,7.76-3L1462,450.51Z"/><path class="e" d="M1402.14,432.73,1427.33,376a5.86,5.86,0,0,1,7.75-3l10.83,4.8-.07,5.27,16,7.08,3.54-3.73,10.9,4.84a5.87,5.87,0,0,1,3,7.75l-21.79,49.13-17,38.24a5.86,5.86,0,0,1-7.75,3l-41.16-18.26a5.87,5.87,0,0,1-3-7.75l7.86-17.72"/><polyline class="e" points="900.51 476.23 900.51 412.16 895.67 408.94 895.67 391.22"/><path class="e" d="M851.39,392V351c0-6.44-7.25-6.44-7.25,0,0,3.22.81,42.68.81,42.68l-2.42,2.41v15.3l-3.22,2.42v80"/><path class="e" d="M849.74,335.47c0,3.22-.77-14.3,4.06-14.3S857,338.08,857,342.91"/><path class="e" d="M853,321.17s0-12.08,4.83-12.08c2.42,0,1.48,11.27,1.48,11.27"/><path class="e" d="M857,309.09s-.39-11.71,4.44-12.52c.08-5.88-.83-13.88,3.61-14.86,0-7.24-.81-12.88.8-14.49,0-4.83,0-12.88,1.61-16.1,0-6.44,2.42-42.68,2.42-42.68l1.61,42.68s2.41,5.63,1.61,16.1c1.61,4,1.51,7.71,1.51,14.15"/><path class="e" d="M864.27,294.6s-1.36-14.48,6.44-14.5c6.45,0,8.06,7.25,8.06,14.5"/><path class="e" d="M873.13,267.22s-3.22-4-7.25,0"/><path class="e" d="M860.83,313.74s-1.47-13.77,2.64-18.34c4.57-5.08,10.46-5.63,16.1,0,4,4,4.13,12.5,4.13,16.53"/><path class="e" d="M858,331.68s.63-17.21,5.47-21.78c5.11-4.83,15.91-6,20.93,3.22a34.33,34.33,0,0,1,4,17.71"/><path class="e" d="M857.1,337.73s2.34-12.53,8-16.56,12.88-4.83,18.52,1.61c2.65,3,6.44,5.64,6.44,23.35"/><path class="e" d="M856.22,346.94s3.22-10.47,9.66-13.69,12.89-2.42,16.91,1.61a26.94,26.94,0,0,1,8.05,13.69c1,3.83.82,12.34.81,20.93,0,11.26,0,22.55,0,22.55"/><path class="e" d="M890.84,348.55s4.84-1.61,4.84,8.85V392l-39.46-.81"/><path class="e" d="M845,394.44l11.27-3.22V346.94c0-3.22.81-12.08-4-12.08s-4,11.27-4,11.27"/><polyline class="d" points="430.54 404 570.64 231.16 713.53 428.12"/><line class="e" x1="570.64" y1="231.15" x2="484.92" y2="432.4"/><path class="d" d="M1130,406.08a44.84,44.84,0,0,1,7-.56,28,28,0,0,1,6.11.56"/><path class="d" d="M971,466.57s23.55-.6,44.67,10c14.19-4.83,28.68-9,40.45-9.36-3-12.67-9.36-34.71-9.36-34.71s37.43-11.16,74.85,10.27"/><line class="e" x1="1056.15" y1="467.17" x2="1066.94" y2="499.69"/><path class="d" d="M1119.23,499l-20.83-53s28.37-8.45,56.44,2.41,54,33.5,75.08,55.54"/><path class="d" d="M1137,443.33s26.26-56.44,93-68.21a171.81,171.81,0,0,1-2.11,20.82"/><path class="d" d="M1234.22,504.45s.44-8.1,8.75-54.18c6.59-36.53,13.11-50.59,23.84-70.93-60.06,11.47-91.75,78.18-91.75,78.18"/><path class="d" d="M1246.59,431.86s29.28-15.39,53.42-19c-7.54,17.2-13.28,34.86-19.61,79.83"/><path class="d" d="M1289.15,443.33s35.92-10.26,58.85-6.64c-12.07,16.9-27.76,42.56-29.88,47.69"/><path class="d" d="M993.67,506.71s4.05-.49,10.8-1.24c17-1.91,51.32-5.51,81-7.21,26.26-1.51,58.56,3.62,78.48,2.72s70.32,3.32,70.32,3.32,19-9.06,23.84-10.26,20.22-.61,20.22-.61,17.21-5.73,29.58-8.75,32.6,4.83,41.65,8.15c-29.88,16-61.57,32.29-61.57,32.29H1027.78"/><path class="d" d="M1130,429.29a44.08,44.08,0,0,1,7-.57,27.5,27.5,0,0,1,6.11.57"/><path class="d" d="M949.44,376.05l11.77-2.71V359.45A1.79,1.79,0,0,1,963,358.1a1.44,1.44,0,0,1,1.47,1.47V372.7H994V347.57l-1.13-2.26V329c0-5.21,8.26-23.09,22.41-28.52,1.24-3.4,4.87-4.76,6.22-5.1,2-1.24,7.36-6.22,7.36-6.22s-.11-2.94,2.38-3.17c-.23-.79-.91-1.4-.91-2.26a3.22,3.22,0,0,1,.91-1.93,3,3,0,0,1-1.25-2.38,3.7,3.7,0,0,1,1.47-2.71l1.59-11.58,1.71,11.58a3.67,3.67,0,0,1,1.47,2.71,3,3,0,0,1-1.25,2.38,3.22,3.22,0,0,1,.91,1.93c0,.86-.68,1.47-.91,2.26,2.49.23,2.38,3.17,2.38,3.17s5.32,5,7.36,6.22c1.36.34,5,1.7,6.22,5.1,14.15,5.43,22.41,23.31,22.41,28.52v16.3l-1.13,2.26V372.7h29.54V359.57a1.44,1.44,0,0,1,1.47-1.47,1.8,1.8,0,0,1,1.78,1.35v13.89l16.62,3.62V363.68c0-1.28.61-1.74,1.66-1.74a1.63,1.63,0,0,1,1.59,1.74v79"/><line class="e" x1="962.98" y1="358.1" x2="962.98" y2="350.58"/><line class="e" x1="1103.3" y1="358.1" x2="1103.3" y2="350.58"/><line class="e" x1="1123.22" y1="361.83" x2="1123.22" y2="354.31"/><line class="e" x1="1136.69" y1="364.32" x2="1136.69" y2="356.8"/><line class="e" x1="1031.23" y1="286" x2="1034.97" y2="286"/><line class="e" x1="1031.23" y1="281.81" x2="1034.97" y2="281.81"/><path class="d" d="M1028.85,289.17a36.91,36.91,0,0,1,4.19-.23,40.64,40.64,0,0,1,4.31.23"/><path class="d" d="M992.86,345.31s14.94-8.49,41.54-8.27,38.82,7.47,38.82,7.47"/><path class="d" d="M994.1,348s13.7-7.81,40.3-7.58,37.8,6.79,37.8,6.79"/><path class="d" d="M1141.69,435.06l-.61-54.78s2-1.81-.23-2.72c-.23-2.15.91-13.24-4.41-13.35h.39c-5.32.11-4.19,11.2-4.42,13.35-2.26.91-.22,2.72-.22,2.72l-.68,62.7"/><path class="d" d="M1130.83,370.89a39.74,39.74,0,0,1,6-.57,32.87,32.87,0,0,1,5.66.57"/><path class="d" d="M1053.49,430.83V402.24c0-5-3.62-11.55-9.74-14.26a55.26,55.26,0,0,1-11.09-6.8A46.68,46.68,0,0,1,1022,388c-6.11,2.71-9.74,9.28-9.74,14.26v41.19h37.58"/><path class="f" d="M226.32,380.54s.58-.83,1.75-2.43"/><path class="g" d="M235.33,368.49C280.72,309.89,495,57.64,821,56.19c344.88-1.54,556.45,277.55,591.25,327"/><path class="f" d="M1415.65,388.19c1.11,1.63,1.66,2.49,1.66,2.49"/><circle class="a" cx="1417.88" cy="391.24" r="8.97"/></svg>