<?xml version="1.0" encoding="utf-8"?>
<!-- Generator: Adobe Illustrator 23.0.4, SVG Export Plug-In . SVG Version: 6.00 Build 0)  -->
<svg version="1.1" id="Layer_1" xmlns="http://www.w3.org/2000/svg" xmlns:xlink="http://www.w3.org/1999/xlink" x="0px" y="0px"
	 viewBox="0 0 1600 366" style="enable-background:new 0 0 1600 366;" xml:space="preserve">
<style type="text/css">
	.st0{fill:none;}
	.st1{fill:none;stroke:#FFE161;stroke-width:2;stroke-miterlimit:10;}
	.st2{fill:none;stroke:#1FBAD6;stroke-width:2;stroke-miterlimit:10;}
	.st3{fill:none;stroke:#FF6346;stroke-width:2;stroke-miterlimit:10;}
	.st4{fill:#FFE161;}
</style>
<title>homepic2</title>
<line class="st0" x1="1005.1" y1="160.3" x2="998.3" y2="163.1"/>
<path class="st1" d="M1473,160.4c0,0-193.1,184.2-680.6,184.2c-471.3,0-674.1-182.1-674.1-182.1"/>
<path class="st2" d="M1516.1,141.3l4.7-10.6l24.3-54.8c1.3-3,0-6.5-3-7.8c0,0,0,0,0,0l-51.2-22.7c-3-1.3-6.5,0-7.8,3l-43.9,99
	c-1.3,3,0,6.5,3,7.8c0,0,0,0,0,0l51.2,22.7c3,1.3,6.5,0,7.8-3c0,0,0,0,0,0l8.9-20"/>
<path class="st2" d="M1460.4,112.8l25.4-57.2c1.3-3,4.8-4.3,7.8-3l10.9,4.8l-0.1,5.3l16.1,7.1l3.6-3.8l11,4.9c3,1.3,4.3,4.8,3,7.8
	l-22,49.5l-17.1,38.5c-1.3,3-4.8,4.3-7.8,3l-41.5-18.4c-3-1.3-4.3-4.8-3-7.8l7.9-17.8L1460.4,112.8z"/>
<path class="st2" d="M119.9,106.2l20.3,37c1.5,2.9,0.5,6.4-2.3,8L98.1,173c-2.9,1.5-6.4,0.5-8-2.3l-9.4-17.1l-6.8-12.4L43.7,86.2
	c-1.5-2.9-0.5-6.4,2.3-8l10.5-5.7l4.2,3.3l15.4-8.5l-0.8-5.1l10.5-5.8c2.9-1.5,6.4-0.5,8,2.3l4.5,8.2"/>
<path class="st2" d="M101.3,61.5l-5.5-10.1c-1.6-2.8-5.1-3.9-8-2.3l-49.2,27c-2.8,1.6-3.9,5.1-2.3,8L88.3,179c1.6,2.8,5.1,3.9,8,2.4
	l49.2-27c2.8-1.6,3.9-5.1,2.4-8L124.6,104"/>
<g>
	<path class="st3" d="M101.3,61.5c6.8-13.3,12.2-27.3,16-41.8c8,2.8,15.8,6.1,23.4,9.8"/>
	<line class="st2" x1="101.3" y1="61.5" x2="98.3" y2="66.9"/>
	<path class="st3" d="M101.3,61.5c-1,1.9-2,3.7-3,5.4"/>
	<path class="st3" d="M112.9,105.7c-3.1,2.3-6.3,4.6-9.8,6.8C89.8,100,78.9,91.6,78.9,91.6s9-6.8,19.4-24.7"/>
	<path class="st3" d="M149.9,65.4c-7.6,12.5-17.1,23.7-28.2,33.2"/>
	<path class="st3" d="M156.7,52.3c1.8-3.9,3.3-8,4.4-12.1c0,0-8.8-5.1-20.4-10.7"/>
	<path class="st3" d="M140.7,29.5c1.7-3.1,3.4-6.4,5-9.8c18.9,10.6,39.3,28.1,39.3,28.1s-14.6,33.8-60.4,56.2"/>
	<path class="st3" d="M112.9,105.7c0.7,0.9,1.3,1.8,2,2.7c1.7-0.7,3.4-1.4,5-2.2"/>
	<path class="st3" d="M124.6,104c-1.5,0.8-3.1,1.5-4.7,2.2"/>
	<path class="st3" d="M117.6,102c1.4-1.2,2.8-2.3,4.1-3.4"/>
	<line class="st3" x1="117.6" y1="102" x2="121.7" y2="98.6"/>
	<line class="st3" x1="112.9" y1="105.7" x2="117.6" y2="102"/>
	<path class="st3" d="M112.9,105.7c1.6-1.2,3.2-2.4,4.7-3.7"/>
</g>
<circle class="st4" cx="121.4" cy="164" r="9"/>
<circle class="st4" cx="1468.9" cy="163.1" r="9"/>
</svg>
