<?xml version="1.0" encoding="utf-8"?>
<!-- Generator: Adobe Illustrator 23.0.0, SVG Export Plug-In . SVG Version: 6.00 Build 0)  -->
<svg version="1.1" id="Layer_1" xmlns="http://www.w3.org/2000/svg" xmlns:xlink="http://www.w3.org/1999/xlink" x="0px" y="0px"
	 viewBox="0 0 810 575" style="enable-background:new 0 0 810 575;" xml:space="preserve">
<style type="text/css">
	.st0{fill:#D6E1ED;}
	.st1{fill-rule:evenodd;clip-rule:evenodd;fill:#FFE161;}
	.st2{fill:#FFFFFF;}
	.st3{fill:none;stroke:#1EB9D5;stroke-width:2;stroke-miterlimit:10;}
	.st4{fill:#FFFFFF;stroke:#1EB9D5;stroke-width:2;stroke-miterlimit:10;}
	.st5{clip-path:url(#SVGID_2_);}
	.st6{clip-path:url(#SVGID_4_);}
	.st7{clip-path:url(#SVGID_6_);}
	.st8{clip-path:url(#SVGID_8_);}
</style>
<title>homepic1</title>
<path class="st0" d="M190.8,118.8c0-1-0.8-1.8-1.8-1.8c-1,0-1.8,0.8-1.8,1.8c0,1,0.8,1.8,1.8,1.8c0,0,0,0,0,0
	C190,120.6,190.8,119.8,190.8,118.8L190.8,118.8z"/>
<path class="st0" d="M229.6,118.8c0-1-0.8-1.8-1.8-1.8s-1.8,0.8-1.8,1.8c0,1,0.8,1.8,1.8,1.8c0,0,0,0,0,0
	C228.8,120.6,229.6,119.8,229.6,118.8C229.6,118.8,229.6,118.8,229.6,118.8z"/>
<path class="st0" d="M74.7,118.8c0-1-0.8-1.8-1.8-1.8s-1.8,0.8-1.8,1.8s0.8,1.8,1.8,1.8C73.8,120.6,74.6,119.8,74.7,118.8
	C74.7,118.8,74.7,118.8,74.7,118.8z"/>
<path class="st0" d="M152.1,118.8c0-1-0.8-1.8-1.8-1.8c-1,0-1.8,0.8-1.8,1.8c0,1,0.8,1.8,1.8,1.8c0,0,0,0,0,0
	C151.3,120.6,152.1,119.8,152.1,118.8L152.1,118.8z"/>
<path class="st0" d="M229.6,78.2c0-1-0.8-1.8-1.8-1.8c-1,0-1.8,0.8-1.8,1.8s0.8,1.8,1.8,1.8c0,0,0,0,0,0
	C228.7,80,229.6,79.2,229.6,78.2z"/>
<path class="st0" d="M152.1,78.2c0-1-0.8-1.8-1.8-1.8s-1.8,0.8-1.8,1.8c0,1,0.8,1.8,1.8,1.8c0,0,0,0,0,0
	C151.3,80,152.1,79.2,152.1,78.2z"/>
<path class="st0" d="M465.3,40.5c0-1-0.8-1.8-1.8-1.8c-1,0-1.8,0.8-1.8,1.8c0,1,0.8,1.8,1.8,1.8c0,0,0,0,0,0
	C464.5,42.3,465.3,41.5,465.3,40.5z"/>
<path class="st0" d="M310.4,40.5c0-1-0.8-1.8-1.8-1.8c-1,0-1.8,0.8-1.8,1.8c0,1,0.8,1.8,1.8,1.8c0,0,0,0,0,0
	C309.6,42.3,310.4,41.5,310.4,40.5C310.4,40.5,310.4,40.5,310.4,40.5z"/>
<path class="st0" d="M349.1,40.5c0-1-0.8-1.8-1.8-1.8c-1,0-1.8,0.8-1.8,1.8c0,1,0.8,1.8,1.8,1.8c0,0,0,0,0,0
	C348.3,42.3,349.1,41.5,349.1,40.5z"/>
<path class="st0" d="M387.9,40.5c0-1-0.8-1.8-1.8-1.8c-1,0-1.8,0.8-1.8,1.8c0,1,0.8,1.8,1.8,1.8c0,0,0,0,0,0
	C387.1,42.3,387.9,41.5,387.9,40.5C387.9,40.5,387.9,40.5,387.9,40.5z"/>
<path class="st0" d="M271.7,40.5c0-1-0.8-1.8-1.8-1.8c-1,0-1.8,0.8-1.8,1.8c0,1,0.8,1.8,1.8,1.8c0,0,0,0,0,0
	C270.9,42.3,271.7,41.5,271.7,40.5C271.7,40.5,271.7,40.5,271.7,40.5z"/>
<path class="st0" d="M661.7,40.5c0-1-0.8-1.8-1.8-1.8s-1.8,0.8-1.8,1.8c0,1,0.8,1.8,1.8,1.8c0,0,0,0,0,0
	C660.9,42.3,661.7,41.5,661.7,40.5z"/>
<path class="st0" d="M584.2,40.5c0-1-0.8-1.8-1.8-1.8s-1.8,0.8-1.8,1.8c0,1,0.8,1.8,1.8,1.8c0,0,0,0,0,0
	C583.4,42.3,584.2,41.5,584.2,40.5C584.2,40.5,584.2,40.5,584.2,40.5z"/>
<path class="st0" d="M623,40.5c0-1-0.8-1.8-1.8-1.8s-1.8,0.8-1.8,1.8c0,1,0.8,1.8,1.8,1.8c0,0,0,0,0,0C622.1,42.3,623,41.5,623,40.5
	z"/>
<path class="st0" d="M506.8,40.5c0-1-0.8-1.8-1.8-1.8c-1,0-1.8,0.8-1.8,1.8c0,1,0.8,1.8,1.8,1.8c0,0,0,0,0,0
	C506,42.3,506.8,41.5,506.8,40.5z"/>
<path class="st0" d="M190.8,236.1c0-1-0.8-1.8-1.8-1.8s-1.8,0.8-1.8,1.8s0.8,1.8,1.8,1.8c0,0,0,0,0,0
	C190,237.9,190.8,237.1,190.8,236.1z"/>
<path class="st0" d="M229.6,236.1c0-1-0.8-1.8-1.8-1.8c-1,0-1.8,0.8-1.8,1.8s0.8,1.8,1.8,1.8c0,0,0,0,0,0
	C228.8,237.9,229.6,237.1,229.6,236.1z"/>
<path class="st0" d="M74.7,236.1c0-1-0.8-1.8-1.8-1.8c-1,0-1.8,0.8-1.8,1.8s0.8,1.8,1.8,1.8S74.7,237.1,74.7,236.1L74.7,236.1z"/>
<path class="st0" d="M113.4,236.1c0-1-0.8-1.8-1.8-1.8c-1,0-1.8,0.8-1.8,1.8c0,1,0.8,1.8,1.8,1.8c0,0,0,0,0,0
	C112.6,237.9,113.4,237.1,113.4,236.1z"/>
<path class="st0" d="M152.1,236.1c0-1-0.8-1.8-1.8-1.8s-1.8,0.8-1.8,1.8s0.8,1.8,1.8,1.8c0,0,0,0,0,0
	C151.3,237.9,152.1,237.1,152.1,236.1z"/>
<path class="st0" d="M35.9,236.1c0-1-0.8-1.8-1.8-1.8s-1.8,0.8-1.8,1.8c0,1,0.8,1.8,1.8,1.8c0,0,0,0,0,0
	C35.1,237.9,35.9,237.1,35.9,236.1z"/>
<path class="st0" d="M190.8,195.5c0-1-0.8-1.8-1.8-1.8s-1.8,0.8-1.8,1.8s0.8,1.8,1.8,1.8c0,0,0,0,0,0
	C190,197.3,190.8,196.5,190.8,195.5z"/>
<path class="st0" d="M229.6,195.5c0-1-0.8-1.8-1.8-1.8c-1,0-1.8,0.8-1.8,1.8s0.8,1.8,1.8,1.8c0,0,0,0,0,0
	C228.8,197.3,229.6,196.5,229.6,195.5z"/>
<path class="st0" d="M190.8,157.8c0-1-0.8-1.8-1.8-1.8s-1.8,0.8-1.8,1.8s0.8,1.8,1.8,1.8c0,0,0,0,0,0
	C190,159.6,190.8,158.8,190.8,157.8z"/>
<path class="st0" d="M229.6,157.8c0-1-0.8-1.8-1.8-1.8c-1,0-1.8,0.8-1.8,1.8s0.8,1.8,1.8,1.8c0,0,0,0,0,0
	C228.8,159.6,229.6,158.8,229.6,157.8z"/>
<path class="st0" d="M74.7,195.5c0-1-0.8-1.8-1.8-1.8c-1,0-1.8,0.8-1.8,1.8s0.8,1.8,1.8,1.8S74.7,196.5,74.7,195.5L74.7,195.5z"/>
<path class="st0" d="M113.4,195.5c0-1-0.8-1.8-1.8-1.8c-1,0-1.8,0.8-1.8,1.8c0,1,0.8,1.8,1.8,1.8c0,0,0,0,0,0
	C112.6,197.3,113.4,196.5,113.4,195.5z"/>
<path class="st0" d="M152.1,195.5c0-1-0.8-1.8-1.8-1.8s-1.8,0.8-1.8,1.8s0.8,1.8,1.8,1.8c0,0,0,0,0,0
	C151.3,197.3,152.1,196.5,152.1,195.5z"/>
<path class="st0" d="M74.7,157.8c0-1-0.8-1.8-1.8-1.8c-1,0-1.8,0.8-1.8,1.8s0.8,1.8,1.8,1.8S74.7,158.8,74.7,157.8L74.7,157.8z"/>
<path class="st0" d="M152.1,157.8c0-1-0.8-1.8-1.8-1.8s-1.8,0.8-1.8,1.8s0.8,1.8,1.8,1.8c0,0,0,0,0,0
	C151.3,159.6,152.1,158.8,152.1,157.8z"/>
<path class="st0" d="M781.6,236.1c0-1-0.8-1.8-1.8-1.8c-1,0-1.8,0.8-1.8,1.8c0,1,0.8,1.8,1.8,1.8c0,0,0,0,0,0
	C780.8,237.9,781.6,237.1,781.6,236.1z"/>
<path class="st0" d="M742.9,236.1c0-1-0.8-1.8-1.8-1.8c-1,0-1.8,0.8-1.8,1.8c0,1,0.8,1.8,1.8,1.8c0,0,0,0,0,0
	C742.1,237.9,742.9,237.1,742.9,236.1z"/>
<path class="st0" d="M781.6,195.5c0-1-0.8-1.8-1.8-1.8c-1,0-1.8,0.8-1.8,1.8c0,1,0.8,1.8,1.8,1.8c0,0,0,0,0,0
	C780.8,197.3,781.6,196.5,781.6,195.5z"/>
<path class="st0" d="M742.9,195.5c0-1-0.8-1.8-1.8-1.8c-1,0-1.8,0.8-1.8,1.8c0,1,0.8,1.8,1.8,1.8c0,0,0,0,0,0
	C742.1,197.3,742.9,196.5,742.9,195.5z"/>
<path class="st0" d="M742.9,157.8c0-1-0.8-1.8-1.8-1.8c-1,0-1.8,0.8-1.8,1.8c0,1,0.8,1.8,1.8,1.8c0,0,0,0,0,0
	C742.1,159.6,742.9,158.8,742.9,157.8z"/>
<path class="st0" d="M190.8,355.3c0-1-0.8-1.8-1.8-1.8c-1,0-1.8,0.8-1.8,1.8c0,1,0.8,1.8,1.8,1.8c0,0,0,0,0,0
	C190,357.1,190.8,356.3,190.8,355.3z"/>
<path class="st0" d="M229.6,355.3c0-1-0.8-1.8-1.8-1.8s-1.8,0.8-1.8,1.8c0,1,0.8,1.8,1.8,1.8c0,0,0,0,0,0
	C228.8,357.1,229.6,356.3,229.6,355.3z"/>
<path class="st0" d="M74.7,355.3c0-1-0.8-1.8-1.8-1.8s-1.8,0.8-1.8,1.8s0.8,1.8,1.8,1.8h0C73.8,357.1,74.7,356.3,74.7,355.3z"/>
<path class="st0" d="M113.4,355.3c0-1-0.8-1.8-1.8-1.8c-1,0-1.8,0.8-1.8,1.8c0,1,0.8,1.8,1.8,1.8c0,0,0,0,0,0
	C112.6,357.1,113.4,356.3,113.4,355.3z"/>
<path class="st0" d="M152.1,355.3c0-1-0.8-1.8-1.8-1.8c-1,0-1.8,0.8-1.8,1.8c0,1,0.8,1.8,1.8,1.8c0,0,0,0,0,0
	C151.3,357.1,152.1,356.3,152.1,355.3z"/>
<path class="st0" d="M35.9,355.3c0-1-0.8-1.8-1.8-1.8c-1,0-1.8,0.8-1.8,1.8c0,1,0.8,1.8,1.8,1.8c0,0,0,0,0,0
	C35.1,357.1,35.9,356.3,35.9,355.3z"/>
<path class="st0" d="M190.8,314.6c0-1-0.8-1.8-1.8-1.8c-1,0-1.8,0.8-1.8,1.8s0.8,1.8,1.8,1.8c0,0,0,0,0,0
	C190,316.4,190.8,315.6,190.8,314.6z"/>
<path class="st0" d="M229.6,314.6c0-1-0.8-1.8-1.8-1.8s-1.8,0.8-1.8,1.8s0.8,1.8,1.8,1.8l0,0C228.8,316.5,229.6,315.6,229.6,314.6z"
	/>
<path class="st0" d="M190.8,277c0-1-0.8-1.8-1.8-1.8c-1,0-1.8,0.8-1.8,1.8c0,1,0.8,1.8,1.8,1.8c0,0,0,0,0,0
	C190,278.8,190.8,278,190.8,277z"/>
<path class="st0" d="M229.6,277c0-1-0.8-1.8-1.8-1.8s-1.8,0.8-1.8,1.8c0,1,0.8,1.8,1.8,1.8c0,0,0,0,0,0
	C228.8,278.8,229.6,278,229.6,277z"/>
<path class="st0" d="M74.7,314.6c0-1-0.8-1.8-1.8-1.8c-1,0-1.8,0.8-1.8,1.8c0,1,0.8,1.8,1.8,1.8C73.8,316.5,74.7,315.6,74.7,314.6
	C74.7,314.6,74.7,314.6,74.7,314.6z"/>
<path class="st0" d="M113.4,314.6c0-1-0.8-1.8-1.8-1.8s-1.8,0.8-1.8,1.8c0,1,0.8,1.8,1.8,1.8c0,0,0,0,0,0
	C112.6,316.5,113.4,315.6,113.4,314.6z"/>
<path class="st0" d="M152.1,314.6c0-1-0.8-1.8-1.8-1.8c-1,0-1.8,0.8-1.8,1.8s0.8,1.8,1.8,1.8c0,0,0,0,0,0
	C151.3,316.4,152.1,315.6,152.1,314.6z"/>
<path class="st0" d="M74.7,277c0-1-0.8-1.8-1.8-1.8s-1.8,0.8-1.8,1.8s0.8,1.8,1.8,1.8h0C73.8,278.8,74.7,278,74.7,277z"/>
<path class="st0" d="M113.4,277c0-1-0.8-1.8-1.8-1.8c-1,0-1.8,0.8-1.8,1.8c0,1,0.8,1.8,1.8,1.8c0,0,0,0,0,0
	C112.6,278.8,113.4,278,113.4,277z"/>
<path class="st0" d="M152.1,277c0-1-0.8-1.8-1.8-1.8c-1,0-1.8,0.8-1.8,1.8c0,1,0.8,1.8,1.8,1.8c0,0,0,0,0,0
	C151.3,278.8,152.1,278,152.1,277z"/>
<path class="st0" d="M35.9,314.6c0-1-0.8-1.8-1.8-1.8c-1,0-1.8,0.8-1.8,1.8c0,1,0.8,1.8,1.8,1.8c0,0,0,0,0,0
	C35.1,316.4,35.9,315.6,35.9,314.6z"/>
<path class="st0" d="M35.9,277c0-1-0.8-1.8-1.8-1.8c-1,0-1.8,0.8-1.8,1.8c0,1,0.8,1.8,1.8,1.8c0,0,0,0,0,0
	C35.1,278.8,35.9,278,35.9,277z"/>
<path class="st0" d="M426.6,355.3c0-1-0.8-1.8-1.8-1.8c-1,0-1.8,0.8-1.8,1.8c0,1,0.8,1.8,1.8,1.8c0,0,0,0,0,0
	C425.8,357.1,426.6,356.3,426.6,355.3z"/>
<path class="st0" d="M310.4,355.3c0-1-0.8-1.8-1.8-1.8c-1,0-1.8,0.8-1.8,1.8c0,1,0.8,1.8,1.8,1.8c0,0,0,0,0,0
	C309.6,357.1,310.4,356.3,310.4,355.3z"/>
<path class="st0" d="M349.1,355.3c0-1-0.8-1.8-1.8-1.8c-1,0-1.8,0.8-1.8,1.8c0,1,0.8,1.8,1.8,1.8c0,0,0,0,0,0
	C348.3,357.1,349.1,356.3,349.1,355.3z"/>
<path class="st0" d="M387.9,355.3c0-1-0.8-1.8-1.8-1.8c-1,0-1.8,0.8-1.8,1.8c0,1,0.8,1.8,1.8,1.8c0,0,0,0,0,0
	C387.1,357.1,387.9,356.3,387.9,355.3z"/>
<path class="st0" d="M271.7,355.3c0-1-0.8-1.8-1.8-1.8c-1,0-1.8,0.8-1.8,1.8c0,1,0.8,1.8,1.8,1.8c0,0,0,0,0,0
	C270.9,357.1,271.7,356.3,271.7,355.3z"/>
<path class="st0" d="M661.7,355.3c0-1-0.8-1.8-1.8-1.8c-1,0-1.8,0.8-1.8,1.8c0,1,0.8,1.8,1.8,1.8c0,0,0,0,0,0
	C660.9,357.1,661.7,356.3,661.7,355.3z"/>
<path class="st0" d="M700.4,355.3c0-1-0.8-1.8-1.8-1.8c-1,0-1.8,0.8-1.8,1.8c0,1,0.8,1.8,1.8,1.8c0,0,0,0,0,0
	C699.6,357.1,700.4,356.3,700.4,355.3z"/>
<path class="st0" d="M545.5,355.3c0-1-0.8-1.8-1.8-1.8s-1.8,0.8-1.8,1.8c0,1,0.8,1.8,1.8,1.8l0,0
	C544.7,357.1,545.5,356.3,545.5,355.3z"/>
<path class="st0" d="M584.2,355.3c0-1-0.8-1.8-1.8-1.8c-1,0-1.8,0.8-1.8,1.8c0,1,0.8,1.8,1.8,1.8c0,0,0,0,0,0
	C583.4,357.1,584.2,356.3,584.2,355.3z"/>
<path class="st0" d="M623,355.3c0-1-0.8-1.8-1.8-1.8c-1,0-1.8,0.8-1.8,1.8c0,1,0.8,1.8,1.8,1.8c0,0,0,0,0,0
	C622.1,357.1,622.9,356.3,623,355.3z"/>
<path class="st0" d="M742.9,355.3c0-1-0.8-1.8-1.8-1.8c-1,0-1.8,0.8-1.8,1.8c0,1,0.8,1.8,1.8,1.8c0,0,0,0,0,0
	C742.1,357.1,742.9,356.3,742.9,355.3z"/>
<path class="st0" d="M781.6,277c0-1-0.8-1.8-1.8-1.8c-1,0-1.8,0.8-1.8,1.8c0,1,0.8,1.8,1.8,1.8c0,0,0,0,0,0
	C780.8,278.8,781.6,278,781.6,277z"/>
<path class="st0" d="M742.9,314.6c0-1-0.8-1.8-1.8-1.8s-1.8,0.8-1.8,1.8s0.8,1.8,1.8,1.8l0,0C742.1,316.5,742.9,315.6,742.9,314.6z"
	/>
<path class="st0" d="M742.9,277c0-1-0.8-1.8-1.8-1.8c-1,0-1.8,0.8-1.8,1.8c0,1,0.8,1.8,1.8,1.8c0,0,0,0,0,0
	C742.1,278.8,742.9,278,742.9,277z"/>
<path class="st0" d="M152.1,472.5c0-1-0.8-1.8-1.8-1.8c-1,0-1.8,0.8-1.8,1.8c0,1,0.8,1.8,1.8,1.8c0,0,0,0,0,0
	C151.3,474.3,152.1,473.5,152.1,472.5z"/>
<path class="st0" d="M229.6,432c0-1-0.8-1.8-1.8-1.8s-1.8,0.8-1.8,1.8c0,1,0.8,1.8,1.8,1.8c0,0,0,0,0,0
	C228.8,433.8,229.6,433,229.6,432z"/>
<path class="st0" d="M190.8,394.3c0-1-0.8-1.8-1.8-1.8c-1,0-1.8,0.8-1.8,1.8c0,1,0.8,1.8,1.8,1.8c0,0,0,0,0,0
	C190,396.1,190.8,395.3,190.8,394.3z"/>
<path class="st0" d="M229.6,394.3c0-1-0.8-1.8-1.8-1.8s-1.8,0.8-1.8,1.8c0,1,0.8,1.8,1.8,1.8c0,0,0,0,0,0
	C228.8,396.1,229.6,395.3,229.6,394.3z"/>
<path class="st0" d="M74.7,432c0-1-0.8-1.8-1.8-1.8s-1.8,0.8-1.8,1.8s0.8,1.8,1.8,1.8h0C73.8,433.8,74.7,433,74.7,432z"/>
<path class="st0" d="M113.4,432c0-1-0.8-1.8-1.8-1.8c-1,0-1.8,0.8-1.8,1.8c0,1,0.8,1.8,1.8,1.8c0,0,0,0,0,0
	C112.6,433.8,113.4,433,113.4,432z"/>
<path class="st0" d="M152.1,432c0-1-0.8-1.8-1.8-1.8c-1,0-1.8,0.8-1.8,1.8c0,1,0.8,1.8,1.8,1.8c0,0,0,0,0,0
	C151.3,433.8,152.1,433,152.1,432z"/>
<path class="st0" d="M74.7,394.3c0-1-0.8-1.8-1.8-1.8s-1.8,0.8-1.8,1.8s0.8,1.8,1.8,1.8h0C73.8,396.1,74.7,395.3,74.7,394.3z"/>
<path class="st0" d="M113.4,394.3c0-1-0.8-1.8-1.8-1.8c-1,0-1.8,0.8-1.8,1.8c0,1,0.8,1.8,1.8,1.8c0,0,0,0,0,0
	C112.6,396.1,113.4,395.3,113.4,394.3z"/>
<path class="st0" d="M152.1,394.3c0-1-0.8-1.8-1.8-1.8c-1,0-1.8,0.8-1.8,1.8c0,1,0.8,1.8,1.8,1.8c0,0,0,0,0,0
	C151.3,396.1,152.1,395.3,152.1,394.3z"/>
<path class="st0" d="M349.1,472.5c0-1-0.8-1.8-1.8-1.8c-1,0-1.8,0.8-1.8,1.8c0,1,0.8,1.8,1.8,1.8c0,0,0,0,0,0
	C348.3,474.3,349.1,473.5,349.1,472.5z"/>
<path class="st0" d="M426.6,432c0-1-0.8-1.8-1.8-1.8c-1,0-1.8,0.8-1.8,1.8c0,1,0.8,1.8,1.8,1.8c0,0,0,0,0,0
	C425.8,433.8,426.6,433,426.6,432z"/>
<path class="st0" d="M426.6,394.3c0-1-0.8-1.8-1.8-1.8c-1,0-1.8,0.8-1.8,1.8c0,1,0.8,1.8,1.8,1.8c0,0,0,0,0,0
	C425.8,396.1,426.6,395.3,426.6,394.3z"/>
<path class="st0" d="M310.4,432c0-1-0.8-1.8-1.8-1.8c-1,0-1.8,0.8-1.8,1.8c0,1,0.8,1.8,1.8,1.8c0,0,0,0,0,0
	C309.6,433.8,310.4,433,310.4,432z"/>
<path class="st0" d="M349.1,432c0-1-0.8-1.8-1.8-1.8c-1,0-1.8,0.8-1.8,1.8c0,1,0.8,1.8,1.8,1.8c0,0,0,0,0,0
	C348.3,433.8,349.1,433,349.1,432z"/>
<path class="st0" d="M387.9,432c0-1-0.8-1.8-1.8-1.8c-1,0-1.8,0.8-1.8,1.8c0,1,0.8,1.8,1.8,1.8c0,0,0,0,0,0
	C387.1,433.8,387.9,433,387.9,432z"/>
<path class="st0" d="M310.4,394.3c0-1-0.8-1.8-1.8-1.8c-1,0-1.8,0.8-1.8,1.8c0,1,0.8,1.8,1.8,1.8c0,0,0,0,0,0
	C309.6,396.1,310.4,395.3,310.4,394.3z"/>
<path class="st0" d="M349.1,394.3c0-1-0.8-1.8-1.8-1.8c-1,0-1.8,0.8-1.8,1.8c0,1,0.8,1.8,1.8,1.8c0,0,0,0,0,0
	C348.3,396.1,349.1,395.3,349.1,394.3z"/>
<path class="st0" d="M387.9,394.3c0-1-0.8-1.8-1.8-1.8c-1,0-1.8,0.8-1.8,1.8c0,1,0.8,1.8,1.8,1.8c0,0,0,0,0,0
	C387.1,396.1,387.9,395.3,387.9,394.3z"/>
<path class="st0" d="M271.7,432c0-1-0.8-1.8-1.8-1.8c-1,0-1.8,0.8-1.8,1.8c0,1,0.8,1.8,1.8,1.8c0,0,0,0,0,0
	C270.9,433.8,271.7,433,271.7,432z"/>
<path class="st0" d="M271.7,394.3c0-1-0.8-1.8-1.8-1.8c-1,0-1.8,0.8-1.8,1.8c0,1,0.8,1.8,1.8,1.8c0,0,0,0,0,0
	C270.9,396.1,271.7,395.3,271.7,394.3z"/>
<path class="st0" d="M661.7,472.5c0-1-0.8-1.8-1.8-1.8c-1,0-1.8,0.8-1.8,1.8c0,1,0.8,1.8,1.8,1.8c0,0,0,0,0,0
	C660.9,474.3,661.7,473.5,661.7,472.5z"/>
<path class="st0" d="M545.5,472.5c0-1-0.8-1.8-1.8-1.8s-1.8,0.8-1.8,1.8c0,1,0.8,1.8,1.8,1.8l0,0
	C544.7,474.3,545.5,473.5,545.5,472.5z"/>
<path class="st0" d="M661.7,432c0-1-0.8-1.8-1.8-1.8c-1,0-1.8,0.8-1.8,1.8c0,1,0.8,1.8,1.8,1.8c0,0,0,0,0,0
	C660.9,433.8,661.7,433,661.7,432z"/>
<path class="st0" d="M661.7,394.3c0-1-0.8-1.8-1.8-1.8c-1,0-1.8,0.8-1.8,1.8c0,1,0.8,1.8,1.8,1.8c0,0,0,0,0,0
	C660.9,396.1,661.7,395.3,661.7,394.3z"/>
<path class="st0" d="M700.4,394.3c0-1-0.8-1.8-1.8-1.8c-1,0-1.8,0.8-1.8,1.8c0,1,0.8,1.8,1.8,1.8c0,0,0,0,0,0
	C699.6,396.1,700.4,395.3,700.4,394.3z"/>
<path class="st0" d="M545.5,432c0-1-0.8-1.8-1.8-1.8s-1.8,0.8-1.8,1.8c0,1,0.8,1.8,1.8,1.8l0,0C544.7,433.8,545.5,433,545.5,432z"/>
<path class="st0" d="M623,432c0-1-0.8-1.8-1.8-1.8c-1,0-1.8,0.8-1.8,1.8c0,1,0.8,1.8,1.8,1.8c0,0,0,0,0,0
	C622.1,433.8,622.9,433,623,432z"/>
<path class="st0" d="M545.5,394.3c0-1-0.8-1.8-1.8-1.8s-1.8,0.8-1.8,1.8c0,1,0.8,1.8,1.8,1.8l0,0
	C544.7,396.1,545.5,395.3,545.5,394.3z"/>
<path class="st0" d="M623,394.3c0-1-0.8-1.8-1.8-1.8c-1,0-1.8,0.8-1.8,1.8c0,1,0.8,1.8,1.8,1.8c0,0,0,0,0,0
	C622.1,396.1,622.9,395.3,623,394.3z"/>
<path class="st0" d="M506.8,432c0-1-0.8-1.8-1.8-1.8c-1,0-1.8,0.8-1.8,1.8c0,1,0.8,1.8,1.8,1.8c0,0,0,0,0,0
	C506,433.8,506.8,433,506.8,432z"/>
<polyline class="st1" points="498.4,180.6 501.6,186.1 479.3,224.7 434.7,224.7 412.4,186.1 434.7,147.5 479.3,147.5 492.3,170.1 
	"/>
<polyline class="st1" points="533,250.4 527,248.8 515.7,206.6 546.6,175.7 588.8,187.1 600.1,229.2 569.2,260.1 544.5,253.5 "/>
<polyline class="st1" points="590.8,106.5 592.4,100.3 635.6,88.2 667.7,119.6 656.5,163.1 613.3,175.2 581.2,143.8 587.7,118.3 "/>
<polyline class="st1" points="696.5,259.9 695.9,266.2 655.9,284.6 619.9,259.1 623.9,215.2 664,196.8 700,222.3 697.6,247.9 "/>
<circle class="st2" cx="460" cy="184.9" r="12.3"/>
<circle class="st2" cx="557.3" cy="216.4" r="12.3"/>
<circle class="st2" cx="659.8" cy="239.7" r="12.3"/>
<circle class="st2" cx="624.5" cy="134.6" r="12.3"/>
<polyline class="st3" points="506.1,176.2 509.5,182 486.1,222.5 439.4,222.5 416,182 439.4,141.5 486.1,141.5 499.8,165.2 "/>
<path class="st3" d="M458.2,170.6c1.4-0.6,3-0.9,4.5-0.9c6.8,0,12.2,5.5,12.2,12.2c0,6.8-5.5,12.2-12.2,12.2
	c-6.8,0-12.2-5.5-12.2-12.2c0-1.8,0.4-3.5,1.1-5.2"/>
<path class="st3" d="M495.1,304c6.2,2.7,9.1,9.9,6.4,16.1s-9.9,9.1-16.1,6.4c-6.2-2.7-9.1-9.9-6.4-16.1c0.6-1.4,1.5-2.7,2.6-3.8
	c1.3-1.3,2.8-2.2,4.5-2.9"/>
<polyline class="st3" points="528.2,254.3 521.8,252.6 509.7,207.4 542.7,174.4 587.9,186.5 600,231.6 566.9,264.7 540.5,257.6 "/>
<path class="st3" d="M566.1,224.4c-2.7,6.2-9.9,9.1-16.1,6.4c-6.2-2.7-9.1-9.9-6.4-16.1c2.7-6.2,9.9-9.1,16.1-6.4
	c3.1,1.3,5.5,3.9,6.7,7"/>
<polyline class="st3" points="589.2,112.1 590.8,105.6 635.9,93 669.3,125.7 657.7,171 612.7,183.6 579.2,150.9 586,124.4 "/>
<path class="st3" d="M619.6,149.6c-1.4-0.6-2.7-1.5-3.8-2.6c-4.8-4.7-4.9-12.5-0.2-17.3c4.7-4.8,12.5-4.9,17.3-0.2
	c4.8,4.7,4.9,12.5,0.2,17.3c-1.2,1.3-2.8,2.3-4.4,2.9"/>
<polyline class="st3" points="700.1,256.5 699.5,263.2 657,282.7 618.9,255.7 623.2,209.2 665.6,189.6 703.8,216.6 701.3,243.8 "/>
<path class="st3" d="M664.2,224.3c6.6,1.6,10.6,8.2,9,14.8s-8.2,10.6-14.8,9c-6.6-1.6-10.6-8.2-9-14.8c0.4-1.5,1-2.9,1.9-4.2
	c1-1.5,2.4-2.7,3.9-3.6"/>
<path class="st3" d="M295.7,70.8h394.8c14.9,0,26.9,12.1,26.9,26.9v218c0,14.9-12.1,26.9-26.9,26.9H295.7
	c-14.9,0-26.9-12.1-26.9-26.9v-218C268.8,82.9,280.8,70.8,295.7,70.8z"/>
<line class="st3" x1="525.4" y1="342.6" x2="525.4" y2="400.3"/>
<line class="st3" x1="450.6" y1="352.6" x2="450.6" y2="400.3"/>
<line class="st3" x1="329.6" y1="401.6" x2="647.1" y2="401.6"/>
<line class="st3" x1="269.4" y1="291.3" x2="716.8" y2="291.3"/>
<path class="st4" d="M340.7,202.9h20c7.2,0,13.1,5.8,13.1,13.1c0,0,0,0,0,0v150.3c0,7.2-5.9,13.1-13.1,13.1H121.4
	c-7.2,0-13.1-5.9-13.1-13.1V216c0-7.2,5.9-13.1,13.1-13.1h196.1"/>
<path class="st4" d="M270.6,370.8h81.6c7.6,0,13.8-6.1,13.8-13.7c0,0,0,0,0,0V225.2c0-7.6-6.2-13.8-13.8-13.8c0,0,0,0,0,0H128.6
	c-7.6,0-13.7,6.1-13.8,13.7c0,0,0,0,0,0V357c0,7.6,6.1,13.7,13.7,13.8c0,0,0,0,0,0h122.6"/>
<path class="st4" d="M238.2,229.5v8.8c0,3.2-2.6,5.7-5.7,5.7c0,0,0,0,0,0h-46.4c-3.2,0-5.7-2.6-5.7-5.7c0,0,0,0,0,0v-105
	c0-3.2,2.6-5.7,5.7-5.7c0,0,0,0,0,0h46.4c3.2,0,5.7,2.6,5.7,5.7l0,0v70.6"/>
<polyline class="st4" points="184.7,152.5 184.7,145.2 233.8,145.2 233.8,225.1 184.7,225.1 184.7,173.5 "/>
<circle class="st4" cx="209.3" cy="234" r="4.8"/>
<polyline class="st1" points="215.7,281.6 220.2,286.1 208.7,329.1 165.6,340.7 134.1,309.1 145.6,266.1 188.7,254.6 207.1,273 "/>
<polyline class="st3" points="210.8,329.8 209.1,336.3 163.9,348.4 130.9,315.3 143,270.2 188.1,258.1 221.2,291.1 214.1,317.5 "/>
<g>
	<defs>
		<rect id="SVGID_1_" x="185.8" y="146.3" width="47.1" height="76.9"/>
	</defs>
	<clipPath id="SVGID_2_">
		<use xlink:href="#SVGID_1_"  style="overflow:visible;"/>
	</clipPath>
	<g class="st5">
		<polyline class="st3" points="266,167 269.2,172.5 246.7,211.5 201.8,211.5 179.3,172.5 201.8,133.6 246.7,133.6 259.8,156.4 		
			"/>
	</g>
</g>
<g>
	<defs>
		<rect id="SVGID_3_" x="185.7" y="146.3" width="47.1" height="76.9"/>
	</defs>
	<clipPath id="SVGID_4_">
		<use xlink:href="#SVGID_3_"  style="overflow:visible;"/>
	</clipPath>
	<g class="st6">
		<polyline class="st1" points="269.1,169.7 272.4,175.2 250.7,214.1 206.1,214.7 183.2,176.4 205,137.5 249.6,136.9 262.9,159.3 		
			"/>
	</g>
</g>
<circle class="st2" cx="177.9" cy="298.4" r="12.3"/>
<path class="st3" d="M180.9,292c6.2,2.7,9.1,9.9,6.4,16.1c-2.7,6.2-9.9,9.1-16.1,6.4s-9.1-9.9-6.4-16.1c1.3-3.1,3.9-5.5,7.1-6.7"/>
<g>
	<defs>
		<rect id="SVGID_5_" x="212.7" y="156.1" width="20.1" height="33.9"/>
	</defs>
	<clipPath id="SVGID_6_">
		<use xlink:href="#SVGID_5_"  style="overflow:visible;"/>
	</clipPath>
	<g class="st7">
		<circle class="st2" cx="227.1" cy="174.8" r="12.3"/>
	</g>
</g>
<g>
	<defs>
		<rect id="SVGID_7_" x="206.6" y="155.7" width="26.3" height="37.2"/>
	</defs>
	<clipPath id="SVGID_8_">
		<use xlink:href="#SVGID_7_"  style="overflow:visible;"/>
	</clipPath>
	<g class="st8">
		<path class="st3" d="M220.7,161.5c1.4-0.5,2.9-0.8,4.3-0.8c6.5,0,11.7,5.3,11.7,11.7s-5.3,11.7-11.7,11.7
			c-6.5,0-11.7-5.3-11.7-11.7c0-1.7,0.4-3.4,1.1-4.9"/>
	</g>
</g>
</svg>
