<svg xmlns="http://www.w3.org/2000/svg" viewBox="0 0 1600 828.44"><defs><style>.a{font-size:20px;font-family:PTSans-Regular, PT Sans;}.b{letter-spacing:-0.02em;}.c{letter-spacing:-0.02em;}.d{letter-spacing:-0.02em;}.e{letter-spacing:-0.04em;}.f{letter-spacing:-0.03em;}.g{letter-spacing:-0.11em;}.h{letter-spacing:-0.01em;}.i{letter-spacing:-0.08em;}.j{letter-spacing:-0.04em;}.k{letter-spacing:-0.05em;}.l{letter-spacing:-0.02em;}.m{letter-spacing:-0.01em;}.n{letter-spacing:-0.02em;}.o{letter-spacing:-0.04em;}.p{letter-spacing:-0.06em;}.q{letter-spacing:-0.04em;}.r{letter-spacing:-0.03em;}.s{letter-spacing:-0.13em;}.t{letter-spacing:-0.04em;}.u,.x{fill:none;stroke-linecap:round;stroke-linejoin:round;stroke-width:2px;}.u{stroke:#1eb9d5;}.v{fill:#1eb9d5;}.w{fill:#17bad6;}.x{stroke:#17bad6;fill-rule:evenodd;}</style></defs><title>art-6</title><text class="a" transform="translate(222.17 214.14)">Self Servi<tspan class="b" x="80.92" y="0">c</tspan><tspan x="89.48" y="0">e Machines</tspan><tspan class="c" x="32.25" y="180.1">P</tspan><tspan x="43.09" y="180.1">OS Machines</tspan><tspan x="9.82" y="360.21">Mon</tspan><tspan class="d" x="47.3" y="360.21">e</tspan><tspan class="e" x="57.02" y="360.21">y</tspan><tspan class="f" x="65.62" y="360.21"> </tspan><tspan class="g" x="70.34" y="360.21">T</tspan><tspan x="79.34" y="360.21">ransmit</tspan><tspan class="h" x="143.8" y="360.21">t</tspan><tspan x="150.36" y="360.21">ers</tspan><tspan x="-7.75" y="540.31">Mobile Opera</tspan><tspan class="h" x="107.67" y="540.31">t</tspan><tspan x="114.23" y="540.31">ors</tspan><tspan class="i" x="140.17" y="540.31" xml:space="preserve"> –</tspan><tspan x="155.51" y="540.31" xml:space="preserve"> P2</tspan><tspan class="j" x="182.93" y="540.31">P</tspan></text><text class="a" transform="translate(641.88 214.14)"><tspan class="k">R</tspan><tspan x="10.94" y="0">etail Shops / Chains</tspan><tspan x="-18.61" y="180.1">E</tspan><tspan class="l" x="-7.89" y="180.1">x</tspan><tspan x="1.93" y="180.1">change Houses / Banks</tspan><tspan class="c" x="7.39" y="360.21">C</tspan><tspan x="18.47" y="360.21">ryp</tspan><tspan class="h" x="45.41" y="360.21">t</tspan><tspan x="51.97" y="360.21">o / Bloc</tspan><tspan class="m" x="117.71" y="360.21">k</tspan><tspan x="127.05" y="360.21">chain</tspan><tspan x="-13.3" y="540.31">Fin</tspan><tspan class="h" x="13.34" y="540.31">te</tspan><tspan x="29.84" y="540.31">ch / Mobile</tspan><tspan class="n" x="126.26" y="540.31"> </tspan><tspan class="o" x="131.22" y="540.31">W</tspan><tspan x="146.96" y="540.31">allets</tspan></text><text class="a" transform="translate(1173.22 214.14)"><tspan class="k">R</tspan><tspan class="h" x="10.94" y="0">e</tspan><tspan x="20.88" y="0">wards / </tspan><tspan class="p" x="89.24" y="0">L</tspan><tspan x="98.4" y="0">oayalt</tspan><tspan class="e" x="150.9" y="0">y</tspan><tspan class="q" x="-75.57" y="180.1">W</tspan><tspan x="-59.85" y="180.1">eb / Desk</tspan><tspan class="h" x="20.11" y="180.1">t</tspan><tspan x="26.67" y="180.1">op / Mobile</tspan><tspan class="r" x="124.67" y="180.1"> </tspan><tspan x="129.37" y="180.1">Applications</tspan><tspan class="s" x="-89.57" y="360.21">T</tspan><tspan x="-81.03" y="360.21">el</tspan><tspan class="h" x="-65.03" y="360.21">e</tspan><tspan class="b" x="-55.09" y="360.21">c</tspan><tspan x="-46.53" y="360.21">om </tspan><tspan class="c" x="-14.23" y="360.21">C</tspan><tspan x="-3.15" y="360.21">arriers / </tspan><tspan class="t" x="68.87" y="360.21">C</tspan><tspan x="79.59" y="360.21">ommunication</tspan><tspan class="r" x="202.61" y="360.21"> </tspan><tspan x="207.31" y="360.21">Apps</tspan><tspan x="55.85" y="540.31">NGOs</tspan></text><path class="u" d="M359.55,162.68v2a8.47,8.47,0,0,1-8.45,8.45H278.81a8.47,8.47,0,0,1-8.46-8.45V92.42A8.47,8.47,0,0,1,278.81,84H351.1a8.47,8.47,0,0,1,8.45,8.45v55.85"/><rect class="u" x="280.31" y="92.91" width="69.29" height="35.65"/><rect class="u" x="327.01" y="142.11" width="18.32" height="4.78"/><rect class="u" x="282.53" y="142.11" width="23.47" height="13.44"/><polyline class="u" points="289.94 142.44 286.86 146.39 293.2 151.29 297.52 145.64 293.33 142.44"/><path class="u" d="M312.69,257.31h25.82a8.49,8.49,0,0,1,8.46,8.46v58.42a8.48,8.48,0,0,1-8.46,8.45H291.39a8.47,8.47,0,0,1-8.45-8.45V265.77a8.48,8.48,0,0,1,8.45-8.46h6.88"/><path class="u" d="M338.42,332.64V344.1a8.48,8.48,0,0,1-8.45,8.46H298a8.48,8.48,0,0,1-8.45-8.46V332.64"/><rect class="u" x="292.35" y="266.73" width="45.2" height="20.72"/><rect class="u" x="296.03" y="293.38" width="6.7" height="6.7"/><rect class="u" x="311.83" y="293.38" width="6.7" height="6.7"/><rect class="u" x="326.95" y="293.38" width="6.7" height="6.7"/><rect class="u" x="296.03" y="307.1" width="6.7" height="6.7"/><rect class="u" x="311.83" y="307.1" width="6.7" height="6.7"/><rect class="u" x="326.95" y="307.1" width="6.7" height="6.7"/><rect class="u" x="296.03" y="320.39" width="6.7" height="6.7"/><rect class="u" x="311.83" y="320.39" width="6.7" height="6.7"/><rect class="u" x="326.95" y="320.39" width="6.7" height="6.7"/><path class="v" d="M297.51,333.28v19.28h11V332.67S297.51,333.08,297.51,333.28Z"/><path class="u" d="M265.35,475.65l35.79-11.38a48.5,48.5,0,0,1,30.09.22l33.32,11.16Z"/><line class="u" x1="277.02" y1="521.43" x2="277.02" y2="476.47"/><line class="u" x1="352.83" y1="521.43" x2="352.83" y2="476.47"/><polyline class="u" points="291.64 528 274.13 528 274.13 521.43 355.78 521.43 355.78 528 303.75 528"/><polyline class="u" points="339.42 497.69 339.42 486.7 289.14 486.7 289.14 521.34 339.42 521.34 339.42 508.3"/><polygon class="u" points="682.59 280.02 733.46 263.84 781.79 280.02 682.59 280.02"/><line class="u" x1="695.49" y1="292.8" x2="695.94" y2="280.84"/><line class="u" x1="694.25" y1="325.81" x2="695.12" y2="302.75"/><line class="u" x1="769.46" y1="308.69" x2="768.38" y2="280.84"/><line class="u" x1="770.07" y1="325.81" x2="769.78" y2="318.15"/><rect class="u" x="691.37" y="325.81" width="81.65" height="6.56"/><rect class="u" x="684.19" y="339.66" width="96" height="6.56"/><line class="u" x1="757.5" y1="325.71" x2="759.19" y2="280.27"/><line class="u" x1="704.69" y1="280.27" x2="706.38" y2="325.71"/><line class="u" x1="727" y1="325.81" x2="728.69" y2="280.84"/><line class="u" x1="737.44" y1="280.27" x2="739.13" y2="325.71"/><path class="u" d="M354.65,710v5.7a3.72,3.72,0,0,1-3.72,3.72H315.71a3.73,3.73,0,0,1-3.73-3.72V647.66a3.73,3.73,0,0,1,3.73-3.72h35.22a3.72,3.72,0,0,1,3.72,3.72v52.11"/><path class="u" d="M317.46,689.43v21a3.41,3.41,0,0,0,3.29,3.53h25.14a3.41,3.41,0,0,0,3.28-3.53V653a3.41,3.41,0,0,0-3.28-3.53h-6.62l-1.15,2.91h-9.75l-1-2.91h-6.65a3.41,3.41,0,0,0-3.29,3.53v28.54"/><path class="u" d="M309.89,630.48a20.47,20.47,0,0,0-8.6,5.35,19.46,19.46,0,0,0-5.23,8.48"/><path class="u" d="M307.44,621.32a32.28,32.28,0,0,0-12.79,8.17,31,31,0,0,0-7.9,12.32"/><path class="u" d="M296.06,644.31a19.46,19.46,0,0,1,5.23-8.48,20.47,20.47,0,0,1,8.6-5.35"/><path class="u" d="M304.39,610a43.89,43.89,0,0,0-18.17,11.4c-6.06,6.06-9.33,12-11,17.37"/><path class="u" d="M286.75,641.81a31,31,0,0,1,7.9-12.32,32.28,32.28,0,0,1,12.79-8.17"/><polygon class="u" points="772.7 95.52 692.77 95.52 697.28 85.65 768.18 85.65 772.7 95.52"/><polyline class="u" points="728 171.49 692.77 171.49 692.77 109.19"/><polyline class="u" points="772.7 109.19 772.7 171.49 742.04 171.49"/><polyline class="u" points="766.54 107.73 766.54 152.79 698.43 152.79 698.43 106.88"/><path class="u" d="M701.63,101.12c0,10.23-20.46,10-20.46-.32l102,.32c0,10.23-20.46,10.81-20.46.53"/><path class="u" d="M722.14,102c0,10.24-20.45,9.13-20.45-1.16"/><path class="u" d="M742.39,102c0,10.24-20.45,10-20.45-.31"/><path class="u" d="M762.91,102c0,10.24-20.46,10-20.46-.31"/><line class="u" x1="681.17" y1="100.8" x2="692.77" y2="95.52"/><line class="u" x1="772.69" y1="95.52" x2="783.21" y2="101.12"/><polygon class="u" points="670.1 470.25 687.47 480.09 704.58 470.25 687.47 461.46 670.1 470.25"/><line class="u" x1="704.41" y1="483.86" x2="704.58" y2="470.25"/><polyline class="u" points="670.1 470.25 670.1 489.99 687.35 500 697.94 494.41"/><line class="u" x1="687.47" y1="480.09" x2="687.47" y2="498.6"/><polygon class="u" points="759.79 470.25 777.17 480.09 794.28 470.25 777.17 461.46 759.79 470.25"/><line class="u" x1="794.16" y1="479.72" x2="794.28" y2="470.25"/><polyline class="u" points="759.79 470.25 759.79 489.99 777.04 500 794.02 491.05 794.06 487.86"/><line class="u" x1="777.17" y1="480.09" x2="777.17" y2="498.6"/><polygon class="u" points="714.08 505.57 731.46 515.41 748.57 505.57 731.46 496.78 714.08 505.57"/><polyline class="u" points="738.25 531.67 748.3 526.37 748.57 505.57"/><polyline class="u" points="714.08 505.57 714.08 525.32 725.4 531.88"/><line class="u" x1="731.46" y1="515.42" x2="731.46" y2="529.27"/><line class="u" x1="696.79" y1="486.17" x2="720.83" y2="500.98"/><line class="u" x1="740.79" y1="501.19" x2="767.41" y2="487.03"/><path class="u" d="M761.07,706.68v7.71a5,5,0,0,1-5,5H708.35a5,5,0,0,1-5-5V622.26a5,5,0,0,1,5-5H756a5,5,0,0,1,5,5v70.55"/><path class="u" d="M709.1,678.82v28.37a4.78,4.78,0,0,0,4.79,4.78H750.5a4.78,4.78,0,0,0,4.78-4.78V629.47a4.78,4.78,0,0,0-4.78-4.78h-9.64l-1.68,3.93H725l-1.4-3.93h-9.69a4.78,4.78,0,0,0-4.79,4.78v38.64"/><path class="w" d="M734.37,650.17v1.89c2.69.05,7.46,1.13,7.46,2.69,0,.71-1,2.5-1.51,2.5-.71,0-2.41-1.7-6-1.79v11c4.21,1.51,9,3.21,9,9.73,0,5.38-3.49,8.78-9,9.25v2.36c0,.52-.28.76-.94.76s-.95-.24-.95-.76v-2.31c-5.33-.14-9.34-2.17-9.34-3.45,0-.75,1.13-2.55,1.65-2.55s3.11,2.46,7.69,2.6V669.91c-4.15-1.61-8.73-3.26-8.73-9.35,0-4.63,3.4-7.84,8.73-8.41v-2c0-.52.29-.75.95-.75S734.37,649.65,734.37,650.17Zm-6.32,10.58c0,2.69,1.93,4,4.43,5V655.6A4.87,4.87,0,0,0,728.05,660.75Zm6.32,21.2a5.61,5.61,0,0,0,4.73-5.76c0-3-2.13-4.39-4.73-5.53Z"/><polyline class="u" points="1221.52 123.28 1221.52 97.12 1284.41 97.12 1284.41 160.02 1221.52 160.02 1221.52 135.5"/><polygon class="u" points="1264.22 103.89 1268.14 111.83 1276.9 113.1 1270.56 119.28 1272.06 128 1264.22 123.89 1256.39 128 1257.88 119.28 1251.55 113.1 1260.31 111.83 1264.22 103.89"/><line class="u" x1="1237.81" y1="97.52" x2="1237.81" y2="158.91"/><line class="u" x1="1222.08" y1="142.84" x2="1283.48" y2="142.84"/><line class="u" x1="1310.1" y1="302.92" x2="1320.32" y2="302.92"/><line class="u" x1="1254.21" y1="302.92" x2="1294.69" y2="302.92"/><line class="u" x1="1185.84" y1="287.4" x2="1254.85" y2="287.4"/><rect class="u" x="1252.76" y="281.52" width="67.93" height="67.93" rx="16.27"/><polyline class="u" points="1281.93 266.02 1294.81 266.02 1294.81 280.92"/><polyline class="u" points="1251.92 331.97 1185.24 331.97 1185.24 266.02 1267.59 266.02"/><circle class="v" cx="1193.62" cy="276.74" r="2.52"/><circle class="v" cx="1203.24" cy="276.74" r="2.52"/><circle class="v" cx="1212.59" cy="276.74" r="2.52"/><path class="u" d="M1257.91,482.48a5,5,0,1,1-5-5A5,5,0,0,1,1257.91,482.48Z"/><path class="u" d="M1266.57,464.6a28.1,28.1,0,0,0-13.62-3.18,26.81,26.81,0,0,0-13.38,3.17"/><path class="u" d="M1273.12,453.25a44.64,44.64,0,0,0-20.46-4.5c-8.38,0-14.82,1.79-19.75,4.31"/><path class="u" d="M1239.57,464.59a26.81,26.81,0,0,1,13.38-3.17,28.1,28.1,0,0,1,13.62,3.18"/><path class="u" d="M1259.22,432.88c-2.18-.2-4.46-.31-6.85-.31-11.84,0-20.86,2.63-27.68,6.25"/><path class="u" d="M1281.24,439.19a52.94,52.94,0,0,0-9.81-4"/><path class="u" d="M1232.91,453.06c4.93-2.52,11.37-4.31,19.75-4.31a44.64,44.64,0,0,1,20.46,4.5"/><polyline class="u" points="1236.37 539.98 1252.6 487.44 1267.52 539.98"/><line class="u" x1="1239.06" y1="533.55" x2="1262.92" y2="523.81"/><line class="u" x1="1265.39" y1="533.06" x2="1241.67" y2="524.02"/><line class="u" x1="1244.72" y1="515.27" x2="1258.06" y2="507.64"/><line class="u" x1="1246.84" y1="507.68" x2="1259.88" y2="515.43"/><path class="x" d="M1216.28,697.76s18.14-1.39,28.14.3a99.84,99.84,0,0,0,16.85,1.66c6.56,0,7.51,7.67-.42,8.17-5.4.34-10.16.5-11.23.5a115,115,0,0,0,14.45,1.07,24.23,24.23,0,0,0,10.08-2.31c3.58-1.73,6.68-4.4,8.91-5.95,1.59-1.09,4-2.31,5.6-.31,1.8,2.2,1,4.44-1.3,6.59a64.34,64.34,0,0,1-9.25,7.43,41.88,41.88,0,0,1-13,5.45c-7.75,1.6-18.82-.93-29-2.81a84.69,84.69,0,0,0-19.79-1.07v-9.1"/><path class="x" d="M1277.61,629.76a83.54,83.54,0,0,0,12,.08v18.72s-18.13,1.4-28.14-.3a99.34,99.34,0,0,0-16.84-1.65c-6.57,0-7.52-7.68.41-8.17,5.4-.34,10.16-.5,11.23-.5a115,115,0,0,0-14.45-1.07,24,24,0,0,0-10.07,2.31c-3.59,1.73-6.69,4.4-8.92,5.94-1.58,1.1-4,2.31-5.6.32-1.8-2.2-1-4.45,1.31-6.59a62.34,62.34,0,0,1,9.24-7.43,41.74,41.74,0,0,1,13-5.45c7-1.44,16.61.46,25.87,2.22"/><path class="w" d="M1253,660.55a11.21,11.21,0,1,1-11.21,11.21A11.21,11.21,0,0,1,1253,660.55m0-2a13.21,13.21,0,1,0,13.2,13.21,13.22,13.22,0,0,0-13.2-13.21Z"/></svg>