<?xml version="1.0" encoding="utf-8"?>
<!-- Generator: Adobe Illustrator 23.0.0, SVG Export Plug-In . SVG Version: 6.00 Build 0)  -->
<svg version="1.1" id="Layer_1" xmlns="http://www.w3.org/2000/svg" xmlns:xlink="http://www.w3.org/1999/xlink" x="0px" y="0px"
	 viewBox="0 0 810 575" style="enable-background:new 0 0 810 575;" xml:space="preserve">
<style type="text/css">
	.st0{fill:#D6E1ED;}
	.st1{fill:#FFE161;}
	.st2{fill:#FFFFFF;}
	.st3{fill:none;stroke:#1EB9D5;stroke-width:2;stroke-miterlimit:10;}
	.st4{fill:none;stroke:#FFE161;stroke-width:2;stroke-miterlimit:10;}
	.st5{font-family:'PTMono-Regular';}
	.st6{font-size:28.25px;}
	.st7{fill:#FFFFFF;stroke:#1EB9D5;stroke-width:2;stroke-miterlimit:10;}
	.st8{fill:none;stroke:#1FBAD6;stroke-width:2;stroke-miterlimit:10;}
</style>
<title>homepic1</title>
<path class="st0" d="M698.9,459.3c0-1-0.8-1.8-1.8-1.8s-1.8,0.8-1.8,1.8c0,1,0.8,1.8,1.8,1.8l0,0
	C698.1,461.1,698.9,460.3,698.9,459.3z"/>
<path class="st0" d="M698.9,421.7c0-1-0.8-1.8-1.8-1.8c-1,0-1.8,0.8-1.8,1.8c0,1,0.8,1.8,1.8,1.8
	C698.1,423.5,698.9,422.7,698.9,421.7C698.9,421.7,698.9,421.7,698.9,421.7z"/>
<path class="st0" d="M737.6,421.7c0-1-0.8-1.8-1.8-1.8s-1.8,0.8-1.8,1.8s0.8,1.8,1.8,1.8l0,0C736.8,423.5,737.6,422.7,737.6,421.7z"
	/>
<path class="st0" d="M582.7,459.3c0-1-0.8-1.8-1.8-1.8c-1,0-1.8,0.8-1.8,1.8c0,1,0.8,1.8,1.8,1.8c0,0,0,0,0,0
	C581.9,461.1,582.7,460.3,582.7,459.3z"/>
<path class="st0" d="M660.2,459.3c0-1-0.8-1.8-1.8-1.8c-1,0-1.8,0.8-1.8,1.8c0,1,0.8,1.8,1.8,1.8c0,0,0,0,0,0
	C659.4,461.1,660.2,460.3,660.2,459.3z"/>
<path class="st0" d="M582.7,421.7c0-1-0.8-1.8-1.8-1.8s-1.8,0.8-1.8,1.8s0.8,1.8,1.8,1.8l0,0C581.9,423.5,582.7,422.7,582.7,421.7z"
	/>
<path class="st0" d="M621.5,421.7c0-1-0.8-1.8-1.8-1.8c-1,0-1.8,0.8-1.8,1.8s0.8,1.8,1.8,1.8c0,0,0,0,0,0
	C620.7,423.5,621.5,422.7,621.5,421.7z"/>
<path class="st0" d="M660.2,421.7c0-1-0.8-1.8-1.8-1.8c-1,0-1.8,0.8-1.8,1.8s0.8,1.8,1.8,1.8c0,0,0,0,0,0
	C659.4,423.5,660.2,422.7,660.2,421.7z"/>
<path class="st0" d="M505.3,459.3c0-1-0.8-1.8-1.8-1.8c-1,0-1.8,0.8-1.8,1.8c0,1,0.8,1.8,1.8,1.8c0,0,0,0,0,0
	C504.5,461.1,505.3,460.3,505.3,459.3z"/>
<path class="st0" d="M544,459.3c0-1-0.8-1.8-1.8-1.8s-1.8,0.8-1.8,1.8c0,1,0.8,1.8,1.8,1.8l0,0C543.2,461.1,544,460.3,544,459.3z"/>
<path class="st0" d="M505.3,421.7c0-1-0.8-1.8-1.8-1.8c-1,0-1.8,0.8-1.8,1.8c0,1,0.8,1.8,1.8,1.8c0,0,0,0,0,0
	C504.5,423.5,505.3,422.7,505.3,421.7z"/>
<path class="st0" d="M544,421.7c0-1-0.8-1.8-1.8-1.8c-1,0-1.8,0.8-1.8,1.8c0,1,0.8,1.8,1.8,1.8C543.2,423.5,544,422.7,544,421.7
	C544,421.7,544,421.7,544,421.7z"/>
<path class="st0" d="M389.1,459.3c0-1-0.8-1.8-1.8-1.8c-1,0-1.8,0.8-1.8,1.8c0,1,0.8,1.8,1.8,1.8c0,0,0,0,0,0
	C388.3,461.1,389.1,460.3,389.1,459.3z"/>
<path class="st0" d="M427.9,459.3c0-1-0.8-1.8-1.8-1.8c-1,0-1.8,0.8-1.8,1.8c0,1,0.8,1.8,1.8,1.8c0,0,0,0,0,0
	C427,461.1,427.8,460.3,427.9,459.3z"/>
<path class="st0" d="M466.6,459.3c0-1-0.8-1.8-1.8-1.8c-1,0-1.8,0.8-1.8,1.8c0,1,0.8,1.8,1.8,1.8c0,0,0,0,0,0
	C465.8,461.1,466.6,460.3,466.6,459.3z"/>
<path class="st0" d="M389.1,421.7c0-1-0.8-1.8-1.8-1.8c-1,0-1.8,0.8-1.8,1.8c0,1,0.8,1.8,1.8,1.8c0,0,0,0,0,0
	C388.3,423.5,389.1,422.7,389.1,421.7z"/>
<path class="st0" d="M427.9,421.7c0-1-0.8-1.8-1.8-1.8s-1.8,0.8-1.8,1.8s0.8,1.8,1.8,1.8l0,0C427,423.5,427.9,422.7,427.9,421.7z"/>
<path class="st0" d="M466.6,421.7c0-1-0.8-1.8-1.8-1.8s-1.8,0.8-1.8,1.8s0.8,1.8,1.8,1.8l0,0C465.8,423.5,466.6,422.7,466.6,421.7z"
	/>
<path class="st0" d="M268.2,459.3c0-1-0.8-1.8-1.8-1.8s-1.8,0.8-1.8,1.8c0,1,0.8,1.8,1.8,1.8c0,0,0,0,0,0
	C267.4,461.1,268.2,460.3,268.2,459.3z"/>
<path class="st0" d="M307,459.3c0-1-0.8-1.8-1.8-1.8c-1,0-1.8,0.8-1.8,1.8c0,1,0.8,1.8,1.8,1.8c0,0,0,0,0,0
	C306.1,461.1,306.9,460.3,307,459.3z"/>
<path class="st0" d="M345.7,459.3c0-1-0.8-1.8-1.8-1.8s-1.8,0.8-1.8,1.8s0.8,1.8,1.8,1.8h0C344.9,461.1,345.7,460.3,345.7,459.3z"/>
<path class="st0" d="M268.2,421.7c0-1-0.8-1.8-1.8-1.8s-1.8,0.8-1.8,1.8s0.8,1.8,1.8,1.8l0,0C267.4,423.5,268.2,422.7,268.2,421.7z"
	/>
<path class="st0" d="M307,421.7c0-1-0.8-1.8-1.8-1.8c-1,0-1.8,0.8-1.8,1.8c0,1,0.8,1.8,1.8,1.8c0,0,0,0,0,0
	C306.1,423.5,307,422.7,307,421.7z"/>
<path class="st0" d="M345.7,421.7c0-1-0.8-1.8-1.8-1.8c-1,0-1.8,0.8-1.8,1.8c0,1,0.8,1.8,1.8,1.8
	C344.9,423.5,345.7,422.7,345.7,421.7C345.7,421.7,345.7,421.7,345.7,421.7z"/>
<path class="st0" d="M152.1,459.3c0-1-0.8-1.8-1.8-1.8c-1,0-1.8,0.8-1.8,1.8c0,1,0.8,1.8,1.8,1.8c0,0,0,0,0,0
	C151.3,461.1,152.1,460.3,152.1,459.3z"/>
<path class="st0" d="M229.5,459.3c0-1-0.8-1.8-1.8-1.8s-1.8,0.8-1.8,1.8c0,1,0.8,1.8,1.8,1.8c0,0,0,0,0,0
	C228.7,461.1,229.5,460.3,229.5,459.3z"/>
<path class="st0" d="M152.1,421.7c0-1-0.8-1.8-1.8-1.8c-1,0-1.8,0.8-1.8,1.8s0.8,1.8,1.8,1.8c0,0,0,0,0,0
	C151.3,423.5,152.1,422.7,152.1,421.7z"/>
<path class="st0" d="M190.8,421.7c0-1-0.8-1.8-1.8-1.8c-1,0-1.8,0.8-1.8,1.8s0.8,1.8,1.8,1.8c0,0,0,0,0,0
	C190,423.5,190.8,422.7,190.8,421.7C190.8,421.7,190.8,421.7,190.8,421.7z"/>
<path class="st0" d="M229.5,421.7c0-1-0.8-1.8-1.8-1.8s-1.8,0.8-1.8,1.8s0.8,1.8,1.8,1.8l0,0C228.7,423.5,229.5,422.7,229.5,421.7z"
	/>
<path class="st0" d="M74.6,459.3c0-1-0.8-1.8-1.8-1.8s-1.8,0.8-1.8,1.8c0,1,0.8,1.8,1.8,1.8c0,0,0,0,0,0
	C73.8,461.1,74.6,460.3,74.6,459.3z"/>
<path class="st0" d="M113.3,459.3c0-1-0.8-1.8-1.8-1.8c-1,0-1.8,0.8-1.8,1.8c0,1,0.8,1.8,1.8,1.8c0,0,0,0,0,0
	C112.5,461.1,113.3,460.3,113.3,459.3z"/>
<path class="st0" d="M74.6,421.7c0-1-0.8-1.8-1.8-1.8c-1,0-1.8,0.8-1.8,1.8c0,1,0.8,1.8,1.8,1.8C73.8,423.5,74.6,422.7,74.6,421.7
	C74.6,421.7,74.6,421.7,74.6,421.7z"/>
<path class="st0" d="M113.3,421.7c0-1-0.8-1.8-1.8-1.8s-1.8,0.8-1.8,1.8c0,1,0.8,1.8,1.8,1.8c0,0,0,0,0,0
	C112.5,423.5,113.3,422.7,113.3,421.7z"/>
<path class="st0" d="M35.9,421.7c0-1-0.8-1.8-1.8-1.8c-1,0-1.8,0.8-1.8,1.8c0,1,0.8,1.8,1.8,1.8c0,0,0,0,0,0
	C35.1,423.5,35.9,422.7,35.9,421.7z"/>
<path class="st0" d="M698.9,499.6c0-1-0.8-1.8-1.8-1.8s-1.8,0.8-1.8,1.8c0,1,0.8,1.8,1.8,1.8l0,0
	C698.1,501.4,698.9,500.6,698.9,499.6C698.9,499.6,698.9,499.6,698.9,499.6z"/>
<path class="st0" d="M505.3,499.6c0-1-0.8-1.8-1.8-1.8c-1,0-1.8,0.8-1.8,1.8c0,1,0.8,1.8,1.8,1.8c0,0,0,0,0,0
	C504.5,501.4,505.3,500.6,505.3,499.6z"/>
<path class="st0" d="M737.6,303.1c0-1-0.8-1.8-1.8-1.8s-1.8,0.8-1.8,1.8s0.8,1.8,1.8,1.8l0,0C736.8,304.9,737.6,304.1,737.6,303.1z"
	/>
<path class="st0" d="M737.6,381.1c0-1-0.8-1.8-1.8-1.8s-1.8,0.8-1.8,1.8s0.8,1.8,1.8,1.8l0,0C736.8,382.9,737.6,382.1,737.6,381.1z"
	/>
<path class="st0" d="M776.4,381.1c0-1-0.8-1.8-1.8-1.8c-1,0-1.8,0.8-1.8,1.8s0.8,1.8,1.8,1.8c0,0,0,0,0,0
	C775.5,382.9,776.4,382.1,776.4,381.1z"/>
<path class="st0" d="M737.6,343.4c0-1-0.8-1.8-1.8-1.8c-1,0-1.8,0.8-1.8,1.8c0,1,0.8,1.8,1.8,1.8c0,0,0,0,0,0
	C736.8,345.2,737.6,344.4,737.6,343.4z"/>
<path class="st0" d="M776.4,343.4c0-1-0.8-1.8-1.8-1.8c-1,0-1.8,0.8-1.8,1.8c0,1,0.8,1.8,1.8,1.8c0,0,0,0,0,0
	C775.5,345.2,776.3,344.4,776.4,343.4z"/>
<path class="st0" d="M582.7,381.1c0-1-0.8-1.8-1.8-1.8s-1.8,0.8-1.8,1.8s0.8,1.8,1.8,1.8l0,0C581.9,382.9,582.7,382.1,582.7,381.1z"
	/>
<path class="st0" d="M621.5,381.1c0-1-0.8-1.8-1.8-1.8c-1,0-1.8,0.8-1.8,1.8s0.8,1.8,1.8,1.8c0,0,0,0,0,0
	C620.7,382.9,621.5,382.1,621.5,381.1z"/>
<path class="st0" d="M660.2,381.1c0-1-0.8-1.8-1.8-1.8c-1,0-1.8,0.8-1.8,1.8s0.8,1.8,1.8,1.8c0,0,0,0,0,0
	C659.4,382.9,660.2,382.1,660.2,381.1z"/>
<path class="st0" d="M582.7,343.4c0-1-0.8-1.8-1.8-1.8c-1,0-1.8,0.8-1.8,1.8c0,1,0.8,1.8,1.8,1.8c0,0,0,0,0,0
	C581.9,345.2,582.7,344.4,582.7,343.4z"/>
<path class="st0" d="M621.5,343.4c0-1-0.8-1.8-1.8-1.8c-1,0-1.8,0.8-1.8,1.8c0,1,0.8,1.8,1.8,1.8c0,0,0,0,0,0
	C620.7,345.2,621.5,344.4,621.5,343.4z"/>
<path class="st0" d="M660.2,343.4c0-1-0.8-1.8-1.8-1.8c-1,0-1.8,0.8-1.8,1.8c0,1,0.8,1.8,1.8,1.8c0,0,0,0,0,0
	C659.4,345.2,660.2,344.4,660.2,343.4z"/>
<path class="st0" d="M544,381.1c0-1-0.8-1.8-1.8-1.8c-1,0-1.8,0.8-1.8,1.8c0,1,0.8,1.8,1.8,1.8C543.2,382.9,544,382.1,544,381.1
	C544,381.1,544,381.1,544,381.1z"/>
<path class="st0" d="M544,343.4c0-1-0.8-1.8-1.8-1.8s-1.8,0.8-1.8,1.8c0,1,0.8,1.8,1.8,1.8l0,0C543.2,345.2,544,344.4,544,343.4z"/>
<path class="st0" d="M466.6,537.3c0-1-0.8-1.8-1.8-1.8s-1.8,0.8-1.8,1.8s0.8,1.8,1.8,1.8l0,0C465.8,539.1,466.6,538.3,466.6,537.3z"
	/>
<path class="st0" d="M427.9,499.6c0-1-0.8-1.8-1.8-1.8c-1,0-1.8,0.8-1.8,1.8c0,1,0.8,1.8,1.8,1.8c0,0,0,0,0,0
	C427,501.4,427.8,500.6,427.9,499.6C427.9,499.6,427.9,499.6,427.9,499.6z"/>
<path class="st0" d="M466.6,499.6c0-1-0.8-1.8-1.8-1.8c-1,0-1.8,0.8-1.8,1.8c0,1,0.8,1.8,1.8,1.8c0,0,0,0,0,0
	C465.8,501.4,466.6,500.6,466.6,499.6C466.6,499.6,466.6,499.6,466.6,499.6z"/>
<path class="st0" d="M345.7,537.3c0-1-0.8-1.8-1.8-1.8c-1,0-1.8,0.8-1.8,1.8c0,1,0.8,1.8,1.8,1.8
	C344.9,539.1,345.7,538.3,345.7,537.3C345.7,537.3,345.7,537.3,345.7,537.3z"/>
<path class="st0" d="M307,499.6c0-1-0.8-1.8-1.8-1.8c-1,0-1.8,0.8-1.8,1.8c0,1,0.8,1.8,1.8,1.8c0,0,0,0,0,0
	C306.1,501.4,307,500.6,307,499.6z"/>
<path class="st0" d="M345.7,499.6c0-1-0.8-1.8-1.8-1.8s-1.8,0.8-1.8,1.8s0.8,1.8,1.8,1.8h0C344.9,501.4,345.7,500.6,345.7,499.6
	C345.7,499.6,345.7,499.6,345.7,499.6z"/>
<path class="st0" d="M152.1,537.3c0-1-0.8-1.8-1.8-1.8c-1,0-1.8,0.8-1.8,1.8s0.8,1.8,1.8,1.8c0,0,0,0,0,0
	C151.3,539.1,152.1,538.3,152.1,537.3z"/>
<path class="st0" d="M152.1,499.6c0-1-0.8-1.8-1.8-1.8c-1,0-1.8,0.8-1.8,1.8c0,1,0.8,1.8,1.8,1.8c0,0,0,0,0,0
	C151.3,501.4,152.1,500.6,152.1,499.6z"/>
<path class="st0" d="M113.3,499.6c0-1-0.8-1.8-1.8-1.8c-1,0-1.8,0.8-1.8,1.8c0,1,0.8,1.8,1.8,1.8c0,0,0,0,0,0
	C112.5,501.4,113.3,500.6,113.3,499.6C113.3,499.6,113.3,499.6,113.3,499.6z"/>
<path class="st0" d="M152.1,303.1c0-1-0.8-1.8-1.8-1.8c-1,0-1.8,0.8-1.8,1.8c0,1,0.8,1.8,1.8,1.8c0,0,0,0,0,0
	C151.3,304.9,152.1,304.1,152.1,303.1z"/>
<path class="st0" d="M152.1,265.5c0-1-0.8-1.8-1.8-1.8c-1,0-1.8,0.8-1.8,1.8c0,1,0.8,1.8,1.8,1.8c0,0,0,0,0,0
	C151.3,267.2,152.1,266.4,152.1,265.5z"/>
<path class="st0" d="M268.2,381.1c0-1-0.8-1.8-1.8-1.8s-1.8,0.8-1.8,1.8c0,1,0.8,1.8,1.8,1.8c0,0,0,0,0,0
	C267.4,382.9,268.2,382.1,268.2,381.1z"/>
<path class="st0" d="M307,381.1c0-1-0.8-1.8-1.8-1.8c-1,0-1.8,0.8-1.8,1.8c0,1,0.8,1.8,1.8,1.8c0,0,0,0,0,0
	C306.1,382.9,306.9,382.1,307,381.1z"/>
<path class="st0" d="M268.2,343.4c0-1-0.8-1.8-1.8-1.8s-1.8,0.8-1.8,1.8s0.8,1.8,1.8,1.8l0,0C267.4,345.2,268.2,344.4,268.2,343.4z"
	/>
<path class="st0" d="M307,343.4c0-1-0.8-1.8-1.8-1.8c-1,0-1.8,0.8-1.8,1.8c0,1,0.8,1.8,1.8,1.8c0,0,0,0,0,0
	C306.1,345.2,307,344.4,307,343.4z"/>
<path class="st0" d="M152.1,381.1c0-1-0.8-1.8-1.8-1.8c-1,0-1.8,0.8-1.8,1.8c0,1,0.8,1.8,1.8,1.8c0,0,0,0,0,0
	C151.3,382.9,152.1,382.1,152.1,381.1z"/>
<path class="st0" d="M190.8,381.1c0-1-0.8-1.8-1.8-1.8c-1,0-1.8,0.8-1.8,1.8c0,1,0.8,1.8,1.8,1.8c0,0,0,0,0,0
	C190,382.9,190.8,382.1,190.8,381.1z"/>
<path class="st0" d="M229.5,381.1c0-1-0.8-1.8-1.8-1.8s-1.8,0.8-1.8,1.8c0,1,0.8,1.8,1.8,1.8c0,0,0,0,0,0
	C228.7,382.9,229.5,382.1,229.5,381.1z"/>
<path class="st0" d="M152.1,343.4c0-1-0.8-1.8-1.8-1.8c-1,0-1.8,0.8-1.8,1.8s0.8,1.8,1.8,1.8c0,0,0,0,0,0
	C151.3,345.2,152.1,344.4,152.1,343.4z"/>
<path class="st0" d="M190.8,343.4c0-1-0.8-1.8-1.8-1.8c-1,0-1.8,0.8-1.8,1.8s0.8,1.8,1.8,1.8c0,0,0,0,0,0
	C190,345.2,190.8,344.4,190.8,343.4C190.8,343.4,190.8,343.4,190.8,343.4z"/>
<path class="st0" d="M229.5,343.4c0-1-0.8-1.8-1.8-1.8s-1.8,0.8-1.8,1.8s0.8,1.8,1.8,1.8l0,0C228.7,345.2,229.5,344.4,229.5,343.4z"
	/>
<path class="st0" d="M113.3,381.1c0-1-0.8-1.8-1.8-1.8c-1,0-1.8,0.8-1.8,1.8c0,1,0.8,1.8,1.8,1.8c0,0,0,0,0,0
	C112.5,382.9,113.3,382.1,113.3,381.1z"/>
<path class="st0" d="M113.3,343.4c0-1-0.8-1.8-1.8-1.8s-1.8,0.8-1.8,1.8c0,1,0.8,1.8,1.8,1.8c0,0,0,0,0,0
	C112.5,345.2,113.3,344.4,113.3,343.4z"/>
<path class="st0" d="M35.9,381.1c0-1-0.8-1.8-1.8-1.8c-1,0-1.8,0.8-1.8,1.8c0,1,0.8,1.8,1.8,1.8c0,0,0,0,0,0
	C35.1,382.9,35.9,382.1,35.9,381.1z"/>
<path class="st0" d="M35.9,343.4c0-1-0.8-1.8-1.8-1.8c-1,0-1.8,0.8-1.8,1.8c0,1,0.8,1.8,1.8,1.8C35.1,345.2,35.9,344.4,35.9,343.4
	C35.9,343.4,35.9,343.4,35.9,343.4z"/>
<path class="st1" d="M369.5,235.4c-4.5-8.4-5.1-20.8-5.1-20.8s-16.9-22.5-16.3-62.5s15.8-56.3,32.7-63.1s64.2-11.3,83.9,5.1
	s30,51.9,28.4,78.5c-1.4,24.8-4.2,34.9-9.3,37.7s-7.6,2.5-17.2,0.3c0.9,6.5,1.1,13.8-2.2,21.7s-13.2,11.6-18.3,12.7
	s-6.6,4.7-6.6,4.7v8.3l-33.8,4.5l193.2-2.8l-3.6-166.3c-0.6-13.7-11.8-24.5-25.5-24.8l-324.2-0.6l3.4,196.8l143.8-2.1l2.3-14.4
	C395.2,248.2,374.1,243.9,369.5,235.4z"/>
<polygon class="st1" points="405.8,262.4 392.9,262.6 392.6,264.2 "/>
<path class="st2" d="M392.9,262.6l2.3-14.4c0,0-21.2-4.4-25.7-12.8s-5.1-20.8-5.1-20.8s-16.9-22.5-16.3-62.5s15.8-56.3,32.7-63.1
	s64.2-11.3,83.9,5.1s30,51.9,28.4,78.5c-1.4,24.8-4.2,34.9-9.3,37.7s-7.6,2.5-17.2,0.3c0.9,6.5,1.1,13.8-2.2,21.7
	s-13.2,11.6-18.3,12.7s-6.6,4.7-6.6,4.7v8.3l-33.8,4.5L392.9,262.6z"/>
<path class="st3" d="M196.4,60.2h394.8c14.9,0,26.9,12.1,26.9,26.9v218c0,14.9-12.1,26.9-26.9,26.9H196.4
	c-14.9,0-26.9-12.1-26.9-26.9v-218C169.5,72.2,181.5,60.2,196.4,60.2z"/>
<line class="st3" x1="170.1" y1="280.7" x2="617.5" y2="280.7"/>
<line class="st4" x1="395.2" y1="241.7" x2="395.2" y2="248.2"/>
<line class="st4" x1="439.6" y1="241.7" x2="439.6" y2="248.2"/>
<line class="st3" x1="395.2" y1="241.7" x2="395.2" y2="258"/>
<line class="st3" x1="439.6" y1="241.7" x2="439.6" y2="258"/>
<path class="st3" d="M369.5,220c0,22.2,23.1,22.8,46.5,22.8c33.2,0,51.1-3.7,51.1-22.6c0,0,0.5-4.7,0.5-9.5
	c9.4,2.2,19.9,1.5,19.6-12c-0.2-9.2-26,39-113,22.1c-34-6.6-26.8-82.4-26.8-82.4s1.8-49,56.7-50.6c32.6-0.9,53.7,0.9,66.6,13.7
	c37.5,37.2,22.6,82.2,22.6,82.2"/>
<text transform="matrix(1 0 0 1 181.67 114.655)" class="st1 st5 st6">187 </text>
<text transform="matrix(1 0 0 1 181.67 148.555)" class="st1 st5 st6">188</text>
<text transform="matrix(1 0 0 1 181.67 182.465)" class="st1 st5 st6">189</text>
<text transform="matrix(1 0 0 1 181.67 216.365)" class="st1 st5 st6">190</text>
<text transform="matrix(1 0 0 1 181.67 250.275)" class="st1 st5 st6">191</text>
<line class="st3" x1="239.7" y1="69.6" x2="239.7" y2="261.3"/>
<path class="st7" d="M346.4,403.9c0,0-2.4-79.9,12.8-79.9c9.8,0,8.5,17.3,8.5,29.1s-1.3,50.8-1.3,50.8h98.3c0,0-1.3-38.9-1.3-50.8
	S462.2,324,472,324c15.1,0,12.8,79.9,12.8,79.9h34c0,0,10.3-121.2-57.8-142c-14.6-4.4-29.8-6.6-45-6.6h-0.7
	c-15.3,0-30.4,2.2-45.1,6.5c-68.1,20.8-55.8,142-55.8,142L346.4,403.9z"/>
<text transform="matrix(1 0 0 1 259.94 112.605)" class="st2 st5 st6">&lt;/&gt;&lt;</text>
<line class="st8" x1="245.1" y1="404.5" x2="588.8" y2="404.5"/>
</svg>
