<svg xmlns="http://www.w3.org/2000/svg" viewBox="0 0 1600 584"><defs><style>.a{fill:#d6e1ed;}.b,.d{fill:#ffe161;}.c{fill:#fff;}.d,.e{fill-rule:evenodd;}.e,.f,.g{fill:none;stroke-miterlimit:10;stroke-width:2px;}.e,.f{stroke:#1fbad6;}.g{stroke:#ffe161;}</style></defs><title>homepic11</title><path class="a" d="M81,181.21a1.81,1.81,0,1,1-1.8-1.8A1.81,1.81,0,0,1,81,181.21Z"/><path class="a" d="M121.53,181.21a1.81,1.81,0,1,1-1.81-1.8A1.81,1.81,0,0,1,121.53,181.21Z"/><path class="a" d="M160.25,181.21a1.81,1.81,0,1,1-1.8-1.8A1.81,1.81,0,0,1,160.25,181.21Z"/><path class="a" d="M199,181.21a1.81,1.81,0,1,1-1.8-1.8A1.81,1.81,0,0,1,199,181.21Z"/><path class="a" d="M237.7,181.21a1.81,1.81,0,1,1-1.81-1.8A1.81,1.81,0,0,1,237.7,181.21Z"/><path class="a" d="M276.42,181.21a1.81,1.81,0,1,1-1.81-1.8A1.81,1.81,0,0,1,276.42,181.21Z"/><path class="a" d="M315.14,181.21a1.81,1.81,0,1,1-1.8-1.8A1.81,1.81,0,0,1,315.14,181.21Z"/><path class="a" d="M353.86,181.21a1.81,1.81,0,1,1-1.8-1.8A1.81,1.81,0,0,1,353.86,181.21Z"/><path class="a" d="M392.59,181.21a1.81,1.81,0,1,1-1.81-1.8A1.81,1.81,0,0,1,392.59,181.21Z"/><path class="a" d="M431.31,181.21a1.81,1.81,0,1,1-1.81-1.8A1.81,1.81,0,0,1,431.31,181.21Z"/><path class="a" d="M470,181.21a1.81,1.81,0,1,1-1.8-1.8A1.81,1.81,0,0,1,470,181.21Z"/><path class="a" d="M663.64,181.21a1.8,1.8,0,1,1-1.8-1.8A1.8,1.8,0,0,1,663.64,181.21Z"/><path class="a" d="M702.37,181.21a1.81,1.81,0,1,1-1.81-1.8A1.81,1.81,0,0,1,702.37,181.21Z"/><path class="a" d="M896,181.21a1.81,1.81,0,1,1-1.8-1.8A1.81,1.81,0,0,1,896,181.21Z"/><path class="a" d="M44.08,218.86a1.81,1.81,0,1,1-1.8-1.8A1.81,1.81,0,0,1,44.08,218.86Z"/><path class="a" d="M81,218.86a1.81,1.81,0,1,1-1.8-1.8A1.81,1.81,0,0,1,81,218.86Z"/><path class="a" d="M121.53,218.86a1.81,1.81,0,1,1-1.81-1.8A1.81,1.81,0,0,1,121.53,218.86Z"/><path class="a" d="M160.25,218.86a1.81,1.81,0,1,1-1.8-1.8A1.81,1.81,0,0,1,160.25,218.86Z"/><path class="a" d="M199,218.86a1.81,1.81,0,1,1-1.8-1.8A1.81,1.81,0,0,1,199,218.86Z"/><path class="a" d="M237.7,218.86a1.81,1.81,0,1,1-1.81-1.8A1.81,1.81,0,0,1,237.7,218.86Z"/><path class="a" d="M276.42,218.86a1.81,1.81,0,1,1-1.81-1.8A1.81,1.81,0,0,1,276.42,218.86Z"/><path class="a" d="M315.14,218.86a1.81,1.81,0,1,1-1.8-1.8A1.81,1.81,0,0,1,315.14,218.86Z"/><path class="a" d="M353.86,218.86a1.81,1.81,0,1,1-1.8-1.8A1.81,1.81,0,0,1,353.86,218.86Z"/><path class="a" d="M392.59,218.86a1.81,1.81,0,1,1-1.81-1.8A1.81,1.81,0,0,1,392.59,218.86Z"/><path class="a" d="M431.31,218.86a1.81,1.81,0,1,1-1.81-1.8A1.81,1.81,0,0,1,431.31,218.86Z"/><path class="a" d="M702.37,218.86a1.81,1.81,0,1,1-1.81-1.8A1.81,1.81,0,0,1,702.37,218.86Z"/><path class="a" d="M982.9,181.21a1.81,1.81,0,1,1-1.8-1.8A1.81,1.81,0,0,1,982.9,181.21Z"/><path class="a" d="M1099.07,181.21a1.81,1.81,0,1,1-1.8-1.8A1.81,1.81,0,0,1,1099.07,181.21Z"/><path class="a" d="M1137.79,181.21a1.8,1.8,0,1,1-1.8-1.8A1.8,1.8,0,0,1,1137.79,181.21Z"/><path class="a" d="M1176.52,181.21a1.81,1.81,0,1,1-1.81-1.8A1.81,1.81,0,0,1,1176.52,181.21Z"/><path class="a" d="M1215.24,181.21a1.81,1.81,0,1,1-1.8-1.8A1.81,1.81,0,0,1,1215.24,181.21Z"/><path class="a" d="M1254,181.21a1.81,1.81,0,1,1-1.8-1.8A1.81,1.81,0,0,1,1254,181.21Z"/><path class="a" d="M1292.68,181.21a1.8,1.8,0,1,1-1.8-1.8A1.8,1.8,0,0,1,1292.68,181.21Z"/><path class="a" d="M1331.41,181.21a1.81,1.81,0,1,1-1.81-1.8A1.81,1.81,0,0,1,1331.41,181.21Z"/><path class="a" d="M1370.13,181.21a1.81,1.81,0,1,1-1.8-1.8A1.81,1.81,0,0,1,1370.13,181.21Z"/><path class="a" d="M1408.85,181.21a1.81,1.81,0,1,1-1.8-1.8A1.81,1.81,0,0,1,1408.85,181.21Z"/><path class="a" d="M1447.58,181.21a1.81,1.81,0,1,1-1.81-1.8A1.81,1.81,0,0,1,1447.58,181.21Z"/><path class="a" d="M1486.3,181.21a1.81,1.81,0,1,1-1.8-1.8A1.81,1.81,0,0,1,1486.3,181.21Z"/><path class="a" d="M1525,181.21a1.81,1.81,0,1,1-1.8-1.8A1.81,1.81,0,0,1,1525,181.21Z"/><path class="a" d="M982.9,218.86a1.81,1.81,0,1,1-1.8-1.8A1.81,1.81,0,0,1,982.9,218.86Z"/><path class="a" d="M1099.07,218.86a1.81,1.81,0,1,1-1.8-1.8A1.81,1.81,0,0,1,1099.07,218.86Z"/><path class="a" d="M1137.79,218.86a1.8,1.8,0,1,1-1.8-1.8A1.8,1.8,0,0,1,1137.79,218.86Z"/><path class="a" d="M1176.52,218.86a1.81,1.81,0,1,1-1.81-1.8A1.81,1.81,0,0,1,1176.52,218.86Z"/><path class="a" d="M1215.24,218.86a1.81,1.81,0,1,1-1.8-1.8A1.81,1.81,0,0,1,1215.24,218.86Z"/><path class="a" d="M1254,218.86a1.81,1.81,0,1,1-1.8-1.8A1.81,1.81,0,0,1,1254,218.86Z"/><path class="a" d="M1292.68,218.86a1.8,1.8,0,1,1-1.8-1.8A1.8,1.8,0,0,1,1292.68,218.86Z"/><path class="a" d="M1331.41,218.86a1.81,1.81,0,1,1-1.81-1.8A1.81,1.81,0,0,1,1331.41,218.86Z"/><path class="a" d="M1370.13,218.86a1.81,1.81,0,1,1-1.8-1.8A1.81,1.81,0,0,1,1370.13,218.86Z"/><path class="a" d="M1408.85,218.86a1.81,1.81,0,1,1-1.8-1.8A1.81,1.81,0,0,1,1408.85,218.86Z"/><path class="a" d="M1447.58,218.86a1.81,1.81,0,1,1-1.81-1.8A1.81,1.81,0,0,1,1447.58,218.86Z"/><path class="a" d="M1370.13,368.47a1.81,1.81,0,1,1-1.8-1.81A1.81,1.81,0,0,1,1370.13,368.47Z"/><path class="a" d="M1408.85,368.47a1.81,1.81,0,1,1-1.8-1.81A1.81,1.81,0,0,1,1408.85,368.47Z"/><path class="a" d="M1447.58,368.47a1.81,1.81,0,1,1-1.81-1.81A1.81,1.81,0,0,1,1447.58,368.47Z"/><path class="a" d="M1370.13,406.12a1.81,1.81,0,1,1-1.8-1.8A1.8,1.8,0,0,1,1370.13,406.12Z"/><path class="a" d="M1408.85,406.12a1.81,1.81,0,1,1-1.8-1.8A1.8,1.8,0,0,1,1408.85,406.12Z"/><path class="a" d="M1447.58,406.12a1.81,1.81,0,1,1-1.81-1.8A1.8,1.8,0,0,1,1447.58,406.12Z"/><path class="a" d="M1525.12,368.47a1.81,1.81,0,1,1-1.81-1.81A1.81,1.81,0,0,1,1525.12,368.47Z"/><path class="a" d="M1562.71,368.47a1.81,1.81,0,1,1-1.8-1.81A1.81,1.81,0,0,1,1562.71,368.47Z"/><path class="a" d="M1486.4,406.12a1.81,1.81,0,1,1-1.81-1.8A1.8,1.8,0,0,1,1486.4,406.12Z"/><path class="a" d="M1525.12,406.12a1.81,1.81,0,1,1-1.81-1.8A1.8,1.8,0,0,1,1525.12,406.12Z"/><path class="a" d="M1252.39,406.12a1.81,1.81,0,1,1-1.8-1.8A1.8,1.8,0,0,1,1252.39,406.12Z"/><path class="a" d="M1291.11,406.12a1.8,1.8,0,1,1-1.8-1.8A1.79,1.79,0,0,1,1291.11,406.12Z"/><path class="a" d="M1329.84,406.12a1.81,1.81,0,1,1-1.81-1.8A1.8,1.8,0,0,1,1329.84,406.12Z"/><path class="a" d="M1132.23,406.12a1.81,1.81,0,1,1-1.8-1.8A1.8,1.8,0,0,1,1132.23,406.12Z"/><path class="a" d="M1171,406.12a1.81,1.81,0,1,1-1.8-1.8A1.8,1.8,0,0,1,1171,406.12Z"/><path class="a" d="M1209.68,406.12a1.81,1.81,0,1,1-1.81-1.8A1.8,1.8,0,0,1,1209.68,406.12Z"/><path class="a" d="M1053.13,406.12a1.81,1.81,0,1,1-1.8-1.8A1.8,1.8,0,0,1,1053.13,406.12Z"/><path class="a" d="M1091.86,406.12a1.81,1.81,0,1,1-1.81-1.8A1.8,1.8,0,0,1,1091.86,406.12Z"/><path class="a" d="M897.5,406.12a1.81,1.81,0,1,1-1.8-1.8A1.79,1.79,0,0,1,897.5,406.12Z"/><path class="a" d="M936.23,406.12a1.81,1.81,0,1,1-1.81-1.8A1.8,1.8,0,0,1,936.23,406.12Z"/><path class="a" d="M975,406.12a1.81,1.81,0,1,1-1.81-1.8A1.8,1.8,0,0,1,975,406.12Z"/><path class="a" d="M237.7,406.12a1.81,1.81,0,1,1-1.81-1.8A1.8,1.8,0,0,1,237.7,406.12Z"/><path class="a" d="M160.25,406.12a1.81,1.81,0,1,1-1.8-1.8A1.8,1.8,0,0,1,160.25,406.12Z"/><path class="a" d="M199,406.12a1.81,1.81,0,1,1-1.8-1.8A1.8,1.8,0,0,1,199,406.12Z"/><path class="a" d="M81,406.12a1.81,1.81,0,1,1-1.8-1.8A1.8,1.8,0,0,1,81,406.12Z"/><path class="a" d="M119.72,406.12a1.81,1.81,0,1,1-1.8-1.8A1.8,1.8,0,0,1,119.72,406.12Z"/><path class="a" d="M44.08,406.12a1.81,1.81,0,1,1-1.8-1.8A1.8,1.8,0,0,1,44.08,406.12Z"/><path class="a" d="M44.08,295.66a1.81,1.81,0,1,1-1.8-1.8A1.81,1.81,0,0,1,44.08,295.66Z"/><path class="a" d="M1486.4,218.86a1.81,1.81,0,1,1-1.81-1.8A1.81,1.81,0,0,1,1486.4,218.86Z"/><path class="a" d="M1525,218.86a1.81,1.81,0,1,1-1.8-1.8A1.81,1.81,0,0,1,1525,218.86Z"/><path class="a" d="M1562.71,218.86a1.81,1.81,0,1,1-1.8-1.8A1.81,1.81,0,0,1,1562.71,218.86Z"/><path class="a" d="M199,104.35a1.81,1.81,0,1,1-1.8-1.81A1.81,1.81,0,0,1,199,104.35Z"/><path class="a" d="M237.7,104.35a1.81,1.81,0,1,1-1.81-1.81A1.81,1.81,0,0,1,237.7,104.35Z"/><path class="a" d="M315.14,104.35a1.81,1.81,0,1,1-1.8-1.81A1.81,1.81,0,0,1,315.14,104.35Z"/><path class="a" d="M353.86,104.35a1.81,1.81,0,1,1-1.8-1.81A1.81,1.81,0,0,1,353.86,104.35Z"/><path class="a" d="M392.59,104.35a1.81,1.81,0,1,1-1.81-1.81A1.81,1.81,0,0,1,392.59,104.35Z"/><path class="a" d="M431.31,104.35a1.81,1.81,0,1,1-1.81-1.81A1.81,1.81,0,0,1,431.31,104.35Z"/><path class="a" d="M470,104.35a1.81,1.81,0,1,1-1.8-1.81A1.81,1.81,0,0,1,470,104.35Z"/><path class="a" d="M508.75,104.35a1.81,1.81,0,1,1-1.8-1.81A1.8,1.8,0,0,1,508.75,104.35Z"/><path class="a" d="M547.48,104.35a1.81,1.81,0,1,1-1.81-1.81A1.81,1.81,0,0,1,547.48,104.35Z"/><path class="a" d="M586.2,104.35a1.81,1.81,0,1,1-1.8-1.81A1.81,1.81,0,0,1,586.2,104.35Z"/><path class="a" d="M624.92,104.35a1.81,1.81,0,1,1-1.8-1.81A1.81,1.81,0,0,1,624.92,104.35Z"/><path class="a" d="M663.64,104.35a1.8,1.8,0,1,1-1.8-1.81A1.8,1.8,0,0,1,663.64,104.35Z"/><path class="a" d="M702.37,104.35a1.81,1.81,0,1,1-1.81-1.81A1.81,1.81,0,0,1,702.37,104.35Z"/><path class="a" d="M741.09,104.35a1.81,1.81,0,1,1-1.8-1.81A1.81,1.81,0,0,1,741.09,104.35Z"/><path class="a" d="M779.81,104.35a1.8,1.8,0,1,1-1.8-1.81A1.81,1.81,0,0,1,779.81,104.35Z"/><path class="a" d="M818.54,104.35a1.81,1.81,0,1,1-1.81-1.81A1.81,1.81,0,0,1,818.54,104.35Z"/><path class="a" d="M857.26,104.35a1.81,1.81,0,1,1-1.81-1.81A1.81,1.81,0,0,1,857.26,104.35Z"/><path class="a" d="M896,104.35a1.81,1.81,0,1,1-1.8-1.81A1.81,1.81,0,0,1,896,104.35Z"/><path class="a" d="M81,142a1.81,1.81,0,1,1-1.8-1.8A1.81,1.81,0,0,1,81,142Z"/><path class="a" d="M160.25,142a1.81,1.81,0,1,1-1.8-1.8A1.81,1.81,0,0,1,160.25,142Z"/><path class="a" d="M199,142a1.81,1.81,0,1,1-1.8-1.8A1.81,1.81,0,0,1,199,142Z"/><path class="a" d="M237.7,142a1.81,1.81,0,1,1-1.81-1.8A1.81,1.81,0,0,1,237.7,142Z"/><path class="a" d="M315.14,142a1.81,1.81,0,1,1-1.8-1.8A1.81,1.81,0,0,1,315.14,142Z"/><path class="a" d="M353.86,142a1.81,1.81,0,1,1-1.8-1.8A1.81,1.81,0,0,1,353.86,142Z"/><path class="a" d="M392.59,142a1.81,1.81,0,1,1-1.81-1.8A1.81,1.81,0,0,1,392.59,142Z"/><path class="a" d="M431.31,142a1.81,1.81,0,1,1-1.81-1.8A1.81,1.81,0,0,1,431.31,142Z"/><path class="a" d="M470,142a1.81,1.81,0,1,1-1.8-1.8A1.81,1.81,0,0,1,470,142Z"/><path class="a" d="M508.75,142a1.81,1.81,0,1,1-1.8-1.8A1.8,1.8,0,0,1,508.75,142Z"/><path class="a" d="M624.92,142a1.81,1.81,0,1,1-1.8-1.8A1.81,1.81,0,0,1,624.92,142Z"/><path class="a" d="M663.64,142a1.8,1.8,0,1,1-1.8-1.8A1.8,1.8,0,0,1,663.64,142Z"/><path class="a" d="M702.37,142a1.81,1.81,0,1,1-1.81-1.8A1.81,1.81,0,0,1,702.37,142Z"/><path class="a" d="M779.81,142a1.8,1.8,0,1,1-1.8-1.8A1.81,1.81,0,0,1,779.81,142Z"/><path class="a" d="M818.54,142a1.81,1.81,0,1,1-1.81-1.8A1.81,1.81,0,0,1,818.54,142Z"/><path class="a" d="M857.26,142a1.81,1.81,0,1,1-1.81-1.8A1.81,1.81,0,0,1,857.26,142Z"/><path class="a" d="M896,142a1.81,1.81,0,1,1-1.8-1.8A1.81,1.81,0,0,1,896,142Z"/><path class="a" d="M944.18,104.35a1.81,1.81,0,1,1-1.8-1.81A1.81,1.81,0,0,1,944.18,104.35Z"/><path class="a" d="M982.9,104.35a1.81,1.81,0,1,1-1.8-1.81A1.81,1.81,0,0,1,982.9,104.35Z"/><path class="a" d="M1021.63,104.35a1.81,1.81,0,1,1-1.81-1.81A1.81,1.81,0,0,1,1021.63,104.35Z"/><path class="a" d="M1060.35,104.35a1.81,1.81,0,1,1-1.8-1.81A1.81,1.81,0,0,1,1060.35,104.35Z"/><path class="a" d="M1137.79,104.35a1.8,1.8,0,1,1-1.8-1.81A1.8,1.8,0,0,1,1137.79,104.35Z"/><path class="a" d="M1176.52,104.35a1.81,1.81,0,1,1-1.81-1.81A1.81,1.81,0,0,1,1176.52,104.35Z"/><path class="a" d="M1215.24,104.35a1.81,1.81,0,1,1-1.8-1.81A1.81,1.81,0,0,1,1215.24,104.35Z"/><path class="a" d="M1292.68,104.35a1.8,1.8,0,1,1-1.8-1.81A1.8,1.8,0,0,1,1292.68,104.35Z"/><path class="a" d="M1331.41,104.35a1.81,1.81,0,1,1-1.81-1.81A1.81,1.81,0,0,1,1331.41,104.35Z"/><path class="a" d="M1370.13,104.35a1.81,1.81,0,1,1-1.8-1.81A1.81,1.81,0,0,1,1370.13,104.35Z"/><path class="a" d="M1447.58,104.35a1.81,1.81,0,1,1-1.81-1.81A1.81,1.81,0,0,1,1447.58,104.35Z"/><path class="a" d="M1486.3,104.35a1.81,1.81,0,1,1-1.8-1.81A1.81,1.81,0,0,1,1486.3,104.35Z"/><path class="a" d="M982.9,142a1.81,1.81,0,1,1-1.8-1.8A1.81,1.81,0,0,1,982.9,142Z"/><path class="a" d="M1021.63,142a1.81,1.81,0,1,1-1.81-1.8A1.81,1.81,0,0,1,1021.63,142Z"/><path class="a" d="M1060.35,142a1.81,1.81,0,1,1-1.8-1.8A1.81,1.81,0,0,1,1060.35,142Z"/><path class="a" d="M1099.07,142a1.81,1.81,0,1,1-1.8-1.8A1.81,1.81,0,0,1,1099.07,142Z"/><path class="a" d="M1137.79,142a1.8,1.8,0,1,1-1.8-1.8A1.8,1.8,0,0,1,1137.79,142Z"/><path class="a" d="M1176.52,142a1.81,1.81,0,1,1-1.81-1.8A1.81,1.81,0,0,1,1176.52,142Z"/><path class="a" d="M1215.24,142a1.81,1.81,0,1,1-1.8-1.8A1.81,1.81,0,0,1,1215.24,142Z"/><path class="a" d="M1254,142a1.81,1.81,0,1,1-1.8-1.8A1.81,1.81,0,0,1,1254,142Z"/><path class="a" d="M1292.68,142a1.8,1.8,0,1,1-1.8-1.8A1.8,1.8,0,0,1,1292.68,142Z"/><path class="a" d="M1331.41,142a1.81,1.81,0,1,1-1.81-1.8A1.81,1.81,0,0,1,1331.41,142Z"/><path class="a" d="M1370.13,142a1.81,1.81,0,1,1-1.8-1.8A1.81,1.81,0,0,1,1370.13,142Z"/><path class="a" d="M1408.85,142a1.81,1.81,0,1,1-1.8-1.8A1.81,1.81,0,0,1,1408.85,142Z"/><path class="a" d="M1447.58,142a1.81,1.81,0,1,1-1.81-1.8A1.81,1.81,0,0,1,1447.58,142Z"/><path class="a" d="M1486.3,142a1.81,1.81,0,1,1-1.8-1.8A1.81,1.81,0,0,1,1486.3,142Z"/><path class="a" d="M470,27.48a1.81,1.81,0,1,1-1.8-1.8A1.8,1.8,0,0,1,470,27.48Z"/><path class="a" d="M547.48,27.48a1.81,1.81,0,1,1-1.81-1.8A1.8,1.8,0,0,1,547.48,27.48Z"/><path class="a" d="M586.2,27.48a1.81,1.81,0,1,1-1.8-1.8A1.8,1.8,0,0,1,586.2,27.48Z"/><path class="a" d="M663.64,27.48a1.8,1.8,0,1,1-1.8-1.8A1.79,1.79,0,0,1,663.64,27.48Z"/><path class="a" d="M741.09,27.48a1.81,1.81,0,1,1-1.8-1.8A1.8,1.8,0,0,1,741.09,27.48Z"/><path class="a" d="M779.81,27.48a1.8,1.8,0,1,1-1.8-1.8A1.8,1.8,0,0,1,779.81,27.48Z"/><path class="a" d="M857.26,27.48a1.81,1.81,0,1,1-1.81-1.8A1.8,1.8,0,0,1,857.26,27.48Z"/><path class="a" d="M896,27.48a1.81,1.81,0,1,1-1.8-1.8A1.8,1.8,0,0,1,896,27.48Z"/><path class="a" d="M199,65.13a1.81,1.81,0,1,1-1.8-1.8A1.81,1.81,0,0,1,199,65.13Z"/><path class="a" d="M315.14,65.13a1.81,1.81,0,1,1-1.8-1.8A1.81,1.81,0,0,1,315.14,65.13Z"/><path class="a" d="M392.59,65.13a1.81,1.81,0,1,1-1.81-1.8A1.81,1.81,0,0,1,392.59,65.13Z"/><path class="a" d="M431.31,65.13a1.81,1.81,0,1,1-1.81-1.8A1.81,1.81,0,0,1,431.31,65.13Z"/><path class="a" d="M470,65.13a1.81,1.81,0,1,1-1.8-1.8A1.81,1.81,0,0,1,470,65.13Z"/><path class="a" d="M547.48,65.13a1.81,1.81,0,1,1-1.81-1.8A1.81,1.81,0,0,1,547.48,65.13Z"/><path class="a" d="M586.2,65.13a1.81,1.81,0,1,1-1.8-1.8A1.81,1.81,0,0,1,586.2,65.13Z"/><path class="a" d="M663.64,65.13a1.8,1.8,0,1,1-1.8-1.8A1.8,1.8,0,0,1,663.64,65.13Z"/><path class="a" d="M741.09,65.13a1.81,1.81,0,1,1-1.8-1.8A1.81,1.81,0,0,1,741.09,65.13Z"/><path class="a" d="M779.81,65.13a1.8,1.8,0,1,1-1.8-1.8A1.81,1.81,0,0,1,779.81,65.13Z"/><path class="a" d="M818.54,65.13a1.81,1.81,0,1,1-1.81-1.8A1.81,1.81,0,0,1,818.54,65.13Z"/><path class="a" d="M857.26,65.13a1.81,1.81,0,1,1-1.81-1.8A1.81,1.81,0,0,1,857.26,65.13Z"/><path class="a" d="M896,65.13a1.81,1.81,0,1,1-1.8-1.8A1.81,1.81,0,0,1,896,65.13Z"/><path class="a" d="M1215.24,27.48a1.81,1.81,0,1,1-1.8-1.8A1.8,1.8,0,0,1,1215.24,27.48Z"/><path class="a" d="M1331.41,27.48a1.81,1.81,0,1,1-1.81-1.8A1.8,1.8,0,0,1,1331.41,27.48Z"/><path class="a" d="M944.18,65.13a1.81,1.81,0,1,1-1.8-1.8A1.81,1.81,0,0,1,944.18,65.13Z"/><path class="a" d="M1021.63,65.13a1.81,1.81,0,1,1-1.81-1.8A1.81,1.81,0,0,1,1021.63,65.13Z"/><path class="a" d="M1060.35,65.13a1.81,1.81,0,1,1-1.8-1.8A1.81,1.81,0,0,1,1060.35,65.13Z"/><path class="a" d="M1176.52,65.13a1.81,1.81,0,1,1-1.81-1.8A1.81,1.81,0,0,1,1176.52,65.13Z"/><path class="a" d="M1215.24,65.13a1.81,1.81,0,1,1-1.8-1.8A1.81,1.81,0,0,1,1215.24,65.13Z"/><path class="a" d="M1292.68,65.13a1.8,1.8,0,1,1-1.8-1.8A1.8,1.8,0,0,1,1292.68,65.13Z"/><path class="a" d="M1331.41,65.13a1.81,1.81,0,1,1-1.81-1.8A1.81,1.81,0,0,1,1331.41,65.13Z"/><path class="a" d="M1447.58,65.13a1.81,1.81,0,1,1-1.81-1.8A1.81,1.81,0,0,1,1447.58,65.13Z"/><path class="a" d="M199,293.12a1.81,1.81,0,1,0-1.8,1.81A1.81,1.81,0,0,0,199,293.12Z"/><path class="a" d="M237.7,293.12a1.81,1.81,0,1,0-1.81,1.81A1.81,1.81,0,0,0,237.7,293.12Z"/><path class="a" d="M276.42,293.12a1.81,1.81,0,1,0-1.81,1.81A1.81,1.81,0,0,0,276.42,293.12Z"/><path class="a" d="M315.14,293.12a1.81,1.81,0,1,0-1.8,1.81A1.81,1.81,0,0,0,315.14,293.12Z"/><path class="a" d="M353.86,293.12a1.81,1.81,0,1,0-1.8,1.81A1.81,1.81,0,0,0,353.86,293.12Z"/><path class="a" d="M44.08,255.47a1.81,1.81,0,1,0-1.8,1.8A1.81,1.81,0,0,0,44.08,255.47Z"/><path class="a" d="M81,255.47a1.81,1.81,0,1,0-1.8,1.8A1.81,1.81,0,0,0,81,255.47Z"/><path class="a" d="M121.53,255.47a1.81,1.81,0,1,0-1.81,1.8A1.81,1.81,0,0,0,121.53,255.47Z"/><path class="a" d="M199,255.47a1.81,1.81,0,1,0-1.8,1.8A1.81,1.81,0,0,0,199,255.47Z"/><path class="a" d="M237.7,255.47a1.81,1.81,0,1,0-1.81,1.8A1.81,1.81,0,0,0,237.7,255.47Z"/><path class="a" d="M276.42,255.47a1.81,1.81,0,1,0-1.81,1.8A1.81,1.81,0,0,0,276.42,255.47Z"/><path class="a" d="M315.14,255.47a1.81,1.81,0,1,0-1.8,1.8A1.81,1.81,0,0,0,315.14,255.47Z"/><path class="a" d="M392.59,255.47a1.81,1.81,0,1,0-1.81,1.8A1.81,1.81,0,0,0,392.59,255.47Z"/><path class="a" d="M431.31,255.47a1.81,1.81,0,1,0-1.81,1.8A1.81,1.81,0,0,0,431.31,255.47Z"/><path class="a" d="M702.37,255.47a1.81,1.81,0,1,0-1.81,1.8A1.81,1.81,0,0,0,702.37,255.47Z"/><path class="a" d="M1331.41,293.12a1.81,1.81,0,1,0-1.81,1.81A1.81,1.81,0,0,0,1331.41,293.12Z"/><path class="a" d="M1370.13,293.12a1.81,1.81,0,1,0-1.8,1.81A1.81,1.81,0,0,0,1370.13,293.12Z"/><path class="a" d="M1408.85,293.12a1.81,1.81,0,1,0-1.8,1.81A1.81,1.81,0,0,0,1408.85,293.12Z"/><path class="a" d="M1447.58,293.12a1.81,1.81,0,1,0-1.81,1.81A1.81,1.81,0,0,0,1447.58,293.12Z"/><path class="a" d="M982.9,255.47a1.81,1.81,0,1,0-1.8,1.8A1.81,1.81,0,0,0,982.9,255.47Z"/><path class="a" d="M1176.52,255.47a1.81,1.81,0,1,0-1.81,1.8A1.81,1.81,0,0,0,1176.52,255.47Z"/><path class="a" d="M1292.68,255.47a1.8,1.8,0,1,0-1.8,1.8A1.8,1.8,0,0,0,1292.68,255.47Z"/><path class="a" d="M1331.41,255.47a1.81,1.81,0,1,0-1.81,1.8A1.81,1.81,0,0,0,1331.41,255.47Z"/><path class="a" d="M1370.13,255.47a1.81,1.81,0,1,0-1.8,1.8A1.81,1.81,0,0,0,1370.13,255.47Z"/><path class="a" d="M1408.85,255.47a1.81,1.81,0,1,0-1.8,1.8A1.81,1.81,0,0,0,1408.85,255.47Z"/><path class="a" d="M1447.58,255.47a1.81,1.81,0,1,0-1.81,1.8A1.81,1.81,0,0,0,1447.58,255.47Z"/><path class="a" d="M1486.4,255.47a1.81,1.81,0,1,0-1.81,1.8A1.81,1.81,0,0,0,1486.4,255.47Z"/><path class="a" d="M1525,255.47a1.81,1.81,0,1,0-1.8,1.8A1.81,1.81,0,0,0,1525,255.47Z"/><path class="a" d="M1562.71,255.47a1.81,1.81,0,1,0-1.8,1.8A1.81,1.81,0,0,0,1562.71,255.47Z"/><path class="a" d="M199,370a1.81,1.81,0,1,0-1.8,1.8A1.81,1.81,0,0,0,199,370Z"/><path class="a" d="M237.7,370a1.81,1.81,0,1,0-1.81,1.8A1.81,1.81,0,0,0,237.7,370Z"/><path class="a" d="M160.25,332.34a1.81,1.81,0,1,0-1.8,1.8A1.81,1.81,0,0,0,160.25,332.34Z"/><path class="a" d="M199,332.34a1.81,1.81,0,1,0-1.8,1.8A1.81,1.81,0,0,0,199,332.34Z"/><path class="a" d="M237.7,332.34a1.81,1.81,0,1,0-1.81,1.8A1.81,1.81,0,0,0,237.7,332.34Z"/><path class="a" d="M276.42,332.34a1.81,1.81,0,1,0-1.81,1.8A1.81,1.81,0,0,0,276.42,332.34Z"/><path class="a" d="M1370.13,332.34a1.81,1.81,0,1,0-1.8,1.8A1.81,1.81,0,0,0,1370.13,332.34Z"/><path class="a" d="M1408.85,332.34a1.81,1.81,0,1,0-1.8,1.8A1.81,1.81,0,0,0,1408.85,332.34Z"/><path class="a" d="M1447.58,332.34a1.81,1.81,0,1,0-1.81,1.8A1.81,1.81,0,0,0,1447.58,332.34Z"/><path class="a" d="M1408.85,480.38a1.81,1.81,0,1,0-1.8,1.8A1.81,1.81,0,0,0,1408.85,480.38Z"/><path class="a" d="M1447.58,480.38a1.81,1.81,0,1,0-1.81,1.8A1.81,1.81,0,0,0,1447.58,480.38Z"/><path class="a" d="M1408.85,442.73a1.81,1.81,0,1,0-1.8,1.8A1.81,1.81,0,0,0,1408.85,442.73Z"/><path class="a" d="M1447.58,442.73a1.81,1.81,0,1,0-1.81,1.8A1.81,1.81,0,0,0,1447.58,442.73Z"/><path class="a" d="M1447.58,519.59a1.81,1.81,0,1,0-1.81,1.8A1.8,1.8,0,0,0,1447.58,519.59Z"/><path class="a" d="M1562.71,293.12a1.81,1.81,0,1,0-1.8,1.81A1.81,1.81,0,0,0,1562.71,293.12Z"/><path class="a" d="M1562.71,370a1.81,1.81,0,1,0-1.8,1.8A1.81,1.81,0,0,0,1562.71,370Z"/><path class="a" d="M1525.12,332.34a1.81,1.81,0,1,0-1.81,1.8A1.81,1.81,0,0,0,1525.12,332.34Z"/><path class="a" d="M1562.71,332.34a1.81,1.81,0,1,0-1.8,1.8A1.81,1.81,0,0,0,1562.71,332.34Z"/><path class="a" d="M1486.4,480.38a1.81,1.81,0,1,0-1.81,1.8A1.81,1.81,0,0,0,1486.4,480.38Z"/><path class="a" d="M1486.4,442.73a1.81,1.81,0,1,0-1.81,1.8A1.81,1.81,0,0,0,1486.4,442.73Z"/><path class="a" d="M1525.12,442.73a1.81,1.81,0,1,0-1.81,1.8A1.81,1.81,0,0,0,1525.12,442.73Z"/><path class="a" d="M1252.39,480.38a1.81,1.81,0,1,0-1.8,1.8A1.81,1.81,0,0,0,1252.39,480.38Z"/><path class="a" d="M1329.84,480.38a1.81,1.81,0,1,0-1.81,1.8A1.81,1.81,0,0,0,1329.84,480.38Z"/><path class="a" d="M1252.39,442.73a1.81,1.81,0,1,0-1.8,1.8A1.81,1.81,0,0,0,1252.39,442.73Z"/><path class="a" d="M1291.11,442.73a1.8,1.8,0,1,0-1.8,1.8A1.8,1.8,0,0,0,1291.11,442.73Z"/><path class="a" d="M1329.84,442.73a1.81,1.81,0,1,0-1.81,1.8A1.81,1.81,0,0,0,1329.84,442.73Z"/><path class="a" d="M1132.23,480.38a1.81,1.81,0,1,0-1.8,1.8A1.81,1.81,0,0,0,1132.23,480.38Z"/><path class="a" d="M1171,480.38a1.81,1.81,0,1,0-1.8,1.8A1.81,1.81,0,0,0,1171,480.38Z"/><path class="a" d="M1132.23,442.73a1.81,1.81,0,1,0-1.8,1.8A1.81,1.81,0,0,0,1132.23,442.73Z"/><path class="a" d="M1171,442.73a1.81,1.81,0,1,0-1.8,1.8A1.81,1.81,0,0,0,1171,442.73Z"/><path class="a" d="M1209.68,442.73a1.81,1.81,0,1,0-1.81,1.8A1.81,1.81,0,0,0,1209.68,442.73Z"/><path class="a" d="M1132.23,519.59a1.81,1.81,0,1,0-1.8,1.8A1.8,1.8,0,0,0,1132.23,519.59Z"/><path class="a" d="M1014.41,480.38a1.81,1.81,0,1,0-1.8,1.8A1.81,1.81,0,0,0,1014.41,480.38Z"/><path class="a" d="M1091.86,480.38a1.81,1.81,0,1,0-1.81,1.8A1.81,1.81,0,0,0,1091.86,480.38Z"/><path class="a" d="M1014.41,442.73a1.81,1.81,0,1,0-1.8,1.8A1.81,1.81,0,0,0,1014.41,442.73Z"/><path class="a" d="M1053.13,442.73a1.81,1.81,0,1,0-1.8,1.8A1.81,1.81,0,0,0,1053.13,442.73Z"/><path class="a" d="M1091.86,442.73a1.81,1.81,0,1,0-1.81,1.8A1.81,1.81,0,0,0,1091.86,442.73Z"/><path class="a" d="M1014.41,519.59a1.81,1.81,0,1,0-1.8,1.8A1.8,1.8,0,0,0,1014.41,519.59Z"/><path class="a" d="M1091.86,519.59a1.81,1.81,0,1,0-1.81,1.8A1.8,1.8,0,0,0,1091.86,519.59Z"/><path class="a" d="M936.23,480.38a1.81,1.81,0,1,0-1.81,1.8A1.81,1.81,0,0,0,936.23,480.38Z"/><path class="a" d="M975,480.38a1.81,1.81,0,1,0-1.81,1.8A1.81,1.81,0,0,0,975,480.38Z"/><path class="a" d="M897.5,442.73a1.81,1.81,0,1,0-1.8,1.8A1.8,1.8,0,0,0,897.5,442.73Z"/><path class="a" d="M936.23,442.73a1.81,1.81,0,1,0-1.81,1.8A1.81,1.81,0,0,0,936.23,442.73Z"/><path class="a" d="M975,442.73a1.81,1.81,0,1,0-1.81,1.8A1.81,1.81,0,0,0,975,442.73Z"/><path class="a" d="M975,519.59a1.81,1.81,0,1,0-1.81,1.8A1.8,1.8,0,0,0,975,519.59Z"/><path class="a" d="M779.81,480.38a1.81,1.81,0,1,0-1.8,1.8A1.81,1.81,0,0,0,779.81,480.38Z"/><path class="a" d="M818.54,480.38a1.81,1.81,0,1,0-1.81,1.8A1.81,1.81,0,0,0,818.54,480.38Z"/><path class="a" d="M857.26,480.38a1.81,1.81,0,1,0-1.81,1.8A1.81,1.81,0,0,0,857.26,480.38Z"/><path class="a" d="M779.81,442.73a1.81,1.81,0,1,0-1.8,1.8A1.81,1.81,0,0,0,779.81,442.73Z"/><path class="a" d="M818.54,442.73a1.81,1.81,0,1,0-1.81,1.8A1.81,1.81,0,0,0,818.54,442.73Z"/><path class="a" d="M857.26,442.73a1.81,1.81,0,1,0-1.81,1.8A1.81,1.81,0,0,0,857.26,442.73Z"/><path class="a" d="M779.81,519.59a1.81,1.81,0,1,0-1.8,1.8A1.8,1.8,0,0,0,779.81,519.59Z"/><path class="a" d="M857.26,519.59a1.81,1.81,0,1,0-1.81,1.8A1.8,1.8,0,0,0,857.26,519.59Z"/><path class="a" d="M663.64,480.38a1.8,1.8,0,1,0-1.8,1.8A1.8,1.8,0,0,0,663.64,480.38Z"/><path class="a" d="M702.37,480.38a1.81,1.81,0,1,0-1.81,1.8A1.81,1.81,0,0,0,702.37,480.38Z"/><path class="a" d="M741.09,480.38a1.81,1.81,0,1,0-1.8,1.8A1.81,1.81,0,0,0,741.09,480.38Z"/><path class="a" d="M663.64,442.73a1.8,1.8,0,1,0-1.8,1.8A1.8,1.8,0,0,0,663.64,442.73Z"/><path class="a" d="M702.37,442.73a1.81,1.81,0,1,0-1.81,1.8A1.81,1.81,0,0,0,702.37,442.73Z"/><path class="a" d="M741.09,442.73a1.81,1.81,0,1,0-1.8,1.8A1.81,1.81,0,0,0,741.09,442.73Z"/><path class="a" d="M741.09,519.59a1.81,1.81,0,1,0-1.8,1.8A1.8,1.8,0,0,0,741.09,519.59Z"/><path class="a" d="M586.2,480.38a1.81,1.81,0,1,0-1.8,1.8A1.81,1.81,0,0,0,586.2,480.38Z"/><path class="a" d="M624.92,480.38a1.81,1.81,0,1,0-1.8,1.8A1.81,1.81,0,0,0,624.92,480.38Z"/><path class="a" d="M586.2,442.73a1.81,1.81,0,1,0-1.8,1.8A1.81,1.81,0,0,0,586.2,442.73Z"/><path class="a" d="M624.92,442.73a1.81,1.81,0,1,0-1.8,1.8A1.81,1.81,0,0,0,624.92,442.73Z"/><path class="a" d="M586.2,519.59a1.81,1.81,0,1,0-1.8,1.8A1.8,1.8,0,0,0,586.2,519.59Z"/><path class="a" d="M470,480.38a1.81,1.81,0,1,0-1.8,1.8A1.81,1.81,0,0,0,470,480.38Z"/><path class="a" d="M508.75,480.38a1.81,1.81,0,1,0-1.8,1.8A1.8,1.8,0,0,0,508.75,480.38Z"/><path class="a" d="M547.48,480.38a1.81,1.81,0,1,0-1.81,1.8A1.81,1.81,0,0,0,547.48,480.38Z"/><path class="a" d="M470,442.73a1.81,1.81,0,1,0-1.8,1.8A1.81,1.81,0,0,0,470,442.73Z"/><path class="a" d="M508.75,442.73a1.81,1.81,0,1,0-1.8,1.8A1.8,1.8,0,0,0,508.75,442.73Z"/><path class="a" d="M547.48,442.73a1.81,1.81,0,1,0-1.81,1.8A1.81,1.81,0,0,0,547.48,442.73Z"/><path class="a" d="M470,519.59a1.81,1.81,0,1,0-1.8,1.8A1.8,1.8,0,0,0,470,519.59Z"/><path class="a" d="M508.75,519.59a1.81,1.81,0,1,0-1.8,1.8A1.79,1.79,0,0,0,508.75,519.59Z"/><path class="a" d="M353.86,480.38a1.81,1.81,0,1,0-1.8,1.8A1.81,1.81,0,0,0,353.86,480.38Z"/><path class="a" d="M392.59,480.38a1.81,1.81,0,1,0-1.81,1.8A1.81,1.81,0,0,0,392.59,480.38Z"/><path class="a" d="M353.86,442.73a1.81,1.81,0,1,0-1.8,1.8A1.81,1.81,0,0,0,353.86,442.73Z"/><path class="a" d="M392.59,442.73a1.81,1.81,0,1,0-1.81,1.8A1.81,1.81,0,0,0,392.59,442.73Z"/><path class="a" d="M431.31,442.73a1.81,1.81,0,1,0-1.81,1.8A1.81,1.81,0,0,0,431.31,442.73Z"/><path class="a" d="M237.7,480.38a1.81,1.81,0,1,0-1.81,1.8A1.81,1.81,0,0,0,237.7,480.38Z"/><path class="a" d="M276.42,480.38a1.81,1.81,0,1,0-1.81,1.8A1.81,1.81,0,0,0,276.42,480.38Z"/><path class="a" d="M237.7,442.73a1.81,1.81,0,1,0-1.81,1.8A1.81,1.81,0,0,0,237.7,442.73Z"/><path class="a" d="M276.42,442.73a1.81,1.81,0,1,0-1.81,1.8A1.81,1.81,0,0,0,276.42,442.73Z"/><path class="a" d="M315.14,442.73a1.81,1.81,0,1,0-1.81,1.8A1.81,1.81,0,0,0,315.14,442.73Z"/><path class="a" d="M276.42,519.59a1.81,1.81,0,1,0-1.81,1.8A1.8,1.8,0,0,0,276.42,519.59Z"/><path class="a" d="M160.25,480.38a1.81,1.81,0,1,0-1.8,1.8A1.81,1.81,0,0,0,160.25,480.38Z"/><path class="a" d="M199,480.38a1.81,1.81,0,1,0-1.8,1.8A1.81,1.81,0,0,0,199,480.38Z"/><path class="a" d="M160.25,442.73a1.81,1.81,0,1,0-1.8,1.8A1.81,1.81,0,0,0,160.25,442.73Z"/><path class="a" d="M199,442.73a1.81,1.81,0,1,0-1.8,1.8A1.81,1.81,0,0,0,199,442.73Z"/><path class="a" d="M119.72,480.38a1.81,1.81,0,1,0-1.8,1.8A1.81,1.81,0,0,0,119.72,480.38Z"/><path class="a" d="M81,442.73a1.81,1.81,0,1,0-1.8,1.8A1.81,1.81,0,0,0,81,442.73Z"/><path class="a" d="M119.72,442.73a1.81,1.81,0,1,0-1.8,1.8A1.81,1.81,0,0,0,119.72,442.73Z"/><path class="a" d="M119.72,519.59a1.81,1.81,0,1,0-1.8,1.8A1.8,1.8,0,0,0,119.72,519.59Z"/><path class="a" d="M44.08,369.92a1.81,1.81,0,1,0-1.8,1.81A1.81,1.81,0,0,0,44.08,369.92Z"/><path class="a" d="M44.08,332.27a1.81,1.81,0,1,0-1.8,1.8A1.8,1.8,0,0,0,44.08,332.27Z"/><path class="a" d="M1014.41,557.14a1.81,1.81,0,1,0-1.8,1.8A1.81,1.81,0,0,0,1014.41,557.14Z"/><path class="a" d="M1091.86,557.14a1.81,1.81,0,1,0-1.81,1.8A1.81,1.81,0,0,0,1091.86,557.14Z"/><path class="a" d="M779.81,557.14a1.81,1.81,0,1,0-1.8,1.8A1.81,1.81,0,0,0,779.81,557.14Z"/><path class="a" d="M508.75,557.14a1.81,1.81,0,1,0-1.8,1.8A1.8,1.8,0,0,0,508.75,557.14Z"/><path class="a" d="M119.72,557.14a1.81,1.81,0,1,0-1.8,1.8A1.81,1.81,0,0,0,119.72,557.14Z"/><path class="b" d="M866.58,412.06l27.6,1.13s9.57-41.11,46.73-43.36S986,410.94,986,410.94h27s-35.47-46.74-41.67-59.7-22-56.87-25.34-92.35S942,181.18,942,172.17s2.82-14.07,2.25-17.45-3.2-5.95-8.44-5.07c-3.38.56-6.2,5.63-4,18,2.52,13.86,1.92,29.92,2.09,48.75s-2.09,68.38-5.46,79.64-5.64,31-21.4,58S866.58,412.06,866.58,412.06Z"/><path class="b" d="M860.39,253.83V218.35c0-5.63,2.25-14.64,13-14.08s11.83,7.32,12.39,14.08,1.69,36.6,1.69,36.6Z"/><path class="b" d="M436.64,308.45c.85-13.52,16.05-11,16.05,0,0,10.2,2.53,110.65,2.53,110.65L435,414S435.8,322,436.64,308.45Z"/><polyline class="b" points="462.83 349.84 582.77 364.2 588.13 416.49 588.13 416.49 461.98 418.26 462.83 349.84"/><polygon class="c" points="928.53 348.71 936.3 319.36 948.76 319.36 951.61 349.56 928.53 348.71"/><path class="d" d="M1097.77,260.36a9.16,9.16,0,0,0-5.3-7.76,30.12,30.12,0,0,1-6-3.7,25.57,25.57,0,0,1-5.83,3.7,9.16,9.16,0,0,0-5.3,7.76v22.41h22.78S1097.77,263.07,1097.77,260.36Z"/><path class="d" d="M1097.77,298.27a9.16,9.16,0,0,0-5.3-7.76,29.82,29.82,0,0,1-6-3.69,25.35,25.35,0,0,1-5.83,3.69,9.16,9.16,0,0,0-5.3,7.76v2.15l10.75.71,12,2.67S1097.77,301,1097.77,298.27Z"/><path class="d" d="M991.9,260.36a9.17,9.17,0,0,0-5.29-7.76,30,30,0,0,1-6-3.7,25.3,25.3,0,0,1-5.83,3.7,9.17,9.17,0,0,0-5.29,7.76v22.41h22.77S991.9,263.07,991.9,260.36Z"/><path class="d" d="M991.9,298.27a9.17,9.17,0,0,0-5.29-7.76,29.73,29.73,0,0,1-6-3.69,25.08,25.08,0,0,1-5.83,3.69,9.17,9.17,0,0,0-5.29,7.76v22.42h22.77S991.9,301,991.9,298.27Z"/><path class="b" d="M753.21,415.25h43.17s-6.38-37.16-8.26-46.55-5.25-12.39-12.76-13.14S763,360.07,761.47,367.2,753.21,415.25,753.21,415.25Z"/><line class="b" x1="1005.11" y1="378.27" x2="998.35" y2="381.09"/><path class="b" d="M96.06,302.14s36.6-40.55,43.36-58c13.51,6.19,34.35,20.83,34.35,20.83s-7.88,23.09-32.66,39.42-28.16,18-28.16,18Z"/><polyline class="e" points="588.13 370.28 588.13 416.49 454.3 425.31 431.86 421.63 391.99 421.63 369.55 425.31 263.56 418.32"/><path class="e" d="M250.53,417.46l-14.82-1v-71l65.61-14.58s-1.39-7.35,2-7.94a19.64,19.64,0,0,0,4.57-1.19s.79-3.78,4-4.77,5.36-1.79,5.36-1.79,1.39-4.56,4.57-5.16a26.47,26.47,0,0,0,4.17-1l.39-3.77L347.39,300l.4-3.77,4.57-1.39,4,1.19v1.79s9.53-3,12.91-3h9.92l.6-13.11s10.58-8.83,19.86-7.74v-14.3s-2.39-5.56,12.11-5.56h.38c14.5,0,12.12,5.56,12.12,5.56V274c13.9.6,19.85,7.74,19.85,7.74l.6,13.11h9.93c3.37,0,12.9,3,12.9,3V296l4-1.19,4.56,1.39.4,3.77,21.05,5.37.4,3.77a26,26,0,0,0,4.17,1c3.17.6,4.56,5.16,4.56,5.16s2.19.8,5.37,1.79,4,4.77,4,4.77a19.4,19.4,0,0,0,4.56,1.19c3.38.59,2,7.94,2,7.94l65.61,14.58v11"/><path class="e" d="M326,349.38s17.06-2.34,31.44-3.68,51.49-2,63.87-2,47.82,2.67,56.85,3.67,22.4,3,22.4,3"/><polyline class="e" points="391.99 421.63 391.99 350.38 431.67 350.38 431.67 421.63"/><line class="f" x1="392.47" y1="389.51" x2="430.67" y2="389.51"/><line class="f" x1="352.36" y1="294.8" x2="352.36" y2="246.05"/><line class="f" x1="472.41" y1="294.8" x2="472.41" y2="246.05"/><line class="f" x1="412.11" y1="254.09" x2="412.11" y2="201.58"/><path class="e" d="M379.16,294.8s4,.74,9.71,2.41V343.7"/><path class="e" d="M444.68,294.8s-4.65-1.6-11,2.41V343.7"/><ellipse class="f" cx="322.49" cy="318.62" rx="4.51" ry="7.02"/><ellipse class="f" cx="311.91" cy="323.63" rx="3.14" ry="4.88"/><ellipse class="f" cx="304.16" cy="326.65" rx="2.22" ry="3.45"/><ellipse class="f" cx="501.99" cy="318.62" rx="4.51" ry="7.02"/><ellipse class="f" cx="512.58" cy="323.64" rx="3.14" ry="4.88"/><ellipse class="f" cx="520.33" cy="326.65" rx="2.22" ry="3.45"/><polyline class="e" points="706.38 366.7 693.36 324.6 680.84 365.89 671.75 324.83 657.85 363.75 649.29 323.76 634.86 366.95 625 324.83 609.19 364.82 606.52 416.15 614.95 416.15"/><polyline class="e" points="625.95 329.19 637.43 295.31 647.03 330.63"/><polyline class="e" points="650.67 330.37 661.5 295.31 670.14 328.99"/><polyline class="e" points="672.67 329.13 682.88 295.31 692.16 328.34"/><polyline class="e" points="694.32 327.77 704.27 295.31 712.92 328.99"/><path class="e" d="M716.87,416.15h29.22s2.79-24.36,7.83-48.5c3.56-17,9.47-33.63,10.89-43,3.44-22.55.38-34.39,1.53-43.95s2.29-30.57,6.5-30.57H774c4.21,0,5.35,21,6.5,30.57s-1.91,21.4,1.53,43.95c1.42,9.29,7.63,26.84,11.17,43.82,5,24.21,7.56,47.64,7.56,47.64h39.39s1.06-51.33-2.14-58.28-5.88-18.18-5.88-52.4S820.9,176.28,820.9,176.28s9.19-4.65-1.61-13c-8.88,6.08-6.37,10.51-3.53,12.83,0,15-6.8,106.23-6.8,106.23,0-34.22-11.22-129.18-11.22-129.18s9.19-4.65-1.61-13c-8.88,6.07-6.38,10.51-3.53,12.83,0,15-7.16,106.4-7.16,106.4l-.49-81H760.14v81S753,167.88,753,152.91c2.85-2.32,5.35-6.76-3.53-12.83-10.8,8.39-1.61,13-1.61,13s-11.22,95-11.22,129.18c0,0-6.8-91.26-6.8-106.23,2.84-2.32,5.35-6.75-3.53-12.83-10.8,8.39-1.61,13-1.61,13s-11.23,95-11.23,129.19-2.67,45.44-5.88,52.4-2.14,58.28-2.14,58.28H628"/><circle class="f" cx="621.65" cy="382.4" r="7.85"/><circle class="f" cx="644.02" cy="382.4" r="7.85"/><circle class="f" cx="668.73" cy="382.4" r="7.85"/><circle class="f" cx="692.59" cy="382.4" r="7.85"/><path class="e" d="M1007.94,416H992.28s-6.79-24.35-20.37-32.5-23.43-9.85-30.22-9.85h-2.27c-6.79,0-16.63,1.7-30.22,9.85S888.83,416,888.83,416h-31"/><path class="e" d="M857.86,416s36.41-46.42,39.12-50.84,2-18.33,2-18.33h6.79s12.56-31.91,14.26-39.72c-1-9.17-2.38-10.19-.68-11.89s5.09-1.69,5.09-1.69,8.15-41.76,9.51-77.07,1.36-45.5,1.36-45.5-2.72-12.9-2-17,1.36-8.15,6.45-9.17c.34-3.06,1-20.71,1-20.71s.23,17.65.57,20.71c5.1,1,5.78,5.09,6.45,9.17s-2,17-2,17,0,10.19,1.36,45.5,9.5,77.07,9.5,77.07,3.4,0,5.09,1.69.34,2.72-.67,11.89c1.69,7.81,14.26,39.72,14.26,39.72l6.52.24s-.41,13.68,2.3,18.09S1023.26,416,1023.26,416"/><polygon class="e" points="940.67 321.33 946.79 321.33 951.2 346.79 940.67 346.79 940.44 346.79 929.91 346.79 934.33 321.33 940.44 321.33 940.67 321.33"/><path class="f" d="M76.31,349l-20-58.8A5.87,5.87,0,0,1,60,282.75l11.22-3.82,3.52,3.91,16.53-5.62.07-5.14,11.29-3.83a5.87,5.87,0,0,1,7.45,3.67l3,8.77c1.25-1.49,2.54-3.09,3.85-4.78l-3.67-10.8a5.88,5.88,0,0,0-7.46-3.67L53.09,279.35a5.89,5.89,0,0,0-3.68,7.46L84,388.56a5.87,5.87,0,0,0,7.45,3.67l52.67-17.92a5.87,5.87,0,0,0,3.68-7.45l-15.45-45.42q-2.46.71-5,1.36l13.48,39.61a5.87,5.87,0,0,1-3.68,7.45l-42.62,14.5a5.87,5.87,0,0,1-7.45-3.67l-6.24-18.35"/><path class="f" d="M160.89,251.43a218.85,218.85,0,0,0-21.18-13.59,204.6,204.6,0,0,1-22.82,38.07"/><path class="f" d="M116.89,275.91c-1.31,1.69-2.6,3.29-3.85,4.78"/><path class="f" d="M113,280.69c-13.22,15.76-23.21,20.84-23.21,20.84s9.24,10,20,24.58c3.77-1.59,7.33-3.27,10.73-5"/><path class="f" d="M163.69,288a140.36,140.36,0,0,1-33.28,27.62"/><path class="f" d="M125.83,318.31c-1.69.94-3.43,1.88-5.23,2.79.49,1,1,1.95,1.46,3,1.81-.4,3.57-.82,5.3-1.26l5-1.36c48.67-14.05,68.72-44.54,68.72-44.54s-17-20.57-33.63-34.21c-2.21,3.09-4.41,6-6.58,8.74,10.36,7.42,18.12,13.93,18.12,13.93a73.81,73.81,0,0,1-6.4,11.12"/><path class="f" d="M174.5,273.58a64.84,64.84,0,0,0,4.51-8.22s-7.76-6.51-18.12-13.93"/><path class="f" d="M130.41,315.65a139.89,139.89,0,0,0,33.82-28.25"/><path class="f" d="M125.83,318.31c1.57-.88,3.09-1.76,4.58-2.66"/><path class="f" d="M120.6,321.1c1.8-.91,3.54-1.85,5.23-2.79"/><path class="f" d="M1547.57,290.81a5.88,5.88,0,0,0-3-7.76l-50.85-22.56a5.89,5.89,0,0,0-7.76,3l-43.58,98.24a5.88,5.88,0,0,0,3,7.76L1496.23,392a5.88,5.88,0,0,0,7.76-3l19.46-43.85Z"/><path class="f" d="M1463.55,327.42l25.18-56.77a5.88,5.88,0,0,1,7.76-3l10.83,4.8-.07,5.26,16,7.08,3.54-3.72,10.89,4.83a5.88,5.88,0,0,1,3,7.76l-21.79,49.13-17,38.24a5.89,5.89,0,0,1-7.75,3L1453,365.77a5.89,5.89,0,0,1-3-7.76l7.86-17.71"/><polyline class="f" points="900.51 346.69 900.51 282.62 895.67 279.4 895.67 261.69"/><path class="f" d="M851.39,262.49V221.43c0-6.44-7.25-6.44-7.25,0,0,3.22.81,42.67.81,42.67l-2.42,2.42v15.3l-3.22,2.41v80"/><path class="f" d="M849.74,205.93c0,3.22-.77-14.29,4.06-14.29s3.23,16.9,3.23,21.74"/><path class="f" d="M853,191.64s0-12.08,4.83-12.08c2.42,0,1.48,11.26,1.48,11.26"/><path class="f" d="M857,179.56s-.39-11.72,4.44-12.52c.08-5.89-.83-13.89,3.61-14.86,0-7.25-.81-12.88.8-14.49,0-4.83,0-12.89,1.61-16.11,0-6.44,2.42-42.67,2.42-42.67l1.61,42.67s2.41,5.64,1.61,16.11c1.61,4,1.51,7.7,1.51,14.14"/><path class="f" d="M864.27,165.06s-1.36-14.47,6.44-14.49c6.45,0,8.06,7.25,8.06,14.49"/><path class="f" d="M873.13,137.69s-3.22-4-7.25,0"/><path class="f" d="M860.83,184.2s-1.47-13.77,2.64-18.33c4.57-5.08,10.46-5.64,16.1,0,4,4,4.13,12.5,4.13,16.52"/><path class="f" d="M858,202.14s.63-17.2,5.47-21.78c5.11-4.83,15.91-6,20.93,3.22a34.37,34.37,0,0,1,4,17.72"/><path class="f" d="M857.1,208.2s2.34-12.54,8-16.56,12.88-4.84,18.52,1.61c2.65,3,6.44,5.63,6.44,23.35"/><path class="f" d="M856.22,217.4s3.22-10.47,9.66-13.69,12.89-2.41,16.91,1.61A27,27,0,0,1,890.84,219c1,3.84.82,12.35.81,20.94,0,11.26,0,22.54,0,22.54"/><path class="f" d="M890.84,219s4.84-1.61,4.84,8.86v34.62l-39.46-.8"/><path class="f" d="M845,264.91l11.27-3.22V217.4c0-3.22.81-12.08-4-12.08s-4,11.28-4,11.28"/><polyline class="e" points="430.54 274.46 570.64 101.62 713.53 298.58"/><line class="f" x1="570.64" y1="101.62" x2="484.92" y2="302.87"/><path class="e" d="M1130,276.55a44.08,44.08,0,0,1,7-.57,27.5,27.5,0,0,1,6.11.57"/><path class="e" d="M971,337s23.55-.61,44.67,10c14.19-4.83,28.68-9.06,40.45-9.36-3-12.68-9.36-34.71-9.36-34.71s37.43-11.17,74.85,10.26"/><line class="f" x1="1056.15" y1="337.64" x2="1066.94" y2="370.16"/><path class="e" d="M1119.23,369.48l-20.83-53s28.37-8.45,56.44,2.42,54,33.5,75.08,55.53"/><path class="e" d="M1137,313.8s26.26-56.44,93-68.22a171.82,171.82,0,0,1-2.11,20.83"/><path class="e" d="M1234.22,374.91s.44-8.1,8.75-54.17c6.59-36.53,13.11-50.59,23.84-70.93-60.06,11.47-91.75,78.17-91.75,78.17"/><path class="e" d="M1246.59,302.33s29.28-15.4,53.42-19c-7.54,17.21-13.28,34.86-19.61,79.83"/><path class="e" d="M1289.15,313.8s35.92-10.27,58.85-6.64c-12.07,16.9-27.76,42.55-29.88,47.68"/><path class="e" d="M993.67,377.18s4.05-.49,10.8-1.25c17-1.9,51.32-5.5,81-7.2,26.26-1.51,58.56,3.62,78.48,2.71s70.32,3.32,70.32,3.32,19-9.05,23.84-10.26,20.22-.6,20.22-.6,17.21-5.74,29.58-8.76,32.6,4.83,41.65,8.15c-29.88,16-61.57,32.3-61.57,32.3H1027.78"/><path class="e" d="M1130,299.75a44.84,44.84,0,0,1,7-.56,28,28,0,0,1,6.11.56"/><path class="e" d="M949.44,246.52l11.77-2.72V229.92a1.79,1.79,0,0,1,1.77-1.36,1.44,1.44,0,0,1,1.47,1.47v13.13H994V218l-1.13-2.27v-16.3c0-5.2,8.26-23.09,22.41-28.52,1.24-3.39,4.87-4.75,6.22-5.09a82.36,82.36,0,0,0,7.36-6.23s-.11-2.94,2.38-3.17c-.23-.79-.91-1.4-.91-2.26a3.18,3.18,0,0,1,.91-1.92,3,3,0,0,1-1.25-2.38,3.74,3.74,0,0,1,1.47-2.72L1033,135.6l1.71,11.58a3.7,3.7,0,0,1,1.47,2.72,3,3,0,0,1-1.25,2.38,3.18,3.18,0,0,1,.91,1.92c0,.86-.68,1.47-.91,2.26,2.49.23,2.38,3.17,2.38,3.17a82.36,82.36,0,0,0,7.36,6.23c1.36.34,5,1.7,6.22,5.09,14.15,5.43,22.41,23.32,22.41,28.52v16.3l-1.13,2.27v25.12h29.54V230a1.44,1.44,0,0,1,1.47-1.47,1.81,1.81,0,0,1,1.78,1.36V243.8l16.62,3.62V234.14c0-1.28.61-1.73,1.66-1.73a1.62,1.62,0,0,1,1.59,1.73v79"/><line class="f" x1="962.98" y1="228.56" x2="962.98" y2="221.04"/><line class="f" x1="1103.3" y1="228.56" x2="1103.3" y2="221.04"/><line class="f" x1="1123.22" y1="232.3" x2="1123.22" y2="224.78"/><line class="f" x1="1136.69" y1="234.79" x2="1136.69" y2="227.27"/><line class="f" x1="1031.23" y1="156.46" x2="1034.97" y2="156.46"/><line class="f" x1="1031.23" y1="152.28" x2="1034.97" y2="152.28"/><path class="e" d="M1028.85,159.63a38.57,38.57,0,0,1,4.19-.22,42.47,42.47,0,0,1,4.31.22"/><path class="e" d="M992.86,215.77s14.94-8.49,41.54-8.26,38.82,7.47,38.82,7.47"/><path class="e" d="M994.1,218.49s13.7-7.81,40.3-7.59,37.8,6.8,37.8,6.8"/><path class="e" d="M1141.69,305.52l-.61-54.78s2-1.81-.23-2.71c-.23-2.15.91-13.24-4.41-13.36h.39c-5.32.12-4.19,11.21-4.42,13.36-2.26.9-.22,2.71-.22,2.71l-.68,62.71"/><path class="e" d="M1130.83,241.35a39.74,39.74,0,0,1,6-.57,32.87,32.87,0,0,1,5.66.57"/><path class="e" d="M1053.49,301.3V272.7c0-5-3.62-11.54-9.74-14.26a55.48,55.48,0,0,1-11.09-6.79,46.84,46.84,0,0,1-10.71,6.79c-6.11,2.72-9.74,9.28-9.74,14.26v41.2h37.58"/><path class="g" d="M1473,378.36S1279.88,562.52,792.43,562.52c-471.28,0-674.08-182.11-674.08-182.11"/><circle class="b" cx="1471.66" cy="378.81" r="8.97"/><circle class="b" cx="117.29" cy="378.81" r="8.97"/></svg>