<?xml version="1.0" encoding="utf-8"?>
<!-- Generator: Adobe Illustrator 23.0.4, SVG Export Plug-In . SVG Version: 6.00 Build 0)  -->
<svg version="1.1" id="Layer_1" xmlns="http://www.w3.org/2000/svg" xmlns:xlink="http://www.w3.org/1999/xlink" x="0px" y="0px"
	 viewBox="0 0 885 575" style="enable-background:new 0 0 885 575;" xml:space="preserve">
<style type="text/css">
	.st0{fill:#FFE161;}
	.st1{fill:none;stroke:#FFE161;stroke-width:2;stroke-miterlimit:10;}
	.st2{fill:none;stroke:#FF6346;stroke-width:2;stroke-miterlimit:10;}
	.st3{fill:none;stroke:#1EB9D5;stroke-width:2;stroke-miterlimit:10;}
	.st4{fill:#1EB9D5;}
	.st5{fill-rule:evenodd;clip-rule:evenodd;fill:#1EB9D5;}
	.st6{fill:#FFFFFF;}
</style>
<title>homepic2</title>
<path class="st0" d="M406.8,255.3c0,0,32.1-101.6,38.5-122.4c2.5-8.3,4.8-15.2,7.3-20.7"/>
<path class="st1" d="M638.8,173.9l-79.4,254.2l-14.5,46.5l-7.7,24.6c-3.5,11.1-14.6,17.4-24.9,14.2l-142.5-44.5
	c-10.3-3.2-15.8-14.8-12.4-25.8L459,117.8c3.5-11.1,14.6-17.4,24.9-14.2l37.7,11.8l0.3,18.2l55.3,17.3l11.7-14.4l37.5,11.7
	C636.7,151.3,642.2,162.8,638.8,173.9z"/>
<path class="st2" d="M630.7,224.7c0,0,22.2-1.9,20.8,20.8c-1.4,22.7-34.9,25.3-34.9,25.3"/>
<path class="st2" d="M613.9,281.3c0,0,22.2-1.9,20.8,20.8s-35.1,25.3-35.1,25.3"/>
<path class="st2" d="M594.4,342.1c0,0,23.2-1.9,21.8,20.8c-1.4,22.7-35.8,25.3-35.8,25.3"/>
<path class="st2" d="M575.8,403.3c0,0,23.6-2.3,22.2,20.4c-1.4,22.7-35.8,25.3-35.8,25.3"/>
<path class="st2" d="M407.7,491.8c0,0-86.5,38.1-175.6,49.4c0-48.2,0-202.6,0-202.6s59.4-25.4,98.8-58.4"/>
<path class="st3" d="M454.2,504.4c-37.1-10.6-78-22.1-84.5-24.7c-10.5-4.2-29-13-21.7-37.4c14.3-47.5,52.1-165,52.1-165"/>
<path class="st3" d="M546.1,114c33.5,10.2,64.3,19.9,73.2,23.1c20.6,7.3,35,13.3,25.9,41.6c-13.1,40.7-94,303.1-97.9,316.7
	c-6.1,21.5-16.8,31.5-38.5,24.8"/>
<path class="st3" d="M408,252.4c0,0,38.5-124.3,44.6-140.2s17.2-20.9,42.3-13.5c3.5,1,7.1,2.1,10.8,3.2"/>
<line class="st3" x1="530.2" y1="126.7" x2="562.4" y2="136.1"/>
<circle class="st4" cx="573.6" cy="139" r="3.1"/>
<path class="st2" d="M357.2,258.1c10.8-9.1,32.7-27.6,47.5-10.3c12.6,14.7-4.2,30.2-14.7,38.3c-10.5,8-57,42.6-77.6,54.7
	c-12.7,7.4-5.1,21.3,11.5,15.7c15.7-5.2,39.9-20.4,39.9-20.4"/>
<g>
	<path class="st5" d="M522.4,276.6l8.5,16.1l-35.5-11.3l0.9-2.8l0.8-2.4l0.6-2l3.6-11.4l0.4-1.4l4.8-15l9,17.1
		c2.9-1.4,5.2-4,6.3-7.3c2.1-6.4-1.5-13.3-7.9-15.4c-6.4-2-13.2,1.5-15.3,7.8l0,0l0,0.1l-7.3,23l-2.4,7.5l-14.1-4.5l9.7-30.5
		c4.5-14.2,19.8-22.1,34-17.6c14.2,4.5,22.1,19.8,17.6,34C533.6,267.9,528.6,273.4,522.4,276.6z"/>
	<path class="st6" d="M472.6,288.9c0.1-0.4,0.1-1,0-1.9c-0.1-0.9-0.4-1.7-0.8-2.7c-0.4-0.9-1-1.8-1.7-2.6c-0.7-0.8-1.6-1.4-2.7-1.8
		c-1.7-0.6-3.7-0.9-5.8-1c-2.1-0.1-4.6,0-7.4,0.6c-0.4,0.1-0.9,0.2-1.4,0.3c-0.5,0.1-1.1,0.3-1.6,0.5c-0.5,0.2-1,0.5-1.4,0.8
		c-0.4,0.3-0.7,0.7-0.8,1.1c-0.1,0.2-0.1,0.6-0.1,1c0,0.4,0.1,0.8,0.2,1.2c0.1,0.4,0.3,0.8,0.6,1.1c0.2,0.3,0.6,0.5,1,0.7
		c0.2,0.1,0.4,0,0.5-0.2c0.1-0.2,0.2-0.4,0.3-0.7c0-0.1,0.1-0.3,0.1-0.5c0-0.3,0.1-0.5,0.1-0.8c0.1-0.3,0.1-0.6,0.2-0.9
		c0-0.3,0.1-0.5,0.1-0.6c0.1-0.4,0.6-0.8,1.3-1.1c0.7-0.3,1.5-0.5,2.4-0.7c0.9-0.1,1.8-0.2,2.7-0.2c0.9,0,1.7,0.1,2.2,0.3l0.3,0.1
		c0,0,0.1,0.1,0.1,0.2c0,0.1,0.1,0.2,0.1,0.3c-0.5,0.6-0.9,1.3-1.4,2.3c-0.5,0.9-1,2-1.4,3.1c-0.5,1.1-0.9,2.3-1.4,3.5
		c-0.5,1.2-0.9,2.4-1.3,3.6c-0.4,1.2-0.8,2.3-1.1,3.3l-0.8,2.6c-0.2,0.8-0.4,1.4-0.6,1.9c-0.1,0.5-0.2,0.9-0.2,1.3
		c0,0.3,0,0.6,0.1,0.8c0.1,0.2,0.3,0.3,0.5,0.4l0.6,0.2c0.3,0.1,0.6,0.2,1,0.2c0.3,0.1,0.7,0.1,1,0.1c0.3,0,0.6,0,0.8-0.1
		c-0.3-0.2-0.4-0.4-0.3-0.6c0-0.2,0.1-0.4,0.1-0.5l1.3-4.1l0.9-2.7c0.3-0.8,0.4-1.3,0.6-1.5c0-0.1,0.2-0.1,0.4-0.1
		c0.3,0.1,0.5,0.1,0.6,0.1c0.6,0.2,1.1,0.5,1.3,0.8c0.2,0.3,0.4,0.8,0.3,1.5c0,0.7-0.2,1.6-0.4,2.7c-0.3,1.1-0.5,2.6-0.9,4.4
		c-0.2,1-0.1,1.7,0.3,2.2c0.4,0.5,0.9,0.9,1.7,1.2c0.8,0.3,1.6,0.3,2.2,0.1c0.6-0.2,1-0.6,1.2-1.1c0-0.1,0-0.2,0.1-0.2
		c0-0.1,0-0.1,0-0.2c-0.3,0.2-0.5,0.4-0.7,0.4c-0.2,0.1-0.4,0.1-0.7,0c-0.2-0.1-0.4-0.3-0.4-0.7c0-0.4,0-0.8,0.1-1.3
		c0.1-0.5,0.2-1.1,0.4-1.8c0.2-0.6,0.3-1.3,0.5-1.9c0.1-0.7,0.2-1.3,0.3-1.9c0-0.6,0-1.1-0.1-1.5c-0.2-0.7-0.6-1.3-1.1-1.8
		c-0.5-0.4-1-0.8-1.5-1.2c0.9,0.1,1.8,0.1,2.8-0.2c1-0.2,1.9-0.6,2.8-1.1c0.9-0.5,1.7-1.2,2.4-1.9
		C471.8,290.7,472.3,289.8,472.6,288.9L472.6,288.9z M469.9,287.3c-0.2,0.7-0.6,1.4-1.2,2.1c-0.6,0.7-1.3,1.4-2.1,2
		c-0.8,0.6-1.7,1-2.6,1.3c-0.9,0.3-1.8,0.3-2.6,0c-0.5-0.2-0.8-0.3-0.8-0.4c-0.1-0.1-0.1-0.4,0-0.7l2.7-8.5c0.2-0.6,0.4-1.1,0.6-1.3
		c0.2-0.2,0.4-0.3,0.7-0.3c0.5,0.1,0.8,0.2,0.9,0.3l0.3,0.1c1.5,0.5,2.7,1.2,3.4,2.1C470.1,285,470.3,286.1,469.9,287.3L469.9,287.3
		z M480.3,303.8l0.1-0.3c0.1-0.4,0-0.7-0.4-0.8c-0.2-0.1-0.3,0-0.4,0.1c-0.1,0.1-0.3,0.3-0.4,0.6c-0.3,0.5-0.6,1-0.9,1.5
		c-0.3,0.5-0.7,0.9-1.1,1.3c-0.4,0.3-0.9,0.6-1.5,0.7c-0.5,0.1-1.2,0.1-1.9-0.1c-0.5-0.2-0.9-0.4-1.2-0.8c-0.3-0.3-0.5-0.7-0.6-1.1
		c-0.1-0.4-0.2-0.7-0.2-1.1c0-0.4,0-0.6,0.1-0.8l0.3-1.1c0.2,0.1,0.3,0.2,0.5,0.3c0.2,0.1,0.3,0.1,0.4,0.2c0.7,0.2,1.4,0.2,2,0
		c0.7-0.2,1.3-0.6,1.8-1.1c0.6-0.5,1-1,1.5-1.7c0.4-0.6,0.7-1.2,0.9-1.8l0.1-0.5c0.1-0.4,0.1-0.9,0.1-1.3c0-0.4-0.2-0.9-0.4-1.2
		c-0.2-0.4-0.5-0.7-0.8-1c-0.3-0.3-0.7-0.5-1.2-0.7c-0.9-0.3-1.8-0.2-2.6,0.2c-0.8,0.4-1.6,1-2.3,1.7c-0.7,0.8-1.3,1.6-1.8,2.6
		c-0.5,1-0.9,1.9-1.2,2.7c-0.3,0.9-0.5,1.7-0.5,2.6c-0.1,0.8,0,1.6,0.3,2.4c0.2,0.7,0.6,1.4,1.2,1.9c0.6,0.6,1.3,1,2.3,1.3
		c1,0.3,1.9,0.4,2.8,0.2c0.9-0.2,1.6-0.6,2.3-1.1c0.7-0.5,1.2-1.1,1.7-1.8C479.8,305,480.1,304.4,480.3,303.8L480.3,303.8z
		 M477.8,296.7l-0.1,0.2c-0.1,0.3-0.3,0.8-0.6,1.3c-0.3,0.5-0.6,1-1,1.4c-0.4,0.4-0.8,0.8-1.2,1.1c-0.5,0.3-0.9,0.3-1.4,0.2
		l-0.2-0.1c-0.2-0.1-0.3-0.2-0.3-0.3c0-0.1,0-0.3,0.1-0.5l0-0.1c0.1-0.2,0.2-0.5,0.5-1c0.3-0.5,0.6-1,1-1.6c0.4-0.5,0.8-1,1.3-1.3
		c0.5-0.4,0.9-0.5,1.4-0.3c0.3,0.1,0.5,0.3,0.5,0.5C477.9,296.3,477.9,296.5,477.8,296.7L477.8,296.7z M485.4,310.4
		c-0.1,0.3-0.3,0.5-0.6,0.7c-0.3,0.2-0.6,0.3-1,0.3c-0.4,0.1-0.7,0.1-1.1,0.1c-0.4,0-0.6-0.1-0.9-0.1c-0.4-0.1-0.9-0.3-1.3-0.6
		c-0.5-0.2-0.8-0.6-1.1-0.9c-0.3-0.4-0.5-1-0.5-1.8c0-0.8,0-1.7,0.2-2.7c0.2-1,0.4-2.1,0.8-3.3c0.3-1.2,0.7-2.4,1.1-3.7
		c0.2-0.5,0.4-1.1,0.6-1.8c0.2-0.6,0.5-1.3,0.8-2c0.3-0.7,0.6-1.4,0.9-2.1c0.3-0.7,0.6-1.4,0.9-2c0.2-0.4,0.5-0.9,0.7-1.4
		c0.3-0.5,0.5-1,0.8-1.4c0.3-0.5,0.5-0.9,0.8-1.2c0.3-0.3,0.5-0.6,0.7-0.7c0.3-0.1,0.6-0.2,0.9-0.1c0.3,0,0.7,0.1,0.9,0.2
		c0.6,0.2,1,0.5,1.2,0.9c0.2,0.4,0.4,0.9,0.4,1.4c0,0.6,0,1.2-0.2,1.8c-0.1,0.7-0.3,1.4-0.6,2.1c-0.4,1.1-0.8,2.3-1.3,3.6
		c-0.5,1.3-1.1,2.5-1.7,3.8c-0.7,1.2-1.4,2.4-2.2,3.5c-0.8,1.1-1.8,2.1-2.8,2.9c-0.1,0.4-0.2,0.8-0.3,1.2c-0.1,0.5-0.1,0.9-0.1,1.4
		c0,0.4,0.1,0.8,0.2,1.1c0.1,0.3,0.3,0.5,0.6,0.6c0.3,0.1,0.5,0.1,0.8,0c0.2-0.1,0.4-0.2,0.6-0.3c0.2-0.1,0.4-0.2,0.5-0.3
		c0.2-0.1,0.4-0.1,0.6,0c0.2,0.1,0.4,0.2,0.4,0.4C485.4,310,485.4,310.2,485.4,310.4L485.4,310.4z M488.1,292.3
		c0.1-0.2,0.2-0.5,0.3-0.9c0.1-0.3,0.2-0.7,0.2-1c0-0.3,0.1-0.7,0-0.9c0-0.3-0.1-0.4-0.3-0.5c-0.2-0.1-0.5,0.2-0.9,0.8
		c-0.4,0.6-0.8,1.5-1.2,2.6c-0.4,1.1-0.9,2.3-1.4,3.7c-0.5,1.4-1,2.8-1.4,4.2l-0.4,1.3c-0.1,0.5-0.2,0.9-0.3,1.2
		c1.4-1.7,2.5-3.4,3.3-5.1C486.8,296.1,487.5,294.2,488.1,292.3L488.1,292.3z M500.4,304.8c-0.1,0.1-0.3,0.3-0.5,0.5
		c-0.2,0.2-0.4,0.5-0.6,0.7c-0.2,0.2-0.5,0.5-0.8,0.8c-0.3,0.3-0.7,0.5-1.2,0.7c0.1-0.4,0.2-0.8,0.3-1.2c0.1-0.4,0.2-0.8,0.2-1.1
		c0.1-0.6,0.2-1.3,0.3-1.9c0.1-0.6,0-1.1-0.1-1.5c-0.2-0.5-0.4-0.9-0.6-1.4c-0.2-0.5-0.5-0.9-0.8-1.4c-0.3-0.4-0.6-0.8-0.9-1.1
		c-0.3-0.3-0.7-0.5-1.1-0.7c-0.3-0.1-0.7-0.1-1.1-0.1c-0.4,0-0.9,0.1-1.3,0.4c-0.4,0.3-0.9,0.7-1.5,1.2c-0.6,0.5-1.1,1.2-1.6,1.9
		c-0.5,0.7-1,1.5-1.5,2.4c-0.5,0.8-0.8,1.7-1.1,2.6c-0.2,0.5-0.3,1.1-0.4,1.6c-0.1,0.6-0.1,1.2-0.1,1.7c0,0.6,0.2,1.2,0.4,1.8
		c0.2,0.6,0.6,1.1,1.1,1.7c0.2,0.2,0.4,0.4,0.6,0.6c0.2,0.2,0.5,0.4,0.7,0.6c0.3,0.2,0.5,0.3,0.8,0.5c0.3,0.1,0.5,0.2,0.7,0.3
		c0.7,0.2,1.3,0.2,1.9,0c0.6-0.2,1.2-0.5,1.7-1c0.5-0.4,1-0.9,1.3-1.4c0.4-0.5,0.6-0.9,0.8-1.3c0.1-0.1,0.1-0.2,0.2-0.4
		c0.1-0.2,0.2-0.4,0.3-0.8c0.3-0.1,0.6-0.2,0.9-0.4c0.3-0.1,0.6-0.3,0.9-0.5c0.5-0.3,1-0.7,1.5-1.2c0.5-0.5,0.9-1.1,1.1-1.9
		c0-0.1,0-0.2,0-0.4c0-0.2-0.1-0.3-0.2-0.3C500.8,304.7,500.6,304.7,500.4,304.8L500.4,304.8z M495.3,306.7L495.3,306.7l-0.2,0.7
		c0,0.1-0.3,0.2-0.8,0.3c-0.5,0.1-1.1,0-1.8-0.2c-1-0.3-1.6-0.7-1.8-1.3c-0.2-0.6-0.2-1.4,0.1-2.3c0.2-0.6,0.4-1.1,0.8-1.6
		c0.3-0.5,0.7-1,1.1-1.4c0.4-0.4,0.8-0.7,1.3-0.8c0.4-0.2,0.8-0.2,1.2-0.1c0.4,0.1,0.6,0.4,0.8,0.7c0.2,0.4,0.2,0.8,0.3,1.2
		c0,0.5,0,1-0.1,1.5c-0.1,0.5-0.2,1-0.3,1.5c-0.1,0.5-0.2,0.9-0.3,1.2C495.4,306.4,495.3,306.6,495.3,306.7L495.3,306.7z
		 M494.1,309.6c-0.1,0.3-0.3,0.6-0.5,0.9c-0.2,0.3-0.5,0.6-0.8,0.9c-0.3,0.2-0.7,0.4-1.2,0.5c-0.4,0.1-0.9,0-1.5-0.1
		c-0.4-0.1-0.8-0.3-1-0.6c-0.2-0.3-0.4-0.5-0.5-0.8c-0.1-0.3-0.1-0.6-0.1-0.9c0-0.3,0.1-0.6,0.2-0.9l0.3-0.8c0.3,0.4,0.6,0.7,1,1
		c0.3,0.2,0.8,0.4,1.5,0.6c0.3,0.1,0.8,0.2,1.3,0.3C493.3,309.7,493.8,309.7,494.1,309.6L494.1,309.6z M512.6,315.9
		c-0.2,0.3-0.4,0.7-0.7,1.1c-0.3,0.4-0.7,0.8-1.2,1.1c-0.4,0.3-0.9,0.6-1.4,0.7c-0.5,0.2-1,0.2-1.5,0c-0.7-0.2-1.3-0.7-1.7-1.5
		c-0.4-0.7-0.5-1.6-0.2-2.7c-0.3,0.3-0.6,0.7-0.9,1.2c-0.4,0.4-0.8,0.8-1.2,1.2c-0.4,0.3-0.9,0.6-1.4,0.8c-0.5,0.2-1,0.2-1.5,0
		c-0.1,0-0.3-0.1-0.3-0.1c-0.1,0-0.1-0.1-0.2-0.2c-0.1-0.1-0.2-0.1-0.3-0.2c-0.1-0.1-0.2-0.1-0.4-0.2c-0.6-0.2-1-0.5-1.3-1
		c-0.3-0.5-0.5-1.1-0.5-1.8c-0.1-0.7,0-1.4,0.1-2.1c0.1-0.7,0.3-1.4,0.5-2c0.5-1.5,1-2.8,1.6-4.1c0.6-1.3,1.2-2.3,1.9-3.2
		c0.7-0.9,1.4-1.5,2.2-2c0.8-0.4,1.6-0.5,2.4-0.2c0.5,0.2,0.8,0.3,1.1,0.5c0.2,0.2,0.4,0.3,0.6,0.5c0.2,0.2,0.4,0.4,0.6,0.6
		c0.2,0.2,0.5,0.4,1,0.6c0.4,0.5,0.7,0.9,0.7,1.4c0.1,0.5,0.1,0.9,0,1.4c-0.1,0.5-0.2,1-0.4,1.5c-0.2,0.5-0.3,1-0.4,1.5
		c0,0,0,0.1,0.1,0.2c0.1,0.1,0.2,0.2,0.3,0.3c0.1,0.1,0.2,0.2,0.3,0.4c0.1,0.1,0.1,0.3,0,0.5l0,0.1c-0.4,0.6-0.8,1.1-1,1.5
		c-0.2,0.5-0.4,1.1-0.6,1.7c-0.1,0.3-0.2,0.7-0.3,1.1c-0.1,0.4-0.2,0.8-0.2,1.2c0,0.4,0,0.7,0.1,1c0.1,0.3,0.3,0.5,0.5,0.6
		c0.3,0.1,0.6,0,0.9-0.2c0.3-0.2,0.6-0.5,0.9-0.8c0.3-0.3,0.5-0.7,0.8-1c0.2-0.4,0.4-0.6,0.5-0.8c0.1-0.3,0.3-0.4,0.5-0.3
		c0.1,0,0.2,0.1,0.3,0.3c0.1,0.2,0,0.4-0.1,0.8l-0.1,0.3C512.7,315.6,512.7,315.7,512.6,315.9L512.6,315.9z M507.7,307.8
		c0.1-0.3,0.2-0.6,0.2-1c0.1-0.4,0.1-0.7,0.1-1.1c0-0.4-0.1-0.7-0.3-1c-0.2-0.3-0.5-0.5-0.9-0.6c-0.7-0.2-1.3-0.1-2,0.4
		c-0.6,0.5-1.2,1.1-1.7,1.9c-0.5,0.8-0.9,1.6-1.3,2.4c-0.4,0.9-0.6,1.6-0.8,2.1c-0.1,0.4-0.3,0.9-0.4,1.4c-0.1,0.6-0.2,1.1-0.3,1.6
		c-0.1,0.5-0.1,1,0,1.4c0.1,0.4,0.3,0.6,0.6,0.7c0.7,0.2,1.3,0.1,1.9-0.3c0.6-0.4,1.1-1,1.5-1.8c0.5-0.8,0.9-1.6,1.3-2.5
		c0.4-0.9,0.7-1.7,1.1-2.5c0.2-0.4,0.4-0.6,0.6-0.7c0.2-0.1,0.3-0.1,0.3-0.2L507.7,307.8L507.7,307.8z M527.1,318l0.2-0.6
		c0.1-0.3,0.2-0.5,0.2-0.8c0-0.3-0.1-0.5-0.3-0.6c-0.2-0.1-0.4-0.1-0.5,0.1c-0.1,0.1-0.2,0.3-0.3,0.5c-0.8,1.7-1.5,2.9-2.1,3.6
		c-0.6,0.7-1.3,0.9-2,0.7c-0.3-0.1-0.5-0.3-0.6-0.7c-0.1-0.3-0.1-0.8,0-1.3c0.1-0.5,0.2-1.1,0.4-1.7c0.2-0.6,0.4-1.3,0.6-2l1.2-3.7
		c0.5-1.7,1.1-3.3,1.6-4.7c0.5-1.5,1-2.7,1.5-3.9c0.4-1.1,0.8-2,1.1-2.7c0.3-0.7,0.5-1.1,0.5-1.2c0.1-0.3,0-0.6-0.3-0.8
		c-0.3-0.2-0.7-0.4-1.3-0.5c-0.3-0.1-0.7-0.2-1.1-0.3c-0.4-0.1-0.9-0.1-1.3-0.1c0.1,0.2,0.1,0.4,0.1,0.6c0,0.2,0,0.5,0,0.8
		c0,0.3-0.1,0.7-0.2,1.2c-0.1,0.5-0.3,1-0.5,1.6l-0.4,1.2c-0.2,0.5-0.4,1.1-0.6,1.7c-0.2,0.6-0.4,1.2-0.6,1.9
		c-0.2,0.6-0.4,1.2-0.6,1.6c-0.2-0.2-0.6-0.4-1-0.8c-0.5-0.4-1-0.7-1.6-0.8c-0.5-0.2-1.1-0.1-1.6,0.1c-0.6,0.3-1.1,0.6-1.6,1.1
		c-0.5,0.5-1,1-1.5,1.7c-0.5,0.6-0.9,1.2-1.2,1.8c-0.4,0.6-0.7,1.1-0.9,1.6c-0.2,0.5-0.4,0.8-0.4,0.9l-0.2,0.6
		c-0.1,0.3-0.2,0.6-0.3,1.1c-0.1,0.5-0.2,1-0.2,1.6c0,0.6,0.1,1.1,0.2,1.7c0.2,0.6,0.5,1.1,0.9,1.6c0.3,0.3,0.6,0.6,1,0.8
		c0.3,0.2,0.6,0.4,1,0.5c0.5,0.2,1,0.2,1.4,0c0.4-0.1,0.8-0.4,1.2-0.7c0.4-0.3,0.7-0.7,0.9-1.1c0.3-0.4,0.5-0.8,0.8-1.2l0.1-0.2
		c0,1.1,0.1,2,0.5,2.6c0.3,0.6,1,1.1,2.1,1.5c0.7,0.2,1.4,0.2,2,0c0.6-0.3,1.2-0.6,1.7-1.1c0.5-0.5,0.9-1.1,1.3-1.7
		C526.6,319.1,526.9,318.5,527.1,318L527.1,318z M521.1,310.2l-0.5,1.3c-0.2,0.4-0.4,0.9-0.6,1.5c-0.3,0.6-0.6,1.3-1,1.9
		c-0.4,0.7-0.8,1.4-1.2,2c-0.4,0.7-0.8,1.3-1.2,1.8c-0.4,0.5-0.8,0.9-1.2,1.2c-0.4,0.3-0.7,0.4-1.1,0.3c-0.3-0.1-0.5-0.3-0.6-0.6
		c-0.1-0.3-0.1-0.6-0.1-1c0-0.4,0.1-0.8,0.2-1.2c0.1-0.4,0.2-0.7,0.3-1c0.2-0.8,0.6-1.6,1-2.6c0.4-1,0.9-1.8,1.5-2.6
		c0.5-0.8,1.1-1.4,1.7-1.9c0.6-0.5,1.1-0.6,1.6-0.5c0.1,0,0.3,0.1,0.4,0.3c0.1,0.1,0.3,0.3,0.4,0.4c0.1,0.1,0.2,0.3,0.3,0.4
		C521.1,310.1,521.1,310.2,521.1,310.2L521.1,310.2z M531.6,325.1c-0.1,0.3-0.3,0.5-0.6,0.7c-0.3,0.2-0.6,0.3-1,0.3
		c-0.4,0.1-0.7,0.1-1.1,0.1c-0.4,0-0.6-0.1-0.9-0.1c-0.4-0.1-0.9-0.3-1.3-0.6c-0.5-0.2-0.8-0.6-1.1-0.9c-0.3-0.4-0.5-1-0.5-1.8
		c0-0.8,0-1.7,0.2-2.7c0.2-1,0.4-2.1,0.8-3.3c0.3-1.2,0.7-2.4,1.1-3.7c0.2-0.5,0.4-1.1,0.6-1.8c0.2-0.6,0.5-1.3,0.8-2
		c0.3-0.7,0.6-1.4,0.9-2.1c0.3-0.7,0.6-1.4,0.9-2c0.2-0.4,0.5-0.9,0.7-1.4c0.3-0.5,0.5-1,0.8-1.4c0.3-0.5,0.5-0.9,0.8-1.2
		c0.3-0.3,0.5-0.6,0.7-0.7c0.3-0.1,0.6-0.2,0.9-0.1c0.3,0,0.7,0.1,0.9,0.2c0.6,0.2,1,0.5,1.2,0.9c0.2,0.4,0.4,0.9,0.4,1.4
		c0,0.6,0,1.2-0.2,1.8c-0.1,0.7-0.3,1.4-0.6,2.1c-0.4,1.1-0.8,2.3-1.3,3.6c-0.5,1.3-1.1,2.5-1.7,3.8c-0.7,1.2-1.4,2.4-2.2,3.5
		c-0.8,1.1-1.8,2.1-2.8,2.9c-0.1,0.4-0.2,0.8-0.3,1.2c-0.1,0.5-0.1,0.9-0.1,1.4c0,0.4,0.1,0.8,0.2,1.1c0.1,0.3,0.3,0.5,0.6,0.6
		c0.3,0.1,0.5,0.1,0.8,0c0.2-0.1,0.4-0.2,0.6-0.3c0.2-0.1,0.4-0.2,0.5-0.3c0.2-0.1,0.4-0.1,0.6,0c0.2,0.1,0.4,0.2,0.4,0.4
		C531.7,324.8,531.7,325,531.6,325.1L531.6,325.1z M534.4,307.1c0.1-0.2,0.2-0.5,0.3-0.9c0.1-0.3,0.2-0.7,0.2-1c0-0.3,0.1-0.7,0-0.9
		c0-0.3-0.1-0.4-0.3-0.5c-0.2-0.1-0.5,0.2-0.9,0.8c-0.4,0.6-0.8,1.5-1.2,2.6c-0.4,1.1-0.9,2.3-1.4,3.7c-0.5,1.4-1,2.8-1.4,4.2
		l-0.4,1.3c-0.1,0.5-0.2,0.9-0.3,1.2c1.4-1.7,2.5-3.4,3.3-5.1C533.1,310.8,533.8,309,534.4,307.1L534.4,307.1z M542.4,329.5
		c0.1-0.3,0-0.6-0.2-0.7c-0.2-0.2-0.5-0.3-0.7-0.4l3.5-10.8c0.2,0,0.3-0.1,0.3-0.2c0.1-0.2,0-0.4-0.1-0.5c-0.2-0.2-0.4-0.3-0.6-0.5
		c-0.3-0.2-0.5-0.3-0.8-0.4c-0.3-0.1-0.6-0.2-0.8-0.3c-0.6,1.3-1.3,2.6-2,3.9c-0.7,1.3-1.3,2.4-2,3.4c-0.6,1-1.2,1.7-1.8,2.3
		c-0.6,0.5-1.1,0.7-1.5,0.6c-0.4-0.1-0.6-0.6-0.4-1.4c0.1-0.8,0.5-2.2,1-4c0.4-1.2,0.7-2.2,1.1-3.1c0.3-0.8,0.6-1.5,0.9-2
		c0.3-0.5,0.5-0.9,0.7-1.1c0.2-0.2,0.4-0.4,0.6-0.4c0.1,0,0.1-0.1,0.2-0.1c0.1,0,0.1-0.1,0.1-0.1c0.1-0.3,0-0.5-0.2-0.8
		c-0.2-0.3-0.4-0.5-0.7-0.7c-0.3-0.2-0.6-0.4-0.8-0.5c-0.3-0.1-0.5-0.2-0.6-0.3c-0.3-0.1-0.7,0.1-1,0.6c-0.4,0.5-0.8,1.2-1.1,2
		c-0.4,0.8-0.7,1.8-1.1,2.8c-0.4,1-0.7,2-1,3c-0.1,0.2-0.2,0.6-0.3,1.2c-0.1,0.5-0.3,1.1-0.4,1.7c-0.1,0.6-0.2,1.2-0.1,1.8
		c0,0.6,0.1,1,0.3,1.4c0.3,0.4,0.6,0.9,1,1.3c0.4,0.4,0.8,0.7,1.2,0.9c0.5,0.1,0.9,0.1,1.4-0.2c0.5-0.3,0.9-0.6,1.3-1.1
		c0.4-0.5,0.8-1,1.2-1.5c0.4-0.6,0.7-1,1-1.5l-1.5,4.7c-1,0.3-2,0.8-3,1.4c-1,0.6-1.9,1.3-2.7,2.1c-0.8,0.8-1.5,1.7-2.2,2.7
		c-0.6,1-1.1,1.9-1.4,2.9c-0.3,1-0.3,1.7,0,2.3c0.3,0.6,1,1.1,2,1.7c0.2,0.1,0.3,0.2,0.4,0.3c0.1,0.1,0.2,0.1,0.2,0.2
		c0.1,0,0.1,0.1,0.2,0.1c0.1,0,0.1,0.1,0.3,0.1c0.3,0.1,0.6,0,0.9-0.2c0.3-0.2,0.7-0.4,1.1-0.5c0.1,0,0.2,0,0.4-0.1
		c0.2,0,0.4-0.1,0.6-0.2c0.2-0.1,0.4-0.1,0.5-0.2c0.2,0,0.3-0.1,0.3-0.1c0.5-0.2,0.9-0.5,1.3-0.9c0.4-0.4,0.7-0.8,0.9-1.4
		c0.3-0.5,0.5-1,0.7-1.6c0.2-0.5,0.4-1.1,0.5-1.5l1.9-5.8c0.1-0.1,0.2-0.1,0.3,0c0.1,0,0.3,0.1,0.4,0.1c0.1,0,0.3,0,0.4,0
		C542.2,329.8,542.3,329.7,542.4,329.5L542.4,329.5z M537.8,330l-1.3,4.1l0,0.1c-0.1,0.4-0.3,0.9-0.6,1.7c-0.3,0.8-0.6,1.5-1,2.2
		c-0.4,0.7-0.8,1.3-1.3,1.8c-0.5,0.5-1,0.6-1.5,0.5c-0.4-0.1-0.6-0.3-0.7-0.6c-0.1-0.3-0.2-0.5-0.2-0.8c0-0.3,0-0.6,0.1-0.9
		c0.1-0.3,0.1-0.5,0.2-0.6c0.2-0.6,0.5-1.3,0.9-2c0.4-0.8,0.9-1.5,1.5-2.2c0.6-0.7,1.2-1.4,1.9-1.9C536.3,330.7,537,330.3,537.8,330
		z"/>
</g>
</svg>
