<?xml version="1.0" encoding="utf-8"?>
<!-- Generator: Adobe Illustrator 23.0.4, SVG Export Plug-In . SVG Version: 6.00 Build 0)  -->
<svg version="1.1" id="Layer_1" xmlns="http://www.w3.org/2000/svg" xmlns:xlink="http://www.w3.org/1999/xlink" x="0px" y="0px"
	 viewBox="0 0 503.8 459.7" style="enable-background:new 0 0 503.8 459.7;" xml:space="preserve">
<style type="text/css">
	.st0{fill:none;stroke:#1FBAD6;stroke-width:2;stroke-miterlimit:10;}
	.st1{fill:#666666;}
	.st2{fill:#FFE161;}
	.st3{fill:#FF6346;}
	.st4{fill:none;stroke:#FFE161;stroke-width:2;stroke-miterlimit:10;}
	.st5{fill:none;stroke:#FFE161;stroke-width:2;stroke-miterlimit:10;stroke-dasharray:5.97,5.97;}
	.st6{fill:none;stroke:#FF6346;stroke-width:2;stroke-miterlimit:10;stroke-dasharray:5.9845,5.9845;}
</style>
<title>art-1</title>
<path class="st0" d="M160.6,416h-15.3c0,0-6.6-23.8-19.9-31.8s-22.9-9.6-29.5-9.6h-2.2c-6.6,0-16.2,1.7-29.5,9.6S44.3,416,44.3,416
	H14c0,0,35.6-45.4,38.2-49.7s2-17.9,2-17.9h6.6c0,0,12.3-31.2,13.9-38.8c-1-9-2.3-10-0.7-11.6s5-1.7,5-1.7s8-40.8,9.3-75.3
	s1.3-44.5,1.3-44.5s-2.7-12.6-2-16.6s1.3-8,6.3-8.9c0.3-3,1-20.2,1-20.2s0.2,17.2,0.6,20.2c5,1,5.6,5,6.3,8.9s-2,16.6-2,16.6
	s0,10,1.3,44.5s9.3,75.3,9.3,75.3s3.3,0,5,1.7s0.3,2.6-0.7,11.6c1.7,7.6,13.9,38.8,13.9,38.8l6.4,0.2c0,0-0.4,13.4,2.2,17.7
	s38.2,49.7,38.2,49.7"/>
<polygon class="st0" points="94.9,323.5 100.9,323.5 105.2,348.4 94.9,348.4 94.7,348.4 84.4,348.4 88.7,323.5 94.7,323.5 "/>
<path class="st1" d="M78,177.2c0,1-0.8,1.8-1.8,1.8s-1.8-0.8-1.8-1.8c0-1,0.8-1.8,1.8-1.8c0,0,0,0,0,0C77.2,175.4,78,176.2,78,177.2
	L78,177.2z"/>
<path class="st1" d="M116.8,177.2c0,1-0.8,1.8-1.8,1.8c-1,0-1.8-0.8-1.8-1.8c0-1,0.8-1.8,1.8-1.8c0,0,0,0,0,0
	C115.9,175.4,116.8,176.2,116.8,177.2z"/>
<path class="st1" d="M310.4,177.2c0,1-0.8,1.8-1.8,1.8c-1,0-1.8-0.8-1.8-1.8c0-1,0.8-1.8,1.8-1.8c0,0,0,0,0,0
	C309.6,175.4,310.4,176.2,310.4,177.2z"/>
<path class="st1" d="M397.3,177.2c0,1-0.8,1.8-1.8,1.8c-1,0-1.8-0.8-1.8-1.8c0-1,0.8-1.8,1.8-1.8c0,0,0,0,0,0
	C396.5,175.4,397.3,176.2,397.3,177.2z"/>
<path class="st1" d="M397.3,215.3c0,1-0.8,1.8-1.8,1.8c-1,0-1.8-0.8-1.8-1.8c0-1,0.8-1.8,1.8-1.8c0,0,0,0,0,0
	C396.5,213.5,397.3,214.3,397.3,215.3z"/>
<path class="st1" d="M78,100.3c0,1-0.8,1.8-1.8,1.8c-1,0-1.8-0.8-1.8-1.8c0-1,0.8-1.8,1.8-1.8c0,0,0,0,0,0
	C77.2,98.5,78,99.3,78,100.3C78,100.3,78,100.3,78,100.3z"/>
<path class="st1" d="M116.8,100.3c0,1-0.8,1.8-1.8,1.8c-1,0-1.8-0.8-1.8-1.8c0-1,0.8-1.8,1.8-1.8c0,0,0,0,0,0
	C116,98.6,116.8,99.4,116.8,100.3z"/>
<path class="st1" d="M155.5,100.3c0,1-0.8,1.8-1.8,1.8c-1,0-1.8-0.8-1.8-1.8c0-1,0.8-1.8,1.8-1.8l0,0
	C154.7,98.5,155.5,99.4,155.5,100.3z"/>
<path class="st1" d="M194.2,100.3c0,1-0.8,1.8-1.8,1.8s-1.8-0.8-1.8-1.8c0-1,0.8-1.8,1.8-1.8c0,0,0,0,0,0
	C193.4,98.5,194.2,99.4,194.2,100.3z"/>
<path class="st1" d="M271.6,100.3c0,1-0.8,1.8-1.8,1.8c-1,0-1.8-0.8-1.8-1.8c0-1,0.8-1.8,1.8-1.8l0,0
	C270.8,98.5,271.6,99.4,271.6,100.3z"/>
<path class="st1" d="M310.4,100.3c0,1-0.8,1.8-1.8,1.8s-1.8-0.8-1.8-1.8c0-1,0.8-1.8,1.8-1.8c0,0,0,0,0,0
	C309.6,98.5,310.4,99.4,310.4,100.3z"/>
<path class="st1" d="M39.3,177.2c0,1-0.8,1.8-1.8,1.8s-1.8-0.8-1.8-1.8c0-1,0.8-1.8,1.8-1.8c0,0,0,0,0,0
	C38.5,175.4,39.3,176.2,39.3,177.2z"/>
<path class="st1" d="M39.3,214.9c0,1-0.8,1.8-1.8,1.8s-1.8-0.8-1.8-1.8c0-1,0.8-1.8,1.8-1.8c0,0,0,0,0,0
	C38.5,213.1,39.3,213.9,39.3,214.9z"/>
<path class="st1" d="M78,214.9c0,1-0.8,1.8-1.8,1.8s-1.8-0.8-1.8-1.8c0-1,0.8-1.8,1.8-1.8c0,0,0,0,0,0C77.2,213.1,78,213.9,78,214.9
	z"/>
<path class="st1" d="M78,138c0,1-0.8,1.8-1.8,1.8s-1.8-0.8-1.8-1.8c0-1,0.8-1.8,1.8-1.8c0,0,0,0,0,0C77.2,136.2,78,137,78,138
	L78,138z"/>
<path class="st1" d="M39.3,255c0,1-0.8,1.8-1.8,1.8c-1,0-1.8-0.8-1.8-1.8c0-1,0.8-1.8,1.8-1.8c0,0,0,0,0,0
	C38.5,253.2,39.3,254,39.3,255z"/>
<path class="st1" d="M39.3,294.2c0,1-0.8,1.8-1.8,1.8c-1,0-1.8-0.8-1.8-1.8c0-1,0.8-1.8,1.8-1.8c0,0,0,0,0,0
	C38.5,292.4,39.3,293.2,39.3,294.2z"/>
<path class="st1" d="M39.3,335.1c0,1-0.8,1.8-1.8,1.8c-1,0-1.8-0.8-1.8-1.8c0-1,0.8-1.8,1.8-1.8c0,0,0,0,0,0
	C38.5,333.3,39.3,334.1,39.3,335.1z"/>
<path class="st1" d="M78,255c0,1-0.8,1.8-1.8,1.8c-1,0-1.8-0.8-1.8-1.8c0-1,0.8-1.8,1.8-1.8c0,0,0,0,0,0C77.2,253.2,78,254,78,255
	L78,255z"/>
<path class="st1" d="M194.2,138c0,1-0.8,1.8-1.8,1.8s-1.8-0.8-1.8-1.8s0.8-1.8,1.8-1.8c0,0,0,0,0,0C193.4,136.2,194.2,137,194.2,138
	z"/>
<path class="st1" d="M155.5,138c0,1-0.8,1.8-1.8,1.8c-1,0-1.8-0.8-1.8-1.8s0.8-1.8,1.8-1.8c0,0,0,0,0,0
	C154.7,136.2,155.5,137,155.5,138z"/>
<path class="st1" d="M232.9,138c0,1-0.8,1.8-1.8,1.8c-1,0-1.8-0.8-1.8-1.8s0.8-1.8,1.8-1.8c0,0,0,0,0,0
	C232.1,136.2,232.9,137,232.9,138z"/>
<path class="st1" d="M271.6,138c0,1-0.8,1.8-1.8,1.8c-1,0-1.8-0.8-1.8-1.8s0.8-1.8,1.8-1.8c0,0,0,0,0,0
	C270.8,136.2,271.6,137,271.6,138z"/>
<path class="st1" d="M232.9,177.2c0,1-0.8,1.8-1.8,1.8c-1,0-1.8-0.8-1.8-1.8s0.8-1.8,1.8-1.8c0,0,0,0,0,0
	C232.1,175.4,232.9,176.2,232.9,177.2z"/>
<path class="st1" d="M271.6,177.2c0,1-0.8,1.8-1.8,1.8c-1,0-1.8-0.8-1.8-1.8s0.8-1.8,1.8-1.8c0,0,0,0,0,0
	C270.8,175.4,271.6,176.2,271.6,177.2z"/>
<path class="st1" d="M310.4,215.3c0,1-0.8,1.8-1.8,1.8c-1,0-1.8-0.8-1.8-1.8c0-1,0.8-1.8,1.8-1.8c0,0,0,0,0,0
	C309.6,213.5,310.4,214.3,310.4,215.3z"/>
<path class="st1" d="M310.4,254c0,1-0.8,1.8-1.8,1.8c-1,0-1.8-0.8-1.8-1.8c0-1,0.8-1.8,1.8-1.8c0,0,0,0,0,0
	C309.6,252.2,310.4,253,310.4,254z"/>
<path class="st1" d="M356.3,215.3c0,1-0.8,1.8-1.8,1.8c-1,0-1.8-0.8-1.8-1.8c0-1,0.8-1.8,1.8-1.8c0,0,0,0,0,0
	C355.5,213.5,356.3,214.3,356.3,215.3z"/>
<path class="st1" d="M356.3,100.3c0,1-0.8,1.8-1.8,1.8s-1.8-0.8-1.8-1.8c0-1,0.8-1.8,1.8-1.8c0,0,0,0,0,0
	C355.5,98.5,356.3,99.4,356.3,100.3z"/>
<path class="st1" d="M397.3,100.3c0,1-0.8,1.8-1.8,1.8s-1.8-0.8-1.8-1.8c0-1,0.8-1.8,1.8-1.8c0,0,0,0,0,0
	C396.5,98.5,397.3,99.4,397.3,100.3z"/>
<path class="st1" d="M436,215.3c0,1-0.8,1.8-1.8,1.8c-1,0-1.8-0.8-1.8-1.8c0-1,0.8-1.8,1.8-1.8l0,0C435.2,213.5,436,214.3,436,215.3
	z"/>
<path class="st1" d="M474.7,215.3c0,1-0.8,1.8-1.8,1.8c-1,0-1.8-0.8-1.8-1.8s0.8-1.8,1.8-1.8c0,0,0,0,0,0
	C473.9,213.5,474.7,214.3,474.7,215.3z"/>
<path class="st1" d="M397.3,138c0,1-0.8,1.8-1.8,1.8c-1,0-1.8-0.8-1.8-1.8c0-1,0.8-1.8,1.8-1.8c0,0,0,0,0,0
	C396.5,136.2,397.3,137,397.3,138z"/>
<path class="st1" d="M436,254c0,1-0.8,1.8-1.8,1.8c-1,0-1.8-0.8-1.8-1.8c0-1,0.8-1.8,1.8-1.8C435.2,252.2,436,253,436,254
	C436,254,436,254,436,254z"/>
<path class="st1" d="M474.7,254c0,1-0.8,1.8-1.8,1.8s-1.8-0.8-1.8-1.8s0.8-1.8,1.8-1.8l0,0C473.9,252.2,474.7,253,474.7,254z"/>
<path class="st1" d="M155.5,23.5c0,1-0.8,1.8-1.8,1.8s-1.8-0.8-1.8-1.8c0-1,0.8-1.8,1.8-1.8c0,0,0,0,0,0
	C154.7,21.7,155.5,22.5,155.5,23.5C155.5,23.5,155.5,23.5,155.5,23.5z"/>
<path class="st1" d="M194.2,23.5c0,1-0.8,1.8-1.8,1.8c-1,0-1.8-0.8-1.8-1.8s0.8-1.8,1.8-1.8c0,0,0,0,0,0
	C193.4,21.7,194.2,22.5,194.2,23.5L194.2,23.5z"/>
<path class="st1" d="M271.6,23.5c0,1-0.8,1.8-1.8,1.8c-1,0-1.8-0.8-1.8-1.8c0-1,0.8-1.8,1.8-1.8c0,0,0,0,0,0
	C270.8,21.7,271.6,22.5,271.6,23.5C271.6,23.5,271.6,23.5,271.6,23.5z"/>
<path class="st1" d="M78,61.1c0,1-0.8,1.8-1.8,1.8c-1,0-1.8-0.8-1.8-1.8c0-1,0.8-1.8,1.8-1.8c0,0,0,0,0,0C77.2,59.3,78,60.1,78,61.1
	C78,61.1,78,61.1,78,61.1z"/>
<path class="st1" d="M155.5,61.1c0,1-0.8,1.8-1.8,1.8s-1.8-0.8-1.8-1.8c0-1,0.8-1.8,1.8-1.8c0,0,0,0,0,0
	C154.7,59.3,155.5,60.1,155.5,61.1z"/>
<path class="st1" d="M194.2,61.1c0,1-0.8,1.8-1.8,1.8s-1.8-0.8-1.8-1.8c0-1,0.8-1.8,1.8-1.8c0,0,0,0,0,0
	C193.4,59.3,194.2,60.1,194.2,61.1z"/>
<path class="st1" d="M232.9,61.1c0,1-0.8,1.8-1.8,1.8s-1.8-0.8-1.8-1.8c0-1,0.8-1.8,1.8-1.8c0,0,0,0,0,0
	C232.1,59.3,232.9,60.1,232.9,61.1z"/>
<path class="st1" d="M271.6,61.1c0,1-0.8,1.8-1.8,1.8c-1,0-1.8-0.8-1.8-1.8c0-1,0.8-1.8,1.8-1.8c0,0,0,0,0,0
	C270.8,59.3,271.6,60.1,271.6,61.1z"/>
<path class="st1" d="M310.4,61.1c0,1-0.8,1.8-1.8,1.8c-1,0-1.8-0.8-1.8-1.8c0-1,0.8-1.8,1.8-1.8c0,0,0,0,0,0
	C309.6,59.3,310.4,60.1,310.4,61.1z"/>
<path class="st1" d="M356.3,61.1c0,1-0.8,1.8-1.8,1.8c-1,0-1.8-0.8-1.8-1.8c0-1,0.8-1.8,1.8-1.8c0,0,0,0,0,0
	C355.5,59.3,356.3,60.1,356.3,61.1z"/>
<path class="st1" d="M436,177.2c0,1-0.8,1.8-1.8,1.8c-1,0-1.8-0.8-1.8-1.8c0-1,0.8-1.8,1.8-1.8l0,0C435.2,175.4,436,176.2,436,177.2
	z"/>
<path class="st0" d="M278,275.7c2.3-0.4,4.6-0.5,6.9-0.5c2,0,4,0.1,6,0.5"/>
<path class="st0" d="M124.6,338.8c0,0,23-0.6,43.7,9.7c13.9-4.7,28-8.9,39.5-9.1c-2.9-12.4-9.1-33.9-9.1-33.9s36.6-10.9,73.1,10"/>
<line class="st0" x1="207.8" y1="339.4" x2="218.3" y2="371.2"/>
<path class="st0" d="M269.4,370.5L249,318.8c0,0,27.7-8.3,55.1,2.4s52.7,32.7,73.4,54.3"/>
<path class="st0" d="M286.8,316.1c0,0,25.7-55.2,90.8-66.7c-0.3,6.8-1,13.6-2.1,20.4"/>
<path class="st0" d="M381.8,375.8c0,0,0.4-7.9,8.6-52.9c6.4-35.7,12.8-49.4,23.3-69.3C354.9,264.8,324,330,324,330"/>
<path class="st0" d="M393.9,304.9c0,0,28.6-15,52.2-18.6c-7.4,16.8-13,34.1-19.2,78"/>
<path class="st0" d="M435.4,316.1c0,0,35.1-10,57.5-6.5c-11.8,16.5-27.1,41.6-29.2,46.6"/>
<path class="st0" d="M146.7,378.1c0,0,4-0.5,10.6-1.2c16.7-1.9,50.1-5.4,79.1-7c25.7-1.5,57.2,3.5,76.7,2.7s68.7,3.2,68.7,3.2
	s18.6-8.9,23.3-10s19.8-0.6,19.8-0.6s16.8-5.6,28.9-8.5s31.9,4.7,40.7,8c-29.2,15.6-60.2,31.6-60.2,31.6H180"/>
<path class="st0" d="M280,302.4c2.3-0.4,4.6-0.5,6.9-0.5c2,0,4,0.1,6,0.5"/>
<path class="st0" d="M103.5,250.4l11.5-2.6v-13.6c0.2-0.8,0.9-1.3,1.7-1.3c0.8,0,1.4,0.6,1.4,1.4c0,0,0,0,0,0.1v12.8H147v-24.6
	l-1.1-2.2v-15.9c0-5.1,8.1-22.6,21.9-27.9c1.2-3.3,4.8-4.6,6.1-5c2.5-1.9,4.9-3.9,7.2-6.1c0,0-0.1-2.9,2.3-3.1
	c-0.2-0.8-0.9-1.4-0.9-2.2c0.1-0.7,0.4-1.4,0.9-1.9c-0.8-0.5-1.2-1.4-1.2-2.3c0.1-1.1,0.6-2,1.4-2.6l1.6-11.3l1.7,11.3
	c0.8,0.6,1.4,1.6,1.4,2.6c0,0.9-0.5,1.8-1.2,2.3c0.5,0.5,0.8,1.2,0.9,1.9c0,0.8-0.7,1.4-0.9,2.2c2.4,0.2,2.3,3.1,2.3,3.1
	c2.3,2.2,4.7,4.2,7.2,6.1c1.3,0.3,4.9,1.7,6.1,5c13.8,5.3,21.9,22.8,21.9,27.9v15.9l-1.1,2.2v24.5h28.9v-12.8c0-0.8,0.6-1.4,1.4-1.4
	c0,0,0,0,0.1,0c0.8,0,1.5,0.5,1.7,1.3v13.6l16.3,3.5v-13c0-1.2,0.6-1.7,1.6-1.7c0.9,0,1.6,0.7,1.6,1.6c0,0,0,0,0,0.1v77.2"/>
<line class="st0" x1="116.7" y1="232.8" x2="116.7" y2="225.5"/>
<line class="st0" x1="253.8" y1="232.8" x2="253.8" y2="225.5"/>
<line class="st0" x1="273.3" y1="236.5" x2="273.3" y2="229.1"/>
<line class="st0" x1="286.5" y1="238.9" x2="286.5" y2="231.6"/>
<line class="st0" x1="183.4" y1="162.4" x2="187.1" y2="162.4"/>
<line class="st0" x1="183.4" y1="158.3" x2="187.1" y2="158.3"/>
<path class="st0" d="M181.1,165.5c1.4-0.1,2.7-0.2,4.1-0.2c1.4,0,2.8,0.1,4.2,0.2"/>
<path class="st0" d="M145.9,220.3c0,0,14.6-8.3,40.6-8.1s37.9,7.3,37.9,7.3"/>
<path class="st0" d="M147.1,223c0,0,13.4-7.6,39.4-7.4s36.9,6.6,36.9,6.6"/>
<path class="st0" d="M291.4,308l-0.6-53.5c0,0,2-1.8-0.2-2.6c-0.2-2.1,0.9-12.9-4.3-13.1h0.4c-5.2,0.1-4.1,10.9-4.3,13.1
	c-2.2,0.9-0.2,2.6-0.2,2.6l-0.7,61.3"/>
<path class="st0" d="M280.7,245.3c1.9-0.3,3.9-0.5,5.9-0.6c1.9,0,3.7,0.2,5.5,0.6"/>
<path class="st0" d="M205.2,303.9V276c0-4.9-3.5-11.3-9.5-13.9c-3.9-1.8-7.5-4-10.8-6.6c-3.2,2.7-6.7,4.9-10.5,6.6
	c-6,2.7-9.5,9.1-9.5,13.9v40.3h36.7"/>
<circle class="st2" cx="95" cy="159.9" r="3.9"/>
<circle class="st3" cx="184.4" cy="270.5" r="4"/>
<circle class="st3" cx="34.2" cy="406.3" r="4"/>
<circle class="st2" cx="386.1" cy="276.6" r="4"/>
<path class="st4" d="M94.8,159.7c0,0,0.8-0.7,2.3-1.9"/>
<path class="st5" d="M101.7,154c24.3-18.5,108.3-74.1,197-30.2c84.8,41.9,88.6,123.6,87.9,146.3"/>
<path class="st4" d="M386.5,273c-0.1,1.9-0.2,3-0.2,3"/>
<path class="st6" d="M43.6,407.1c11.1,0.4,33.2,0.9,71.2,0.9c72.1,0,71.2-105.1,69.8-131.6"/>
</svg>
