<?xml version="1.0" encoding="utf-8"?>
<!-- Generator: Adobe Illustrator 23.0.4, SVG Export Plug-In . SVG Version: 6.00 Build 0)  -->
<svg version="1.1" id="Layer_1" xmlns="http://www.w3.org/2000/svg" xmlns:xlink="http://www.w3.org/1999/xlink" x="0px" y="0px"
	 viewBox="0 0 1525.8 439.4" style="enable-background:new 0 0 1525.8 439.4;" xml:space="preserve">
<style type="text/css">
	.st0{fill:#666666;}
	.st1{fill:none;}
	.st2{fill:none;stroke:#1FBAD6;stroke-width:2;stroke-miterlimit:10;}
	.st3{fill:#FFE161;}
	.st4{fill:#FF6346;}
	.st5{fill:none;stroke:#FFE161;stroke-width:2;stroke-miterlimit:10;}
	.st6{fill:none;stroke:#FFE161;stroke-width:2;stroke-miterlimit:10;stroke-dasharray:5.96,5.96;}
	.st7{fill:none;stroke:#FF6346;stroke-width:2;stroke-miterlimit:10;}
	.st8{fill:none;stroke:#FF6346;stroke-width:2;stroke-miterlimit:10;stroke-dasharray:5.98,5.98;}
	.st9{fill:none;stroke:#FFE161;stroke-width:2;stroke-miterlimit:10;stroke-dasharray:5.91,5.91;}
</style>
<title>art-1</title>
<path class="st0" d="M102.8,175.4c0,1-0.8,1.8-1.8,1.8c-1,0-1.8-0.8-1.8-1.8s0.8-1.8,1.8-1.8C102,173.6,102.8,174.4,102.8,175.4
	C102.8,175.4,102.8,175.4,102.8,175.4z"/>
<path class="st0" d="M141.5,175.4c0,1-0.8,1.8-1.8,1.8c-1,0-1.8-0.8-1.8-1.8c0-1,0.8-1.8,1.8-1.8
	C140.7,173.6,141.5,174.4,141.5,175.4C141.5,175.4,141.5,175.4,141.5,175.4z"/>
<path class="st0" d="M180.3,175.4c0,1-0.8,1.8-1.8,1.8c-1,0-1.8-0.8-1.8-1.8c0-1,0.8-1.8,1.8-1.8
	C179.5,173.6,180.3,174.4,180.3,175.4C180.3,175.4,180.3,175.4,180.3,175.4z"/>
<path class="st0" d="M219,175.4c0,1-0.8,1.8-1.8,1.8c-1,0-1.8-0.8-1.8-1.8c0-1,0.8-1.8,1.8-1.8C218.2,173.6,219,174.4,219,175.4
	C219,175.4,219,175.4,219,175.4z"/>
<path class="st0" d="M257.7,175.4c0,1-0.8,1.8-1.8,1.8c-1,0-1.8-0.8-1.8-1.8c0-1,0.8-1.8,1.8-1.8
	C256.9,173.6,257.7,174.4,257.7,175.4C257.7,175.4,257.7,175.4,257.7,175.4z"/>
<path class="st0" d="M296.4,175.4c0,1-0.8,1.8-1.8,1.8c-1,0-1.8-0.8-1.8-1.8c0-1,0.8-1.8,1.8-1.8l0,0
	C295.6,173.6,296.4,174.4,296.4,175.4C296.4,175.4,296.4,175.4,296.4,175.4z"/>
<path class="st0" d="M335.1,175.4c0,1-0.8,1.8-1.8,1.8c-1,0-1.8-0.8-1.8-1.8c0-1,0.8-1.8,1.8-1.8l0,0
	C334.3,173.6,335.1,174.4,335.1,175.4C335.1,175.4,335.1,175.4,335.1,175.4z"/>
<path class="st0" d="M373.9,175.4c0,1-0.8,1.8-1.8,1.8c-1,0-1.8-0.8-1.8-1.8c0-1,0.8-1.8,1.8-1.8l0,0
	C373.1,173.6,373.9,174.4,373.9,175.4C373.9,175.4,373.9,175.4,373.9,175.4z"/>
<path class="st0" d="M412.6,175.4c0,1-0.8,1.8-1.8,1.8c-1,0-1.8-0.8-1.8-1.8c0-1,0.8-1.8,1.8-1.8l0,0
	C411.8,173.6,412.6,174.4,412.6,175.4C412.6,175.4,412.6,175.4,412.6,175.4z"/>
<path class="st0" d="M451.3,175.4c0,1-0.8,1.8-1.8,1.8c-1,0-1.8-0.8-1.8-1.8c0-1,0.8-1.8,1.8-1.8l0,0
	C450.5,173.6,451.3,174.4,451.3,175.4C451.3,175.4,451.3,175.4,451.3,175.4z"/>
<path class="st0" d="M490,175.4c0,1-0.8,1.8-1.8,1.8c-1,0-1.8-0.8-1.8-1.8c0-1,0.8-1.8,1.8-1.8l0,0C489.2,173.6,490,174.4,490,175.4
	C490,175.4,490,175.4,490,175.4z"/>
<path class="st0" d="M683.7,175.4c0,1-0.8,1.8-1.8,1.8c-1,0-1.8-0.8-1.8-1.8c0-1,0.8-1.8,1.8-1.8l0,0
	C682.9,173.6,683.6,174.4,683.7,175.4z"/>
<path class="st0" d="M722.4,175.4c0,1-0.8,1.8-1.8,1.8c-1,0-1.8-0.8-1.8-1.8c0-1,0.8-1.8,1.8-1.8l0,0
	C721.6,173.6,722.4,174.4,722.4,175.4C722.4,175.4,722.4,175.4,722.4,175.4z"/>
<path class="st0" d="M102.8,213.1c0,1-0.8,1.8-1.8,1.8c-1,0-1.8-0.8-1.8-1.8s0.8-1.8,1.8-1.8C102,211.3,102.8,212.1,102.8,213.1
	C102.8,213.1,102.8,213.1,102.8,213.1z"/>
<path class="st0" d="M180.3,213.1c0,1-0.8,1.8-1.8,1.8c-1,0-1.8-0.8-1.8-1.8c0-1,0.8-1.8,1.8-1.8
	C179.5,211.3,180.3,212.1,180.3,213.1C180.3,213.1,180.3,213.1,180.3,213.1z"/>
<path class="st0" d="M219,213.1c0,1-0.8,1.8-1.8,1.8c-1,0-1.8-0.8-1.8-1.8c0-1,0.8-1.8,1.8-1.8C218.2,211.3,219,212.1,219,213.1
	C219,213.1,219,213.1,219,213.1z"/>
<path class="st0" d="M296.4,213.1c0,1-0.8,1.8-1.8,1.8c-1,0-1.8-0.8-1.8-1.8c0-1,0.8-1.8,1.8-1.8l0,0
	C295.6,211.3,296.4,212.1,296.4,213.1C296.4,213.1,296.4,213.1,296.4,213.1z"/>
<path class="st0" d="M335.1,213.1c0,1-0.8,1.8-1.8,1.8c-1,0-1.8-0.8-1.8-1.8c0-1,0.8-1.8,1.8-1.8l0,0
	C334.3,211.3,335.1,212.1,335.1,213.1C335.1,213.1,335.1,213.1,335.1,213.1z"/>
<path class="st0" d="M373.9,213.1c0,1-0.8,1.8-1.8,1.8c-1,0-1.8-0.8-1.8-1.8c0-1,0.8-1.8,1.8-1.8l0,0
	C373.1,211.3,373.9,212.1,373.9,213.1C373.9,213.1,373.9,213.1,373.9,213.1z"/>
<path class="st0" d="M412.6,213.1c0,1-0.8,1.8-1.8,1.8c-1,0-1.8-0.8-1.8-1.8c0-1,0.8-1.8,1.8-1.8l0,0
	C411.8,211.3,412.6,212.1,412.6,213.1C412.6,213.1,412.6,213.1,412.6,213.1z"/>
<path class="st0" d="M102.8,247.9c0,1-0.8,1.8-1.8,1.8c-1,0-1.8-0.8-1.8-1.8s0.8-1.8,1.8-1.8C102,246.1,102.7,246.9,102.8,247.9z"/>
<path class="st0" d="M180.3,247.9c0,1-0.8,1.8-1.8,1.8c-1,0-1.8-0.8-1.8-1.8c0-1,0.8-1.8,1.8-1.8
	C179.5,246.1,180.2,246.9,180.3,247.9z"/>
<path class="st0" d="M219,247.9c0,1-0.8,1.8-1.8,1.8c-1,0-1.8-0.8-1.8-1.8c0-1,0.8-1.8,1.8-1.8C218.2,246.1,219,246.9,219,247.9z"/>
<path class="st0" d="M296.4,247.9c0,1-0.8,1.8-1.8,1.8c-1,0-1.8-0.8-1.8-1.8c0-1,0.8-1.8,1.8-1.8l0,0
	C295.6,246.1,296.3,246.9,296.4,247.9z"/>
<path class="st0" d="M335.1,247.9c0,1-0.8,1.8-1.8,1.8c-1,0-1.8-0.8-1.8-1.8c0-1,0.8-1.8,1.8-1.8l0,0
	C334.3,246.1,335,246.9,335.1,247.9z"/>
<path class="st0" d="M102.8,282.3c0,1-0.8,1.8-1.8,1.8s-1.8-0.8-1.8-1.8s0.8-1.8,1.8-1.8h0C102,280.5,102.8,281.3,102.8,282.3
	C102.8,282.3,102.8,282.3,102.8,282.3z"/>
<path class="st0" d="M296.4,282.3c0,1-0.8,1.8-1.8,1.8s-1.8-0.8-1.8-1.8s0.8-1.8,1.8-1.8h0C295.6,280.5,296.4,281.3,296.4,282.3
	C296.4,282.3,296.4,282.3,296.4,282.3z"/>
<path class="st0" d="M296.4,319.4c0,1-0.8,1.8-1.8,1.8s-1.8-0.8-1.8-1.8s0.8-1.8,1.8-1.8h0C295.6,317.6,296.4,318.4,296.4,319.4
	C296.4,319.4,296.4,319.4,296.4,319.4z"/>
<path class="st0" d="M335.1,282.3c0,1-0.8,1.8-1.8,1.8s-1.8-0.8-1.8-1.8s0.8-1.8,1.8-1.8h0C334.3,280.5,335.1,281.3,335.1,282.3
	C335.1,282.3,335.1,282.3,335.1,282.3z"/>
<path class="st0" d="M412.6,247.9c0,1-0.8,1.8-1.8,1.8c-1,0-1.8-0.8-1.8-1.8c0-1,0.8-1.8,1.8-1.8l0,0
	C411.8,246.1,412.5,246.9,412.6,247.9z"/>
<path class="st0" d="M451.3,213.1c0,1-0.8,1.8-1.8,1.8c-1,0-1.8-0.8-1.8-1.8c0-1,0.8-1.8,1.8-1.8l0,0
	C450.5,211.3,451.3,212.1,451.3,213.1C451.3,213.1,451.3,213.1,451.3,213.1z"/>
<path class="st0" d="M722.4,213.1c0,1-0.8,1.8-1.8,1.8c-1,0-1.8-0.8-1.8-1.8c0-1,0.8-1.8,1.8-1.8l0,0
	C721.6,211.3,722.4,212.1,722.4,213.1C722.4,213.1,722.4,213.1,722.4,213.1z"/>
<path class="st0" d="M1157.8,175.4c0,1-0.8,1.8-1.8,1.8c-1,0-1.8-0.8-1.8-1.8c0-1,0.8-1.8,1.8-1.8
	C1157,173.6,1157.8,174.4,1157.8,175.4C1157.8,175.4,1157.8,175.4,1157.8,175.4z"/>
<path class="st0" d="M1196.5,175.4c0,1-0.8,1.8-1.8,1.8c-1,0-1.8-0.8-1.8-1.8c0-1,0.8-1.8,1.8-1.8
	C1195.7,173.6,1196.5,174.4,1196.5,175.4C1196.5,175.4,1196.5,175.4,1196.5,175.4z"/>
<path class="st0" d="M1235.2,175.4c0,1-0.8,1.8-1.8,1.8c-1,0-1.8-0.8-1.8-1.8c0-1,0.8-1.8,1.8-1.8
	C1234.4,173.6,1235.2,174.4,1235.2,175.4C1235.2,175.4,1235.2,175.4,1235.2,175.4z"/>
<path class="st0" d="M1274,175.4c0,1-0.8,1.8-1.8,1.8c-1,0-1.8-0.8-1.8-1.8c0-1,0.8-1.8,1.8-1.8C1273.2,173.6,1274,174.4,1274,175.4
	C1274,175.4,1274,175.4,1274,175.4z"/>
<path class="st0" d="M1312.7,175.4c0,1-0.8,1.8-1.8,1.8c-1,0-1.8-0.8-1.8-1.8c0-1,0.8-1.8,1.8-1.8
	C1311.9,173.6,1312.7,174.4,1312.7,175.4C1312.7,175.4,1312.7,175.4,1312.7,175.4z"/>
<path class="st0" d="M1351.4,175.4c0,1-0.8,1.8-1.8,1.8c-1,0-1.8-0.8-1.8-1.8c0-1,0.8-1.8,1.8-1.8
	C1350.6,173.6,1351.4,174.4,1351.4,175.4C1351.4,175.4,1351.4,175.4,1351.4,175.4z"/>
<path class="st0" d="M1390.1,175.4c0,1-0.8,1.8-1.8,1.8c-1,0-1.8-0.8-1.8-1.8c0-1,0.8-1.8,1.8-1.8
	C1389.3,173.6,1390.1,174.4,1390.1,175.4C1390.1,175.4,1390.1,175.4,1390.1,175.4z"/>
<path class="st0" d="M1428.9,175.4c0,1-0.8,1.8-1.8,1.8c-1,0-1.8-0.8-1.8-1.8c0-1,0.8-1.8,1.8-1.8
	C1428.1,173.6,1428.9,174.4,1428.9,175.4C1428.9,175.4,1428.9,175.4,1428.9,175.4z"/>
<path class="st0" d="M1467.6,175.4c0,1-0.8,1.8-1.8,1.8c-1,0-1.8-0.8-1.8-1.8c0-1,0.8-1.8,1.8-1.8
	C1466.8,173.6,1467.6,174.4,1467.6,175.4C1467.6,175.4,1467.6,175.4,1467.6,175.4z"/>
<path class="st0" d="M1506.3,175.4c0,1-0.8,1.8-1.8,1.8c-1,0-1.8-0.8-1.8-1.8c0-1,0.8-1.8,1.8-1.8
	C1505.5,173.6,1506.3,174.4,1506.3,175.4C1506.3,175.4,1506.3,175.4,1506.3,175.4z"/>
<path class="st0" d="M1235.2,213.1c0,1-0.8,1.8-1.8,1.8c-1,0-1.8-0.8-1.8-1.8c0-1,0.8-1.8,1.8-1.8
	C1234.4,211.3,1235.2,212.1,1235.2,213.1C1235.2,213.1,1235.2,213.1,1235.2,213.1z"/>
<path class="st0" d="M1274,213.1c0,1-0.8,1.8-1.8,1.8c-1,0-1.8-0.8-1.8-1.8c0-1,0.8-1.8,1.8-1.8C1273.2,211.3,1274,212.1,1274,213.1
	C1274,213.1,1274,213.1,1274,213.1z"/>
<path class="st0" d="M1312.7,213.1c0,1-0.8,1.8-1.8,1.8c-1,0-1.8-0.8-1.8-1.8c0-1,0.8-1.8,1.8-1.8
	C1311.9,211.3,1312.7,212.1,1312.7,213.1C1312.7,213.1,1312.7,213.1,1312.7,213.1z"/>
<path class="st0" d="M1351.4,213.1c0,1-0.8,1.8-1.8,1.8c-1,0-1.8-0.8-1.8-1.8c0-1,0.8-1.8,1.8-1.8
	C1350.6,211.3,1351.4,212.1,1351.4,213.1C1351.4,213.1,1351.4,213.1,1351.4,213.1z"/>
<path class="st0" d="M1390.1,213.1c0,1-0.8,1.8-1.8,1.8c-1,0-1.8-0.8-1.8-1.8c0-1,0.8-1.8,1.8-1.8
	C1389.3,211.3,1390.1,212.1,1390.1,213.1C1390.1,213.1,1390.1,213.1,1390.1,213.1z"/>
<path class="st0" d="M1428.9,213.1c0,1-0.8,1.8-1.8,1.8c-1,0-1.8-0.8-1.8-1.8c0-1,0.8-1.8,1.8-1.8
	C1428.1,211.3,1428.9,212.1,1428.9,213.1C1428.9,213.1,1428.9,213.1,1428.9,213.1z"/>
<path class="st0" d="M1467.6,213.1c0,1-0.8,1.8-1.8,1.8c-1,0-1.8-0.8-1.8-1.8c0-1,0.8-1.8,1.8-1.8
	C1466.8,211.3,1467.6,212.1,1467.6,213.1C1467.6,213.1,1467.6,213.1,1467.6,213.1z"/>
<path class="st0" d="M1506.3,213.1c0,1-0.8,1.8-1.8,1.8c-1,0-1.8-0.8-1.8-1.8c0-1,0.8-1.8,1.8-1.8
	C1505.5,211.3,1506.3,212.1,1506.3,213.1C1506.3,213.1,1506.3,213.1,1506.3,213.1z"/>
<path class="st0" d="M1390.1,247.9c0,1-0.8,1.8-1.8,1.8c-1,0-1.8-0.8-1.8-1.8c0-1,0.8-1.8,1.8-1.8
	C1389.3,246.1,1390,246.9,1390.1,247.9z"/>
<path class="st0" d="M1428.9,247.9c0,1-0.8,1.8-1.8,1.8c-1,0-1.8-0.8-1.8-1.8c0-1,0.8-1.8,1.8-1.8
	C1428.1,246.1,1428.8,246.9,1428.9,247.9z"/>
<path class="st0" d="M1467.6,247.9c0,1-0.8,1.8-1.8,1.8c-1,0-1.8-0.8-1.8-1.8c0-1,0.8-1.8,1.8-1.8
	C1466.8,246.1,1467.5,246.9,1467.6,247.9z"/>
<path class="st0" d="M1506.3,247.9c0,1-0.8,1.8-1.8,1.8c-1,0-1.8-0.8-1.8-1.8c0-1,0.8-1.8,1.8-1.8
	C1505.5,246.1,1506.2,246.9,1506.3,247.9z"/>
<path class="st0" d="M1428.9,282.3c0,1-0.8,1.8-1.8,1.8c-1,0-1.8-0.8-1.8-1.8s0.8-1.8,1.8-1.8
	C1428.1,280.5,1428.9,281.3,1428.9,282.3C1428.9,282.3,1428.9,282.3,1428.9,282.3z"/>
<path class="st0" d="M1467.6,282.3c0,1-0.8,1.8-1.8,1.8c-1,0-1.8-0.8-1.8-1.8s0.8-1.8,1.8-1.8
	C1466.8,280.5,1467.6,281.3,1467.6,282.3C1467.6,282.3,1467.6,282.3,1467.6,282.3z"/>
<path class="st0" d="M1467.6,319.4c0,1-0.8,1.8-1.8,1.8c-1,0-1.8-0.8-1.8-1.8s0.8-1.8,1.8-1.8
	C1466.8,317.6,1467.6,318.4,1467.6,319.4C1467.6,319.4,1467.6,319.4,1467.6,319.4z"/>
<path class="st0" d="M102.8,319.4c0,1-0.8,1.8-1.8,1.8s-1.8-0.8-1.8-1.8s0.8-1.8,1.8-1.8h0C102,317.6,102.8,318.4,102.8,319.4
	C102.8,319.4,102.8,319.4,102.8,319.4z"/>
<path class="st0" d="M63.5,175.4c0,1-0.8,1.8-1.8,1.8c-1,0-1.8-0.8-1.8-1.8c0-1,0.8-1.8,1.8-1.8C62.7,173.6,63.5,174.4,63.5,175.4
	C63.5,175.4,63.5,175.4,63.5,175.4z"/>
<path class="st0" d="M63.5,213.1c0,1-0.8,1.8-1.8,1.8c-1,0-1.8-0.8-1.8-1.8c0-1,0.8-1.8,1.8-1.8C62.7,211.3,63.5,212.1,63.5,213.1
	C63.5,213.1,63.5,213.1,63.5,213.1z"/>
<path class="st0" d="M63.5,247.9c0,1-0.8,1.8-1.8,1.8c-1,0-1.8-0.8-1.8-1.8c0-1,0.8-1.8,1.8-1.8C62.7,246.1,63.5,246.9,63.5,247.9z"
	/>
<path class="st0" d="M26.3,213.1c0,1-0.8,1.8-1.8,1.8c-1,0-1.8-0.8-1.8-1.8c0-1,0.8-1.8,1.8-1.8C25.5,211.3,26.3,212.1,26.3,213.1
	C26.3,213.1,26.3,213.1,26.3,213.1z"/>
<path class="st0" d="M26.3,247.9c0,1-0.8,1.8-1.8,1.8c-1,0-1.8-0.8-1.8-1.8c0-1,0.8-1.8,1.8-1.8C25.5,246.1,26.3,246.9,26.3,247.9z"
	/>
<path class="st0" d="M63.5,282.3c0,1-0.8,1.8-1.8,1.8s-1.8-0.8-1.8-1.8c0-1,0.8-1.8,1.8-1.8c0,0,0,0,0,0
	C62.7,280.5,63.5,281.3,63.5,282.3C63.5,282.3,63.5,282.3,63.5,282.3z"/>
<path class="st0" d="M219,98.6c0,1-0.8,1.8-1.8,1.8s-1.8-0.8-1.8-1.8c0-1,0.8-1.8,1.8-1.8c1,0,1.8,0.7,1.8,1.7
	C219,98.5,219,98.6,219,98.6z"/>
<path class="st0" d="M257.7,98.6c0,1-0.8,1.8-1.8,1.8c-1,0-1.8-0.8-1.8-1.8c0-1,0.8-1.8,1.8-1.8c1,0,1.8,0.7,1.8,1.7
	C257.7,98.5,257.7,98.6,257.7,98.6z"/>
<path class="st0" d="M335.1,98.6c0,1-0.8,1.8-1.8,1.8c-1,0-1.8-0.8-1.8-1.8s0.8-1.8,1.8-1.8l0,0c1,0,1.8,0.7,1.8,1.7
	C335.1,98.5,335.1,98.6,335.1,98.6z"/>
<path class="st0" d="M373.9,98.6c0,1-0.8,1.8-1.8,1.8c-1,0-1.8-0.8-1.8-1.8s0.8-1.8,1.8-1.8l0,0c1,0,1.8,0.7,1.8,1.7
	C373.9,98.5,373.9,98.6,373.9,98.6z"/>
<path class="st0" d="M412.6,98.6c0,1-0.8,1.8-1.8,1.8c-1,0-1.8-0.8-1.8-1.8s0.8-1.8,1.8-1.8l0,0c1,0,1.8,0.7,1.8,1.7
	C412.6,98.5,412.6,98.6,412.6,98.6z"/>
<path class="st0" d="M451.3,98.6c0,1-0.8,1.8-1.8,1.8c-1,0-1.8-0.8-1.8-1.8s0.8-1.8,1.8-1.8l0,0c1,0,1.8,0.7,1.8,1.7
	C451.3,98.5,451.3,98.6,451.3,98.6z"/>
<path class="st0" d="M490,98.6c0,1-0.8,1.8-1.8,1.8c-1,0-1.8-0.8-1.8-1.8s0.8-1.8,1.8-1.8l0,0c1,0,1.8,0.7,1.8,1.7
	C490,98.5,490,98.6,490,98.6z"/>
<path class="st0" d="M528.8,98.6c0,1-0.8,1.8-1.8,1.8c-1,0-1.8-0.8-1.8-1.8s0.8-1.8,1.8-1.8l0,0c1,0,1.8,0.7,1.8,1.7
	C528.8,98.5,528.8,98.6,528.8,98.6z"/>
<path class="st0" d="M567.5,98.6c0,1-0.8,1.8-1.8,1.8c-1,0-1.8-0.8-1.8-1.8s0.8-1.8,1.8-1.8l0,0c1,0,1.8,0.7,1.8,1.7
	C567.5,98.5,567.5,98.6,567.5,98.6z"/>
<path class="st0" d="M644.9,98.6c0,1-0.8,1.8-1.8,1.8c-1,0-1.8-0.8-1.8-1.8s0.8-1.8,1.8-1.8l0,0C644.1,96.8,644.9,97.6,644.9,98.6
	C644.9,98.6,644.9,98.6,644.9,98.6z"/>
<path class="st0" d="M683.7,98.6c0,1-0.8,1.8-1.8,1.8c-1,0-1.8-0.8-1.8-1.8s0.8-1.8,1.8-1.8l0,0C682.9,96.8,683.7,97.6,683.7,98.6
	C683.7,98.6,683.7,98.6,683.7,98.6z"/>
<path class="st0" d="M722.4,98.6c0,1-0.8,1.8-1.8,1.8c-1,0-1.8-0.8-1.8-1.8s0.8-1.8,1.8-1.8l0,0c1,0,1.8,0.7,1.8,1.7
	C722.4,98.5,722.4,98.6,722.4,98.6z"/>
<path class="st0" d="M761.1,98.6c0,1-0.8,1.8-1.8,1.8c-1,0-1.8-0.8-1.8-1.8s0.8-1.8,1.8-1.8l0,0c1,0,1.8,0.7,1.8,1.7
	C761.1,98.5,761.1,98.6,761.1,98.6z"/>
<path class="st0" d="M799.8,98.6c0,1-0.8,1.8-1.8,1.8c-1,0-1.8-0.8-1.8-1.8s0.8-1.8,1.8-1.8l0,0c1,0,1.8,0.7,1.8,1.7
	C799.8,98.5,799.8,98.6,799.8,98.6z"/>
<path class="st0" d="M838.5,98.6c0,1-0.8,1.8-1.8,1.8c-1,0-1.8-0.8-1.8-1.8s0.8-1.8,1.8-1.8l0,0c1,0,1.8,0.7,1.8,1.7
	C838.5,98.5,838.5,98.6,838.5,98.6z"/>
<path class="st0" d="M102.8,136.2c0,1-0.8,1.8-1.8,1.8c-1,0-1.8-0.8-1.8-1.8s0.8-1.8,1.8-1.8C102,134.4,102.8,135.2,102.8,136.2
	C102.8,136.2,102.8,136.2,102.8,136.2z"/>
<path class="st0" d="M180.3,136.2c0,1-0.8,1.8-1.8,1.8c-1,0-1.8-0.8-1.8-1.8c0-1,0.8-1.8,1.8-1.8
	C179.5,134.4,180.3,135.2,180.3,136.2C180.3,136.2,180.3,136.2,180.3,136.2z"/>
<path class="st0" d="M219,136.2c0,1-0.8,1.8-1.8,1.8c-1,0-1.8-0.8-1.8-1.8c0-1,0.8-1.8,1.8-1.8C218.2,134.4,219,135.2,219,136.2
	C219,136.2,219,136.2,219,136.2z"/>
<path class="st0" d="M141.5,98.6c0,1-0.8,1.8-1.8,1.8s-1.8-0.8-1.8-1.8c0-1,0.8-1.8,1.8-1.8c1,0,1.8,0.7,1.8,1.7
	C141.5,98.5,141.5,98.6,141.5,98.6z"/>
<path class="st0" d="M141.5,136.2c0,1-0.8,1.8-1.8,1.8c-1,0-1.8-0.8-1.8-1.8c0-1,0.8-1.8,1.8-1.8
	C140.7,134.4,141.5,135.2,141.5,136.2C141.5,136.2,141.5,136.2,141.5,136.2z"/>
<path class="st0" d="M257.7,136.2c0,1-0.8,1.8-1.8,1.8c-1,0-1.8-0.8-1.8-1.8c0-1,0.8-1.8,1.8-1.8
	C256.9,134.4,257.7,135.2,257.7,136.2C257.7,136.2,257.7,136.2,257.7,136.2z"/>
<path class="st0" d="M335.1,136.2c0,1-0.8,1.8-1.8,1.8c-1,0-1.8-0.8-1.8-1.8c0-1,0.8-1.8,1.8-1.8l0,0
	C334.3,134.4,335.1,135.2,335.1,136.2C335.1,136.2,335.1,136.2,335.1,136.2z"/>
<path class="st0" d="M373.9,136.2c0,1-0.8,1.8-1.8,1.8c-1,0-1.8-0.8-1.8-1.8c0-1,0.8-1.8,1.8-1.8l0,0
	C373.1,134.4,373.9,135.2,373.9,136.2C373.9,136.2,373.9,136.2,373.9,136.2z"/>
<path class="st0" d="M412.6,136.2c0,1-0.8,1.8-1.8,1.8c-1,0-1.8-0.8-1.8-1.8c0-1,0.8-1.8,1.8-1.8l0,0
	C411.8,134.4,412.6,135.2,412.6,136.2C412.6,136.2,412.6,136.2,412.6,136.2z"/>
<path class="st0" d="M451.3,136.2c0,1-0.8,1.8-1.8,1.8c-1,0-1.8-0.8-1.8-1.8c0-1,0.8-1.8,1.8-1.8l0,0
	C450.5,134.4,451.3,135.2,451.3,136.2C451.3,136.2,451.3,136.2,451.3,136.2z"/>
<path class="st0" d="M490,136.2c0,1-0.8,1.8-1.8,1.8c-1,0-1.8-0.8-1.8-1.8c0-1,0.8-1.8,1.8-1.8l0,0C489.2,134.4,490,135.2,490,136.2
	C490,136.2,490,136.2,490,136.2z"/>
<path class="st0" d="M528.8,136.2c0,1-0.8,1.8-1.8,1.8c-1,0-1.8-0.8-1.8-1.8c0-1,0.8-1.8,1.8-1.8l0,0
	C528,134.4,528.8,135.2,528.8,136.2C528.8,136.2,528.8,136.2,528.8,136.2z"/>
<path class="st0" d="M644.9,136.2c0,1-0.8,1.8-1.8,1.8c-1,0-1.8-0.8-1.8-1.8c0-1,0.8-1.8,1.8-1.8l0,0
	C644.1,134.4,644.9,135.2,644.9,136.2C644.9,136.2,644.9,136.2,644.9,136.2z"/>
<path class="st0" d="M683.7,136.2c0,1-0.8,1.8-1.8,1.8c-1,0-1.8-0.8-1.8-1.8c0-1,0.8-1.8,1.8-1.8l0,0
	C682.9,134.4,683.6,135.2,683.7,136.2z"/>
<path class="st0" d="M722.4,136.2c0,1-0.8,1.8-1.8,1.8c-1,0-1.8-0.8-1.8-1.8c0-1,0.8-1.8,1.8-1.8l0,0
	C721.6,134.4,722.4,135.2,722.4,136.2C722.4,136.2,722.4,136.2,722.4,136.2z"/>
<path class="st0" d="M799.8,136.2c0,1-0.8,1.8-1.8,1.8c-1,0-1.8-0.8-1.8-1.8c0-1,0.8-1.8,1.8-1.8l0,0
	C799,134.4,799.8,135.2,799.8,136.2C799.8,136.2,799.8,136.2,799.8,136.2z"/>
<path class="st0" d="M838.5,136.2c0,1-0.8,1.8-1.8,1.8c-1,0-1.8-0.8-1.8-1.8c0-1,0.8-1.8,1.8-1.8l0,0
	C837.7,134.4,838.5,135.2,838.5,136.2C838.5,136.2,838.5,136.2,838.5,136.2z"/>
<path class="st0" d="M964.2,98.6c0,1-0.8,1.8-1.8,1.8c-1,0-1.8-0.8-1.8-1.8s0.8-1.8,1.8-1.8l0,0c1,0,1.8,0.7,1.8,1.7
	C964.2,98.5,964.2,98.6,964.2,98.6z"/>
<path class="st0" d="M1002.9,98.6c0,1-0.8,1.8-1.8,1.8c-1,0-1.8-0.8-1.8-1.8s0.8-1.8,1.8-1.8l0,0c1,0,1.8,0.7,1.8,1.7
	C1002.9,98.5,1002.9,98.6,1002.9,98.6z"/>
<path class="st0" d="M1041.6,98.6c0,1-0.8,1.8-1.8,1.8c-1,0-1.8-0.8-1.8-1.8c0-1,0.8-1.8,1.8-1.8c1,0,1.8,0.7,1.8,1.7
	C1041.6,98.5,1041.6,98.6,1041.6,98.6z"/>
<path class="st0" d="M1041.6,136.2c0,1-0.8,1.8-1.8,1.8c-1,0-1.8-0.8-1.8-1.8c0-1,0.8-1.8,1.8-1.8c1,0,1.8,0.7,1.8,1.7
	C1041.6,136.1,1041.6,136.2,1041.6,136.2z"/>
<path class="st0" d="M1080.4,98.6c0,1-0.8,1.8-1.8,1.8c-1,0-1.8-0.8-1.8-1.8c0-1,0.8-1.8,1.8-1.8c1,0,1.8,0.7,1.8,1.7
	C1080.4,98.5,1080.4,98.6,1080.4,98.6z"/>
<path class="st0" d="M1080.4,136.2c0,1-0.8,1.8-1.8,1.8c-1,0-1.8-0.8-1.8-1.8c0-1,0.8-1.8,1.8-1.8c1,0,1.8,0.7,1.8,1.7
	C1080.4,136.1,1080.4,136.2,1080.4,136.2z"/>
<path class="st0" d="M1119.1,98.6c0,1-0.8,1.8-1.8,1.8c-1,0-1.8-0.8-1.8-1.8c0-1,0.8-1.8,1.8-1.8c1,0,1.8,0.7,1.8,1.7
	C1119.1,98.5,1119.1,98.6,1119.1,98.6z"/>
<path class="st0" d="M1157.8,98.6c0,1-0.8,1.8-1.8,1.8c-1,0-1.8-0.8-1.8-1.8c0-1,0.8-1.8,1.8-1.8c1,0,1.8,0.7,1.8,1.7
	C1157.8,98.5,1157.8,98.6,1157.8,98.6z"/>
<path class="st0" d="M1196.5,98.6c0,1-0.8,1.8-1.8,1.8c-1,0-1.8-0.8-1.8-1.8c0-1,0.8-1.8,1.8-1.8
	C1195.7,96.8,1196.5,97.6,1196.5,98.6C1196.5,98.6,1196.5,98.6,1196.5,98.6z"/>
<path class="st0" d="M1235.2,98.6c0,1-0.8,1.8-1.8,1.8c-1,0-1.8-0.8-1.8-1.8c0-1,0.8-1.8,1.8-1.8
	C1234.4,96.8,1235.2,97.6,1235.2,98.6C1235.2,98.6,1235.2,98.6,1235.2,98.6z"/>
<path class="st0" d="M1312.7,98.6c0,1-0.8,1.8-1.8,1.8c-1,0-1.8-0.8-1.8-1.8c0-1,0.8-1.8,1.8-1.8c1,0,1.8,0.7,1.8,1.7
	C1312.7,98.5,1312.7,98.6,1312.7,98.6z"/>
<path class="st0" d="M1351.4,98.6c0,1-0.8,1.8-1.8,1.8c-1,0-1.8-0.8-1.8-1.8c0-1,0.8-1.8,1.8-1.8c1,0,1.8,0.7,1.8,1.7
	C1351.4,98.5,1351.4,98.6,1351.4,98.6z"/>
<path class="st0" d="M1390.1,98.6c0,1-0.8,1.8-1.8,1.8c-1,0-1.8-0.8-1.8-1.8c0-1,0.8-1.8,1.8-1.8c1,0,1.8,0.7,1.8,1.7
	C1390.1,98.5,1390.1,98.6,1390.1,98.6z"/>
<path class="st0" d="M1467.6,98.6c0,1-0.8,1.8-1.8,1.8c-1,0-1.8-0.8-1.8-1.8c0-1,0.8-1.8,1.8-1.8c1,0,1.8,0.7,1.8,1.7
	C1467.6,98.5,1467.6,98.6,1467.6,98.6z"/>
<path class="st0" d="M1119.1,59.3c0,1-0.8,1.8-1.8,1.8c-1,0-1.8-0.8-1.8-1.8c0-1,0.8-1.8,1.8-1.8
	C1118.3,57.5,1119.1,58.3,1119.1,59.3C1119.1,59.3,1119.1,59.3,1119.1,59.3z"/>
<path class="st0" d="M1157.8,136.2c0,1-0.8,1.8-1.8,1.8c-1,0-1.8-0.8-1.8-1.8c0-1,0.8-1.8,1.8-1.8
	C1157,134.4,1157.8,135.2,1157.8,136.2C1157.8,136.2,1157.8,136.2,1157.8,136.2z"/>
<path class="st0" d="M1196.5,136.2c0,1-0.8,1.8-1.8,1.8c-1,0-1.8-0.8-1.8-1.8c0-1,0.8-1.8,1.8-1.8
	C1195.7,134.4,1196.5,135.2,1196.5,136.2C1196.5,136.2,1196.5,136.2,1196.5,136.2z"/>
<path class="st0" d="M1235.2,136.2c0,1-0.8,1.8-1.8,1.8c-1,0-1.8-0.8-1.8-1.8c0-1,0.8-1.8,1.8-1.8
	C1234.4,134.4,1235.2,135.2,1235.2,136.2C1235.2,136.2,1235.2,136.2,1235.2,136.2z"/>
<path class="st0" d="M1274,136.2c0,1-0.8,1.8-1.8,1.8c-1,0-1.8-0.8-1.8-1.8c0-1,0.8-1.8,1.8-1.8C1273.2,134.4,1274,135.2,1274,136.2
	C1274,136.2,1274,136.2,1274,136.2z"/>
<path class="st0" d="M1312.7,136.2c0,1-0.8,1.8-1.8,1.8c-1,0-1.8-0.8-1.8-1.8c0-1,0.8-1.8,1.8-1.8
	C1311.9,134.4,1312.7,135.2,1312.7,136.2C1312.7,136.2,1312.7,136.2,1312.7,136.2z"/>
<path class="st0" d="M1351.4,136.2c0,1-0.8,1.8-1.8,1.8c-1,0-1.8-0.8-1.8-1.8c0-1,0.8-1.8,1.8-1.8
	C1350.6,134.4,1351.4,135.2,1351.4,136.2C1351.4,136.2,1351.4,136.2,1351.4,136.2z"/>
<path class="st0" d="M1390.1,136.2c0,1-0.8,1.8-1.8,1.8c-1,0-1.8-0.8-1.8-1.8c0-1,0.8-1.8,1.8-1.8
	C1389.3,134.4,1390.1,135.2,1390.1,136.2C1390.1,136.2,1390.1,136.2,1390.1,136.2z"/>
<path class="st0" d="M1428.9,136.2c0,1-0.8,1.8-1.8,1.8c-1,0-1.8-0.8-1.8-1.8c0-1,0.8-1.8,1.8-1.8
	C1428.1,134.4,1428.9,135.2,1428.9,136.2C1428.9,136.2,1428.9,136.2,1428.9,136.2z"/>
<path class="st0" d="M1467.6,136.2c0,1-0.8,1.8-1.8,1.8c-1,0-1.8-0.8-1.8-1.8c0-1,0.8-1.8,1.8-1.8
	C1466.8,134.4,1467.6,135.2,1467.6,136.2C1467.6,136.2,1467.6,136.2,1467.6,136.2z"/>
<path class="st0" d="M1506.3,136.2c0,1-0.8,1.8-1.8,1.8c-1,0-1.8-0.8-1.8-1.8c0-1,0.8-1.8,1.8-1.8
	C1505.5,134.4,1506.3,135.2,1506.3,136.2C1506.3,136.2,1506.3,136.2,1506.3,136.2z"/>
<path class="st0" d="M490,21.7c0,1-0.8,1.8-1.8,1.8s-1.8-0.8-1.8-1.8c0-1,0.8-1.8,1.8-1.8l0,0C489.2,19.9,490,20.7,490,21.7
	C490,21.7,490,21.7,490,21.7z"/>
<path class="st0" d="M567.5,21.7c0,1-0.8,1.8-1.8,1.8c-1,0-1.8-0.8-1.8-1.8c0-1,0.8-1.8,1.8-1.8l0,0
	C566.7,19.9,567.5,20.7,567.5,21.7C567.5,21.7,567.5,21.7,567.5,21.7z"/>
<path class="st0" d="M606.2,21.7c0,1-0.8,1.8-1.8,1.8c-1,0-1.8-0.8-1.8-1.8c0-1,0.8-1.8,1.8-1.8l0,0
	C605.4,19.9,606.2,20.7,606.2,21.7C606.2,21.7,606.2,21.7,606.2,21.7z"/>
<path class="st0" d="M683.7,21.7c0,1-0.8,1.8-1.8,1.8c-1,0-1.8-0.8-1.8-1.8c0-1,0.8-1.8,1.8-1.8l0,0
	C682.9,19.9,683.6,20.7,683.7,21.7z"/>
<path class="st0" d="M761.1,21.7c0,1-0.8,1.8-1.8,1.8c-1,0-1.8-0.8-1.8-1.8c0-1,0.8-1.8,1.8-1.8l0,0
	C760.3,19.9,761.1,20.7,761.1,21.7C761.1,21.7,761.1,21.7,761.1,21.7z"/>
<path class="st0" d="M799.8,21.7c0,1-0.8,1.8-1.8,1.8c-1,0-1.8-0.8-1.8-1.8c0-1,0.8-1.8,1.8-1.8l0,0C799,19.9,799.8,20.7,799.8,21.7
	C799.8,21.7,799.8,21.7,799.8,21.7z"/>
<path class="st0" d="M877.3,21.7c0,1-0.8,1.8-1.8,1.8c-1,0-1.8-0.8-1.8-1.8c0-1,0.8-1.8,1.8-1.8l0,0
	C876.5,19.9,877.3,20.7,877.3,21.7C877.3,21.7,877.3,21.7,877.3,21.7z"/>
<path class="st0" d="M916,21.7c0,1-0.8,1.8-1.8,1.8c-1,0-1.8-0.8-1.8-1.8c0-1,0.8-1.8,1.8-1.8l0,0C915.2,19.9,916,20.7,916,21.7
	C916,21.7,916,21.7,916,21.7z"/>
<path class="st0" d="M219,59.3c0,1-0.8,1.8-1.8,1.8s-1.8-0.8-1.8-1.8c0-1,0.8-1.8,1.8-1.8C218.2,57.5,219,58.3,219,59.3
	C219,59.3,219,59.3,219,59.3z"/>
<path class="st0" d="M335.1,59.3c0,1-0.8,1.8-1.8,1.8s-1.8-0.8-1.8-1.8c0-1,0.8-1.8,1.8-1.8l0,0C334.3,57.5,335.1,58.3,335.1,59.3
	C335.1,59.3,335.1,59.3,335.1,59.3z"/>
<path class="st0" d="M412.6,59.3c0,1-0.8,1.8-1.8,1.8s-1.8-0.8-1.8-1.8c0-1,0.8-1.8,1.8-1.8l0,0C411.8,57.5,412.6,58.3,412.6,59.3
	C412.6,59.3,412.6,59.3,412.6,59.3z"/>
<path class="st0" d="M451.3,59.3c0,1-0.8,1.8-1.8,1.8s-1.8-0.8-1.8-1.8c0-1,0.8-1.8,1.8-1.8l0,0C450.5,57.5,451.3,58.3,451.3,59.3
	C451.3,59.3,451.3,59.3,451.3,59.3z"/>
<path class="st0" d="M490,59.3c0,1-0.8,1.8-1.8,1.8s-1.8-0.8-1.8-1.8c0-1,0.8-1.8,1.8-1.8l0,0C489.2,57.5,490,58.3,490,59.3
	C490,59.3,490,59.3,490,59.3z"/>
<path class="st0" d="M567.5,59.3c0,1-0.8,1.8-1.8,1.8c-1,0-1.8-0.8-1.8-1.8c0-1,0.8-1.8,1.8-1.8l0,0
	C566.7,57.5,567.5,58.3,567.5,59.3C567.5,59.3,567.5,59.3,567.5,59.3z"/>
<path class="st0" d="M606.2,59.3c0,1-0.8,1.8-1.8,1.8c-1,0-1.8-0.8-1.8-1.8c0-1,0.8-1.8,1.8-1.8l0,0
	C605.4,57.5,606.2,58.3,606.2,59.3C606.2,59.3,606.2,59.3,606.2,59.3z"/>
<path class="st0" d="M683.7,59.3c0,1-0.8,1.8-1.8,1.8c-1,0-1.8-0.8-1.8-1.8c0-1,0.8-1.8,1.8-1.8l0,0
	C682.9,57.5,683.6,58.3,683.7,59.3z"/>
<path class="st0" d="M916,59.3c0,1-0.8,1.8-1.8,1.8c-1,0-1.8-0.8-1.8-1.8c0-1,0.8-1.8,1.8-1.8l0,0C915.2,57.5,916,58.3,916,59.3
	C916,59.3,916,59.3,916,59.3z"/>
<path class="st0" d="M1235.2,21.7c0,1-0.8,1.8-1.8,1.8c-1,0-1.8-0.8-1.8-1.8c0-1,0.8-1.8,1.8-1.8
	C1234.4,19.9,1235.2,20.7,1235.2,21.7C1235.2,21.7,1235.2,21.7,1235.2,21.7z"/>
<path class="st0" d="M1351.4,21.7c0,1-0.8,1.8-1.8,1.8c-1,0-1.8-0.8-1.8-1.8c0-1,0.8-1.8,1.8-1.8
	C1350.6,19.9,1351.4,20.7,1351.4,21.7C1351.4,21.7,1351.4,21.7,1351.4,21.7z"/>
<path class="st0" d="M964.2,59.3c0,1-0.8,1.8-1.8,1.8c-1,0-1.8-0.8-1.8-1.8c0-1,0.8-1.8,1.8-1.8l0,0
	C963.4,57.5,964.2,58.3,964.2,59.3C964.2,59.3,964.2,59.3,964.2,59.3z"/>
<path class="st0" d="M1041.6,59.3c0,1-0.8,1.8-1.8,1.8c-1,0-1.8-0.8-1.8-1.8c0-1,0.8-1.8,1.8-1.8
	C1040.8,57.5,1041.6,58.3,1041.6,59.3C1041.6,59.3,1041.6,59.3,1041.6,59.3z"/>
<path class="st0" d="M1080.4,59.3c0,1-0.8,1.8-1.8,1.8c-1,0-1.8-0.8-1.8-1.8c0-1,0.8-1.8,1.8-1.8
	C1079.6,57.5,1080.4,58.3,1080.4,59.3C1080.4,59.3,1080.4,59.3,1080.4,59.3z"/>
<path class="st0" d="M1196.5,59.3c0,1-0.8,1.8-1.8,1.8c-1,0-1.8-0.8-1.8-1.8c0-1,0.8-1.8,1.8-1.8
	C1195.7,57.5,1196.5,58.3,1196.5,59.3C1196.5,59.3,1196.5,59.3,1196.5,59.3z"/>
<path class="st0" d="M1235.2,59.3c0,1-0.8,1.8-1.8,1.8c-1,0-1.8-0.8-1.8-1.8c0-1,0.8-1.8,1.8-1.8
	C1234.4,57.5,1235.2,58.3,1235.2,59.3C1235.2,59.3,1235.2,59.3,1235.2,59.3z"/>
<path class="st0" d="M1312.7,59.3c0,1-0.8,1.8-1.8,1.8c-1,0-1.8-0.8-1.8-1.8c0-1,0.8-1.8,1.8-1.8
	C1311.9,57.5,1312.7,58.3,1312.7,59.3C1312.7,59.3,1312.7,59.3,1312.7,59.3z"/>
<path class="st0" d="M1351.4,59.3c0,1-0.8,1.8-1.8,1.8c-1,0-1.8-0.8-1.8-1.8c0-1,0.8-1.8,1.8-1.8
	C1350.6,57.5,1351.4,58.3,1351.4,59.3C1351.4,59.3,1351.4,59.3,1351.4,59.3z"/>
<line class="st1" x1="1025.1" y1="372.5" x2="1018.4" y2="375.3"/>
<polyline class="st2" points="608.1,364.5 608.1,410.7 474.3,419.5 451.9,415.8 412,415.8 389.6,419.5 283.6,412.5 "/>
<path class="st2" d="M270.5,411.7l-14.8-1v-71l65.6-14.6c0,0-1.4-7.3,2-7.9c1.6-0.2,3.1-0.6,4.6-1.2c0,0,0.8-3.8,4-4.8
	s5.4-1.8,5.4-1.8s1.4-4.6,4.6-5.2c1.4-0.2,2.8-0.6,4.2-1l0.4-3.8l21-5.4l0.4-3.8l4.6-1.4l4,1.2v1.8c0,0,9.5-3,12.9-3h9.9l0.6-13.1
	c0,0,10.6-8.8,19.9-7.7v-14.3c0,0-2.4-5.6,12.1-5.6h0.4c14.5,0,12.1,5.6,12.1,5.6V268c13.9,0.6,19.9,7.7,19.9,7.7l0.6,13.1h9.9
	c3.4,0,12.9,3,12.9,3V290l4-1.2l4.6,1.4l0.4,3.8l21,5.4l0.4,3.8c1.4,0.4,2.8,0.8,4.2,1c3.2,0.6,4.6,5.2,4.6,5.2s2.2,0.8,5.4,1.8
	s4,4.8,4,4.8c1.5,0.6,3,1,4.6,1.2c3.4,0.6,3,7.9,3,7.9l64.6,14.6v11"/>
<path class="st2" d="M346,343.6c0,0,17.1-2.3,31.4-3.7s51.5-2,63.9-2s47.8,2.7,56.8,3.7s22.4,3,22.4,3"/>
<polyline class="st2" points="412,415.8 412,344.6 451.7,344.6 451.7,415.8 "/>
<line class="st2" x1="412.5" y1="383.7" x2="450.7" y2="383.7"/>
<line class="st2" x1="372.4" y1="289" x2="372.4" y2="240.3"/>
<line class="st2" x1="492.4" y1="289" x2="492.4" y2="240.3"/>
<line class="st2" x1="432.1" y1="248.3" x2="432.1" y2="195.8"/>
<path class="st2" d="M399.2,289c3.3,0.6,6.5,1.4,9.7,2.4v46.5"/>
<path class="st2" d="M464.7,289c0,0-4.6-1.6-11,2.4v46.5"/>
<ellipse class="st2" cx="344.5" cy="314.8" rx="4.5" ry="7"/>
<ellipse class="st2" cx="333.9" cy="319.8" rx="3.1" ry="4.9"/>
<ellipse class="st2" cx="326.2" cy="322.9" rx="2.2" ry="3.5"/>
<ellipse class="st2" cx="520" cy="314.8" rx="4.5" ry="7"/>
<ellipse class="st2" cx="530.6" cy="319.8" rx="3.1" ry="4.9"/>
<ellipse class="st2" cx="538.3" cy="322.9" rx="2.2" ry="3.5"/>
<polyline class="st2" points="726.4,360.9 713.4,318.8 700.8,360.1 691.8,319 677.9,358 669.3,318 654.9,361.2 645,319 629.2,359 
	626.5,410.4 635,410.4 "/>
<polyline class="st2" points="646,323.4 657.4,289.5 667,324.8 "/>
<polyline class="st2" points="670.7,324.6 681.5,289.5 690.2,323.2 "/>
<polyline class="st2" points="692.7,323.3 702.9,289.5 712.2,322.5 "/>
<polyline class="st2" points="714.3,322 724.3,289.5 732.9,323.2 "/>
<path class="st2" d="M736.9,410.4h29.2c0,0,2.8-24.4,7.8-48.5c3.6-17,9.5-33.6,10.9-43c3.4-22.5,0.4-34.4,1.5-43.9
	s2.3-30.6,6.5-30.6h1.2c4.2,0,5.4,21,6.5,30.6s-1.9,21.4,1.5,43.9c1.4,9.3,7.6,26.8,11.2,43.8c5.1,24.2,7.6,47.6,7.6,47.6h39.4
	c0,0,1.1-51.3-2.1-58.3s-5.9-18.2-5.9-52.4S841,170.4,841,170.4s9.2-4.6-1.6-13c-8.9,6.1-6.4,10.5-3.5,12.8
	c0,15-6.8,106.2-6.8,106.2c0-34.2-11.2-129.2-11.2-129.2s9.2-4.6-1.6-13c-8.9,6.1-6.4,10.5-3.5,12.8c0,15-7.2,106.4-7.2,106.4
	l-0.5-81h-24.8v81c0,0-7.2-91.4-7.2-106.4c2.8-2.3,5.4-6.8-3.5-12.8c-10.8,8.4-1.6,13-1.6,13s-11.2,95-11.2,129.2
	c0,0-6.8-91.3-6.8-106.2c2.8-2.3,5.4-6.8-3.5-12.8c-10.8,8.4-1.6,13-1.6,13s-11.2,95-11.2,129.2S731,345,727.8,352
	s-2.1,58.3-2.1,58.3h-77.4"/>
<circle class="st2" cx="641.7" cy="376.6" r="7.8"/>
<circle class="st2" cx="664" cy="376.6" r="7.8"/>
<circle class="st2" cx="688.7" cy="376.6" r="7.8"/>
<circle class="st2" cx="712.6" cy="376.6" r="7.8"/>
<path class="st2" d="M1027.9,410.2h-15.7c0,0-6.8-24.4-20.4-32.5s-23.4-9.8-30.2-9.8h-2.3c-6.8,0-16.6,1.7-30.2,9.8
	s-20.4,32.5-20.4,32.5h-31"/>
<path class="st2" d="M877.9,410.2c0,0,36.4-46.4,39.1-50.8s2-18.3,2-18.3h6.8c0,0,12.6-31.9,14.3-39.7c-1-9.2-2.4-10.2-0.7-11.9
	s5.1-1.7,5.1-1.7s8.1-41.8,9.5-77.1s1.4-45.5,1.4-45.5s-2.7-12.9-2-17s1.4-8.1,6.5-9.2c0.3-3.1,1-20.7,1-20.7s0.2,17.7,0.6,20.7
	c5.1,1,5.8,5.1,6.5,9.2s-2,17-2,17s0,10.2,1.4,45.5s9.5,77.1,9.5,77.1s3.4,0,5.1,1.7s0.3,2.7-0.7,11.9c1.7,7.8,14.3,39.7,14.3,39.7
	l6.5,0.2c0,0-0.4,13.7,2.3,18.1s39.1,50.8,39.1,50.8"/>
<polygon class="st2" points="960.7,315.5 966.8,315.5 971.2,341 960.7,341 960.4,341 949.9,341 954.3,315.5 960.4,315.5 "/>
<polyline class="st2" points="450.5,268.7 590.6,95.8 733.5,292.8 "/>
<line class="st2" x1="590.6" y1="95.8" x2="504.9" y2="297.1"/>
<path class="st2" d="M1207.5,270.8c2.3-0.4,4.7-0.6,7-0.6c2,0,4.1,0.2,6.1,0.6"/>
<path class="st2" d="M1034.7,331.3c0,0,29.8-4.4,57.4,9.9c14.2-4.8,28.7-9.1,40.4-9.4c-3-12.7-9.4-34.7-9.4-34.7
	s37.4-11.2,74.9,10.3"/>
<line class="st2" x1="1132.6" y1="331.8" x2="1143.3" y2="364.4"/>
<path class="st2" d="M1195.6,363.7l-20.8-53c0,0,28.4-8.5,56.4,2.4s53.9,33.5,75.1,55.5"/>
<path class="st2" d="M1213.4,308c0,0,26.3-56.4,93-68.2c-0.3,7-1,13.9-2.1,20.8"/>
<path class="st2" d="M1310.6,369.1c0,0,0.4-8.1,8.8-54.2c6.6-36.5,13.1-50.6,23.8-70.9c-60.1,11.5-91.8,78.2-91.8,78.2"/>
<path class="st2" d="M1323,296.5c0,0,29.3-15.4,53.4-19c-7.5,17.2-13.3,34.9-19.6,79.8"/>
<path class="st2" d="M1365.6,308c0,0,35.9-10.3,58.9-6.6c-12.1,16.9-27.8,42.6-29.9,47.7"/>
<path class="st2" d="M1041,375.6c0,0,15.8-2.5,39.9-5.4s51.3-5.5,80.9-7.2c26.3-1.5,58.6,3.6,78.5,2.7s70.3,3.3,70.3,3.3
	s19-9.1,23.8-10.3s20.2-0.6,20.2-0.6s17.2-5.7,29.6-8.8s32.6,4.8,41.7,8.1c-29.9,16-61.6,32.3-61.6,32.3h-324"/>
<path class="st2" d="M1206.4,294c2.3-0.4,4.7-0.6,7-0.6c2,0,4.1,0.2,6.1,0.6"/>
<path class="st2" d="M1025.8,240.7l11.8-2.7v-13.9c0.2-0.8,0.9-1.4,1.8-1.4c0.8,0,1.5,0.6,1.5,1.4c0,0,0,0,0,0.1v13.1h29.5v-25.1
	l-1.1-2.3v-16.3c0-5.2,8.3-23.1,22.4-28.5c1.2-3.4,4.9-4.8,6.2-5.1c2-1.2,7.4-6.2,7.4-6.2s-0.1-2.9,2.4-3.2
	c-0.2-0.8-0.9-1.4-0.9-2.3c0.1-0.7,0.4-1.4,0.9-1.9c-0.8-0.6-1.2-1.5-1.2-2.4c0.1-1.1,0.6-2.1,1.5-2.7l1.6-11.6l1.7,11.6
	c0.9,0.6,1.4,1.6,1.5,2.7c0,0.9-0.4,1.8-1.2,2.4c0.5,0.5,0.8,1.2,0.9,1.9c0,0.9-0.7,1.5-0.9,2.3c2.5,0.2,2.4,3.2,2.4,3.2
	s5.3,5,7.4,6.2c1.4,0.3,5,1.7,6.2,5.1c14.1,5.4,22.4,23.3,22.4,28.5v16.3l-1.1,2.3v25.1h29.5v-13.1c0-0.8,0.6-1.5,1.4-1.5
	c0,0,0,0,0.1,0c0.9,0,1.6,0.6,1.8,1.4V238l16.6,3.6v-13.3c0-1.3,0.6-1.7,1.7-1.7c0.9,0,1.6,0.7,1.6,1.6c0,0,0,0.1,0,0.1v79"/>
<line class="st2" x1="1039.4" y1="222.8" x2="1039.4" y2="215.2"/>
<line class="st2" x1="1179.7" y1="222.8" x2="1179.7" y2="215.2"/>
<line class="st2" x1="1199.6" y1="226.5" x2="1199.6" y2="219"/>
<line class="st2" x1="1213.1" y1="229" x2="1213.1" y2="221.5"/>
<line class="st2" x1="1107.6" y1="150.7" x2="1111.4" y2="150.7"/>
<line class="st2" x1="1107.6" y1="146.5" x2="1111.4" y2="146.5"/>
<path class="st2" d="M1105.3,153.8c0,0,1.8-0.2,4.2-0.2s4.3,0.2,4.3,0.2"/>
<path class="st2" d="M1069.3,210c0,0,14.9-8.5,41.5-8.3s38.8,7.5,38.8,7.5"/>
<path class="st2" d="M1070.5,212.7c0,0,13.7-7.8,40.3-7.6s37.8,6.8,37.8,6.8"/>
<path class="st2" d="M1218.1,299.7l-0.6-54.8c0,0,2-1.8-0.2-2.7c-0.2-2.2,0.9-13.2-4.4-13.4h0.4c-5.3,0.1-4.2,11.2-4.4,13.4
	c-2.3,0.9-0.2,2.7-0.2,2.7l-0.7,62.7"/>
<path class="st2" d="M1207.2,235.6c2-0.4,4-0.6,6-0.6c1.9,0,3.8,0.2,5.7,0.6"/>
<path class="st2" d="M1129.9,295.5v-28.6c0-5-3.6-11.5-9.7-14.3c-4-1.8-7.7-4.1-11.1-6.8c-3.2,2.7-6.8,5-10.7,6.8
	c-6.1,2.7-9.7,9.3-9.7,14.3v41.2h37.6"/>
<path class="st2" d="M930.7,328.6v-24.1l2.8-2.7l-0.2-11.9h-7.9v-15.2c0,0-5.1-2.2-7-4.4s-4.3-11.1-4-24.4
	c0.3-13.3-0.2-32.5-0.2-32.5s4.5-3.1,8.9-10.6c3.6-6.1,3.8-13.6,1.5-18.7c-1.9-4.1-6.3-8.7-11.3-13s-8.1-4.6-10.1-7.8
	c-2.1-3,0.2-13,0.2-13l2.3-0.1c0,0-3.3-1.1-3.2-1.6s-0.8-1.9-0.8-1.9l5.4-3.8l-6.8,2.3l-1.8-1.4l2.6-7l-4.4,6.3l-2.4-0.3l-3.3-8.5
	l1,8.4l-1.9,0.5l-3.4-3.2l2.5,3.8l-1.1,1.4l-4.5-1.3l4.1,2.9l-0.2,2l-2.5,1.5l2.7,0.8l1.2,4.3c-0.4,1.5-2,2.3-3.5,1.9
	c-1.2-0.4-2-1.4-2-2.7c0-2.9-3-5.5-3-5.5s-1.7-6.3-5.5-17.8c0.4-10.1-3.8-9-3.8-13.6c0-2.7,1-5.3,2.9-7.3l-3.8-2.3l2.5-5.1l-4-3.5
	l-4,3.2l1.9,5.6l-3.2,1.9c2.4,2.8,3.7,6.3,3.6,10c0,6.4-0.3,11.6,2.6,13c0,7.2,4.7,22,4.7,22s-4.2,5.9-0.8,11.8
	c3.8,1.3,3.4,11.4,6.3,15.2c-7.2,8.9-3.8,15.2-2.1,39.3s2.7,38.1,2.3,42.3c-0.6,7-6.6,7.2-6.6,7.2l-7.2,0.8V290h-9.4v11.9l2.6,2.7
	v35.7l-4.2,3.6"/>
<path class="st2" d="M906,166c0,0-10.3,0-26.1,16"/>
<path class="st2" d="M888.1,152.8c0,0-1.8-5.6,1.2-8.1s6-1.9,9.2-0.5c2.9,1.5,4.7,4.6,4.5,7.9"/>
<circle class="st3" cx="960.7" cy="112" r="4"/>
<circle class="st3" cx="1108.3" cy="261.3" r="4"/>
<circle class="st3" cx="839.9" cy="380.4" r="4"/>
<circle class="st4" cx="1243.5" cy="284.7" r="4"/>
<circle class="st3" cx="593.8" cy="118.3" r="4"/>
<circle class="st4" cx="641.7" cy="376.4" r="4"/>
<circle class="st4" cx="568.3" cy="349" r="4"/>
<path class="st5" d="M595.7,116.6c0,0,0.8-0.7,2.3-1.9"/>
<path class="st6" d="M602.7,111c21.1-15.9,88.7-60,188.9-60c86.1,0,147.6,43.1,164.4,56.3"/>
<path class="st5" d="M958.4,109.1c1.5,1.2,2.3,1.9,2.3,1.9"/>
<circle class="st3" cx="264.1" cy="268.3" r="4"/>
<circle class="st3" cx="480.5" cy="399.4" r="4"/>
<path class="st6" d="M263.8,270.8c0,57,8,129.2,108.2,129.2c43.5,0,82.3,0.2,110.2,0.2"/>
<path class="st7" d="M568.5,345.8v-3"/>
<path class="st8" d="M568.8,336.8c1.1-21.4,6.2-73.5,31.2-73.5c41,0,41.6,85.3,41,108.9"/>
<path class="st7" d="M640.9,375.3c-0.1,1.9-0.1,3-0.1,3"/>
<path class="st5" d="M841,380.8c1,0.2,2,0.2,3,0.2"/>
<path class="st9" d="M849.9,381.2c12.7,0.4,109.5,0.8,184.1,0.8c84.6,0,76.2-95,75-119.3"/>
<circle class="st4" cx="899.6" cy="277.8" r="4"/>
<path class="st2" d="M142.5,411.1h15.7V269.5c0.6-5.1,3-9.9,6.9-13.3v-14.2l-4.7-5.2h-5.2v-8.6l2.1-3.9c0,0-4.3-3.4-4.3-6.9
	s-0.9-9.5-6.9-9.5h-6.5c-6,0-6.9,6-6.9,9.5s-4.3,6.9-4.3,6.9l2.1,3.9v8.6h-5.2l-4.7,5.2v14.2c0,0,5,4.2,6.9,13.3v141.7"/>
<line class="st2" x1="131.2" y1="236.7" x2="155" y2="236.7"/>
<path class="st2" d="M120.8,256.1c0.8-1.3,1.9-2.4,3.3-3c1.7,0.1,3.2,0.8,4.5,1.9c0,0,2.9-4.5,10-4.5s9.8,3.8,9.8,3.8
	c1.4-2.3,3.8-3.7,6.5-4c2.8,1,4.4,4.4,4.4,4.4s1.9-2.1,4.2-1.9c2,2.8,1.7,3.4,1.7,3.4"/>
<line class="st2" x1="143.1" y1="202.6" x2="143.1" y2="207.7"/>
<polyline class="st2" points="128.5,224.3 134.5,221.6 151.3,221.4 157.4,224.3 "/>
<path class="st2" d="M133.8,327.8h16.3v-44.1c0,0-2.6-2.2-8.3-2.2s-8,2.2-8,2.2S134.1,328.1,133.8,327.8z"/>
<path class="st2" d="M279.5,334.5v-65c0.6-5.1,3-9.9,6.9-13.3v-14.3l-4.7-5.2h-5.2v-8.6l2.1-3.9c0,0-4.3-3.4-4.3-6.9
	s-0.9-9.5-6.9-9.5H261c-6,0-6.9,6-6.9,9.5s-4.3,6.9-4.3,6.9l2.2,3.9v8.6h-5.2l-4.8,5.2v14.2c0,0,5,4.2,6.9,13.3v141.7"/>
<line class="st2" x1="252.4" y1="236.7" x2="276.2" y2="236.7"/>
<path class="st2" d="M242,256.1c0.8-1.3,1.9-2.4,3.3-3c1.7,0.1,3.2,0.8,4.5,1.9c0,0,2.9-4.5,10-4.5c7.1,0,9.8,3.8,9.8,3.8
	c1.4-2.3,3.8-3.7,6.5-4c2.8,1,4.4,4.4,4.4,4.4s1.8-2.1,4.2-1.9c2,2.8,1.7,3.4,1.7,3.4"/>
<line class="st2" x1="264.3" y1="202.6" x2="264.3" y2="207.7"/>
<polyline class="st2" points="249.8,224.3 255.7,221.6 272.5,221.4 278.6,224.3 "/>
<path class="st2" d="M255.1,327.8h16.3v-44.1c0,0-2.6-2.2-8.3-2.2s-8,2.2-8,2.2S255.3,328.1,255.1,327.8z"/>
<polyline class="st2" points="158.3,273.3 207,258.3 248.7,273.3 "/>
<path class="st2" d="M158.3,364.2c0,0,15.6-19.4,45.8-19.7s44.7,19.7,44.7,19.7"/>
<line class="st2" x1="158.3" y1="294" x2="249.2" y2="294"/>
<circle class="st2" cx="207.3" cy="274.2" r="5.6"/>
<path class="st2" d="M990.3,327.1v-28.6c0,0,4.7-4,11.2,0.7v42.4"/>
<path class="st2" d="M996.2,296.8v-52.1c0,0,4.7-4,11.2,0v118.7"/>
<path class="st2" d="M1002,236.7v-48.6c0,0,5.6-4.2,9.8,0v181.3"/>
<path class="st2" d="M1007.7,185.3v-28.8c0,0,6-5.5,11.7,0.2v47"/>
<polyline class="st2" points="1012.1,154 1013.7,117.6 1015.6,154.2 "/>
<line class="st2" x1="1013.7" y1="107.1" x2="1013.7" y2="117.6"/>
<path class="st2" d="M1025.4,259.2v-52c-2.7-2.8-7-3.4-10.3-1.4V374"/>
<path class="st2" d="M1030.1,311.9v-51.5c-3.4-1.8-7.6-1.8-11,0V379"/>
<path class="st2" d="M1034.8,353.7v-39c0,0-4.2-4-11-0.5v70.6"/>
<path class="st2" d="M1040.2,405.6v-42.1c0,0-4.7-3.5-11-0.2v28.3"/>
<path class="st7" d="M900.4,277.2c0,0,0.5-0.9,1.6-2.5"/>
<path class="st8" d="M905.5,269.8c16-22.2,80.2-89.3,162.1-89.3c102.6,0,156.5,57.8,175.9,104"/>
</svg>
