<svg xmlns="http://www.w3.org/2000/svg" viewBox="0 0 783.86 565.37"><defs><style>.a,.d{fill:#ffe161;}.b,.c,.g{fill:none;}.b,.e{stroke:#1eb9d5;}.b,.c,.e,.g{stroke-miterlimit:10;stroke-width:2px;}.c{stroke:#ffe161;}.d,.f{font-size:28.25px;font-family:PTMono-Regular, PT Mono;}.e,.f{fill:#fff;}.g{stroke:#1fbad6;}</style></defs><title>art-3</title><path class="a" d="M356.45,230.63c-4.5-8.45-5.06-20.84-5.06-20.84s-16.9-22.52-16.33-62.5S350.82,91,367.72,84.22s64.19-11.27,83.9,5.07,29.95,51.91,28.44,78.55c-1.41,24.78-4.22,34.91-9.29,37.73s-7.6,2.53-17.18.28c.85,6.48,1.13,13.8-2.25,21.68S438.11,239.08,433,240.2s-6.57,4.69-6.57,4.69l0,8.26-33.8,4.46,193.21-2.84L582.27,88.44a26,26,0,0,0-25.48-24.77L232.57,63.1,236,259.91,379.8,257.8l2.34-14.37S361,239.08,356.45,230.63Z"/><polygon class="a" points="392.72 257.61 379.8 257.8 379.54 259.35 392.72 257.61"/><rect class="b" x="156.39" y="55.36" width="448.63" height="271.84" rx="26.94"/><line class="b" x1="157.02" y1="275.87" x2="604.39" y2="275.87"/><line class="c" x1="382.14" y1="236.88" x2="382.14" y2="243.43"/><line class="c" x1="426.52" y1="236.88" x2="426.52" y2="243.43"/><line class="b" x1="382.14" y1="236.88" x2="382.14" y2="253.15"/><line class="b" x1="426.52" y1="236.88" x2="426.52" y2="253.15"/><path class="b" d="M356.45,215.14c0,22.25,23.06,22.81,46.46,22.81,33.2,0,51.07-3.66,51.07-22.56,0,0,.46-4.67.46-9.54,9.37,2.25,19.92,1.47,19.58-12C473.78,184.66,448,232.88,361,216c-34-6.61-26.76-82.45-26.76-82.45s1.83-49,56.68-50.62c32.58-.94,53.73.93,66.61,13.7,37.49,37.16,22.57,82.2,22.57,82.2"/><text class="d" transform="translate(168.6 109.84)">187 <tspan x="0" y="33.9">188</tspan><tspan x="0" y="67.81">189</tspan><tspan x="0" y="101.71">190</tspan><tspan x="0" y="135.62">191</tspan></text><line class="b" x1="226.66" y1="64.79" x2="226.66" y2="256.53"/><path class="e" d="M505.68,400.13s10.3-122.2-57.83-143a156.69,156.69,0,0,0-45.05-6.57h-.73A156.59,156.59,0,0,0,357,257.09c-68.14,20.84-55.75,143-55.75,143"/><path class="b" d="M333.37,400.13s-2.38-80.9,12.76-80.9c9.76,0,8.49,17.31,8.49,29.14s-1.26,51.76-1.26,51.76"/><path class="b" d="M471.67,400.13s2.38-80.9-12.76-80.9c-9.76,0-8.5,17.31-8.5,29.14s1.27,51.76,1.27,51.76"/><text class="f" transform="translate(246.87 107.79)">&lt;/&gt;&lt;</text><line class="g" x1="232.01" y1="399.64" x2="575.69" y2="399.64"/></svg>