<svg xmlns="http://www.w3.org/2000/svg" viewBox="0 0 885.01 574.95"><defs><style>.a{fill:#ffe161;}.b,.c{fill:none;stroke-miterlimit:10;stroke-width:2px;}.b{stroke:#ffe161;}.c{stroke:#1eb9d5;}.d{fill:#fff;}.e,.f{fill:#1eb9d5;}.f{fill-rule:evenodd;}</style></defs><title>art-4</title><path class="a" d="M459.43,109c7.36-16.22,16.78-20.39,41.38-13.21l10.57,3.1,39.51,11.88c32.75,10,62.82,19.49,71.57,22.61,20.16,7.17,34.17,13,25.28,40.66C635,213.91,551.74,480.22,548,493.55c-5.93,21-16.4,30.75-37.59,24.26L457,502.35c-36.24-10.31-76.21-21.62-82.6-24.18-10.25-4.1-28.39-12.66-21.19-36.56,14-46.47,55-171.17,55-171.17Z"/><path class="a" d="M410.8,247.27s32.13-101.63,38.45-122.36a179.17,179.17,0,0,1,7.32-20.74"/><path class="b" d="M226.91,362.63l108-90.53"/><path class="b" d="M634.71,216.68s22.2-1.92,20.8,20.8-33.38,25.34-33.38,25.34"/><path class="b" d="M617.93,273.31s22.2-1.92,20.8,20.8-35.13,25.35-35.13,25.35"/><path class="b" d="M599.4,334.14s22.2-1.92,20.8,20.8-35.13,25.35-35.13,25.35"/><path class="b" d="M581.22,395s22.2-1.92,20.81,20.8-35.84,25.35-35.84,25.35"/><line class="b" x1="411.67" y1="483.77" x2="284.95" y2="548.62"/><path class="c" d="M458.25,496.44c-37.08-10.55-78-22.12-84.51-24.73-10.49-4.2-29-13-21.67-37.41,14.33-47.54,52.09-165,52.09-165"/><path class="c" d="M550.14,106c33.5,10.22,64.27,20,73.21,23.14,20.63,7.34,35,13.28,25.87,41.6-13.08,40.74-94,303.09-97.89,316.73-6.06,21.5-16.78,31.46-38.45,24.82"/><path class="c" d="M456.57,104.17c7.52-16.6,17.15-20.86,42.33-13.52l10.82,3.18"/><path class="c" d="M410.8,247.27s32.13-101.63,38.45-122.36a179.17,179.17,0,0,1,7.32-20.74"/><path class="d" d="M563,421l79.41-254.23c3.45-11.05-2.08-22.61-12.36-25.82l-37.52-11.72-11.7,14.42L525.61,126.4l-.32-18.19L487.55,96.43c-10.28-3.22-21.41,3.14-24.86,14.19L361.07,436c-3.45,11.05,2.08,22.61,12.37,25.83L516,506.3c10.28,3.21,21.41-3.15,24.86-14.2l7.68-24.58"/><line class="c" x1="534.17" y1="118.74" x2="566.4" y2="128.12"/><circle class="e" cx="577.57" cy="131.01" r="3.15"/><path class="b" d="M361.16,250.06C372,241,392.12,223.67,407,241c12.59,14.68-2.44,29-12.93,37s-58.73,50-77.61,64.68c-13,10.12-3.5,24.82,11.54,15.73S367.8,328,367.8,328"/><path class="f" d="M526.41,268.61l8.47,16.13-35.54-11.33.9-2.84.77-2.41.65-2,3.63-11.38.44-1.38,4.79-15,9,17.14a12.23,12.23,0,1,0-17-14.83h0l0,.13-7.34,23-2.39,7.52-14.14-4.51,9.73-30.53a27.07,27.07,0,1,1,38.06,32.34Z"/><path d="M476.6,280.85a4.55,4.55,0,0,0,0-1.86,9.39,9.39,0,0,0-.76-2.68,10.32,10.32,0,0,0-1.67-2.65,5.82,5.82,0,0,0-2.72-1.77,24.45,24.45,0,0,0-5.81-1,29.42,29.42,0,0,0-7.42.57l-1.41.33a9.85,9.85,0,0,0-1.58.55,6.47,6.47,0,0,0-1.39.8,2.3,2.3,0,0,0-.82,1.13,3.13,3.13,0,0,0-.11.95,4.27,4.27,0,0,0,.21,1.2,3.47,3.47,0,0,0,.56,1.08,2,2,0,0,0,1,.68.41.41,0,0,0,.55-.21,3.79,3.79,0,0,0,.3-.68c0-.1.07-.29.12-.55s.09-.55.14-.84.11-.58.16-.86a2.9,2.9,0,0,1,.12-.57,2,2,0,0,1,1.27-1.1,10.51,10.51,0,0,1,2.43-.65,15.65,15.65,0,0,1,2.74-.2,7.84,7.84,0,0,1,2.23.29l.25.08c.05,0,.09.09.13.22a2.26,2.26,0,0,0,.11.3,15.16,15.16,0,0,0-1.41,2.27c-.48.93-1,2-1.43,3.09s-.92,2.3-1.38,3.52-.89,2.42-1.29,3.6-.77,2.27-1.09,3.3l-.84,2.63c-.24.76-.43,1.39-.56,1.9a5.47,5.47,0,0,0-.22,1.26,1.39,1.39,0,0,0,.13.76.84.84,0,0,0,.52.39l.62.2q.45.13,1,.24a7.11,7.11,0,0,0,1,.13,1.56,1.56,0,0,0,.81-.13.65.65,0,0,1-.34-.63,3.4,3.4,0,0,1,.09-.49l1.31-4.1.87-2.74a10.18,10.18,0,0,1,.57-1.52c0-.09.17-.11.44-.06l.58.15a2.65,2.65,0,0,1,1.32.78,2.22,2.22,0,0,1,.33,1.48,15.5,15.5,0,0,1-.41,2.69c-.25,1.13-.54,2.59-.88,4.39a3,3,0,0,0,.28,2.24A3.08,3.08,0,0,0,467,299.9a3.38,3.38,0,0,0,2.16.09,1.66,1.66,0,0,0,1.17-1.08,2.07,2.07,0,0,0,.06-.24,1.55,1.55,0,0,0,0-.22,2.2,2.2,0,0,1-.66.41,1,1,0,0,1-.67,0c-.24-.07-.38-.29-.42-.65a5.62,5.62,0,0,1,.09-1.35c.09-.53.22-1.12.38-1.77s.32-1.29.46-1.95a13.16,13.16,0,0,0,.28-1.88,4,4,0,0,0-.13-1.53,4.09,4.09,0,0,0-1.11-1.79c-.49-.44-1-.85-1.48-1.22a7.62,7.62,0,0,0,2.83-.16,10,10,0,0,0,5.15-3.09,7.12,7.12,0,0,0,1.49-2.59Zm-2.69-1.54a6.49,6.49,0,0,1-1.23,2.1,11.2,11.2,0,0,1-2.13,2,9.2,9.2,0,0,1-2.56,1.29,4.22,4.22,0,0,1-2.58.05,1.83,1.83,0,0,1-.85-.43,1,1,0,0,1,.05-.72l2.7-8.48a3.52,3.52,0,0,1,.64-1.3.72.72,0,0,1,.68-.29c.49.13.81.21.94.26l.35.11a7.12,7.12,0,0,1,3.45,2.14,3.31,3.31,0,0,1,.54,3.28Zm10.43,16.46.08-.26c.13-.41,0-.68-.35-.8a.41.41,0,0,0-.42.07,2.47,2.47,0,0,0-.44.63c-.26.48-.56,1-.89,1.46a5.87,5.87,0,0,1-1.15,1.27,3.7,3.7,0,0,1-1.46.72,3.41,3.41,0,0,1-1.87-.13,2.48,2.48,0,0,1-1.19-.76,3.43,3.43,0,0,1-.6-1.08,3.65,3.65,0,0,1-.2-1.09,2.43,2.43,0,0,1,.07-.79l.34-1.06a4.4,4.4,0,0,0,.94.47,3.17,3.17,0,0,0,2,0,5.86,5.86,0,0,0,1.83-1.07,8.67,8.67,0,0,0,1.46-1.67,7.71,7.71,0,0,0,.9-1.83l.13-.52a3.67,3.67,0,0,0-.28-2.55,3.92,3.92,0,0,0-.79-1,3.07,3.07,0,0,0-1.16-.67,3.41,3.41,0,0,0-2.59.16,7.42,7.42,0,0,0-2.28,1.73,12.75,12.75,0,0,0-1.83,2.58,15.13,15.13,0,0,0-1.19,2.72,11.78,11.78,0,0,0-.53,2.6,5.83,5.83,0,0,0,.26,2.35,4.76,4.76,0,0,0,1.18,1.91,5.56,5.56,0,0,0,2.25,1.29,5.18,5.18,0,0,0,2.79.16,6.27,6.27,0,0,0,2.29-1.07,7.15,7.15,0,0,0,1.7-1.77,7.69,7.69,0,0,0,1-1.94Zm-2.51-7-.07.22a9.24,9.24,0,0,1-.56,1.27,8.51,8.51,0,0,1-1,1.43,4.4,4.4,0,0,1-1.25,1.05,1.67,1.67,0,0,1-1.41.15l-.19,0c-.22-.07-.32-.18-.32-.33a2.51,2.51,0,0,1,.12-.55l0-.1a9.13,9.13,0,0,1,.49-1,12.17,12.17,0,0,1,1-1.57,7.18,7.18,0,0,1,1.29-1.34,1.45,1.45,0,0,1,1.36-.33.64.64,0,0,1,.5.52,1.62,1.62,0,0,1,0,.67Zm7.53,13.68a1.16,1.16,0,0,1-.56.67,3.33,3.33,0,0,1-.95.34,4.37,4.37,0,0,1-1.08.08,3.63,3.63,0,0,1-.86-.13,8,8,0,0,1-1.33-.57,2.79,2.79,0,0,1-1.09-.93A3.56,3.56,0,0,1,483,300a12.52,12.52,0,0,1,.21-2.67,33.6,33.6,0,0,1,.75-3.31c.33-1.2.7-2.44,1.11-3.73q.26-.81.63-1.77c.24-.65.5-1.33.78-2s.57-1.4.87-2.1l.88-2L489,281c.27-.51.54-1,.8-1.44a11.15,11.15,0,0,1,.81-1.19,2.39,2.39,0,0,1,.74-.69,1.51,1.51,0,0,1,.91-.13,4.62,4.62,0,0,1,.93.19,2.12,2.12,0,0,1,1.21.87,3,3,0,0,1,.41,1.44,7.6,7.6,0,0,1-.18,1.83q-.22,1-.57,2.1c-.36,1.12-.78,2.32-1.27,3.6a35.39,35.39,0,0,1-1.71,3.78,26.52,26.52,0,0,1-2.21,3.53,14.3,14.3,0,0,1-2.79,2.86c-.08.35-.17.76-.25,1.23a9.32,9.32,0,0,0-.13,1.35,4,4,0,0,0,.16,1.14,1,1,0,0,0,.64.64,1.11,1.11,0,0,0,.76,0,2.69,2.69,0,0,0,.61-.31c.18-.12.37-.24.54-.33a.77.77,0,0,1,.6,0,.56.56,0,0,1,.42.38,1,1,0,0,1,0,.55Zm2.73-18.06c.08-.24.17-.54.26-.88a8,8,0,0,0,.22-1,4.14,4.14,0,0,0,0-.92.49.49,0,0,0-.29-.48c-.24-.08-.54.21-.91.84a23.59,23.59,0,0,0-1.2,2.58c-.44,1.08-.9,2.32-1.38,3.7s-1,2.81-1.42,4.25l-.41,1.29a8.41,8.41,0,0,0-.31,1.22,21.93,21.93,0,0,0,3.32-5.11,45.94,45.94,0,0,0,2.1-5.45Zm12.33,12.51a2.47,2.47,0,0,0-.46.52c-.17.22-.37.46-.59.71a7.92,7.92,0,0,1-.83.77,4.57,4.57,0,0,1-1.18.65c.13-.41.25-.82.35-1.22s.18-.77.24-1.13c.12-.63.22-1.27.29-1.9a3,3,0,0,0-.14-1.48c-.2-.46-.42-.94-.65-1.43a10.8,10.8,0,0,0-.76-1.35,6.45,6.45,0,0,0-.9-1.09,2.71,2.71,0,0,0-1.08-.67,3.43,3.43,0,0,0-1.12-.14,2.74,2.74,0,0,0-1.29.38,8.25,8.25,0,0,0-1.48,1.22,14.84,14.84,0,0,0-1.62,1.94,24.18,24.18,0,0,0-1.51,2.38,13.9,13.9,0,0,0-1.12,2.58,11.1,11.1,0,0,0-.4,1.63,7.21,7.21,0,0,0-.09,1.74,5.7,5.7,0,0,0,.42,1.77,5.94,5.94,0,0,0,1.12,1.68,5.26,5.26,0,0,0,.58.57,8.6,8.6,0,0,0,.75.56,6.66,6.66,0,0,0,.8.47,4.33,4.33,0,0,0,.72.32,2.94,2.94,0,0,0,1.92,0,5.52,5.52,0,0,0,1.72-1,8,8,0,0,0,1.35-1.38,7.61,7.61,0,0,0,.8-1.28,1.71,1.71,0,0,0,.18-.36l.33-.84c.31-.12.61-.25.91-.4a5.56,5.56,0,0,0,.87-.52,10.76,10.76,0,0,0,1.47-1.25,4.91,4.91,0,0,0,1.14-1.87,1.11,1.11,0,0,0,0-.39.28.28,0,0,0-.18-.3.57.57,0,0,0-.6.09Zm-5.13,1.83h0l-.22.69q-.06.18-.84.3a4.24,4.24,0,0,1-1.85-.23,2.65,2.65,0,0,1-1.79-1.31,3.39,3.39,0,0,1,.1-2.33,6.64,6.64,0,0,1,.78-1.64,6.86,6.86,0,0,1,1.14-1.37,4.41,4.41,0,0,1,1.28-.84,1.7,1.7,0,0,1,1.2-.11,1.26,1.26,0,0,1,.78.72,3.77,3.77,0,0,1,.27,1.23,7.65,7.65,0,0,1-.07,1.49c-.07.53-.17,1-.28,1.5s-.21.89-.31,1.23l-.19.67Zm-1.14,2.94a3.44,3.44,0,0,1-.48.93,3.61,3.61,0,0,1-.84.86,3,3,0,0,1-1.16.5,2.92,2.92,0,0,1-1.47-.13,2.6,2.6,0,0,1-1-.58,2,2,0,0,1-.48-.83,2.74,2.74,0,0,1-.09-.91,3.52,3.52,0,0,1,.16-.88l.28-.75a3.92,3.92,0,0,0,1,.95,6.26,6.26,0,0,0,1.47.63,6.82,6.82,0,0,0,1.32.26,3.44,3.44,0,0,0,1.35-.05Zm18.44,6.24a5.64,5.64,0,0,1-.75,1.09,7.2,7.2,0,0,1-1.18,1.09,4.84,4.84,0,0,1-1.4.74,2.34,2.34,0,0,1-1.48,0,2.72,2.72,0,0,1-1.65-1.46,4.16,4.16,0,0,1-.25-2.69l-.94,1.19a7.05,7.05,0,0,1-1.19,1.19,5.11,5.11,0,0,1-1.36.8,2.21,2.21,0,0,1-1.48,0,1.73,1.73,0,0,1-.32-.14l-.2-.17a3.15,3.15,0,0,0-.27-.19,2.18,2.18,0,0,0-.44-.18,2.17,2.17,0,0,1-1.3-1,4.07,4.07,0,0,1-.51-1.75,8.75,8.75,0,0,1,.08-2.09,12.38,12.38,0,0,1,.46-2A36.71,36.71,0,0,1,504,298.2a17.3,17.3,0,0,1,1.9-3.25,6.93,6.93,0,0,1,2.2-1.95,3,3,0,0,1,2.41-.22,3.75,3.75,0,0,1,1.07.48,5.49,5.49,0,0,1,.62.52l.6.58a4.48,4.48,0,0,0,1,.63,2.78,2.78,0,0,1,.75,1.39,4.24,4.24,0,0,1,0,1.42,8.26,8.26,0,0,1-.4,1.47,7.91,7.91,0,0,0-.4,1.5s0,.08.13.16l.33.29a1.26,1.26,0,0,1,.31.38.59.59,0,0,1,0,.47l0,.15a7,7,0,0,0-1,1.54c-.2.47-.41,1.05-.63,1.73-.11.35-.21.72-.3,1.13a9.19,9.19,0,0,0-.18,1.2,2.64,2.64,0,0,0,.1,1,.82.82,0,0,0,.55.55,1,1,0,0,0,.93-.18,4.63,4.63,0,0,0,.91-.82c.27-.33.53-.67.77-1a5.75,5.75,0,0,0,.47-.81c.15-.28.32-.38.51-.32a.46.46,0,0,1,.28.31,1.16,1.16,0,0,1-.06.76l-.09.28a1.43,1.43,0,0,1-.13.3Zm-4.88-8.08a7.54,7.54,0,0,0,.23-1,4.62,4.62,0,0,0,.07-1.1,2.16,2.16,0,0,0-.29-1,1.55,1.55,0,0,0-.88-.65,2.06,2.06,0,0,0-2,.41,7.74,7.74,0,0,0-1.7,1.87,13.57,13.57,0,0,0-1.3,2.44q-.54,1.31-.78,2.07c-.13.39-.26.87-.4,1.43a14.6,14.6,0,0,0-.29,1.62,4.76,4.76,0,0,0,0,1.37.86.86,0,0,0,.55.74,1.93,1.93,0,0,0,1.89-.3,6.32,6.32,0,0,0,1.52-1.78,19.27,19.27,0,0,0,1.25-2.49c.39-.92.74-1.75,1.07-2.51.18-.4.37-.62.57-.68s.32-.11.34-.15l.1-.33ZM531.14,310l.22-.58a2.88,2.88,0,0,0,.21-.84c0-.3-.07-.48-.29-.55a.49.49,0,0,0-.55.07,1.61,1.61,0,0,0-.31.46,15.87,15.87,0,0,1-2.08,3.59,1.83,1.83,0,0,1-2,.72.85.85,0,0,1-.59-.66,3.61,3.61,0,0,1,0-1.25,13.76,13.76,0,0,1,.36-1.7c.18-.63.37-1.29.59-2l1.18-3.7q.81-2.52,1.62-4.71c.55-1.47,1-2.75,1.47-3.86s.81-2,1.1-2.69.47-1.1.52-1.25a.61.61,0,0,0-.25-.78,5.12,5.12,0,0,0-1.26-.55c-.34-.1-.72-.2-1.14-.28a7.86,7.86,0,0,0-1.31-.13,2.08,2.08,0,0,1,.1.59,4.29,4.29,0,0,1-.05.83,10.18,10.18,0,0,1-.23,1.19c-.12.46-.29,1-.49,1.64l-.38,1.21c-.17.53-.36,1.11-.57,1.73s-.42,1.24-.64,1.87-.4,1.16-.57,1.59l-1-.81a4.91,4.91,0,0,0-1.6-.84,2.16,2.16,0,0,0-1.63.13,6,6,0,0,0-1.6,1.1,10.92,10.92,0,0,0-1.46,1.67c-.46.63-.87,1.24-1.24,1.84a17,17,0,0,0-.88,1.59,9.07,9.07,0,0,0-.42.92l-.19.62c-.09.27-.2.64-.32,1.12a7.08,7.08,0,0,0-.22,1.57,5.77,5.77,0,0,0,.22,1.72,3.53,3.53,0,0,0,.94,1.59c.33.32.65.6,1,.85a3.4,3.4,0,0,0,1,.54,2.3,2.3,0,0,0,1.44,0,3.85,3.85,0,0,0,1.17-.68,5.28,5.28,0,0,0,.94-1.09c.29-.42.54-.81.76-1.16l.1-.18a5.89,5.89,0,0,0,.46,2.65,3.27,3.27,0,0,0,2.05,1.46,2.89,2.89,0,0,0,2-.05,4.93,4.93,0,0,0,1.7-1.15,8.81,8.81,0,0,0,1.31-1.71,13.86,13.86,0,0,0,.9-1.73Zm-6-7.77-.46,1.31c-.15.38-.36.88-.64,1.51s-.6,1.27-1,1.94-.76,1.36-1.17,2a18.82,18.82,0,0,1-1.24,1.78,6,6,0,0,1-1.18,1.19,1.12,1.12,0,0,1-1.05.27.85.85,0,0,1-.58-.58,3,3,0,0,1-.12-1,5.39,5.39,0,0,1,.16-1.16c.1-.39.2-.74.29-1a23.87,23.87,0,0,1,1-2.61,19.44,19.44,0,0,1,1.46-2.64,9.45,9.45,0,0,1,1.66-1.91,1.68,1.68,0,0,1,1.58-.48,1.25,1.25,0,0,1,.41.25,5.44,5.44,0,0,1,.41.42,2.83,2.83,0,0,1,.31.42.45.45,0,0,1,.08.3Zm10.52,14.92a1.19,1.19,0,0,1-.56.67,3.45,3.45,0,0,1-1,.34,4.37,4.37,0,0,1-1.08.08,3.63,3.63,0,0,1-.86-.13,8.57,8.57,0,0,1-1.33-.57,2.91,2.91,0,0,1-1.1-.93,3.66,3.66,0,0,1-.48-1.83,11.82,11.82,0,0,1,.21-2.67,33.6,33.6,0,0,1,.75-3.31c.33-1.2.7-2.44,1.11-3.74.17-.53.38-1.12.62-1.77s.51-1.32.79-2,.57-1.41.87-2.1.6-1.36.88-2c.22-.44.46-.91.73-1.42s.54-1,.8-1.43a10.87,10.87,0,0,1,.81-1.2,2.66,2.66,0,0,1,.74-.69,1.59,1.59,0,0,1,.91-.13,5.07,5.07,0,0,1,.92.2,2.14,2.14,0,0,1,1.22.87,2.86,2.86,0,0,1,.4,1.44,6.71,6.71,0,0,1-.18,1.83c-.14.66-.33,1.36-.56,2.1-.36,1.12-.78,2.32-1.27,3.6a35.39,35.39,0,0,1-1.71,3.78,26.2,26.2,0,0,1-2.22,3.53,14.2,14.2,0,0,1-2.78,2.85c-.09.35-.17.77-.25,1.23a8.31,8.31,0,0,0-.13,1.36,3.59,3.59,0,0,0,.16,1.13.93.93,0,0,0,.64.65,1.11,1.11,0,0,0,.76,0,2.85,2.85,0,0,0,.6-.31,5.7,5.7,0,0,1,.55-.33.77.77,0,0,1,.6,0c.24.08.38.2.42.38a1,1,0,0,1,0,.55Zm2.73-18.06c.08-.24.16-.54.26-.88a6.51,6.51,0,0,0,.21-1,3.57,3.57,0,0,0,0-.91c0-.27-.12-.43-.29-.48s-.55.2-.91.84a22.73,22.73,0,0,0-1.2,2.58c-.44,1.08-.9,2.31-1.39,3.7s-1,2.81-1.41,4.25l-.41,1.29a8.64,8.64,0,0,0-.31,1.21,21.88,21.88,0,0,0,3.32-5.1,47.73,47.73,0,0,0,2.1-5.45Zm8,22.41a.59.59,0,0,0-.18-.72,3.29,3.29,0,0,0-.71-.41l3.45-10.83a.28.28,0,0,0,.3-.18.53.53,0,0,0-.15-.55,3.29,3.29,0,0,0-.62-.5,5,5,0,0,0-.83-.43c-.3-.12-.57-.22-.82-.3-.64,1.33-1.29,2.64-2,3.92s-1.34,2.42-2,3.4a13,13,0,0,1-1.8,2.29c-.56.55-1.06.75-1.5.61s-.57-.61-.45-1.43a27.2,27.2,0,0,1,1-4c.39-1.22.75-2.24,1.06-3.07s.61-1.48.86-2a5.43,5.43,0,0,1,.69-1.11,1.47,1.47,0,0,1,.58-.44l.21-.07a.19.19,0,0,0,.14-.13.85.85,0,0,0-.15-.8,3.13,3.13,0,0,0-.7-.71,6.49,6.49,0,0,0-.84-.53c-.27-.14-.46-.22-.56-.26-.32-.1-.66.11-1,.62a10.57,10.57,0,0,0-1.13,2c-.38.85-.75,1.79-1.1,2.82s-.68,2-1,3c-.07.24-.19.63-.33,1.18a16.42,16.42,0,0,0-.37,1.73,9.27,9.27,0,0,0-.15,1.79,2.46,2.46,0,0,0,.33,1.37,15.34,15.34,0,0,0,1,1.3,2.78,2.78,0,0,0,1.22.87,1.69,1.69,0,0,0,1.38-.16,5.84,5.84,0,0,0,1.33-1.07,11.26,11.26,0,0,0,1.18-1.51c.37-.56.69-1.05,1-1.48l-1.5,4.69a12.57,12.57,0,0,0-3,1.4,16,16,0,0,0-2.7,2.14,16.18,16.18,0,0,0-2.17,2.66,11.68,11.68,0,0,0-1.41,2.89,3,3,0,0,0,0,2.27,4.68,4.68,0,0,0,2,1.7l.41.27c.1.08.18.13.23.18l.17.11a1.43,1.43,0,0,0,.26.11A1,1,0,0,0,537,334a3,3,0,0,1,1.07-.51l.35-.09.55-.16.54-.16.29-.08a2.94,2.94,0,0,0,1.25-.85,6.69,6.69,0,0,0,.94-1.36,9.93,9.93,0,0,0,.68-1.57c.19-.55.36-1.05.51-1.52l1.85-5.81a.37.37,0,0,1,.32,0l.4.07a.92.92,0,0,0,.37,0,.54.54,0,0,0,.28-.36Zm-4.6.51-1.29,4.06-.05.14c-.12.37-.32.93-.61,1.68a18.59,18.59,0,0,1-1.05,2.21,7.74,7.74,0,0,1-1.34,1.79,1.45,1.45,0,0,1-1.53.46,1.11,1.11,0,0,1-.73-.58,2.34,2.34,0,0,1-.19-.84,2.87,2.87,0,0,1,.1-.88c.08-.28.13-.49.17-.61a11.65,11.65,0,0,1,.92-2,16.14,16.14,0,0,1,1.53-2.2,14.74,14.74,0,0,1,1.93-1.94A7.54,7.54,0,0,1,541.77,322Z"/></svg>