<?xml version="1.0" encoding="utf-8"?>
<!-- Generator: Adobe Illustrator 23.0.3, SVG Export Plug-In . SVG Version: 6.00 Build 0)  -->
<svg version="1.1" id="Layer_1" xmlns="http://www.w3.org/2000/svg" xmlns:xlink="http://www.w3.org/1999/xlink" x="0px" y="0px"
	 viewBox="0 0 450 450" style="enable-background:new 0 0 450 450;" xml:space="preserve">
<style type="text/css">
	.st0{fill:none;stroke:#FF6346;stroke-width:4;stroke-miterlimit:10;}
	.st1{fill:none;stroke:#334054;stroke-width:4;stroke-miterlimit:10;}
	.st2{fill:none;stroke:#334054;stroke-width:4;stroke-linejoin:bevel;}
	.st3{fill:#1FBAD6;}
</style>
<title>barcelona</title>
<line class="st0" x1="128.9" y1="355.9" x2="323.3" y2="355.9"/>
<path class="st1" d="M282.2,301.7c-2.2-13.5-7.7-19-16.7-19c-8.7,0-14.3,6.5-16.1,16.8"/>
<polyline class="st1" points="147.4,269.2 145.1,262.3 134.4,294.2 132.3,335.2 139,335.2 "/>
<polyline class="st2" points="212,291.7 201.6,262.1 191.6,291.7 183.4,262.3 173.3,291.7 165.4,261.4 154.9,291.7 147.4,269.2 "/>
<polyline class="st1" points="146.8,265.8 156,238.7 164.6,266.9 "/>
<polyline class="st1" points="166.5,266.7 175.2,238.7 183.1,265.6 "/>
<polyline class="st1" points="184.1,265.7 193.2,238.7 200.7,265.1 "/>
<polyline class="st1" points="202.4,264.6 210.3,238.7 217.2,265.6 "/>
<path class="st1" d="M220.4,335.2h23.3c0,0,2.2-19.4,6.2-38.7c2.8-13.6,7.5-26.8,8.7-34.3c2.7-18-1.1-27.4-1.1-35.1
	c0-8.9,1.3-24.3,7.5-24.3s7.7,13.9,7.7,22.7c0,7.7-3.1,18.7-0.4,36.7c1.1,7.4,6.1,21.4,8.9,35c4,19.3,6,38,6,38h31.4
	c0,0,0.9-41-1.7-46.5s-4.7-14.5-4.7-41.8s-9-103.1-9-103.1s7.3-3.7-1.3-10.4c-7.1,4.9-5.1,8.4-2.8,10.2c0,12-5.4,84.8-5.4,84.8
	c0-27.3-9-103.1-9-103.1s7.3-3.7-1.3-10.4c-7.1,4.8-5.1,8.4-2.8,10.2c0,11.9-3.1,82.3-3.1,82.3l-3-62.1h-19.7l-3,62.1
	c0,0-2.7-70.4-2.7-82.3c2.3-1.8,4.3-5.4-2.8-10.2c-8.6,6.7-1.3,10.4-1.3,10.4s-9,75.8-9,103.1c0,0-5.4-72.8-5.4-84.8
	c2.3-1.9,4.3-5.4-2.8-10.2c-8.6,6.7-1.3,10.4-1.3,10.4s-9,75.8-9,103.1s-2.1,36.3-4.7,41.8s-1.7,46.5-1.7,46.5h-61.7"/>
<circle class="st1" cx="144.4" cy="308.2" r="6.3"/>
<circle class="st1" cx="162.2" cy="308.2" r="6.3"/>
<circle class="st1" cx="181.9" cy="308.2" r="6.3"/>
<circle class="st1" cx="201" cy="308.2" r="6.3"/>
<path class="st3" d="M184.6,125.4c0,1-0.8,1.8-1.8,1.8s-1.8-0.8-1.8-1.8c0-1,0.8-1.8,1.8-1.8c0,0,0,0,0,0
	C183.8,123.6,184.6,124.5,184.6,125.4z"/>
<path class="st3" d="M68.5,232.3c0,1-0.8,1.8-1.8,1.8s-1.8-0.8-1.8-1.8c0-1,0.8-1.8,1.8-1.8c0,0,0,0,0,0
	C67.7,230.5,68.5,231.3,68.5,232.3z"/>
<path class="st3" d="M68.5,269.4c0,1-0.8,1.8-1.8,1.8c-1,0-1.8-0.8-1.8-1.8c0-1,0.8-1.8,1.8-1.8c0,0,0,0,0,0
	C67.7,267.6,68.5,268.4,68.5,269.4z"/>
<path class="st3" d="M145.9,163.1c0,1-0.8,1.8-1.8,1.8c-1,0-1.8-0.8-1.8-1.8s0.8-1.8,1.8-1.8c0,0,0,0,0,0
	C145.1,161.3,145.9,162.1,145.9,163.1z"/>
<path class="st3" d="M29.8,269.4c0,1-0.8,1.8-1.8,1.8c-1,0-1.8-0.8-1.8-1.8c0-1,0.8-1.8,1.8-1.8c0,0,0,0,0,0
	C28.9,267.6,29.7,268.4,29.8,269.4z"/>
<path class="st3" d="M184.6,163.1c0,1-0.8,1.8-1.8,1.8c-1,0-1.8-0.8-1.8-1.8s0.8-1.8,1.8-1.8c0,0,0,0,0,0
	C183.8,161.3,184.6,162.1,184.6,163.1z"/>
<path class="st3" d="M385.1,163.1c0,1-0.8,1.8-1.8,1.8c-1,0-1.8-0.8-1.8-1.8c0-1,0.8-1.8,1.8-1.8c0,0,0,0,0,0
	C384.3,161.3,385.1,162.1,385.1,163.1z"/>
<path class="st3" d="M423.9,163.1c0,1-0.8,1.8-1.8,1.8c-1,0-1.8-0.8-1.8-1.8c0-1,0.8-1.8,1.8-1.8c0,0,0,0,0,0
	C423.1,161.3,423.9,162.1,423.9,163.1z"/>
<path class="st3" d="M68.5,198c0,1-0.8,1.8-1.8,1.8s-1.8-0.8-1.8-1.8c0-1,0.8-1.8,1.8-1.8c0,0,0,0,0,0C67.7,196.2,68.5,197,68.5,198
	L68.5,198z"/>
<path class="st3" d="M107.2,198c0,1-0.8,1.8-1.8,1.8s-1.8-0.8-1.8-1.8c0-1,0.8-1.8,1.8-1.8c0,0,0,0,0,0
	C106.4,196.2,107.2,197,107.2,198L107.2,198z"/>
<path class="st3" d="M145.9,198c0,1-0.8,1.8-1.8,1.8c-1,0-1.8-0.8-1.8-1.8s0.8-1.8,1.8-1.8c0,0,0,0,0,0
	C145.1,196.2,145.9,197,145.9,198C145.9,198,145.9,198,145.9,198z"/>
<path class="st3" d="M184.6,198c0,1-0.8,1.8-1.8,1.8c-1,0-1.8-0.8-1.8-1.8s0.8-1.8,1.8-1.8c0,0,0,0,0,0
	C183.8,196.2,184.6,197,184.6,198C184.6,198,184.6,198,184.6,198z"/>
<path class="st3" d="M107.2,232.3c0,1-0.8,1.8-1.8,1.8s-1.8-0.8-1.8-1.8c0-1,0.8-1.8,1.8-1.8c0,0,0,0,0,0
	C106.4,230.5,107.2,231.3,107.2,232.3z"/>
<path class="st3" d="M145.9,232.3c0,1-0.8,1.8-1.8,1.8c-1,0-1.8-0.8-1.8-1.8s0.8-1.8,1.8-1.8c0,0,0,0,0,0
	C145.1,230.5,145.9,231.3,145.9,232.3z"/>
<path class="st3" d="M107.2,269.4c0,1-0.8,1.8-1.8,1.8c-1,0-1.8-0.8-1.8-1.8c0-1,0.8-1.8,1.8-1.8c0,0,0,0,0,0
	C106.4,267.6,107.2,268.4,107.2,269.4z"/>
<path class="st3" d="M346.4,163.1c0,1-0.8,1.8-1.8,1.8c-1,0-1.8-0.8-1.8-1.8s0.8-1.8,1.8-1.8c0,0,0,0,0,0
	C345.6,161.3,346.4,162.1,346.4,163.1z"/>
<path class="st3" d="M346.4,198c0,1-0.8,1.8-1.8,1.8c-1,0-1.8-0.8-1.8-1.8s0.8-1.8,1.8-1.8c0,0,0,0,0,0
	C345.6,196.2,346.4,197,346.4,198C346.4,198,346.4,198,346.4,198z"/>
<path class="st3" d="M385.1,198c0,1-0.8,1.8-1.8,1.8c-1,0-1.8-0.8-1.8-1.8c0-1,0.8-1.8,1.8-1.8c0,0,0,0,0,0
	C384.3,196.2,385.1,197,385.1,198z"/>
<path class="st3" d="M346.4,232.3c0,1-0.8,1.8-1.8,1.8c-1,0-1.8-0.8-1.8-1.8s0.8-1.8,1.8-1.8c0,0,0,0,0,0
	C345.6,230.5,346.4,231.3,346.4,232.3z"/>
</svg>
