<svg xmlns="http://www.w3.org/2000/svg" viewBox="0 0 450 450"><defs><style>.a{fill:#ffe161;}.b,.c{fill:none;stroke:#1fbad6;stroke-miterlimit:10;stroke-width:2px;}.b{fill-rule:evenodd;}.d{fill:#ccc;}</style></defs><title>barcelona</title><path class="a" d="M255.21,332.21h34.45s-5.09-29.66-6.59-37.15-4.19-9.89-10.18-10.49-9.89,3.6-11.09,9.29S255.21,332.21,255.21,332.21Z"/><polyline class="b" points="217.85 293.46 207.46 259.87 197.46 292.81 190.21 260.05 179.11 291.1 172.28 259.19 160.76 293.66 152.9 260.05 140.28 291.96 138.15 332.92 144.88 332.92"/><polyline class="b" points="153.66 263.52 162.82 236.49 170.48 264.68"/><polyline class="b" points="173.38 264.47 182.02 236.49 188.93 263.37"/><polyline class="b" points="190.94 263.48 199.09 236.49 206.5 262.85"/><polyline class="b" points="208.21 262.4 216.16 236.49 223.06 263.37"/><path class="b" d="M226.21,332.92h23.32s2.23-19.43,6.25-38.7c2.84-13.6,7.56-26.84,8.69-34.28,2.75-18,.31-27.45,1.22-35.08s1.83-24.39,5.19-24.39h.93c3.35,0,4.27,16.77,5.18,24.39s-1.52,17.08,1.22,35.08c1.13,7.41,6.09,21.42,8.92,35,4,19.32,6,38,6,38h31.43s.85-41-1.71-46.51-4.69-14.51-4.69-41.82-9-103.09-9-103.09,7.34-3.71-1.28-10.41c-7.09,4.85-5.09,8.4-2.82,10.24,0,11.95-5.42,84.78-5.42,84.78,0-27.31-9-103.09-9-103.09s7.34-3.71-1.28-10.41c-7.1,4.85-5.09,8.39-2.82,10.24,0,12-5.72,84.91-5.72,84.91l-.39-64.64H260.75v64.64s-5.72-73-5.72-84.91c2.27-1.85,4.27-5.39-2.82-10.24-8.62,6.7-1.28,10.41-1.28,10.41s-9,75.78-9,103.09c0,0-5.42-72.83-5.42-84.78,2.27-1.84,4.27-5.39-2.82-10.24-8.62,6.7-1.28,10.41-1.28,10.41s-9,75.79-9,103.09-2.14,36.27-4.7,41.82-1.7,46.51-1.7,46.51H155.32"/><circle class="c" cx="150.22" cy="305.99" r="6.26"/><circle class="c" cx="168.08" cy="305.99" r="6.26"/><circle class="c" cx="187.8" cy="305.99" r="6.26"/><circle class="c" cx="206.84" cy="305.99" r="6.26"/><path class="d" d="M190.48,123.21a1.81,1.81,0,1,1-1.8-1.8A1.81,1.81,0,0,1,190.48,123.21Z"/><path class="d" d="M74.31,230.05a1.81,1.81,0,1,1-1.8-1.8A1.81,1.81,0,0,1,74.31,230.05Z"/><path class="d" d="M74.31,267.16a1.81,1.81,0,1,1-1.8-1.8A1.81,1.81,0,0,1,74.31,267.16Z"/><path class="d" d="M151.76,160.87a1.81,1.81,0,1,1-1.8-1.8A1.81,1.81,0,0,1,151.76,160.87Z"/><path class="d" d="M35.59,267.16a1.81,1.81,0,1,1-1.8-1.8A1.81,1.81,0,0,1,35.59,267.16Z"/><path class="d" d="M190.48,160.87a1.81,1.81,0,1,1-1.8-1.8A1.81,1.81,0,0,1,190.48,160.87Z"/><path class="d" d="M391,160.87a1.81,1.81,0,1,1-1.8-1.8A1.8,1.8,0,0,1,391,160.87Z"/><path class="d" d="M429.71,160.87a1.81,1.81,0,1,1-1.81-1.8A1.81,1.81,0,0,1,429.71,160.87Z"/><path class="d" d="M74.31,195.74a1.81,1.81,0,1,1-1.8-1.8A1.81,1.81,0,0,1,74.31,195.74Z"/><path class="d" d="M113,195.74a1.81,1.81,0,1,1-1.81-1.8A1.81,1.81,0,0,1,113,195.74Z"/><path class="d" d="M151.76,195.74a1.81,1.81,0,1,1-1.8-1.8A1.81,1.81,0,0,1,151.76,195.74Z"/><path class="d" d="M190.48,195.74a1.81,1.81,0,1,1-1.8-1.8A1.81,1.81,0,0,1,190.48,195.74Z"/><path class="d" d="M113,230.05a1.81,1.81,0,1,1-1.81-1.8A1.81,1.81,0,0,1,113,230.05Z"/><path class="d" d="M151.76,230.05a1.81,1.81,0,1,1-1.8-1.8A1.81,1.81,0,0,1,151.76,230.05Z"/><path class="d" d="M113,267.16a1.81,1.81,0,1,1-1.81-1.8A1.81,1.81,0,0,1,113,267.16Z"/><path class="d" d="M352.26,160.87a1.81,1.81,0,1,1-1.8-1.8A1.81,1.81,0,0,1,352.26,160.87Z"/><path class="d" d="M352.26,195.74a1.81,1.81,0,1,1-1.8-1.8A1.81,1.81,0,0,1,352.26,195.74Z"/><path class="d" d="M391,195.74a1.81,1.81,0,1,1-1.8-1.8A1.8,1.8,0,0,1,391,195.74Z"/><path class="d" d="M352.26,230.05a1.81,1.81,0,1,1-1.8-1.8A1.81,1.81,0,0,1,352.26,230.05Z"/></svg>