<svg xmlns="http://www.w3.org/2000/svg" viewBox="0 0 450 450"><defs><style>.a{fill:#ffe161;}.b,.c{fill:none;stroke:#1fbad6;stroke-miterlimit:10;stroke-width:2px;}.b{fill-rule:evenodd;}.d{fill:#ccc;}</style></defs><title>barcelona</title><path class="a" d="M255.21,354.63h34.45s-5.09-29.66-6.59-37.15-4.19-9.89-10.18-10.49-9.89,3.6-11.09,9.29S255.21,354.63,255.21,354.63Z"/><polyline class="b" points="217.85 315.88 207.46 282.29 197.46 315.23 190.21 282.47 179.11 313.52 172.28 281.61 160.76 316.08 152.9 282.47 140.28 314.38 138.15 355.34 144.88 355.34"/><polyline class="b" points="153.66 285.94 162.82 258.91 170.48 287.1"/><polyline class="b" points="173.38 286.89 182.02 258.91 188.93 285.79"/><polyline class="b" points="190.94 285.9 199.09 258.91 206.5 285.27"/><polyline class="b" points="208.21 284.81 216.16 258.91 223.06 285.79"/><path class="b" d="M226.21,355.34h23.32s2.23-19.43,6.25-38.7c2.84-13.6,7.56-26.84,8.69-34.29,2.75-18,.31-27.44,1.22-35.07s1.83-24.4,5.19-24.4h.93c3.35,0,4.27,16.78,5.18,24.4s-1.52,17.08,1.22,35.07c1.13,7.42,6.09,21.43,8.92,35,4,19.32,6,38,6,38h31.43s.85-41-1.71-46.51-4.69-14.51-4.69-41.82-9-103.09-9-103.09,7.34-3.71-1.28-10.41c-7.09,4.85-5.09,8.39-2.82,10.24,0,11.95-5.42,84.78-5.42,84.78,0-27.31-9-103.09-9-103.09s7.34-3.71-1.28-10.41c-7.1,4.85-5.09,8.39-2.82,10.24,0,11.95-5.72,84.91-5.72,84.91l-.39-64.64H260.75v64.64s-5.72-73-5.72-84.91c2.27-1.85,4.27-5.39-2.82-10.24-8.62,6.7-1.28,10.41-1.28,10.41s-9,75.78-9,103.09c0,0-5.42-72.83-5.42-84.78,2.27-1.85,4.27-5.39-2.82-10.24-8.62,6.7-1.28,10.41-1.28,10.41s-9,75.78-9,103.09-2.14,36.27-4.7,41.82-1.7,46.51-1.7,46.51H155.32"/><circle class="c" cx="150.22" cy="328.41" r="6.26"/><circle class="c" cx="168.08" cy="328.41" r="6.26"/><circle class="c" cx="187.8" cy="328.41" r="6.26"/><circle class="c" cx="206.84" cy="328.41" r="6.26"/><path class="d" d="M190.48,145.63a1.81,1.81,0,1,1-1.8-1.8A1.81,1.81,0,0,1,190.48,145.63Z"/><path class="d" d="M74.31,252.47a1.81,1.81,0,1,1-1.8-1.8A1.81,1.81,0,0,1,74.31,252.47Z"/><path class="d" d="M74.31,289.58a1.81,1.81,0,1,1-1.8-1.8A1.81,1.81,0,0,1,74.31,289.58Z"/><path class="d" d="M151.76,183.29a1.81,1.81,0,1,1-1.8-1.81A1.81,1.81,0,0,1,151.76,183.29Z"/><path class="d" d="M35.59,289.58a1.81,1.81,0,1,1-1.8-1.8A1.81,1.81,0,0,1,35.59,289.58Z"/><path class="d" d="M190.48,183.29a1.81,1.81,0,1,1-1.8-1.81A1.81,1.81,0,0,1,190.48,183.29Z"/><path class="d" d="M391,183.29a1.81,1.81,0,1,1-1.8-1.81A1.8,1.8,0,0,1,391,183.29Z"/><path class="d" d="M429.71,183.29a1.81,1.81,0,1,1-1.81-1.81A1.81,1.81,0,0,1,429.71,183.29Z"/><path class="d" d="M74.31,218.16a1.81,1.81,0,1,1-1.8-1.8A1.81,1.81,0,0,1,74.31,218.16Z"/><path class="d" d="M113,218.16a1.81,1.81,0,1,1-1.81-1.8A1.81,1.81,0,0,1,113,218.16Z"/><path class="d" d="M151.76,218.16a1.81,1.81,0,1,1-1.8-1.8A1.81,1.81,0,0,1,151.76,218.16Z"/><path class="d" d="M190.48,218.16a1.81,1.81,0,1,1-1.8-1.8A1.81,1.81,0,0,1,190.48,218.16Z"/><path class="d" d="M113,252.47a1.81,1.81,0,1,1-1.81-1.8A1.81,1.81,0,0,1,113,252.47Z"/><path class="d" d="M151.76,252.47a1.81,1.81,0,1,1-1.8-1.8A1.81,1.81,0,0,1,151.76,252.47Z"/><path class="d" d="M113,289.58a1.81,1.81,0,1,1-1.81-1.8A1.81,1.81,0,0,1,113,289.58Z"/><path class="d" d="M352.26,183.29a1.81,1.81,0,1,1-1.8-1.81A1.81,1.81,0,0,1,352.26,183.29Z"/><path class="d" d="M352.26,218.16a1.81,1.81,0,1,1-1.8-1.8A1.81,1.81,0,0,1,352.26,218.16Z"/><path class="d" d="M391,218.16a1.81,1.81,0,1,1-1.8-1.8A1.8,1.8,0,0,1,391,218.16Z"/><path class="d" d="M352.26,252.47a1.81,1.81,0,1,1-1.8-1.8A1.81,1.81,0,0,1,352.26,252.47Z"/></svg>