<?xml version="1.0" encoding="utf-8"?>
<!-- Generator: Adobe Illustrator 25.3.1, SVG Export Plug-In . SVG Version: 6.00 Build 0)  -->
<svg version="1.1" id="Layer_1" xmlns="http://www.w3.org/2000/svg" xmlns:xlink="http://www.w3.org/1999/xlink" x="0px" y="0px"
	 viewBox="0 0 1200 282" style="enable-background:new 0 0 1200 282;" xml:space="preserve">
<style type="text/css">
	.st0{fill:none;stroke:#1EB9D5;stroke-width:3;stroke-miterlimit:10;}
	.st1{fill:none;stroke:#1EB9D5;stroke-width:3;stroke-miterlimit:10;stroke-dasharray:11.3025,11.3025;}
	.st2{fill:none;stroke:#1EB9D5;stroke-width:3;stroke-miterlimit:10;stroke-dasharray:11.8999,11.8999;}
	.st3{fill:#1EB9D5;}
</style>
<g>
	<polyline class="st0" points="896.3,208 892.1,208 892.1,66.1 1123.5,66.1 1123.5,68.9 	"/>
	<g>
		<g>
			<line class="st0" x1="1123.5" y1="68.9" x2="1123.5" y2="73"/>
			<line class="st1" x1="1123.5" y1="80.7" x2="1123.5" y2="200.1"/>
			<polyline class="st0" points="1123.5,204 1123.5,208 1119.4,208 			"/>
			<line class="st2" x1="1111.3" y1="208" x2="904.4" y2="208"/>
			<line class="st0" x1="900.4" y1="208" x2="896.3" y2="208"/>
		</g>
	</g>
</g>
<g>
	<path class="st3" d="M923.1,88.9c1.8,0,5.2,0.1,7.6,2c1,0.8,3,2.8,3,6.8c0,1.6-0.3,4.5-3.3,6.5c4.6,1.2,6.3,5.2,6.3,8.3
		s-1.6,5.7-3.3,7.2c-2.6,2-5.7,2.2-7.9,2.2h-8.2v-33H923.1z M920.9,103.4h2.8c1.9,0,6.5-0.4,6.5-5.5c0-5.5-5.3-5.5-6.4-5.5h-2.9
		L920.9,103.4L920.9,103.4z M920.9,118.5h4.2c2.1,0,4.2-0.1,5.8-1.4c1.3-1,2.2-2.6,2.2-4.6c0-2.6-1.6-4.2-2.8-4.8s-3-1-5.6-1H921
		L920.9,118.5L920.9,118.5z"/>
	<path class="st3" d="M960.6,92.4h-13.4v9.8h13.1v3.5h-13.1v12.8h13.4v3.5h-17.1V88.9h17.1V92.4z"/>
	<path class="st3" d="M975.4,92.4v29.5h-3.7V92.4h-8v-3.5h19.7v3.5H975.4z"/>
	<path class="st3" d="M1004.4,112.6h-14l-4,9.3h-4.1l15.2-34.6l14.8,34.6h-4.1L1004.4,112.6z M1002.9,109.1l-5.5-13.2l-5.7,13.2
		H1002.9z"/>
	<path class="st3" d="M917.4,148.3l9.3,25.2l9.3-25.2h4.1l-13.4,35l-13.4-35H917.4z"/>
	<path class="st3" d="M961.9,151.7h-13.4v9.8h13.1v3.5h-13.1v12.8h13.4v3.5h-17.1v-33h17.1V151.7z"/>
	<path class="st3" d="M973.8,148.3c2.2,0,5.5,0.1,8,1.8c1.9,1.3,3.6,3.8,3.6,7.3c0,5-3.3,8.7-8.3,9.1l10.5,14.7h-4.4l-10-14.5h-1
		v14.5h-3.7v-33L973.8,148.3L973.8,148.3z M972.2,163.6h2.3c4.6,0,7.3-2.2,7.3-6.1c0-1.8-0.5-3.7-2.6-4.8c-1.5-0.8-3.1-1-4.8-1h-2.2
		L972.2,163.6L972.2,163.6z"/>
	<path class="st3" d="M1008.1,154.8c-0.5-0.9-1.2-1.9-1.9-2.5c-0.6-0.5-1.8-1.2-3.7-1.2c-3.3,0-5.5,2-5.5,5.1c0,1.3,0.3,2,1.2,2.9
		c1,1,2.2,1.5,3.5,2l3.1,1.4c1.9,0.8,3.7,1.7,5.1,3.1c1.7,1.7,2.4,3.6,2.4,6c0,6.1-4.5,10.2-10.4,10.2c-2.2,0-4.9-0.5-7.2-2.7
		c-1.6-1.6-2.6-3.9-3.1-5.9l3.5-1c0.3,1.7,1,3.2,2,4.2c1.4,1.4,3.1,1.8,4.8,1.8c4.5,0,6.6-3.2,6.6-6.5c0-1.5-0.5-2.8-1.6-3.9
		c-1-0.9-2.2-1.5-4-2.2l-3-1.4c-1.3-0.6-2.9-1.3-4.4-2.7c-1.4-1.4-2.2-2.9-2.2-5.4c0-5.1,3.9-8.5,9.3-8.5c2,0,3.7,0.4,5.3,1.5
		c1.4,0.9,2.5,2.2,3.2,3.7L1008.1,154.8z"/>
	<path class="st3" d="M1022.7,148.3v33.1h-3.7v-33L1022.7,148.3L1022.7,148.3z"/>
	<path class="st3" d="M1029.5,164.8c0-9.8,7.7-17,17.2-17c9.5,0,17.2,7.2,17.2,17c0,9.8-7.6,17-17.2,17
		C1037,181.9,1029.5,174.6,1029.5,164.8z M1033.2,164.8c0,7.6,6,13.6,13.4,13.6s13.4-6.1,13.4-13.6c0-7.6-6-13.6-13.4-13.6
		S1033.2,157.3,1033.2,164.8z"/>
	<path class="st3" d="M1070.5,181.3v-34.4l25.8,27v-25.6h3.7v34.5l-25.8-27v25.5H1070.5z"/>
</g>
<line class="st0" x1="892.1" y1="66.1" x2="0.3" y2="66.1"/>
</svg>
