<?xml version="1.0" encoding="utf-8"?>
<!-- Generator: Adobe Illustrator 25.3.1, SVG Export Plug-In . SVG Version: 6.00 Build 0)  -->
<svg version="1.1" id="Layer_1" xmlns="http://www.w3.org/2000/svg" xmlns:xlink="http://www.w3.org/1999/xlink" x="0px" y="0px"
	 viewBox="0 0 1147.6 159.1" style="enable-background:new 0 0 1147.6 159.1;" xml:space="preserve">
<style type="text/css">
	.st0{fill:none;stroke:#1EB9D5;stroke-width:2;stroke-miterlimit:10;}
	.st1{fill:none;stroke:#1EB9D5;stroke-width:2;stroke-miterlimit:10;stroke-dasharray:8;}
	.st2{fill:#1EB9D5;}
</style>
<g>
	<polyline class="st0" points="953.8,133.9 950.7,133.9 950.7,27.9 1123.5,27.9 1123.5,30 	"/>
	<g>
		<g>
			<line class="st1" x1="1123.5" y1="30" x2="1123.5" y2="33.1"/>
			<line class="st1" x1="1123.5" y1="38.8" x2="1123.5" y2="128"/>
			<polyline class="st1" points="1123.5,130.9 1123.5,133.9 1120.4,133.9 			"/>
			<line class="st1" x1="1114.4" y1="133.9" x2="959.9" y2="133.9"/>
			<line class="st1" x1="956.9" y1="133.9" x2="953.8" y2="133.9"/>
		</g>
	</g>
</g>
<g>
	<path class="st2" d="M973.9,44.9c1.4,0,3.9,0.1,5.7,1.5c0.8,0.6,2.2,2.1,2.2,5.1c0,1.2-0.3,3.4-2.4,4.8c3.5,0.9,4.7,3.9,4.7,6.2
		c0,2.3-1.2,4.3-2.5,5.3c-1.9,1.5-4.2,1.6-5.9,1.6h-6.2V44.9H973.9z M972.2,55.8h2.1c1.4,0,4.8-0.3,4.8-4.1c0-4.1-4-4.1-4.8-4.1
		h-2.1L972.2,55.8L972.2,55.8z M972.2,67h3.2c1.6,0,3.2-0.1,4.3-1c1-0.7,1.6-1.9,1.6-3.4c0-1.9-1.2-3.1-2.1-3.6
		c-0.9-0.5-2.2-0.8-4.2-0.8h-2.8L972.2,67L972.2,67z"/>
	<path class="st2" d="M1001.8,47.5h-10v7.3h9.8v2.6h-9.8V67h10v2.6H989V44.9h12.8V47.5z"/>
	<path class="st2" d="M1012.9,47.5v22h-2.7v-22h-6v-2.6h14.7v2.6H1012.9z"/>
	<path class="st2" d="M1034.5,62.7h-10.5l-3,6.9h-3.1l11.4-25.8l11,25.8h-3.1L1034.5,62.7z M1033.4,60.1l-4.1-9.9l-4.2,9.9H1033.4z"
		/>
	<path class="st2" d="M969.6,89.3l6.9,18.8l6.9-18.8h3.1l-10,26.1l-10-26.1H969.6z"/>
	<path class="st2" d="M1002.8,91.9h-10v7.3h9.8v2.6h-9.8v9.6h10v2.6H990V89.3h12.8V91.9z"/>
	<path class="st2" d="M1011.7,89.3c1.7,0,4.1,0.1,6,1.4c1.4,1,2.7,2.9,2.7,5.4c0,3.8-2.5,6.5-6.2,6.8l7.8,11h-3.3l-7.5-10.8h-0.7
		V114h-2.7V89.3L1011.7,89.3L1011.7,89.3z M1010.5,100.7h1.7c3.4,0,5.4-1.6,5.4-4.5c0-1.4-0.4-2.7-1.9-3.6c-1.1-0.6-2.3-0.7-3.6-0.7
		h-1.7V100.7L1010.5,100.7z"/>
	<path class="st2" d="M1037.3,94.2c-0.4-0.7-0.9-1.4-1.4-1.8c-0.5-0.4-1.4-0.9-2.7-0.9c-2.4,0-4.1,1.5-4.1,3.8c0,1,0.3,1.5,0.9,2.1
		c0.8,0.8,1.7,1.1,2.6,1.5l2.3,1c1.4,0.6,2.7,1.3,3.8,2.3c1.3,1.3,1.8,2.7,1.8,4.5c0,4.5-3.4,7.6-7.8,7.6c-1.6,0-3.7-0.4-5.3-2
		c-1.2-1.2-1.9-2.9-2.3-4.4l2.6-0.8c0.2,1.3,0.8,2.4,1.5,3.2c1.1,1.1,2.3,1.4,3.6,1.4c3.4,0,4.9-2.4,4.9-4.9c0-1.1-0.4-2.1-1.2-2.9
		c-0.7-0.7-1.7-1.1-3-1.7l-2.2-1c-1-0.5-2.2-1-3.3-2c-1.1-1-1.7-2.2-1.7-4c0-3.8,2.9-6.4,6.9-6.4c1.5,0,2.7,0.3,4,1.1
		c1,0.7,1.8,1.7,2.4,2.7L1037.3,94.2z"/>
	<path class="st2" d="M1048.2,89.3V114h-2.7V89.3L1048.2,89.3L1048.2,89.3z"/>
	<path class="st2" d="M1053.3,101.7c0-7.3,5.8-12.7,12.8-12.7s12.8,5.4,12.8,12.7s-5.7,12.7-12.8,12.7
		C1058.9,114.4,1053.3,109,1053.3,101.7z M1056.1,101.7c0,5.7,4.5,10.2,10,10.2c5.5,0,10-4.5,10-10.2s-4.5-10.2-10-10.2
		C1060.6,91.5,1056.1,96,1056.1,101.7z"/>
	<path class="st2" d="M1083.9,114V88.3l19.2,20.2V89.3h2.7v25.8l-19.2-20.2v19H1083.9z"/>
</g>
<line class="st0" x1="950.7" y1="27.9" x2="-1.2" y2="27.9"/>
</svg>
