<?xml version="1.0" encoding="utf-8"?>
<!-- Generator: Adobe Illustrator 25.3.1, SVG Export Plug-In . SVG Version: 6.00 Build 0)  -->
<svg version="1.1" id="Layer_1" xmlns="http://www.w3.org/2000/svg" xmlns:xlink="http://www.w3.org/1999/xlink" x="0px" y="0px"
	 viewBox="0 0 300 93.6" style="enable-background:new 0 0 300 93.6;" xml:space="preserve">
<style type="text/css">
	.st0{fill:#1EB9D5;}
	.st1{fill:none;stroke:#1EB9D5;stroke-width:2;stroke-miterlimit:10;}
</style>
<g>
	<path class="st0" d="M47.6,32.9c1.3,0,3.8,0.1,5.5,1.5c0.8,0.5,2.1,2.1,2.1,5c0,1.2-0.3,3.3-2.4,4.7c3.4,0.8,4.6,3.8,4.6,6.1
		c0,2.3-1.2,4.2-2.5,5.2c-2,1.5-4.1,1.6-5.8,1.6h-6V32.9H47.6z M45.9,43.5H48c1.4,0,4.7-0.3,4.7-4c0-4-3.9-4-4.6-4h-2.1V43.5z
		 M45.9,54.5H49c1.5,0,3.1-0.1,4.3-1c1-0.7,1.6-1.9,1.6-3.3c0-2-1.2-3-2.1-3.6c-0.9-0.5-2.1-0.7-4.1-0.7h-2.9V54.5z"/>
	<path class="st0" d="M75,35.4h-9.8v7.1h9.6V45h-9.6v9.5H75V57H62.5V32.9h12.6L75,35.4L75,35.4z"/>
	<path class="st0" d="M85.9,35.4V57h-2.7V35.4h-5.9v-2.5h14.5v2.5H85.9z"/>
	<path class="st0" d="M107.2,50.2H96.8L94,57H91l11.2-25.4L113,57H110L107.2,50.2z M106.1,47.7l-4-9.6L98,47.7H106.1z"/>
	<path class="st0" d="M125,32.9l6.8,18.5l6.8-18.5h2.9l-9.8,25.6l-9.8-25.6H125z"/>
	<path class="st0" d="M157.6,35.4h-9.8v7.1h9.6V45h-9.6v9.5h9.8V57H145V32.9h12.6V35.4z"/>
	<path class="st0" d="M166.4,32.9c1.6,0,4,0.1,5.9,1.3c1.4,1,2.7,2.8,2.7,5.4c0,3.7-2.4,6.4-6.1,6.7l7.7,10.8h-3.3l-7.4-10.6h-0.7
		v10.6h-2.7V32.9H166.4z M165.2,44h1.7c3.3,0,5.4-1.6,5.4-4.5c0-1.3-0.4-2.7-2-3.6c-1.1-0.6-2.3-0.7-3.5-0.7h-1.6V44z"/>
	<path class="st0" d="M191.5,37.6c-0.4-0.6-0.9-1.3-1.4-1.8c-0.4-0.4-1.3-0.8-2.7-0.8c-2.4,0-4,1.5-4,3.8c0,1,0.3,1.5,0.9,2.1
		c0.7,0.7,1.6,1.2,2.5,1.5l2.3,1c1.4,0.6,2.7,1.3,3.8,2.3c1.3,1.3,1.8,2.7,1.8,4.4c0,4.5-3.3,7.4-7.7,7.4c-1.6,0-3.6-0.4-5.3-2
		c-1.2-1.2-2-2.9-2.2-4.3l2.6-0.7c0.2,1.3,0.8,2.3,1.4,3.1c1.1,1.1,2.2,1.3,3.5,1.3c3.3,0,4.8-2.3,4.8-4.8c0-1.1-0.4-2.1-1.2-2.9
		c-0.7-0.6-1.6-1.1-2.9-1.7l-2.1-1c-1-0.4-2.1-1-3.2-2c-1.1-1-1.7-2.1-1.7-3.9c0-3.8,2.9-6.3,6.8-6.3c1.5,0,2.7,0.3,3.8,1.1
		c1,0.6,1.8,1.6,2.3,2.7L191.5,37.6z"/>
	<path class="st0" d="M202.1,32.9v24.2h-2.7V32.9H202.1z"/>
	<path class="st0" d="M207.1,44.9c0-7.2,5.6-12.5,12.6-12.5c7,0,12.6,5.3,12.6,12.5c0,7.1-5.6,12.5-12.6,12.5
		C212.7,57.4,207.1,52.2,207.1,44.9z M209.9,44.9c0,5.5,4.4,10,9.8,10s9.8-4.5,9.8-10s-4.4-10-9.8-10S209.9,39.4,209.9,44.9z"/>
	<path class="st0" d="M237.3,57.1V31.8l18.8,19.7V32.8h2.7v25.3l-18.8-19.7V57L237.3,57.1L237.3,57.1z"/>
</g>
<g>
	<g>
		<g>
			<g>
				<g>
					<path class="st1" d="M15.7,68.4V21.8c0-5.2,4.2-9.4,9.4-9.4h251.7c5.2,0,9.4,4.2,9.4,9.4v46.6c0,5.2-4.2,9.4-9.4,9.4H25.2
						C20,77.8,15.7,73.6,15.7,68.4z"/>
				</g>
			</g>
		</g>
	</g>
</g>
</svg>
