<?xml version="1.0" encoding="utf-8"?>
<!-- Generator: Adobe Illustrator 25.0.0, SVG Export Plug-In . SVG Version: 6.00 Build 0)  -->
<svg version="1.1" id="Layer_1" xmlns="http://www.w3.org/2000/svg" xmlns:xlink="http://www.w3.org/1999/xlink" x="0px" y="0px"
	 viewBox="0 0 554.8 500" style="enable-background:new 0 0 554.8 500;" xml:space="preserve">
<style type="text/css">
	.st0{fill:#334054;}
	.st1{fill:#4C5D75;}
	.st2{fill:none;stroke:#1FBAD6;stroke-width:2;stroke-miterlimit:10;}
	.st3{fill:none;stroke:#FFE161;stroke-width:2;stroke-miterlimit:10;}
	.st4{fill:none;stroke:#047989;stroke-width:2;stroke-miterlimit:10;}
	.st5{fill:none;stroke:#FF6346;stroke-width:2;stroke-miterlimit:10;}
	.st6{fill:#FF6346;}
	.st7{fill:none;stroke:#FFFFFF;stroke-width:2;stroke-miterlimit:10;}
</style>
<g id="Layer_3">
	<path class="st0" d="M261.5,271.3c19.4,1,51-32,92.1-33.6s94.1,24.4,93.3,130.6s-93.1,67.3-145,54.1c-31.7-8.1-51.8-11.7-75.9-9.4
		s-47.3,22.5-74.4,21.7s-68.8-27.3-8.3-108.7S226,269.4,261.5,271.3z"/>
	<g>
		<path class="st1" d="M469.3,345.4c0,0.9,0.7,1.7,1.6,1.7s1.7-0.7,1.7-1.6s-0.7-1.7-1.6-1.7l0,0l0,0
			C470.1,343.8,469.3,344.5,469.3,345.4L469.3,345.4z"/>
		<path class="st1" d="M507.4,311.7c0,0.9,0.7,1.6,1.7,1.6c0.9,0,1.7-0.7,1.7-1.7c0-0.9-0.7-1.6-1.7-1.6l0,0l0,0
			C508.1,310,507.4,310.8,507.4,311.7L507.4,311.7z"/>
		<path class="st1" d="M469.3,311.7c0,0.9,0.7,1.6,1.7,1.6c0.9,0,1.7-0.7,1.7-1.7c0-0.9-0.7-1.6-1.7-1.6l0,0l0,0
			C470.1,310,469.3,310.8,469.3,311.7L469.3,311.7z"/>
		<path class="st1" d="M542.7,275.6c0,0.9,0.7,1.6,1.7,1.6c0.9,0,1.7-0.7,1.7-1.7c0-0.9-0.7-1.6-1.7-1.6l0,0l0,0
			C543.5,274,542.7,274.7,542.7,275.6L542.7,275.6z"/>
		<path class="st1" d="M507.4,275.6c0,0.9,0.7,1.6,1.7,1.6c0.9,0,1.7-0.7,1.7-1.7c0-0.9-0.7-1.6-1.7-1.6l0,0l0,0
			C508.1,274,507.4,274.7,507.4,275.6L507.4,275.6z"/>
		<path class="st1" d="M507.4,239.6c0,0.9,0.7,1.6,1.7,1.6s1.7-0.7,1.7-1.7c0-0.9-0.7-1.6-1.7-1.6l0,0l0,0
			C508.1,237.9,507.4,238.7,507.4,239.6L507.4,239.6z"/>
		<path class="st1" d="M469.3,275.6c0,0.9,0.7,1.6,1.7,1.6c0.9,0,1.7-0.7,1.7-1.7c0-0.9-0.7-1.6-1.7-1.6l0,0l0,0
			C470.1,274,469.3,274.7,469.3,275.6L469.3,275.6z"/>
		<path class="st1" d="M469.3,239.6c0.1,0.9,0.9,1.6,1.8,1.5c0.8-0.1,1.5-0.7,1.5-1.5c0-0.9-0.7-1.6-1.7-1.6l0,0l0,0
			C470.1,237.9,469.3,238.7,469.3,239.6L469.3,239.6z"/>
		<path class="st1" d="M434,239.6c0,0.9,0.7,1.6,1.7,1.6s1.7-0.7,1.7-1.7c0-0.9-0.7-1.6-1.7-1.6l0,0l0,0
			C434.7,237.9,434,238.7,434,239.6L434,239.6z"/>
		<path class="st1" d="M469.3,203.3c0,0.9,0.7,1.6,1.7,1.6s1.7-0.7,1.7-1.7c0-0.9-0.7-1.6-1.7-1.6l0,0l0,0
			C470.1,201.7,469.3,202.4,469.3,203.3L469.3,203.3z"/>
		<path class="st1" d="M434,203.3c0,0.9,0.7,1.6,1.7,1.6s1.7-0.7,1.7-1.7c0-0.9-0.7-1.6-1.7-1.6l0,0l0,0
			C434.7,201.7,434,202.4,434,203.3L434,203.3z"/>
		<path class="st1" d="M395.1,203.3c0,0.9,0.7,1.6,1.7,1.6s1.7-0.7,1.7-1.7c0-0.9-0.7-1.6-1.7-1.6l0,0l0,0
			C395.8,201.7,395.1,202.4,395.1,203.3L395.1,203.3z"/>
		<path class="st1" d="M395.1,167.3c0,0.9,0.7,1.6,1.7,1.6s1.7-0.7,1.7-1.7c0-0.9-0.7-1.6-1.7-1.6l0,0l0,0
			C395.8,165.6,395.1,166.3,395.1,167.3C395.1,167.2,395.1,167.3,395.1,167.3z"/>
		<path class="st1" d="M359.7,203.3c0,0.9,0.7,1.7,1.7,1.7s1.7-0.7,1.7-1.6s-0.7-1.6-1.7-1.7l0,0
			C360.5,201.7,359.7,202.4,359.7,203.3L359.7,203.3z"/>
		<path class="st1" d="M359.7,167.3c0,0.9,0.7,1.6,1.7,1.6s1.7-0.7,1.7-1.7c0-0.9-0.7-1.6-1.7-1.6l0,0l0,0
			C360.5,165.6,359.7,166.3,359.7,167.3C359.7,167.2,359.7,167.3,359.7,167.3z"/>
		<path class="st1" d="M323.6,167.3c0,0.9,0.7,1.7,1.7,1.7s1.7-0.7,1.7-1.6s-0.7-1.6-1.7-1.7l0,0
			C324.4,165.6,323.6,166.3,323.6,167.3C323.6,167.2,323.6,167.2,323.6,167.3z"/>
		<path class="st1" d="M359.7,131.2c0,0.9,0.7,1.6,1.7,1.6c0.9,0,1.7-0.7,1.7-1.7c0-0.9-0.7-1.6-1.7-1.6l0,0l0,0
			C360.5,129.5,359.7,130.3,359.7,131.2L359.7,131.2z"/>
		<path class="st1" d="M469.3,377.2c0,0.9,0.7,1.6,1.7,1.6c0.9,0,1.7-0.7,1.7-1.7c0-0.9-0.7-1.6-1.7-1.6l0,0l0,0
			C470.1,375.6,469.4,376.3,469.3,377.2z"/>
	</g>
</g>
<path class="st2" d="M284.6,110c6.1,9.2,18.1,27.8,19.5,40.7c3.6,33-20.6,55-44.6,57.6s-46.2-22.1-49.8-55.1"/>
<path class="st2" d="M233.9,222.9c0,0,1.4-4.3,1.9-11.7"/>
<path class="st2" d="M286,219.4c0,0-5-6.5-3.3-20"/>
<path class="st3" d="M190.7,333.2c-0.3-1-0.5-2-0.8-3.1c-2.9-11.7-0.8-18.1-2-24.9c-2.3-12.6-16.1-8.8-13.5,2.9
	c2.6,11.7,4.2,16.1-0.4,20.3c-5.8,5.2-10.4,12.7-10.4,12.7"/>
<path class="st3" d="M346.4,324.9c0,0,2-3.5,4.9-15.2s0.8-18.1,2-24.9c2.3-12.6,16.1-8.8,13.5,2.9c-2.6,11.7-4.2,16.1,0.4,20.3
	c1,0.9,1.9,1.8,2.8,2.8"/>
<path class="st4" d="M220.3,234.6c0,0-56.8,36.7-83.4,85.8c-25.9,47.8-32,84.5-8.1,105.6c23.1,20.4,49.9-7.5,49.9-7.5
	s19.5-17.5,27.7,6.4c0.6,1.7,16-19.9,163.5,1.6"/>
<path class="st4" d="M281.6,239.2c0.9,1.3,1.8,3,2.3,5.1c2.3,8,6.1,13.9,6.1,13.9s0,0,1.3-4.6s12.6-24.8,12.6-24.8s-9.7-9-15.3-12.2
	c-3.7,3.3-16.7,19.7-17.9,28.2c-1.9,13.1-19.5,16.6-19.5,16.6s0.1-16.8-5.2-23.3s-9.3-10.9-13.8-17.6c-7.3,3-13.3,10.5-13.3,10.5
	s10.6,12.9,15.1,24.7c4-1.6,3.8-5.3,5.5-9.8c2.2-5.8,7.8-5.8,7.8-5.8"/>
<path class="st4" d="M319.3,228.8c8.5-0.1,19.9,1,33.3,5.1c29.4,9,50.2,31.6,59.4,53.1s37.1,108.6-6.1,125
	c-30,11.4-39.3-14.1-39.3-14.1"/>
<path class="st4" d="M225,107.5c0,0,11.7,20.8,44.9,1.6s41.3-13.9,41.3-13.9s-8.1-20.8-25.7-26.1s-37.4,10.2-37.4,10.2
	s8-16.3,15.2-18.3c-7.5-4.5-23.3,2.4-35,11.4s-31.7-3.7-36.2,27.3s7.5,53.8,9.3,56.7c0.4,0.7,1,1.7,1.7,2.5"/>
<path class="st5" d="M241.3,175c0,0-1.5,13,18.5,11.7c8.7,0,18.8-6.9,18.8-6.9"/>
<path class="st6" d="M295.2,121.3l3,4.7c0.8,1.2,2,1.9,3.4,2l5.5,0.2c3.5,0.1,5.4,4.3,3.1,7l-3.5,4.3c-0.9,1.1-1.2,2.5-0.8,3.9
	l1.5,5.3c1,3.4-2.4,6.4-5.7,5.1l-5.1-2c-1.3-0.5-2.8-0.4-3.9,0.4l-4.6,3.1c-2.9,2-6.8-0.3-6.6-3.8l0.4-5.5c0.1-1.4-0.5-2.8-1.6-3.6
	L276,139c-2.8-2.2-1.8-6.6,1.6-7.5l5.4-1.4c1.4-0.3,2.5-1.3,2.9-2.7l1.9-5.2C288.8,118.8,293.3,118.3,295.2,121.3z"/>
<path class="st6" d="M250,125l3,4.7c0.8,1.2,2,1.9,3.4,2l5.5,0.2c3.5,0.1,5.4,4.3,3.1,7l-3.5,4.3c-0.9,1.1-1.2,2.5-0.8,3.9l1.5,5.3
	c1,3.4-2.4,6.4-5.7,5.1l-5.1-2c-1.3-0.5-2.8-0.4-3.9,0.4l-4.6,3.1c-2.9,2-6.8-0.3-6.6-3.8l0.4-5.5c0.1-1.4-0.5-2.8-1.6-3.6l-4.3-3.4
	c-2.8-2.2-1.8-6.6,1.6-7.5l5.4-1.4c1.4-0.3,2.5-1.3,2.9-2.7l1.9-5.2C243.6,122.5,248.1,122,250,125z"/>
<path class="st5" d="M259.6,138.2c0,0,8.5-8.4,20.9-2.4"/>
<path class="st5" d="M230.9,139.5c0,0-31,8.3-35,10.4c-4.1,2-10.2,7.3,5.7,26.4"/>
<path class="st7" d="M234.5,137.5l5.4-1.4c1.4-0.3,2.5-1.3,2.9-2.7l1.9-5.2"/>
<path class="st7" d="M279.8,133.9l5.4-1.4c1.4-0.3,2.5-1.3,2.9-2.7l1.9-5.2"/>
<path class="st3" d="M172.7,359.5c0,0,6.2,1.2,13.5,2.1s16.2,0.5,14.5-9.2c-1.8-9.7-17.1-11.7-30.3-12s-15.5,5.6-16.4,9.1
	c0,0-4.1,19.2-0.8,34.2c3.2,15,5.2,18,12.6,19.5c7.3,1.5,17.3,0.9,21.4-2.1c4.1-2.9,3.1-8.5,3.1-8.5"/>
<path class="st3" d="M165.4,391.2c0,0,17.9,2.3,26.7,0.6s7.1-13-1.5-13.2c-7.7-0.2-23.2-2.6-23.2-2.6"/>
<path class="st3" d="M193.8,361.6c0,0,6.9,1.7,6.9,9s-7.1,8.2-7.1,8.2"/>
<path class="st3" d="M368.5,339c0,0-6.2,1.2-13.5,2.1s-16.2,0.5-14.5-9.2c1.8-9.7,17.1-11.7,30.3-12s15.5,5.6,16.4,9.1
	c0,0,4.1,19.2,0.8,34.2c-3.2,15-5.2,18-12.6,19.5c-7.3,1.5-17.3,0.9-21.4-2.1c-4.1-2.9-3.1-8.5-3.1-8.5"/>
<path class="st3" d="M375.8,370.7c0,0-17.9,2.3-26.7,0.6c-8.8-1.8-7.1-13,1.5-13.2c7.7-0.2,23.2-2.6,23.2-2.6"/>
<path class="st3" d="M348.3,341.3c0,0-7.7,1.6-7.7,8.9s8.4,8.2,8.4,8.2"/>
</svg>
