<?xml version="1.0" encoding="utf-8"?>
<!-- Generator: Adobe Illustrator 25.0.0, SVG Export Plug-In . SVG Version: 6.00 Build 0)  -->
<svg version="1.1" id="Layer_1" xmlns="http://www.w3.org/2000/svg" xmlns:xlink="http://www.w3.org/1999/xlink" x="0px" y="0px"
	 viewBox="0 0 500 500" style="enable-background:new 0 0 500 500;" xml:space="preserve">
<style type="text/css">
	.st0{fill:#334054;}
	.st1{fill:#4C5D75;}
	.st2{fill:none;stroke:#1FBAD6;stroke-width:2;stroke-miterlimit:10;}
	.st3{fill:none;stroke:#FFE161;stroke-width:2;stroke-miterlimit:10;}
	.st4{fill:none;stroke:#047989;stroke-width:2;stroke-miterlimit:10;}
	.st5{fill:none;stroke:#FF6346;stroke-width:2;stroke-miterlimit:10;}
	.st6{fill:#FF6346;}
	.st7{fill:none;stroke:#FFFFFF;stroke-width:2;stroke-miterlimit:10;}
</style>
<g id="Layer_3">
	<path class="st0" d="M200.1,271.3c19.4,1,51-32,92.1-33.6s94.1,24.4,93.3,130.6s-93.1,67.3-145,54.1c-31.7-8.1-51.8-11.7-75.9-9.4
		s-47.3,22.5-74.4,21.7S21.4,407.4,81.9,326S164.6,269.4,200.1,271.3z"/>
	<g>
		<path class="st1" d="M407.9,345.4c0,0.9,0.7,1.7,1.6,1.7s1.7-0.7,1.7-1.6s-0.7-1.7-1.6-1.7l0,0l0,0
			C408.7,343.8,407.9,344.5,407.9,345.4L407.9,345.4z"/>
		<path class="st1" d="M446,311.7c0,0.9,0.7,1.6,1.7,1.6c0.9,0,1.7-0.7,1.7-1.7c0-0.9-0.7-1.6-1.7-1.6l0,0l0,0
			C446.7,310,446,310.8,446,311.7L446,311.7z"/>
		<path class="st1" d="M407.9,311.7c0,0.9,0.7,1.6,1.7,1.6c0.9,0,1.7-0.7,1.7-1.7c0-0.9-0.7-1.6-1.7-1.6l0,0l0,0
			C408.7,310,407.9,310.8,407.9,311.7L407.9,311.7z"/>
		<path class="st1" d="M481.3,275.6c0,0.9,0.7,1.6,1.7,1.6c0.9,0,1.7-0.7,1.7-1.7c0-0.9-0.7-1.6-1.7-1.6l0,0l0,0
			C482.1,274,481.3,274.7,481.3,275.6L481.3,275.6z"/>
		<path class="st1" d="M446,275.6c0,0.9,0.7,1.6,1.7,1.6c0.9,0,1.7-0.7,1.7-1.7c0-0.9-0.7-1.6-1.7-1.6l0,0l0,0
			C446.7,274,446,274.7,446,275.6L446,275.6z"/>
		<path class="st1" d="M446,239.6c0,0.9,0.7,1.6,1.7,1.6s1.7-0.7,1.7-1.7c0-0.9-0.7-1.6-1.7-1.6l0,0l0,0
			C446.7,237.9,446,238.7,446,239.6L446,239.6z"/>
		<path class="st1" d="M407.9,275.6c0,0.9,0.7,1.6,1.7,1.6c0.9,0,1.7-0.7,1.7-1.7c0-0.9-0.7-1.6-1.7-1.6l0,0l0,0
			C408.7,274,407.9,274.7,407.9,275.6L407.9,275.6z"/>
		<path class="st1" d="M407.9,239.6c0.1,0.9,0.9,1.6,1.8,1.5c0.8-0.1,1.5-0.7,1.5-1.5c0-0.9-0.7-1.6-1.7-1.6l0,0l0,0
			C408.7,237.9,407.9,238.7,407.9,239.6L407.9,239.6z"/>
		<path class="st1" d="M372.6,239.6c0,0.9,0.7,1.6,1.7,1.6s1.7-0.7,1.7-1.7c0-0.9-0.7-1.6-1.7-1.6l0,0l0,0
			C373.3,237.9,372.6,238.7,372.6,239.6L372.6,239.6z"/>
		<path class="st1" d="M407.9,203.3c0,0.9,0.7,1.6,1.7,1.6s1.7-0.7,1.7-1.7c0-0.9-0.7-1.6-1.7-1.6l0,0l0,0
			C408.7,201.7,407.9,202.4,407.9,203.3L407.9,203.3z"/>
		<path class="st1" d="M372.6,203.3c0,0.9,0.7,1.6,1.7,1.6s1.7-0.7,1.7-1.7c0-0.9-0.7-1.6-1.7-1.6l0,0l0,0
			C373.3,201.7,372.6,202.4,372.6,203.3L372.6,203.3z"/>
		<path class="st1" d="M333.7,203.3c0,0.9,0.7,1.6,1.7,1.6s1.7-0.7,1.7-1.7c0-0.9-0.7-1.6-1.7-1.6l0,0l0,0
			C334.4,201.7,333.7,202.4,333.7,203.3L333.7,203.3z"/>
		<path class="st1" d="M333.7,167.3c0,0.9,0.7,1.6,1.7,1.6s1.7-0.7,1.7-1.7c0-0.9-0.7-1.6-1.7-1.6l0,0l0,0
			C334.4,165.6,333.7,166.3,333.7,167.3C333.7,167.2,333.7,167.3,333.7,167.3z"/>
		<path class="st1" d="M298.3,203.3c0,0.9,0.7,1.7,1.7,1.7s1.7-0.7,1.7-1.6s-0.7-1.6-1.7-1.7l0,0
			C299.1,201.7,298.3,202.4,298.3,203.3L298.3,203.3z"/>
		<path class="st1" d="M298.3,167.3c0,0.9,0.7,1.6,1.7,1.6s1.7-0.7,1.7-1.7c0-0.9-0.7-1.6-1.7-1.6l0,0l0,0
			C299.1,165.6,298.3,166.3,298.3,167.3C298.3,167.2,298.3,167.3,298.3,167.3z"/>
		<path class="st1" d="M262.2,167.3c0,0.9,0.7,1.7,1.7,1.7s1.7-0.7,1.7-1.6s-0.7-1.6-1.7-1.7l0,0C263,165.6,262.2,166.3,262.2,167.3
			C262.2,167.2,262.2,167.2,262.2,167.3z"/>
		<path class="st1" d="M298.3,131.2c0,0.9,0.7,1.6,1.7,1.6c0.9,0,1.7-0.7,1.7-1.7c0-0.9-0.7-1.6-1.7-1.6l0,0l0,0
			C299.1,129.5,298.3,130.3,298.3,131.2L298.3,131.2z"/>
		<path class="st1" d="M407.9,377.2c0,0.9,0.7,1.6,1.7,1.6c0.9,0,1.7-0.7,1.7-1.7c0-0.9-0.7-1.6-1.7-1.6l0,0l0,0
			C408.7,375.6,408,376.3,407.9,377.2z"/>
	</g>
</g>
<path class="st2" d="M223.2,110c6.1,9.2,18.1,27.8,19.5,40.7c3.6,33-20.6,55-44.6,57.6s-46.2-22.1-49.8-55.1"/>
<path class="st2" d="M172.5,222.9c0,0,1.4-4.3,1.9-11.7"/>
<path class="st2" d="M224.6,219.4c0,0-5-6.5-3.3-20"/>
<path class="st3" d="M129.3,333.2c-0.3-1-0.5-2-0.8-3.1c-2.9-11.7-0.8-18.1-2-24.9c-2.3-12.6-16.1-8.8-13.5,2.9
	c2.6,11.7,4.2,16.1-0.4,20.3c-5.8,5.2-10.4,12.7-10.4,12.7"/>
<path class="st3" d="M285,324.9c0,0,2-3.5,4.9-15.2s0.8-18.1,2-24.9c2.3-12.6,16.1-8.8,13.5,2.9c-2.6,11.7-4.2,16.1,0.4,20.3
	c1,0.9,1.9,1.8,2.8,2.8"/>
<path class="st4" d="M158.9,234.6c0,0-56.8,36.7-83.4,85.8c-25.9,47.8-32,84.5-8.1,105.6c23.1,20.4,49.9-7.5,49.9-7.5
	s19.5-17.5,27.7,6.4c0.6,1.7,16-19.9,163.5,1.6"/>
<path class="st4" d="M220.2,239.2c0.9,1.3,1.8,3,2.3,5.1c2.3,8,6.1,13.9,6.1,13.9s0,0,1.3-4.6s12.6-24.8,12.6-24.8s-9.7-9-15.3-12.2
	c-3.7,3.3-16.7,19.7-17.9,28.2c-1.9,13.1-19.5,16.6-19.5,16.6s0.1-16.8-5.2-23.3s-9.3-10.9-13.8-17.6c-7.3,3-13.3,10.5-13.3,10.5
	s10.6,12.9,15.1,24.7c4-1.6,3.8-5.3,5.5-9.8c2.2-5.8,7.8-5.8,7.8-5.8"/>
<path class="st4" d="M257.9,228.8c8.5-0.1,19.9,1,33.3,5.1c29.4,9,50.2,31.6,59.4,53.1s37.1,108.6-6.1,125
	c-30,11.4-39.3-14.1-39.3-14.1"/>
<path class="st4" d="M163.6,107.5c0,0,11.7,20.8,44.9,1.6s41.3-13.9,41.3-13.9s-8.1-20.8-25.7-26.1s-37.4,10.2-37.4,10.2
	s8-16.3,15.2-18.3c-7.5-4.5-23.3,2.4-35,11.4s-31.7-3.7-36.2,27.3s7.5,53.8,9.3,56.7c0.4,0.7,1,1.7,1.7,2.5"/>
<path class="st5" d="M179.9,175c0,0-1.5,13,18.5,11.7c8.7,0,18.8-6.9,18.8-6.9"/>
<path class="st6" d="M233.8,121.3l3,4.7c0.8,1.2,2,1.9,3.4,2l5.5,0.2c3.5,0.1,5.4,4.3,3.1,7l-3.5,4.3c-0.9,1.1-1.2,2.5-0.8,3.9
	l1.5,5.3c1,3.4-2.4,6.4-5.7,5.1l-5.1-2c-1.3-0.5-2.8-0.4-3.9,0.4l-4.6,3.1c-2.9,2-6.8-0.3-6.6-3.8l0.4-5.5c0.1-1.4-0.5-2.8-1.6-3.6
	l-4.3-3.4c-2.8-2.2-1.8-6.6,1.6-7.5l5.4-1.4c1.4-0.3,2.5-1.3,2.9-2.7l1.9-5.2C227.4,118.8,231.9,118.3,233.8,121.3z"/>
<path class="st6" d="M188.6,125l3,4.7c0.8,1.2,2,1.9,3.4,2l5.5,0.2c3.5,0.1,5.4,4.3,3.1,7l-3.5,4.3c-0.9,1.1-1.2,2.5-0.8,3.9
	l1.5,5.3c1,3.4-2.4,6.4-5.7,5.1l-5.1-2c-1.3-0.5-2.8-0.4-3.9,0.4l-4.6,3.1c-2.9,2-6.8-0.3-6.6-3.8l0.4-5.5c0.1-1.4-0.5-2.8-1.6-3.6
	l-4.3-3.4c-2.8-2.2-1.8-6.6,1.6-7.5l5.4-1.4c1.4-0.3,2.5-1.3,2.9-2.7l1.9-5.2C182.2,122.5,186.7,122,188.6,125z"/>
<path class="st5" d="M198.2,138.2c0,0,8.5-8.4,20.9-2.4"/>
<path class="st5" d="M169.5,139.5c0,0-31,8.3-35,10.4c-4.1,2-10.2,7.3,5.7,26.4"/>
<path class="st7" d="M173.1,137.5l5.4-1.4c1.4-0.3,2.5-1.3,2.9-2.7l1.9-5.2"/>
<path class="st7" d="M218.4,133.9l5.4-1.4c1.4-0.3,2.5-1.3,2.9-2.7l1.9-5.2"/>
<path class="st3" d="M111.3,359.5c0,0,6.2,1.2,13.5,2.1s16.2,0.5,14.5-9.2c-1.8-9.7-17.1-11.7-30.3-12s-15.5,5.6-16.4,9.1
	c0,0-4.1,19.2-0.8,34.2c3.2,15,5.2,18,12.6,19.5c7.3,1.5,17.3,0.9,21.4-2.1c4.1-2.9,3.1-8.5,3.1-8.5"/>
<path class="st3" d="M104,391.2c0,0,17.9,2.3,26.7,0.6s7.1-13-1.5-13.2c-7.7-0.2-23.2-2.6-23.2-2.6"/>
<path class="st3" d="M132.4,361.6c0,0,6.9,1.7,6.9,9s-7.1,8.2-7.1,8.2"/>
<path class="st3" d="M307.1,339c0,0-6.2,1.2-13.5,2.1s-16.2,0.5-14.5-9.2c1.8-9.7,17.1-11.7,30.3-12s15.5,5.6,16.4,9.1
	c0,0,4.1,19.2,0.8,34.2c-3.2,15-5.2,18-12.6,19.5c-7.3,1.5-17.3,0.9-21.4-2.1c-4.1-2.9-3.1-8.5-3.1-8.5"/>
<path class="st3" d="M314.4,370.7c0,0-17.9,2.3-26.7,0.6c-8.8-1.8-7.1-13,1.5-13.2c7.7-0.2,23.2-2.6,23.2-2.6"/>
<path class="st3" d="M286.9,341.3c0,0-7.7,1.6-7.7,8.9s8.4,8.2,8.4,8.2"/>
</svg>
