<?xml version="1.0" encoding="utf-8"?>
<!-- Generator: Adobe Illustrator 24.3.0, SVG Export Plug-In . SVG Version: 6.00 Build 0)  -->
<svg version="1.1" id="Layer_1" xmlns="http://www.w3.org/2000/svg" xmlns:xlink="http://www.w3.org/1999/xlink" x="0px" y="0px"
	 viewBox="0 0 1561 367.8" style="enable-background:new 0 0 1561 367.8;" xml:space="preserve">
<style type="text/css">
	.st0{display:none;}
	.st1{fill:#334054;}
	.st2{fill-rule:evenodd;clip-rule:evenodd;fill:#1FBAD6;}
	.st3{fill:#FFFFFF;}
	.st4{fill:#1FBAD6;}
</style>
<g id="Layer_4_copy" class="st0">
</g>
<g id="Layer_4">
</g>
<g id="Layer_6">
</g>
<g id="Layer_10">
</g>
<g id="Layer_5">
</g>
<g id="Layer_8">
</g>
<g id="Layer_9">
</g>
<g id="Layer_2_1_">
</g>
<g id="Layer_1_1_">
</g>
<g>
	<g>
		<g>
			<path class="st1" d="M477,171.5l0.6-3.6h-2.1l-0.6,3.6h-1.8l0.6-3.6h-1.9l0.2-1.6h1.9l0.3-2h-1.9l0.2-1.6h1.9l0.6-3.3h1.8
				l-0.6,3.3h2.1l0.6-3.3h1.8l-0.6,3.3h1.9l-0.2,1.6h-1.9l-0.3,2h1.9l-0.2,1.6h-1.9l-0.6,3.6H477z M478.2,164.3h-2.1l-0.3,2h2.1
				L478.2,164.3z"/>
			<path class="st1" d="M484.7,170.5c-1.3-1.5-1.5-3.4-1.5-4.9c0-1.5,0.2-3.5,1.5-4.9c0.7-0.9,1.7-1.3,2.8-1.3
				c1.1,0,1.9,0.4,2.8,1.3c1.3,1.5,1.5,3.4,1.5,4.9c0,1.6-0.2,3.5-1.5,4.9c-0.7,0.9-1.6,1.3-2.8,1.3
				C486.3,171.8,485.4,171.3,484.7,170.5z M485.8,161.9c-0.6,1-0.8,2.6-0.8,3.6s0.2,2.6,0.8,3.6c0.6,0.8,1.1,1,1.6,1s1.1-0.2,1.6-1
				c0.6-1.1,0.8-2.6,0.8-3.6s-0.2-2.6-0.8-3.6c-0.6-0.8-1.1-1-1.6-1C487,160.8,486.3,161.1,485.8,161.9z"/>
			<path class="st1" d="M495,170.5c-1.3-1.5-1.5-3.4-1.5-4.9c0-1.5,0.2-3.5,1.5-4.9c0.7-0.9,1.7-1.3,2.8-1.3c1.1,0,1.9,0.4,2.8,1.3
				c1.3,1.5,1.5,3.4,1.5,4.9c0,1.6-0.2,3.5-1.5,4.9c-0.7,0.9-1.6,1.3-2.8,1.3C496.6,171.8,495.8,171.3,495,170.5z M496.1,161.9
				c-0.6,1-0.8,2.6-0.8,3.6s0.2,2.6,0.8,3.6c0.6,0.8,1.1,1,1.6,1s1.1-0.2,1.6-1c0.6-1.1,0.8-2.6,0.8-3.6s-0.2-2.6-0.8-3.6
				c-0.6-0.8-1.1-1-1.6-1C497.2,160.8,496.7,161.1,496.1,161.9z"/>
			<path class="st1" d="M505.3,170.5c-1.3-1.5-1.5-3.4-1.5-4.9c0-1.5,0.2-3.5,1.5-4.9c0.7-0.9,1.7-1.3,2.8-1.3
				c1.1,0,1.9,0.4,2.8,1.3c1.3,1.5,1.5,3.4,1.5,4.9c0,1.6-0.2,3.5-1.5,4.9c-0.7,0.9-1.6,1.3-2.8,1.3
				C507,171.8,506.1,171.3,505.3,170.5z M506.5,161.9c-0.6,1-0.8,2.6-0.8,3.6s0.2,2.6,0.8,3.6c0.6,0.8,1.1,1,1.6,1s1.1-0.2,1.6-1
				c0.6-1.1,0.8-2.6,0.8-3.6s-0.2-2.6-0.8-3.6c-0.6-0.8-1.1-1-1.6-1C507.6,160.8,507,161.1,506.5,161.9z"/>
			<path class="st1" d="M515.6,170.5c-1.3-1.5-1.5-3.4-1.5-4.9c0-1.5,0.2-3.5,1.5-4.9c0.7-0.9,1.7-1.3,2.8-1.3s1.9,0.4,2.8,1.3
				c1.3,1.5,1.5,3.4,1.5,4.9c0,1.6-0.2,3.5-1.5,4.9c-0.7,0.9-1.6,1.3-2.8,1.3C517.3,171.8,516.4,171.3,515.6,170.5z M516.7,161.9
				c-0.6,1-0.8,2.6-0.8,3.6s0.2,2.6,0.8,3.6c0.6,0.8,1.1,1,1.6,1s1.1-0.2,1.6-1c0.6-1.1,0.8-2.6,0.8-3.6s-0.2-2.6-0.8-3.6
				c-0.6-0.8-1.1-1-1.6-1C518,160.8,517.3,161.1,516.7,161.9z"/>
			<path class="st1" d="M526,170.5c-1.3-1.5-1.5-3.4-1.5-4.9c0-1.5,0.2-3.5,1.5-4.9c0.7-0.9,1.7-1.3,2.8-1.3c1.1,0,1.9,0.4,2.8,1.3
				c1.3,1.5,1.5,3.4,1.5,4.9c0,1.6-0.2,3.5-1.5,4.9c-0.7,0.9-1.6,1.3-2.8,1.3C527.6,171.8,526.7,171.3,526,170.5z M527.1,161.9
				c-0.6,1-0.8,2.6-0.8,3.6s0.2,2.6,0.8,3.6c0.6,0.8,1.1,1,1.6,1s1.1-0.2,1.6-1c0.6-1.1,0.8-2.6,0.8-3.6s-0.2-2.6-0.8-3.6
				c-0.6-0.8-1.1-1-1.6-1C528.2,160.8,527.6,161.1,527.1,161.9z"/>
			<path class="st1" d="M536.3,170.5c-1.3-1.5-1.5-3.4-1.5-4.9c0-1.5,0.2-3.5,1.5-4.9c0.7-0.9,1.7-1.3,2.8-1.3
				c1.1,0,1.9,0.4,2.8,1.3c1.3,1.5,1.5,3.4,1.5,4.9c0,1.6-0.2,3.5-1.5,4.9c-0.7,0.9-1.6,1.3-2.8,1.3S537,171.3,536.3,170.5z
				 M537.4,161.9c-0.6,1-0.8,2.6-0.8,3.6s0.2,2.6,0.8,3.6c0.6,0.8,1.1,1,1.6,1s1.1-0.2,1.6-1c0.6-1.1,0.8-2.6,0.8-3.6
				s-0.2-2.6-0.8-3.6c-0.6-0.8-1.1-1-1.6-1C538.6,160.8,537.9,161.1,537.4,161.9z"/>
		</g>
		<g>
			<path class="st2" d="M166.7,146.5l16.6,16.3h-47.6v-3.8v-3.2v-2.8v-15.3v-1.9v-20.1l17.6,17.4c3-2.8,4.8-6.8,4.8-11.3
				c0-8.7-7-15.6-15.6-15.6s-15.5,6.9-15.6,15.5l0,0v0.2v30.9v10.1h-18.9V122c0-19.1,15.5-34.6,34.5-34.6s34.5,15.5,34.5,34.5
				C177,131.6,173.1,140.2,166.7,146.5z"/>
		</g>
		<g>
			<path d="M205.8,115.8l-1.3,7.5c-1.1-0.2-1.9-0.4-2.6-0.4c-1.7,0-3.1,0.6-4,1.8c-1,1.2-1.7,3.1-2.3,5.5v15.1h-7.8v-29.2h6.8
				l0.7,5.7c0.7-2,1.7-3.6,3.1-4.8c1.4-1.1,2.8-1.7,4.5-1.7C203.8,115.4,204.7,115.5,205.8,115.8z"/>
			<path d="M230.9,133.2h-18.2c0.2,2.7,1,4.5,2.2,5.6c1.2,1.1,2.8,1.6,4.8,1.6c1.2,0,2.4-0.2,3.6-0.6c1.1-0.4,2.3-1.1,3.6-1.9
				l3.2,4.4c-3.2,2.7-7,4-11.1,4c-4.6,0-8.1-1.4-10.6-4.1s-3.7-6.5-3.7-11.2c0-3,0.5-5.7,1.5-8s2.6-4.2,4.6-5.6c2-1.4,4.4-2,7.1-2
				c4.1,0,7.4,1.3,9.7,3.9c2.3,2.6,3.5,6.2,3.5,10.9C231,130.5,230.9,131.5,230.9,133.2z M223.3,127.9c0-4.9-1.8-7.3-5.3-7.3
				c-1.6,0-2.9,0.6-3.8,1.8c-0.9,1.2-1.5,3.2-1.6,5.8h10.6L223.3,127.9L223.3,127.9z"/>
			<path d="M236.7,144.2c-1.3-1.4-2-3.3-2-5.9v-33.7l7.8-0.9v34.5c0,1.3,0.6,1.9,1.6,1.9c0.6,0,1.1-0.1,1.5-0.3l1.6,5.6
				c-1.5,0.6-3.2,1-5,1C239.9,146.3,238.1,145.5,236.7,144.2z"/>
			<path d="M271.9,119.4c2.4,2.8,3.7,6.6,3.7,11.4c0,3.1-0.6,5.8-1.7,8.1c-1.1,2.3-2.8,4.1-4.9,5.4c-2.1,1.3-4.6,1.9-7.4,1.9
				c-4.4,0-7.8-1.4-10.3-4.1c-2.5-2.8-3.7-6.6-3.7-11.4c0-3.1,0.6-5.8,1.7-8.1c1.1-2.3,2.8-4.1,4.9-5.4c2.1-1.3,4.6-1.9,7.5-1.9
				C266.1,115.3,269.4,116.7,271.9,119.4z M257.2,123.5c-1,1.5-1.5,4-1.5,7.3c0,3.3,0.5,5.7,1.5,7.3c1,1.5,2.4,2.3,4.4,2.3
				c1.9,0,3.4-0.8,4.4-2.3c1-1.5,1.5-4,1.5-7.3c0-3.3-0.5-5.7-1.5-7.3s-2.4-2.3-4.4-2.3C259.7,121.1,258.2,121.9,257.2,123.5z"/>
			<path d="M302.1,139.8c0.3,0.6,0.9,0.9,1.6,1.2l-1.6,5.2c-1.7-0.2-3.2-0.6-4.2-1.2c-1.1-0.6-1.9-1.7-2.5-3.1
				c-1.9,2.9-4.9,4.4-8.7,4.4c-2.9,0-5.2-0.8-6.9-2.5c-1.7-1.7-2.6-3.9-2.6-6.6c0-3.2,1.1-5.7,3.5-7.4c2.3-1.7,5.7-2.5,10-2.5h3.4
				v-1.5c0-1.8-0.4-3.1-1.2-3.7c-0.8-0.7-2.2-1.1-4-1.1c-2,0-4.6,0.5-7.7,1.5l-1.8-5.3c3.6-1.5,7.2-2.2,10.8-2.2
				c4,0,6.9,0.9,8.7,2.6c1.9,1.7,2.8,4.3,2.8,7.6v11.8C301.6,138.4,301.8,139.2,302.1,139.8z M294,137.4v-5.6h-2.6
				c-4.2,0-6.3,1.6-6.3,4.8c0,1.3,0.3,2.3,1,3c0.6,0.7,1.5,1.1,2.8,1.1C291,140.6,292.7,139.6,294,137.4z"/>
			<path d="M333.1,104.5v40.9h-6.9l-0.4-3.6c-2,3-4.9,4.4-8.3,4.4c-3.6,0-6.3-1.4-8.3-4.1c-1.9-2.8-2.8-6.6-2.8-11.3
				c0-3,0.5-5.7,1.5-8c1-2.3,2.3-4.1,4.1-5.5c1.8-1.3,3.9-2,6.2-2c2.8,0,5.1,1,7.1,2.9v-14.6L333.1,104.5z M322.8,139.6
				c0.9-0.6,1.7-1.5,2.5-2.7v-13c-0.8-0.9-1.5-1.6-2.3-2.1c-0.8-0.5-1.7-0.7-2.8-0.7c-1.8,0-3.2,0.8-4.2,2.3c-1,1.6-1.5,4-1.5,7.4
				c0,3.5,0.5,6,1.4,7.4c0.9,1.5,2.2,2.2,3.9,2.2C320.8,140.5,321.9,140.1,322.8,139.6z"/>
			<path d="M340.9,144.2c-1.3-1.4-2-3.3-2-5.9v-33.7l7.8-0.9v34.5c0,1.3,0.6,1.9,1.6,1.9c0.6,0,1.1-0.1,1.5-0.3l1.6,5.6
				c-1.5,0.6-3.2,1-5,1C344,146.3,342.2,145.5,340.9,144.2z"/>
			<path d="M368.3,145.4c-1.2,3.7-3,6.6-5.5,8.6c-2.5,2-5.9,3.2-10.2,3.5l-0.8-5.6c2.8-0.4,4.9-1.1,6.1-2c1.3-1,2.3-2.4,3.2-4.5
				h-2.7l-9.1-29.2h8.3l5.8,24.1l6.1-24.1h8.1L368.3,145.4z"/>
		</g>
		<polygon points="616.3,146.5 471.4,146.5 471.4,105.6 593.1,105.6 		"/>
	</g>
	<g>
		<g>
			<path class="st1" d="M477,280.2l0.6-3.6h-2.1l-0.6,3.6h-1.8l0.6-3.6h-1.9l0.2-1.6h1.9l0.3-2h-1.9l0.2-1.6h1.9l0.6-3.3h1.8
				l-0.6,3.3h2.1l0.6-3.3h1.8l-0.6,3.3h1.9l-0.2,1.6h-1.9l-0.3,2h1.9l-0.2,1.6h-1.9l-0.6,3.6H477z M478.2,273h-2.1l-0.3,2h2.1
				L478.2,273z"/>
			<path class="st1" d="M486.8,269.8h-2.1l1.1-1.7h2.9v12.1h-1.9V269.8z"/>
			<path class="st1" d="M500.1,269.8h-4.2v3.1h4v1.8h-4v5.6H494v-12.1h6.1V269.8z"/>
			<path class="st1" d="M504,268.1c1.5,0,2.5,0.2,3.3,1c0.6,0.6,1,1.4,1,2.4c0,0.5-0.1,1-0.3,1.5c-0.2,0.5-0.6,0.7-0.9,0.8
				c0.2,0.1,1,0.2,1.5,0.9c0.6,0.7,0.8,1.5,0.8,2.3c0,0.9-0.2,1.5-0.8,2.2c-1,1.1-2.5,1.2-3.4,1.2h-3v-12.1L504,268.1L504,268.1z
				 M504,273.3h0.6c0.5,0,1.1-0.1,1.5-0.5c0.4-0.4,0.5-1,0.5-1.4c0-0.3-0.1-0.8-0.4-1.1c-0.4-0.4-1-0.5-1.5-0.5h-0.6L504,273.3
				L504,273.3z M504,278.5h1.1c0.6,0,1.4-0.1,1.9-0.5c0.3-0.3,0.6-0.8,0.6-1.4c0-0.5-0.2-1-0.5-1.3c-0.5-0.5-1.2-0.6-1.9-0.6H504
				V278.5z"/>
			<path class="st1" d="M518.9,277.3h-5.2l-1.3,2.9h-2l6.1-12.8l5.7,12.8h-2L518.9,277.3z M518.1,275.6l-1.8-4.1l-1.9,4.1H518.1z"/>
			<path class="st1" d="M526.2,268.1c1.7,0,3.2,0.2,4.5,1.2c1.5,1.1,2.3,2.8,2.3,4.9s-0.8,3.7-2.4,4.9c-1.5,1-2.8,1.1-4.4,1.1h-2.5
				V268L526.2,268.1L526.2,268.1z M525.6,278.5h0.8c0.9,0,2.2-0.1,3.2-0.9c0.8-0.6,1.6-1.8,1.6-3.5c0-1.6-0.7-2.8-1.6-3.5
				c-1.1-0.7-2.3-0.8-3.2-0.8h-0.8V278.5z"/>
			<path class="st1" d="M541.6,268.7l-2.9,3.6c0.2-0.1,0.5-0.1,0.7-0.1c1.5,0,2.3,0.6,2.8,1.1c0.6,0.7,1.1,1.7,1.1,2.8
				c0,1.1-0.4,2.3-1.2,3.1c-1.1,1-2.3,1.1-3.2,1.1c-1.1,0-2.2-0.2-3.2-1.2c-0.6-0.6-1.1-1.5-1.1-2.8c0-0.9,0.2-1.6,0.6-2.3
				c0.5-0.9,0.9-1.5,1.5-2.2l3.4-4.3L541.6,268.7z M537.4,274.5c-0.4,0.4-0.7,1.1-0.7,1.8c0,0.6,0.2,1.4,0.7,1.8
				c0.4,0.3,1.1,0.6,1.8,0.6c0.6,0,1.2-0.2,1.7-0.6c0.5-0.5,0.7-1.2,0.7-1.8c0-0.6-0.2-1.4-0.7-1.8c-0.4-0.4-1.1-0.6-1.7-0.6
				S537.8,274.1,537.4,274.5z"/>
		</g>
		<g>
			<path class="st2" d="M166.7,251.6l16.6,16.3h-47.6v-3.8v-3.2v-2.8v-15.3V241v-20.1l17.6,17.4c3-2.8,4.8-6.8,4.8-11.3
				c0-8.7-7-15.6-15.6-15.6s-15.5,6.9-15.6,15.5l0,0v0.2v30.9V268h-18.9v-40.9c0-19.1,15.5-34.6,34.5-34.6S177,208,177,227
				C177,236.6,173.1,245.3,166.7,251.6z"/>
		</g>
		<g>
			<path class="st3" d="M205.8,220.9l-1.3,7.5c-1.1-0.2-1.9-0.4-2.6-0.4c-1.7,0-3.1,0.6-4,1.8c-1,1.2-1.7,3.1-2.3,5.5v15.1h-7.8
				v-29.2h6.8l0.7,5.7c0.7-2,1.7-3.6,3.1-4.8c1.4-1.1,2.8-1.7,4.5-1.7C203.8,220.5,204.7,220.6,205.8,220.9z"/>
			<path class="st3" d="M230.9,238.3h-18.2c0.2,2.7,1,4.5,2.2,5.6c1.2,1.1,2.8,1.6,4.8,1.6c1.2,0,2.4-0.2,3.6-0.6
				c1.1-0.4,2.3-1.1,3.6-1.9l3.2,4.4c-3.2,2.7-7,4-11.1,4c-4.6,0-8.1-1.4-10.6-4.1s-3.7-6.5-3.7-11.2c0-3,0.5-5.7,1.5-8
				c1.1-2.3,2.6-4.2,4.6-5.6c2-1.4,4.4-2,7.1-2c4.1,0,7.4,1.3,9.7,3.9c2.3,2.6,3.5,6.2,3.5,10.9C231,235.6,230.9,236.6,230.9,238.3z
				 M223.3,233c0-4.9-1.8-7.3-5.3-7.3c-1.6,0-2.9,0.6-3.8,1.8c-0.9,1.2-1.5,3.2-1.6,5.8h10.6L223.3,233L223.3,233z"/>
			<path class="st3" d="M236.7,249.3c-1.3-1.4-2-3.3-2-5.9v-33.7l7.8-0.9v34.5c0,1.3,0.6,1.9,1.6,1.9c0.6,0,1.1-0.1,1.5-0.3l1.6,5.6
				c-1.5,0.6-3.2,1-5,1C239.9,251.4,238.1,250.6,236.7,249.3z"/>
			<path class="st3" d="M271.9,224.5c2.4,2.8,3.7,6.6,3.7,11.4c0,3.1-0.6,5.8-1.7,8.1c-1.1,2.3-2.8,4.1-4.9,5.4s-4.6,1.9-7.4,1.9
				c-4.4,0-7.8-1.4-10.3-4.1c-2.5-2.8-3.7-6.6-3.7-11.4c0-3.1,0.6-5.8,1.7-8.1c1.1-2.3,2.8-4.1,4.9-5.4s4.6-1.9,7.5-1.9
				C266.1,220.4,269.4,221.8,271.9,224.5z M257.2,228.6c-1,1.5-1.5,4-1.5,7.3c0,3.3,0.5,5.7,1.5,7.3c1,1.5,2.4,2.3,4.4,2.3
				c1.9,0,3.4-0.8,4.4-2.3c1-1.5,1.5-4,1.5-7.3c0-3.3-0.5-5.7-1.5-7.3s-2.4-2.3-4.4-2.3C259.7,226.2,258.2,227,257.2,228.6z"/>
			<path class="st3" d="M302.1,244.9c0.3,0.6,0.9,0.9,1.6,1.2l-1.6,5.2c-1.7-0.2-3.2-0.6-4.2-1.2s-1.9-1.7-2.5-3.1
				c-1.9,2.9-4.9,4.4-8.7,4.4c-2.9,0-5.2-0.8-6.9-2.5c-1.7-1.7-2.6-3.9-2.6-6.6c0-3.2,1.1-5.7,3.5-7.4c2.3-1.7,5.7-2.5,10-2.5h3.4
				V231c0-1.8-0.4-3.1-1.2-3.7c-0.8-0.7-2.2-1.1-4-1.1c-2,0-4.6,0.5-7.7,1.5l-1.8-5.3c3.6-1.5,7.2-2.2,10.8-2.2c4,0,6.9,0.9,8.7,2.6
				c1.9,1.7,2.8,4.3,2.8,7.6v11.8C301.6,243.5,301.8,244.3,302.1,244.9z M294,242.5v-5.6h-2.6c-4.2,0-6.3,1.6-6.3,4.8
				c0,1.3,0.3,2.3,1,3c0.6,0.7,1.5,1.1,2.8,1.1C291,245.7,292.7,244.7,294,242.5z"/>
			<path class="st3" d="M333.1,209.7v40.9h-6.9l-0.4-3.6c-2,3-4.9,4.4-8.3,4.4c-3.6,0-6.3-1.4-8.3-4.1c-1.9-2.8-2.8-6.6-2.8-11.3
				c0-3,0.5-5.7,1.5-8c1-2.3,2.3-4.1,4.1-5.5c1.8-1.3,3.9-2,6.2-2c2.8,0,5.1,1,7.1,2.9v-14.6L333.1,209.7z M322.8,244.7
				c0.9-0.6,1.7-1.5,2.5-2.7v-13c-0.8-0.9-1.5-1.6-2.3-2.1c-0.8-0.5-1.7-0.7-2.8-0.7c-1.8,0-3.2,0.8-4.2,2.3c-1,1.6-1.5,4-1.5,7.4
				c0,3.5,0.5,6,1.4,7.4c0.9,1.5,2.2,2.2,3.9,2.2C320.8,245.5,321.9,245.2,322.8,244.7z"/>
			<path class="st3" d="M340.9,249.3c-1.3-1.4-2-3.3-2-5.9v-33.7l7.8-0.9v34.5c0,1.3,0.6,1.9,1.6,1.9c0.6,0,1.1-0.1,1.5-0.3l1.6,5.6
				c-1.5,0.6-3.2,1-5,1C344,251.4,342.2,250.6,340.9,249.3z"/>
			<path class="st3" d="M368.3,250.6c-1.2,3.7-3,6.6-5.5,8.6c-2.5,2-5.9,3.2-10.2,3.5l-0.8-5.6c2.8-0.4,4.9-1.1,6.1-2
				c1.3-1,2.3-2.4,3.2-4.5h-2.7l-9.1-29.2h8.3l5.8,24.1l6.1-24.1h8.1L368.3,250.6z"/>
		</g>
		<g>
			<polygon class="st4" points="616.3,252.8 471.4,252.8 471.4,211.8 593.1,211.8 			"/>
		</g>
	</g>
</g>
</svg>
