<?xml version="1.0" encoding="utf-8"?>
<!-- Generator: Adobe Illustrator 25.2.3, SVG Export Plug-In . SVG Version: 6.00 Build 0)  -->
<svg version="1.1" id="Layer_1" xmlns="http://www.w3.org/2000/svg" xmlns:xlink="http://www.w3.org/1999/xlink" x="0px" y="0px"
	 viewBox="0 0 500 500" style="enable-background:new 0 0 500 500;" xml:space="preserve">
<style type="text/css">
	.st0{fill:#F4F9F9;}
	.st1{fill:#1FBAD6;}
	.st2{fill:none;stroke:#047989;stroke-width:2;stroke-miterlimit:10;}
	.st3{fill:none;stroke:#1FBAD6;stroke-width:2;stroke-miterlimit:10;}
	.st4{fill:#047989;}
	.st5{fill:none;stroke:#283142;stroke-width:2;stroke-miterlimit:10;}
	.st6{fill:#BA9600;}
	.st7{fill:none;stroke:#FF6346;stroke-width:2;stroke-miterlimit:10;}
	.st8{fill:#FF6346;}
	.st9{fill:#FFE161;}
	.st10{fill:#283142;}
	.st11{fill:#334054;}
	.st12{fill:#E8BC03;}
</style>
<path class="st0" d="M430.7,304.9L288,300c0,0-8.8-10.6-3.1-71.5s34.4-109.8,34.4-109.8l140.2,0.2c0,0-24.8,60.5-31.8,114.4
	c-3.1,23.5-3.1,44.5-1.9,55.8L430.7,304.9z"/>
<path class="st1" d="M113.9,415.5c-40.8-12.5-67.7-33-66.2-110.3c2.1-106.2,47.2-83.1,73.7-52.3
	C157.2,294.6,158.8,429.3,113.9,415.5z"/>
<path class="st2" d="M109.1,179.2c5.3,6.7,11.8,3.1,7.9-2c0,0-10.2-10.3-11.4-18.8s4.6-25.9,18.3-20.7s47.5-2.6,47.1-12.4
	c-0.7-17.4-24.4-11.6-31-16.6c-10.2-7.7-29.5-17.5-32.3-4.6s-13.9,4.6-23.8,9.5c-24.5,12.2-27.3,49.4-10.1,63.8
	c6,4.9,12.4,12.6,13.4,15.8s8.8,8,13.3,4.3"/>
<path class="st3" d="M136.6,263.6l5.1-10.5l6.1,3.5l29.5,63.5l13.1,75.3l-5.3,9.7l-10.7-4.9"/>
<path class="st3" d="M157.2,161.3c0,0,12.6,17,10.6,21.4s-9.5,8.1-9.5,8.1s5.9,20.5-1.8,28.4c-9.2,9.5-16.7,5-16.7,5
	s0,12.1,0.6,17.8"/>
<path class="st3" d="M102.5,213.2c-1.4-7.6-2.3-15.3-2.7-23"/>
<path class="st3" d="M99.8,189.8c-0.8,4.6-9.9,7-12-5.1c-2.2-12.4,8.1-11.4,9.4-7.4"/>
<path class="st2" d="M147.3,151.5c-9.6-5.6-18.2,2.2-18.3,7.3"/>
<path class="st3" d="M150.3,201c2.9,2.9,10.6,0.4,10.6,0.4"/>
<path class="st4" d="M148.1,165c0.1-0.4,0.2-0.9,0.2-1.3c0.1-2.6-1.9-4.8-4.5-4.9s-4.8,1.9-4.9,4.5l0,0c-0.1,1.6,0.6,3.1,1.9,4
	c1.1-0.6,2.3-1.1,3.5-1.5C145.9,165.3,148.1,165.1,148.1,165z"/>
<path class="st5" d="M112.5,234c9.5,6.2,19.6,10.5,24.8,12.9l-0.7,17.6"/>
<path class="st5" d="M226,383.2c-8-4.7-2.4-42.2-2.4-42.2c-6.2,0.8-27.3-0.5-27.3-0.5l-10.1-9.2c-1-4.7-11.9-57.8-12.3-60.7
	c-2-16.1-26.4-27.7-26.4-27.7"/>
<path class="st5" d="M44,320.9c0,0-2.3-56,13.5-67.7s32.2-21.3,32.2-21.3"/>
<path class="st5" d="M165.2,368.9c-2.5-5-42.8-84.4-48.5-88.3s5.9-15.1,5.9-15.1s-12.2-3.1-13.7-4.4c-7.6-6.5-16-22.3-20.3-31.4
	l11.1-10.6c0,0,23.5,26.3,29.4,38c5.9,11.7,21.6,51.8,21.6,51.8S164.2,361.3,165.2,368.9L165.2,368.9z"/>
<g id="Layer_3">
	<path class="st6" d="M377.7,347.8c-1,0.1-1.8,0.9-1.9,1.9l0,0c0,1,0.7,1.9,1.7,1.9c0,0,0,0,0.1,0c1,0,1.9-0.9,1.9-1.9
		C379.5,348.7,378.7,347.9,377.7,347.8L377.7,347.8z"/>
	<path class="st6" d="M337.3,390.5c-1,0.1-1.8,0.9-1.9,1.9l0,0c0,1,0.7,1.9,1.7,1.9c0,0,0,0,0.1,0c1,0,1.9-0.9,1.9-1.9
		S338.3,390.6,337.3,390.5L337.3,390.5z"/>
	<path class="st6" d="M296.9,390.5c-1,0-1.9,0.9-1.9,1.9l0,0c0,1,0.7,1.9,1.7,1.9c0,0,0,0,0.1,0c1,0,1.9-0.8,1.9-1.8v-0.1
		C298.7,391.4,297.9,390.6,296.9,390.5L296.9,390.5z"/>
	<path class="st6" d="M337.3,347.8c-1,0.1-1.8,0.9-1.9,1.9l0,0c0,1,0.7,1.9,1.7,1.9c0,0,0,0,0.1,0c1,0,1.9-0.9,1.9-1.9
		C339.1,348.7,338.3,347.9,337.3,347.8L337.3,347.8z"/>
	<path class="st6" d="M296.9,347.8c-1,0-1.8,0.8-1.8,1.8l0,0l0,0c-0.1,1,0.7,1.8,1.6,1.9s1.8-0.7,1.9-1.6
		C298.6,348.8,297.9,347.9,296.9,347.8z"/>
	<path class="st6" d="M296.9,308.3c-1,0-1.9,0.9-1.9,1.9l0,0c0,1,0.7,1.9,1.7,1.9c0,0,0,0,0.1,0c1,0,1.9-0.8,1.9-1.8v-0.1
		C298.7,309.2,297.9,308.4,296.9,308.3L296.9,308.3z"/>
	<path class="st6" d="M215.1,269.2c-1,0-1.9,0.9-1.9,1.9l0,0c0,1,0.7,1.9,1.7,1.9h0.1c1,0,1.9-0.8,1.9-1.8v-0.1c0-1-0.7-1.9-1.7-1.9
		C215.1,269.2,215.1,269.2,215.1,269.2L215.1,269.2z"/>
	<path class="st6" d="M215,308.6c-1,0-1.8,0.7-1.8,1.7c0,0.1,0,0.1,0,0.2l0,0c0.1,1,0.9,1.8,1.9,1.9c1,0,1.8-0.8,1.8-1.8
		c0,0,0,0,0-0.1C216.9,309.5,216,308.6,215,308.6z"/>
</g>
<path class="st3" d="M234.5,374.1c22.5,10.5,48.2-12.8,37.2-26.5"/>
<path class="st7" d="M249.5,332.9c7.5-7.5,14.9-14.5,15.7-15.3c1.8-1.6,3.4-1.4,5.8,1c0,0,11.3,11.2,12.1,12.1
	c1.9,2.1,3.4,3.7,0.5,6.4c-4,3.8-29.4,29.4-30.7,30.7c-1.9,2.1-3.8,2.5-5.9,0.5c0,0-12.9-12.6-13.6-13.3c-1-1.3-2.6-3.4-0.2-5.8
	l3.7-3.7"/>
<path class="st3" d="M242.5,337.4c1.4,2.4,2.9,4.8,4.6,7c1.8,1.9,8.1,2.5,6.1-5.6s-9.9-11-15.2-7.8s-9.9,12-9.9,12"/>
<path class="st3" d="M421,289.7l-142.7-4.9c0,0-8.8-10.6-3.1-71.5s34.4-109.8,34.4-109.8l140.2,0.2c0,0-24.8,60.5-31.8,114.4
	c-3.1,23.5-3.1,44.5-1.9,55.8"/>
<line class="st3" x1="341.3" y1="130" x2="425.8" y2="131.6"/>
<line class="st3" x1="332.4" y1="157.7" x2="416.9" y2="159.3"/>
<line class="st3" x1="323.3" y1="189.6" x2="407.8" y2="191.1"/>
<line class="st3" x1="320.7" y1="224.4" x2="402.2" y2="226"/>
<line class="st3" x1="321" y1="257.8" x2="399.5" y2="259.3"/>
<path class="st7" d="M253.1,300.3c-30.1-41.8-43.3-153.9,62.6-174.6"/>
<path class="st7" d="M254,299.1c-15.4-26.5-33-123.1,49.2-142.9"/>
<path class="st7" d="M253.7,299.5c-8.5-24.9-12.8-93.1,39.8-110.6"/>
<path class="st7" d="M254.5,300.6c-2.7-19.8-3.5-60.4,33.9-77.5"/>
<path class="st7" d="M255.4,297.7c-1.6-15,5.8-35.6,34.6-39.5"/>
<polygon class="st8" points="261.1,286.9 261.7,297.6 267.9,306.3 257.5,307 248.9,313.6 248.3,302.9 242.3,294.3 252.6,293.5 "/>
<rect x="-402.9" y="458.2" class="st1" width="54.8" height="51"/>
<rect x="-402.9" y="281.8" class="st4" width="54.8" height="51"/>
<rect x="-565.3" y="458.2" class="st9" width="54.8" height="51"/>
<rect x="-559.1" y="613" class="st10" width="54.8" height="51"/>
<rect x="-741.4" y="613" class="st11" width="54.8" height="51"/>
<rect x="-721.5" y="458.7" class="st0" width="54.8" height="51"/>
<rect x="-558.5" y="284.4" class="st12" width="54.8" height="51"/>
<rect x="-558.5" y="127.2" class="st6" width="54.8" height="51"/>
<rect x="-386.9" y="616" class="st8" width="54.8" height="51"/>
<text transform="matrix(1 0 0 1 -437.1052 722.9889)" class="st8" style="font-family:'Futura-Bold'; font-size:40.4662px;">FF6346</text>
<text transform="matrix(1 0 0 1 -610.3953 578.2799)" class="st9" style="font-family:'Futura-Bold'; font-size:40.4662px;">FFE161</text>
<text transform="matrix(1 0 0 1 -460.075 578.2799)" class="st1" style="font-family:'Futura-Bold'; font-size:40.4662px;">1FBAD6</text>
<text transform="matrix(1 0 0 1 -616.3953 401.774)" class="st12" style="font-family:'Futura-Bold'; font-size:40.4662px;">E8BC03</text>
<text transform="matrix(1 0 0 1 -610.3953 243.5364)" class="st6" style="font-family:'Futura-Bold'; font-size:40.4662px;">BA9600</text>
<text transform="matrix(1 0 0 1 -440.075 401.774)" class="st4" style="font-family:'Futura-Bold'; font-size:40.4662px;">047989</text>
<text transform="matrix(1 0 0 1 -768.7039 578.7389)" class="st0" style="font-family:'Futura-Bold'; font-size:40.4662px;">F4F9F9</text>
<text transform="matrix(1 0 0 1 -797.0359 722.9889)" class="st11" style="font-family:'Futura-Bold'; font-size:40.4662px;">334054</text>
<text transform="matrix(1 0 0 1 -611.8328 722.9889)" style="fill:#222B38; font-family:'Futura-Bold'; font-size:40.4662px;">283142v</text>
<g>
	<polygon class="st5" points="327.8,133.9 313.4,133.8 318.5,119.5 332.9,119.6 	"/>
	<polygon class="st5" points="315.9,164.2 301.6,164.1 305.7,149.9 320,150 	"/>
	<polygon class="st5" points="307,196.6 292.6,196.5 295.5,181.6 309.9,181.7 	"/>
	<polygon class="st5" points="302.4,230.8 288,230.6 289.4,216.4 303.7,216.5 	"/>
	<polygon class="st5" points="305.3,264.5 291,264.4 289.9,250.8 304.3,250.9 	"/>
</g>
</svg>
