<?xml version="1.0" encoding="utf-8"?>
<!-- Generator: Adobe Illustrator 25.3.1, SVG Export Plug-In . SVG Version: 6.00 Build 0)  -->
<svg version="1.1" id="Layer_1" xmlns="http://www.w3.org/2000/svg" xmlns:xlink="http://www.w3.org/1999/xlink" x="0px" y="0px"
	 viewBox="0 0 500 500" style="enable-background:new 0 0 500 500;" xml:space="preserve">
<style type="text/css">
	.st0{fill:#F4F9F9;}
	.st1{fill:none;stroke:#1FBAD6;stroke-width:2;stroke-miterlimit:10;}
	.st2{fill:none;stroke:#1FBAD6;stroke-width:2;stroke-miterlimit:9.9997;}
	.st3{fill:#283142;}
	.st4{fill:none;stroke:#283142;stroke-width:2;stroke-miterlimit:10;}
	.st5{fill-rule:evenodd;clip-rule:evenodd;fill:#FFE161;}
	.st6{fill-rule:evenodd;clip-rule:evenodd;fill:#D7B00B;}
	.st7{fill:none;stroke:#FFE161;stroke-width:2;stroke-miterlimit:10;}
	.st8{fill:none;stroke:#047989;stroke-width:2;stroke-miterlimit:10;}
	.st9{fill:none;stroke:#FF6346;stroke-width:2;stroke-miterlimit:10;}
	.st10{fill:#334054;}
	.st11{fill:#BA9600;}
</style>
<path class="st0" d="M94.2,287.2c68.8-10.9,163.5,43.8,163.7,100.4c0.3,62.8-156.6,105.5-198,24.4C33.9,361,25.4,298.1,94.2,287.2z"
	/>
<polyline class="st1" points="294,340.5 302.8,344.4 240.9,376.3 221.4,367.2 232.4,362.1 "/>
<path class="st1" d="M294.2,305.9v34.4l-61.8,30.9c0,0,0-18.2-0.1-35"/>
<polyline class="st1" points="157.6,346 342.2,258.4 380.8,239.2 "/>
<path class="st1" d="M404.3,233.3v-6l0,0V78.7c0-1.4-0.2-2.9-0.6-4.3"/>
<line class="st1" x1="158.7" y1="373.4" x2="363.3" y2="271"/>
<path class="st1" d="M403.7,74.5c-2-6.3-8.7-8.3-16.6-4.3l-44.9,22.5l-201.9,101c-7.9,3.9-14.6,12.6-16.6,20.9
	c-0.4,1.6-0.6,3.2-0.6,4.9v109.9"/>
<path class="st1" d="M160.3,337.3l220.8-106.2c9-4.3,16.4-14.9,16.5-23.8l-0.2-117.2c0-1.3-0.1-2.7-0.5-4c-1.8-5.9-8.1-7.8-15.6-4.2
	L146.9,198.8c-7.5,3.6-13.9,11.6-15.9,19.2c-0.4,1.5-0.6,3-0.6,4.5l0.4,113"/>
<polyline class="st1" points="169.2,332.9 169.2,207.8 362.9,110.9 362.9,231.5 "/>
<path class="st1" d="M363.1,111.1L169.3,208v-8.9c0-2.8,2.3-6.2,5.1-7.6L358,99.7c2.8-1.4,5.1-0.3,5.1,2.5V111.1z"/>
<path class="st1" d="M182.3,194.5c-0.1,1.6-1.1,3-2.5,3.8c-1.4,0.7-2.5,0.1-2.5-1.3c0.1-1.6,1.1-3,2.5-3.8
	C181.2,192.5,182.3,193.1,182.3,194.5z"/>
<ellipse transform="matrix(0.6154 -0.7882 0.7882 0.6154 -77.0708 223.2525)" class="st2" cx="190.2" cy="190.6" rx="3.2" ry="2"/>
<ellipse transform="matrix(0.6154 -0.7882 0.7882 0.6154 -68.7622 229.5153)" class="st2" cx="200.8" cy="185.2" rx="3.2" ry="2"/>
<polygon class="st3" points="191.3,292.3 242.6,266.7 242.6,264.2 191.3,289.9 "/>
<polygon class="st3" points="259.5,258.4 297.6,239.3 297.6,236.9 259.5,256 "/>
<polygon class="st3" points="252.9,272.7 304.1,247.1 304.1,244.6 252.9,270.3 "/>
<polygon class="st3" points="315,231.6 340.6,218.8 340.6,216.3 315,229.1 "/>
<polygon class="st3" points="192.8,302.3 234.5,281.5 234.5,279 192.8,299.9 "/>
<path class="st4" d="M219.8,259.6c-16.3,8.2-29.6,1.5-29.6-14.8s13.3-36.2,29.6-44.4c16.3-8.2,29.6-1.5,29.6,14.8
	S236.1,251.4,219.8,259.6z M219.8,208.4c-11.9,6-21.6,20.5-21.6,32.4s9.7,16.8,21.6,10.8c11.9-6,21.6-20.5,21.6-32.4
	S231.7,202.4,219.8,208.4L219.8,208.4z"/>
<path class="st4" d="M230.7,243.3c-3.1,3.4-6.8,6.3-10.9,8.4c-3,1.6-6.3,2.5-9.7,2.5l-5.8,8.7c4.5,0.6,9.9-0.5,15.6-3.3
	c6.4-3.3,12-7.9,16.6-13.4"/>
<path class="st4" d="M249.4,215.2c0-16.3-13.3-22.9-29.6-14.8l0,0v7.9l0,0c11.9-6,21.6-1.1,21.6,10.8c0,8.1-4.5,17.5-11.2,24.5
	l3.8,5C243.2,239.2,249.4,226.4,249.4,215.2z"/>
<path class="st4" d="M219.4,243.7c-7.3,3.6-13.2,0.7-13.2-6.6s5.9-16.2,13.2-19.8c0.2-0.1,0.4,0,0.4,0.2c0,0.3-0.2,0.5-0.4,0.6
	c-6.8,3.4-12.4,11.8-12.4,18.6s5.6,9.6,12.4,6.2c6.8-3.4,12.4-11.8,12.4-18.6c0-0.3,0.2-0.5,0.4-0.6s0.4,0,0.4,0.2
	C232.6,231.1,226.7,240,219.4,243.7z"/>
<path class="st4" d="M285.4,226.8c-16.3,8.2-29.6,1.5-29.6-14.8s13.3-36.2,29.6-44.4s29.6-1.5,29.6,14.8S301.7,218.7,285.4,226.8z
	 M285.4,175.6c-11.9,6-21.6,20.5-21.6,32.4s9.7,16.8,21.6,10.8s21.6-20.5,21.6-32.4S297.3,169.7,285.4,175.6L285.4,175.6z"/>
<path class="st4" d="M285.5,175.5c11.9-6,21.6-1.1,21.6,10.8l0,0l7.9-4l0,0c0-16.3-13.3-22.9-29.6-14.8c-5,2.6-9.6,6-13.5,10l4,4.8
	C278.8,179.7,281.9,177.3,285.5,175.5z"/>
<path class="st4" d="M273.4,204.3c0,6.4,5.2,9,11.7,5.8c6.4-3.2,11.6-11.1,11.6-17.5c0-0.2,0.2-0.5,0.4-0.6c0.2-0.1,0.4,0,0.4,0.2
	c0,6.8-5.6,15.2-12.4,18.6c-6.8,3.4-12.4,0.6-12.4-6.2c0,0-0.1-0.8,0.3-0.8C273.1,203.9,273.3,204,273.4,204.3
	C273.4,204.2,273.4,204.3,273.4,204.3z"/>
<polygon class="st4" points="350.9,144.6 328.3,155.9 328.3,148.6 350.9,137.2 "/>
<polygon class="st4" points="350.9,166.7 328.3,178 328.3,170.7 350.9,159.3 "/>
<polygon class="st4" points="350.9,188 328.3,199.3 328.3,192 350.9,180.6 "/>
<path class="st5" d="M133.4,358.4l1.8-0.4l0.3-0.1l0.3,1.3l1.6-0.4l-0.3-1.4l1.1-0.3l0.3,1.3l1.5-0.3l-0.3-1.4
	c3.1-1.2,3.2-3.6,2.8-5.4c-0.8-3.4-2.6-3.6-3.7-3.5v-0.1c1.4-0.6,1.9-2.3,1.5-4.3c-0.6-2.4-2.2-3.5-4.3-3.2l-0.3-1.4l-1.5,0.3
	l0.3,1.4l-1.1,0.2l-0.3-1.4l-1.6,0.3l0.3,1.4l-0.3,0.1l-1.8,0.4l-1.8,0.4l0.7,2.9l1.8-0.4l2.5,10.8l-1.8,0.4l0.7,2.9L133.4,358.4z
	 M133.8,343.9l1-0.2c0.9-0.3,1.8,0.2,2.1,1.1c0,0.1,0,0.1,0.1,0.2c0.3,1.2-0.1,2.1-1.3,2.4l-1,0.2L133.8,343.9z M135.3,350.2
	l1.1-0.3c1.1-0.2,2,0.3,2.4,1.9c0.3,1.1,0,2.3-1.4,2.6l-1.1,0.2L135.3,350.2z"/>
<path class="st5" d="M192.1,381.4l-4,11.8l7.2,2.3l5.5-5.2L192.1,381.4z M187.8,394.3l9,7.5l4.9-10.6l-6,5.6L187.8,394.3z"/>
<path class="st6" d="M196.7,401.8l4.9-10.6l-6,5.6L196.7,401.8z M200.8,390.3l-8.7-9l3.2,14.1L200.8,390.3z"/>
<g>
	<path class="st7" d="M111.5,349.7v6.7l0,0c0,0.1,0,0.1,0,0.2c0,7.6,10.6,13.7,23.6,13.7s23.6-6.2,23.6-13.7c0-0.1,0-0.1,0-0.2l0,0
		v-6.7"/>
	<ellipse class="st7" cx="135.1" cy="349.8" rx="23.6" ry="13.8"/>
	<path class="st7" d="M111.5,356.9v6.7l0,0c0,0.1,0,0.1,0,0.2c0,7.6,10.6,13.7,23.6,13.7s23.6-6.2,23.6-13.7c0-0.1,0-0.1,0-0.2l0,0
		v-6.7"/>
	<path class="st7" d="M111.5,364.2v6.7l0,0c0,0.1,0,0.1,0,0.2c0,7.6,10.6,13.8,23.6,13.8s23.6-6.2,23.6-13.8c0-0.1,0-0.1,0-0.2l0,0
		v-6.7"/>
	<path class="st7" d="M111.5,371.7v6.7l0,0c0,0.1,0,0.1,0,0.2c0,7.6,10.6,13.8,23.6,13.8s23.6-6.2,23.6-13.8c0-0.1,0-0.1,0-0.2l0,0
		v-6.7"/>
	<path class="st7" d="M111.5,379.2v6.7l0,0c0,0.1,0,0.1,0,0.2c0,7.6,10.6,13.8,23.6,13.8s23.6-6.2,23.6-13.8c0-0.1,0-0.1,0-0.2l0,0
		v-6.7"/>
	<path class="st7" d="M111.5,386.8v6.7l0,0c0,0.1,0,0.1,0,0.2c0,7.6,10.6,13.7,23.6,13.7s23.6-6.2,23.6-13.7c0-0.1,0-0.1,0-0.2l0,0
		v-6.7"/>
	<path class="st7" d="M111.5,394.3v6.7l0,0c0,0.1,0,0.1,0,0.2c0,7.6,10.6,13.7,23.6,13.7s23.6-6.2,23.6-13.7c0-0.1,0-0.1,0-0.2l0,0
		v-6.7"/>
	<path class="st7" d="M171,391.3v6.7l0,0v0.2c0,7.6,10.6,13.7,23.6,13.7s23.6-6.2,23.6-13.7c0-0.1,0-0.1,0-0.2l0,0v-6.7"/>
	<ellipse class="st7" cx="194.6" cy="391.4" rx="23.6" ry="13.8"/>
	<path class="st7" d="M171,398.4v6.7l0,0v0.2c0,7.6,10.6,13.7,23.6,13.7s23.6-6.2,23.6-13.7c0-0.1,0-0.1,0-0.2l0,0v-6.7"/>
	<path class="st7" d="M171,405.8v6.7l0,0v0.2c0,7.6,10.6,13.8,23.6,13.8s23.6-6.2,23.6-13.8c0-0.1,0-0.1,0-0.2l0,0v-6.7"/>
	<path class="st7" d="M171,413.2v6.7l0,0v0.2c0,7.6,10.6,13.8,23.6,13.8s23.6-6.2,23.6-13.8c0-0.1,0-0.1,0-0.2l0,0v-6.7"/>
	<path class="st7" d="M69.4,408.9l4.6,4.9l0,0l0.1,0.1c5.2,5.5,17.1,2.8,26.6-6.1s13-20.7,7.8-26.2l-0.1-0.1l0,0l-4.6-4.9"/>
	
		<ellipse transform="matrix(0.7288 -0.6847 0.6847 0.7288 -245.4532 165.895)" class="st7" cx="86.7" cy="392.8" rx="23.6" ry="13.8"/>
</g>
<path class="st5" d="M88.4,402.3l1.5-1.1l0.3-0.2l0.8,1.1l1.3-1l-0.8-1.1l0.9-0.7l0.8,1.1l1.3-0.9l-0.9-1.2c2.4-2.3,1.5-4.6,0.5-6.1
	c-2.1-2.8-3.8-2.3-4.8-1.7l0,0c1-1.1,0.8-2.9-0.3-4.5c-1.5-2-3.4-2.3-5.2-1.3l-0.9-1.2l-1.3,0.9l0.9,1.1l-0.9,0.7l-0.8-1.1l-1.3,1
	l0.8,1.1l-0.3,0.2l-1.5,1.1l-1.4,1.1l1.7,2.4l1.5-1.1l6.5,9l-1.5,1.1l1.8,2.4L88.4,402.3z M83,388.8l0.8-0.6
	c0.7-0.6,1.8-0.5,2.4,0.2c0,0.1,0.1,0.1,0.1,0.2c0.7,1,0.8,1.9-0.2,2.7l-0.8,0.6L83,388.8z M86.8,394l1-0.7c0.9-0.6,1.9-0.5,2.9,0.9
	c0.7,0.9,0.9,2.1-0.3,2.9l-0.9,0.6L86.8,394z"/>
<path class="st8" d="M441.5,360.9c-0.5-19.8-4.7-47.9-21.7-46.9c-9.1,14-28.4,7.4-28.4,7.4s-18.4,5.9-22.1,26.1
	c-3.7,20.3-13.4,25.9-24.3,30.5s-28.4,9.8-28.4,9.8l6.6,14.9c0,0,30.7-4.6,44.2-14.4c9.1-6.5,21-3.3,17,18.6"/>
<path class="st9" d="M422.2,298.1c-6.5,11.1-20.5,15.2-32,9.4c-8.4-4.2-13.9-10.2-13.4-21.6c-3-2.7-7.2-6-2.6-9.8
	c4.2-3.5,8.4-6.5,10.7-12.8"/>
<path class="st1" d="M306.3,411.4c-0.6,0.5-1.2,0.9-1.9,1.2l-3.5,1.7c-2.7,1.2-5.8,1.2-8.5,0l-13.5-6.8c-2.8-1.4-4.2-3-4-6.9"/>
<path class="st1" d="M303.9,399c5.3,2.7,5.3,7.1,0,9.8l-3.5,1.7c-2.7,1.2-5.8,1.2-8.5,0l-13.5-6.8c-5.4-2.7-5.4-7.1,0-9.8l3.5-1.7
	c1.4-0.6,4.4-1.9,6.3-0.3"/>
<path class="st10" d="M386.3,253.9c3.7,1.6,8.5,9.6,3.7,19.6c-5.9,12.3,14.5,7.8,19.8,14.8c7.8,10.2,14.9,13.2,22.2,12.6
	c6.9-0.4,13.1-5.4,12.2-13.6c-1-8.6,2.8-10.1,6.1-12.3c5-3.3,4.1-8.6-1.1-9.5c-7.6-1.3-5.6-9.5-3.6-13.9c2.4-5.1-4.1-11-8.9-8.3
	s-11.1,1.6-11-2.4c0.1-4.7-3.7-5.6-5.8-4.9c-4.2,1.4-3.7,4-7,5.6c-4,1.7-5.6-2-6.9-6.3c-1.9-6.2-15.5-4-13.1,4.5
	c1.2,4.2-4.7,3.7-8.7,5.6C380.6,247,382.6,252.1,386.3,253.9z"/>
<path class="st9" d="M311.8,391c0,0-12.6-2.6-18.6-1s-11.9,6.2-6.2,10.2c4,2.8,11-1.2,17.2-1.4c3.9-0.1,7.8,0.9,11.2,2.8"/>
<g id="Layer_3">
	<path class="st11" d="M63.7,280.9c0.9-0.1,1.6-0.8,1.7-1.7l0,0c0-0.9-0.6-1.7-1.5-1.7c0,0,0,0-0.1,0c-0.9,0-1.7,0.8-1.7,1.7
		S62.9,280.8,63.7,280.9L63.7,280.9z"/>
	<path class="st11" d="M100.6,280.9c0.9,0,1.7-0.8,1.7-1.7l0,0c0-0.9-0.6-1.7-1.5-1.7c0,0,0,0-0.1,0c-0.9,0-1.7,0.7-1.7,1.6v0.1
		C99,280.1,99.7,280.8,100.6,280.9L100.6,280.9z"/>
	<path class="st11" d="M63.7,319.1c0.9-0.1,1.6-0.8,1.7-1.7l0,0c0-0.9-0.6-1.7-1.5-1.7c0,0,0,0-0.1,0c-0.9,0-1.7,0.8-1.7,1.7
		C62.1,318.3,62.9,319,63.7,319.1L63.7,319.1z"/>
	<path class="st11" d="M99.9,319.1c0.9,0,1.6-0.7,1.6-1.6l0,0l0,0c0.1-0.9-0.6-1.6-1.4-1.7s-1.6,0.6-1.7,1.4
		C98.4,318.2,99,319,99.9,319.1z"/>
	<path class="st11" d="M99.9,354.5c0.9,0,1.7-0.8,1.7-1.7l0,0c0-0.9-0.6-1.7-1.5-1.7c0,0,0,0-0.1,0c-0.9,0-1.7,0.7-1.7,1.6v0.1
		C98.3,353.7,99,354.4,99.9,354.5L99.9,354.5z"/>
	<path class="st11" d="M100.6,241.2c0.9,0,1.7-0.8,1.7-1.7l0,0c0-0.9-0.6-1.7-1.5-1.7h-0.1c-0.9,0-1.7,0.7-1.7,1.6v0.1
		C99,240.4,99.6,241.2,100.6,241.2L100.6,241.2L100.6,241.2z"/>
	<path class="st11" d="M100.7,205.9c0.9,0,1.6-0.6,1.6-1.5c0-0.1,0-0.1,0-0.2l0,0c-0.1-0.9-0.8-1.6-1.7-1.7c-0.9,0-1.6,0.7-1.6,1.6
		c0,0,0,0,0,0.1C99,205.1,99.8,205.9,100.7,205.9z"/>
</g>
</svg>
