<?xml version="1.0" encoding="utf-8"?>
<!-- Generator: Adobe Illustrator 25.3.1, SVG Export Plug-In . SVG Version: 6.00 Build 0)  -->
<svg version="1.1" id="Layer_1" xmlns="http://www.w3.org/2000/svg" xmlns:xlink="http://www.w3.org/1999/xlink" x="0px" y="0px"
	 viewBox="0 0 500 500" style="enable-background:new 0 0 500 500;" xml:space="preserve">
<style type="text/css">
	.st0{fill:#F4F9F9;}
	.st1{fill:none;stroke:#FF6346;stroke-width:2;stroke-miterlimit:10;}
	.st2{fill:none;stroke:#FC5E49;stroke-width:2;stroke-miterlimit:10;}
	.st3{fill:none;stroke:#FA594D;stroke-width:2;stroke-miterlimit:10;}
	.st4{fill:none;stroke:#F75450;stroke-width:2;stroke-miterlimit:10;}
	.st5{fill:none;stroke:#F44F54;stroke-width:2;stroke-miterlimit:10;}
	.st6{fill:none;stroke:#F24A57;stroke-width:2;stroke-miterlimit:10;}
	.st7{fill:none;stroke:#EF465B;stroke-width:2;stroke-miterlimit:10;}
	.st8{fill:none;stroke:#ED415E;stroke-width:2;stroke-miterlimit:10;}
	.st9{fill:none;stroke:#EA3C62;stroke-width:2;stroke-miterlimit:10;}
	.st10{fill:none;stroke:#E73765;stroke-width:2;stroke-miterlimit:10;}
	.st11{fill:none;stroke:#E53269;stroke-width:2;stroke-miterlimit:10;}
	.st12{fill:none;stroke:#E22D6C;stroke-width:2;stroke-miterlimit:10;}
	.st13{fill:none;stroke:#1FB8D4;stroke-width:2;stroke-miterlimit:10;}
	.st14{fill:none;stroke:#283142;stroke-width:2;stroke-miterlimit:10;}
	.st15{fill:none;stroke:#1EB9D5;stroke-width:2;stroke-miterlimit:10;}
	.st16{fill:none;stroke:#FF6346;stroke-width:2;stroke-miterlimit:10;stroke-dasharray:2.0254,5.0634;}
	.st17{fill:none;stroke:#E53269;stroke-width:2;stroke-miterlimit:10;stroke-dasharray:2.0254,5.0634;}
	.st18{fill:#4E5E75;}
	.st19{fill:#E22D6C;}
	.st20{fill-rule:evenodd;clip-rule:evenodd;fill:#FF6346;}
</style>
<path class="st0" d="M237.2,57.6C339,37.4,391.8,72.2,392,124.8c0.3,58.4-35.9,103.4-111.8,117.6s-124.6,9.2-163.2-66.2
	C92.9,128.7,161.5,72.6,237.2,57.6z"/>
<g>
	<g>
		<g>
			<circle class="st1" cx="161" cy="159.3" r="32.9"/>
			<circle class="st2" cx="177.2" cy="149.1" r="32.9"/>
			<circle class="st3" cx="193.3" cy="140.9" r="32.9"/>
			<circle class="st4" cx="209.5" cy="134.7" r="32.9"/>
			<circle class="st5" cx="225.7" cy="130.6" r="32.9"/>
			<circle class="st6" cx="242" cy="128.4" r="32.9"/>
			<circle class="st7" cx="258.2" cy="128.1" r="32.9"/>
			<circle class="st8" cx="274.5" cy="129.8" r="32.9"/>
			<circle class="st9" cx="290.8" cy="133.4" r="32.9"/>
			<circle class="st10" cx="307.1" cy="138.8" r="32.9"/>
			<circle class="st11" cx="323.5" cy="146.1" r="32.9"/>
			<circle class="st12" cx="339.8" cy="155.2" r="32.9"/>
		</g>
	</g>
</g>
<path class="st13" d="M438,294.9l5.6-4.5c1.1-0.9,2.2-1,3.1-0.7s2.2,1,2.2,1c1.3,0.6,1.9,1.8,2.2,4.3l9.2,58.4
	c0.6,3.3-0.9,7.6-3.2,9.5l-3.3,2.6"/>
<path class="st13" d="M443.6,373.3c0,0-8.7,8.6-12.2,6.1c-1-0.4-1.9-1.7-2.1-3.4l-9.3-59.6c-0.6-3.3,0.9-7.6,3.2-9.5l5.7-4.6"/>
<path class="st14" d="M454.1,332.7l-5.5-35.1c-0.3-1.9-1.8-2.4-3.2-1.2l-2.2,1.8c0.2,1.1-0.4,2.8-1.3,3.4l-10.5,8.3
	c-0.9,0.8-1.8,0.4-2-0.8l-2.2,1.8c-1.4,1.1-2.5,3.8-2.2,5.6l8.8,56.1c0.3,1.9,1.8,2.4,3.2,1.2l7.7-6"/>
<path class="st14" d="M454.7,359.5c1.4-1.1,3.1-4.1,2.8-6l-1.3-8.7"/>
<path class="st15" d="M435.4,421.1c-6-13.2-10.9-23-13.8-33.2c-3.1-11.4-2.8-23-2-29.4c0.4-4.3,2.8-14.2,4.2-15.1"/>
<g>
	<g>
		<path class="st16" d="M63.8,341.2c7.4-94.8,39.7-125.1,66.6-152.8"/>
	</g>
</g>
<g>
	<g>
		<path class="st17" d="M372.5,188.4c21.9,22.6,47.2,46.7,60,105.9"/>
	</g>
</g>
<g>
	<path class="st18" d="M219,303.7L219,303.7C219.1,303.7,219.1,303.7,219,303.7c1,0,1.7-0.7,1.7-1.5l0,0c0-0.9-0.8-1.5-1.7-1.5
		c-0.1,0-0.1,0-0.1,0c-0.9,0-1.5,0.7-1.5,1.5S218.1,303.7,219,303.7z"/>
	<path class="st18" d="M182.3,303.7L182.3,303.7c0.1,0,0.1,0,0.1,0c0.9,0,1.5-0.7,1.5-1.5l0,0c0-0.9-0.8-1.5-1.7-1.5h-0.1
		c-0.9,0-1.5,0.7-1.5,1.5C180.7,303.1,181.4,303.7,182.3,303.7z"/>
	<path class="st18" d="M217.4,233.2c0,1,0.7,1.7,1.7,1.5l0,0h0.1c0.9,0,1.5-0.7,1.5-1.5v-0.1c-0.1-0.8-0.8-1.4-1.7-1.4
		c-0.1,0-0.1,0-0.1,0C218,231.7,217.4,232.3,217.4,233.2C217.4,233.2,217.4,233.3,217.4,233.2z"/>
	<path class="st18" d="M288.1,268.1c0,1,0.7,1.7,1.7,1.7l0,0h0.1c0.9,0,1.5-0.7,1.5-1.5v-0.1c-0.1-0.9-0.8-1.5-1.7-1.5h-0.1
		C288.8,266.6,288.1,267.2,288.1,268.1C288.1,268.1,288.1,268.2,288.1,268.1z"/>
	<path class="st18" d="M356.8,234.9L356.8,234.9L356.8,234.9c0.9,0,1.5-0.7,1.5-1.5s-0.7-1.5-1.5-1.5h-0.1c-0.9,0-1.5,0.7-1.5,1.5
		S355.8,234.9,356.8,234.9z"/>
	<path class="st18" d="M256,234.9L256,234.9c0.9,0,1.5-0.7,1.5-1.5s-0.7-1.5-1.5-1.5h-0.1c-0.9,0-1.5,0.7-1.5,1.5
		S255,234.9,256,234.9z"/>
	<path class="st18" d="M324.1,234.9L324.1,234.9L324.1,234.9c0.9,0,1.5-0.7,1.5-1.5s-0.7-1.5-1.5-1.5H324c-0.9,0-1.5,0.7-1.5,1.5
		S323.1,234.9,324.1,234.9z"/>
	<path class="st18" d="M325.1,269.6L325.1,269.6L325.1,269.6c0.9,0,1.5-0.7,1.5-1.5c0-0.9-0.7-1.5-1.5-1.5H325
		c-0.9,0-1.5,0.7-1.5,1.5C323.4,269,324.1,269.6,325.1,269.6z"/>
	<path class="st18" d="M289.8,234.9L289.8,234.9c0.9,0,1.5-0.7,1.5-1.5s-0.7-1.5-1.5-1.5h-0.1c-0.9,0-1.5,0.7-1.5,1.5
		S288.8,234.9,289.8,234.9z"/>
	<path class="st18" d="M217.4,201.5c0,1,0.7,1.7,1.7,1.5l0,0h0.1c0.9,0,1.5-0.7,1.5-1.5v-0.1c-0.1-0.8-0.8-1.4-1.7-1.4
		c-0.1,0-0.1,0-0.1,0C218,200,217.4,200.7,217.4,201.5C217.4,201.5,217.4,201.6,217.4,201.5z"/>
	<path class="st18" d="M256,203.2L256,203.2c0.9,0,1.5-0.7,1.5-1.5s-0.7-1.5-1.5-1.5h-0.1c-0.9,0-1.5,0.7-1.5,1.5
		S255,203.2,256,203.2z"/>
	<path class="st18" d="M289.8,203.2L289.8,203.2c0.9,0,1.5-0.7,1.5-1.5s-0.7-1.5-1.5-1.5h-0.1c-0.9,0-1.5,0.7-1.5,1.5
		S288.8,203.2,289.8,203.2z"/>
	<path class="st18" d="M256,269.6L256,269.6h0.1c0.9,0,1.5-0.7,1.5-1.5V268c-0.1-0.8-0.8-1.4-1.7-1.4c-0.1,0-0.1,0-0.1,0
		c-0.9,0-1.5,0.7-1.5,1.5C254.3,269,255,269.6,256,269.6z"/>
	<path class="st18" d="M219,269.6L219,269.6h0.1c0.9,0,1.5-0.7,1.5-1.5V268c-0.1-0.8-0.8-1.4-1.7-1.4c-0.1,0-0.1,0-0.1,0
		c-0.9,0-1.5,0.7-1.5,1.5C217.4,269,218,269.6,219,269.6z"/>
	<path class="st18" d="M287.2,302.1c0,0,0,0.1-0.1,0.2c0.1,0.8,0.9,1.4,1.7,1.3l0,0c0.9-0.1,1.7-0.8,1.7-1.7c0-0.1,0-0.1,0-0.1
		c-0.1-0.9-0.8-1.5-1.7-1.4l0,0C287.9,300.4,287.2,301.2,287.2,302.1L287.2,302.1z"/>
	<path class="st18" d="M182.3,234.9L182.3,234.9c0.1,0,0.1,0,0.1,0c0.9,0,1.5-0.7,1.5-1.5l0,0c0-0.9-0.8-1.5-1.7-1.5h-0.1
		c-0.9,0-1.5,0.7-1.5,1.5C180.7,234.2,181.4,234.9,182.3,234.9z"/>
	<path class="st18" d="M256,303.7L256,303.7c0.1,0,0.1,0,0.1,0c0.9,0,1.5-0.7,1.5-1.5l0,0c0-0.9-0.8-1.5-1.7-1.5h-0.1
		c-0.9,0-1.5,0.7-1.5,1.5C254.4,303.1,255.1,303.7,256,303.7z"/>
	<path class="st18" d="M289.6,338.1L289.6,338.1c0.1,0,0.1,0,0.1,0c0.9,0,1.5-0.7,1.5-1.5l0,0c0-0.9-0.8-1.5-1.7-1.5h-0.1
		c-0.9,0-1.5,0.7-1.5,1.5C288,337.4,288.8,338.1,289.6,338.1z"/>
	<path class="st18" d="M219,338.1L219,338.1L219,338.1c1,0,1.7-0.7,1.7-1.5l0,0c0-0.9-0.8-1.5-1.7-1.5h-0.1c-0.9,0-1.5,0.7-1.5,1.5
		C217.5,337.3,218.1,338,219,338.1z"/>
	<path class="st18" d="M145.9,234.9L145.9,234.9h0.1c0.9,0,1.5-0.7,1.5-1.5l0,0c0-0.9-0.8-1.5-1.7-1.5h-0.1c-0.9,0-1.5,0.7-1.5,1.5
		S145,234.9,145.9,234.9z"/>
	<path class="st18" d="M182.3,269.6L182.3,269.6h0.1c0.9,0,1.5-0.7,1.5-1.5l0,0c0-0.9-0.8-1.5-1.7-1.5c-0.1,0-0.1,0-0.1,0
		c-0.9,0-1.5,0.7-1.5,1.5C180.7,268.9,181.4,269.5,182.3,269.6z"/>
</g>
<circle class="st12" cx="433.1" cy="297" r="4.7"/>
<g>
	<path class="st15" d="M459.9,408.9c-4.5-8.1-10-14.1-8.3-25.6c1-6.5,1.9-13.1,2.3-18.1c2.6-16.6-7.4-19.4-8.9,0.6
		c-0.9,8.8-3.3,12.7-3.3,12.7"/>
</g>
<path class="st13" d="M54,365.6l-3.3-2.6c-2.3-1.9-3.8-6.2-3.2-9.5l9.2-58.4c0.3-2.5,0.9-3.8,2.2-4.3c0,0,1.3-0.7,2.2-1
	s2-0.2,3.1,0.7l5.6,4.5"/>
<path class="st13" d="M78.8,302.2l5.7,4.6c2.3,1.9,3.8,6.2,3.2,9.5l-9.3,59.6c-0.2,1.8-1.1,3-2.1,3.4c-3.5,2.5-12.2-6.1-12.2-6.1"/>
<path class="st14" d="M63,367.8l7.7,6c1.4,1.2,2.9,0.7,3.2-1.2l8.8-56.1c0.3-1.9-0.8-4.5-2.2-5.6l-2.2-1.8c-0.2,1.2-1.1,1.5-2,0.8
	l-10.5-8.3c-0.9-0.7-1.5-2.3-1.3-3.4l-2.2-1.8c-1.4-1.2-2.9-0.7-3.2,1.2l-5.5,35.1"/>
<path class="st14" d="M51.6,344.8l-1.3,8.7c-0.3,1.9,1.3,4.9,2.8,6"/>
<path class="st15" d="M83.9,343.4c1.4,0.9,3.8,10.8,4.2,15.1c0.8,6.4,1.1,18-2,29.4c-2.9,10.3-7.8,20-13.8,33.2"/>
<ellipse transform="matrix(3.327798e-02 -0.9994 0.9994 3.327798e-02 -284.5018 396.8676)" class="st1" cx="62.9" cy="345.5" rx="4.7" ry="4.7"/>
<g>
	<path class="st15" d="M66,378.5c0,0-2.4-3.9-3.3-12.7c-1.5-20-11.6-17.1-8.9-0.6c0.4,5,1.3,11.6,2.3,18.1
		c1.8,11.5-3.8,17.5-8.3,25.6"/>
</g>
<circle class="st0" cx="161.1" cy="159.2" r="31.7"/>
<circle class="st0" cx="339.8" cy="155.2" r="31.9"/>
<path class="st19" d="M344,167.1c2.1-3.8,1-7.3-2.5-11.4l5-9.2c1.6,1,2.9,2.2,3.9,3.8l2.5-2.3c-1.3-1.8-3-3.3-4.9-4.3l1.5-2.7
	l-2.2-1.2l-1.6,2.8c-4.5-1.6-8.6-0.1-10.5,3.4c-1.9,3.6-0.7,7.3,2.7,11.1l-5.4,10c-0.1-0.1-0.1-0.1-0.3-0.1c-2.2-1.2-4-3-5.2-5.1
	l-2.4,2.4c0.9,1.7,3.3,4,5.9,5.4l0.5,0.2l-1.5,2.7l2.2,1.2l1.6-2.9C338.3,172.5,342.2,170.6,344,167.1z M338.9,147.6
	c0.8-1.5,2.7-2.7,5.3-2l-4.4,8C338.3,151.2,337.9,149.6,338.9,147.6z M334.9,167.9l4.7-8.6c1.6,2.4,1.8,4.2,0.7,6.2
	C339.3,167.4,337.1,168.5,334.9,167.9z"/>
<path class="st20" d="M162.6,175.5l2.6-1.6l0.5-0.3l1.2,2l2.4-1.4l-1.2-2l1.6-1l1.2,2l2.3-1.3l-1.3-2.2c4.4-3.6,3.3-7.6,1.7-10.2
	c-3.1-5.1-6.1-4.4-7.9-3.6v-0.1c1.9-1.8,1.9-4.8,0.1-7.7c-2.2-3.6-5.4-4.4-8.7-2.9l-1.3-2.1l-2.3,1.3l1.3,2l-1.6,1l-1.2-2l-2.4,1.4
	l1.2,2l-0.5,0.3l-2.6,1.6l-2.6,1.6l2.6,4.3l2.6-1.6l9.8,16.1l-2.6,1.6l2.7,4.3L162.6,175.5z M155.5,151.9l1.5-0.9
	c1.3-0.9,3.1-0.6,4,0.7c0.1,0.1,0.1,0.2,0.2,0.3c1.1,1.8,1,3.4-0.8,4.5l-1.5,0.9L155.5,151.9z M161.2,161.3l1.7-1
	c1.6-0.9,3.3-0.6,4.8,1.9c1,1.7,1.2,3.6-0.9,4.9l-1.6,1L161.2,161.3z"/>
</svg>
