<svg xmlns="http://www.w3.org/2000/svg" viewBox="0 0 450 450"><defs><style>.a{fill:none;stroke:#1eb9d5;stroke-miterlimit:10;stroke-width:6px;fill-rule:evenodd;}.b{fill:#ff6346;}.c{fill:#334054;}</style></defs><title>databundle-icon2</title><path class="a" d="M294.16,102.88,210,125.43l-3.21,12-6.14,22.94L187.5,209.55l61.58,61.58L333.2,248.6l22.54-84.13ZM289,204.34a24.51,24.51,0,1,1,0-34.66A24.51,24.51,0,0,1,289,204.34Z"/><circle class="b" cx="271.62" cy="187.01" r="15.52"/><path class="a" d="M163,218.52l-60.64,16.25L100,243.43,95.57,260l-9.5,35.44,44.39,44.4,60.65-16.25,16.25-60.64Zm-3.75,73.14a17.67,17.67,0,1,1,0-25A17.67,17.67,0,0,1,159.21,291.66Z"/><circle class="c" cx="146.71" cy="279.16" r="9.59"/></svg>