<?xml version="1.0" encoding="utf-8"?>
<!-- Generator: Adobe Illustrator 25.3.1, SVG Export Plug-In . SVG Version: 6.00 Build 0)  -->
<svg version="1.1" id="Layer_1" xmlns="http://www.w3.org/2000/svg" xmlns:xlink="http://www.w3.org/1999/xlink" x="0px" y="0px"
	 viewBox="0 0 500 500" style="enable-background:new 0 0 500 500;" xml:space="preserve">
<style type="text/css">
	.st0{fill:#283142;}
	.st1{fill:none;stroke:#1EB9D5;stroke-width:2;stroke-linejoin:round;stroke-miterlimit:10;}
	.st2{fill:#047989;}
	.st3{fill:none;stroke:#1EB9D5;stroke-width:2;stroke-miterlimit:10;}
	.st4{fill:none;stroke:#FFE161;stroke-width:2;stroke-miterlimit:10;}
	.st5{fill:none;stroke:#FF6346;stroke-width:2;stroke-miterlimit:10;stroke-dasharray:10,10;}
	.st6{fill-rule:evenodd;clip-rule:evenodd;fill:#FF6346;}
	.st7{fill:#4E5E75;}
</style>
<g>
	<g>
		<path class="st0" d="M427.6,236.5v-96.3c0-4.5-3.6-8.2-8-8.2h-93.7c-4.4,0-8,3.7-8,8.2v12.9v62.1v58.4c0,4.5,3.6,8.2,8,8.2h93.7
			c4.4,0,8-3.7,8-8.2v-27.1"/>
	</g>
	<path class="st1" d="M313.5,146.1v-9.2c0-5.3,4.3-9.7,9.7-9.7h10"/>
	<path class="st1" d="M333.2,127.2h88.9c5.3,0,9.7,4.3,9.7,9.7v140.7c0,5.3-4.3,9.7-9.7,9.7h-99c-5.3,0-9.7-4.3-9.7-9.7V154.4"/>
</g>
<g>
	<path class="st2" d="M99.6,248.6c19.2-18.1,55.4-21.9,91-3.8c39.2,19.9,53,63.2,38.2,87.1c-22.9,37.1-95.8,46.4-120.7,22.4
		C84.4,331.7,68.7,277.7,99.6,248.6z"/>
</g>
<g>
	<polyline class="st3" points="170.1,326.6 170.1,335 115.1,335 115.1,266 122.8,266 	"/>
	<polyline class="st3" points="163,335.7 163,342.2 108,342.2 108,273.2 114.8,273.2 	"/>
	<polygon class="st4" points="177.7,326.1 122.8,326.1 122.8,257.1 167.8,257.1 168,266.1 177.7,266.3 	"/>
	<line class="st4" x1="168.1" y1="256.8" x2="178.1" y2="266"/>
</g>
<g>
	<polyline class="st3" points="399.2,227.1 399.2,235.6 344.2,235.6 344.2,166.5 351.9,166.5 	"/>
	<polyline class="st3" points="392.2,236.2 392.2,242.7 337.2,242.7 337.2,173.7 344,173.7 	"/>
	<polygon class="st4" points="406.9,226.7 351.9,226.7 351.9,157.6 396.9,157.6 397.1,166.6 406.9,166.9 	"/>
	<line class="st4" x1="397.2" y1="157.4" x2="407.3" y2="166.5"/>
</g>
<g>
	<line class="st3" x1="251.1" y1="406.7" x2="251.1" y2="444.9"/>
	<line class="st3" x1="201.8" y1="413.4" x2="201.8" y2="444.9"/>
	<line class="st3" x1="186" y1="445.7" x2="267.3" y2="445.7"/>
</g>
<g>
	<line class="st3" x1="92" y1="380.7" x2="374.5" y2="380.7"/>
</g>
<path class="st5" d="M377.9,156.3c0-53.7-76.7-106.1-143.2-76.7c-94,41.6-86.2,138.4-86.2,175.9"/>
<path class="st3" d="M375.9,286.7v107.9c0,7.1-5.8,12.9-12.9,12.9h-274c-7.1,0-12.9-5.8-12.9-12.9V239c0-7.1,5.8-12.9,12.9-12.9
	h214.8"/>
<circle class="st6" cx="377.2" cy="156.2" r="4.7"/>
<circle class="st6" cx="148.4" cy="257.6" r="4.7"/>
<g>
	<path class="st7" d="M248.6,129.9c0.9,0,1.7-0.7,1.7-1.6s-0.7-1.7-1.6-1.7s-1.7,0.7-1.7,1.6l0,0l0,0
		C247,129.1,247.7,129.9,248.6,129.9L248.6,129.9z"/>
	<path class="st7" d="M214.9,129.9c0.9,0,1.6-0.7,1.6-1.7c0-0.9-0.7-1.7-1.7-1.7c-0.9,0-1.6,0.7-1.6,1.7l0,0l0,0
		C213.2,129.1,214,129.9,214.9,129.9L214.9,129.9z"/>
	<path class="st7" d="M178.8,56.5c0.9,0,1.6-0.7,1.6-1.7c0-0.9-0.7-1.7-1.7-1.7c-0.9,0-1.6,0.7-1.6,1.7l0,0l0,0
		C177.2,55.7,177.9,56.5,178.8,56.5L178.8,56.5z"/>
	<path class="st7" d="M178.8,91.8c0.9,0,1.6-0.7,1.6-1.7c0-0.9-0.7-1.7-1.7-1.7c-0.9,0-1.6,0.7-1.6,1.7l0,0l0,0
		C177.2,91.1,177.9,91.8,178.8,91.8L178.8,91.8z"/>
	<path class="st7" d="M142.8,91.8c0.9,0,1.6-0.7,1.6-1.7s-0.7-1.7-1.7-1.7c-0.9,0-1.6,0.7-1.6,1.7l0,0l0,0
		C141.1,91.1,141.9,91.8,142.8,91.8L142.8,91.8z"/>
	<path class="st7" d="M142.8,129.9c0.9-0.1,1.6-0.9,1.5-1.8c-0.1-0.8-0.7-1.5-1.5-1.5c-0.9,0-1.6,0.7-1.6,1.7l0,0l0,0
		C141.1,129.1,141.9,129.9,142.8,129.9L142.8,129.9z"/>
	<path class="st7" d="M142.8,165.2c0.9,0,1.6-0.7,1.6-1.7s-0.7-1.7-1.7-1.7c-0.9,0-1.6,0.7-1.6,1.7l0,0l0,0
		C141.1,164.5,141.9,165.2,142.8,165.2L142.8,165.2z"/>
	<path class="st7" d="M106.5,129.9c0.9,0,1.6-0.7,1.6-1.7s-0.7-1.7-1.7-1.7c-0.9,0-1.6,0.7-1.6,1.7l0,0l0,0
		C104.9,129.1,105.6,129.9,106.5,129.9L106.5,129.9z"/>
	<path class="st7" d="M106.5,165.2c0.9,0,1.6-0.7,1.6-1.7s-0.7-1.7-1.7-1.7c-0.9,0-1.6,0.7-1.6,1.7l0,0l0,0
		C104.9,164.5,105.6,165.2,106.5,165.2L106.5,165.2z"/>
	<path class="st7" d="M106.5,204.1c0.9,0,1.6-0.7,1.6-1.7s-0.7-1.7-1.7-1.7c-0.9,0-1.6,0.7-1.6,1.7l0,0l0,0
		C104.9,203.4,105.6,204.1,106.5,204.1L106.5,204.1z"/>
	<path class="st7" d="M70.5,204.1c0.9,0,1.6-0.7,1.6-1.7s-0.7-1.7-1.7-1.7c-0.9,0-1.6,0.7-1.6,1.7l0,0l0,0
		C68.8,203.4,69.5,204.1,70.5,204.1C70.4,204.1,70.5,204.1,70.5,204.1z"/>
	<path class="st7" d="M280.4,129.9c0.9,0,1.6-0.7,1.6-1.7c0-0.9-0.7-1.7-1.7-1.7c-0.9,0-1.6,0.7-1.6,1.7l0,0l0,0
		C278.8,129.1,279.5,129.8,280.4,129.9z"/>
</g>
</svg>
