<?xml version="1.0" encoding="utf-8"?>
<!-- Generator: Adobe Illustrator 23.0.4, SVG Export Plug-In . SVG Version: 6.00 Build 0)  -->
<svg version="1.1" id="Layer_1" xmlns="http://www.w3.org/2000/svg" xmlns:xlink="http://www.w3.org/1999/xlink" x="0px" y="0px"
	 viewBox="0 0 584.4 528.8" style="enable-background:new 0 0 584.4 528.8;" xml:space="preserve">
<style type="text/css">
	.st0{fill:none;stroke:#FFE161;stroke-width:3;stroke-miterlimit:10;}
	.st1{fill:none;stroke:#334054;stroke-width:4;stroke-miterlimit:10;}
	.st2{fill:#FFE161;}
</style>
<title>databundles-1</title>
<polyline class="st0" points="403.9,171.9 466.3,333 142.9,458.2 17.7,134.9 278.5,33.8 "/>
<polyline class="st0" points="278.5,33.8 341,9.6 355.5,46.9 "/>
<path class="st1" d="M440.7,167.3c-2.1-6.9-6.3-14.3-14.3-21s-15.8-9.6-22.7-10.3"/>
<path class="st1" d="M474.5,107c-2.8-3-5.8-5.8-9-8.4c-16.2-13.7-32.2-19.9-46.6-21.9"/>
<path class="st1" d="M495.9,142.8c-2-6.2-4.6-12.3-7.9-17.9"/>
<path class="st1" d="M413.5,106.4c10.2,1.6,21.5,6.1,33,15.9c11.8,10,18.3,20.8,21.8,31.1"/>
<ellipse transform="matrix(0.9863 -0.165 0.165 0.9863 -23.2838 69.2317)" class="st2" cx="405" cy="174.7" rx="11.1" ry="11.1"/>
</svg>
