<?xml version="1.0" encoding="utf-8"?>
<!-- Generator: Adobe Illustrator 23.0.4, SVG Export Plug-In . SVG Version: 6.00 Build 0)  -->
<svg version="1.1" id="Layer_1" xmlns="http://www.w3.org/2000/svg" xmlns:xlink="http://www.w3.org/1999/xlink" x="0px" y="0px"
	 viewBox="0 0 450 450" style="enable-background:new 0 0 450 450;" xml:space="preserve">
<style type="text/css">
	.st0{fill:none;stroke:#1EB9D5;stroke-width:4;stroke-miterlimit:10;}
	.st1{fill:#FF6346;}
	.st2{fill:none;stroke:#334054;stroke-width:4;stroke-miterlimit:10;}
</style>
<path class="st0" d="M197.6,213.6c-3,0.9-6.3,1.4-9.6,1.4c-18.5,0-33.5-15-33.5-33.5s15-33.5,33.5-33.5s33.5,15,33.5,33.5
	c0,3.8-0.6,7.4-1.8,10.8"/>
<title>digital-gifts-3</title>
<path class="st1" d="M202.1,187.4c3.5-8-0.2-17.3-8.2-20.7s-17.3,0.2-20.7,8.2c-3.5,8,0.2,17.3,8.2,20.7c2,0.9,4.1,1.3,6.3,1.3
	c1.2,0,2.4-0.1,3.6-0.4l-2.6-13.3L202.1,187.4"/>
<polygon class="st2" points="224.6,297.6 188.7,183.2 304.1,218.1 266.2,242.5 312.4,288.6 295.1,305.9 249,259.8 "/>
</svg>
