<?xml version="1.0" encoding="utf-8"?>
<!-- Generator: Adobe Illustrator 23.0.4, SVG Export Plug-In . SVG Version: 6.00 Build 0)  -->
<svg version="1.1" id="Layer_1" xmlns="http://www.w3.org/2000/svg" xmlns:xlink="http://www.w3.org/1999/xlink" x="0px" y="0px"
	 viewBox="0 0 450 450" style="enable-background:new 0 0 450 450;" xml:space="preserve">
<style type="text/css">
	.st0{fill:none;stroke:#1EB9D5;stroke-width:4;stroke-miterlimit:10;}
	.st1{fill:none;stroke:#334054;stroke-width:4;stroke-miterlimit:10;}
	.st2{fill:#FF6346;}
	.st3{fill:none;stroke:#FF6346;stroke-width:4;stroke-miterlimit:10;stroke-dasharray:10,10;}
</style>
<g>
	<title>digital-gifts-1</title>
	<line class="st0" x1="221.4" y1="307.2" x2="221.4" y2="124.2"/>
	<path class="st0" d="M214.5,124.2c0,0-99.8,78.3-3,182.7"/>
	<path class="st0" d="M228.1,124.2c0,0,99.8,78.3,3,182.7"/>
	<line class="st0" x1="143.6" y1="215.6" x2="312.8" y2="215.6"/>
	<line class="st0" x1="159.9" y1="166.5" x2="298.3" y2="166.5"/>
	<line class="st0" x1="159.9" y1="264.6" x2="298.3" y2="264.6"/>
	<path class="st1" d="M180.3,134c45.2-22.8,100.2-4.6,123,40.6c22.8,45.2,4.6,100.2-40.6,123c-45.2,22.8-100.2,4.6-123-40.6
		c-18.5-36.7-10.3-81.2,20.1-108.9"/>
	<circle class="st2" cx="239.2" cy="250.6" r="6.4"/>
	<path class="st3" d="M280.2,138.8c25.3-6.6,53.3,27.2,34.7,59.1c-25.1,43.1-63.4,49.8-74.5,53"/>
</g>
</svg>
