<?xml version="1.0" encoding="utf-8"?>
<!-- Generator: Adobe Illustrator 23.0.4, SVG Export Plug-In . SVG Version: 6.00 Build 0)  -->
<svg version="1.1" id="Layer_1" xmlns="http://www.w3.org/2000/svg" xmlns:xlink="http://www.w3.org/1999/xlink" x="0px" y="0px"
	 viewBox="0 0 450 450" style="enable-background:new 0 0 450 450;" xml:space="preserve">
<style type="text/css">
	.st0{fill:none;stroke:#FF6346;stroke-width:4;stroke-miterlimit:10;stroke-dasharray:10,10;}
	.st1{fill:none;stroke:#1EB9D5;stroke-width:4;stroke-miterlimit:10;}
	.st2{fill:none;stroke:#334054;stroke-width:4;stroke-miterlimit:10;}
	.st3{fill:#FF6346;}
</style>
<title>digital-gifts-4</title>
<path class="st0" d="M321.9,273.2c4.2,26.8-14.4,51.9-41.7,56c-23.7,3.6-46.6-9.9-54.6-32.1"/>
<path class="st1" d="M250.2,247.6l5.6,15c1.3,3.7-0.7,7.7-4.4,9l-64.6,23.3c-3.7,1.4-7.8-0.4-9.2-4l-19.7-53l-19.7-53.2l-4.7-12.6
	c-1.3-3.7,0.7-7.7,4.4-9l64.6-23.3c3.7-1.4,7.8,0.4,9.2,4l33.8,91"/>
<path class="st2" d="M159.3,216.9l23.3,62.9c1.3,3.5,5.2,5.3,8.7,4.1c0,0,0,0,0,0l49.2-17.7c3.6-1.3,5.4-5.1,4.1-8.6c0,0,0,0,0,0
	l-7.7-20.8l-5.6-15.1l-24.8-66.8c-1.3-3.5-5.2-5.3-8.8-4c0,0,0,0,0,0l-12.9,4.7l-0.3,6l-19.1,6.9l-3.8-4.5l-13,4.7
	c-3.6,1.3-5.4,5.1-4.1,8.6c0,0,0,0,0,0l3.7,10l5.8,15.7"/>
<ellipse class="st3" cx="321.1" cy="269.4" rx="5.9" ry="5.8"/>
</svg>
