<?xml version="1.0" encoding="utf-8"?>
<!-- Generator: Adobe Illustrator 23.0.4, SVG Export Plug-In . SVG Version: 6.00 Build 0)  -->
<svg version="1.1" id="Layer_1" xmlns="http://www.w3.org/2000/svg" xmlns:xlink="http://www.w3.org/1999/xlink" x="0px" y="0px"
	 viewBox="0 0 584.4 528.8" style="enable-background:new 0 0 584.4 528.8;" xml:space="preserve">
<style type="text/css">
	.st0{fill:none;stroke:#334054;stroke-width:3;stroke-miterlimit:10;}
	.st1{fill:none;stroke:#FF6346;stroke-width:3;stroke-miterlimit:10;}
	.st2{fill-rule:evenodd;clip-rule:evenodd;fill:#FF9900;}
	.st3{fill:none;stroke:#1EB9D5;stroke-width:3;stroke-miterlimit:10;}
</style>
<title>gift-cards</title>
<path class="st0" d="M64.7,284.3l-6.8,3c-11.7,5.2-17,18.9-11.8,30.6l60.4,137.2c5.2,11.7,18.8,17,30.5,11.9l212.1-93.4
	c11.7-5.2,17-18.8,11.9-30.5l-20.4-46.6"/>
<path class="st1" d="M75.3,143.1l-6.8,0.9c-12.7,1.8-21.5,13.4-19.8,26.1l20.7,148.5c1.8,12.7,13.5,21.5,26.2,19.8l229.6-31.9
	c12.7-1.8,21.5-13.5,19.8-26.2l-5.8-42.2"/>
<path d="M114.9,176.5c1.2-3.4,4-6.1,7.6-6.9c-1-3.3-3.5-5.9-6.7-7.1c-3.4-1.5-7.4-0.2-9.2-0.7c-1.8-0.6-3.8-3.5-6.7-4.3
	c-3.9-1.1-8.1-0.2-11,2.6c-6.1,5.5-6.5,16.6-4.5,23.4c1,3.3,2.2,7.1,5.2,7.9c3,0.9,4.5-0.5,7.9,0.5c3.4,1.1,3.8,3.2,6.8,4.1
	c3,0.9,5.8-1.1,8.6-3.2c2-1.5,3.7-3.3,5.1-5.3C114.8,184.7,113.6,180.4,114.9,176.5z M114.6,158.1c2.3-1.4,4-3.7,4.6-6.4
	c-2.6-0.6-5.4-0.1-7.7,1.2c-2.3,1.3-4,3.5-4.6,6.1C109.6,160,112.4,159.6,114.6,158.1z"/>
<g>
	<path d="M135.3,446.8c4.2-1.7,6-6.4,4-11.1l-7.9-18.5l4.5-2l12.8,30.1l-4.4,1.9l-1.2-2.8c-1.2,3-3.5,5.5-6.5,6.7
		c-6.4,2.7-13.4,0.1-16.4-6.9l-8-18.8l4.5-1.9l7.9,18.5C126.6,446.8,131.1,448.6,135.3,446.8"/>
	<path d="M139.3,413.8l4.3-1.8l4.7,10.9c1.1-3,3.5-5.3,6.4-6.6c6.3-2.7,13.6,0.3,16.3,6.6c2.7,6.3-0.3,13.6-6.6,16.3
		c-2.9,1.2-6.3,1.3-9.2,0.1l1.2,2.7l-4.3,1.8L139.3,413.8z M162.5,435.5c4.2-1.8,6.2-6.6,4.4-10.8c-1.8-4.2-6.6-6.2-10.8-4.4
		c-4.2,1.8-6.2,6.6-4.4,10.8c0,0,0,0,0,0C153.4,435.3,158.2,437.3,162.5,435.5C162.4,435.5,162.4,435.5,162.5,435.5"/>
	<path d="M179.1,405.9c6.3-2.7,13,0.2,15.8,6.7l0.6,1.4l-17.8,7.6c2.1,3.3,6.3,4.7,9.9,3.1c2.5-1,4.4-3.2,4.9-5.9l4.1,1
		c-0.9,3.9-3.7,7.2-7.5,8.7c-6,3.3-13.6,1.2-16.9-4.8c-3.3-6-1.2-13.6,4.8-16.9C177.7,406.5,178.4,406.2,179.1,405.9 M176.3,418.2
		l13.4-5.7c-2.2-3.4-6.8-4.4-10.2-2.1C176.9,412.1,175.6,415.2,176.3,418.2"/>
	<path d="M203.6,400.6c-2.8,1.2-4,4.3-2.5,7.7l5.3,12.4l-4.3,1.8l-9.3-21.9l4.3-1.8l1.1,2.7c0.3-2.3,1.9-4.3,4-5.1l1.5-0.6l1.7,4
		L203.6,400.6z"/>
</g>
<g>
	<path class="st2" d="M147.6,308.1c-7.3,6.6-16.5,10.9-26.3,12.2c-12.4,1.8-25-1.1-35.4-8.1c-0.8-0.5-0.2-1.5,0.6-1.1
		c11.1,4.4,23.1,5.9,34.9,4.3c8.8-1.3,17.3-4.3,24.9-8.8C147.5,305.8,148.8,307.1,147.6,308.1z"/>
	<path class="st2" d="M150.2,304.2c-1.1-1.1-6.4,0.3-8.7,0.9c-0.7,0.2-0.9-0.4-0.3-1c3.8-3.6,11-3.7,11.9-2.8
		c0.9,0.9,0.9,8-2.6,11.9c-0.5,0.6-1.2,0.4-1-0.3C150.1,310.6,151.4,305.3,150.2,304.2z"/>
</g>
<path class="st3" d="M363.6,135.4l9.3-39.1c0,0,0,0,0,0c2.9-12.5-4.8-24.9-17.2-27.9L130.2,15c0,0,0,0,0,0
	c-12.5-2.9-24.9,4.8-27.9,17.2L67.7,178.2c0,0,0,0,0,0c-2.9,12.5,4.8,24.9,17.2,27.9l225.6,53.4c0,0,0,0,0,0
	c12.5,2.9,24.9-4.8,27.9-17.2l14.3-60L363.6,135.4z"/>
</svg>
