<?xml version="1.0" encoding="utf-8"?>
<!-- Generator: Adobe Illustrator 23.0.4, SVG Export Plug-In . SVG Version: 6.00 Build 0)  -->
<svg version="1.1" id="Layer_1" xmlns="http://www.w3.org/2000/svg" xmlns:xlink="http://www.w3.org/1999/xlink" x="0px" y="0px"
	 viewBox="0 0 450 450" style="enable-background:new 0 0 450 450;" xml:space="preserve">
<style type="text/css">
	.st0{fill:none;stroke:#334054;stroke-width:6;stroke-miterlimit:10;}
	.st1{fill:none;stroke:#1EB9D5;stroke-width:6;stroke-miterlimit:10;}
	.st2{fill:none;stroke:#FF6346;stroke-width:6;stroke-miterlimit:10;}
</style>
<title>digital-gifts-icon1</title>
<g>
	<polyline class="st0" points="243.3,172.1 100.1,172.1 100.1,358.8 286.9,358.8 286.9,243.3 	"/>
	<polygon class="st1" points="295.2,88.9 265.5,126.7 217.5,123.7 244.3,163.7 226.5,208.4 272.8,195.3 309.8,226 311.6,177.8 
		352.2,152.1 307.1,135.5 	"/>
	<line class="st2" x1="193.5" y1="169.7" x2="193.5" y2="361.1"/>
	<line class="st2" x1="97.8" y1="314.1" x2="289.2" y2="313.9"/>
	<path class="st2" d="M195.2,312.5c0-27.4,19.2-60.4,38.7-44.5C253.9,284.3,228.5,311.3,195.2,312.5z"/>
	<path class="st2" d="M192.7,312.5c0-27.4-19.2-60.4-38.7-44.5C133.9,284.3,159.3,311.3,192.7,312.5z"/>
</g>
</svg>
