<?xml version="1.0" encoding="utf-8"?>
<!-- Generator: Adobe Illustrator 23.0.4, SVG Export Plug-In . SVG Version: 6.00 Build 0)  -->
<svg version="1.1" id="Layer_1" xmlns="http://www.w3.org/2000/svg" xmlns:xlink="http://www.w3.org/1999/xlink" x="0px" y="0px"
	 viewBox="0 0 450 450" style="enable-background:new 0 0 450 450;" xml:space="preserve">
<style type="text/css">
	.st0{fill:#FF6346;}
	.st1{fill:none;stroke:#334054;stroke-width:4;stroke-miterlimit:10;}
	.st2{fill:none;stroke:#1EB9D5;stroke-width:4;stroke-miterlimit:10;}
</style>
<g>
	<title>digital-gifts-icon2</title>
	<path class="st0" d="M221.9,157.8l-14.7,9.7l-3.2-5.6l19.3-13.1h5.8v78h-7.1V157.8z"/>
	<path class="st1" d="M199.5,242.2c-30.1-12.6-44.3-47.2-31.7-77.3s47.2-44.3,77.3-31.7c30.1,12.6,44.3,47.2,31.7,77.3
		c-9.2,21.9-30.6,36.2-54.3,36.3c-2,0-4-0.1-6-0.3"/>
	<path class="st1" d="M238.4,269.9c2.1,9.2,7.5,24.1,20.7,45.2l5.5-17.5l17.8,4.1c0,0-11.7-12-17.9-27.9"/>
	<path class="st1" d="M211.3,271.7c-2.6,9.6-8.3,24.3-20.9,43.4l-5.1-17.6l-17.9,3.8c0,0,16.7-16.4,21.3-36.6"/>
	<path class="st2" d="M147.5,156.1c-1.9-5.7,3.4-12.6,10.3-10.3l0,0c2.2,0.7,4.6-0.5,5.4-2.7c0.4-1.3,0.2-2.8-0.6-3.9l0,0
		c-5.5-7.5,3.9-16.8,11.3-11.3l0,0c1.9,1.4,4.6,1,6-0.9c0.8-1.1,1.1-2.6,0.6-3.9l0,0c-2.9-8.8,8.9-14.8,14.3-7.3l0,0
		c1.4,1.9,4.1,2.3,6,1c1.1-0.8,1.8-2.1,1.8-3.5l0,0c0-9.3,13-11.3,15.8-2.5l0,0c0.7,2.2,3.1,3.5,5.4,2.8c1.3-0.4,2.3-1.4,2.8-2.8
		l0,0c2.8-8.8,15.9-6.8,15.8,2.5l0,0c0,2.4,1.9,4.3,4.3,4.3c1.4,0,2.7-0.7,3.5-1.8l0,0c5.4-7.5,17.2-1.5,14.3,7.3l0,0
		c-0.7,2.2,0.5,4.6,2.7,5.4c1.3,0.4,2.8,0.2,3.9-0.6l0,0c7.5-5.5,16.8,3.9,11.3,11.3l0,0c-1.4,1.9-1,4.6,0.9,6
		c1.1,0.8,2.6,1.1,3.9,0.6l0,0c8.8-2.9,14.8,8.9,7.3,14.3l0,0c-1.9,1.4-2.3,4.1-1,6c0.8,1.1,2.1,1.8,3.5,1.8l0,0
		c9.3,0,11.3,13,2.5,15.8l0,0c-2.2,0.7-3.5,3.1-2.8,5.4c0.4,1.3,1.4,2.3,2.8,2.8l0,0c8.8,2.8,6.8,15.9-2.5,15.8l0,0
		c-2.4,0-4.3,1.9-4.3,4.3c0,1.4,0.7,2.7,1.8,3.5l0,0c7.5,5.4,1.5,17.2-7.3,14.3l0,0c-2.2-0.7-4.6,0.5-5.4,2.7
		c-0.4,1.3-0.2,2.8,0.6,3.9l0,0c5.5,7.5-3.9,16.8-11.3,11.3l0,0c-1.9-1.4-4.6-1-6,0.9c-0.8,1.1-1.1,2.6-0.6,3.9l0,0
		c2.9,8.8-8.9,14.8-14.3,7.3l0,0c-1.4-1.9-4.1-2.3-6-1c-1.1,0.8-1.8,2.1-1.8,3.5l0,0c0,9.3-13,11.3-15.8,2.5l0,0
		c-0.7-2.2-3.1-3.5-5.4-2.8c-1.3,0.4-2.3,1.4-2.8,2.8l0,0c-2.8,8.8-15.9,6.8-15.8-2.5l0,0c0-2.4-1.9-4.3-4.3-4.3
		c-1.4,0-2.7,0.7-3.5,1.8l0,0c-5.4,7.5-17.2,1.5-14.3-7.3l0,0c0.7-2.2-0.5-4.6-2.7-5.4c-1.3-0.4-2.8-0.2-3.9,0.6l0,0
		c-7.5,5.5-16.8-3.9-11.3-11.3l0,0c1.4-1.9,1-4.6-0.9-6c-1.1-0.8-2.6-1.1-3.9-0.6l0,0c-8.8,2.9-14.8-8.9-7.3-14.3l0,0
		c1.9-1.4,2.3-4.1,1-6c-0.8-1.1-2.1-1.8-3.5-1.8l0,0c-9.3,0-11.3-13-2.5-15.8l0,0c2.2-0.7,3.5-3.1,2.8-5.4c-0.4-1.3-1.4-2.3-2.8-2.8
		l0,0c-8.8-2.8-6.8-15.9,2.5-15.8l0,0c2.4,0,4.3-1.9,4.3-4.3c0-1.4-0.7-2.7-1.8-3.5l0,0C149.1,159.1,148,157.7,147.5,156.1"/>
</g>
</svg>
