<svg xmlns="http://www.w3.org/2000/svg" viewBox="0 0 1482.15 351.34"><defs><style>.a,.b{fill:#dfe8f4;}.a{fill-rule:evenodd;}</style></defs><title>dots-bgd</title><path class="a" d="M1128.74,284.27s1.73.05,8.29.12"/><path class="b" d="M161.41,75.69a3,3,0,1,1-3-3A3,3,0,0,1,161.41,75.69Z"/><path class="b" d="M291.19,75.69a3,3,0,1,1-3-3A3,3,0,0,1,291.19,75.69Z"/><path class="b" d="M356.09,75.69a3,3,0,1,1-3-3A3,3,0,0,1,356.09,75.69Z"/><path class="b" d="M1199.68,76.84a3,3,0,1,1-3-3A3,3,0,0,1,1199.68,76.84Z"/><path class="b" d="M1264.57,76.84a3,3,0,1,1-3-3A3,3,0,0,1,1264.57,76.84Z"/><path class="b" d="M96.51,138.2a3,3,0,1,1-3-3A3,3,0,0,1,96.51,138.2Z"/><path class="b" d="M161.41,138.2a3,3,0,1,1-3-3A3,3,0,0,1,161.41,138.2Z"/><path class="b" d="M227,138.2a3,3,0,1,1-3-3A3,3,0,0,1,227,138.2Z"/><path class="b" d="M1134.79,16.48a3,3,0,1,1-3-3A3,3,0,0,1,1134.79,16.48Z"/><path class="b" d="M1264.57,138.2a3,3,0,1,1-3-3A3,3,0,0,1,1264.57,138.2Z"/><path class="b" d="M1069.9,78.27a3,3,0,1,1-3-3A3,3,0,0,1,1069.9,78.27Z"/><path class="b" d="M1134.79,78.27a3,3,0,1,1-3-3A3,3,0,0,1,1134.79,78.27Z"/><path class="b" d="M1329.47,138.2a3,3,0,1,1-3-3A3,3,0,0,1,1329.47,138.2Z"/><path class="b" d="M31.62,200.71a3,3,0,1,1-3-3A3,3,0,0,1,31.62,200.71Z"/><path class="b" d="M96.51,200.71a3,3,0,1,1-3-3A3,3,0,0,1,96.51,200.71Z"/><path class="b" d="M1329.47,200.71a3,3,0,1,1-3-3A3,3,0,0,1,1329.47,200.71Z"/><path class="b" d="M161.41,263.22a3,3,0,1,1-3-3A3,3,0,0,1,161.41,263.22Z"/><path class="b" d="M227,263.22a3,3,0,1,1-3-3A3,3,0,0,1,227,263.22Z"/><path class="b" d="M1199.68,263.22a3,3,0,1,1-3-3A3,3,0,0,1,1199.68,263.22Z"/><path class="b" d="M1264.57,263.22a3,3,0,1,1-3-3A3,3,0,0,1,1264.57,263.22Z"/><path class="b" d="M1329.47,263.22a3,3,0,1,1-3-3A3,3,0,0,1,1329.47,263.22Z"/><path class="b" d="M1394.36,263.22a3,3,0,1,1-3-3A3,3,0,0,1,1394.36,263.22Z"/><path class="b" d="M1459.25,263.22a3,3,0,1,1-3-3A3,3,0,0,1,1459.25,263.22Z"/><path class="b" d="M226.3,325.73a3,3,0,1,1-3-3A3,3,0,0,1,226.3,325.73Z"/><path class="b" d="M291.19,325.73a3,3,0,1,1-3-3A3,3,0,0,1,291.19,325.73Z"/><path class="b" d="M1199.68,325.73a3,3,0,1,1-3-3A3,3,0,0,1,1199.68,325.73Z"/><path class="b" d="M1394.36,325.73a3,3,0,1,1-3-3A3,3,0,0,1,1394.36,325.73Z"/></svg>