<svg xmlns="http://www.w3.org/2000/svg" viewBox="0 0 135 40"><defs><style>.a{fill:#a6a6a6;}.b{fill:#fff;}</style></defs><title>download-app-store</title><path class="a" d="M140.2,50H14.73A4.74,4.74,0,0,1,10,45.27V14.73A4.73,4.73,0,0,1,14.73,10H140.2a4.8,4.8,0,0,1,4.8,4.73V45.27A4.81,4.81,0,0,1,140.2,50Z" transform="translate(-10 -10)"/><path d="M144,45.27a3.83,3.83,0,0,1-3.83,3.83H14.73a3.84,3.84,0,0,1-3.84-3.83V14.72a3.84,3.84,0,0,1,3.84-3.83H140.2A3.83,3.83,0,0,1,144,14.72V45.27Z" transform="translate(-10 -10)"/><path class="b" d="M40.13,29.78a5.79,5.79,0,0,1,2.76-4.86,6,6,0,0,0-4.68-2.53c-2-.2-3.87,1.18-4.87,1.18s-2.57-1.16-4.23-1.12a6.22,6.22,0,0,0-5.24,3.19c-2.27,3.93-.58,9.69,1.59,12.86,1.09,1.55,2.36,3.29,4,3.23s2.23-1,4.19-1,2.51,1,4.21,1,2.84-1.56,3.89-3.13a13,13,0,0,0,1.78-3.62A5.61,5.61,0,0,1,40.13,29.78Z" transform="translate(-10 -10)"/><path class="b" d="M36.93,20.31a5.71,5.71,0,0,0,1.3-4.09,5.77,5.77,0,0,0-3.75,1.94,5.4,5.4,0,0,0-1.34,3.94A4.83,4.83,0,0,0,36.93,20.31Z" transform="translate(-10 -10)"/><path class="b" d="M63.65,41.5H61.37l-1.24-3.91H55.81L54.62,41.5H52.41l4.28-13.3h2.65ZM59.76,36l-1.13-3.47c-.12-.36-.34-1.19-.67-2.51h0c-.13.57-.34,1.41-.63,2.51L56.18,36Z" transform="translate(-10 -10)"/><path class="b" d="M74.66,36.59a5.47,5.47,0,0,1-1.32,3.87,3.87,3.87,0,0,1-2.94,1.26,3,3,0,0,1-2.73-1.36h0v5H65.5V35.07c0-1,0-2.08-.08-3.16H67.3l.12,1.52h0a3.54,3.54,0,0,1,3.23-1.72,3.58,3.58,0,0,1,2.84,1.34A5.35,5.35,0,0,1,74.66,36.59Zm-2.17.08a3.94,3.94,0,0,0-.63-2.31,2.17,2.17,0,0,0-1.86-1,2.21,2.21,0,0,0-1.43.52,2.42,2.42,0,0,0-.84,1.37,3.23,3.23,0,0,0-.1.65v1.6a2.56,2.56,0,0,0,.65,1.77,2.11,2.11,0,0,0,1.66.72,2.2,2.2,0,0,0,1.88-.92A4.08,4.08,0,0,0,72.49,36.67Z" transform="translate(-10 -10)"/><path class="b" d="M85.7,36.59a5.47,5.47,0,0,1-1.32,3.87,3.88,3.88,0,0,1-2.95,1.26,2.93,2.93,0,0,1-2.72-1.36h0v5H76.54V35.07c0-1,0-2.08-.08-3.16h1.87l.12,1.52h0a3.79,3.79,0,0,1,6.07-.38A5.3,5.3,0,0,1,85.7,36.59Zm-2.17.08a3.87,3.87,0,0,0-.64-2.31,2.15,2.15,0,0,0-1.85-1,2.17,2.17,0,0,0-1.43.52,2.42,2.42,0,0,0-.84,1.37,2.64,2.64,0,0,0-.1.65v1.6a2.55,2.55,0,0,0,.64,1.77A2.13,2.13,0,0,0,81,40a2.18,2.18,0,0,0,1.87-.92A4.09,4.09,0,0,0,83.53,36.67Z" transform="translate(-10 -10)"/><path class="b" d="M98,37.77a3.57,3.57,0,0,1-1.18,2.77,5.29,5.29,0,0,1-3.63,1.16,6.29,6.29,0,0,1-3.45-.83l.5-1.78a5.78,5.78,0,0,0,3.08.85,2.94,2.94,0,0,0,1.88-.54A1.79,1.79,0,0,0,95.91,38a1.87,1.87,0,0,0-.56-1.37,5.13,5.13,0,0,0-1.83-1Q90,34.25,90,31.74a3.37,3.37,0,0,1,1.23-2.69A4.82,4.82,0,0,1,94.51,28a6.49,6.49,0,0,1,3,.63L97,30.37a5.19,5.19,0,0,0-2.54-.61,2.58,2.58,0,0,0-1.76.55,1.6,1.6,0,0,0-.53,1.21,1.62,1.62,0,0,0,.61,1.3,6.78,6.78,0,0,0,1.93,1,6.5,6.5,0,0,1,2.53,1.62A3.35,3.35,0,0,1,98,37.77Z" transform="translate(-10 -10)"/><path class="b" d="M105.09,33.51h-2.35v4.66c0,1.18.41,1.77,1.24,1.77a3.64,3.64,0,0,0,1-.1l.06,1.62a4.78,4.78,0,0,1-1.66.24,2.55,2.55,0,0,1-2-.77,3.75,3.75,0,0,1-.72-2.59V33.51h-1.4v-1.6h1.4V30.15l2.1-.63v2.39h2.35Z" transform="translate(-10 -10)"/><path class="b" d="M115.69,36.63a5.28,5.28,0,0,1-1.26,3.63,4.52,4.52,0,0,1-3.52,1.46,4.28,4.28,0,0,1-3.36-1.4,5.07,5.07,0,0,1-1.26-3.53,5.21,5.21,0,0,1,1.3-3.66,4.49,4.49,0,0,1,3.48-1.42,4.41,4.41,0,0,1,3.4,1.4A5.09,5.09,0,0,1,115.69,36.63Zm-2.21.07a4.33,4.33,0,0,0-.57-2.28,2.2,2.2,0,0,0-3.87,0,4.32,4.32,0,0,0-.57,2.32A4.23,4.23,0,0,0,109,39a2.18,2.18,0,0,0,3.85,0A4.33,4.33,0,0,0,113.48,36.7Z" transform="translate(-10 -10)"/><path class="b" d="M122.62,33.78a3.55,3.55,0,0,0-.67-.06,2,2,0,0,0-1.74.85,3.25,3.25,0,0,0-.53,1.9v5h-2.13l0-6.57c0-1.11,0-2.11-.08-3h1.85l.08,1.84h.06a3.25,3.25,0,0,1,1.07-1.52,2.53,2.53,0,0,1,1.54-.52,4.09,4.09,0,0,1,.53,0Z" transform="translate(-10 -10)"/><path class="b" d="M132.16,36.25a5.26,5.26,0,0,1-.08,1h-6.4a2.81,2.81,0,0,0,.93,2.17,3.16,3.16,0,0,0,2.09.67,7.15,7.15,0,0,0,2.59-.45l.33,1.48a7.9,7.9,0,0,1-3.21.59,4.68,4.68,0,0,1-3.51-1.31,4.84,4.84,0,0,1-1.27-3.52,5.51,5.51,0,0,1,1.18-3.62,4.11,4.11,0,0,1,3.36-1.54,3.59,3.59,0,0,1,3.14,1.54A5.24,5.24,0,0,1,132.16,36.25Zm-2-.55a2.85,2.85,0,0,0-.41-1.64,1.88,1.88,0,0,0-1.7-.89,2,2,0,0,0-1.7.87,3.25,3.25,0,0,0-.63,1.66Z" transform="translate(-10 -10)"/><path class="b" d="M59.05,20A3.28,3.28,0,0,1,58,22.67a4.19,4.19,0,0,1-2.78.82,11.22,11.22,0,0,1-1.53-.08V17a11.2,11.2,0,0,1,1.8-.13,3.87,3.87,0,0,1,2.59.74A3,3,0,0,1,59.05,20Zm-1.11,0a2.41,2.41,0,0,0-.6-1.76,2.36,2.36,0,0,0-1.77-.61,4.22,4.22,0,0,0-.85.07v4.89a5.56,5.56,0,0,0,.71,0A2.52,2.52,0,0,0,57.29,22,2.72,2.72,0,0,0,57.94,20Z" transform="translate(-10 -10)"/><path class="b" d="M64.91,21a2.59,2.59,0,0,1-.62,1.78,2.23,2.23,0,0,1-1.73.72,2.1,2.1,0,0,1-1.65-.69,2.52,2.52,0,0,1-.62-1.74,2.55,2.55,0,0,1,.64-1.79,2.21,2.21,0,0,1,1.71-.7,2.16,2.16,0,0,1,1.67.69A2.5,2.5,0,0,1,64.91,21Zm-1.09,0A2.12,2.12,0,0,0,63.54,20a1,1,0,0,0-.94-.56,1.06,1.06,0,0,0-1,.56,2.14,2.14,0,0,0-.28,1.14,2.09,2.09,0,0,0,.28,1.12,1.07,1.07,0,0,0,1.89,0A2.16,2.16,0,0,0,63.82,21.07Z" transform="translate(-10 -10)"/><path class="b" d="M72.76,18.72l-1.47,4.71h-1l-.61-2a14.24,14.24,0,0,1-.38-1.53h0a11.4,11.4,0,0,1-.38,1.53l-.65,2h-1l-1.39-4.71H67L67.54,21c.13.53.24,1,.32,1.51h0q.12-.59.39-1.5l.67-2.25h.86l.64,2.2c.15.54.28,1.06.37,1.55h0a15.33,15.33,0,0,1,.32-1.55l.58-2.2Z" transform="translate(-10 -10)"/><path class="b" d="M78.2,23.43h-1v-2.7c0-.83-.32-1.25-1-1.25a1,1,0,0,0-.76.35,1.24,1.24,0,0,0-.29.81v2.79H74.1V20.07q0-.63,0-1.35H75l.05.73h0a1.54,1.54,0,0,1,.54-.57,1.81,1.81,0,0,1,1-.26,1.47,1.47,0,0,1,1.09.43,2,2,0,0,1,.55,1.56Z" transform="translate(-10 -10)"/><path class="b" d="M81.09,23.43H80V16.56h1Z" transform="translate(-10 -10)"/><path class="b" d="M87.26,21a2.59,2.59,0,0,1-.62,1.78,2.23,2.23,0,0,1-1.73.72,2.1,2.1,0,0,1-1.65-.69,2.52,2.52,0,0,1-.62-1.74,2.55,2.55,0,0,1,.64-1.79,2.21,2.21,0,0,1,1.71-.7,2.16,2.16,0,0,1,1.67.69A2.5,2.5,0,0,1,87.26,21Zm-1.09,0A2.12,2.12,0,0,0,85.89,20a1,1,0,0,0-.94-.56A1.06,1.06,0,0,0,84,20a2.14,2.14,0,0,0-.28,1.14A2.09,2.09,0,0,0,84,22.21a1.07,1.07,0,0,0,1.89,0A2.16,2.16,0,0,0,86.17,21.07Z" transform="translate(-10 -10)"/><path class="b" d="M92.33,23.43h-.94l-.08-.54h0a1.62,1.62,0,0,1-1.38.65,1.39,1.39,0,0,1-1.07-.43,1.33,1.33,0,0,1-.37-1,1.48,1.48,0,0,1,.72-1.32,3.79,3.79,0,0,1,2-.44V20.3c0-.62-.33-.93-1-.93a2.19,2.19,0,0,0-1.23.35L88.8,19a3,3,0,0,1,1.61-.41c1.23,0,1.85.65,1.85,1.95v1.74A8,8,0,0,0,92.33,23.43Zm-1.09-1.62v-.72c-1.15,0-1.73.29-1.73.95a.69.69,0,0,0,.2.55.74.74,0,0,0,.51.18,1,1,0,0,0,.64-.22.84.84,0,0,0,.36-.55A.55.55,0,0,0,91.24,21.81Z" transform="translate(-10 -10)"/><path class="b" d="M98.29,23.43h-.93l0-.75h0a1.59,1.59,0,0,1-1.52.86,1.74,1.74,0,0,1-1.41-.67,2.55,2.55,0,0,1-.56-1.73,2.73,2.73,0,0,1,.61-1.86,1.87,1.87,0,0,1,1.45-.66,1.43,1.43,0,0,1,1.33.64h0v-2.7h1v5.6C98.25,22.62,98.26,23.05,98.29,23.43Zm-1.09-2v-.78a1.42,1.42,0,0,0,0-.33,1.24,1.24,0,0,0-.38-.64,1,1,0,0,0-.7-.25,1.06,1.06,0,0,0-.92.46,2,2,0,0,0-.34,1.2,1.89,1.89,0,0,0,.32,1.13,1.1,1.1,0,0,0,.92.47,1,1,0,0,0,.83-.39A1.31,1.31,0,0,0,97.2,21.44Z" transform="translate(-10 -10)"/><path class="b" d="M107.25,21a2.59,2.59,0,0,1-.62,1.78,2.23,2.23,0,0,1-1.73.72,2.1,2.1,0,0,1-1.65-.69,2.52,2.52,0,0,1-.62-1.74,2.55,2.55,0,0,1,.64-1.79,2.21,2.21,0,0,1,1.71-.7,2.16,2.16,0,0,1,1.67.69A2.5,2.5,0,0,1,107.25,21Zm-1.09,0a2.12,2.12,0,0,0-.28-1.12,1,1,0,0,0-.94-.56,1.06,1.06,0,0,0-1,.56,2.14,2.14,0,0,0-.28,1.14,2.09,2.09,0,0,0,.28,1.12,1.07,1.07,0,0,0,1.89,0A2.16,2.16,0,0,0,106.16,21.07Z" transform="translate(-10 -10)"/><path class="b" d="M112.88,23.43h-1v-2.7c0-.83-.32-1.25-1-1.25a.94.94,0,0,0-.76.35,1.24,1.24,0,0,0-.29.81v2.79h-1V20.07c0-.42,0-.87,0-1.35h.92l0,.73h0a1.63,1.63,0,0,1,.54-.57,1.86,1.86,0,0,1,.95-.26,1.49,1.49,0,0,1,1.1.43,2.08,2.08,0,0,1,.54,1.56Z" transform="translate(-10 -10)"/><path class="b" d="M119.94,19.5h-1.16v2.29c0,.59.21.88.61.88a2,2,0,0,0,.47-.05l0,.79a2.33,2.33,0,0,1-.82.12,1.28,1.28,0,0,1-1-.38,1.85,1.85,0,0,1-.35-1.27V19.5h-.69v-.78h.69v-.86l1-.31v1.17h1.15v.78Z" transform="translate(-10 -10)"/><path class="b" d="M125.48,23.43h-1V20.75c0-.84-.31-1.27-.94-1.27a1,1,0,0,0-1,.74,1.35,1.35,0,0,0,0,.38v2.83h-1V16.56h1V19.4h0a1.58,1.58,0,0,1,1.41-.78,1.43,1.43,0,0,1,1.08.43,2.11,2.11,0,0,1,.53,1.58Z" transform="translate(-10 -10)"/><path class="b" d="M131.21,20.85a3.08,3.08,0,0,1,0,.48H128a1.38,1.38,0,0,0,.45,1.07,1.57,1.57,0,0,0,1,.33,3.46,3.46,0,0,0,1.27-.23l.16.73a4,4,0,0,1-1.58.29,2.29,2.29,0,0,1-1.72-.64,2.37,2.37,0,0,1-.62-1.73,2.68,2.68,0,0,1,.58-1.78,2,2,0,0,1,1.65-.76,1.78,1.78,0,0,1,1.54.76A2.53,2.53,0,0,1,131.21,20.85Zm-1-.27a1.32,1.32,0,0,0-.21-.8.92.92,0,0,0-.83-.44,1,1,0,0,0-.83.43,1.46,1.46,0,0,0-.31.81Z" transform="translate(-10 -10)"/></svg>