<?xml version="1.0" encoding="utf-8"?>
<!-- Generator: Adobe Illustrator 25.0.1, SVG Export Plug-In . SVG Version: 6.00 Build 0)  -->
<svg version="1.1" id="Layer_1" xmlns="http://www.w3.org/2000/svg" xmlns:xlink="http://www.w3.org/1999/xlink" x="0px" y="0px"
	 viewBox="0 0 500 500" style="enable-background:new 0 0 500 500;" xml:space="preserve">
<style type="text/css">
	.st0{fill:#344154;}
	.st1{fill:none;stroke:#067A89;stroke-width:2;stroke-miterlimit:10;}
	.st2{fill:none;stroke:#FEE162;stroke-width:2;stroke-miterlimit:10;}
	.st3{fill:#FEE162;}
	.st4{fill:none;stroke:#21BBD7;stroke-width:2;stroke-miterlimit:10;stroke-dasharray:10.15,10.15;}
	.st5{fill:none;stroke:#F16349;stroke-width:2;stroke-miterlimit:10;}
	.st6{fill:#F16349;}
	.st7{fill:none;stroke:#1CB9D5;stroke-width:2;stroke-miterlimit:10;}
	.st8{fill:none;stroke:#1EB9D5;stroke-width:2;}
</style>
<path class="st0" d="M117.1,323.3c-65.3,31.2-67.2-2.7-73.7-40.2c-11.1-64.1-1-82.8,34.5-88.4c82-12.9,121-51.8,137.5,25.5
	C228,279.1,182.4,292.1,117.1,323.3z"/>
<g>
	<g>
		<g>
			<g>
				<g>
					<path class="st1" d="M207.2,142.4c0,0-2.3-1.4-2.5-1.5l0,0v0c-1-0.4-2.3-0.1-3.7,0.6L60.3,218.5c-3.9,2.2-5.9,5-6,10.9
						l-2.5,105c-0.1,2.8,0.7,4.4,1.9,5l2.1,1.2c-1-0.7-1.5-2.3-1.5-4.8l2.5-105c0.1-5.9,2.1-8.7,6-10.9L203.5,143
						C204.9,142.3,206.2,142,207.2,142.4L207.2,142.4"/>
					<polygon class="st1" points="56.2,340.9 56.2,340.9 56.2,340.9 					"/>
				</g>
			</g>
			<path class="st1" d="M57.7,343.7c0.1,1.3,1.1,2.7,2.9,3.8l89.7,54.6c3.6,2.2,9.2,2.6,12.4,0.8l140.7-76.9
				c1.4-0.8,2.1-1.8,2.2-2.9l0,0"/>
			<path class="st1" d="M57.6,349.7l0-0.2c0-0.2,0-0.4,0-0.5l0.1-5.2l0-0.1"/>
			<path class="st1" d="M305.6,328.9L305.6,328.9c0,1.2-0.8,2.2-2.2,3l-140.7,76.9c-3.2,1.8-8.8,1.4-12.4-0.8l-89.7-54.6
				c-1.8-1.1-2.8-2.5-2.9-3.8"/>
			<line class="st1" x1="305.7" y1="323.2" x2="305.6" y2="328.9"/>
			<path class="st1" d="M296.6,315.1l6.2,3.8c0.4,0.3,0.8,0.6,1.2,0.8c0,0,0,0,0,0c2.5,2.1,2.4,4.8-0.5,6.3L162.8,403
				c-3.2,1.8-8.8,1.4-12.4-0.8l-36.6-22.3l0,0l-53.1-32.3c-3.6-2.2-4-5.4-0.7-7.2l140.7-76.9c3.2-1.8,8.8-1.4,12.4,0.8l17.9,10.9"/>
			<path class="st1" d="M240.6,339.4l-18.9-11.5c-1.1-0.7-3-0.7-4.2-0.1l-47.1,25.7c-1.2,0.6-1.2,1.7-0.1,2.4l18.9,11.5L240.6,339.4
				z"/>
			<g>
				<path class="st1" d="M215.4,354.2L190.1,368l10.2,6.2c1.1,0.7,3,0.7,4.2,0.1l23.1-12.6L215.4,354.2z"/>
				<path class="st1" d="M216.2,353.7l12.3,7.5l23.1-12.6c1.2-0.6,1.2-1.7,0.1-2.4l-10.2-6.2L216.2,353.7z"/>
			</g>
		</g>
	</g>
	<g>
		<g>
			<g>
				<path class="st1" d="M207,238.7l-0.3,13.8c-0.2,6.9-2.5,9-6,10.9L59.9,340.3c-3.2,1.8-5.8,0.7-5.7-4.5l2.5-105
					c0.1-5.9,2.1-8.7,6-10.9L203.5,143c3.2-1.8,5.8-0.9,5.7,4.5l-0.3,35.2"/>
			</g>
			<g>
				<g>
					<g>
						<path class="st1" d="M91.4,348.2l-7,3.8c-0.4,0.2-1.2,0.2-1.7-0.1l-6.6-4c-0.5-0.3-0.5-0.7-0.1-1l7-3.8
							c0.4-0.2,1.2-0.2,1.7,0.1l6.6,4C91.8,347.6,91.9,348,91.4,348.2z"/>
						<path class="st1" d="M101,343l-7,3.8c-0.4,0.2-1.2,0.2-1.7-0.1l-6.6-4c-0.5-0.3-0.5-0.7-0.1-1l7-3.8c0.4-0.2,1.2-0.2,1.7,0.1
							l6.6,4C101.4,342.4,101.4,342.8,101,343z"/>
						<path class="st1" d="M110.5,337.8l-7,3.8c-0.4,0.2-1.2,0.2-1.7-0.1l-6.6-4c-0.5-0.3-0.5-0.7-0.1-1l7-3.8
							c0.4-0.2,1.2-0.2,1.7,0.1l6.6,4C110.9,337.2,110.9,337.6,110.5,337.8z"/>
						<path class="st1" d="M120,332.6l-7,3.8c-0.4,0.2-1.2,0.2-1.7-0.1l-6.6-4c-0.5-0.3-0.5-0.7-0.1-1l7-3.8
							c0.4-0.2,1.2-0.2,1.7,0.1l6.6,4C120.4,331.9,120.5,332.4,120,332.6z"/>
						<path class="st1" d="M129.6,327.4l-7,3.8c-0.4,0.2-1.2,0.2-1.7-0.1l-6.6-4c-0.5-0.3-0.5-0.7-0.1-1l7-3.8
							c0.4-0.2,1.2-0.2,1.7,0.1l6.6,4C129.9,326.7,130,327.2,129.6,327.4z"/>
						<path class="st1" d="M139.1,322.2l-7,3.8c-0.4,0.2-1.2,0.2-1.7-0.1l-6.6-4c-0.5-0.3-0.5-0.7-0.1-1l7-3.8
							c0.4-0.2,1.2-0.2,1.7,0.1l6.6,4C139.5,321.5,139.5,322,139.1,322.2z"/>
						<path class="st1" d="M148.6,317l-7,3.8c-0.4,0.2-1.2,0.2-1.7-0.1l-6.6-4c-0.5-0.3-0.5-0.7-0.1-1l7-3.8
							c0.4-0.2,1.2-0.2,1.7,0.1l6.6,4C149,316.3,149,316.8,148.6,317z"/>
						<path class="st1" d="M158.1,311.8l-7,3.8c-0.4,0.2-1.2,0.2-1.7-0.1l-6.6-4c-0.5-0.3-0.5-0.7-0.1-1l7-3.8
							c0.4-0.2,1.2-0.2,1.7,0.1l6.6,4C158.5,311.1,158.6,311.5,158.1,311.8z"/>
						<path class="st1" d="M167.7,306.6l-7,3.8c-0.4,0.2-1.2,0.2-1.7-0.1l-6.6-4c-0.5-0.3-0.5-0.7-0.1-1l7-3.8
							c0.4-0.2,1.2-0.2,1.7,0.1l6.6,4C168.1,305.9,168.1,306.3,167.7,306.6z"/>
						<path class="st1" d="M177.2,301.4l-7,3.8c-0.4,0.2-1.2,0.2-1.7-0.1l-6.6-4c-0.5-0.3-0.5-0.7-0.1-1l7-3.8
							c0.4-0.2,1.2-0.2,1.7,0.1l6.6,4C177.6,300.7,177.6,301.1,177.2,301.4z"/>
						<path class="st1" d="M186.7,296.2l-7,3.8c-0.4,0.2-1.2,0.2-1.7-0.1l-6.6-4c-0.5-0.3-0.5-0.7-0.1-1l7-3.8
							c0.4-0.2,1.2-0.2,1.7,0.1l6.6,4C187.1,295.5,187.2,295.9,186.7,296.2z"/>
						<path class="st1" d="M196.3,291l-7,3.8c-0.4,0.2-1.2,0.2-1.7-0.1l-6.6-4c-0.5-0.3-0.5-0.7-0.1-1l7-3.8
							c0.4-0.2,1.2-0.2,1.7,0.1l6.6,4C196.6,290.3,196.7,290.7,196.3,291z"/>
						<path class="st1" d="M205.8,285.7l-7,3.8c-0.4,0.2-1.2,0.2-1.7-0.1l-6.6-4c-0.5-0.3-0.5-0.7-0.1-1l7-3.8
							c0.4-0.2,1.2-0.2,1.7,0.1l6.6,4C206.2,285.1,206.2,285.5,205.8,285.7z"/>
						<path class="st1" d="M219.6,278.2l-11.3,6.2c-0.4,0.2-1.2,0.2-1.7-0.1l-6.6-4c-0.5-0.3-0.5-0.7-0.1-1l11.3-6.2
							c0.4-0.2,1.2-0.2,1.7,0.1l6.6,4C220,277.5,220,278,219.6,278.2z"/>
					</g>
					<g>
						<path class="st1" d="M213.5,282.6l7-3.8c0.4-0.2,1.2-0.2,1.7,0.1l6.6,4c0.5,0.3,0.5,0.7,0.1,1l-7,3.8
							c-0.4,0.2-1.2,0.2-1.7-0.1l-6.6-4C213.1,283.2,213,282.8,213.5,282.6z"/>
						<path class="st1" d="M203.9,287.8l7-3.8c0.4-0.2,1.2-0.2,1.7,0.1l6.6,4c0.5,0.3,0.5,0.7,0.1,1l-7,3.8
							c-0.4,0.2-1.2,0.2-1.7-0.1l-6.6-4C203.6,288.5,203.5,288,203.9,287.8z"/>
						<path class="st1" d="M194.4,293l7-3.8c0.4-0.2,1.2-0.2,1.7,0.1l6.6,4c0.5,0.3,0.5,0.7,0.1,1l-7,3.8c-0.4,0.2-1.2,0.2-1.7-0.1
							l-6.6-4C194,293.7,194,293.2,194.4,293z"/>
						<path class="st1" d="M184.9,298.2l7-3.8c0.4-0.2,1.2-0.2,1.7,0.1l6.6,4c0.5,0.3,0.5,0.7,0.1,1l-7,3.8
							c-0.4,0.2-1.2,0.2-1.7-0.1l-6.6-4C184.5,298.9,184.5,298.4,184.9,298.2z"/>
						<path class="st1" d="M175.4,303.4l7-3.8c0.4-0.2,1.2-0.2,1.7,0.1l6.6,4c0.5,0.3,0.5,0.7,0.1,1l-7,3.8
							c-0.4,0.2-1.2,0.2-1.7-0.1l-6.6-4C175,304.1,174.9,303.6,175.4,303.4z"/>
						<path class="st1" d="M165.8,308.6l7-3.8c0.4-0.2,1.2-0.2,1.7,0.1l6.6,4c0.5,0.3,0.5,0.7,0.1,1l-7,3.8
							c-0.4,0.2-1.2,0.2-1.7-0.1l-6.6-4C165.4,309.3,165.4,308.9,165.8,308.6z"/>
						<path class="st1" d="M156.3,313.8l7-3.8c0.4-0.2,1.2-0.2,1.7,0.1l6.6,4c0.5,0.3,0.5,0.7,0.1,1l-7,3.8
							c-0.4,0.2-1.2,0.2-1.7-0.1l-6.6-4C155.9,314.5,155.9,314.1,156.3,313.8z"/>
						<path class="st1" d="M146.8,319l7-3.8c0.4-0.2,1.2-0.2,1.7,0.1l6.6,4c0.5,0.3,0.5,0.7,0.1,1l-7,3.8c-0.4,0.2-1.2,0.2-1.7-0.1
							l-6.6-4C146.4,319.7,146.3,319.3,146.8,319z"/>
						<path class="st1" d="M137.2,324.2l7-3.8c0.4-0.2,1.2-0.2,1.7,0.1l6.6,4c0.5,0.3,0.5,0.7,0.1,1l-7,3.8
							c-0.4,0.2-1.2,0.2-1.7-0.1l-6.6-4C136.9,324.9,136.8,324.5,137.2,324.2z"/>
						<path class="st1" d="M127.7,329.4l7-3.8c0.4-0.2,1.2-0.2,1.7,0.1l6.6,4c0.5,0.3,0.5,0.7,0.1,1l-7,3.8
							c-0.4,0.2-1.2,0.2-1.7-0.1l-6.6-4C127.3,330.1,127.3,329.7,127.7,329.4z"/>
						<path class="st1" d="M118.2,334.7l7-3.8c0.4-0.2,1.2-0.2,1.7,0.1l6.6,4c0.5,0.3,0.5,0.7,0.1,1l-7,3.8
							c-0.4,0.2-1.2,0.2-1.7-0.1l-6.6-4C117.8,335.3,117.8,334.9,118.2,334.7z"/>
						<path class="st1" d="M108.7,339.9l7-3.8c0.4-0.2,1.2-0.2,1.7,0.1l6.6,4c0.5,0.3,0.5,0.7,0.1,1l-7,3.8
							c-0.4,0.2-1.2,0.2-1.7-0.1l-6.6-4C108.3,340.5,108.2,340.1,108.7,339.9z"/>
						<path class="st1" d="M99.1,345.1l7-3.8c0.4-0.2,1.2-0.2,1.7,0.1l6.6,4c0.5,0.3,0.5,0.7,0.1,1l-7,3.8c-0.4,0.2-1.2,0.2-1.7-0.1
							l-6.6-4C98.7,345.7,98.7,345.3,99.1,345.1z"/>
						<path class="st1" d="M85.3,352.6l11.3-6.2c0.4-0.2,1.2-0.2,1.7,0.1l6.6,4c0.5,0.3,0.5,0.7,0.1,1l-11.3,6.2
							c-0.4,0.2-1.2,0.2-1.7-0.1l-6.6-4C84.9,353.3,84.9,352.9,85.3,352.6z"/>
					</g>
					<g>
						<path class="st1" d="M237.3,289.8l-13.2,7.2c-0.4,0.2-1.2,0.2-1.7-0.1l-6.6-4c-0.5-0.3-0.5-0.7-0.1-1l13.9-7.6
							c0.4-0.2,1.2-0.2,1.7,0.1l5.1,3.1"/>
						<path class="st1" d="M94.6,358.2l13.9-7.6c0.4-0.2,1.2-0.2,1.7,0.1l6.6,4c0.5,0.3,0.5,0.7,0.1,1l-13.9,7.6
							c-0.4,0.2-1.2,0.2-1.7-0.1l-6.6-4C94.2,358.9,94.2,358.4,94.6,358.2z"/>
						<path class="st1" d="M206.3,297.2l7-3.8c0.4-0.2,1.2-0.2,1.7,0.1l6.6,4c0.5,0.3,0.5,0.7,0.1,1l-7,3.8
							c-0.4,0.2-1.2,0.2-1.7-0.1l-6.6-4C205.9,297.8,205.9,297.4,206.3,297.2z"/>
						<path class="st1" d="M196.8,302.4l7-3.8c0.4-0.2,1.2-0.2,1.7,0.1l6.6,4c0.5,0.3,0.5,0.7,0.1,1l-7,3.8
							c-0.4,0.2-1.2,0.2-1.7-0.1l-6.6-4C196.4,303,196.3,302.6,196.8,302.4z"/>
						<path class="st1" d="M187.2,307.6l7-3.8c0.4-0.2,1.2-0.2,1.7,0.1l6.6,4c0.5,0.3,0.5,0.7,0.1,1l-7,3.8
							c-0.4,0.2-1.2,0.2-1.7-0.1l-6.6-4C186.8,308.2,186.8,307.8,187.2,307.6z"/>
						<path class="st1" d="M177.7,312.8l7-3.8c0.4-0.2,1.2-0.2,1.7,0.1l6.6,4c0.5,0.3,0.5,0.7,0.1,1l-7,3.8
							c-0.4,0.2-1.2,0.2-1.7-0.1l-6.6-4C177.3,313.4,177.3,313,177.7,312.8z"/>
						<path class="st1" d="M168.2,318l7-3.8c0.4-0.2,1.2-0.2,1.7,0.1l6.6,4c0.5,0.3,0.5,0.7,0.1,1l-7,3.8c-0.4,0.2-1.2,0.2-1.7-0.1
							l-6.6-4C167.8,318.7,167.7,318.2,168.2,318z"/>
						<path class="st1" d="M158.6,323.2l7-3.8c0.4-0.2,1.2-0.2,1.7,0.1l6.6,4c0.5,0.3,0.5,0.7,0.1,1l-7,3.8
							c-0.4,0.2-1.2,0.2-1.7-0.1l-6.6-4C158.3,323.9,158.2,323.4,158.6,323.2z"/>
						<path class="st1" d="M149.1,328.4l7-3.8c0.4-0.2,1.2-0.2,1.7,0.1l6.6,4c0.5,0.3,0.5,0.7,0.1,1l-7,3.8
							c-0.4,0.2-1.2,0.2-1.7-0.1l-6.6-4C148.7,329.1,148.7,328.6,149.1,328.4z"/>
						<path class="st1" d="M139.6,333.6l7-3.8c0.4-0.2,1.2-0.2,1.7,0.1l6.6,4c0.5,0.3,0.5,0.7,0.1,1l-7,3.8
							c-0.4,0.2-1.2,0.2-1.7-0.1l-6.6-4C139.2,334.3,139.2,333.8,139.6,333.6z"/>
						<path class="st1" d="M130.1,338.8l7-3.8c0.4-0.2,1.2-0.2,1.7,0.1l6.6,4c0.5,0.3,0.5,0.7,0.1,1l-7,3.8
							c-0.4,0.2-1.2,0.2-1.7-0.1l-6.6-4C129.7,339.5,129.6,339.1,130.1,338.8z"/>
						<path class="st1" d="M120.5,344l7-3.8c0.4-0.2,1.2-0.2,1.7,0.1l6.6,4c0.5,0.3,0.5,0.7,0.1,1l-7,3.8c-0.4,0.2-1.2,0.2-1.7-0.1
							l-6.6-4C120.1,344.7,120.1,344.3,120.5,344z"/>
						<path class="st1" d="M111,349.2l7-3.8c0.4-0.2,1.2-0.2,1.7,0.1l6.6,4c0.5,0.3,0.5,0.7,0.1,1l-7,3.8c-0.4,0.2-1.2,0.2-1.7-0.1
							l-6.6-4C110.6,349.9,110.6,349.5,111,349.2z"/>
					</g>
					<g>
						<path class="st1" d="M240.8,298.5l-12.2,6.7c-0.4,0.2-1.2,0.2-1.7-0.1l-6.6-4c-0.5-0.3-0.5-0.7-0.1-1l17.4-9.5"/>
						<path class="st1" d="M210.8,305.4l7-3.8c0.4-0.2,1.2-0.2,1.7,0.1l6.6,4c0.5,0.3,0.5,0.7,0.1,1l-7,3.8
							c-0.4,0.2-1.2,0.2-1.7-0.1l-6.6-4C210.4,306,210.3,305.6,210.8,305.4z"/>
						<path class="st1" d="M201.2,310.6l7-3.8c0.4-0.2,1.2-0.2,1.7,0.1l6.6,4c0.5,0.3,0.5,0.7,0.1,1l-7,3.8
							c-0.4,0.2-1.2,0.2-1.7-0.1l-6.6-4C200.9,311.2,200.8,310.8,201.2,310.6z"/>
						<path class="st1" d="M191.7,315.8l7-3.8c0.4-0.2,1.2-0.2,1.7,0.1l6.6,4c0.5,0.3,0.5,0.7,0.1,1l-7,3.8
							c-0.4,0.2-1.2,0.2-1.7-0.1l-6.6-4C191.3,316.4,191.3,316,191.7,315.8z"/>
						<path class="st1" d="M182.2,321l7-3.8c0.4-0.2,1.2-0.2,1.7,0.1l6.6,4c0.5,0.3,0.5,0.7,0.1,1l-7,3.8c-0.4,0.2-1.2,0.2-1.7-0.1
							l-6.6-4C181.8,321.6,181.8,321.2,182.2,321z"/>
						<path class="st1" d="M172.7,326.2l7-3.8c0.4-0.2,1.2-0.2,1.7,0.1l6.6,4c0.5,0.3,0.5,0.7,0.1,1l-7,3.8
							c-0.4,0.2-1.2,0.2-1.7-0.1l-6.6-4C172.3,326.9,172.2,326.4,172.7,326.2z"/>
						<path class="st1" d="M163.1,331.4l7-3.8c0.4-0.2,1.2-0.2,1.7,0.1l6.6,4c0.5,0.3,0.5,0.7,0.1,1l-7,3.8
							c-0.4,0.2-1.2,0.2-1.7-0.1l-6.6-4C162.7,332.1,162.7,331.6,163.1,331.4z"/>
						<path class="st1" d="M153.6,336.6l7-3.8c0.4-0.2,1.2-0.2,1.7,0.1l6.6,4c0.5,0.3,0.5,0.7,0.1,1l-7,3.8
							c-0.4,0.2-1.2,0.2-1.7-0.1l-6.6-4C153.2,337.3,153.2,336.8,153.6,336.6z"/>
						<path class="st1" d="M144.1,341.8l7-3.8c0.4-0.2,1.2-0.2,1.7,0.1l6.6,4c0.5,0.3,0.5,0.7,0.1,1l-7,3.8
							c-0.4,0.2-1.2,0.2-1.7-0.1l-6.6-4C143.7,342.5,143.6,342,144.1,341.8z"/>
						<path class="st1" d="M134.5,347l7-3.8c0.4-0.2,1.2-0.2,1.7,0.1l6.6,4c0.5,0.3,0.5,0.7,0.1,1l-7,3.8c-0.4,0.2-1.2,0.2-1.7-0.1
							l-6.6-4C134.2,347.7,134.1,347.3,134.5,347z"/>
						<path class="st1" d="M125,352.2l7-3.8c0.4-0.2,1.2-0.2,1.7,0.1l6.6,4c0.5,0.3,0.5,0.7,0.1,1l-7,3.8c-0.4,0.2-1.2,0.2-1.7-0.1
							l-6.6-4C124.6,352.9,124.6,352.5,125,352.2z"/>
						<path class="st1" d="M103.8,363.8l18.7-10.2c0.4-0.2,1.2-0.2,1.7,0.1l6.6,4c0.5,0.3,0.5,0.7,0.1,1l-18.7,10.2
							c-0.4,0.2-1.2,0.2-1.7-0.1l-6.6-4C103.4,364.5,103.4,364,103.8,363.8z"/>
					</g>
					<g>
						<path class="st1" d="M153.3,347.4l45.2-24.7c0.4-0.2,1.2-0.2,1.7,0.1l6.6,4c0.5,0.3,0.5,0.7,0.1,1l-45.2,24.7
							c-0.4,0.2-1.2,0.2-1.7-0.1l-6.6-4C152.9,348.1,152.9,347.7,153.3,347.4z"/>
						<path class="st1" d="M212.5,315l7-3.8c0.4-0.2,1.2-0.2,1.7,0.1l6.6,4c0.5,0.3,0.5,0.7,0.1,1l-7,3.8c-0.4,0.2-1.2,0.2-1.7-0.1
							l-6.6-4C212.1,315.7,212.1,315.3,212.5,315z"/>
						<path class="st1" d="M200.9,321.4l9.1-5c0.4-0.2,1.2-0.2,1.7,0.1l6.6,4c0.5,0.3,0.5,0.7,0.1,1l-9.1,5
							c-0.4,0.2-1.2,0.2-1.7-0.1l-6.6-4C200.5,322.1,200.5,321.6,200.9,321.4z"/>
						<path class="st1" d="M139.2,355.1l-7,3.8c-0.4,0.2-0.4,0.7,0.1,1l6.6,4c0.5,0.3,1.2,0.3,1.7,0.1l7-3.8c0.4-0.2,0.4-0.7-0.1-1
							l-6.6-4C140.4,354.9,139.6,354.9,139.2,355.1z"/>
						<path class="st1" d="M150.8,348.8l-9.1,5c-0.4,0.2-0.4,0.7,0.1,1l6.6,4c0.5,0.3,1.2,0.3,1.7,0.1l9.1-5c0.4-0.2,0.4-0.7-0.1-1
							l-6.6-4C152,348.6,151.2,348.5,150.8,348.8z"/>
						<path class="st1" d="M244.5,307.2l-4.6,2.5c-0.4,0.2-1.2,0.2-1.7-0.1l-6.6-4c-0.5-0.3-0.5-0.7-0.1-1l7-3.8
							c0.4-0.2,1.2-0.2,1.7,0.1l1.6,1"/>
						<path class="st1" d="M222.1,309.8l7-3.8c0.4-0.2,1.2-0.2,1.7,0.1l6.6,4c0.5,0.3,0.5,0.7,0.1,1l-7,3.8
							c-0.4,0.2-1.2,0.2-1.7-0.1l-6.6-4C221.7,310.5,221.6,310.1,222.1,309.8z"/>
						<path class="st1" d="M113,369.4l16.6-9.1c0.4-0.2,1.2-0.2,1.7,0.1l6.6,4c0.5,0.3,0.5,0.7,0.1,1l-16.6,9.1
							c-0.4,0.2-1.2,0.2-1.7-0.1l-6.6-4C112.6,370.1,112.6,369.7,113,369.4z"/>
					</g>
					<g>
						<path class="st1" d="M82.2,342.6l-7,3.8c-0.4,0.2-1.2,0.2-1.7-0.1l-3.3-2c-0.5-0.3-0.5-0.7-0.1-1l7-3.8
							c0.4-0.2,1.2-0.2,1.7,0.1l3.3,2C82.6,342,82.7,342.4,82.2,342.6z"/>
						<path class="st1" d="M91.8,337.4l-7,3.8c-0.4,0.2-1.2,0.2-1.7-0.1l-3.3-2c-0.5-0.3-0.5-0.7-0.1-1l7-3.8
							c0.4-0.2,1.2-0.2,1.7,0.1l3.3,2C92.1,336.8,92.2,337.2,91.8,337.4z"/>
						<path class="st1" d="M101.3,332.2l-7,3.8c-0.4,0.2-1.2,0.2-1.7-0.1l-3.3-2c-0.5-0.3-0.5-0.7-0.1-1l7-3.8
							c0.4-0.2,1.2-0.2,1.7,0.1l3.3,2C101.7,331.5,101.7,332,101.3,332.2z"/>
						<path class="st1" d="M110.8,327l-7,3.8c-0.4,0.2-1.2,0.2-1.7-0.1l-3.3-2c-0.5-0.3-0.5-0.7-0.1-1l7-3.8
							c0.4-0.2,1.2-0.2,1.7,0.1l3.3,2C111.2,326.3,111.2,326.8,110.8,327z"/>
						<path class="st1" d="M120.3,321.8l-7,3.8c-0.4,0.2-1.2,0.2-1.7-0.1l-3.3-2c-0.5-0.3-0.5-0.7-0.1-1l7-3.8
							c0.4-0.2,1.2-0.2,1.7,0.1l3.3,2C120.7,321.1,120.8,321.6,120.3,321.8z"/>
						<path class="st1" d="M129.9,316.6l-7,3.8c-0.4,0.2-1.2,0.2-1.7-0.1l-3.3-2c-0.5-0.3-0.5-0.7-0.1-1l7-3.8
							c0.4-0.2,1.2-0.2,1.7,0.1l3.3,2C130.3,315.9,130.3,316.4,129.9,316.6z"/>
						<path class="st1" d="M139.4,311.4l-7,3.8c-0.4,0.2-1.2,0.2-1.7-0.1l-3.3-2c-0.5-0.3-0.5-0.7-0.1-1l7-3.8
							c0.4-0.2,1.2-0.2,1.7,0.1l3.3,2C139.8,310.7,139.8,311.1,139.4,311.4z"/>
						<path class="st1" d="M148.9,306.2l-7,3.8c-0.4,0.2-1.2,0.2-1.7-0.1l-3.3-2c-0.5-0.3-0.5-0.7-0.1-1l7-3.8
							c0.4-0.2,1.2-0.2,1.7,0.1l3.3,2C149.3,305.5,149.4,305.9,148.9,306.2z"/>
						<path class="st1" d="M158.5,301l-7,3.8c-0.4,0.2-1.2,0.2-1.7-0.1l-3.3-2c-0.5-0.3-0.5-0.7-0.1-1l7-3.8
							c0.4-0.2,1.2-0.2,1.7,0.1l3.3,2C158.8,300.3,158.9,300.7,158.5,301z"/>
						<path class="st1" d="M168,295.8l-7,3.8c-0.4,0.2-1.2,0.2-1.7-0.1l-3.3-2c-0.5-0.3-0.5-0.7-0.1-1l7-3.8
							c0.4-0.2,1.2-0.2,1.7,0.1l3.3,2C168.4,295.1,168.4,295.5,168,295.8z"/>
						<path class="st1" d="M177.5,290.5l-7,3.8c-0.4,0.2-1.2,0.2-1.7-0.1l-3.3-2c-0.5-0.3-0.5-0.7-0.1-1l7-3.8
							c0.4-0.2,1.2-0.2,1.7,0.1l3.3,2C177.9,289.9,177.9,290.3,177.5,290.5z"/>
						<path class="st1" d="M187,285.3l-7,3.8c-0.4,0.2-1.2,0.2-1.7-0.1l-3.3-2c-0.5-0.3-0.5-0.7-0.1-1l7-3.8
							c0.4-0.2,1.2-0.2,1.7,0.1l3.3,2C187.4,284.7,187.5,285.1,187,285.3z"/>
						<path class="st1" d="M196.6,280.1l-7,3.8c-0.4,0.2-1.2,0.2-1.7-0.1l-3.3-2c-0.5-0.3-0.5-0.7-0.1-1l7-3.8
							c0.4-0.2,1.2-0.2,1.7,0.1l3.3,2C197,279.5,197,279.9,196.6,280.1z"/>
						<path class="st1" d="M210.4,272.6l-11.3,6.2c-0.4,0.2-1.2,0.2-1.7-0.1l-3.3-2c-0.5-0.3-0.5-0.7-0.1-1l11.3-6.2
							c0.4-0.2,1.2-0.2,1.7,0.1l3.3,2C210.8,271.9,210.8,272.3,210.4,272.6z"/>
					</g>
				</g>
			</g>
		</g>
	</g>
</g>
<g>
	<path class="st2" d="M251.3,164.8c-8.2,0.7-15.4-5.4-16.1-13.6s5.4-15.4,13.6-16.1c2.3-0.2,4.7,0.2,6.8,1"/>
	<path class="st2" d="M283.8,135.9c7,7.7,6.5,19.5-1.2,26.5c-7.7,7-19.5,6.5-26.5-1.2c-7-7.7-6.5-19.5,1.2-26.5
		c5.1-4.6,12.3-6.1,18.8-3.9"/>
	<path class="st3" d="M265.6,140.3l0.5,0.8c1.2-0.7,3.5-1.4,3.9-0.8c0.2,0.3,0.2,1.3,0,1.4c-1,0.1-2,0.3-3,0.8l2.8,4.7
		c2.2-0.4,4.7-1,6.4,1.8c1.4,2.3,0.7,4.6-1.5,6.2l0.6,1c0.1,0.2,0.1,0.4-0.2,0.6c-0.3,0.2-0.5,0.1-0.6-0.1l-0.6-1
		c-2.3,1.3-4.5,1.5-4.9,0.9c-0.2-0.3-0.2-1.4,0-1.5c1.4,0,2.7-0.3,3.9-0.9l-3.1-5.2c-2.2,0.3-4.5,0.9-6.1-1.7
		c-1.2-2-0.6-4.2,1.5-5.8l-0.5-0.8c-0.1-0.2-0.1-0.4,0.2-0.6C265.3,140,265.5,140,265.6,140.3z M265.7,146.4c0.7,1.1,1.9,1.2,3.2,1
		l-2.6-4.3C265.2,143.8,264.9,145.3,265.7,146.4L265.7,146.4z M273.8,153.8c1.1-0.9,1.3-2.5,0.5-3.7c-0.8-1.3-2-1.3-3.4-1.1
		L273.8,153.8z"/>
</g>
<path class="st4" d="M382.2,149.5c-17.6-11.1-52.6-27.2-93.7-13.6"/>
<g>
	<polyline class="st5" points="226.8,246 220.4,249.3 249.3,319 251.1,338.2 328.9,298.5 313.1,286.4 272.5,222.7 235.6,241.5 	"/>
	<path class="st5" d="M245.9,213.1c8.5,7.6,14.4,23.8,14.4,23.8"/>
	<path class="st5" d="M240,248.1c-3-4-5.7-8.3-8-12.7"/>
	<circle class="st6" cx="241.3" cy="249.7" r="3.5"/>
	<circle class="st6" cx="261.3" cy="239.2" r="3.5"/>
</g>
<g>
	<path class="st7" d="M231.3,203.8c11.6-1.1,14.6-2.4,14.3-5.9c-0.6-7-10.7-5.9-28.8-4.7c-9.4,0.6-27.8,5.5-39.4,15.8
		s-7.6,29.3,17.3,30.1c22.7,0.7,32-6.3,32-6.3"/>
	<path class="st7" d="M231.4,206.6l10.1,0.5c2.4,0.1,4.3,2.2,4.1,4.6v0c-0.1,2.4-2.2,4.3-4.6,4.1l-10.1-0.5
		c-2.4-0.1-4.3-2.2-4.1-4.6l0,0C226.9,208.3,229,206.5,231.4,206.6z"/>
	<path class="st7" d="M228.8,216.6l10.1,0.5c2.4,0.1,4.3,2.2,4.1,4.6v0c-0.1,2.4-2.2,4.3-4.6,4.1l-10.1-0.5
		c-2.4-0.1-4.3-2.2-4.1-4.6v0C224.3,218.3,226.4,216.4,228.8,216.6z"/>
	<path class="st7" d="M232,226.9l6,0.3c2.4,0.1,4.3,2.2,4.1,4.6v0c-0.1,2.4-2.2,4.3-4.6,4.1l-6-0.3c-2.4-0.1-4.3-2.2-4.1-4.6v0
		C227.6,228.6,229.6,226.8,232,226.9z"/>
	<path class="st7" d="M248.1,199.9l2.4,0.1c2.4,0.1,4.3,2.2,4.1,4.6v0c-0.1,2.4-2.2,4.3-4.6,4.1l-2.4-0.1c-2.4-0.1-4.3-2.2-4.1-4.6
		v0C243.6,201.6,245.7,199.8,248.1,199.9z"/>
	<path class="st7" d="M227.5,204.3c0,0-0.3,12.1-13.2,19.4"/>
</g>
<path class="st8" d="M383,175.6c0,0-4.5-0.6-4.4,4c0,4.6,6.8,5.6,6.8,5.6"/>
<path class="st8" d="M385.8,187.2c0,0-4.5-0.6-4.4,4s6.8,5.5,6.8,5.5"/>
<path class="st8" d="M388.9,199.7c0,0-4.5-0.6-4.4,4c0,4.6,6.8,5.5,6.8,5.5"/>
<path class="st8" d="M391.9,212.2c0,0-4.5-0.6-4.4,4c0,4.6,6.9,5.5,6.9,5.5"/>
<g>
	<path class="st2" d="M430.8,195.7c-1.1-4.2-1.8-7-1.8-7"/>
	<path class="st2" d="M383.3,166.2l16.6,64.8c0.6,2.2,2.7,3.6,4.8,3.1l27.3-6.7c2.1-0.5,3.3-2.8,2.7-5l-16.6-65.1
		c-0.6-2.2-2.8-3.2-4.8-2.6l-6.2,1.5l-0.2,3.3l-11.1,2.8l-2.2-3l-7.5,1.9C384,161.7,382.7,164,383.3,166.2z"/>
	<path class="st2" d="M416,234.1c7.6-1.7,15.6-3.8,16.9-4.2c2.2-0.7,6-2.3,4.8-7.3c-1.5-6.4-4.8-19-6.9-26.9"/>
	<path class="st2" d="M427.8,183c0,0-6.4-25.7-6.9-27.1c-1-3.9-3.8-5.6-9-4.4c0,0-23.7,5.8-25.6,6.4c-4.2,1.3-7.3,2.9-5.8,8.7
		c2.2,8.4,15.8,61.7,16.4,64.5c1,4.4,3,6.5,7.5,5.4"/>
</g>
<path class="st8" d="M434.7,235.9c2,0.6,4.1,1.2,6.5,1.7c23.1,4.6,39.7-21.4,13.8-40.9c-5.1-3.8-13.5-10-16.7-12.1s-6.7-5.2-9.9-1.8
	c-2.7,2.8,0.5,6.2,2.5,7.9c2,1.7,5.7,5,9,7.8c2.3,2,0.8,4.7-2.5,3.4c-0.9-0.4-1.8-0.8-1.8-0.8"/>
</svg>
