<svg xmlns="http://www.w3.org/2000/svg" viewBox="0 0 500 500"><defs><style>.cls-1,.cls-2,.cls-3,.cls-5{fill:none;stroke-miterlimit:10;stroke-width:2px;}.cls-1{stroke:#1fbad6;}.cls-2{stroke:#047989;}.cls-3{stroke:#ff6346;}.cls-4{fill:#4c5d75;}.cls-5{stroke:#ffe161;}.cls-6{fill:#334054;}</style></defs><g id="Layer_1" data-name="Layer 1"><path class="cls-1" d="M154.09,130.06A78.16,78.16,0,0,1,158,143.15c1.92,8.88-.18,16.66-9.72,17.8-3.31.4-10.69-.54-10.69-.54"/><path class="cls-1" d="M128.53,167.56c-1-10.66-11.29-20.87-13.3-26.86"/><path class="cls-2" d="M51.85,239.76c4.63,12.9,20.38,18.54,33.26,8.18,9.35-7.53,17-21,17-21s3.81,29-5.65,56.25c2,2.86,15.26,17,37.48,17.21"/><path class="cls-2" d="M211.5,129.91c-.08.41-2.67,16.68-4.43,20.56-4.4,9.66-9.33,15.2-22.23,16.35s-27.33.2-30.48.12c-2,6.52-5.25,13.23-11.6,13.41-13.42.38-13-11.45-14.86-13.59s-26.34.86-37.58,11.89C82,186.84,73.77,207.73,69.9,217.89"/><path class="cls-2" d="M186,230.94c-2.1-20,.24-29.42.29-29.67.37,0,34.35-11.2,43.39-36.53,4.39-12.3,4.58-30.05,4.58-30.05"/><path class="cls-2" d="M324.15,164.66c1.6,12,5.08,39,4.29,42.79s-4.66,10.19-7,20"/><path class="cls-2" d="M379.47,300.22c-.71-4.8-1.44-10.12-1.77-14-2.29-26.65,2.85-41.82,2.85-41.82l41.28-66.75-17.08-9.43-29.56,45.12"/><path class="cls-2" d="M104.68,120c-.1,2.86,1.4,6.7,2.14,10.31s-1.15,6.37.15,9.37c2,4.61,6.92,4,7.9,2,.78-1.61,1.21-10.2,4.14-13.86a15,15,0,0,1,4.67-3.56,6.15,6.15,0,0,1,2.41-.91,6.34,6.34,0,0,1,3.5,1.28,22.12,22.12,0,0,0,6.92,3.06c2.5.59,11,1.77,15.18-1.45,5.07-3.89,5.44-11.29,4.17-14.29a6.7,6.7,0,0,0-.85-1.47c-1-1.2-2.48-1.88-3.37-3.21-1.16-1.72,3.75-5.71-.25-9.71s-7.15-2.73-13.56-.75-11.59.08-15.18.4a10,10,0,0,0-7.86,7.06c-.47,1.49-.66,3.14-1.48,4.42-1.24,1.93-3.54,2.49-5.26,3.89a10.48,10.48,0,0,0-3.35,7.24A1.11,1.11,0,0,0,104.68,120Z"/><path class="cls-1" d="M363.21,163.7c-7.79,6.64-12.66,27.55-6.1,39.72,5,8.41,11.57,6.33,15.78,3.44"/><path class="cls-3" d="M406,160.45a14.57,14.57,0,0,1-3.4-6.86c-.29-2-.07-4.05-.79-5.91-4.49-11.59-33,.08-36.83,8.11-3.37,7.2.2,15.67,4.47,22.38s11.78,6.35,11.78,14.3"/><path class="cls-3" d="M383,274.46c2.8,1.9,6.89,2.11,10.48,2.11l15-.17a11.38,11.38,0,0,1,5.13.75c3.61,1.75,4.29,6.48,6.29,10,2.39,4,6.77,6.56,11.39,7.49s9.37.45,14-.27c1.14-.18,2.29-.37,3.44-.61a5.37,5.37,0,0,0,1.15-10.16l-.61-.3a5.38,5.38,0,0,1,1.07-10l.45-.12a5.37,5.37,0,0,0,.55-10.07c-9-3.82-17.46-8.73-23-16.58-8.71-12.41-7.76-29.73-1-43.32,3.46-7,10.46-19.31-4.22-31.58"/><path class="cls-4" d="M207.7,434.21a1.65,1.65,0,1,1-1.64,1.66v0h0a1.64,1.64,0,0,1,1.62-1.64Z"/><path class="cls-4" d="M207.7,398.85a1.65,1.65,0,1,1-1.64,1.66v0h0a1.64,1.64,0,0,1,1.62-1.64Z"/><path class="cls-4" d="M174,434.21a1.65,1.65,0,1,1-1.65,1.65h0a1.63,1.63,0,0,1,1.64-1.64Z"/><path class="cls-4" d="M174,468a1.65,1.65,0,1,1-1.65,1.65h0A1.64,1.64,0,0,1,174,468Z"/><path class="cls-4" d="M174,398.85a1.65,1.65,0,1,1-1.65,1.65h0a1.63,1.63,0,0,1,1.64-1.64Z"/><path class="cls-4" d="M137.93,434.21a1.65,1.65,0,1,1-1.65,1.65h0a1.63,1.63,0,0,1,1.64-1.64Z"/><path class="cls-4" d="M137.93,398.85a1.65,1.65,0,1,1-1.65,1.65h0a1.63,1.63,0,0,1,1.64-1.64Z"/><path class="cls-4" d="M101.87,398.85a1.65,1.65,0,1,1-1.65,1.65h0a1.63,1.63,0,0,1,1.64-1.64Z"/><path class="cls-4" d="M137.93,360.81a1.65,1.65,0,1,1-1.65,1.65h0a1.63,1.63,0,0,1,1.64-1.64Z"/><path class="cls-4" d="M239.5,434.21a1.65,1.65,0,1,1-1.65,1.65h0A1.7,1.7,0,0,1,239.5,434.21Z"/><path class="cls-4" d="M239.5,398.85a1.65,1.65,0,1,1-1.65,1.65h0A1.7,1.7,0,0,1,239.5,398.85Z"/><path class="cls-4" d="M270.82,434.21a1.65,1.65,0,1,1-1.64,1.66v0h0A1.7,1.7,0,0,1,270.82,434.21Z"/><path class="cls-4" d="M302.82,434.21a1.65,1.65,0,1,1-1.65,1.65h0A1.7,1.7,0,0,1,302.82,434.21Z"/><path class="cls-1" d="M344.4,155.61a15.17,15.17,0,0,0-.07-2c-1-10-.92-29.88-5.46-54.11-1-5.22,5.28-13.16,7.23-15.65,3.92-5-.23-7.82-3.08-3.08-1.75,2.92-3.91,3.32-5.1,2.25-2-1.83-2.33-11.43-2.66-14.39-.37-3.3-3.87-3.43-3.87.11s0,8.61,0,8.61-3.17-8.48-4-10.58c-1.16-2.79-5.3-2.13-4.23,1.3s3.17,11.11,3.17,11.11-5.1-7.46-6-8.68c-1.87-2.48-5.82.21-3.89,3.2s6,9.62,6,9.62-3.26-2.38-5.87-4.43-4.58,1.19-2.77,3.21c2.29,2.56,12.39,10.71,13,17,2.83,29.74-1.44,51.29-.77,57.7.54,5.23,6,7.68,10.29,6.3"/><path class="cls-1" d="M407.69,168.67c4.85-8.79,28.05-43.75,30.81-48.29s1.54-14.11,1-17.22c-1.11-6.23,3.89-6.79,4.17-1.27.18,3.4,1.89,4.77,3.44,4.39,2.66-.66,7.44-9,9.13-11.45,1.87-2.74,5-1.2,3.36,1.92s-4.09,7.58-4.09,7.58,6.79-6,8.54-7.44c2.34-1.91,5.68.62,3.12,3.14s-8,8.31-8,8.31,8-4.18,9.4-4.82c2.81-1.31,5,2.92,1.92,4.64s-9.78,5.69-9.78,5.69,4-.56,7.25-1.15,3.48,3.21.94,4.14c-3.23,1.18-16.25,3.45-19.46,8.9-3,5.07-19.53,36.54-26.68,46.81"/><path class="cls-1" d="M230.65,118.75c-.52-8.53-2.72-19.85-1.73-33.35,0,0,1-11.67,1.18-13.81s-.32-8.46-3-10.18-4.17.86-5.25,1.72-2.46,2.35-2,5.89,2.68,3.42,4.5,2.46,1.6-4.5,1.6-4.5"/><path class="cls-1" d="M216.82,74.91a14.07,14.07,0,0,0-7.28-6c3.75-1.39,5.57-7.39,1.07-6.21-5.19,1.36-8-1.18-8,5.67s1.28,6.43,4.71,9.32,4.39,8,4.39,8c.82,8.89-3.36,41.49,1.1,47.34s14.77,3.62,17.27-5"/><path class="cls-1" d="M213.18,58.74s-3.11-2.68-5.57,0,.11,4.6.11,4.6"/><path class="cls-1" d="M219.5,59.59a5.94,5.94,0,0,0-4.82-1.39c-2.78.54-3.21,3.86-3.21,3.86"/><path class="cls-1" d="M224.1,60.56s-2.78-3.86-6.85.32-1,9.84.75,10.71c.86.43,3-.32,3-.32"/><path class="cls-1" d="M211.47,68.05s.85,3.86,4.28,1.72"/><path class="cls-1" d="M47.44,183.43a17.6,17.6,0,0,0-.25,3.91c1.51,8.8,13.15,27.85,21.25,37.41s-3.33,25.3-16.87,10.11c-6-6.72-14.8-25.18-21.12-43.38,0,0-3.94-11-4.7-13s-1.87-8.26.27-10.6,4.26-.25,5.52.3,3,1.64,3.48,5.16-1.7,4-3.71,3.54-2.71-3.93-2.71-3.93"/><path class="cls-1" d="M39.44,178.22a14.1,14.1,0,0,1,5.49-7.67c-4-.38-7.29-5.7-2.64-5.73,5.37,0,7.46-3.21,9.22,3.42,1.33,5,.9,6.16-.48,8"/><path class="cls-1" d="M38.78,161.66s2.31-3.39,5.38-1.44,1.09,4.48,1.09,4.48"/><path class="cls-1" d="M32.9,164.12a5.91,5.91,0,0,1,4.3-2.59c2.83-.2,4.1,2.89,4.1,2.89"/><path class="cls-1" d="M28.7,166.24s1.7-4.45,6.71-1.46,3.48,9.26,2,10.54c-.71.63-3,.46-3,.46"/><path class="cls-1" d="M42.84,170.22s.17,3.94-3.69,2.76"/><path class="cls-3" d="M149.31,145.75a14.41,14.41,0,0,1-12.39,2c5.31,7.48,8.85,5.9,8.85,5.9"/><path class="cls-3" d="M362.6,194.55s2.5,4.86,9.58,2.69c-5.31,7.48-8.41,4.41-8.41,4.41"/><path class="cls-5" d="M235.83,227.81c2.4-1.13,13.5-1.31,16,.66s2.47,12.52-2,14-14.65,1.81-18.77-.33S233,229.13,235.83,227.81Z"/><path class="cls-5" d="M206.41,245.58s11.8-3,23-4.76"/><line class="cls-5" x1="258.14" y1="220.85" x2="251.8" y2="228.47"/><path class="cls-6" d="M179,273.4c5.8-21.49,44.13-23.76,45.1,39.27.39,25.49-1.18,49.3-8,58.95-5.47,7.7-21,3.49-33.93,2C155.29,370.43,172.25,298.25,179,273.4Z"/><path class="cls-6" d="M253,277.74c3.14-11.66,41.36-19.43,53.63-6.09,9.54,10.38,4.91,37.69,5.32,64.28.38,24.59-5.32,27.39-11.92,36.69-5.27,7.43-25-1.36-37.53-2.83C236.63,366.74,246.52,301.7,253,277.74Z"/></g><g id="Layer_2" data-name="Layer 2"><polyline class="cls-1" points="218.06 379.6 164.02 376.02 164.02 290.05"/><polyline class="cls-1" points="314.12 360.52 302.64 383.68 302.64 383.68 301.91 385.13 241.34 381.13"/><polyline class="cls-1" points="325.52 263.43 325.52 337.51 319.9 348.86"/><polyline class="cls-1" points="159.26 278.41 159.26 259.87 159.62 259.48 176.21 241.51"/><polyline class="cls-1" points="174.56 290.47 159.26 289.69 159.26 282.7"/><line class="cls-1" x1="217.69" y1="292.69" x2="184.13" y2="290.96"/><line class="cls-1" x1="259.79" y1="294.86" x2="242.01" y2="293.94"/><polyline class="cls-1" points="315.05 279.83 304.19 297.13 303.93 297.13 279.09 295.85"/><polyline class="cls-1" points="298.27 226.58 328.62 227.99 328.62 258.21 325.52 263.17 319.97 272"/><polyline class="cls-1" points="183.15 234.01 194.45 221.78 200.47 222.05"/><path class="cls-5" d="M178.18,234.39l-6.26,6.76,26.83,1"/><path class="cls-5" d="M320,241.9l-29.14-1.68"/><polyline class="cls-5" points="314.42 368.31 320.16 356.76 320.16 356.75 319.97 272 319.97 262.2 319.98 254.35"/><path class="cls-5" d="M283,247.32l32.39,2-.2,18.19-.13,12.33-.68,67.34"/><path class="cls-5" d="M241.92,243.62c15.64,7.91,23.37,25.27,33.3,57.25l8.7-12,15.32,3.32s-8.14-28-29.26-42.91c2.36.21,4.76.25,7.11.28,5.2.19,8-3.37,10.06-5.39s4.27-3.2,4.15-7.69c-.05-1.9-.11-3.79-.33-5.67a7.19,7.19,0,0,0-1.06-3.44,2.72,2.72,0,0,0-3.17-1.1,39.47,39.47,0,0,0-3.57-15.6,5.44,5.44,0,0,0-1.91-2.57c-1.42-.87-3.25-.39-4.81.19a45.74,45.74,0,0,0-18.31,12.56,13,13,0,0,0-24.22.33l-8.23-7c-3.75-3.19-8.18-6.59-13.05-5.85-5.26.81-8.56,6.16-10.26,11.22a5.79,5.79,0,0,1-1.09,2.21,8.67,8.67,0,0,1-1.41,1.06c-2.48,1.78-3.64,5-3.71,8a31,31,0,0,0,.4,4l2.18,7.33a8,8,0,0,0,1,1.36,7.1,7.1,0,0,0,3,1.41,31.27,31.27,0,0,0,3.7.69c-16.27,4.35-43.24,14.81-48.38,37.07L169.22,281l7.86,14.08s11-40.59,60.06-51.46"/><path class="cls-5" d="M241.35,368.56l.88-93.85.08-10.74,7.18-14.91"/><path class="cls-5" d="M222.16,256.47l-4.1,6.09.09,122.59,23.28,1.54"/></g></svg>