<svg xmlns="http://www.w3.org/2000/svg" viewBox="0 0 1087.28 1210.42"><defs><style>.a{fill:#666;}.b,.c,.d{fill:none;stroke-miterlimit:10;stroke-width:3px;}.b,.c{stroke:#1eb9d5;}.c{stroke-dasharray:10 10;}.d{stroke:#ffe161;}.e{fill:#1eb9d5;}.f{fill:#ffe161;}</style></defs><title>error</title><path class="a" d="M218.24,334.64a3.35,3.35,0,1,1-3.35-3.35h0a3.33,3.33,0,0,1,3.35,3.31Z"/><path class="a" d="M795.15,334.64a3.35,3.35,0,1,1-3.34-3.35h0a3.32,3.32,0,0,1,3.34,3.31Z"/><path class="a" d="M867.84,334.64a3.35,3.35,0,1,1-3.35-3.35h0a3.33,3.33,0,0,1,3.35,3.31Z"/><path class="a" d="M146.11,550.08a3.35,3.35,0,1,1-3.35-3.34h0a3.33,3.33,0,0,1,3.35,3.31Z"/><path class="a" d="M146.11,407.32a3.35,3.35,0,1,1-3.35-3.35h0a3.22,3.22,0,0,1,3.35,3.08Z"/><path class="a" d="M218.24,407.32a3.35,3.35,0,1,1-3.35-3.35h0a3.23,3.23,0,0,1,3.35,3.08Z"/><path class="a" d="M146.11,477.21a3.35,3.35,0,1,1-3.35-3.34h0a3.33,3.33,0,0,1,3.35,3.31Z"/><path class="a" d="M218.24,477.21a3.35,3.35,0,1,1-3.35-3.34h0a3.33,3.33,0,0,1,3.35,3.31Z"/><path class="a" d="M795.15,407.32a3.35,3.35,0,1,1-3.34-3.35h0a3.22,3.22,0,0,1,3.34,3.08A1.22,1.22,0,0,1,795.15,407.32Z"/><path class="a" d="M867.84,550.08a3.35,3.35,0,1,1-3.35-3.34h0a3.33,3.33,0,0,1,3.35,3.31Z"/><path class="a" d="M939.78,550.08a3.35,3.35,0,1,1-3.35-3.34h0a3.33,3.33,0,0,1,3.35,3.31Z"/><path class="a" d="M1011.76,550.08a3.35,3.35,0,1,1-3.35-3.34h0a3.33,3.33,0,0,1,3.35,3.31Z"/><path class="a" d="M867.84,407.32a3.35,3.35,0,1,1-3.35-3.35h0a3.22,3.22,0,0,1,3.35,3.08Z"/><path class="a" d="M939.78,407.32a3.35,3.35,0,1,1-3.35-3.35h0a3.22,3.22,0,0,1,3.35,3.08Z"/><path class="a" d="M867.84,477.21a3.35,3.35,0,1,1-3.35-3.34h0a3.33,3.33,0,0,1,3.35,3.31Z"/><path class="a" d="M939.78,477.21a3.35,3.35,0,1,1-3.35-3.34h0a3.33,3.33,0,0,1,3.35,3.31Z"/><path class="a" d="M1011.76,477.21a3.35,3.35,0,1,1-3.35-3.34h0a3.33,3.33,0,0,1,3.35,3.31Z"/><path class="a" d="M218.24,769.52a3.35,3.35,0,1,1-3.35-3.34h0a3.33,3.33,0,0,1,3.35,3.31Z"/><path class="a" d="M146.11,626.76a3.35,3.35,0,1,1-3.35-3.35h0a3.22,3.22,0,0,1,3.35,3.08Z"/><path class="a" d="M218.24,626.76a3.35,3.35,0,1,1-3.35-3.35h0a3.23,3.23,0,0,1,3.35,3.08Z"/><path class="a" d="M146.11,696.65a3.35,3.35,0,1,1-3.35-3.34h0a3.33,3.33,0,0,1,3.35,3.31Z"/><path class="a" d="M77.66,550.08a3.35,3.35,0,1,1-3.34-3.34h0a3.33,3.33,0,0,1,3.34,3.31Z"/><path class="a" d="M77.66,477.21a3.35,3.35,0,1,1-3.34-3.34h0a3.33,3.33,0,0,1,3.34,3.31Z"/><path class="a" d="M77.66,626.76a3.35,3.35,0,1,1-3.34-3.35h0a3.22,3.22,0,0,1,3.34,3.08A1.22,1.22,0,0,1,77.66,626.76Z"/><path class="a" d="M218.24,696.65a3.35,3.35,0,1,1-3.35-3.34h0a3.33,3.33,0,0,1,3.35,3.31Z"/><path class="a" d="M795.15,769.52a3.35,3.35,0,1,1-3.34-3.34h0a3.32,3.32,0,0,1,3.34,3.31Z"/><path class="a" d="M795.15,626.76a3.35,3.35,0,1,1-3.34-3.35h0a3.22,3.22,0,0,1,3.34,3.08A1.22,1.22,0,0,1,795.15,626.76Z"/><path class="a" d="M795.15,696.65a3.35,3.35,0,1,1-3.34-3.34h0a3.32,3.32,0,0,1,3.34,3.31Z"/><path class="a" d="M867.84,769.52a3.35,3.35,0,1,1-3.35-3.34h0a3.33,3.33,0,0,1,3.35,3.31Z"/><path class="a" d="M939.78,769.52a3.35,3.35,0,1,1-3.35-3.34h0a3.33,3.33,0,0,1,3.35,3.31Z"/><path class="a" d="M1011.76,769.52a3.35,3.35,0,1,1-3.35-3.34h0a3.33,3.33,0,0,1,3.35,3.31Z"/><path class="a" d="M867.84,626.76a3.35,3.35,0,1,1-3.35-3.35h0a3.22,3.22,0,0,1,3.35,3.08Z"/><path class="a" d="M939.78,626.76a3.35,3.35,0,1,1-3.35-3.35h0a3.22,3.22,0,0,1,3.35,3.08Z"/><path class="a" d="M867.84,696.65a3.35,3.35,0,1,1-3.35-3.34h0a3.33,3.33,0,0,1,3.35,3.31Z"/><path class="a" d="M218.24,842.21a3.35,3.35,0,1,1-3.35-3.35h0a3.23,3.23,0,0,1,3.35,3.08Z"/><path class="a" d="M290.18,842.21a3.35,3.35,0,1,1-3.35-3.35h0a3.23,3.23,0,0,1,3.35,3.08Z"/><path class="a" d="M290.18,912.1a3.35,3.35,0,1,1-3.35-3.34h0a3.32,3.32,0,0,1,3.35,3.3Z"/><path class="a" d="M362.12,912.1a3.35,3.35,0,1,1-3.35-3.34h0a3.32,3.32,0,0,1,3.35,3.3Z"/><path class="a" d="M723.18,842.21a3.35,3.35,0,1,1-3.35-3.35h0a3.23,3.23,0,0,1,3.35,3.08Z"/><path class="a" d="M795.15,842.21a3.35,3.35,0,1,1-3.34-3.35h0a3.22,3.22,0,0,1,3.34,3.08A1.22,1.22,0,0,1,795.15,842.21Z"/><path class="a" d="M651.24,912.1a3.35,3.35,0,1,1-3.35-3.34h0a3.32,3.32,0,0,1,3.35,3.3Z"/><path class="a" d="M651.24,984.74a3.35,3.35,0,1,1-3.35-3.35h0a3.33,3.33,0,0,1,3.35,3.31Z"/><path class="a" d="M723.18,912.1a3.35,3.35,0,1,1-3.35-3.34h0a3.32,3.32,0,0,1,3.35,3.3Z"/><path class="a" d="M795.15,912.1a3.35,3.35,0,1,1-3.34-3.34h0a3.31,3.31,0,0,1,3.34,3.3Z"/><path class="a" d="M867.84,842.21a3.35,3.35,0,1,1-3.35-3.35h0a3.22,3.22,0,0,1,3.35,3.08Z"/><path class="a" d="M939.78,842.21a3.35,3.35,0,1,1-3.35-3.35h0a3.22,3.22,0,0,1,3.35,3.08Z"/><path class="b" d="M478.79,885.15H577a10.77,10.77,0,0,1,10.74,10.74h0A10.77,10.77,0,0,1,577,906.63H445.12a10.77,10.77,0,0,1-10.74-10.74h0a10.77,10.77,0,0,1,10.74-10.74h12.75"/><path class="c" d="M597.44,1002.4A53,53,0,0,1,513,956.8"/><path class="b" d="M646,806.74a213.73,213.73,0,0,1-135.11,48.09h0A214.09,214.09,0,0,1,363,795.49"/><path class="b" d="M296.14,492.33V436.45c0-118.2,96.71-214.91,214.91-214.91h0c118.2,0,214.91,96.71,214.91,214.91v34.11"/><line class="b" x1="511.05" y1="220.44" x2="511.05" y2="180.67"/><circle class="b" cx="511.19" cy="145.69" r="14.9"/><path class="b" d="M523.79,952.5a14.89,14.89,0,1,1,1.93-11.24"/><path class="b" d="M494,411.29a20.06,20.06,0,0,1,37.08,10.61"/><polyline class="d" points="747.34 753.07 747.34 794.76 274.77 794.76 274.77 554.43"/><line class="d" x1="747.34" y1="532.32" x2="747.34" y2="731.45"/><polyline class="d" points="274.77 507.74 274.77 491.52 747.34 491.52 747.34 508.25"/><path class="b" d="M289.64,532.63s-48-6.93-48,18.8c0,23.12,22.56,21,22.56,21V573s-14.62.51-25.77-9c-8.94-7.62-14.31-22.36-3.57-40.25,13.31-22.18,54.83-16.47,54.83-16.47Z"/><path class="b" d="M758.14,573s14.61.51,25.76-9c9-7.62,14.31-22.36,3.58-40.25-13.31-22.18-54.84-16.47-54.84-16.47v25.34s48.06-6.93,48.06,18.8c0,23.12-22.56,21-22.56,21Z"/><path class="d" d="M511.05,681.82a8.46,8.46,0,1,1-8.46,8.46A8.59,8.59,0,0,1,511.05,681.82ZM505,674.2V584.15h12.18V674.2Z"/><circle class="e" cx="607.26" cy="995.36" r="6.26"/><circle class="f" cx="449.1" cy="335.82" r="6.26"/><circle class="f" cx="568.14" cy="335.82" r="6.26"/><path class="b" d="M492.54,260.72h64.1c54.78,0,99.6,44.82,99.6,99.59h0c0,54.78-44.82,99.6-99.6,99.6H461.2c-54.77,0-99.59-44.82-99.59-99.6h0c0-54.77,44.82-99.59,99.59-99.59H465"/></svg>