<?xml version="1.0" encoding="utf-8"?>
<!-- Generator: Adobe Illustrator 25.3.1, SVG Export Plug-In . SVG Version: 6.00 Build 0)  -->
<svg version="1.1" id="Layer_1" xmlns="http://www.w3.org/2000/svg" xmlns:xlink="http://www.w3.org/1999/xlink" x="0px" y="0px"
	 viewBox="0 0 450 450" style="enable-background:new 0 0 450 450;" xml:space="preserve">
<style type="text/css">
	.st0{fill:none;stroke:#1EB9D5;stroke-width:6;stroke-miterlimit:10;}
	.st1{fill:none;stroke:#283142;stroke-width:6;stroke-miterlimit:10;}
	.st2{fill:none;stroke:#FF6346;stroke-width:6;stroke-miterlimit:10;}
	.st3{fill:#FF6346;}
</style>
<g id="Layer_2_1_">
	<g id="Layer_3">
		<line class="st0" x1="259" y1="315.7" x2="259" y2="134.4"/>
		<path class="st0" d="M231.7,293.9c5.3,7.6,11.2,14.8,17.5,21.5"/>
		<path class="st0" d="M252.2,134.3c-13.3,11.7-24.4,25.7-32.7,41.4"/>
		<path class="st0" d="M265.6,134.3c0,0,98.9,77.6,3,181"/>
		<line class="st0" x1="273" y1="224.9" x2="349.5" y2="224.9"/>
		<line class="st0" x1="238.4" y1="176.3" x2="335.1" y2="176.3"/>
		<line class="st0" x1="273" y1="273.5" x2="335.1" y2="273.5"/>
		<path class="st1" d="M186.1,171.1c29.8-40.2,86.5-48.7,126.7-18.9s48.7,86.5,18.9,126.7c-29.8,40.2-86.5,48.7-126.7,18.9
			c-15.1-11.2-26.4-26.8-32.2-44.8"/>
		<path class="st2" d="M163.4,252.9h36c0,0,16.3,20.9,23.2,26.9c7,6,20.9,3.7,22.8-17.2c1.9-20.9-3.7-58.1-21.4-75.3
			s-35.8-3.2-39.5,4.6c-2.8,2.8-20.1,2.8-22.9,0c-3.7-7.9-21.8-21.8-39.5-4.6s-23.2,54.3-21.4,75.3c1.9,20.9,15.8,23.2,22.8,17.2
			c7-6,23.2-26.9,23.2-26.9"/>
		<line class="st2" x1="140.1" y1="206.7" x2="140.1" y2="235.2"/>
		<line class="st2" x1="154.3" y1="220.9" x2="125.8" y2="220.9"/>
		<circle class="st3" cx="212.6" cy="208" r="4.9"/>
		<circle class="st3" cx="197.9" cy="219.8" r="4.9"/>
		<circle class="st3" cx="215.7" cy="227.1" r="4.9"/>
	</g>
</g>
</svg>
