<?xml version="1.0" encoding="utf-8"?>
<!-- Generator: Adobe Illustrator 25.3.1, SVG Export Plug-In . SVG Version: 6.00 Build 0)  -->
<svg version="1.1" xmlns="http://www.w3.org/2000/svg" xmlns:xlink="http://www.w3.org/1999/xlink" x="0px" y="0px"
	 viewBox="0 0 500 500" style="enable-background:new 0 0 500 500;" xml:space="preserve">
<style type="text/css">
	.st0{fill:#FFE161;}
	.st1{fill:none;stroke:#1FBAD6;stroke-width:2;stroke-miterlimit:10;}
	.st2{fill:none;stroke:#283142;stroke-width:2;stroke-miterlimit:10;}
	.st3{fill:#283142;}
	.st4{fill:none;stroke:#FFE161;stroke-width:2;stroke-miterlimit:10;}
	.st5{fill:#FF6346;}
	.st6{fill:none;stroke:#FF6346;stroke-width:2;stroke-miterlimit:10;}
	.st7{fill:none;stroke:#FF6346;stroke-width:2;stroke-miterlimit:10;stroke-dasharray:9.5692,9.5692;}
	.st8{fill:#1FBAD6;}
</style>
<g id="Layer_5">
	<circle class="st0" cx="265.5" cy="346.6" r="23.1"/>
	<circle class="st0" cx="155.9" cy="273.2" r="23.1"/>
</g>
<g id="Layer_2">
	<path class="st1" d="M381.6,346.1c0,0-4.7-6.2-9.7-7.6"/>
	<path class="st1" d="M69.5,239.4c0,0,20.2-0.4,29.9-0.4s18.2,7,24.8,11.4c6,4,13.4,11.3,17.9,15c8.5,7.2-2.9,29.1-21.2,18.9
		c-6.3-3.5-15.6-9.7-20.2-12.8c-7-3.4-10.1-5-27.2,2.3s-26.8,2.4-26.8,2.4"/>
	<path class="st1" d="M138.6,267c-4.6-5.2-8-6.3-11.9-5c-3.6,1.2-8.2,10.7-7,14.2c1.2,3.5,5,5.7,11.5,5.9
		C136.8,282.3,144.5,273.7,138.6,267z"/>
	<g>
		<path class="st2" d="M262.3,227.3C274,234.8,282,240,282,240"/>
		<line class="st2" x1="357.3" y1="344.8" x2="347.4" y2="360.6"/>
		<ellipse class="st3" cx="343.2" cy="366.5" rx="3.1" ry="3.1"/>
		<path class="st1" d="M235.9,360.7l-111.7-71.4"/>
		<path class="st1" d="M300.4,401.1l-23.7-14.6"/>
		<path class="st1" d="M126.5,251.8l39.3-63.3c3.9-6,12.2-7.6,18.7-3.5c0,0,181,112.6,188.1,118.4s6.4,12.6,2.6,18.6l-11.6,17.8
			l-3.8-0.9c-4.2-1-8.5,0.7-10.8,4.3L336,364c-2.2,3.5-2.1,7.9,0.4,11.3l0.8,1.1"/>
		<path class="st2" d="M205.6,190.8c18.1,11.6,40.8,26.2,56.7,36.5"/>
		<path class="st2" d="M130.8,233.7c12.8-21.7,26.6-43.4,29.3-47.1c4.1-5.6,12.7-14.8,25.3-8.7"/>
		<path class="st2" d="M380.9,303.4c-0.9-0.9-1.9-1.8-3-2.6c-9-6.5-81.6-51.7-81.6-51.7"/>
		<path class="st2" d="M359.2,358.2c8.3-13.5,16.3-26.2,19.8-31c1-1.3,1.8-2.6,2.5-3.9"/>
		<path class="st2" d="M268.9,387.5c10.8,6.8,19.3,12.2,26,16.5"/>
		<path class="st2" d="M107.9,276.3c-0.2,6.9,4.5,12.4,13,17.5c4.7,2.8,60.8,38.2,110,69.4"/>
	</g>
	<path class="st1" d="M200.5,474.2c0,0,15.6-47.6,22.4-68.7c6.9-21.1,10.5-41,17.4-55.9c7.2-15.4,35-10.8,32.5,10.1
		c-2.3,19.5-9.2,47.2-0.5,66"/>
	<path class="st1" d="M268.3,406.8c0,0,18.3,4.6,35.3-7.8c16.9-12.4,72.4-47.2,75.6-49c3.2-1.8,8.2-18.3,8.2-25.6
		c0-7.3-9.4-17.9-6.4-29.8c2.3-8.9,14.2-4.6,21.1,4.1c7.4,9.4,11.9,15.6,11.9,26.6s-1.4,32.5-2.3,40.8s-45.8,43.5-45.8,43.5"/>
	<path class="st1" d="M372.3,404.1c0,0-5.5,57.7-23.4,85.7"/>
	<path class="st1" d="M164.4,321.6c0,0-28.9,25.2-35.3,30.7c-6.4,5.5-15.5-3.9-11.9-17.8c3.5-13.5,23.4-17.5,23.4-17.5"/>
	<path class="st1" d="M141.6,341.3c0,0-0.8-3.7-6.1-1.8c-5.3,1.9-7.2,3.4-9.3,5.5c-1.1,1.1-0.7,3.1,0,4.9"/>
	<path class="st1" d="M116.7,315.5c-29.9,15.6-60.5,21.1-78.1,23"/>
	<path class="st3" d="M379.6,193.4c0-49.5-40.1-89.6-89.6-89.6s-89.6,40.1-89.6,89.6c0,5.5,0.5,11,1.5,16.2l-0.2,0
		c0,0,0.3,1.3,0.9,3.6c0.1,0.5,0.2,1,0.4,1.5c3.7,16.1,14,66.1,2.8,91.2c69.3-2.6,110.1-20.9,132.9-37.2
		C363.3,252.7,379.6,225,379.6,193.4z"/>
	<path class="st1" d="M32.3,246.2c20.9-14.5,62.4-43.3,72.2-49.9c14.1-9.5,37.2-28.3,45-34c5.6-4.1,24.1-4.9,33.8-4.9
		c9.7,0,20.2,8.3,28,15.6c7.8,7.3-5.6,17.5-16.3,12.2c-10.7-5.4-16.3-16.3-16.3-16.3"/>
</g>
<g id="Layer_4">
	<g>
		<polyline class="st4" points="253,239 319.9,257.9 341.4,243.2 358.8,189.2 329.4,197 285,190.2 		"/>
		<polyline class="st4" points="263.1,186.8 227.4,181.3 233.9,233.7 247.2,237.4 		"/>
		<path class="st4" d="M359.6,181c0,0-2.2-12.1-12.1-10.7c-15,2.1-18.2,26.8-18.2,26.8l-8.5,54.4"/>
		<path class="st4" d="M340.2,169.3l-94.4-10.7c0,0-16,2.6-18.5,22.3"/>
		<path class="st4" d="M269.7,209.2c12.5-8.2,6.9-17.3,6.9-17.3l0.8,0.2c1.5,0.3,2.9-0.7,3.1-2.1h0c0.3-1.5-0.7-3-2.2-3.2l-12-2
			c-1.5-0.3-2.9,0.8-3.1,2.3l0,0.3c-0.2,1.4,0.8,2.8,2.3,3l0.5,0.1c0,0-4.5,5.9,0.5,14.5"/>
		<circle class="st4" cx="270.6" cy="196.1" r="2.4"/>
		<path class="st4" d="M283.2,162.7c0,0-9.4,3.7-14.3,17.1"/>
		<path class="st4" d="M251.3,159.3c0,0-12.2,5.6-16.4,22.9"/>
		<path class="st4" d="M294.5,164.2c0,0-11.6,4.5-15.8,21.8"/>
		<path class="st4" d="M335.4,168.9c0,0-11.6,4.5-15.8,21.8"/>
		<line class="st4" x1="235.3" y1="183" x2="240.3" y2="235"/>
		<line class="st4" x1="319" y1="195.7" x2="310.3" y2="255.2"/>
		<path class="st4" d="M336.2,190.2c0,0,3.1-13.7,11.3-13.9c5.3-0.3,8.9,5.4,7.9,13.4"/>
	</g>
	<g>
		<circle class="st5" cx="471.9" cy="33.2" r="3.3"/>
		<g>
			<g>
				<path class="st6" d="M309.9,153.8c0,0,0.3-1.8,1-4.9"/>
				<path class="st7" d="M313.1,139.6C323,102.6,358.6,7.2,459.7,30"/>
				<path class="st6" d="M464.4,31.1c1.6,0.4,3.2,0.8,4.8,1.3"/>
			</g>
		</g>
	</g>
	<g>
		<circle class="st8" cx="298.8" cy="51.5" r="3.3"/>
		<path class="st1" d="M286.4,139.9c-2.2-16.7-4.6-54.1,11.3-87.3"/>
	</g>
	<g>
		<circle class="st3" cx="350.8" cy="31.6" r="3.3"/>
		<path class="st2" d="M311.5,132.5c0,0-4.7-46.4,41.5-103.1"/>
	</g>
</g>
</svg>
