<?xml version="1.0" encoding="utf-8"?>
<!-- Generator: Adobe Illustrator 25.3.1, SVG Export Plug-In . SVG Version: 6.00 Build 0)  -->
<svg version="1.1" id="Layer_1" xmlns="http://www.w3.org/2000/svg" xmlns:xlink="http://www.w3.org/1999/xlink" x="0px" y="0px"
	 viewBox="0 0 500 500" style="enable-background:new 0 0 500 500;" xml:space="preserve">
<style type="text/css">
	.st0{fill:#F4F9F9;}
	.st1{fill:#4E5E75;}
	.st2{fill:#FF6346;}
	.st3{fill:none;stroke:#FFE161;stroke-width:2;stroke-miterlimit:10;}
	.st4{fill:none;stroke:#1FBAD6;stroke-width:2;stroke-miterlimit:10;}
	.st5{fill:none;stroke:#283142;stroke-width:2;stroke-miterlimit:10;}
	.st6{fill:url(#SVGID_1_);}
</style>
<path class="st0" d="M41.6,298.8c1-46.2,116.9-209.5,236-201.4s76.8,71.5,50.8,166.3S296.6,508.4,209.4,435S40.6,345,41.6,298.8z"/>
<g>
	<path class="st1" d="M392.2,206.8c0,0.9,0.7,1.7,1.6,1.7s1.7-0.7,1.7-1.6s-0.7-1.7-1.6-1.7l0,0l0,0
		C393,205.2,392.2,205.9,392.2,206.8L392.2,206.8z"/>
	<path class="st1" d="M430.3,173.1c0,0.9,0.7,1.6,1.7,1.6c0.9,0,1.7-0.7,1.7-1.7c0-0.9-0.7-1.6-1.7-1.6l0,0l0,0
		C431,171.4,430.3,172.2,430.3,173.1L430.3,173.1z"/>
	<path class="st1" d="M392.2,173.1c0,0.9,0.7,1.6,1.7,1.6c0.9,0,1.7-0.7,1.7-1.7c0-0.9-0.7-1.6-1.7-1.6l0,0l0,0
		C393,171.4,392.2,172.2,392.2,173.1L392.2,173.1z"/>
	<path class="st1" d="M465.6,137c0,0.9,0.7,1.6,1.7,1.6c0.9,0,1.7-0.7,1.7-1.7c0-0.9-0.7-1.6-1.7-1.6l0,0l0,0
		C466.4,135.4,465.6,136.1,465.6,137L465.6,137z"/>
	<path class="st1" d="M430.3,137c0,0.9,0.7,1.6,1.7,1.6c0.9,0,1.7-0.7,1.7-1.7c0-0.9-0.7-1.6-1.7-1.6l0,0l0,0
		C431,135.4,430.3,136.1,430.3,137L430.3,137z"/>
	<path class="st1" d="M430.3,101c0,0.9,0.7,1.6,1.7,1.6s1.7-0.7,1.7-1.7c0-0.9-0.7-1.6-1.7-1.6l0,0l0,0
		C431,99.3,430.3,100.1,430.3,101L430.3,101z"/>
	<path class="st1" d="M392.2,137c0,0.9,0.7,1.6,1.7,1.6c0.9,0,1.7-0.7,1.7-1.7c0-0.9-0.7-1.6-1.7-1.6l0,0l0,0
		C393,135.4,392.2,136.1,392.2,137L392.2,137z"/>
	<path class="st1" d="M392.2,101c0.1,0.9,0.9,1.6,1.8,1.5c0.8-0.1,1.5-0.7,1.5-1.5c0-0.9-0.7-1.6-1.7-1.6l0,0l0,0
		C393,99.3,392.2,100.1,392.2,101L392.2,101z"/>
	<path class="st1" d="M356.9,101c0,0.9,0.7,1.6,1.7,1.6s1.7-0.7,1.7-1.7c0-0.9-0.7-1.6-1.7-1.6l0,0l0,0
		C357.6,99.3,356.9,100.1,356.9,101L356.9,101z"/>
	<path class="st1" d="M392.2,64.7c0,0.9,0.7,1.6,1.7,1.6s1.7-0.7,1.7-1.7c0-0.9-0.7-1.6-1.7-1.6l0,0l0,0
		C393,63.1,392.2,63.8,392.2,64.7L392.2,64.7z"/>
	<path class="st1" d="M356.9,64.7c0,0.9,0.7,1.6,1.7,1.6s1.7-0.7,1.7-1.7c0-0.9-0.7-1.6-1.7-1.6l0,0l0,0
		C357.6,63.1,356.9,63.8,356.9,64.7L356.9,64.7z"/>
	<path class="st1" d="M318,64.7c0,0.9,0.7,1.6,1.7,1.6s1.7-0.7,1.7-1.7c0-0.9-0.7-1.6-1.7-1.6l0,0l0,0C318.7,63.1,318,63.8,318,64.7
		L318,64.7z"/>
	<path class="st1" d="M318,28.7c0,0.9,0.7,1.6,1.7,1.6s1.7-0.7,1.7-1.7c0-0.9-0.7-1.6-1.7-1.6l0,0l0,0C318.7,27,318,27.7,318,28.7
		C318,28.6,318,28.7,318,28.7z"/>
	<path class="st1" d="M282.6,64.7c0,0.9,0.7,1.7,1.7,1.7s1.7-0.7,1.7-1.6c0-0.9-0.7-1.6-1.7-1.7l0,0
		C283.4,63.1,282.6,63.8,282.6,64.7L282.6,64.7z"/>
	<path class="st1" d="M392.2,238.6c0,0.9,0.7,1.6,1.7,1.6c0.9,0,1.7-0.7,1.7-1.7c0-0.9-0.7-1.6-1.7-1.6l0,0l0,0
		C393,237,392.3,237.7,392.2,238.6z"/>
</g>
<path class="st2" d="M279,138.7c-1.3-11.1-2.2-25.1-28.3-34.7c-19.1-45.6-67.8-40.6-88.5-33.5c-20.7,7.2-53,29.3-28.7,61.8
	c12.2,16.4,30.1,13.3,51.2,7.8c24.6-6.4,38.7-23,50.7-20.6c5.5,1.1,11,4.3,15.3,18s5.2,28.4-1.2,36.1
	C259.3,183.5,281.9,162.9,279,138.7z"/>
<path class="st3" d="M263,140.8c0,0-0.4-15.2-15.8-18.6c-19.2-4.3-35.9,16.9-49.4,18.2c-22.5,2.1-30.5-6.7-30.5-6.7"/>
<g>
	<path class="st3" d="M179.7,257.4c-0.2,3.6-0.4,7.4-0.7,11.5"/>
	<path class="st3" d="M226.6,259.1c-0.3-5-1.4-11.1-2-17.6"/>
	<path class="st3" d="M158.2,212.2c3.2,15.3,9.5,30.5,21.7,36.7c23.4,11.8,39.7,0.5,50.7-12.7c8.8-10.7,12.9-16.9,12.9-16.9"/>
</g>
<path class="st4" d="M350,385.3c-20-47.1-77.2-90-108.5-95.4v-7.2c0-7.7-6.2-13.9-13.9-13.9h-0.1c0,0-14,3.3-23.2,3.6
	c-9.3,0.3-24.4-3.6-24.4-3.6c-0.3,0-0.6,0-0.8,0c-7.3,0.4-13.1,6.5-13.1,13.9v5.1c-40.8,4.6-85.2,64.9-92.4,97.6"/>
<path class="st5" d="M246,221.4l7,2.4c3.8,1.3,8-0.8,9.3-4.6l14.2-41.8c1.3-3.8-0.8-8-4.6-9.3l-7-2.4c-3.8-1.3-8,0.8-9.3,4.6
	l-14.2,41.8C240.2,215.9,242.2,220.1,246,221.4z"/>
<path class="st5" d="M240.6,84.2c0,0,31.5,0.8,26.3,81.1"/>
<linearGradient id="SVGID_1_" gradientUnits="userSpaceOnUse" x1="140.3708" y1="178.2337" x2="257.4067" y2="178.2337">
	<stop  offset="0" style="stop-color:#1EB9D5"/>
	<stop  offset="1" style="stop-color:#047989"/>
</linearGradient>
<path class="st6" d="M152.1,156.7c0,0,47.8-11.6,105.3,7.1c-1.3,12.9-1.3,21.6-1.3,21.6s-12.2,20.3-34.8,17.7
	c-16.2-1.9-21.5-12.5-22.4-18.1c-0.4-2.2-2.1-3.9-4.3-4l0,0c-2.4-0.2-4.7,1.1-5.8,3.3c-3,6.3-11.1,18.5-28.9,17
	c-23.9-1.9-19-41.4-19-41.4L152.1,156.7z"/>
<path class="st3" d="M147.4,167l9.3-2.6c0,0,39.4-9.6,86.7,5.9"/>
</svg>
