<svg xmlns="http://www.w3.org/2000/svg" viewBox="0 0 831.13 618.16"><defs><style>.cls-1{fill:#344054;}.cls-2,.cls-3{fill:#fff;}.cls-3{fill-rule:evenodd;}</style></defs><g id="Layer_2" data-name="Layer 2"><rect class="cls-1" x="19.26" y="47.25" width="378.85" height="179.35" transform="translate(-9.04 14.89) rotate(-4)"/><rect class="cls-1" x="32.25" y="233.02" width="378.85" height="179.35" transform="translate(-21.97 16.25) rotate(-4)"/><rect class="cls-1" x="45.24" y="418.79" width="378.85" height="179.35" transform="matrix(1, -0.07, 0.07, 1, -34.9, 17.61)"/><rect class="cls-1" x="403.96" y="20.35" width="378.85" height="179.35" transform="translate(-6.23 41.66) rotate(-4)"/><rect class="cls-1" x="416.95" y="206.12" width="378.85" height="179.35" transform="translate(-19.16 43.02) rotate(-4)"/><rect class="cls-1" x="429.94" y="391.89" width="378.85" height="179.35" transform="translate(-32.08 44.38) rotate(-4)"/></g><g id="Layer_1" data-name="Layer 1"><path class="cls-2" d="M338.67,522.8l-12.81-15.06-10.57,16.7-4.82.34,12.72-20.18-14.07-16.54,4.82-.33,11.47,13.49,9.47-15,4.81-.33-11.62,18.33,15.41,18.21Zm-91.18,6.37L232.07,511l11.63-18.33-4.82.34-9.48,14.95L218,494.44l-4.81.33,14.06,16.54-12.73,20.17,4.81-.34,10.58-16.7,12.81,15.06Z"/><path class="cls-2" d="M273,509.5a10.49,10.49,0,0,0-2.51-1.36,8.33,8.33,0,0,0,3.89-7.64c-.16-2.35-1.55-9.91-12.6-9.14l-14.87,1,1.1,15.79-4.95.35c-.58.88-1.9,3-2.41,3.87l7.62-.54,1.2,17.16,14.87-1c8.06-.57,12.77-5,12.31-11.61A9,9,0,0,0,273,509.5m-21.71-13.56,10.77-.75c2.91-.21,7.84.17,8.19,5.28.27,3.85-2.41,6.34-7.35,6.68l-10.77.76-.84-12Zm12.78,28.23-10.76.76-.93-13.33,10.76-.76c4.08-.28,9,.51,9.41,5.75.42,6-5.13,7.35-8.48,7.58m30.07-35.91c-10.29.72-16.93,9.09-16.15,20.36s8.53,18.64,18.83,17.92,16.9-9.08,16.11-20.36-8.51-18.64-18.79-17.92m2.41,34.41c-7.84.55-13.77-5.35-14.4-14.34s4.43-15.65,12.26-16.2,13.73,5.35,14.36,14.34-4.4,15.65-12.22,16.2M148.84,495.33l0,0h0a30.61,30.61,0,0,0,0,40.42c0,.05.12.08.16,0a.12.12,0,0,0,0-.16c-2.83-7,7.84-25.32,13.48-33a.14.14,0,0,0,.05-.09.12.12,0,0,0-.07-.1c-11.07-9.56-13.66-7-13.63-7.05m42.88-3,0,0h0a30.61,30.61,0,0,1,5.64,40s-.1.09-.15.06a.14.14,0,0,1,0-.16c1.82-7.36-11.29-24-18-30.87,0,0,0,0,0-.08a.11.11,0,0,1,0-.1c9.63-11,12.55-8.84,12.51-8.87m-22.07-7.31a30.32,30.32,0,0,1,16.22,3.35.12.12,0,0,1,.06.15c0,.05-.08.06-.14.06-6-.87-14.64,4.86-15.45,5.44l-.06,0-.06,0c-2.35-1.15-11-4.92-16.09-3.2-.06,0-.13,0-.15,0a.11.11,0,0,1,0-.15,30.08,30.08,0,0,1,15.63-5.62m1.72,24.49a.21.21,0,0,1,.1,0c9.62,6.31,26.45,22.39,22,27.58l0,0v0h0a30.59,30.59,0,0,1-40.2,2.81h0c-5.11-4.52,9.32-22.8,18-30.37a.15.15,0,0,1,.11-.06"/><path class="cls-2" d="M544.34,280.11,538.9,309.7l29.59,5.44,5.44-29.59ZM558.76,301,553,300l1-5.78,5.78,1.05Z"/><path class="cls-2" d="M522.79,284.88c7.57-.52,11.23,3.76,11.54,8.22a7.83,7.83,0,0,1-3,6.88c3.49,3.44,5.79,8.26,6.8,14l-13.78,1c-1.11-7.94-3-11-6.61-10.71l.78,11.12-13.29.93-2.1-30Zm-5.49,12.4.37,0c2.43-.17,3.52-1.13,3.38-3.06a2.81,2.81,0,0,0-3.34-2.76l-.81.06Z"/><path class="cls-2" d="M595.49,279.8c9.71-.68,12,4.1,12.23,7.56a6.89,6.89,0,0,1-3.45,6.71c3.93,1.74,5,4,5.19,6.57.33,4.64-2.67,8.53-9.68,9l-20.95,1.47-2.1-30Zm-4.64,12.27.32,0c2.91-.2,3.94-1.08,3.79-3.21-.12-1.66-1-2.85-3.71-2.66l-.81.06.41,5.84Zm.8,11.51.4,0c3.07-.21,4.16-1.15,4-3.39-.14-2-1.16-3.32-3.95-3.13l-.92.07.45,6.48Z"/><path class="cls-2" d="M612,278.65l13.28-.93,1.58,22.47,11.65-.82.52,7.52-24.94,1.75Z"/><path class="cls-2" d="M641,276.62l2.09,30,30-2.1-2.1-30Zm19.18,16.67-5.86.41-.41-5.86,5.86-.41Z"/><path class="cls-2" d="M674.6,274.27l14.49-1,4.81,5.2,3.84-5.81,14.42-1-10.32,15.54L715,301.61l-14.53,1L695.29,297l-4.18,6.25-14.42,1,10.66-16Z"/><path class="cls-2" d="M282.39,357.64a.38.38,0,0,1-.16-.2c0-.08,0-.19-.06-.36l-.07-.6a1.05,1.05,0,0,0-.21-.62.89.89,0,0,0-.29-.22,1.16,1.16,0,0,0,.33-.37,1.31,1.31,0,0,0,.14-.74,1.18,1.18,0,0,0-.78-1.11,2.16,2.16,0,0,0-.91-.1l-2.1.15h-.1v.09l.32,4.54v.11h.1l.61,0h.11v-.11l-.13-1.84,1.29-.09a1.77,1.77,0,0,1,.52,0,.53.53,0,0,1,.3.49l.09.76c0,.17,0,.29.06.36a.61.61,0,0,0,.07.18l0,.05h.06l.75-.05h.11v-.27Zm-1.32-2.43a1.13,1.13,0,0,1-.61.19l-1.32.1-.09-1.35,1.4-.1a1.07,1.07,0,0,1,.46.06.56.56,0,0,1,.33.54A.63.63,0,0,1,281.07,355.21Z"/><path class="cls-2" d="M283,352.59a4.2,4.2,0,0,0-3.1-1,4.27,4.27,0,0,0-3.95,4.56,4.26,4.26,0,0,0,7.47,2.5,4.27,4.27,0,0,0-.42-6Zm-2.55,6.75a3.47,3.47,0,0,1-2.58-.86,3.53,3.53,0,0,1-1.21-2.43,3.56,3.56,0,0,1,3.29-3.79,3.56,3.56,0,0,1,3.78,3.29A3.54,3.54,0,0,1,280.41,359.34Z"/><path class="cls-2" d="M192.76,349.74c2.76.69,7.62.1,10.86-1.32l8.77-3.9.66,9.46-1.77.42a59.07,59.07,0,0,1-28.2-.3c-9-1.86-10.82-6.92-7-10.18,3.53-3,9.69-5.52,9.69-5.52l25.43-11.09.74,10.56-18.3,8C190.39,347.33,190,349.05,192.76,349.74Z"/><path class="cls-2" d="M284.84,339.59c-2,2.91-7.19,5.24-7.19,5.24l-38.76,17.06-.73-10.52,28.52-12.48c3.24-1.42,3.64-3.14.88-3.83s-7.62-.1-10.86,1.32l-19,8.23-.77-10.92,1.09-.46a67.68,67.68,0,0,1,13.36-3.83,58.15,58.15,0,0,1,25.45,1.25C285.59,332.76,286.83,336.69,284.84,339.59Z"/><path class="cls-2" d="M240.1,324.7l-1.89-26.92c-.22-3.16-1-6-4-6.64-2.32-.58-3.58,1.64-3.36,4.79l4.72,67.42-18.6-4.5-5.62-80.38a222,222,0,0,1,25.54,5.1c15.77,4.22,21.45,10.44,22.49,25.26C260.36,323.28,251.82,329.39,240.1,324.7Z"/><g id="layer1"><path id="text2396" class="cls-2" d="M532.52,484.62l-11.08.77L521.2,482a15.4,15.4,0,0,0-.61-4.05,1.4,1.4,0,0,0-1.55-.71,1.42,1.42,0,0,0-1.35.8,10.41,10.41,0,0,0-.12,3.63l1.27,18.19a9.51,9.51,0,0,0,.61,3.33,1.44,1.44,0,0,0,1.53.7,1.63,1.63,0,0,0,1.58-1,9.59,9.59,0,0,0,.19-3.59l-.32-4.5-2.24.16-.4-5.76,13-.91,1.42,20.35-7,.48L526,506.41a7.29,7.29,0,0,1-2.67,2.83,8.87,8.87,0,0,1-4,1.17,11.65,11.65,0,0,1-5.31-.84,9.64,9.64,0,0,1-3.91-2.73,8.78,8.78,0,0,1-1.84-3.62,40,40,0,0,1-.73-5.84l-.79-11.26a34.14,34.14,0,0,1,.11-7.94q.48-2.51,3.47-4.77a14.46,14.46,0,0,1,7.92-2.61,16.61,16.61,0,0,1,8.21,1.21,8.86,8.86,0,0,1,4.49,3.93,20.28,20.28,0,0,1,1.47,7Zm12.94,4-10,.7-.14-2.08a13.13,13.13,0,0,1,.55-5.63,8.21,8.21,0,0,1,3.51-3.71,15.59,15.59,0,0,1,7.21-2c3.6-.25,6.82.09,8.72,1.09a6.73,6.73,0,0,1,3.59,3.94,58.92,58.92,0,0,1,1.26,10.13l1.09,15.59-10.81.76-.19-2.76a6.59,6.59,0,0,1-2.35,2.67,7.68,7.68,0,0,1-3.61,1.08,9.83,9.83,0,0,1-5.22-1q-2.43-1.23-2.76-5.93l-.18-2.56q-.24-3.48.91-4.83c.76-.91,2.74-2,5.93-3.38q5.12-2.2,5.44-2.85a6,6,0,0,0,.19-2.61,7.79,7.79,0,0,0-.64-3.14,1.41,1.41,0,0,0-1.4-.64c-.72.05-1.15.29-1.3.71a11.2,11.2,0,0,0,0,3.24Zm3.67,4c-1.63,1.23-2.55,2.22-2.77,3a10.13,10.13,0,0,0-.19,3.26,8.55,8.55,0,0,0,.58,3.09,1.43,1.43,0,0,0,1.46.6c.66-.05,1.09-.26,1.26-.64a7.85,7.85,0,0,0,.1-2.91Zm23.67-18,0,3a8.29,8.29,0,0,1,2.77-2.84,8.57,8.57,0,0,1,3.83-1.15,7.78,7.78,0,0,1,7,3.05,9.21,9.21,0,0,1,2.85-2.85,8.08,8.08,0,0,1,3.68-1.14,8,8,0,0,1,4.57.86,5.22,5.22,0,0,1,2.48,2.71,21.29,21.29,0,0,1,.88,5.47l1.55,22.08-10.33.72-1.41-20.25a22.85,22.85,0,0,0-.65-4.91,1.32,1.32,0,0,0-1.48-.84,1.37,1.37,0,0,0-1.39,1,21,21,0,0,0,0,5l1.42,20.24-10.33.73-1.38-19.74a32.13,32.13,0,0,0-.63-5.46,1.25,1.25,0,0,0-1.44-.81,1.68,1.68,0,0,0-1.18.56,1.75,1.75,0,0,0-.47,1.21q0,.69.15,2.94l1.5,21.54-10.67.74-2.17-31.06Zm56.33,12.22-13.78,1,.47,6.71a6.9,6.9,0,0,0,.53,2.7,1.37,1.37,0,0,0,1.36.51,1.66,1.66,0,0,0,1.57-.92,8.18,8.18,0,0,0,.19-3.15l-.29-4.1,10.09-.7.16,2.29a18.57,18.57,0,0,1-.1,4.45,8.7,8.7,0,0,1-1.68,3.44A9.36,9.36,0,0,1,624,502a16.45,16.45,0,0,1-5.72,1.28,18.56,18.56,0,0,1-6-.45,9.72,9.72,0,0,1-4.19-2.1,8.4,8.4,0,0,1-2.22-3.18,19.27,19.27,0,0,1-.92-5.24l-.63-9.06a14,14,0,0,1,.78-6.51,8.14,8.14,0,0,1,3.81-3.89,15.78,15.78,0,0,1,6.39-1.71,16.13,16.13,0,0,1,7.49,1,8.81,8.81,0,0,1,4.37,3.71,17.06,17.06,0,0,1,1.66,6.93Zm-11-4.31-.16-2.27a10.26,10.26,0,0,0-.51-3.09,1.15,1.15,0,0,0-1.23-.62c-.74.05-1.18.28-1.33.69a11.11,11.11,0,0,0,0,3.24l.16,2.27Z"/><path id="path2405" class="cls-2" d="M655.58,472.65l-10.3.72-.2-2.81a5,5,0,0,0-.57-2.48,1.54,1.54,0,0,0-1.35-.45,1.76,1.76,0,0,0-1.47.84,4,4,0,0,0-.36,2.23,5.69,5.69,0,0,0,.78,2.82,8.44,8.44,0,0,0,3.3,2.1q7.68,3.39,9.77,5.76t2.49,7.94a12.79,12.79,0,0,1-.65,6,8.11,8.11,0,0,1-3.9,3.51,18,18,0,0,1-7,1.8,17.75,17.75,0,0,1-7.7-1,7.81,7.81,0,0,1-4.39-3.53,17.59,17.59,0,0,1-1.43-6.51l-.18-2.48,10.3-.72.32,4.61a5.45,5.45,0,0,0,.63,2.71,1.77,1.77,0,0,0,1.58.5,1.86,1.86,0,0,0,1.59-.89,4,4,0,0,0,.39-2.33c-.16-2.23-.61-3.66-1.34-4.3a32.15,32.15,0,0,0-5.43-3.08c-2.87-1.43-5.12-2.46-6.07-3.13a8.32,8.32,0,0,1-2.44-2.89,12,12,0,0,1-1.23-4.9c-.2-2.9,0-5.51.78-6.91a8.15,8.15,0,0,1,3.82-3.43,19.71,19.71,0,0,1,7-1.63,19.5,19.5,0,0,1,7.45.72,7.55,7.55,0,0,1,4.25,2.84c.74,1.22,1.25,3.79,1.46,6.8Zm15.17-9.89.26,3.74,3-.2.34,4.91-3,.21,1.24,17.77c.14,2.05.34,3.18.6,3.4s.78.29,2.52.17l.35,5-4.29.3a35.74,35.74,0,0,1-5.21.1,5.83,5.83,0,0,1-2.82-1.05,4.06,4.06,0,0,1-1.63-2.12,34.51,34.51,0,0,1-.71-5.87l-1.18-16.93-2.29.16-.34-4.92,2.29-.16-.26-3.74Zm30.69,13,.53,7.61a28.8,28.8,0,0,1,0,6.18,8.33,8.33,0,0,1-1.78,3.79,9.1,9.1,0,0,1-3.81,2.79,18,18,0,0,1-5.54,1.2,22.41,22.41,0,0,1-6-.28,8.38,8.38,0,0,1-3.95-1.81,8,8,0,0,1-2.17-3.24,22.47,22.47,0,0,1-1-5.89l-.56-8a17.54,17.54,0,0,1,.58-6.84,8.19,8.19,0,0,1,3.52-4.18,14.78,14.78,0,0,1,6.9-2,17.84,17.84,0,0,1,6.22.52,9.93,9.93,0,0,1,4.13,2.19,8.33,8.33,0,0,1,2.13,3,17.27,17.27,0,0,1,.86,4.88Zm-10.81-1.59a9,9,0,0,0-.5-3,1.21,1.21,0,0,0-1.28-.53,1.29,1.29,0,0,0-1.22.7,8.65,8.65,0,0,0-.1,3l1,14a8.17,8.17,0,0,0,.51,2.84,1.24,1.24,0,0,0,1.29.58,1.26,1.26,0,0,0,1.21-.69,7.31,7.31,0,0,0,.12-2.65Zm23.82-10.28v2.75a9.75,9.75,0,0,1,3-2.7,8.76,8.76,0,0,1,3.69-1.08c6.29-.67,8.74,2.63,9.23,8.55l.91,13.09a22.52,22.52,0,0,1-.14,6.07c-1.8,4.31-7.47,5.37-11.6,3.93a9.76,9.76,0,0,1-3.26-2.22l.5,7.11-10.64.75-2.48-35.49Zm3.66,8.83a14.64,14.64,0,0,0-.47-3.48c-.19-.39-.64-.56-1.37-.51a1.3,1.3,0,0,0-1.3.8,11.3,11.3,0,0,0-.07,3.41l.9,12.87a11.41,11.41,0,0,0,.56,3.49,1.34,1.34,0,0,0,1.42.61c.69-.05,1.1-.29,1.23-.73a11.42,11.42,0,0,0,0-3.14Z"/><path id="text2407" class="cls-2" d="M733.29,462.42l-.2-2.82,1.25-.08a1.66,1.66,0,0,1,.58,0,.59.59,0,0,1,.33.25.76.76,0,0,1,.15.42.69.69,0,0,1-.16.52,1,1,0,0,1-.58.3,1,1,0,0,1,.23.12,2,2,0,0,1,.34.36l.55.73-.47,0-.42-.56-.29-.37a.92.92,0,0,0-.21-.17.61.61,0,0,0-.17-.07H734l-.43,0,.08,1.25Zm.26-1.6.81-.05a1.46,1.46,0,0,0,.39-.08.49.49,0,0,0,.21-.19.58.58,0,0,0,.06-.26.44.44,0,0,0-.17-.32.71.71,0,0,0-.47-.09l-.89.06Z"/><path id="path2411" class="cls-2" d="M736.54,460.8a2.29,2.29,0,1,1-2.44-2.12,2.29,2.29,0,0,1,2.44,2.12Z"/></g><path class="cls-3" d="M216.51,86.28a22.67,22.67,0,0,1,16-10.37s2,8.51-4.28,17.29c-6.75,9.37-15.23,8.5-15.23,8.5S210.9,94.85,216.51,86.28Z"/><path class="cls-3" d="M214.27,107.67c3.57-.25,9.86-5.63,18.49-6.23,14.86-1,21.45,9.13,21.45,9.13a23,23,0,0,0-10,20.83c1.12,16,15.75,20.52,15.75,20.52s-8,28.72-21.44,29.66c-6.18.43-11.27-3.4-17.78-2.94s-12.92,5.24-17.2,5.54c-12.28.86-29.66-24.64-31.15-46-1.47-21,10.89-33,23.21-33.83C203.57,103.78,210.1,108,214.27,107.67Z"/><path class="cls-3" d="M623,141.46C611.79,151,595,156.8,580.31,157.83a79.05,79.05,0,0,1-54.66-16.59c-1.17-.92-.29-2.35,1.09-1.67A107.41,107.41,0,0,0,581,150a106.31,106.31,0,0,0,40-11.15C623,137.84,624.81,139.88,623,141.46Z"/><path class="cls-3" d="M627.48,135.52c-1.65-1.83-10-.22-13.8.5-1.14.22-1.39-.77-.4-1.57,6.41-5.22,17.56-4.62,19-3.12s.55,12.7-5.41,18.43c-.91.89-1.87.52-1.51-.59C626.49,145.52,629.12,137.34,627.48,135.52Z"/><path class="cls-3" d="M611.5,100.93l-.33-4.6a1.15,1.15,0,0,1,1.09-1.25l20.64-1.45a1.16,1.16,0,0,1,1.27,1.08l.27,4c0,.67-.45,1.57-1.35,3l-9.62,16a23,23,0,0,1,11.95,1.7,2.13,2.13,0,0,1,1.22,1.73L637,126c0,.67-.64,1.51-1.44,1.16a23.83,23.83,0,0,0-21.81,1.56c-.69.43-1.49-.29-1.54-1l-.33-4.67a5.63,5.63,0,0,1,.55-3.22l11.14-18.63-10.78.75A1.15,1.15,0,0,1,611.5,100.93Z"/><path class="cls-3" d="M538.23,135l-6.28.44a1.17,1.17,0,0,1-1.19-1l-2.25-32.22a1.19,1.19,0,0,1,1.13-1.25l5.85-.41a1.18,1.18,0,0,1,1.21,1l.3,4.21h.11c1.24-4.17,4-6.27,7.85-6.54s6.52,1.45,8.56,5.4A9.29,9.29,0,0,1,569.29,101c2.18,2.57,2.05,6.53,2.29,10L573,131.36a1.19,1.19,0,0,1-1.13,1.24l-6.27.44a1.19,1.19,0,0,1-1.21-1.08l-1.2-17.08a41.06,41.06,0,0,0-.59-6c-.62-2.14-2.07-2.65-3.89-2.52a4.17,4.17,0,0,0-3.57,2.9c-.53,1.67-.28,4.38-.15,6.21l1.19,17.08a1.19,1.19,0,0,1-1.13,1.25l-6.27.44a1.18,1.18,0,0,1-1.2-1.08l-1.21-17.08c-.25-3.6,0-8.93-4.48-8.62s-4,5.46-3.72,9.19l1.19,17.08A1.18,1.18,0,0,1,538.23,135Z"/><path class="cls-3" d="M651.81,91.72c9.32-.65,14.92,7,15.63,17.16.69,9.84-4.34,18-13.13,18.64-9.14.64-14.68-7-15.38-17S642.73,92.35,651.81,91.72Zm.52,6.57c-4.63.32-4.48,6.65-4.21,10.58s.81,12.35,5.73,12,4.62-7.13,4.33-11.27a29.94,29.94,0,0,0-1.53-8.48A3.94,3.94,0,0,0,652.33,98.29Z"/><path class="cls-3" d="M680.71,125l-6.26.44a1.19,1.19,0,0,1-1.21-1.08L671,92.12A1.19,1.19,0,0,1,672.11,91l5.83-.41a1.2,1.2,0,0,1,1.18.83l.34,4.92h.12c1.45-4.53,3.76-6.81,8.1-7.11a8.25,8.25,0,0,1,7.59,3.28c1.82,2.47,2.12,6.8,2.34,9.92L699,122.69a1.19,1.19,0,0,1-1.13,1.1l-6.3.44a1.18,1.18,0,0,1-1.18-.94l-1.23-17.49c-.24-3.53-.19-8.71-4.53-8.41a4.1,4.1,0,0,0-3.45,2.83,14.11,14.11,0,0,0-.57,6.17l1.21,17.36A1.21,1.21,0,0,1,680.71,125Z"/><path class="cls-3" d="M596,115.45c.17,2.45.37,4.48-.71,6.74a5.09,5.09,0,0,1-4.14,3.16c-2.41.17-4-1.57-4.14-4.28-.37-5.35,4.35-6.66,8.9-7Zm7.4,14.87a1.3,1.3,0,0,1-1.47.25,15.27,15.27,0,0,1-3.89-3.94c-3.2,3.76-5.57,5-10,5.29-5.28.37-9.62-2.6-10.08-9.13a10.72,10.72,0,0,1,6-10.73c3.3-1.73,8-2.33,11.65-3l0-.81c-.11-1.5-.11-3.27-1.08-4.5a4.19,4.19,0,0,0-3.64-1.38c-2.4.16-4.44,1.54-4.78,4.12a1.34,1.34,0,0,1-1,1.23l-6.14-.23a1.1,1.1,0,0,1-1-1.25c.88-7.48,7.39-10.18,13.36-10.6,3.06-.21,7.11.33,9.68,2.47,3.25,2.64,3.22,6.47,3.51,10.61l.69,9.78c.2,2.94,1.52,4.15,2.77,5.65.44.55.58,1.22.1,1.67-1.21,1.17-3.35,3.31-4.52,4.51Z"/><path class="cls-3" d="M513.68,121.21c.17,2.44.37,4.48-.71,6.74a5.11,5.11,0,0,1-4.14,3.16c-2.41.17-3.95-1.57-4.14-4.29-.37-5.35,4.35-6.65,8.9-7Zm7.4,14.86a1.3,1.3,0,0,1-1.47.25,15.25,15.25,0,0,1-3.89-3.93c-3.2,3.75-5.57,5-10,5.29-5.28.37-9.62-2.61-10.08-9.13a10.7,10.7,0,0,1,6-10.73c3.3-1.73,8-2.34,11.65-3l-.05-.82c-.11-1.49-.11-3.27-1.08-4.5a4.22,4.22,0,0,0-3.64-1.38c-2.4.17-4.44,1.54-4.78,4.12a1.33,1.33,0,0,1-1,1.23l-6.13-.23a1.1,1.1,0,0,1-1-1.25c.88-7.48,7.39-10.17,13.36-10.59,3.06-.21,7.11.32,9.68,2.46,3.25,2.64,3.22,6.47,3.51,10.62l.69,9.78c.2,2.94,1.51,4.14,2.77,5.65a1.19,1.19,0,0,1,.1,1.67c-1.21,1.16-3.35,3.3-4.52,4.5Z"/></g></svg>