<svg xmlns="http://www.w3.org/2000/svg" viewBox="0 0 154.87 110.92"><defs><style>.a{fill:#ffe161;}.b{fill:none;stroke:#1eb9d5;stroke-linecap:round;stroke-linejoin:round;stroke-width:2px;}</style></defs><title>Asset 12</title><path class="a" d="M6,107.71a1.61,1.61,0,0,0-.42-1.15,4.13,4.13,0,0,0-1-.79,13.42,13.42,0,0,0-1.37-.65,7.56,7.56,0,0,1-1.38-.74,3.78,3.78,0,0,1-1-1.06,2.85,2.85,0,0,1-.42-1.61,2.72,2.72,0,0,1,1-2.19A4.12,4.12,0,0,1,4,98.71a10.73,10.73,0,0,1,1.87.15,4.79,4.79,0,0,1,1.31.39l-.42,1.25a5.63,5.63,0,0,0-1.14-.37A7.85,7.85,0,0,0,3.91,100a2.4,2.4,0,0,0-1.67.5,1.57,1.57,0,0,0-.13,2.26,4.13,4.13,0,0,0,1.05.79c.42.23.88.46,1.37.68a9.16,9.16,0,0,1,1.38.78A4.27,4.27,0,0,1,7,106a2.74,2.74,0,0,1,.42,1.55A3.32,3.32,0,0,1,7.11,109,2.89,2.89,0,0,1,6.32,110a3.79,3.79,0,0,1-1.26.67,5.52,5.52,0,0,1-1.69.24,9.3,9.3,0,0,1-2.09-.2A5.56,5.56,0,0,1,0,110.29L.47,109a4.71,4.71,0,0,0,1.15.42,6.33,6.33,0,0,0,1.7.21,5,5,0,0,0,1.05-.11,2.28,2.28,0,0,0,.84-.36,1.82,1.82,0,0,0,.56-.61A1.76,1.76,0,0,0,6,107.71Z"/><path class="a" d="M15.63,110a3.94,3.94,0,0,1-1.28.64,5.38,5.38,0,0,1-1.62.24,4.08,4.08,0,0,1-1.67-.32,3,3,0,0,1-1.17-.89,4,4,0,0,1-.67-1.39A6.83,6.83,0,0,1,9,106.5a5,5,0,0,1,1-3.29,3.42,3.42,0,0,1,2.75-1.13,5.07,5.07,0,0,1,1.15.13,2.4,2.4,0,0,1,1,.48,2.61,2.61,0,0,1,.75,1,4.36,4.36,0,0,1,.28,1.71,8,8,0,0,1-.1,1.23H10.4a5.21,5.21,0,0,0,.15,1.32,2.66,2.66,0,0,0,.47,1,2.15,2.15,0,0,0,.84.6,3.11,3.11,0,0,0,1.25.22,3.29,3.29,0,0,0,1.15-.21,2.37,2.37,0,0,0,.86-.47Zm-2.9-6.78a2.34,2.34,0,0,0-1.6.53,2.58,2.58,0,0,0-.71,1.78H14.6a2.61,2.61,0,0,0-.49-1.79A1.8,1.8,0,0,0,12.73,103.26Z"/><path class="a" d="M19.54,108.64a1.33,1.33,0,0,0,.2.84.68.68,0,0,0,.57.26,4.07,4.07,0,0,0,.47,0,2.62,2.62,0,0,0,.58-.15l.15,1.06a2.6,2.6,0,0,1-.75.22,4.63,4.63,0,0,1-.84.09,1.83,1.83,0,0,1-1.24-.43,1.86,1.86,0,0,1-.49-1.46V98.91h1.35Z"/><path class="a" d="M22,102.29h1.32v-.48a6.77,6.77,0,0,1,.12-1.35,2.35,2.35,0,0,1,.41-.93,1.79,1.79,0,0,1,.75-.54,3.08,3.08,0,0,1,1.13-.18,6.59,6.59,0,0,1,.95.07,4.86,4.86,0,0,1,.87.25l-.31,1.13a3.32,3.32,0,0,0-.73-.22,5.13,5.13,0,0,0-.65-.05,1.41,1.41,0,0,0-.68.14.8.8,0,0,0-.36.39,2.26,2.26,0,0,0-.13.64c0,.26,0,.55,0,.89v.24h2.25v1.18H24.69v7.24H23.35v-7.24H22Z"/><path class="a" d="M38.3,107.71a1.61,1.61,0,0,0-.42-1.15,4.37,4.37,0,0,0-1.06-.79,13.42,13.42,0,0,0-1.37-.65,7.91,7.91,0,0,1-1.38-.74,3.78,3.78,0,0,1-1-1.06,2.85,2.85,0,0,1-.42-1.61,2.72,2.72,0,0,1,1-2.19,4.12,4.12,0,0,1,2.73-.81,10.65,10.65,0,0,1,1.87.15,5,5,0,0,1,1.32.39l-.42,1.25a5.63,5.63,0,0,0-1.14-.37,8,8,0,0,0-1.7-.17,2.42,2.42,0,0,0-1.67.5,1.57,1.57,0,0,0-.13,2.26,4.13,4.13,0,0,0,1,.79c.42.23.88.46,1.38.68a9.56,9.56,0,0,1,1.37.78A4.27,4.27,0,0,1,39.27,106a2.67,2.67,0,0,1,.43,1.55,3.32,3.32,0,0,1-.27,1.37,2.91,2.91,0,0,1-.8,1.05,3.69,3.69,0,0,1-1.26.67,5.52,5.52,0,0,1-1.69.24,9.3,9.3,0,0,1-2.09-.2,5.73,5.73,0,0,1-1.28-.43l.47-1.25a4.87,4.87,0,0,0,1.15.42,6.38,6.38,0,0,0,1.7.21,5,5,0,0,0,1-.11,2.21,2.21,0,0,0,.84-.36,1.7,1.7,0,0,0,.78-1.49Z"/><path class="a" d="M47.94,110a3.88,3.88,0,0,1-1.27.64,5.5,5.5,0,0,1-1.63.24,4.08,4.08,0,0,1-1.67-.32,2.85,2.85,0,0,1-1.16-.89,3.84,3.84,0,0,1-.68-1.39,7.26,7.26,0,0,1-.22-1.82,5,5,0,0,1,1-3.29A3.42,3.42,0,0,1,45,102.08a5,5,0,0,1,1.15.13,2.5,2.5,0,0,1,1,.48,2.59,2.59,0,0,1,.74,1,4.36,4.36,0,0,1,.28,1.71,8,8,0,0,1-.1,1.23H42.71a5.21,5.21,0,0,0,.15,1.32,2.67,2.67,0,0,0,.48,1,2,2,0,0,0,.83.6,3.13,3.13,0,0,0,1.26.22,3.28,3.28,0,0,0,1.14-.21,2.37,2.37,0,0,0,.86-.47ZM45,103.26a2.31,2.31,0,0,0-1.59.53,2.59,2.59,0,0,0-.72,1.78h4.18a2.56,2.56,0,0,0-.49-1.79A1.79,1.79,0,0,0,45,103.26Z"/><path class="a" d="M54.33,103.58a3.14,3.14,0,0,0-1-.17,1.62,1.62,0,0,0-1.15.4,1.68,1.68,0,0,0-.52,1v5.9H50.35v-8.42h.94l.26,1h.06a2.67,2.67,0,0,1,.77-.88,1.94,1.94,0,0,1,1.14-.31,3.82,3.82,0,0,1,1.09.17Z"/><path class="a" d="M58.51,107.22l.47,1.61h0l.42-1.64,1.88-4.9h1.45l-3.59,8.61h-.57l-3.66-8.61h1.55Z"/><path class="a" d="M64.2,99.72a.9.9,0,0,1,.27-.66.84.84,0,0,1,.66-.28.94.94,0,0,1,.69.28.88.88,0,0,1,.29.66.82.82,0,0,1-.29.64,1,1,0,0,1-.69.26.9.9,0,0,1-.66-.26A.84.84,0,0,1,64.2,99.72Zm.29,2.57h1.35v8.42H64.49Z"/><path class="a" d="M74.47,110.16a3.91,3.91,0,0,1-1.2.56,5.29,5.29,0,0,1-1.45.2,3.88,3.88,0,0,1-1.65-.32,2.67,2.67,0,0,1-1.1-.89,3.75,3.75,0,0,1-.63-1.4,7.8,7.8,0,0,1-.19-1.81,5,5,0,0,1,.94-3.28,3.34,3.34,0,0,1,2.72-1.14,6,6,0,0,1,1.37.13,3.84,3.84,0,0,1,1,.36l-.39,1.16a3.67,3.67,0,0,0-.86-.34,3.63,3.63,0,0,0-1-.13c-1.59,0-2.39,1.08-2.39,3.24a6,6,0,0,0,.12,1.22,3.07,3.07,0,0,0,.43,1,2.13,2.13,0,0,0,.77.72,2.41,2.41,0,0,0,1.19.27,3.11,3.11,0,0,0,1.09-.19,2.84,2.84,0,0,0,.78-.42Z"/><path class="a" d="M82.09,110a3.88,3.88,0,0,1-1.27.64,5.5,5.5,0,0,1-1.63.24,4.08,4.08,0,0,1-1.67-.32,2.85,2.85,0,0,1-1.16-.89,3.84,3.84,0,0,1-.68-1.39,7.26,7.26,0,0,1-.22-1.82,5,5,0,0,1,1-3.29,3.42,3.42,0,0,1,2.75-1.13,5,5,0,0,1,1.15.13,2.5,2.5,0,0,1,1,.48,2.59,2.59,0,0,1,.74,1,4.36,4.36,0,0,1,.28,1.71,8,8,0,0,1-.1,1.23H76.86A5.21,5.21,0,0,0,77,108a2.67,2.67,0,0,0,.48,1,2,2,0,0,0,.83.6,3.13,3.13,0,0,0,1.26.22,3.28,3.28,0,0,0,1.14-.21,2.37,2.37,0,0,0,.86-.47Zm-2.9-6.78a2.31,2.31,0,0,0-1.59.53,2.59,2.59,0,0,0-.72,1.78h4.18a2.56,2.56,0,0,0-.49-1.79A1.79,1.79,0,0,0,79.19,103.26Z"/><path class="a" d="M98.2,102.79l.17-1.77h-.08l-.64,1.62L94.58,108h-.42l-3.26-5.35-.6-1.6h-.09l.24,1.75v7.94H89.13V98.91h1.05l3.69,6,.56,1.31h0l.52-1.35,3.53-6H99.6v11.8H98.2Z"/><path class="a" d="M102.2,102.91a4.63,4.63,0,0,1,1.49-.57,8,8,0,0,1,1.78-.19,3.51,3.51,0,0,1,1.41.24,1.88,1.88,0,0,1,.8.61,2.14,2.14,0,0,1,.38.84,4.6,4.6,0,0,1,.09.91c0,.67,0,1.33-.05,2s0,1.25,0,1.82a11.16,11.16,0,0,0,0,1.18,5.39,5.39,0,0,0,.18,1h-1l-.36-1.18h-.08a3.08,3.08,0,0,1-.38.46,2.39,2.39,0,0,1-.55.41,3.94,3.94,0,0,1-.74.29,3.5,3.5,0,0,1-1,.12,3,3,0,0,1-1-.17,2.22,2.22,0,0,1-.8-.48,2.09,2.09,0,0,1-.53-.75,2.41,2.41,0,0,1-.2-1,2.25,2.25,0,0,1,.31-1.23,2.12,2.12,0,0,1,.85-.8,4.48,4.48,0,0,1,1.31-.42,11.05,11.05,0,0,1,1.7-.12h.46a3.55,3.55,0,0,1,.46,0,7.65,7.65,0,0,0,0-.91,1.8,1.8,0,0,0-.37-1.3,1.88,1.88,0,0,0-1.35-.37,4.45,4.45,0,0,0-.61,0,5.79,5.79,0,0,0-.68.13,4.11,4.11,0,0,0-.65.19,2.54,2.54,0,0,0-.55.25Zm2.39,6.76a2.39,2.39,0,0,0,.84-.13,2.26,2.26,0,0,0,.64-.32,2.06,2.06,0,0,0,.45-.43,1.78,1.78,0,0,0,.26-.45v-1.4l-.48,0h-.48a8.47,8.47,0,0,0-1,.06,3.46,3.46,0,0,0-.87.22,1.58,1.58,0,0,0-.61.44,1.09,1.09,0,0,0-.23.7,1.25,1.25,0,0,0,.42,1A1.56,1.56,0,0,0,104.59,109.67Z"/><path class="a" d="M116.44,110.16a3.91,3.91,0,0,1-1.2.56,5.29,5.29,0,0,1-1.45.2,3.88,3.88,0,0,1-1.65-.32,2.73,2.73,0,0,1-1.1-.89,3.58,3.58,0,0,1-.62-1.4,7.78,7.78,0,0,1-.2-1.81,5,5,0,0,1,1-3.28,3.3,3.3,0,0,1,2.71-1.14,6,6,0,0,1,1.37.13,3.84,3.84,0,0,1,1,.36l-.38,1.16a3.86,3.86,0,0,0-.86-.34,3.75,3.75,0,0,0-1-.13c-1.59,0-2.39,1.08-2.39,3.24a5.37,5.37,0,0,0,.13,1.22,2.87,2.87,0,0,0,.42,1,2.13,2.13,0,0,0,.77.72,2.41,2.41,0,0,0,1.19.27,3.07,3.07,0,0,0,1.09-.19,2.84,2.84,0,0,0,.78-.42Z"/><path class="a" d="M123.71,110.71v-4.8a7.92,7.92,0,0,0-.08-1.16,2.09,2.09,0,0,0-.28-.82,1.27,1.27,0,0,0-.55-.5,2.09,2.09,0,0,0-.9-.17,2.19,2.19,0,0,0-1.43.52,2.32,2.32,0,0,0-.83,1.32v5.61H118.3V98.91h1.34v4.32h.07a3.24,3.24,0,0,1,1.06-.84,3.39,3.39,0,0,1,1.52-.31,4.48,4.48,0,0,1,1.23.16,1.84,1.84,0,0,1,.87.57,2.45,2.45,0,0,1,.5,1.09,7.5,7.5,0,0,1,.16,1.72v5.09Z"/><path class="a" d="M127.52,99.72a.89.89,0,0,1,.26-.66.84.84,0,0,1,.66-.28.94.94,0,0,1,.69.28.88.88,0,0,1,.29.66.82.82,0,0,1-.29.64,1,1,0,0,1-.69.26.9.9,0,0,1-.66-.26A.83.83,0,0,1,127.52,99.72Zm.28,2.57h1.35v8.42H127.8Z"/><path class="a" d="M137.44,110.71v-4.8a4,4,0,0,0-.38-2,1.46,1.46,0,0,0-1.39-.67,2.24,2.24,0,0,0-1.47.48,2.59,2.59,0,0,0-.82,1.21v5.76H132v-8.42H133l.25,1h.07a3.05,3.05,0,0,1,1.08-.88,3.59,3.59,0,0,1,1.63-.35,4.45,4.45,0,0,1,1.22.16,1.86,1.86,0,0,1,.86.57,2.71,2.71,0,0,1,.53,1.09,7.44,7.44,0,0,1,.17,1.72v5.09Z"/><path class="a" d="M147.41,110a3.94,3.94,0,0,1-1.28.64,5.38,5.38,0,0,1-1.62.24,4.08,4.08,0,0,1-1.67-.32,3,3,0,0,1-1.17-.89,4,4,0,0,1-.67-1.39,6.83,6.83,0,0,1-.22-1.82,5,5,0,0,1,1-3.29,3.42,3.42,0,0,1,2.75-1.13,5.07,5.07,0,0,1,1.15.13,2.4,2.4,0,0,1,1,.48,2.51,2.51,0,0,1,.75,1,4.36,4.36,0,0,1,.28,1.71,8,8,0,0,1-.1,1.23h-5.41a5.21,5.21,0,0,0,.15,1.32,2.66,2.66,0,0,0,.47,1,2.15,2.15,0,0,0,.84.6,3.11,3.11,0,0,0,1.25.22,3.29,3.29,0,0,0,1.15-.21,2.37,2.37,0,0,0,.86-.47Zm-2.9-6.78a2.34,2.34,0,0,0-1.6.53,2.58,2.58,0,0,0-.71,1.78h4.18a2.61,2.61,0,0,0-.49-1.79A1.8,1.8,0,0,0,144.51,103.26Z"/><path class="a" d="M153.52,108.42a1,1,0,0,0-.3-.79,2.55,2.55,0,0,0-.75-.48c-.3-.13-.62-.25-1-.37a4.33,4.33,0,0,1-1-.46,2.42,2.42,0,0,1-.75-.71,2,2,0,0,1-.31-1.18,2.16,2.16,0,0,1,.69-1.78,2.94,2.94,0,0,1,1.93-.57,6.5,6.5,0,0,1,1.52.16,6.59,6.59,0,0,1,1.07.38l-.32,1.11a5.28,5.28,0,0,0-.93-.32,4.49,4.49,0,0,0-1.18-.15,1.83,1.83,0,0,0-1.08.26,1,1,0,0,0-.35.87.83.83,0,0,0,.3.68,3.37,3.37,0,0,0,.75.44c.3.13.63.26,1,.38a4.49,4.49,0,0,1,1,.49,2.62,2.62,0,0,1,.75.77,2.2,2.2,0,0,1,.3,1.22,3,3,0,0,1-.17,1,2,2,0,0,1-.55.81,2.68,2.68,0,0,1-.92.53,3.88,3.88,0,0,1-1.29.2,6.29,6.29,0,0,1-1.63-.19,4.84,4.84,0,0,1-1.13-.44l.4-1.14a5.3,5.3,0,0,0,1,.4,4.6,4.6,0,0,0,1.27.19,2.25,2.25,0,0,0,1.19-.29A1.09,1.09,0,0,0,153.52,108.42Z"/><path class="b" d="M115,67.34v1.72a7.14,7.14,0,0,1-7.13,7.12H47a7.14,7.14,0,0,1-7.12-7.12V8.13A7.15,7.15,0,0,1,47,1h60.93A7.15,7.15,0,0,1,115,8.13V55.19"/><rect class="b" x="48.22" y="8.54" width="58.4" height="30.05"/><rect class="b" x="87.58" y="50" width="15.44" height="4.03"/><rect class="b" x="50.1" y="50" width="19.78" height="11.33"/><polyline class="b" points="56.34 50.28 53.75 53.61 59.09 57.74 62.73 52.98 59.2 50.28"/></svg>