<?xml version="1.0" encoding="utf-8"?>
<!-- Generator: Adobe Illustrator 23.0.3, SVG Export Plug-In . SVG Version: 6.00 Build 0)  -->
<svg version="1.1" id="Layer_1" xmlns="http://www.w3.org/2000/svg" xmlns:xlink="http://www.w3.org/1999/xlink" x="0px" y="0px"
	 viewBox="0 0 130 130" style="enable-background:new 0 0 130 130;" xml:space="preserve">
<style type="text/css">
	.st0{fill:none;stroke:#1EB9D5;stroke-width:1.5;}
	.st1{fill:#1EB9D5;}
	.st2{enable-background:new    ;}
	.st3{fill:#FFFFFF;}
</style>
<title>globe11</title>
<path class="st0" d="M64.4,27.6h12.8c2.3,0,4.2,1.9,4.2,4.2v28.9c0,2.3-1.9,4.2-4.2,4.2H53.9c-2.3,0-4.2-1.9-4.2-4.2v-29
	c0-2.3,1.9-4.2,4.2-4.2h3.4"/>
<path class="st0" d="M77.1,64.8v5.7c0,2.3-1.9,4.2-4.2,4.2H57.1c-2.3,0-4.1-1.9-4.1-4.2v-5.7"/>
<rect x="54.3" y="32.2" class="st0" width="22.3" height="10.2"/>
<rect x="57.1" y="46.3" class="st1" width="3.3" height="3.3"/>
<rect x="64" y="46.3" class="st1" width="3.3" height="3.3"/>
<rect x="70.5" y="46.3" class="st1" width="3.3" height="3.3"/>
<rect x="57.1" y="52.2" class="st1" width="3.3" height="3.3"/>
<rect x="64" y="52.2" class="st1" width="3.3" height="3.3"/>
<rect x="70.5" y="52.2" class="st1" width="3.3" height="3.3"/>
<rect x="57.1" y="57.8" class="st1" width="3.3" height="3.3"/>
<rect x="64" y="57.8" class="st1" width="3.3" height="3.3"/>
<rect x="70.5" y="57.8" class="st1" width="3.3" height="3.3"/>
<path class="st1" d="M56.9,65.1v9.5h5.4v-9.8C62.3,64.8,56.9,65,56.9,65.1z"/>
<g class="st2">
	<path class="st3" d="M35.2,90.5c0,0.7-0.2,1.3-0.7,1.7c-0.5,0.4-1.2,0.6-2.1,0.6h-0.8v2.8h-0.8v-7.1h1.9
		C34.3,88.5,35.2,89.2,35.2,90.5z M31.5,92.1h0.7c0.7,0,1.3-0.1,1.6-0.4s0.5-0.6,0.5-1.1c0-0.5-0.2-0.8-0.5-1.1s-0.8-0.3-1.4-0.3
		h-0.9V92.1z"/>
	<path class="st3" d="M42.9,92c0,1.1-0.3,2-0.9,2.7s-1.4,1-2.4,1c-1.1,0-1.9-0.3-2.4-1c-0.6-0.6-0.9-1.5-0.9-2.7
		c0-1.2,0.3-2.1,0.9-2.7c0.6-0.6,1.4-1,2.4-1c1,0,1.8,0.3,2.4,1S42.9,90.9,42.9,92z M37.2,92c0,1,0.2,1.7,0.6,2.2
		c0.4,0.5,1,0.7,1.8,0.7c0.8,0,1.4-0.2,1.8-0.7S42,93,42,92c0-1-0.2-1.7-0.6-2.2c-0.4-0.5-1-0.7-1.8-0.7c-0.8,0-1.4,0.2-1.8,0.7
		C37.4,90.3,37.2,91.1,37.2,92z"/>
	<path class="st3" d="M48.5,93.7c0,0.6-0.2,1.1-0.7,1.5s-1.1,0.5-1.9,0.5c-0.8,0-1.5-0.1-2-0.3v-0.8c0.3,0.1,0.6,0.2,1,0.3
		s0.7,0.1,1,0.1c0.6,0,1-0.1,1.2-0.3c0.3-0.2,0.4-0.5,0.4-0.9c0-0.2,0-0.5-0.1-0.6c-0.1-0.2-0.3-0.3-0.5-0.4s-0.6-0.3-1.1-0.5
		c-0.7-0.2-1.1-0.5-1.4-0.8s-0.4-0.8-0.4-1.3c0-0.5,0.2-1,0.6-1.3s1-0.5,1.6-0.5c0.7,0,1.4,0.1,2,0.4L48,89.5
		c-0.6-0.2-1.2-0.4-1.7-0.4c-0.4,0-0.8,0.1-1,0.3s-0.4,0.5-0.4,0.8c0,0.2,0,0.5,0.1,0.6c0.1,0.2,0.2,0.3,0.5,0.4
		c0.2,0.1,0.5,0.3,1,0.4c0.7,0.3,1.3,0.6,1.5,0.9S48.5,93.2,48.5,93.7z"/>
	<path class="st3" d="M55.7,95.6l-2.4-6.3h0c0,0.5,0.1,1.1,0.1,1.8v4.5h-0.8v-7.1h1.2l2.3,5.9h0l2.3-5.9h1.2v7.1h-0.8V91
		c0-0.5,0-1.1,0.1-1.7h0l-2.4,6.3H55.7z"/>
	<path class="st3" d="M66,95.6l-0.9-2.3h-2.9l-0.9,2.3h-0.8l2.8-7.2h0.7l2.8,7.2H66z M64.9,92.6l-0.8-2.2c-0.1-0.3-0.2-0.6-0.3-1
		c-0.1,0.3-0.2,0.7-0.3,1l-0.8,2.2H64.9z"/>
	<path class="st3" d="M70.9,89.1c-0.8,0-1.4,0.3-1.9,0.8c-0.5,0.5-0.7,1.2-0.7,2.1c0,0.9,0.2,1.7,0.7,2.2c0.4,0.5,1.1,0.8,1.9,0.8
		c0.5,0,1.1-0.1,1.7-0.3v0.7c-0.5,0.2-1.1,0.3-1.8,0.3c-1.1,0-1.9-0.3-2.4-1c-0.6-0.6-0.9-1.5-0.9-2.7c0-0.7,0.1-1.4,0.4-1.9
		c0.3-0.6,0.7-1,1.2-1.3c0.5-0.3,1.1-0.4,1.8-0.4c0.7,0,1.4,0.1,2,0.4l-0.4,0.7C72,89.2,71.5,89.1,70.9,89.1z"/>
	<path class="st3" d="M79.6,95.6h-0.8v-3.4H75v3.4h-0.8v-7.1H75v3h3.8v-3h0.8V95.6z"/>
	<path class="st3" d="M81.6,95.6v-7.1h0.8v7.1H81.6z"/>
	<path class="st3" d="M89.9,95.6H89l-3.9-6h0c0.1,0.7,0.1,1.3,0.1,1.9v4.1h-0.8v-7.1h0.9l3.9,6h0c0-0.1,0-0.4,0-0.8c0-0.5,0-0.8,0-1
		v-4.1h0.8V95.6z"/>
	<path class="st3" d="M95.9,95.6h-4v-7.1h4v0.7h-3.1v2.3h3v0.7h-3v2.6h3.1V95.6z"/>
	<path class="st3" d="M101.5,93.7c0,0.6-0.2,1.1-0.7,1.5s-1.1,0.5-1.9,0.5c-0.8,0-1.5-0.1-2-0.3v-0.8c0.3,0.1,0.6,0.2,1,0.3
		s0.7,0.1,1,0.1c0.6,0,1-0.1,1.2-0.3c0.3-0.2,0.4-0.5,0.4-0.9c0-0.2,0-0.5-0.1-0.6c-0.1-0.2-0.3-0.3-0.5-0.4
		c-0.2-0.1-0.6-0.3-1.1-0.5c-0.7-0.2-1.1-0.5-1.4-0.8c-0.3-0.3-0.4-0.8-0.4-1.3c0-0.5,0.2-1,0.6-1.3s1-0.5,1.6-0.5
		c0.7,0,1.4,0.1,2,0.4l-0.3,0.7c-0.6-0.2-1.2-0.4-1.7-0.4c-0.4,0-0.8,0.1-1,0.3s-0.4,0.5-0.4,0.8c0,0.2,0,0.5,0.1,0.6
		c0.1,0.2,0.2,0.3,0.5,0.4c0.2,0.1,0.5,0.3,1,0.4c0.7,0.3,1.3,0.6,1.5,0.9C101.3,92.8,101.5,93.2,101.5,93.7z"/>
</g>
</svg>
