<?xml version="1.0" encoding="utf-8"?>
<!-- Generator: Adobe Illustrator 23.0.3, SVG Export Plug-In . SVG Version: 6.00 Build 0)  -->
<svg version="1.1" id="Layer_1" xmlns="http://www.w3.org/2000/svg" xmlns:xlink="http://www.w3.org/1999/xlink" x="0px" y="0px"
	 viewBox="0 0 130 130" style="enable-background:new 0 0 130 130;" xml:space="preserve">
<style type="text/css">
	.st0{fill:none;stroke:#1EB9D5;stroke-width:1.5;}
	.st1{fill:none;stroke:#1EB9D5;stroke-width:1.5;stroke-linecap:round;}
	.st2{fill:#FFFFFF;}
</style>
<title>globe1</title>
<polyline class="st0" points="49.8,46.1 49.8,33.2 80.9,33.2 80.9,64.2 49.8,64.2 49.8,52.1 "/>
<polygon class="st1" points="69,38.4 70.9,42.3 75.3,43 72.1,46 72.9,50.3 69,48.3 65.1,50.3 65.9,46 62.7,43 67.1,42.3 "/>
<line class="st1" x1="57.9" y1="33.4" x2="57.9" y2="63.7"/>
<line class="st1" x1="50.1" y1="55.8" x2="80.4" y2="55.8"/>
<g>
	<path class="st2" d="M40.1,88.5v3h-0.8v-7.1h2c0.9,0,1.5,0.2,1.9,0.5c0.4,0.3,0.6,0.8,0.6,1.5c0,0.9-0.5,1.6-1.4,1.9l1.9,3.2h-1
		l-1.7-3H40.1z M40.1,87.8h1.1c0.6,0,1-0.1,1.3-0.3c0.3-0.2,0.4-0.6,0.4-1c0-0.5-0.1-0.8-0.4-1s-0.7-0.3-1.3-0.3h-1.1V87.8z"/>
	<path class="st2" d="M49.4,91.5h-4v-7.1h4v0.7h-3.1v2.3h3v0.7h-3v2.6h3.1V91.5z"/>
	<path class="st2" d="M57.3,91.5h-0.9L55,86.7c-0.1-0.2-0.1-0.5-0.2-0.8s-0.1-0.5-0.1-0.6c-0.1,0.4-0.2,0.9-0.3,1.4L53,91.5h-0.8
		l-1.9-7.1h0.9l1.1,4.4c0.2,0.6,0.3,1.2,0.3,1.7c0.1-0.6,0.2-1.2,0.4-1.7l1.3-4.3h0.9l1.3,4.4c0.2,0.5,0.3,1.1,0.4,1.7
		c0.1-0.5,0.2-1,0.4-1.7l1.1-4.4h0.9L57.3,91.5z"/>
	<path class="st2" d="M64.8,91.5l-0.9-2.3H61l-0.9,2.3h-0.8l2.8-7.2h0.7l2.8,7.2H64.8z M63.6,88.5l-0.8-2.2c-0.1-0.3-0.2-0.6-0.3-1
		c-0.1,0.3-0.2,0.7-0.3,1l-0.8,2.2H63.6z"/>
	<path class="st2" d="M67.4,88.5v3h-0.8v-7.1h2c0.9,0,1.5,0.2,1.9,0.5s0.6,0.8,0.6,1.5c0,0.9-0.5,1.6-1.4,1.9l1.9,3.2h-1l-1.7-3
		H67.4z M67.4,87.8h1.1c0.6,0,1-0.1,1.3-0.3c0.3-0.2,0.4-0.6,0.4-1c0-0.5-0.1-0.8-0.4-1s-0.7-0.3-1.3-0.3h-1.1V87.8z"/>
	<path class="st2" d="M78.5,87.9c0,1.2-0.3,2.1-1,2.7c-0.6,0.6-1.6,0.9-2.8,0.9h-2v-7.1h2.2c1.1,0,2,0.3,2.6,0.9
		S78.5,86.8,78.5,87.9z M77.6,87.9c0-0.9-0.2-1.6-0.7-2.1s-1.2-0.7-2.1-0.7h-1.2v5.7h1c1,0,1.7-0.2,2.2-0.7
		C77.4,89.6,77.6,88.8,77.6,87.9z"/>
	<path class="st2" d="M84.1,89.6c0,0.6-0.2,1.1-0.7,1.5s-1.1,0.5-1.9,0.5s-1.5-0.1-2-0.3v-0.8c0.3,0.1,0.6,0.2,1,0.3s0.7,0.1,1,0.1
		c0.6,0,1-0.1,1.2-0.3c0.3-0.2,0.4-0.5,0.4-0.9c0-0.2,0-0.5-0.1-0.6c-0.1-0.2-0.3-0.3-0.5-0.4c-0.2-0.1-0.6-0.3-1.1-0.5
		c-0.7-0.2-1.1-0.5-1.4-0.8s-0.4-0.8-0.4-1.3s0.2-1,0.6-1.3c0.4-0.3,1-0.5,1.6-0.5c0.7,0,1.4,0.1,2,0.4l-0.3,0.7
		c-0.6-0.2-1.2-0.4-1.7-0.4c-0.4,0-0.8,0.1-1,0.3c-0.2,0.2-0.4,0.5-0.4,0.8c0,0.2,0,0.5,0.1,0.6c0.1,0.2,0.2,0.3,0.5,0.4
		c0.2,0.1,0.5,0.3,1,0.4c0.7,0.3,1.3,0.6,1.5,0.9C83.7,88.7,84.1,89.1,84.1,89.6z"/>
	<path class="st2" d="M90.8,84.4l-2.7,7.1h-0.8l2.7-7.1H90.8z"/>
	<path class="st2" d="M42.8,104.4v-7.1h0.8v6.4h3.2v0.8h-4V104.4z"/>
	<path class="st2" d="M54.2,100.8c0,1.1-0.3,2-0.9,2.7s-1.4,1-2.4,1c-1.1,0-1.9-0.3-2.4-1c-0.6-0.6-0.9-1.5-0.9-2.7s0.3-2.1,0.9-2.7
		s1.4-1,2.4-1s1.8,0.3,2.4,1S54.2,99.7,54.2,100.8z M48.5,100.8c0,1,0.2,1.7,0.6,2.2s1,0.7,1.8,0.7s1.4-0.2,1.8-0.7s0.6-1.2,0.6-2.2
		s-0.2-1.7-0.6-2.2s-1-0.7-1.8-0.7s-1.4,0.2-1.8,0.7C48.7,99.1,48.5,99.9,48.5,100.8z"/>
	<path class="st2" d="M57.6,100.8l1.9-3.6h0.9l-2.4,4.4v2.8h-0.8v-2.7l-2.4-4.4h0.9L57.6,100.8z"/>
	<path class="st2" d="M65.9,104.4l-0.9-2.3h-2.9l-0.9,2.3h-0.8l2.8-7.2h0.7l2.8,7.2H65.9z M64.8,101.4L64,99.2
		c-0.1-0.3-0.2-0.6-0.3-1c-0.1,0.3-0.2,0.7-0.3,1l-0.8,2.2H64.8z"/>
	<path class="st2" d="M67.7,104.4v-7.1h0.8v6.4h3.1v0.8h-3.9V104.4z"/>
	<path class="st2" d="M75.1,104.4h-0.8V98H72v-0.7h5.4V98h-2.3C75.1,98,75.1,104.4,75.1,104.4z"/>
	<path class="st2" d="M80.3,100.8l1.9-3.6h0.9l-2.4,4.4v2.8h-0.8v-2.7l-2.4-4.4h0.9L80.3,100.8z"/>
</g>
</svg>
