<?xml version="1.0" encoding="utf-8"?>
<!-- Generator: Adobe Illustrator 23.0.3, SVG Export Plug-In . SVG Version: 6.00 Build 0)  -->
<svg version="1.1" id="Layer_1" xmlns="http://www.w3.org/2000/svg" xmlns:xlink="http://www.w3.org/1999/xlink" x="0px" y="0px"
	 viewBox="0 0 130 130" style="enable-background:new 0 0 130 130;" xml:space="preserve">
<style type="text/css">
	.st0{fill:#FFE161;}
	.st1{fill:none;stroke:#1EB9D5;stroke-width:1.5;stroke-linecap:round;stroke-linejoin:round;}
</style>
<title>globe9</title>
<path class="st0" d="M19.9,90.1l0.1-1h0l-0.4,1l-1.8,3.1h-0.2L15.6,90l-0.4-0.9h-0.1l0.1,1v4.7h-0.8v-6.9h0.6l2.2,3.5l0.3,0.8l0,0
	l0.3-0.8l2.1-3.5h0.6v6.9h-0.8L19.9,90.1z"/>
<path class="st0" d="M22.1,92.3c0-0.7,0.1-1.4,0.5-1.9c0.4-0.5,1-0.7,1.6-0.7c0.3,0,0.7,0,1,0.2c0.3,0.1,0.5,0.3,0.7,0.5
	c0.2,0.2,0.3,0.5,0.4,0.8c0.1,0.3,0.1,0.7,0.1,1.1c0,0.7-0.1,1.4-0.5,1.9c-0.4,0.5-1,0.7-1.6,0.7c-0.3,0-0.7,0-1-0.2
	c-0.3-0.1-0.5-0.3-0.7-0.5c-0.2-0.2-0.3-0.5-0.4-0.8C22.1,93,22.1,92.7,22.1,92.3z M22.9,92.3c0,0.2,0,0.5,0.1,0.7
	c0,0.2,0.1,0.4,0.2,0.6c0.1,0.2,0.3,0.3,0.4,0.4c0.2,0.1,0.4,0.2,0.6,0.2c0.9,0,1.3-0.6,1.3-1.9c0-0.2,0-0.5-0.1-0.7
	c0-0.2-0.1-0.4-0.2-0.6c-0.1-0.2-0.3-0.3-0.4-0.4c-0.2-0.1-0.4-0.2-0.6-0.2C23.3,90.4,22.9,91,22.9,92.3z"/>
<path class="st0" d="M27.6,87.8h0.8v2.5l0,0c0.2-0.2,0.4-0.3,0.6-0.4c0.2-0.1,0.5-0.2,0.8-0.2c0.6,0,1.1,0.2,1.4,0.6
	c0.4,0.6,0.5,1.2,0.5,1.9c0.1,0.7-0.2,1.4-0.6,2c-0.5,0.5-1.1,0.7-1.8,0.7c-0.3,0-0.7,0-1-0.1c-0.2-0.1-0.5-0.1-0.7-0.3L27.6,87.8z
	 M29.6,90.4c-0.3,0-0.6,0.1-0.8,0.3c-0.2,0.2-0.4,0.5-0.4,0.8V94c0.1,0.1,0.3,0.1,0.5,0.2c0.2,0,0.4,0.1,0.6,0.1
	c0.4,0,0.8-0.2,1.1-0.5c0.3-0.4,0.4-1,0.4-1.5c0-0.2,0-0.5-0.1-0.7c0-0.2-0.1-0.4-0.2-0.6c-0.1-0.2-0.2-0.3-0.4-0.4
	C30.1,90.5,29.9,90.4,29.6,90.4L29.6,90.4z"/>
<path class="st0" d="M33,88.3c0-0.1,0.1-0.3,0.2-0.4c0.1-0.1,0.2-0.2,0.4-0.2c0.1,0,0.3,0.1,0.4,0.2c0.1,0.1,0.2,0.2,0.2,0.4
	c0,0.1-0.1,0.3-0.2,0.4c-0.1,0.1-0.3,0.2-0.4,0.2c-0.1,0-0.3,0-0.4-0.2C33.1,88.6,33,88.5,33,88.3z M33.2,89.8H34v4.9h-0.8V89.8z"/>
<path class="st0" d="M36.5,93.6c0,0.2,0,0.4,0.1,0.5c0.1,0.1,0.2,0.2,0.3,0.2h0.3l0.3-0.1l0.1,0.6c-0.1,0.1-0.3,0.1-0.4,0.1
	c-0.2,0-0.3,0-0.5,0c-0.6,0-1-0.4-1-1c0,0,0-0.1,0-0.1v-5.9h0.8L36.5,93.6z"/>
<path class="st0" d="M42.1,94.4c-0.2,0.2-0.5,0.3-0.8,0.4c-0.3,0.1-0.7,0.1-1,0.1c-0.3,0-0.7-0.1-1-0.2c-0.3-0.1-0.5-0.3-0.7-0.5
	c-0.2-0.2-0.3-0.5-0.4-0.8c-0.1-0.4-0.1-0.7-0.1-1.1c0-0.7,0.2-1.4,0.6-1.9c0.4-0.5,1-0.7,1.6-0.7c0.2,0,0.4,0,0.7,0.1
	c0.2,0.1,0.4,0.2,0.6,0.3c0.2,0.2,0.3,0.4,0.4,0.6c0.1,0.3,0.2,0.7,0.2,1c0,0.2,0,0.5-0.1,0.7h-3.1c0,0.3,0,0.5,0.1,0.8
	c0.1,0.2,0.1,0.4,0.3,0.6c0.1,0.2,0.3,0.3,0.5,0.3c0.2,0.1,0.5,0.1,0.7,0.1c0.2,0,0.5,0,0.7-0.1c0.2-0.1,0.4-0.2,0.5-0.3L42.1,94.4z
	 M40.4,90.4c-0.3,0-0.7,0.1-0.9,0.3c-0.3,0.3-0.4,0.6-0.4,1h2.5c0-0.4-0.1-0.7-0.3-1C41,90.5,40.7,90.4,40.4,90.4L40.4,90.4z"/>
<path class="st0" d="M46,91.3c-0.1-0.9,0.2-1.9,0.7-2.7c0.5-0.6,1.3-1,2.1-0.9c0.4,0,0.9,0.1,1.3,0.3c0.4,0.2,0.7,0.4,0.9,0.7
	c0.2,0.3,0.4,0.7,0.5,1.1c0.1,0.5,0.2,1,0.2,1.5c0.1,1-0.2,1.9-0.8,2.7c-0.5,0.6-1.3,1-2.1,0.9c-0.4,0-0.9-0.1-1.2-0.3
	c-0.4-0.2-0.7-0.4-0.9-0.7c-0.2-0.3-0.4-0.7-0.5-1.1C46,92.3,46,91.8,46,91.3z M46.9,91.3c0,0.4,0,0.7,0.1,1.1
	c0.1,0.3,0.2,0.6,0.3,0.9c0.1,0.3,0.4,0.5,0.6,0.6c0.3,0.2,0.6,0.2,0.9,0.2c0.6,0,1.1-0.2,1.4-0.7c0.4-0.6,0.6-1.4,0.5-2.2
	c0-0.4,0-0.7-0.1-1.1c-0.1-0.3-0.2-0.6-0.3-0.9c-0.2-0.3-0.4-0.5-0.6-0.6c-0.3-0.2-0.6-0.2-0.9-0.2c-0.6,0-1.1,0.2-1.4,0.7
	C47,89.8,46.8,90.6,46.9,91.3L46.9,91.3z"/>
<path class="st0" d="M52.9,89.8h0.5l0.2,0.6l0,0c0.1-0.2,0.3-0.4,0.6-0.5c0.3-0.1,0.5-0.2,0.8-0.2c0.6,0,1.1,0.2,1.5,0.6
	c0.4,0.6,0.5,1.2,0.5,1.9c0,0.4,0,0.8-0.2,1.1c-0.1,0.3-0.3,0.6-0.5,0.8c-0.2,0.2-0.4,0.4-0.7,0.5c-0.3,0.1-0.6,0.2-0.9,0.2
	c-0.2,0-0.4,0-0.6,0c-0.2,0-0.3-0.1-0.5-0.2v2.1h-0.8L52.9,89.8z M54.9,90.4c-0.3,0-0.6,0.1-0.8,0.3c-0.2,0.2-0.4,0.5-0.4,0.8v2.4
	c0.1,0.1,0.3,0.2,0.4,0.2c0.2,0.1,0.4,0.1,0.6,0.1c0.4,0,0.8-0.2,1.1-0.5c0.3-0.4,0.4-1,0.4-1.5c0-0.2,0-0.5-0.1-0.7
	c0-0.2-0.1-0.4-0.2-0.6c-0.1-0.1-0.2-0.3-0.4-0.4C55.3,90.4,55.1,90.4,54.9,90.4z"/>
<path class="st0" d="M61.9,94.4c-0.2,0.2-0.5,0.3-0.7,0.4c-0.3,0.1-0.7,0.1-1,0.1c-0.3,0-0.7-0.1-1-0.2c-0.3-0.1-0.5-0.3-0.7-0.5
	c-0.2-0.2-0.3-0.5-0.4-0.8C58,93,58,92.7,58,92.3c0-0.7,0.2-1.4,0.6-1.9c0.4-0.5,1-0.7,1.6-0.7c0.2,0,0.5,0,0.7,0.1
	c0.2,0.1,0.4,0.2,0.6,0.3c0.2,0.2,0.3,0.4,0.4,0.6c0.1,0.3,0.2,0.7,0.2,1c0,0.2,0,0.5-0.1,0.7h-3.2c0,0.3,0,0.5,0.1,0.8
	c0.1,0.2,0.1,0.4,0.3,0.6c0.1,0.2,0.3,0.3,0.5,0.3c0.2,0.1,0.5,0.1,0.7,0.1c0.2,0,0.5,0,0.7-0.1c0.2-0.1,0.4-0.2,0.5-0.3L61.9,94.4z
	 M60.2,90.4c-0.3,0-0.7,0.1-0.9,0.3c-0.3,0.3-0.4,0.6-0.4,1h2.5c0-0.4-0.1-0.7-0.3-1C60.8,90.5,60.5,90.4,60.2,90.4L60.2,90.4z"/>
<path class="st0" d="M65.6,90.6c-0.2-0.1-0.4-0.1-0.6-0.1c-0.2,0-0.5,0.1-0.7,0.2c-0.2,0.2-0.3,0.4-0.3,0.6v3.5h-0.8v-4.9h0.5
	l0.1,0.6l0,0c0.1-0.2,0.3-0.4,0.4-0.5c0.2-0.1,0.4-0.2,0.7-0.2c0.2,0,0.4,0,0.7,0.1L65.6,90.6z"/>
<path class="st0" d="M66.6,90.2c0.3-0.2,0.6-0.3,0.9-0.3c0.3-0.1,0.7-0.1,1-0.1c0.3,0,0.6,0,0.8,0.1c0.2,0.1,0.3,0.2,0.5,0.4
	c0.1,0.1,0.2,0.3,0.2,0.5c0,0.2,0.1,0.4,0.1,0.5c0,0.4,0,0.8,0,1.2s0,0.7,0,1.1s0,0.5,0,0.7c0,0.2,0.1,0.4,0.1,0.6h-0.6l-0.2-0.7
	l0,0c-0.1,0.1-0.1,0.2-0.2,0.3c-0.1,0.1-0.2,0.2-0.3,0.2c-0.1,0.1-0.3,0.1-0.4,0.2c-0.2,0-0.4,0.1-0.6,0.1c-0.2,0-0.4,0-0.6-0.1
	c-0.2-0.1-0.3-0.2-0.5-0.3c-0.2-0.1-0.3-0.3-0.4-0.5c-0.1-0.2-0.1-0.4-0.1-0.6c0-0.3,0.1-0.5,0.2-0.7c0.1-0.2,0.3-0.4,0.5-0.5
	c0.2-0.1,0.5-0.2,0.8-0.2c0.3-0.1,0.7-0.1,1-0.1H69h0.3c0-0.2,0-0.4,0-0.5c0-0.3,0-0.5-0.2-0.8c-0.2-0.2-0.5-0.3-0.8-0.2
	c-0.1,0-0.2,0-0.4,0c-0.1,0-0.3,0-0.4,0.1c-0.1,0-0.3,0.1-0.4,0.1c-0.1,0-0.2,0.1-0.3,0.2L66.6,90.2z M68,94.2c0.2,0,0.3,0,0.5-0.1
	c0.1,0,0.3-0.1,0.4-0.2c0.1-0.1,0.2-0.2,0.3-0.2c0.1-0.1,0.1-0.2,0.2-0.3v-0.8H69h-0.3c-0.2,0-0.4,0-0.6,0c-0.2,0-0.3,0.1-0.5,0.1
	c-0.1,0.1-0.3,0.1-0.4,0.3c-0.1,0.1-0.1,0.3-0.1,0.4c0,0.2,0.1,0.4,0.2,0.6C67.5,94.1,67.8,94.2,68,94.2L68,94.2z"/>
<path class="st0" d="M70.9,89.8h0.8v-1l0.8-0.2v1.2h1.3v0.7h-1.3v2.7c0,0.2,0,0.5,0.1,0.7c0.1,0.2,0.3,0.2,0.4,0.2
	c0.1,0,0.3,0,0.4-0.1l0.4-0.1l0.2,0.6c-0.2,0.1-0.4,0.2-0.6,0.2c-0.2,0.1-0.5,0.1-0.7,0.1c-0.3,0-0.6-0.1-0.8-0.3
	c-0.2-0.3-0.3-0.7-0.2-1.1v-2.9h-0.8L70.9,89.8z"/>
<path class="st0" d="M74.5,92.3c0-0.7,0.2-1.4,0.6-1.9c0.4-0.5,1-0.7,1.6-0.7c0.3,0,0.7,0,1,0.2c0.3,0.1,0.5,0.3,0.7,0.5
	c0.2,0.2,0.3,0.5,0.4,0.8c0.1,0.3,0.1,0.7,0.1,1.1c0.1,0.7-0.1,1.4-0.6,1.9c-0.4,0.5-1,0.7-1.6,0.7c-0.3,0-0.7-0.1-1-0.2
	c-0.3-0.1-0.5-0.3-0.7-0.5c-0.2-0.2-0.3-0.5-0.4-0.8C74.6,93,74.5,92.7,74.5,92.3z M75.3,92.3c0,0.2,0,0.5,0.1,0.7
	c0,0.2,0.1,0.4,0.2,0.6c0.1,0.2,0.2,0.3,0.4,0.4c0.2,0.1,0.4,0.2,0.6,0.2c0.9,0,1.3-0.6,1.3-1.9c0-0.2,0-0.5-0.1-0.7
	c0-0.2-0.1-0.4-0.2-0.6c-0.1-0.2-0.2-0.3-0.4-0.4c-0.2-0.1-0.4-0.2-0.6-0.2C75.8,90.4,75.3,91,75.3,92.3z"/>
<path class="st0" d="M82.4,90.6c-0.2-0.1-0.4-0.1-0.6-0.1c-0.2,0-0.5,0.1-0.7,0.2c-0.2,0.2-0.3,0.4-0.3,0.6v3.5h-0.8v-4.9h0.6
	l0.2,0.6l0,0c0.1-0.2,0.3-0.4,0.4-0.5c0.2-0.1,0.4-0.2,0.7-0.2c0.2,0,0.4,0,0.7,0.1L82.4,90.6z"/>
<path class="st0" d="M85.6,93.4c0-0.2-0.1-0.3-0.2-0.5c-0.1-0.1-0.3-0.2-0.4-0.3c-0.2-0.1-0.4-0.2-0.6-0.2c-0.2-0.1-0.4-0.2-0.6-0.3
	c-0.2-0.1-0.3-0.2-0.4-0.4c-0.1-0.2-0.2-0.4-0.2-0.7c0-0.4,0.1-0.7,0.4-1c0.3-0.2,0.7-0.4,1.1-0.3c0.3,0,0.6,0,0.9,0.1
	c0.2,0.1,0.4,0.1,0.6,0.2l-0.2,0.7c-0.2-0.1-0.4-0.2-0.5-0.2c-0.2-0.1-0.5-0.1-0.7-0.1c-0.2,0-0.4,0-0.6,0.2
	c-0.1,0.1-0.2,0.3-0.2,0.5c0,0.2,0.1,0.3,0.2,0.4c0.1,0.1,0.3,0.2,0.4,0.3c0.2,0.1,0.4,0.2,0.6,0.2c0.2,0.1,0.4,0.2,0.6,0.3
	c0.2,0.1,0.3,0.3,0.4,0.4c0.1,0.2,0.2,0.5,0.2,0.7c0,0.2,0,0.4-0.1,0.6c-0.1,0.2-0.2,0.3-0.3,0.5c-0.2,0.1-0.3,0.2-0.5,0.3
	c-0.2,0.1-0.5,0.1-0.8,0.1c-0.3,0-0.7,0-1-0.1c-0.2-0.1-0.5-0.1-0.7-0.3l0.2-0.7c0.2,0.1,0.4,0.2,0.6,0.2c0.2,0.1,0.5,0.1,0.7,0.1
	c0.2,0,0.5,0,0.7-0.2C85.5,93.9,85.7,93.7,85.6,93.4z"/>
<path class="st0" d="M89.9,91.6h4.2v0.7h-4.2V91.6z"/>
<path class="st0" d="M97.9,87.9c0.3-0.1,0.5-0.1,0.8-0.1c0.3,0,0.6,0,0.9,0c0.3,0,0.6,0,0.9,0.1c0.3,0.1,0.6,0.2,0.8,0.3
	c0.3,0.2,0.5,0.4,0.6,0.7c0.2,0.3,0.3,0.7,0.2,1.1c0,0.4-0.1,0.7-0.2,1.1c-0.1,0.3-0.4,0.5-0.6,0.7c-0.3,0.2-0.6,0.3-0.9,0.4
	c-0.3,0.1-0.7,0.1-1,0.1h-0.7h-0.2v2.6h-0.8L97.9,87.9z M99.6,88.5h-0.5c-0.1,0-0.2,0-0.4,0.1v2.9h0.2h0.6c0.2,0,0.4,0,0.7-0.1
	c0.2,0,0.4-0.1,0.6-0.2c0.2-0.1,0.3-0.3,0.4-0.5c0.1-0.2,0.2-0.5,0.2-0.8c0-0.2,0-0.5-0.2-0.7c-0.1-0.2-0.2-0.3-0.4-0.4
	c-0.2-0.1-0.4-0.2-0.6-0.2C100,88.5,99.8,88.5,99.6,88.5z"/>
<path class="st0" d="M107,89.4c0,0.4-0.1,0.7-0.2,1.1c-0.1,0.4-0.3,0.8-0.5,1.1c-0.2,0.4-0.4,0.7-0.7,1.1c-0.2,0.3-0.5,0.7-0.8,1
	l-0.5,0.4l0,0L105,94h2.2v0.7h-3.9v-0.3l0.5-0.6c0.2-0.2,0.4-0.5,0.6-0.8c0.2-0.3,0.4-0.6,0.7-0.9c0.2-0.3,0.4-0.6,0.6-0.9
	c0.2-0.3,0.3-0.6,0.4-0.9c0.1-0.3,0.2-0.6,0.2-0.9c0-0.3-0.1-0.6-0.3-0.8c-0.2-0.2-0.5-0.4-0.8-0.3c-0.3,0-0.5,0.1-0.7,0.2
	c-0.2,0.1-0.4,0.2-0.6,0.3l-0.3-0.6c0.2-0.2,0.5-0.4,0.8-0.5c0.3-0.1,0.7-0.2,1-0.2c0.3,0,0.5,0,0.8,0.1c0.2,0.1,0.4,0.2,0.6,0.3
	c0.2,0.2,0.3,0.3,0.3,0.5C107,88.9,107,89.2,107,89.4z"/>
<path class="st0" d="M108.8,87.9c0.3-0.1,0.5-0.1,0.8-0.1c0.3,0,0.6,0,0.9,0c0.3,0,0.6,0,0.9,0.1c0.3,0.1,0.6,0.2,0.8,0.3
	c0.3,0.2,0.5,0.4,0.6,0.7c0.2,0.3,0.3,0.7,0.2,1.1c0,0.4-0.1,0.7-0.2,1.1c-0.1,0.3-0.4,0.5-0.6,0.7c-0.3,0.2-0.6,0.3-0.9,0.4
	c-0.3,0.1-0.7,0.1-1,0.1h-0.7h-0.2v2.6h-0.8L108.8,87.9z M110.5,88.5H110c-0.1,0-0.2,0-0.4,0.1v2.9h0.2h0.6c0.2,0,0.4,0,0.7-0.1
	c0.2,0,0.4-0.1,0.6-0.2c0.2-0.1,0.3-0.3,0.4-0.5c0.1-0.2,0.2-0.5,0.2-0.8c0-0.2,0-0.5-0.2-0.7c-0.1-0.2-0.2-0.3-0.4-0.4
	c-0.2-0.1-0.4-0.2-0.6-0.2C110.9,88.5,110.7,88.5,110.5,88.5z"/>
<path class="st1" d="M83.4,73.6v2.8c0,1-0.8,1.8-1.8,1.8H64.2c-1,0-1.8-0.8-1.8-1.8V42.8c0-1,0.8-1.8,1.8-1.8h17.4
	c1,0,1.8,0.8,1.8,1.8c0,0,0,0,0,0v25.7"/>
<path class="st1" d="M65.8,63v9.3c-0.1,0.8,0.5,1.6,1.4,1.6c0,0,0.1,0,0.1,0h11.2c0.8,0,1.5-0.7,1.5-1.5c0,0,0,0,0-0.1V46.8
	c0-0.8-0.6-1.5-1.5-1.6c0,0,0,0,0,0h-3L75,46.5h-4.3l-0.4-1.3h-3c-0.8,0-1.5,0.7-1.5,1.6c0,0,0,0,0,0v12.7"/>
<path class="st1" d="M61,33.5c-1.6,0.5-3.1,1.4-4.2,2.6c-1.2,1.1-2.1,2.6-2.6,4.2"/>
<path class="st1" d="M59.7,29c-2.4,0.8-4.6,2.2-6.3,4c-1.8,1.7-3.1,3.8-3.9,6.1"/>
<path class="st1" d="M54.1,40.3c0.5-1.6,1.4-3,2.6-4.2c1.2-1.2,2.7-2.1,4.3-2.6"/>
<path class="st1" d="M58.2,23.4c-3.4,1.1-6.5,3-9,5.6c-2.5,2.4-4.3,5.3-5.4,8.6"/>
<path class="st1" d="M49.5,39.1c0.8-2.3,2.1-4.4,3.9-6.1c1.8-1.8,3.9-3.2,6.3-4"/>
</svg>
