<svg xmlns="http://www.w3.org/2000/svg" viewBox="0 0 130 130"><defs><style>.a{fill:#ffe161;}.b{fill:none;stroke:#1eb9d5;stroke-linecap:round;stroke-linejoin:round;stroke-width:2px;}</style></defs><title>globe10</title><path class="a" d="M30.57,86.49l.1-1h-.05l-.37,1-1.8,3.12H28.2l-1.91-3.13-.35-.94h-.05l.14,1v4.65h-.77V84.22h.61L28,87.75l.33.77h0l.31-.79,2.06-3.51h.64v6.91h-.82Z"/><path class="a" d="M32.72,88.66a2.88,2.88,0,0,1,.56-1.92,2,2,0,0,1,1.6-.67,2.27,2.27,0,0,1,1,.19,1.71,1.71,0,0,1,.67.52,2.33,2.33,0,0,1,.4.82,4.33,4.33,0,0,1,.13,1.06,2.91,2.91,0,0,1-.56,1.92,2,2,0,0,1-1.61.67,2.35,2.35,0,0,1-1-.18,1.77,1.77,0,0,1-.68-.52,2.23,2.23,0,0,1-.39-.82A4,4,0,0,1,32.72,88.66Zm.82,0a3.38,3.38,0,0,0,.07.72,2.09,2.09,0,0,0,.23.61,1.27,1.27,0,0,0,.42.41,1.12,1.12,0,0,0,.62.16c.9,0,1.35-.63,1.35-1.9a3.47,3.47,0,0,0-.08-.73,2,2,0,0,0-.23-.6,1.16,1.16,0,0,0-1-.56C34,86.76,33.54,87.39,33.54,88.66Z"/><path class="a" d="M41.46,91.13V88.32a2.36,2.36,0,0,0-.22-1.16.85.85,0,0,0-.81-.39,1.32,1.32,0,0,0-.87.28,1.43,1.43,0,0,0-.48.7v3.38h-.79V86.19h.55l.15.6h0a1.73,1.73,0,0,1,.64-.51,2,2,0,0,1,.95-.21,2.28,2.28,0,0,1,.72.1,1,1,0,0,1,.5.33,1.53,1.53,0,0,1,.31.64,4,4,0,0,1,.1,1v3Z"/><path class="a" d="M47.3,90.74a2.05,2.05,0,0,1-.74.37,3,3,0,0,1-1,.14,2.4,2.4,0,0,1-1-.18,1.8,1.8,0,0,1-.69-.52,2.31,2.31,0,0,1-.39-.82,3.92,3.92,0,0,1-.13-1.07A2.91,2.91,0,0,1,44,86.74a2,2,0,0,1,1.61-.67,3.16,3.16,0,0,1,.68.08,1.5,1.5,0,0,1,.6.28,1.42,1.42,0,0,1,.43.59,2.37,2.37,0,0,1,.17,1,4.76,4.76,0,0,1-.06.72H44.24a3,3,0,0,0,.09.77,1.39,1.39,0,0,0,.28.57,1.14,1.14,0,0,0,.49.36,2,2,0,0,0,.73.12,1.93,1.93,0,0,0,.67-.12,1.34,1.34,0,0,0,.51-.28Zm-1.7-4a1.39,1.39,0,0,0-.93.3,1.6,1.6,0,0,0-.42,1.05H46.7a1.47,1.47,0,0,0-.29-1.05A1.06,1.06,0,0,0,45.6,86.77Z"/><path class="a" d="M50,89.39l.28,1h0l.22-1,1-3.19h.79l-1.47,4.44-.33.94a6.14,6.14,0,0,1-.36.81,2.2,2.2,0,0,1-.44.57.88.88,0,0,1-.58.21,1.4,1.4,0,0,1-.58-.1l.14-.68a.63.63,0,0,0,.78-.24,2.42,2.42,0,0,0,.42-1l-2-4.94h.91Z"/><path class="a" d="M59.63,85H57.47v6.18h-.82V85H54.5v-.73h5.13Z"/><path class="a" d="M61.86,87a2,2,0,0,0-.56-.1.92.92,0,0,0-.67.24,1,1,0,0,0-.31.58v3.46h-.79V86.19h.55l.15.6h0a1.62,1.62,0,0,1,.45-.51,1.09,1.09,0,0,1,.67-.19,2.71,2.71,0,0,1,.64.1Z"/><path class="a" d="M62.81,86.56a2.79,2.79,0,0,1,.88-.34,5,5,0,0,1,1-.11,2.05,2.05,0,0,1,.82.14,1.1,1.1,0,0,1,.69.85,2.46,2.46,0,0,1,.06.53c0,.4,0,.79,0,1.16s0,.73,0,1.07,0,.47,0,.69a3.38,3.38,0,0,0,.11.6H65.8l-.21-.69h0a2.61,2.61,0,0,1-.22.27A1.4,1.4,0,0,1,65,91a1.68,1.68,0,0,1-.43.17,2,2,0,0,1-.56.07,1.63,1.63,0,0,1-.59-.1,1.31,1.31,0,0,1-.47-.28,1.25,1.25,0,0,1-.31-.44,1.34,1.34,0,0,1-.12-.58,1.39,1.39,0,0,1,.18-.73,1.31,1.31,0,0,1,.5-.46,2.4,2.4,0,0,1,.77-.25,6.11,6.11,0,0,1,1-.07h.27a1.23,1.23,0,0,1,.27,0q0-.3,0-.54a1,1,0,0,0-.22-.76,1.13,1.13,0,0,0-.79-.22l-.36,0-.4.07-.38.11-.32.15Zm1.4,4a1.55,1.55,0,0,0,.5-.07,1.6,1.6,0,0,0,.37-.19,1.31,1.31,0,0,0,.27-.25,1.49,1.49,0,0,0,.15-.27v-.82l-.28,0h-.28a5.74,5.74,0,0,0-.6,0,2.32,2.32,0,0,0-.52.13,1,1,0,0,0-.35.26.64.64,0,0,0-.14.41.76.76,0,0,0,.25.57A.91.91,0,0,0,64.21,90.52Z"/><path class="a" d="M71,91.13V88.32a2.36,2.36,0,0,0-.22-1.16.85.85,0,0,0-.81-.39,1.32,1.32,0,0,0-.87.28,1.43,1.43,0,0,0-.48.7v3.38h-.79V86.19h.55l.15.6h0a1.73,1.73,0,0,1,.64-.51,2,2,0,0,1,1-.21,2.28,2.28,0,0,1,.72.1,1,1,0,0,1,.5.33,1.53,1.53,0,0,1,.31.64,4,4,0,0,1,.1,1v3Z"/><path class="a" d="M75.37,89.79a.63.63,0,0,0-.18-.47,1.58,1.58,0,0,0-.44-.28,5.29,5.29,0,0,0-.57-.21,2.5,2.5,0,0,1-.57-.27,1.47,1.47,0,0,1-.44-.42,1.18,1.18,0,0,1-.18-.69,1.29,1.29,0,0,1,.4-1,1.75,1.75,0,0,1,1.13-.33,3.29,3.29,0,0,1,.9.1,2.79,2.79,0,0,1,.62.22l-.18.65a4.37,4.37,0,0,0-.55-.19,2.61,2.61,0,0,0-.69-.08,1.11,1.11,0,0,0-.64.14.62.62,0,0,0-.2.52.49.49,0,0,0,.18.4,1.82,1.82,0,0,0,.44.25c.17.08.36.15.57.23a2.16,2.16,0,0,1,.57.28A1.45,1.45,0,0,1,76,89a1.28,1.28,0,0,1,.18.72,1.63,1.63,0,0,1-.1.59,1.23,1.23,0,0,1-.32.48,1.78,1.78,0,0,1-.54.31,2.49,2.49,0,0,1-.76.11,3.43,3.43,0,0,1-1-.11,2.94,2.94,0,0,1-.66-.25l.24-.68a2.57,2.57,0,0,0,.59.24,2.71,2.71,0,0,0,.74.11,1.32,1.32,0,0,0,.7-.17A.63.63,0,0,0,75.37,89.79Z"/><path class="a" d="M80.25,91.13V88.34a6.73,6.73,0,0,0,0-.69,1.59,1.59,0,0,0-.13-.49.7.7,0,0,0-.29-.3,1.23,1.23,0,0,0-1.23.18,1.54,1.54,0,0,0-.42.69v3.4h-.79V86.19h.55l.15.6h0a2.17,2.17,0,0,1,.62-.51,1.75,1.75,0,0,1,.91-.21,1.41,1.41,0,0,1,.78.19,1.22,1.22,0,0,1,.47.63,1.7,1.7,0,0,1,.62-.6,1.94,1.94,0,0,1,.91-.22,2.07,2.07,0,0,1,.7.1.92.92,0,0,1,.47.33,1.51,1.51,0,0,1,.28.64,5.74,5.74,0,0,1,.08,1v3h-.79v-3a3.79,3.79,0,0,0,0-.62,1,1,0,0,0-.13-.43.66.66,0,0,0-.29-.26,1.09,1.09,0,0,0-.48-.08,1,1,0,0,0-.77.27,1.69,1.69,0,0,0-.4.79v3.3Z"/><path class="a" d="M85.38,84.69a.53.53,0,0,1,.16-.39.5.5,0,0,1,.39-.16.55.55,0,0,1,.4.16.54.54,0,0,1,.17.39.5.5,0,0,1-.17.38.63.63,0,0,1-.4.14.56.56,0,0,1-.39-.14A.49.49,0,0,1,85.38,84.69Zm.17,1.5h.79v4.94h-.79Z"/><path class="a" d="M87.38,86.19h.77v-1l.79-.22v1.2h1.34v.69H88.94v2.74a1.46,1.46,0,0,0,.13.73.46.46,0,0,0,.43.21,1.78,1.78,0,0,0,.44,0l.39-.15.18.61a3.3,3.3,0,0,1-.58.2,2.49,2.49,0,0,1-.68.08,1,1,0,0,1-.85-.34,2,2,0,0,1-.25-1.14V86.88h-.77Z"/><path class="a" d="M90.73,86.19h.77v-1l.79-.22v1.2h1.34v.69H92.29v2.74a1.46,1.46,0,0,0,.13.73.46.46,0,0,0,.43.21,1.78,1.78,0,0,0,.44,0l.39-.15.18.61a3.3,3.3,0,0,1-.58.2,2.49,2.49,0,0,1-.68.08,1,1,0,0,1-.85-.34,2,2,0,0,1-.25-1.14V86.88h-.77Z"/><path class="a" d="M98.23,90.74a2.19,2.19,0,0,1-.75.37,3,3,0,0,1-1,.14,2.45,2.45,0,0,1-1-.18,1.85,1.85,0,0,1-.68-.52,2.33,2.33,0,0,1-.4-.82,4.38,4.38,0,0,1-.12-1.07,2.86,2.86,0,0,1,.56-1.92,2,2,0,0,1,1.61-.67,3.07,3.07,0,0,1,.67.08,1.48,1.48,0,0,1,.61.28,1.51,1.51,0,0,1,.43.59,2.53,2.53,0,0,1,.17,1,4.76,4.76,0,0,1-.06.72H95.17a3,3,0,0,0,.09.77,1.37,1.37,0,0,0,.27.57,1.28,1.28,0,0,0,.49.36,2,2,0,0,0,.74.12,2,2,0,0,0,.67-.12,1.37,1.37,0,0,0,.5-.28Zm-1.7-4a1.37,1.37,0,0,0-.93.3,1.51,1.51,0,0,0-.42,1.05h2.45a1.52,1.52,0,0,0-.29-1.05A1.06,1.06,0,0,0,96.53,86.77Z"/><path class="a" d="M102,87a2,2,0,0,0-.57-.1.92.92,0,0,0-.67.24,1,1,0,0,0-.31.58v3.46h-.79V86.19h.56l.14.6h0a1.62,1.62,0,0,1,.45-.51,1.11,1.11,0,0,1,.67-.19,2.64,2.64,0,0,1,.64.1Z"/><path class="a" d="M105.18,89.79a.63.63,0,0,0-.18-.47,1.75,1.75,0,0,0-.44-.28c-.17-.07-.37-.15-.57-.21a2.8,2.8,0,0,1-.58-.27,1.6,1.6,0,0,1-.44-.42,1.26,1.26,0,0,1-.17-.69,1.29,1.29,0,0,1,.4-1,1.75,1.75,0,0,1,1.13-.33,3.26,3.26,0,0,1,.89.1,3.09,3.09,0,0,1,.63.22l-.19.65a3.48,3.48,0,0,0-.55-.19,2.49,2.49,0,0,0-.68-.08,1.08,1.08,0,0,0-.64.14.59.59,0,0,0-.2.52.51.51,0,0,0,.17.4,2,2,0,0,0,.44.25l.58.23a2.32,2.32,0,0,1,.57.28,1.71,1.71,0,0,1,.44.45,1.28,1.28,0,0,1,.18.72,1.63,1.63,0,0,1-.11.59,1,1,0,0,1-.32.48,1.56,1.56,0,0,1-.54.31,2.37,2.37,0,0,1-.75.11,3.33,3.33,0,0,1-1-.11,2.94,2.94,0,0,1-.66-.25l.23-.68a3,3,0,0,0,1.34.35,1.34,1.34,0,0,0,.7-.17A.63.63,0,0,0,105.18,89.79Z"/><path class="b" d="M40.9,42.36l17.68-5.62a24,24,0,0,1,14.87.11l16.47,5.51Z"/><line class="b" x1="46.66" y1="64.99" x2="46.66" y2="42.77"/><line class="b" x1="84.13" y1="64.99" x2="84.13" y2="42.77"/><polyline class="b" points="53.89 69.18 45.24 69.18 45.24 64.98 85.58 64.98 85.58 69.18 59.87 69.18"/><polyline class="b" points="77.5 53.25 77.5 47.82 52.66 47.82 52.66 64.94 77.5 64.94 77.5 58.49"/></svg>