<svg xmlns="http://www.w3.org/2000/svg" viewBox="0 0 150.05 112.67"><defs><style>.a{fill:#ffe161;}.b{fill:none;stroke:#1eb9d5;stroke-linecap:round;stroke-linejoin:round;stroke-width:2px;}</style></defs><title>Asset 7</title><path class="a" d="M0,97.62c.43-.08.92-.14,1.47-.19s1.07-.07,1.53-.07a6.3,6.3,0,0,1,1.47.17,3.42,3.42,0,0,1,1.24.56,2.91,2.91,0,0,1,.85,1,3.35,3.35,0,0,1,.32,1.52,3.28,3.28,0,0,1-.76,2.24A3.7,3.7,0,0,1,4.2,104l.81.63,2.93,4.67H6.3l-3.25-5.09L1.4,104v5.35H0Zm3,1H2.12l-.41,0a1.82,1.82,0,0,0-.31.05V103H2.71a3.08,3.08,0,0,0,1.93-.58,2.09,2.09,0,0,0,.75-1.78,2,2,0,0,0-.62-1.5A2.4,2.4,0,0,0,3,98.58Z"/><path class="a" d="M15.24,108.62a3.7,3.7,0,0,1-1.27.64,5.5,5.5,0,0,1-1.63.24,4.08,4.08,0,0,1-1.67-.31,3,3,0,0,1-1.16-.9,3.76,3.76,0,0,1-.68-1.39,7.2,7.2,0,0,1-.22-1.82,4.92,4.92,0,0,1,1-3.28,3.39,3.39,0,0,1,2.75-1.13,5.62,5.62,0,0,1,1.15.12,2.78,2.78,0,0,1,1,.48,2.56,2.56,0,0,1,.74,1,4.3,4.3,0,0,1,.28,1.71,8,8,0,0,1-.1,1.23H10a5.19,5.19,0,0,0,.15,1.31,2.52,2.52,0,0,0,.48,1,2,2,0,0,0,.83.61,3.32,3.32,0,0,0,1.26.21,3.51,3.51,0,0,0,1.14-.2,2.53,2.53,0,0,0,.86-.47Zm-2.9-6.77a2.31,2.31,0,0,0-1.59.52,2.61,2.61,0,0,0-.72,1.79h4.18a2.57,2.57,0,0,0-.49-1.8A1.83,1.83,0,0,0,12.34,101.85Z"/><path class="a" d="M16.54,100.87h1.31V99.2l1.35-.39v2.06h2.29v1.18H19.2v4.67a2.51,2.51,0,0,0,.22,1.24.79.79,0,0,0,.74.36,2.63,2.63,0,0,0,.74-.09c.2-.06.43-.15.68-.25l.3,1a4.92,4.92,0,0,1-1,.36,5.21,5.21,0,0,1-1.16.13,1.67,1.67,0,0,1-1.45-.58,3.44,3.44,0,0,1-.42-2v-4.92H16.54Z"/><path class="a" d="M23.23,101.49a4.63,4.63,0,0,1,1.49-.57,8.59,8.59,0,0,1,1.78-.19,3.51,3.51,0,0,1,1.41.24,1.89,1.89,0,0,1,.8.62,2.16,2.16,0,0,1,.38.83,4.68,4.68,0,0,1,.09.91c0,.67,0,1.33-.05,2s-.05,1.25-.05,1.82a11,11,0,0,0,.05,1.18,5.26,5.26,0,0,0,.18,1h-1L28,108.15h-.08a3.13,3.13,0,0,1-.38.47,2.36,2.36,0,0,1-.55.4,2.93,2.93,0,0,1-.74.29,3.5,3.5,0,0,1-1,.12,2.73,2.73,0,0,1-1-.17,2.22,2.22,0,0,1-.8-.48,1.93,1.93,0,0,1-.53-.75,2.4,2.4,0,0,1-.2-1A2.26,2.26,0,0,1,23,105.8a2.1,2.1,0,0,1,.85-.79,4,4,0,0,1,1.31-.42,9.87,9.87,0,0,1,1.7-.13h.46a3.55,3.55,0,0,1,.46,0,7.54,7.54,0,0,0,.05-.91,1.78,1.78,0,0,0-.37-1.29,1.86,1.86,0,0,0-1.35-.38,4.55,4.55,0,0,0-.61,0l-.68.12a5.54,5.54,0,0,0-.65.19,4.08,4.08,0,0,0-.55.25Zm2.39,6.76a2.66,2.66,0,0,0,.84-.12,2.55,2.55,0,0,0,.64-.32,2.32,2.32,0,0,0,.45-.43,1.67,1.67,0,0,0,.26-.46v-1.4l-.48,0h-.48a8.47,8.47,0,0,0-1,.06,3.08,3.08,0,0,0-.87.22,1.46,1.46,0,0,0-.61.43,1.09,1.09,0,0,0-.23.7,1.24,1.24,0,0,0,.42,1A1.52,1.52,0,0,0,25.62,108.25Z"/><path class="a" d="M31.72,98.31a1,1,0,0,1,.26-.67.91.91,0,0,1,.67-.28,1,1,0,0,1,.69.28.92.92,0,0,1,.29.67.82.82,0,0,1-.29.64,1,1,0,0,1-.69.25A.93.93,0,0,1,32,99,.87.87,0,0,1,31.72,98.31Zm.29,2.56h1.35v8.43H32Z"/><path class="a" d="M37.74,107.22a1.41,1.41,0,0,0,.2.85.7.7,0,0,0,.58.25l.47,0a3.12,3.12,0,0,0,.57-.16l.15,1.07a3,3,0,0,1-.75.22,5.6,5.6,0,0,1-.83.08,1.81,1.81,0,0,1-1.25-.43,1.89,1.89,0,0,1-.49-1.46V97.5h1.35Z"/><path class="a" d="M51.12,106.3a1.64,1.64,0,0,0-.42-1.16,4.13,4.13,0,0,0-1.05-.79,13.42,13.42,0,0,0-1.37-.65A7.53,7.53,0,0,1,46.9,103a3.92,3.92,0,0,1-1-1.06,2.85,2.85,0,0,1-.42-1.61,2.72,2.72,0,0,1,1-2.2,4.17,4.17,0,0,1,2.73-.8,10.73,10.73,0,0,1,1.87.15,4.79,4.79,0,0,1,1.31.39l-.42,1.24a5,5,0,0,0-1.13-.36,7.33,7.33,0,0,0-1.7-.18,2.45,2.45,0,0,0-1.67.5,1.58,1.58,0,0,0-.13,2.27,4.35,4.35,0,0,0,1,.78c.42.23.88.46,1.37.68a8.4,8.4,0,0,1,1.38.79,4.11,4.11,0,0,1,1.05,1.07,2.7,2.7,0,0,1,.42,1.55,3.27,3.27,0,0,1-.27,1.36,2.81,2.81,0,0,1-.79,1,3.62,3.62,0,0,1-1.26.67,5.52,5.52,0,0,1-1.69.24,9.36,9.36,0,0,1-2.09-.19,6.08,6.08,0,0,1-1.28-.43l.47-1.25a5.72,5.72,0,0,0,1.15.42,6.78,6.78,0,0,0,1.7.2,4.45,4.45,0,0,0,1-.11,2.44,2.44,0,0,0,.84-.35,1.75,1.75,0,0,0,.56-.62A1.72,1.72,0,0,0,51.12,106.3Z"/><path class="a" d="M60,109.3v-4.81a7.88,7.88,0,0,0-.07-1.15,2.14,2.14,0,0,0-.28-.83,1.24,1.24,0,0,0-.55-.49,2,2,0,0,0-.9-.17,2.22,2.22,0,0,0-1.43.51,2.35,2.35,0,0,0-.83,1.32v5.62H54.61V97.5H56v4.31H56a3.42,3.42,0,0,1,1-.83,3.34,3.34,0,0,1,1.53-.31,4.12,4.12,0,0,1,1.23.16,1.76,1.76,0,0,1,.87.56,2.45,2.45,0,0,1,.5,1.09,7.54,7.54,0,0,1,.16,1.73v5.09Z"/><path class="a" d="M63.36,105.08a5,5,0,0,1,1-3.27,3.38,3.38,0,0,1,2.74-1.14,4,4,0,0,1,1.65.31,3.08,3.08,0,0,1,1.15.89,4.06,4.06,0,0,1,.68,1.4,7.3,7.3,0,0,1,.22,1.81,5,5,0,0,1-1,3.28,3.36,3.36,0,0,1-2.74,1.14,4,4,0,0,1-1.64-.31,2.93,2.93,0,0,1-1.15-.9,3.76,3.76,0,0,1-.68-1.39A6.88,6.88,0,0,1,63.36,105.08Zm1.4,0a5.46,5.46,0,0,0,.13,1.23,3.07,3.07,0,0,0,.39,1,2.19,2.19,0,0,0,.71.71,2,2,0,0,0,1.06.27c1.53,0,2.3-1.07,2.3-3.24a6.2,6.2,0,0,0-.13-1.24,3.08,3.08,0,0,0-.4-1,1.94,1.94,0,0,0-1.77-1C65.52,101.84,64.76,102.91,64.76,105.08Z"/><path class="a" d="M72.87,100.87h.93l.25,1h.07a2.55,2.55,0,0,1,1-.9,3,3,0,0,1,1.41-.31,3.09,3.09,0,0,1,2.51,1,5.1,5.1,0,0,1,.82,3.25,6.36,6.36,0,0,1-.27,1.92,4.16,4.16,0,0,1-.79,1.44,3.43,3.43,0,0,1-1.22.91,3.93,3.93,0,0,1-1.59.32,5,5,0,0,1-1-.08,3.56,3.56,0,0,1-.78-.26v3.51H72.87Zm3.4,1a2,2,0,0,0-1.35.44,2.42,2.42,0,0,0-.7,1.36v4.18a2.06,2.06,0,0,0,.69.36,3.23,3.23,0,0,0,1,.13,2.21,2.21,0,0,0,1.84-.87,4,4,0,0,0,.68-2.55,6.16,6.16,0,0,0-.11-1.26,3,3,0,0,0-.38-1,1.81,1.81,0,0,0-.68-.61A2.08,2.08,0,0,0,76.27,101.85Z"/><path class="a" d="M85.7,107a1.06,1.06,0,0,0-.31-.8,2.55,2.55,0,0,0-.75-.48c-.3-.13-.62-.25-1-.37a4.8,4.8,0,0,1-1-.45,2.57,2.57,0,0,1-.75-.72,2,2,0,0,1-.31-1.18,2.17,2.17,0,0,1,.69-1.78,3,3,0,0,1,1.93-.56,6,6,0,0,1,1.52.16,5.12,5.12,0,0,1,1.07.38l-.32,1.11a6.19,6.19,0,0,0-.93-.33,4.49,4.49,0,0,0-1.18-.14,1.83,1.83,0,0,0-1.08.25A1,1,0,0,0,83,103a.81.81,0,0,0,.31.68,3.3,3.3,0,0,0,.75.44c.29.13.62.25,1,.38a3.75,3.75,0,0,1,1,.49,2.59,2.59,0,0,1,.75.76A2.23,2.23,0,0,1,87,107a3.12,3.12,0,0,1-.17,1,2,2,0,0,1-.55.8,2.6,2.6,0,0,1-.92.54,3.81,3.81,0,0,1-1.29.19,5.93,5.93,0,0,1-1.63-.19,5.35,5.35,0,0,1-1.13-.43l.4-1.15a4.71,4.71,0,0,0,1,.4,4.25,4.25,0,0,0,1.27.19,2.25,2.25,0,0,0,1.19-.29A1.09,1.09,0,0,0,85.7,107Z"/><path class="a" d="M97.81,97.3l1.07.47-6.16,13.89-1.06-.47Z"/><path class="a" d="M111.74,108.81a3,3,0,0,1-1.28.54,8.73,8.73,0,0,1-1.65.15,5.41,5.41,0,0,1-2-.36A4.27,4.27,0,0,1,105.2,108a5.27,5.27,0,0,1-1.1-1.89,8.33,8.33,0,0,1-.4-2.74,8,8,0,0,1,.44-2.81,5.54,5.54,0,0,1,1.18-1.89A4.6,4.6,0,0,1,107,97.63a5.35,5.35,0,0,1,1.85-.33,9.28,9.28,0,0,1,1.65.11,5.28,5.28,0,0,1,1.1.29L111.23,99a5.28,5.28,0,0,0-2.31-.41,3.82,3.82,0,0,0-1.36.26,3.1,3.1,0,0,0-1.21.82,4.16,4.16,0,0,0-.85,1.5,7.16,7.16,0,0,0-.32,2.28,6.78,6.78,0,0,0,.3,2.12,4.44,4.44,0,0,0,.84,1.52,3.39,3.39,0,0,0,1.25.91,3.94,3.94,0,0,0,1.56.3,5.21,5.21,0,0,0,1.32-.15,3.62,3.62,0,0,0,1-.39Z"/><path class="a" d="M119.09,109.3v-4.81a7.78,7.78,0,0,0-.08-1.15,2.14,2.14,0,0,0-.28-.83,1.22,1.22,0,0,0-.54-.49,2,2,0,0,0-.91-.17,2.26,2.26,0,0,0-1.43.51,2.28,2.28,0,0,0-.82,1.32v5.62h-1.35V97.5H115v4.31h.06a3.46,3.46,0,0,1,1.06-.83,3.29,3.29,0,0,1,1.52-.31,4.12,4.12,0,0,1,1.23.16,1.76,1.76,0,0,1,.87.56,2.57,2.57,0,0,1,.51,1.09,8.14,8.14,0,0,1,.16,1.73v5.09Z"/><path class="a" d="M122.76,101.49a4.82,4.82,0,0,1,1.49-.57,8.59,8.59,0,0,1,1.78-.19,3.44,3.44,0,0,1,1.41.24,2,2,0,0,1,1.18,1.45,4.68,4.68,0,0,1,.09.91c0,.67,0,1.33-.05,2s0,1.25,0,1.82c0,.42,0,.81,0,1.18a6.09,6.09,0,0,0,.19,1h-1l-.35-1.18h-.08a3.92,3.92,0,0,1-.38.47,2.88,2.88,0,0,1-.55.4,3.09,3.09,0,0,1-.74.29,3.5,3.5,0,0,1-1,.12,2.78,2.78,0,0,1-1-.17,2.31,2.31,0,0,1-.8-.48,2.17,2.17,0,0,1-.53-.75,2.4,2.4,0,0,1-.19-1,2.35,2.35,0,0,1,.3-1.24,2.16,2.16,0,0,1,.85-.79,4.1,4.1,0,0,1,1.32-.42,9.75,9.75,0,0,1,1.69-.13h.46a3.71,3.71,0,0,1,.47,0c0-.33.05-.64.05-.91a1.82,1.82,0,0,0-.37-1.29,1.89,1.89,0,0,0-1.35-.38,4.69,4.69,0,0,0-.62,0l-.67.12a6.36,6.36,0,0,0-.66.19,4.08,4.08,0,0,0-.55.25Zm2.4,6.76a2.75,2.75,0,0,0,.84-.12,2.55,2.55,0,0,0,.64-.32,2.32,2.32,0,0,0,.45-.43,2.41,2.41,0,0,0,.26-.46v-1.4l-.48,0h-.48a8.47,8.47,0,0,0-1,.06,3.15,3.15,0,0,0-.88.22,1.6,1.6,0,0,0-.61.43,1.09,1.09,0,0,0-.22.7,1.24,1.24,0,0,0,.42,1A1.52,1.52,0,0,0,125.16,108.25Z"/><path class="a" d="M131.26,98.31a1,1,0,0,1,.26-.67.9.9,0,0,1,.67-.28,1,1,0,0,1,.69.28.91.91,0,0,1,.28.67.81.81,0,0,1-.28.64,1,1,0,0,1-.69.25.91.91,0,0,1-.67-.25A.87.87,0,0,1,131.26,98.31Zm.28,2.56h1.35v8.43h-1.35Z"/><path class="a" d="M141.19,109.3v-4.81a4.16,4.16,0,0,0-.38-2,1.47,1.47,0,0,0-1.39-.66,2.25,2.25,0,0,0-1.48.48,2.57,2.57,0,0,0-.82,1.2v5.77h-1.34v-8.43h.94l.25,1H137a3,3,0,0,1,1.09-.89,3.52,3.52,0,0,1,1.62-.34,4.1,4.1,0,0,1,1.22.16,1.76,1.76,0,0,1,.87.56,2.7,2.7,0,0,1,.52,1.09,7,7,0,0,1,.17,1.73v5.09Z"/><path class="a" d="M148.7,107a1.06,1.06,0,0,0-.3-.8,2.55,2.55,0,0,0-.75-.48c-.3-.13-.62-.25-1-.37a5.15,5.15,0,0,1-1-.45,2.67,2.67,0,0,1-.74-.72,2,2,0,0,1-.31-1.18,2.17,2.17,0,0,1,.69-1.78,3,3,0,0,1,1.92-.56,6,6,0,0,1,1.53.16,5.12,5.12,0,0,1,1.07.38l-.32,1.11a6,6,0,0,0-.94-.33,4.37,4.37,0,0,0-1.17-.14,1.83,1.83,0,0,0-1.08.25,1,1,0,0,0-.35.88.83.83,0,0,0,.3.68,3.8,3.8,0,0,0,.75.44c.3.13.63.25,1,.38a3.91,3.91,0,0,1,1,.49,2.59,2.59,0,0,1,.75.76,2.23,2.23,0,0,1,.3,1.22,3.12,3.12,0,0,1-.17,1,2.12,2.12,0,0,1-.55.8,2.7,2.7,0,0,1-.92.54,3.89,3.89,0,0,1-1.29.19,6,6,0,0,1-1.64-.19,5.58,5.58,0,0,1-1.13-.43l.41-1.15a4.51,4.51,0,0,0,1,.4,4.23,4.23,0,0,0,1.26.19,2.27,2.27,0,0,0,1.2-.29A1.08,1.08,0,0,0,148.7,107Z"/><polygon class="b" points="108.82 9.32 41.46 9.32 45.26 1 105.01 1 108.82 9.32"/><polyline class="b" points="71.15 73.35 41.46 73.35 41.46 20.84"/><polyline class="b" points="108.82 20.84 108.82 73.35 82.98 73.35"/><polyline class="b" points="103.63 19.61 103.63 57.59 46.23 57.59 46.23 18.9"/><path class="b" d="M48.92,14c0,8.62-17.24,8.4-17.24-.27l86,.27c0,8.62-17.24,9.11-17.24.45"/><path class="b" d="M66.21,14.75c0,8.63-17.24,7.69-17.24-1"/><path class="b" d="M83.28,14.75c0,8.63-17.24,8.4-17.24-.26"/><path class="b" d="M100.57,14.75c0,8.63-17.24,8.4-17.24-.26"/><line class="b" x1="31.68" y1="13.77" x2="41.46" y2="9.32"/><line class="b" x1="108.82" y1="9.32" x2="117.68" y2="14.04"/></svg>