<?xml version="1.0" encoding="utf-8"?>
<!-- Generator: Adobe Illustrator 23.0.3, SVG Export Plug-In . SVG Version: 6.00 Build 0)  -->
<svg version="1.1" id="Layer_1" xmlns="http://www.w3.org/2000/svg" xmlns:xlink="http://www.w3.org/1999/xlink" x="0px" y="0px"
	 viewBox="0 0 130 130" style="enable-background:new 0 0 130 130;" xml:space="preserve">
<style type="text/css">
	.st0{fill:#FFFFFF;}
	.st1{fill:none;stroke:#1EB9D5;stroke-width:1.5;stroke-linecap:round;stroke-linejoin:round;}
	.st2{fill:none;stroke:#1EB9D5;stroke-width:1.5;}
	.st3{fill:none;stroke:#FFE161;stroke-width:1.5;stroke-miterlimit:10;}
</style>
<g>
	<path class="st0" d="M48,90.4c-0.3,0.2-0.6,0.4-1.1,0.4S46.1,91,45.6,91c-0.6,0-1.1-0.1-1.7-0.3c-0.5-0.2-1-0.5-1.3-0.9
		c-0.4-0.4-0.7-0.9-0.9-1.6s-0.3-1.4-0.3-2.3c0-0.9,0.1-1.7,0.4-2.3c0.2-0.6,0.6-1.2,1-1.6c0.4-0.4,0.9-0.7,1.4-0.9
		c0.5-0.2,1-0.3,1.5-0.3c0.6,0,1,0,1.4,0.1c0.4,0.1,0.7,0.1,0.9,0.2l-0.3,1c-0.4-0.2-1.1-0.3-1.9-0.3c-0.4,0-0.8,0.1-1.1,0.2
		c-0.4,0.1-0.7,0.4-1,0.7c-0.3,0.3-0.5,0.7-0.7,1.2c-0.2,0.5-0.3,1.1-0.3,1.9c0,0.7,0.1,1.3,0.3,1.8s0.4,0.9,0.7,1.3s0.6,0.6,1,0.8
		c0.4,0.2,0.8,0.3,1.3,0.3c0.4,0,0.8,0,1.1-0.1c0.3-0.1,0.6-0.2,0.8-0.3L48,90.4z"/>
	<path class="st0" d="M52.7,84.9c-0.3-0.1-0.5-0.1-0.8-0.1c-0.4,0-0.7,0.1-1,0.3c-0.2,0.2-0.4,0.5-0.4,0.8v4.9h-1.1v-7h0.8l0.2,0.9
		h0.1c0.2-0.3,0.4-0.6,0.6-0.7c0.2-0.2,0.6-0.3,0.9-0.3c0.3,0,0.6,0,0.9,0.1L52.7,84.9z"/>
	<path class="st0" d="M56.2,88.3l0.4,1.3h0.1l0.3-1.4l1.4-4.5h1.1l-2.1,6.3c-0.2,0.5-0.3,0.9-0.5,1.3c-0.2,0.4-0.3,0.8-0.5,1.1
		c-0.2,0.3-0.4,0.6-0.6,0.8c-0.2,0.2-0.5,0.3-0.8,0.3c-0.3,0-0.6,0-0.8-0.1l0.2-1c0.1,0,0.2,0.1,0.4,0.1c0.3,0,0.5-0.1,0.8-0.4
		s0.4-0.7,0.6-1.4l-2.8-7h1.3L56.2,88.3z"/>
	<path class="st0" d="M60.7,83.8h0.8l0.2,0.8h0.1c0.2-0.3,0.5-0.6,0.8-0.7s0.7-0.3,1.2-0.3c0.9,0,1.6,0.3,2.1,0.8
		c0.5,0.6,0.7,1.5,0.7,2.7c0,0.6-0.1,1.1-0.2,1.6c-0.2,0.5-0.4,0.9-0.7,1.2c-0.3,0.3-0.6,0.6-1,0.8c-0.4,0.2-0.8,0.3-1.3,0.3
		c-0.3,0-0.6,0-0.8-0.1c-0.2,0-0.4-0.1-0.7-0.2v2.9h-1.1V83.8z M63.5,84.6c-0.5,0-0.9,0.1-1.1,0.4c-0.3,0.2-0.5,0.6-0.6,1.1v3.5
		c0.2,0.1,0.4,0.2,0.6,0.3s0.5,0.1,0.9,0.1c0.6,0,1.2-0.2,1.5-0.7c0.4-0.5,0.6-1.2,0.6-2.1c0-0.4,0-0.7-0.1-1
		c-0.1-0.3-0.2-0.6-0.3-0.8c-0.1-0.2-0.3-0.4-0.6-0.5S63.8,84.6,63.5,84.6z"/>
	<path class="st0" d="M67.3,83.8h1.1v-1.4l1.1-0.3v1.7h1.9v1h-1.9v3.9c0,0.5,0.1,0.8,0.2,1c0.1,0.2,0.3,0.3,0.6,0.3
		c0.2,0,0.4,0,0.6-0.1c0.2-0.1,0.4-0.1,0.6-0.2l0.3,0.9c-0.3,0.1-0.5,0.2-0.8,0.3c-0.3,0.1-0.6,0.1-1,0.1c-0.6,0-1-0.2-1.2-0.5
		c-0.2-0.3-0.3-0.9-0.3-1.6v-4.1h-1.1V83.8z"/>
	<path class="st0" d="M72.5,87.3c0-1.2,0.3-2.1,0.8-2.7s1.3-0.9,2.3-0.9c0.5,0,1,0.1,1.4,0.3c0.4,0.2,0.7,0.4,1,0.7s0.4,0.7,0.6,1.2
		s0.2,1,0.2,1.5c0,1.2-0.3,2.1-0.8,2.7S76.5,91,75.5,91c-0.5,0-1-0.1-1.4-0.3s-0.7-0.4-1-0.7s-0.4-0.7-0.6-1.2
		C72.5,88.3,72.5,87.8,72.5,87.3z M73.6,87.3c0,0.4,0,0.7,0.1,1c0.1,0.3,0.2,0.6,0.3,0.9c0.1,0.2,0.3,0.4,0.6,0.6
		c0.2,0.1,0.5,0.2,0.9,0.2c1.3,0,1.9-0.9,1.9-2.7c0-0.4,0-0.7-0.1-1c-0.1-0.3-0.2-0.6-0.3-0.9c-0.1-0.2-0.3-0.4-0.6-0.6
		c-0.2-0.1-0.5-0.2-0.9-0.2C74.3,84.6,73.6,85.5,73.6,87.3z"/>
	<path class="st0" d="M87.6,80.8l0.9,0.4l-5.1,11.5l-0.9-0.4L87.6,80.8z"/>
	<path class="st0" d="M38.9,100c0,0.2,0,0.5-0.1,0.7c-0.1,0.2-0.2,0.5-0.3,0.7s-0.3,0.4-0.6,0.6c-0.2,0.2-0.5,0.3-0.8,0.4v0.1
		c0.3,0,0.5,0.1,0.8,0.2c0.3,0.1,0.5,0.3,0.7,0.5c0.2,0.2,0.4,0.4,0.5,0.7c0.1,0.3,0.2,0.6,0.2,1c0,0.5-0.1,0.9-0.3,1.3
		c-0.2,0.4-0.5,0.7-0.8,0.9s-0.7,0.4-1.2,0.5c-0.4,0.1-0.9,0.2-1.3,0.2c-0.2,0-0.3,0-0.6,0c-0.2,0-0.4,0-0.7,0c-0.2,0-0.5,0-0.7-0.1
		c-0.2,0-0.4-0.1-0.6-0.1v-9.6c0.3-0.1,0.7-0.1,1.2-0.1c0.5,0,1-0.1,1.5-0.1c0.4,0,0.7,0,1.1,0.1c0.4,0.1,0.7,0.2,1,0.4
		c0.3,0.2,0.6,0.4,0.8,0.7S38.9,99.5,38.9,100z M34.9,102.1c0.2,0,0.4,0,0.6,0c0.2,0,0.4,0,0.6,0c0.2-0.1,0.4-0.2,0.6-0.3
		c0.2-0.1,0.4-0.2,0.5-0.4c0.2-0.1,0.3-0.3,0.4-0.5s0.1-0.4,0.1-0.6c0-0.3-0.1-0.6-0.2-0.8c-0.1-0.2-0.3-0.4-0.5-0.5
		c-0.2-0.1-0.4-0.2-0.7-0.3c-0.3-0.1-0.5-0.1-0.8-0.1c-0.3,0-0.6,0-0.8,0c-0.3,0-0.5,0-0.6,0.1v3.3H34.9z M35.6,106.7
		c0.3,0,0.6,0,0.9-0.1c0.3-0.1,0.5-0.2,0.7-0.3s0.4-0.3,0.5-0.6c0.1-0.2,0.2-0.5,0.2-0.8c0-0.4-0.1-0.7-0.2-0.9
		c-0.2-0.2-0.4-0.4-0.6-0.5c-0.2-0.1-0.5-0.2-0.8-0.3c-0.3,0-0.6-0.1-0.9-0.1h-1.2v3.5c0.1,0,0.2,0,0.3,0c0.1,0,0.3,0,0.4,0
		c0.1,0,0.3,0,0.4,0C35.4,106.7,35.5,106.7,35.6,106.7z"/>
	<path class="st0" d="M42.3,105.9c0,0.3,0.1,0.6,0.2,0.7c0.1,0.1,0.3,0.2,0.5,0.2c0.1,0,0.3,0,0.4,0c0.1,0,0.3-0.1,0.5-0.1l0.1,0.9
		c-0.1,0.1-0.4,0.1-0.6,0.2c-0.3,0-0.5,0.1-0.7,0.1c-0.4,0-0.8-0.1-1-0.4c-0.3-0.2-0.4-0.6-0.4-1.2v-8.4h1.1V105.9z"/>
	<path class="st0" d="M44.7,104.1c0-1.2,0.3-2.1,0.8-2.7s1.3-0.9,2.3-0.9c0.5,0,1,0.1,1.4,0.3c0.4,0.2,0.7,0.4,1,0.7
		s0.4,0.7,0.6,1.2c0.1,0.5,0.2,1,0.2,1.5c0,1.2-0.3,2.1-0.8,2.7s-1.3,0.9-2.3,0.9c-0.5,0-1-0.1-1.4-0.3c-0.4-0.2-0.7-0.4-1-0.7
		c-0.3-0.3-0.4-0.7-0.6-1.2C44.8,105.1,44.7,104.6,44.7,104.1z M45.9,104.1c0,0.4,0,0.7,0.1,1c0.1,0.3,0.2,0.6,0.3,0.9
		c0.1,0.2,0.3,0.4,0.6,0.6c0.2,0.1,0.5,0.2,0.9,0.2c1.3,0,1.9-0.9,1.9-2.7c0-0.4,0-0.7-0.1-1c-0.1-0.3-0.2-0.6-0.3-0.9
		c-0.1-0.2-0.3-0.4-0.6-0.6s-0.5-0.2-0.9-0.2C46.5,101.4,45.9,102.3,45.9,104.1z"/>
	<path class="st0" d="M57.4,107.1c-0.3,0.2-0.6,0.4-1,0.5s-0.8,0.2-1.2,0.2c-0.5,0-1-0.1-1.4-0.3c-0.4-0.2-0.7-0.4-0.9-0.7
		c-0.2-0.3-0.4-0.7-0.5-1.2c-0.1-0.5-0.2-1-0.2-1.5c0-1.2,0.3-2.1,0.8-2.7c0.5-0.6,1.3-0.9,2.3-0.9c0.4,0,0.8,0,1.1,0.1
		c0.3,0.1,0.6,0.2,0.8,0.3l-0.3,1c-0.2-0.1-0.5-0.2-0.7-0.3s-0.5-0.1-0.8-0.1c-1.3,0-2,0.9-2,2.7c0,0.4,0,0.7,0.1,1
		c0.1,0.3,0.2,0.6,0.4,0.9c0.2,0.2,0.4,0.4,0.6,0.6c0.3,0.1,0.6,0.2,1,0.2c0.3,0,0.6-0.1,0.9-0.2s0.5-0.2,0.7-0.4L57.4,107.1z"/>
	<path class="st0" d="M60.7,104.4h-0.6v3.2H59v-9.8h1.1v6l0.6-0.2l2.2-3h1.3l-2.1,2.8l-0.6,0.5l0.7,0.6l2.3,3.2h-1.4L60.7,104.4z"/>
	<path class="st0" d="M70.3,107.1c-0.3,0.2-0.6,0.4-1,0.5s-0.8,0.2-1.2,0.2c-0.5,0-1-0.1-1.4-0.3s-0.7-0.4-0.9-0.7s-0.4-0.7-0.5-1.2
		c-0.1-0.5-0.2-1-0.2-1.5c0-1.2,0.3-2.1,0.8-2.7s1.3-0.9,2.3-0.9c0.4,0,0.8,0,1.1,0.1c0.3,0.1,0.6,0.2,0.8,0.3l-0.3,1
		c-0.2-0.1-0.5-0.2-0.7-0.3c-0.3-0.1-0.5-0.1-0.8-0.1c-1.3,0-2,0.9-2,2.7c0,0.4,0,0.7,0.1,1c0.1,0.3,0.2,0.6,0.4,0.9
		c0.2,0.2,0.4,0.4,0.6,0.6s0.6,0.2,1,0.2c0.3,0,0.6-0.1,0.9-0.2c0.3-0.1,0.5-0.2,0.7-0.4L70.3,107.1z"/>
	<path class="st0" d="M76.3,107.6v-4c0-0.4,0-0.7-0.1-1s-0.1-0.5-0.2-0.7c-0.1-0.2-0.3-0.3-0.5-0.4c-0.2-0.1-0.4-0.1-0.7-0.1
		c-0.4,0-0.8,0.1-1.2,0.4c-0.4,0.3-0.6,0.7-0.7,1.1v4.7h-1.1v-9.8h1.1v3.6H73c0.2-0.3,0.5-0.5,0.9-0.7s0.8-0.3,1.3-0.3
		c0.4,0,0.7,0,1,0.1c0.3,0.1,0.5,0.2,0.7,0.5c0.2,0.2,0.3,0.5,0.4,0.9s0.1,0.9,0.1,1.4v4.2H76.3z"/>
	<path class="st0" d="M79.4,101.1c0.4-0.2,0.8-0.4,1.2-0.5s1-0.2,1.5-0.2c0.5,0,0.9,0.1,1.2,0.2s0.5,0.3,0.7,0.5
		c0.2,0.2,0.3,0.4,0.3,0.7c0.1,0.3,0.1,0.5,0.1,0.8c0,0.6,0,1.1,0,1.6c0,0.5,0,1,0,1.5c0,0.3,0,0.7,0,1c0,0.3,0.1,0.6,0.2,0.9h-0.8
		l-0.3-1h-0.1c-0.1,0.1-0.2,0.3-0.3,0.4s-0.3,0.2-0.5,0.3c-0.2,0.1-0.4,0.2-0.6,0.2c-0.2,0.1-0.5,0.1-0.8,0.1s-0.6,0-0.8-0.1
		c-0.3-0.1-0.5-0.2-0.7-0.4s-0.3-0.4-0.4-0.6c-0.1-0.2-0.2-0.5-0.2-0.8c0-0.4,0.1-0.8,0.3-1s0.4-0.5,0.7-0.7
		c0.3-0.2,0.7-0.3,1.1-0.3c0.4-0.1,0.9-0.1,1.4-0.1c0.1,0,0.3,0,0.4,0s0.3,0,0.4,0c0-0.3,0-0.5,0-0.8c0-0.5-0.1-0.9-0.3-1.1
		c-0.2-0.2-0.6-0.3-1.1-0.3c-0.2,0-0.3,0-0.5,0c-0.2,0-0.4,0.1-0.6,0.1s-0.4,0.1-0.5,0.2c-0.2,0.1-0.3,0.1-0.5,0.2L79.4,101.1z
		 M81.3,106.7c0.3,0,0.5,0,0.7-0.1c0.2-0.1,0.4-0.2,0.5-0.3c0.1-0.1,0.3-0.2,0.4-0.4c0.1-0.1,0.2-0.3,0.2-0.4v-1.2
		c-0.1,0-0.3,0-0.4,0c-0.1,0-0.3,0-0.4,0c-0.3,0-0.6,0-0.8,0c-0.3,0-0.5,0.1-0.7,0.2s-0.4,0.2-0.5,0.4c-0.1,0.2-0.2,0.3-0.2,0.6
		c0,0.3,0.1,0.6,0.4,0.8C80.7,106.6,81,106.7,81.3,106.7z"/>
	<path class="st0" d="M86.4,98.5c0-0.2,0.1-0.4,0.2-0.6c0.1-0.2,0.3-0.2,0.6-0.2s0.4,0.1,0.6,0.2c0.2,0.2,0.2,0.3,0.2,0.6
		s-0.1,0.4-0.2,0.5c-0.2,0.1-0.4,0.2-0.6,0.2s-0.4-0.1-0.6-0.2C86.5,98.8,86.4,98.7,86.4,98.5z M86.6,100.6h1.1v7h-1.1V100.6z"/>
	<path class="st0" d="M94.7,107.6v-4c0-0.7-0.1-1.3-0.3-1.6c-0.2-0.4-0.6-0.6-1.2-0.6c-0.5,0-0.9,0.1-1.2,0.4s-0.5,0.6-0.7,1v4.8
		h-1.1v-7h0.8l0.2,0.9h0.1c0.2-0.3,0.5-0.5,0.9-0.7c0.4-0.2,0.8-0.3,1.4-0.3c0.4,0,0.7,0,1,0.1s0.5,0.2,0.7,0.5
		c0.2,0.2,0.3,0.5,0.4,0.9c0.1,0.4,0.1,0.9,0.1,1.4v4.2H94.7z"/>
</g>
<title>globe7</title>
<polygon class="st1" points="34.3,39.1 42.9,43.9 51.3,39.1 42.9,34.7 "/>
<line class="st2" x1="51.3" y1="49.7" x2="51.3" y2="39.1"/>
<polyline class="st2" points="34.3,39.1 34.3,48.8 42.8,53.8 46.5,51.8 "/>
<line class="st2" x1="42.9" y1="43.9" x2="42.9" y2="53.1"/>
<polygon class="st1" points="78.6,39.1 87.2,43.9 95.7,39.1 87.2,34.7 "/>
<line class="st2" x1="95.6" y1="42.8" x2="95.7" y2="39.1"/>
<polyline class="st2" points="78.6,39.1 78.6,48.8 87.2,53.8 95.5,49.3 95.6,46.8 "/>
<line class="st2" x1="87.2" y1="43.9" x2="87.2" y2="53.1"/>
<line class="st3" x1="47.5" y1="46.9" x2="59.8" y2="54.6"/>
<line class="st3" x1="69.2" y1="54.4" x2="82.4" y2="47.4"/>
<polygon class="st1" points="56,56.5 64.6,61.4 73.1,56.5 64.6,52.2 "/>
<polyline class="st2" points="68,69.4 72.9,66.8 73.1,56.5 "/>
<polyline class="st2" points="56,56.5 56,66.3 61.6,69.5 "/>
<line class="st2" x1="64.6" y1="61.4" x2="64.6" y2="66.5"/>
</svg>
