<?xml version="1.0" encoding="utf-8"?>
<!-- Generator: Adobe Illustrator 23.0.3, SVG Export Plug-In . SVG Version: 6.00 Build 0)  -->
<svg version="1.1" id="Layer_1" xmlns="http://www.w3.org/2000/svg" xmlns:xlink="http://www.w3.org/1999/xlink" x="0px" y="0px"
	 viewBox="0 0 130 130" style="enable-background:new 0 0 130 130;" xml:space="preserve">
<style type="text/css">
	.st0{fill:none;stroke:#1EB9D5;stroke-width:1.5;}
	.st1{fill:#1EB9D5;}
	.st2{fill:#FFFFFF;}
</style>
<title>globe2</title>
<line class="st0" x1="94.1" y1="49.2" x2="99.2" y2="49.2"/>
<line class="st0" x1="66.5" y1="49.2" x2="86.5" y2="49.2"/>
<line class="st0" x1="32.7" y1="41.5" x2="67.8" y2="41.5"/>
<path class="st0" d="M74.1,38.6H91c4.6,0,8.3,3.7,8.3,8.3v16.9c0,4.6-3.7,8.3-8.3,8.3H74.1c-4.6,0-8.3-3.7-8.3-8.3V47
	C65.8,42.4,69.5,38.6,74.1,38.6z"/>
<polyline class="st0" points="80.2,31 86.6,31 86.6,38.3 "/>
<polyline class="st0" points="65.4,63.6 32.4,63.6 32.4,31 73.1,31 "/>
<circle class="st1" cx="36.6" cy="36.3" r="1.2"/>
<circle class="st1" cx="41.3" cy="36.3" r="1.2"/>
<circle class="st1" cx="45.9" cy="36.3" r="1.2"/>
<g>
	<path class="st2" d="M35.2,94.3h-0.9l-1.4-4.5c-0.1-0.2-0.1-0.4-0.2-0.7c-0.1-0.3-0.1-0.4-0.1-0.5c-0.1,0.4-0.2,0.9-0.3,1.3
		L31,94.2h-0.7l-1.8-6.6h0.9l1.1,4.1c0.1,0.5,0.2,1.1,0.3,1.6c0.1-0.5,0.2-1.1,0.3-1.6l1.2-4.1H33l1.3,4.1c0.2,0.5,0.3,1.1,0.4,1.7
		c0.1-0.4,0.2-1,0.3-1.6l1.1-4.1H37L35.2,94.3z"/>
	<path class="st2" d="M41.7,94.3h-3.7v-6.6h3.7v0.6h-2.9v2.1h2.8v0.7h-2.8v2.5h2.9V94.3z"/>
	<path class="st2" d="M43.1,87.7H45c0.9,0,1.5,0.1,1.9,0.4c0.4,0.2,0.6,0.6,0.6,1.3c0,0.4-0.1,0.7-0.3,1c-0.2,0.2-0.5,0.4-1,0.5l0,0
		c1,0.2,1.5,0.7,1.5,1.6c0,0.6-0.2,1.1-0.6,1.4c-0.4,0.3-1,0.5-1.7,0.5h-2.4V87.7z M43.9,90.5h1.3c0.5,0,1-0.1,1.2-0.2
		c0.2-0.2,0.3-0.4,0.3-0.9c0-0.3-0.1-0.6-0.4-0.9c-0.2-0.2-0.6-0.2-1.3-0.2h-1.2v2.1H43.9z M43.9,91.2v2.5h1.4c0.5,0,1-0.1,1.2-0.3
		c0.3-0.2,0.4-0.5,0.4-1s-0.1-0.7-0.4-1s-0.7-0.2-1.3-0.2H43.9z"/>
	<path class="st2" d="M54,87.7l-2.5,6.6h-0.7l2.5-6.6H54z"/>
	<path class="st2" d="M62.7,90.9c0,1.1-0.3,1.9-0.9,2.6c-0.6,0.5-1.5,0.9-2.6,0.9h-1.8v-6.6h2c1.1,0,1.8,0.3,2.5,0.9
		C62.4,89.1,62.7,90,62.7,90.9z M61.9,91c0-0.9-0.2-1.5-0.6-1.9c-0.4-0.4-1.1-0.6-1.9-0.6h-1.2v5.3h1c1,0,1.6-0.2,2-0.6
		C61.7,92.5,61.9,91.9,61.9,91z"/>
	<path class="st2" d="M67.9,94.3h-3.7v-6.6h3.7v0.6H65v2.1h2.7v0.7h-2.8v2.5h2.9v0.6H67.9z"/>
	<path class="st2" d="M73.1,92.5c0,0.5-0.2,1.1-0.6,1.4c-0.4,0.3-1,0.5-1.7,0.5s-1.4-0.1-1.8-0.3v-0.7c0.3,0.1,0.5,0.2,0.9,0.3
		s0.6,0.1,1,0.1c0.5,0,0.9-0.1,1.2-0.3c0.2-0.2,0.4-0.4,0.4-0.9c0-0.2,0-0.4-0.1-0.5c-0.1-0.1-0.2-0.3-0.4-0.4
		c-0.2-0.1-0.5-0.2-1-0.4c-0.6-0.2-1.1-0.5-1.3-0.7c-0.2-0.3-0.4-0.7-0.4-1.2c0-0.5,0.2-1,0.5-1.2c0.4-0.3,0.9-0.4,1.5-0.4
		c0.6,0,1.3,0.1,1.8,0.3l-0.2,0.6c-0.5-0.2-1.1-0.3-1.6-0.3c-0.4,0-0.7,0.1-1,0.2c-0.2,0.2-0.3,0.4-0.3,0.7c0,0.2,0,0.4,0.1,0.5
		c0.1,0.1,0.2,0.3,0.4,0.4c0.2,0.1,0.5,0.2,1,0.4c0.7,0.2,1.2,0.5,1.4,0.7C73,91.8,73.1,92.1,73.1,92.5z"/>
	<path class="st2" d="M79.3,94.3h-1l-2.5-3.2l-0.7,0.6v2.6h-0.7v-6.6h0.7V91l3-3.3h1l-2.7,2.9L79.3,94.3z"/>
	<path class="st2" d="M82.2,94.3h-0.7v-6h-2.1v-0.6h5v0.6h-2.1V94.3z"/>
	<path class="st2" d="M91.1,91c0,1.1-0.3,1.9-0.9,2.5c-0.4,0.6-1.2,1-2.1,1s-1.7-0.3-2.2-0.9c-0.5-0.6-0.7-1.4-0.7-2.6
		c0-1.1,0.2-1.9,0.7-2.6c0.5-0.6,1.3-0.9,2.2-0.9s1.7,0.3,2.2,1C90.8,89.1,91.1,90,91.1,91z M85.8,91c0,0.9,0.2,1.6,0.5,2
		c0.4,0.4,1,0.7,1.7,0.7s1.3-0.2,1.7-0.7c0.4-0.5,0.5-1.2,0.5-2s-0.2-1.6-0.5-2s-1-0.6-1.7-0.6c-0.7,0-1.3,0.2-1.7,0.7
		C85.9,89.4,85.8,90.2,85.8,91z"/>
	<path class="st2" d="M96.7,89.6c0,0.6-0.2,1.2-0.6,1.6c-0.4,0.3-1.1,0.5-1.9,0.5h-0.9v2.6h-0.7v-6.6h1.7
		C96,87.7,96.7,88.3,96.7,89.6z M93.3,91h0.7c0.6,0,1.2-0.1,1.5-0.3c0.3-0.2,0.4-0.5,0.4-1.1c0-0.4-0.1-0.7-0.4-1
		c-0.3-0.2-0.7-0.3-1.4-0.3h-0.9V91z"/>
	<path class="st2" d="M103,87.7l-2.5,6.6h-0.9l2.5-6.6H103z"/>
	<path class="st2" d="M39.3,106.9l-2.2-5.9l0,0c0,0.4,0.1,1.1,0.1,1.7v4.3h-0.7v-6.6h1.2l2.1,5.5l0,0l2.1-5.5h1.2v6.6h-0.7v-4.3
		c0-0.5,0-1.1,0.1-1.6l0,0l-2.2,5.9h-0.9V106.9z"/>
	<path class="st2" d="M50.6,103.6c0,1.1-0.3,1.9-0.9,2.5c-0.5,0.5-1.2,1-2.1,1c-1,0-1.7-0.3-2.2-0.9c-0.5-0.6-0.7-1.4-0.7-2.6
		c0-1.1,0.2-1.9,0.7-2.6c0.5-0.6,1.3-0.9,2.2-0.9c1,0,1.7,0.3,2.2,1C50.3,101.7,50.6,102.5,50.6,103.6z M45.3,103.6
		c0,0.9,0.2,1.6,0.5,2c0.4,0.4,1,0.7,1.7,0.7c0.7,0,1.3-0.2,1.7-0.7c0.4-0.5,0.5-1.2,0.5-2c0-0.9-0.2-1.6-0.5-2
		c-0.3-0.4-1-0.6-1.7-0.6c-0.7,0-1.3,0.2-1.7,0.7C45.5,102,45.3,102.7,45.3,103.6z"/>
	<path class="st2" d="M52.1,100.3H54c0.9,0,1.5,0.1,1.9,0.4c0.4,0.2,0.6,0.6,0.6,1.3c0,0.4-0.1,0.7-0.3,1s-0.5,0.4-1,0.5l0,0
		c1,0.2,1.5,0.7,1.5,1.6c0,0.6-0.2,1.1-0.6,1.4c-0.4,0.3-1,0.5-1.7,0.5h-2.4C52.1,107,52.1,100.3,52.1,100.3z M52.8,103.1h1.3
		c0.5,0,1-0.1,1.2-0.2c0.2-0.2,0.3-0.4,0.3-0.9c0-0.3-0.1-0.6-0.4-0.9c-0.2-0.2-0.6-0.2-1.3-0.2h-1.2v2.1H52.8z M52.8,103.8v2.5h1.4
		c0.5,0,1-0.1,1.2-0.3c0.3-0.2,0.4-0.5,0.4-1c0-0.4-0.1-0.7-0.4-1c-0.2-0.2-0.6-0.2-1.2-0.2H52.8z"/>
	<path class="st2" d="M58.2,106.9v-6.6h0.7v6.6H58.2z"/>
	<path class="st2" d="M60.7,106.9v-6.6h0.7v6h2.9v0.7h-3.6V106.9z"/>
	<path class="st2" d="M69.3,106.9h-3.7v-6.6h3.7v0.6h-2.9v2.1h2.8v0.7h-2.8v2.5h2.9V106.9z"/>
	<path class="st2" d="M77.3,106.9l-0.9-2.1h-2.7l-0.9,2.1h-0.7l2.7-6.6h0.6l2.6,6.6H77.3z M76.2,104.1l-0.7-2
		c-0.1-0.2-0.2-0.5-0.3-1c-0.1,0.3-0.2,0.6-0.3,1l-0.7,2H76.2z"/>
	<path class="st2" d="M83.3,102.2c0,0.6-0.2,1.2-0.6,1.6c-0.4,0.3-1.1,0.5-1.9,0.5H80v2.6h-0.7v-6.6h1.7
		C82.4,100.3,83.3,100.9,83.3,102.2z M79.7,103.6h0.7c0.6,0,1.2-0.1,1.5-0.3c0.3-0.2,0.4-0.5,0.4-1.1c0-0.4-0.1-0.7-0.4-1
		c-0.3-0.2-0.7-0.3-1.4-0.3h-0.9C79.7,100.9,79.7,103.6,79.7,103.6z"/>
	<path class="st2" d="M88.8,102.2c0,0.6-0.2,1.2-0.6,1.6c-0.4,0.3-1.1,0.5-1.9,0.5h-0.7v2.6h-0.7v-6.6h1.7
		C88,100.3,88.8,100.9,88.8,102.2z M85.4,103.6h0.7c0.6,0,1.2-0.1,1.5-0.3c0.3-0.2,0.4-0.5,0.4-1.1c0-0.4-0.1-0.7-0.4-1
		s-0.7-0.3-1.4-0.3h-0.9C85.4,100.9,85.4,103.6,85.4,103.6z"/>
	<path class="st2" d="M94,105.1c0,0.5-0.2,1.1-0.6,1.4s-1,0.5-1.7,0.5s-1.4-0.1-1.8-0.3V106c0.3,0.1,0.5,0.2,0.9,0.3
		c0.3,0.1,0.6,0.1,1,0.1c0.5,0,0.9-0.1,1.2-0.3c0.2-0.2,0.4-0.4,0.4-0.9c0-0.2,0-0.4-0.1-0.5c-0.1-0.1-0.2-0.3-0.4-0.4
		c-0.2-0.1-0.5-0.2-1-0.4c-0.6-0.2-1.1-0.5-1.3-0.7c-0.2-0.3-0.4-0.7-0.4-1.2c0-0.5,0.2-1,0.5-1.2c0.4-0.3,0.9-0.4,1.5-0.4
		s1.3,0.1,1.8,0.3l-0.2,0.6c-0.5-0.2-1.1-0.3-1.6-0.3c-0.4,0-0.7,0.1-1,0.2c-0.2,0.2-0.3,0.4-0.3,0.7c0,0.2,0,0.4,0.1,0.5
		c0.1,0.1,0.2,0.3,0.4,0.4c0.2,0.1,0.5,0.2,1,0.4c0.7,0.2,1.2,0.5,1.4,0.7C93.9,104.3,94,104.7,94,105.1z"/>
</g>
</svg>
