<svg xmlns="http://www.w3.org/2000/svg" viewBox="0 0 1600 828.44"><defs><style>.a{fill:none;stroke:#ffe161;stroke-miterlimit:10;stroke-width:3px;fill-rule:evenodd;}</style></defs><title>globe</title><path class="a" d="M588.32,277.92s5.85-10,12.55-5.86c10.06,0,34.33,2.51,47.73,10,18.42-1.67,19.26-3.35,22.61.84s16.74-8.37,17.57,0-22.6,8.38-30.13,20.1-3.36,19.26,2.5,23.44,18.43-14.24,26.8-20.94,10.88-8.36,19.25-7.53,15.91,4.2,20.1,15.91-7.54,19.25-11.73,20.92-9.21-6.69-14.23,5-10.05,8.37-24.28,17.58-22.6,5-31,19.26S629.35,390.94,626,401s-1.67,28.46-5,31.8S604.22,406,596.7,407.67s-14.25,5.88-15.08,19.27-7.54,18.42-5,22.6,8.37,5.87,15.91,1.68,11.72-9.21,13.39,3.35,5,27.62,12.56,36,14.23,6.7,20.09,26.8,10.88,24.28-1.68,19.25-30.13-24.27-33.48-28.47-.84-11.72-15.07-21.76-18.42-16.74-20.09-20.09-1.68-15.07-2.52-22.6-5,2.51-6.69-12.57-12.56-41-9.21-51.06,7.53-33.49,15.07-49.4,10.88-25.12,9.2-31S579.11,284.62,588.32,277.92Z"/><path class="a" d="M710.55,282.94s11.73-3.34,18.42-5.86,11.72-3.35,7.54,5.86-6.71,13.39-13.4,12.55-27.63-1.67-23.44-5.85S708,290.47,710.55,282.94Z"/><path class="a" d="M766.36,682.85a81.91,81.91,0,0,1,3-11.65c4.19-11.72,21.76-5.86,31-26.8s12.56-25.95,11.71-37.67S795.33,595,783.61,583.29,761.84,556.5,751,551.48s-25.12-22.61-45.21-26.79-45.2-8.37-45.2,9.21,6.69,23.43-.85,40.18.84,11.72,2.52,26.79C663.35,611,679.8,626,684,633.52s10.89,5,19.25,12.57c5.45,4.9,8.77,17.94,12,29"/><path class="a" d="M890.55,217.65c-3.41,3.77,3.35,12.54,4.19,20.08s-11.73,2.51-26,12.56S865.43,267,852,264.52,832,246.94,830.27,236.06,810.18,221.82,801,226s7.53,5.86,5,18.42S790.93,257,785.06,256.16s-10-4.2-18.42,5,3.35,15.06,4.19,24.28-8.38,16.73-3.35,17.58,15.07-14.24,18.42-4.19-9.21,15.07-13.4,26,13.4,27.62,26.79,33.48,16.75,0,10.89,10-20.09,23.45-27.63,36.84,3.35,13.4,15.9,12.56,15.08-2.51,12.56,11.72S805.16,446.2,815.2,447s14.23.84,23.44-17.58-8.37-16.74-5.86-31,5-13.4,14.23-19.26S842.83,370,849.52,365s9.57-8,15.08-14.24c6.7-7.53,2.5,4.19,14.23,15.07s20.93,28.47,20.93,35.17-10.89,19.25-4.2,20.08,8.38-5,13.4-14.21,10.89-3.36,13.4-9.22c2-4.68-13.4-9.2-21.76-23.44s-6.7-17.59-.84-31.82,17.58-7.52,25.11-5.85-2.51,4.18,8.38,17.58,7.53-.84,15.07,3.34,0-13.39,9.2-20.09,5.86-1.68,16.75.83,10-.83,6.7-11.71-5.86-5-10.05-14.23,0-12.57,9.21-14.24"/><path class="a" d="M975.94,288.8s-27.62,5-31-6.7,0-13.39-7.54-20.08-15.91-27.64-15.91-27.64"/><path class="a" d="M787.26,220.05c4.4-.63,12.55-4.08,14.12-8.49,2-5.57-7-4.9-22.91-4.07s-16.86,15.18-26.06,6.8-24.27,4.19-28.47,11.72,15.91,1.67,20.94.83-5,10.06,8.36,9.22,28.09-1.35,19.26,5.86c-6.28,5.12-6.91,8.58-1.57,8.27,10.34-.6,13-1.26,18.84-6.28s5.29-9.24-.53-15.38C785.69,224.77,783,220.66,787.26,220.05Z"/><path class="a" d="M828.59,193.36c-4.18,10.89-13.28,21.25-4.91,25.43s11.3,10.68,15,21.45c4.49,13.2,15.07,3.35,24.28-1.67l9.21-5s5.86,7.52,6.7.83-5-10.89-16.75-20.09S842,200.05,843.66,197.54"/><path class="a" d="M1011.11,356.61s-8.38-10.89-9.21-3.34-6.7,6.7-16.75,0S968.4,344.06,957.52,370s-10,30.15-9.2,49.39-12.56,10.89-2.51,33.49,18.41,25.12,29.3,21.77,24.28-17.58,20.09,10-5.86,24.28-8.37,41-16.75,42.69-34.33,58.6-36.84,27.63-37.67,36-1.68,17.58.83,20.09"/><path class="a" d="M1024.5,434.89c0,136.64-110.76,247.4-247.39,247.4S529.72,571.53,529.72,434.89,640.48,187.5,777.11,187.5,1024.5,298.26,1024.5,434.89Z"/></svg>