<svg xmlns="http://www.w3.org/2000/svg" viewBox="0 0 130 130"><defs><style>.a{fill:#ffe161;}.b{fill:none;stroke:#1eb9d5;stroke-linecap:round;stroke-linejoin:round;stroke-width:2px;}</style></defs><title>globe1</title><path class="a" d="M26.78,84.14a6.42,6.42,0,0,1,.87-.11c.32,0,.62,0,.89,0a3.57,3.57,0,0,1,.87.1,2,2,0,0,1,.72.32,1.64,1.64,0,0,1,.5.6,2,2,0,0,1,.18.89,1.89,1.89,0,0,1-.44,1.31,2.11,2.11,0,0,1-1.13.67l.48.37L31.44,91h-1l-1.91-3-1-.15V91h-.82Zm1.78.56H28l-.24,0-.19,0v2.55h.77A1.79,1.79,0,0,0,29.5,87a1.21,1.21,0,0,0,.44-1,1.15,1.15,0,0,0-.36-.87A1.38,1.38,0,0,0,28.56,84.7Z"/><path class="a" d="M35.72,90.59A2.19,2.19,0,0,1,35,91a3,3,0,0,1-.95.14,2.42,2.42,0,0,1-1-.18,1.7,1.7,0,0,1-.68-.52,2.33,2.33,0,0,1-.4-.82,3.92,3.92,0,0,1-.13-1.07,2.86,2.86,0,0,1,.57-1.92A2,2,0,0,1,34,85.92a3.14,3.14,0,0,1,.67.08,1.5,1.5,0,0,1,.6.28,1.6,1.6,0,0,1,.44.59,2.55,2.55,0,0,1,.16,1,4.76,4.76,0,0,1-.06.72H32.65a3,3,0,0,0,.09.77,1.39,1.39,0,0,0,.28.57,1.12,1.12,0,0,0,.49.36,2,2,0,0,0,.73.12,2,2,0,0,0,.68-.12,1.53,1.53,0,0,0,.5-.27Zm-1.7-4a1.41,1.41,0,0,0-.94.3,1.6,1.6,0,0,0-.42,1h2.45a1.52,1.52,0,0,0-.28-1A1.06,1.06,0,0,0,34,86.62Z"/><path class="a" d="M40.22,86l1.14,2.89.25.95h0l.18-1L42.69,86h.75l-1.66,5H41.4l-1.3-3.26L39.92,87h0l-.2.82-1.25,3.25h-.38l-1.72-5h.86l1,2.88.17,1h0l.23-1L39.65,86Z"/><path class="a" d="M44.21,86.41a3.1,3.1,0,0,1,.87-.34,5,5,0,0,1,1-.11,2.1,2.1,0,0,1,.83.14,1.09,1.09,0,0,1,.47.36,1.28,1.28,0,0,1,.22.49,2.47,2.47,0,0,1,0,.54c0,.39,0,.78,0,1.15s0,.73,0,1.07,0,.47,0,.69a3.38,3.38,0,0,0,.11.6h-.58L47,90.31h0a1.13,1.13,0,0,1-.22.27,1.57,1.57,0,0,1-.32.24A1.84,1.84,0,0,1,46,91a2,2,0,0,1-.57.07,1.66,1.66,0,0,1-.59-.1,1.25,1.25,0,0,1-.47-.28,1.4,1.4,0,0,1-.31-.44,1.5,1.5,0,0,1-.11-.58,1.39,1.39,0,0,1,.18-.73,1.24,1.24,0,0,1,.5-.46,2.32,2.32,0,0,1,.77-.25,6.07,6.07,0,0,1,1-.07h.27a1.23,1.23,0,0,1,.27,0q0-.3,0-.54a1.1,1.1,0,0,0-.21-.76,1.15,1.15,0,0,0-.79-.21,2.17,2.17,0,0,0-.36,0l-.4.07-.39.11-.32.15Zm1.4,4a1.49,1.49,0,0,0,.49-.07,1.35,1.35,0,0,0,.38-.19,1.55,1.55,0,0,0,.26-.25.91.91,0,0,0,.15-.27v-.82h-.56a4,4,0,0,0-.6,0,1.91,1.91,0,0,0-.51.12,1,1,0,0,0-.36.26.63.63,0,0,0-.13.41.72.72,0,0,0,.25.57A.88.88,0,0,0,45.61,90.37Z"/><path class="a" d="M51.52,86.8a2,2,0,0,0-.56-.09.94.94,0,0,0-.68.23,1,1,0,0,0-.3.59V91h-.79V86h.55l.15.61h0a1.36,1.36,0,0,1,.45-.52,1.12,1.12,0,0,1,.66-.19,2.71,2.71,0,0,1,.65.1Z"/><path class="a" d="M56.34,89.28c0,.34,0,.65,0,.92a5.29,5.29,0,0,0,.09.8h-.53l-.2-.7h0a1.66,1.66,0,0,1-.57.58,1.69,1.69,0,0,1-.88.22,1.72,1.72,0,0,1-1.47-.62,3.18,3.18,0,0,1-.48-2,2.76,2.76,0,0,1,.6-1.92A2.11,2.11,0,0,1,54.51,86a4,4,0,0,1,.58,0,3.25,3.25,0,0,1,.46.13V84.07h.79Zm-2,1.13a1.2,1.2,0,0,0,.8-.26,1.41,1.41,0,0,0,.4-.8V86.9a1,1,0,0,0-.4-.19,2.56,2.56,0,0,0-.61-.06,1.31,1.31,0,0,0-1.06.45,2.16,2.16,0,0,0-.39,1.43,4.38,4.38,0,0,0,.06.75,1.92,1.92,0,0,0,.22.6,1.21,1.21,0,0,0,.39.39A1.17,1.17,0,0,0,54.35,90.41Z"/><path class="a" d="M60,89.64a.59.59,0,0,0-.18-.46,1.53,1.53,0,0,0-.44-.29l-.57-.21a2.8,2.8,0,0,1-.58-.27,1.6,1.6,0,0,1-.44-.42,1.53,1.53,0,0,1,.23-1.73,1.75,1.75,0,0,1,1.13-.34,3.7,3.7,0,0,1,.89.1,3.83,3.83,0,0,1,.63.22l-.19.65A3.48,3.48,0,0,0,60,86.7a2.49,2.49,0,0,0-.68-.08,1.17,1.17,0,0,0-.64.14.59.59,0,0,0-.2.52.51.51,0,0,0,.17.4,2.56,2.56,0,0,0,.44.26l.58.22a2.52,2.52,0,0,1,.57.28,1.57,1.57,0,0,1,.44.45,1.3,1.3,0,0,1,.18.72,1.63,1.63,0,0,1-.11.59,1,1,0,0,1-.32.48,1.56,1.56,0,0,1-.54.31,2.12,2.12,0,0,1-.75.11,3.33,3.33,0,0,1-1-.11,2.94,2.94,0,0,1-.66-.25l.24-.67a2.9,2.9,0,0,0,.59.23,2.33,2.33,0,0,0,.74.11,1.25,1.25,0,0,0,.7-.17A.63.63,0,0,0,60,89.64Z"/><path class="a" d="M67.14,84l.63.27-3.61,8.15-.62-.28Z"/><path class="a" d="M75,91H70.88V84.07h.82v6.18H75Z"/><path class="a" d="M75.05,88.51a3,3,0,0,1,.56-1.92,2,2,0,0,1,1.6-.67,2.43,2.43,0,0,1,1,.19,1.65,1.65,0,0,1,.67.52,2.33,2.33,0,0,1,.4.82,4,4,0,0,1,.13,1.06,3,3,0,0,1-.56,1.93,2,2,0,0,1-1.61.66,2.38,2.38,0,0,1-1-.18,1.85,1.85,0,0,1-.68-.52,2.31,2.31,0,0,1-.39-.82A4,4,0,0,1,75.05,88.51Zm.82,0a4.4,4.4,0,0,0,.07.73,1.8,1.8,0,0,0,.24.6,1.15,1.15,0,0,0,.41.41,1.12,1.12,0,0,0,.62.16c.9,0,1.35-.62,1.35-1.9a3.47,3.47,0,0,0-.08-.73,1.79,1.79,0,0,0-.23-.6,1.15,1.15,0,0,0-.41-.41,1.22,1.22,0,0,0-.63-.15C76.32,86.61,75.87,87.24,75.87,88.51Z"/><path class="a" d="M82,89.25l.28.94h.05l.22-1,1-3.2h.79L82.8,90.48c-.11.32-.22.64-.33.94a6.14,6.14,0,0,1-.36.81,2.06,2.06,0,0,1-.45.57.84.84,0,0,1-.57.21,1.37,1.37,0,0,1-.58-.1l.13-.68a.79.79,0,0,0,.25,0,.72.72,0,0,0,.53-.29,2.28,2.28,0,0,0,.43-1l-2-4.94h.91Z"/><path class="a" d="M85,86.41a3,3,0,0,1,.88-.34A5,5,0,0,1,87,86a2.05,2.05,0,0,1,.82.14,1.13,1.13,0,0,1,.48.36,1.28,1.28,0,0,1,.22.49,3.29,3.29,0,0,1,0,.54c0,.39,0,.78,0,1.15s0,.73,0,1.07,0,.47,0,.69a3.38,3.38,0,0,0,.11.6H88l-.21-.69h0a1.13,1.13,0,0,1-.22.27,1.57,1.57,0,0,1-.32.24,1.75,1.75,0,0,1-.44.17,1.91,1.91,0,0,1-.56.07,1.63,1.63,0,0,1-.59-.1,1.18,1.18,0,0,1-.47-.28,1.25,1.25,0,0,1-.31-.44,1.34,1.34,0,0,1-.12-.58,1.39,1.39,0,0,1,.18-.73,1.31,1.31,0,0,1,.5-.46,2.4,2.4,0,0,1,.77-.25,6.11,6.11,0,0,1,1-.07h.27a1.23,1.23,0,0,1,.27,0q0-.3,0-.54a1,1,0,0,0-.22-.76,1.13,1.13,0,0,0-.79-.21,2.3,2.3,0,0,0-.36,0l-.4.07-.38.11-.32.15Zm1.4,4a1.55,1.55,0,0,0,.5-.07,1.29,1.29,0,0,0,.37-.19,1.31,1.31,0,0,0,.27-.25.91.91,0,0,0,.15-.27v-.82h-.56a3.86,3.86,0,0,0-.6,0,1.89,1.89,0,0,0-.52.12,1,1,0,0,0-.35.26.63.63,0,0,0-.13.41.75.75,0,0,0,.24.57A.91.91,0,0,0,86.43,90.37Z"/><path class="a" d="M90.89,89.77a.78.78,0,0,0,.12.49.41.41,0,0,0,.34.15A1.69,1.69,0,0,0,92,90.3l.09.63a1.7,1.7,0,0,1-.44.12,2.32,2.32,0,0,1-.49,0,1,1,0,0,1-.73-.25A1.09,1.09,0,0,1,90.1,90V84.07h.79Z"/><path class="a" d="M92.25,86H93v-1l.79-.22V86h1.34v.7H93.81v2.73a1.43,1.43,0,0,0,.13.73.46.46,0,0,0,.43.21,1.84,1.84,0,0,0,.44,0l.39-.15.18.61a3.3,3.3,0,0,1-.58.2,2.56,2.56,0,0,1-.69.08,1,1,0,0,1-.85-.34A2.06,2.06,0,0,1,93,89.62V86.74h-.77Z"/><path class="a" d="M97.71,89.25l.27.94h0l.22-1,1-3.2H100l-1.46,4.44c-.11.32-.22.64-.33.94a6.14,6.14,0,0,1-.36.81,1.89,1.89,0,0,1-.45.57.84.84,0,0,1-.57.21,1.37,1.37,0,0,1-.58-.1l.14-.68a.69.69,0,0,0,.24,0,.74.74,0,0,0,.54-.29,2.42,2.42,0,0,0,.42-1l-2-4.94h.91Z"/><polyline class="b" points="49.81 46.09 49.81 33.16 80.89 33.16 80.89 64.24 49.81 64.24 49.81 52.13"/><polygon class="b" points="69 38.41 70.94 42.34 75.27 42.97 72.13 46.02 72.87 50.33 69 48.3 65.13 50.33 65.87 46.02 62.74 42.97 67.07 42.34 69 38.41"/><line class="b" x1="57.86" y1="33.36" x2="57.86" y2="63.69"/><line class="b" x1="50.09" y1="55.75" x2="80.43" y2="55.75"/></svg>