<svg xmlns="http://www.w3.org/2000/svg" viewBox="0 0 130 130"><defs><style>.a{fill:#ffe161;}.b{fill:none;stroke:#1eb9d5;stroke-linecap:round;stroke-linejoin:round;stroke-width:2px;}.c{fill:#1eb9d5;}</style></defs><title>globe2</title><path class="a" d="M7.27,92.05l.16,1.15h0L7.61,92,9,87.42h.4l1.43,4.63L11,93.2h0L11.22,92l1.17-4.61h.79l-1.93,7H10.8L9.4,89.81l-.18-1H9.17L9,89.82l-1.4,4.62H7.13l-2-7H6Z"/><path class="a" d="M17.21,93.94a2.05,2.05,0,0,1-.74.37,3,3,0,0,1-1,.14,2.48,2.48,0,0,1-1-.18,1.85,1.85,0,0,1-.68-.52,2.15,2.15,0,0,1-.39-.82,3.92,3.92,0,0,1-.13-1.07,2.91,2.91,0,0,1,.56-1.92,2,2,0,0,1,1.61-.67,3.16,3.16,0,0,1,.68.08,1.5,1.5,0,0,1,.6.28,1.42,1.42,0,0,1,.43.59,2.53,2.53,0,0,1,.17,1,4.76,4.76,0,0,1-.06.72H14.15a3,3,0,0,0,.09.77,1.39,1.39,0,0,0,.28.57,1.09,1.09,0,0,0,.48.36,2,2,0,0,0,.74.12,2,2,0,0,0,.67-.12,1.6,1.6,0,0,0,.51-.27Zm-1.7-4a1.37,1.37,0,0,0-.93.3,1.6,1.6,0,0,0-.42,1h2.45a1.52,1.52,0,0,0-.29-1A1.06,1.06,0,0,0,15.51,90Z"/><path class="a" d="M18.63,87.42h.79v2.46h0a1.59,1.59,0,0,1,.57-.45,2,2,0,0,1,.77-.16,1.72,1.72,0,0,1,1.44.62,3.06,3.06,0,0,1,.48,1.89,2.78,2.78,0,0,1-.63,2,2.34,2.34,0,0,1-1.78.67,3.94,3.94,0,0,1-1-.12,2.36,2.36,0,0,1-.67-.25Zm2,2.55a1.17,1.17,0,0,0-.8.27,1.65,1.65,0,0,0-.44.78v2.49a1.32,1.32,0,0,0,.45.17,3.31,3.31,0,0,0,.55,0,1.36,1.36,0,0,0,1.08-.47,2.33,2.33,0,0,0,.4-1.49,4.18,4.18,0,0,0-.07-.72,1.83,1.83,0,0,0-.22-.57,1.15,1.15,0,0,0-.38-.38A1.09,1.09,0,0,0,20.66,90Z"/><path class="a" d="M29.08,87.3l.63.27L26.1,95.72l-.63-.28Z"/><path class="a" d="M32.82,87.42l.42,0,.48,0h1a3.66,3.66,0,0,1,1.43.25,2.77,2.77,0,0,1,1,.72,3.06,3.06,0,0,1,.59,1.1,5.24,5.24,0,0,1,.19,1.42,4.62,4.62,0,0,1-.19,1.34,3.18,3.18,0,0,1-.57,1.15,3,3,0,0,1-1,.8,3.54,3.54,0,0,1-1.53.3h-.41l-.52,0-.5,0a1.17,1.17,0,0,1-.32,0Zm1.87.65H34.1l-.27,0-.19,0v5.53l.19,0h.76a2.55,2.55,0,0,0,1.16-.24,2,2,0,0,0,.75-.63,2.63,2.63,0,0,0,.4-.92A4.81,4.81,0,0,0,37,90.83a4.67,4.67,0,0,0-.11-1,2.48,2.48,0,0,0-.38-.88,1.94,1.94,0,0,0-.71-.65A2.28,2.28,0,0,0,34.69,88.07Z"/><path class="a" d="M42.81,93.94a2.19,2.19,0,0,1-.75.37,3,3,0,0,1-1,.14,2.45,2.45,0,0,1-1-.18,1.77,1.77,0,0,1-.68-.52,2.33,2.33,0,0,1-.4-.82,4.38,4.38,0,0,1-.12-1.07,2.86,2.86,0,0,1,.56-1.92,2,2,0,0,1,1.61-.67,3.07,3.07,0,0,1,.67.08,1.39,1.39,0,0,1,.6.28,1.43,1.43,0,0,1,.44.59,2.53,2.53,0,0,1,.17,1,4.76,4.76,0,0,1-.06.72H39.75a3.5,3.5,0,0,0,.08.77,1.52,1.52,0,0,0,.28.57,1.18,1.18,0,0,0,.49.36,2.13,2.13,0,0,0,1.41,0,1.53,1.53,0,0,0,.5-.27Zm-1.7-4a1.37,1.37,0,0,0-.93.3,1.51,1.51,0,0,0-.42,1h2.45a1.52,1.52,0,0,0-.29-1A1.06,1.06,0,0,0,41.11,90Z"/><path class="a" d="M46.4,93a.59.59,0,0,0-.18-.46,1.53,1.53,0,0,0-.44-.29L45.21,92a2.8,2.8,0,0,1-.58-.27,1.6,1.6,0,0,1-.44-.42,1.18,1.18,0,0,1-.17-.69,1.25,1.25,0,0,1,.4-1,1.69,1.69,0,0,1,1.13-.34,3.7,3.7,0,0,1,.89.1,3.09,3.09,0,0,1,.63.22l-.19.65a3.48,3.48,0,0,0-.55-.19,2.49,2.49,0,0,0-.68-.08,1.17,1.17,0,0,0-.64.14.59.59,0,0,0-.2.52A.51.51,0,0,0,45,91a2.56,2.56,0,0,0,.44.26l.58.22a2.75,2.75,0,0,1,.57.28,1.71,1.71,0,0,1,.44.45,1.3,1.3,0,0,1,.18.72,1.63,1.63,0,0,1-.11.59,1.13,1.13,0,0,1-.32.48,1.56,1.56,0,0,1-.54.31,2.37,2.37,0,0,1-.75.11,3.33,3.33,0,0,1-1-.11,2.76,2.76,0,0,1-.66-.25l.23-.68a3,3,0,0,0,1.34.35,1.34,1.34,0,0,0,.7-.17A.65.65,0,0,0,46.4,93Z"/><path class="a" d="M49.63,92.11h-.46v2.22h-.79V87.42h.79v4.21l.41-.14,1.53-2.1H52l-1.51,2-.41.33.5.39,1.65,2.23h-1Z"/><path class="a" d="M52.46,89.39h.78v-1l.79-.22v1.2h1.34v.69H54v2.74a1.6,1.6,0,0,0,.12.73.49.49,0,0,0,.44.21,1.69,1.69,0,0,0,.43-.05l.4-.15.18.61a3.14,3.14,0,0,1-.59.2,2.44,2.44,0,0,1-.68.08,1,1,0,0,1-.85-.34A2.06,2.06,0,0,1,53.24,93V90.08h-.78Z"/><path class="a" d="M56.08,91.86a3,3,0,0,1,.56-1.92,2,2,0,0,1,1.61-.67,2.35,2.35,0,0,1,1,.19,1.75,1.75,0,0,1,.68.52,2.31,2.31,0,0,1,.39.82,3.9,3.9,0,0,1,.13,1.06,3,3,0,0,1-.56,1.93,2,2,0,0,1-1.6.66,2.43,2.43,0,0,1-1-.18,1.73,1.73,0,0,1-.67-.52,2.33,2.33,0,0,1-.4-.82A4,4,0,0,1,56.08,91.86Zm.82,0a3.38,3.38,0,0,0,.08.72,1.76,1.76,0,0,0,.23.61,1.15,1.15,0,0,0,.41.41,1.14,1.14,0,0,0,.63.16c.89,0,1.34-.63,1.34-1.9a3.48,3.48,0,0,0-.07-.73,1.8,1.8,0,0,0-.24-.6,1.15,1.15,0,0,0-.41-.41,1.21,1.21,0,0,0-.62-.15Q56.9,90,56.9,91.86Z"/><path class="a" d="M61.66,89.39h.54l.15.6h0a1.44,1.44,0,0,1,.59-.53,2,2,0,0,1,2.29.4,2.93,2.93,0,0,1,.49,1.9,3.62,3.62,0,0,1-.17,1.13,2.28,2.28,0,0,1-.46.84,2,2,0,0,1-.71.54,2.35,2.35,0,0,1-.94.18,2.91,2.91,0,0,1-.57,0,1.8,1.8,0,0,1-.46-.16v2.06h-.79Zm2,.58a1.11,1.11,0,0,0-.79.26,1.42,1.42,0,0,0-.41.79v2.45a1.11,1.11,0,0,0,.4.22,2,2,0,0,0,.6.07,1.32,1.32,0,0,0,1.09-.51,2.44,2.44,0,0,0,.4-1.5,4,4,0,0,0-.07-.73,1.68,1.68,0,0,0-.22-.56,1.18,1.18,0,0,0-.4-.37A1.34,1.34,0,0,0,63.65,90Z"/><path class="a" d="M72.12,87.3l.62.27-3.6,8.15-.63-.28Z"/><path class="a" d="M81.17,89.69l.1-1h0l-.37.95-1.8,3.12H78.8l-1.91-3.13-.35-.94h-.05l.14,1v4.65h-.77V87.42h.61L78.63,91l.33.77h0l.31-.79,2.06-3.51H82v6.91h-.82Z"/><path class="a" d="M83.32,91.86a2.89,2.89,0,0,1,.56-1.92,2,2,0,0,1,1.6-.67,2.43,2.43,0,0,1,1,.19,1.65,1.65,0,0,1,.67.52,2.33,2.33,0,0,1,.4.82,4.33,4.33,0,0,1,.13,1.06,3,3,0,0,1-.56,1.93,2,2,0,0,1-1.61.66,2.35,2.35,0,0,1-1-.18,1.85,1.85,0,0,1-.68-.52,2.15,2.15,0,0,1-.39-.82A4,4,0,0,1,83.32,91.86Zm.82,0a3.38,3.38,0,0,0,.07.72,2,2,0,0,0,.23.61,1.27,1.27,0,0,0,.42.41,1.12,1.12,0,0,0,.62.16c.9,0,1.35-.63,1.35-1.9a3.47,3.47,0,0,0-.08-.73,1.79,1.79,0,0,0-.23-.6,1.24,1.24,0,0,0-.41-.41,1.25,1.25,0,0,0-.63-.15C84.59,90,84.14,90.59,84.14,91.86Z"/><path class="a" d="M88.89,87.42h.79v2.46h0a1.62,1.62,0,0,1,.58-.45,1.93,1.93,0,0,1,.77-.16,1.7,1.7,0,0,1,1.43.62A3.06,3.06,0,0,1,93,91.78a2.78,2.78,0,0,1-.63,2,2.31,2.31,0,0,1-1.78.67,3.86,3.86,0,0,1-1-.12,2.45,2.45,0,0,1-.68-.25Zm2,2.55a1.16,1.16,0,0,0-.8.27,1.58,1.58,0,0,0-.45.78v2.49a1.47,1.47,0,0,0,.46.17,3.21,3.21,0,0,0,.55,0,1.33,1.33,0,0,0,1.07-.47,2.27,2.27,0,0,0,.4-1.49,3.38,3.38,0,0,0-.07-.72,1.61,1.61,0,0,0-.21-.57,1.25,1.25,0,0,0-.38-.38A1.14,1.14,0,0,0,90.93,90Z"/><path class="a" d="M94.23,87.89a.56.56,0,0,1,.15-.39.5.5,0,0,1,.39-.16.56.56,0,0,1,.41.16.54.54,0,0,1,.17.39.5.5,0,0,1-.17.38.64.64,0,0,1-.41.14.56.56,0,0,1-.39-.14A.52.52,0,0,1,94.23,87.89Zm.17,1.5h.79v4.94H94.4Z"/><path class="a" d="M97.76,93.12a.86.86,0,0,0,.11.49.42.42,0,0,0,.34.15l.28,0a1.17,1.17,0,0,0,.33-.09l.09.62a1.28,1.28,0,0,1-.44.13,2.32,2.32,0,0,1-.49,0,1.06,1.06,0,0,1-.73-.25,1.09,1.09,0,0,1-.28-.85V87.42h.79Z"/><path class="a" d="M103.37,93.94a2.19,2.19,0,0,1-.75.37,3,3,0,0,1-1,.14,2.45,2.45,0,0,1-1-.18,1.77,1.77,0,0,1-.68-.52,2.33,2.33,0,0,1-.4-.82,4.38,4.38,0,0,1-.12-1.07,2.86,2.86,0,0,1,.56-1.92,2,2,0,0,1,1.61-.67,3.07,3.07,0,0,1,.67.08,1.39,1.39,0,0,1,.6.28,1.43,1.43,0,0,1,.44.59,2.53,2.53,0,0,1,.17,1,4.76,4.76,0,0,1-.06.72h-3.17a3,3,0,0,0,.09.77,1.37,1.37,0,0,0,.27.57,1.18,1.18,0,0,0,.49.36,2,2,0,0,0,.74.12,2,2,0,0,0,.67-.12,1.53,1.53,0,0,0,.5-.27Zm-1.7-4a1.37,1.37,0,0,0-.93.3,1.51,1.51,0,0,0-.42,1h2.45a1.52,1.52,0,0,0-.29-1A1.06,1.06,0,0,0,101.67,90Z"/><path class="a" d="M110.47,92.42h-2.54l-.69,1.91h-.82l2.62-7h.38l2.63,7h-.87Zm-2.27-.71h2l-.76-2.11-.25-1h0L109,89.62Z"/><path class="a" d="M112.89,89.39h.54l.15.6h0a1.5,1.5,0,0,1,.59-.53,2,2,0,0,1,2.29.4,2.93,2.93,0,0,1,.49,1.9,4,4,0,0,1-.16,1.13,2.6,2.6,0,0,1-.46.84,2.13,2.13,0,0,1-.72.54,2.34,2.34,0,0,1-.93.18,3,3,0,0,1-.58,0,2,2,0,0,1-.46-.16v2.06h-.79Zm2,.58a1.11,1.11,0,0,0-.79.26,1.42,1.42,0,0,0-.41.79v2.45a1.2,1.2,0,0,0,.4.22,2,2,0,0,0,.61.07,1.31,1.31,0,0,0,1.08-.51,2.44,2.44,0,0,0,.4-1.5,4,4,0,0,0-.07-.73,1.68,1.68,0,0,0-.22-.56,1.18,1.18,0,0,0-.4-.37A1.34,1.34,0,0,0,114.88,90Z"/><path class="a" d="M118.23,89.39h.55l.15.6h0a1.57,1.57,0,0,1,.59-.53,1.85,1.85,0,0,1,.83-.19,1.79,1.79,0,0,1,1.47.59,3,3,0,0,1,.48,1.9,3.63,3.63,0,0,1-.16,1.13,2.43,2.43,0,0,1-.46.84,2.1,2.1,0,0,1-.71.54,2.39,2.39,0,0,1-.94.18,3.09,3.09,0,0,1-.58,0,2.11,2.11,0,0,1-.46-.16v2.06h-.79Zm2,.58a1.14,1.14,0,0,0-.8.26A1.48,1.48,0,0,0,119,91v2.45a1.25,1.25,0,0,0,.41.22,2,2,0,0,0,.6.07,1.28,1.28,0,0,0,1.08-.51,2.37,2.37,0,0,0,.4-1.5,4.07,4.07,0,0,0-.06-.73,1.5,1.5,0,0,0-.23-.56,1.06,1.06,0,0,0-.39-.37A1.34,1.34,0,0,0,120.23,90Z"/><path class="a" d="M125.82,93a.59.59,0,0,0-.18-.46,1.53,1.53,0,0,0-.44-.29l-.58-.21a3,3,0,0,1-.57-.27,1.6,1.6,0,0,1-.44-.42,1.18,1.18,0,0,1-.18-.69,1.26,1.26,0,0,1,.41-1,1.67,1.67,0,0,1,1.12-.34,3.73,3.73,0,0,1,.9.1,3.09,3.09,0,0,1,.63.22l-.19.65a3.87,3.87,0,0,0-.55-.19,2.51,2.51,0,0,0-.69-.08,1.13,1.13,0,0,0-.63.14.59.59,0,0,0-.21.52.49.49,0,0,0,.18.4,2.56,2.56,0,0,0,.44.26l.57.22a2.83,2.83,0,0,1,.58.28,1.71,1.71,0,0,1,.44.45,1.3,1.3,0,0,1,.18.72,1.63,1.63,0,0,1-.11.59,1.13,1.13,0,0,1-.32.48,1.56,1.56,0,0,1-.54.31,2.37,2.37,0,0,1-.75.11,3.33,3.33,0,0,1-1-.11,2.61,2.61,0,0,1-.66-.25l.23-.68a2.48,2.48,0,0,0,.6.24,2.65,2.65,0,0,0,.74.11,1.37,1.37,0,0,0,.7-.17A.65.65,0,0,0,125.82,93Z"/><line class="b" x1="94.11" y1="49.2" x2="99.16" y2="49.2"/><line class="b" x1="66.49" y1="49.2" x2="86.5" y2="49.2"/><line class="b" x1="32.71" y1="41.54" x2="66.81" y2="41.54"/><rect class="b" x="65.78" y="38.63" width="33.57" height="33.57" rx="8.32"/><polyline class="b" points="80.19 30.97 86.56 30.97 86.56 38.34"/><polyline class="b" points="65.37 63.56 32.41 63.56 32.41 30.97 73.1 30.97"/><circle class="c" cx="36.56" cy="36.27" r="1.24"/><circle class="c" cx="41.31" cy="36.27" r="1.24"/><circle class="c" cx="45.93" cy="36.27" r="1.24"/></svg>