<?xml version="1.0" encoding="utf-8"?>
<!-- Generator: Adobe Illustrator 23.0.3, SVG Export Plug-In . SVG Version: 6.00 Build 0)  -->
<svg version="1.1" id="Layer_1" xmlns="http://www.w3.org/2000/svg" xmlns:xlink="http://www.w3.org/1999/xlink" x="0px" y="0px"
	 viewBox="0 0 130 130" style="enable-background:new 0 0 130 130;" xml:space="preserve">
<style type="text/css">
	.st0{fill:#FFFFFF;}
	.st1{fill:none;stroke:#1EB9D5;stroke-width:1.5;}
	.st2{fill:none;stroke:#FFE161;stroke-width:1.5;stroke-miterlimit:10;}
</style>
<g>
	<path class="st0" d="M23.9,91.4c-0.3,0.2-0.6,0.4-1.1,0.4S22,92,21.5,92c-0.6,0-1.1-0.1-1.7-0.3c-0.5-0.2-1-0.5-1.3-0.9
		c-0.4-0.4-0.7-0.9-0.9-1.6s-0.3-1.4-0.3-2.3c0-0.9,0.1-1.7,0.4-2.3c0.2-0.6,0.6-1.2,1-1.6c0.4-0.4,0.9-0.7,1.4-0.9
		c0.5-0.2,1-0.3,1.5-0.3c0.6,0,1,0,1.4,0.1c0.4,0.1,0.7,0.1,0.9,0.2l-0.3,1c-0.4-0.2-1.1-0.3-1.9-0.3c-0.4,0-0.8,0.1-1.1,0.2
		c-0.4,0.1-0.7,0.4-1,0.7c-0.3,0.3-0.5,0.7-0.7,1.2c-0.2,0.5-0.3,1.1-0.3,1.9c0,0.7,0.1,1.3,0.3,1.8s0.4,0.9,0.7,1.3s0.6,0.6,1,0.8
		c0.4,0.2,0.8,0.3,1.3,0.3c0.4,0,0.8,0,1.1-0.1c0.3-0.1,0.6-0.2,0.8-0.3L23.9,91.4z"/>
	<path class="st0" d="M24.7,88.3c0-1.2,0.3-2.1,0.8-2.7s1.3-0.9,2.3-0.9c0.5,0,1,0.1,1.4,0.3c0.4,0.2,0.7,0.4,1,0.7s0.4,0.7,0.6,1.2
		c0.1,0.5,0.2,1,0.2,1.5c0,1.2-0.3,2.1-0.8,2.7S28.7,92,27.7,92c-0.5,0-1-0.1-1.4-0.3c-0.4-0.2-0.7-0.4-1-0.7
		c-0.3-0.3-0.4-0.7-0.6-1.2C24.7,89.3,24.7,88.8,24.7,88.3z M25.8,88.3c0,0.4,0,0.7,0.1,1c0.1,0.3,0.2,0.6,0.3,0.9
		c0.1,0.2,0.3,0.4,0.6,0.6c0.2,0.1,0.5,0.2,0.9,0.2c1.3,0,1.9-0.9,1.9-2.7c0-0.4,0-0.7-0.1-1c-0.1-0.3-0.2-0.6-0.3-0.9
		c-0.1-0.2-0.3-0.4-0.6-0.6s-0.5-0.2-0.9-0.2C26.4,85.6,25.8,86.5,25.8,88.3z"/>
	<path class="st0" d="M36.6,91.8v-4c0-0.4,0-0.7,0-1s-0.1-0.5-0.2-0.7s-0.2-0.3-0.4-0.4c-0.2-0.1-0.4-0.1-0.7-0.1
		c-0.4,0-0.8,0.1-1.1,0.4s-0.5,0.6-0.6,1v4.8h-1.1v-7h0.8l0.2,0.9h0.1c0.3-0.3,0.5-0.5,0.9-0.7c0.3-0.2,0.8-0.3,1.3-0.3
		c0.4,0,0.8,0.1,1.1,0.3s0.5,0.5,0.7,0.9c0.2-0.4,0.5-0.6,0.9-0.9c0.4-0.2,0.8-0.3,1.3-0.3c0.4,0,0.7,0,1,0.1
		c0.3,0.1,0.5,0.2,0.7,0.5c0.2,0.2,0.3,0.5,0.4,0.9c0.1,0.4,0.1,0.9,0.1,1.5v4.2h-1.1v-4.2c0-0.3,0-0.6,0-0.9s-0.1-0.5-0.2-0.6
		c-0.1-0.2-0.2-0.3-0.4-0.4c-0.2-0.1-0.4-0.1-0.7-0.1c-0.5,0-0.8,0.1-1.1,0.4s-0.4,0.6-0.6,1.1v4.7H36.6z"/>
	<path class="st0" d="M48,91.8v-4c0-0.4,0-0.7,0-1s-0.1-0.5-0.2-0.7s-0.2-0.3-0.4-0.4c-0.2-0.1-0.4-0.1-0.7-0.1
		c-0.4,0-0.8,0.1-1.1,0.4s-0.5,0.6-0.6,1v4.8h-1.1v-7h0.8l0.2,0.9H45c0.3-0.3,0.5-0.5,0.9-0.7c0.3-0.2,0.8-0.3,1.3-0.3
		c0.4,0,0.8,0.1,1.1,0.3s0.5,0.5,0.7,0.9c0.2-0.4,0.5-0.6,0.9-0.9c0.4-0.2,0.8-0.3,1.3-0.3c0.4,0,0.7,0,1,0.1
		c0.3,0.1,0.5,0.2,0.7,0.5c0.2,0.2,0.3,0.5,0.4,0.9c0.1,0.4,0.1,0.9,0.1,1.5v4.2h-1.1v-4.2c0-0.3,0-0.6,0-0.9s-0.1-0.5-0.2-0.6
		c-0.1-0.2-0.2-0.3-0.4-0.4c-0.2-0.1-0.4-0.1-0.7-0.1c-0.5,0-0.8,0.1-1.1,0.4s-0.4,0.6-0.6,1.1v4.7H48z"/>
	<path class="st0" d="M56.3,84.8v4c0,0.4,0,0.7,0.1,1s0.1,0.5,0.2,0.7c0.1,0.2,0.2,0.3,0.4,0.4c0.2,0.1,0.4,0.1,0.7,0.1
		c0.3,0,0.5,0,0.7-0.1c0.2-0.1,0.4-0.2,0.5-0.3c0.2-0.1,0.3-0.3,0.4-0.5c0.1-0.2,0.2-0.4,0.3-0.6v-4.7h1.1v5c0,0.3,0,0.7,0,1
		c0,0.4,0.1,0.7,0.1,0.9h-0.8l-0.3-1.1h-0.1c-0.2,0.4-0.5,0.7-0.9,0.9C58.5,91.8,58,92,57.5,92c-0.4,0-0.7,0-1-0.1
		c-0.3-0.1-0.5-0.2-0.7-0.5c-0.2-0.2-0.3-0.5-0.4-0.9c-0.1-0.4-0.1-0.9-0.1-1.4v-4.2H56.3z"/>
	<path class="st0" d="M67.3,91.8v-4c0-0.7-0.1-1.3-0.3-1.6c-0.2-0.4-0.6-0.6-1.2-0.6c-0.5,0-0.9,0.1-1.2,0.4c-0.3,0.3-0.5,0.6-0.7,1
		v4.8h-1.1v-7h0.8l0.2,0.9h0.1c0.2-0.3,0.5-0.5,0.9-0.7c0.4-0.2,0.8-0.3,1.4-0.3c0.4,0,0.7,0,1,0.1c0.3,0.1,0.5,0.2,0.7,0.5
		c0.2,0.2,0.3,0.5,0.4,0.9c0.1,0.4,0.1,0.9,0.1,1.4v4.2H67.3z"/>
	<path class="st0" d="M70.5,82.7c0-0.2,0.1-0.4,0.2-0.6c0.1-0.2,0.3-0.2,0.6-0.2c0.2,0,0.4,0.1,0.6,0.2c0.2,0.2,0.2,0.3,0.2,0.6
		S72,83,71.8,83.2c-0.2,0.1-0.3,0.2-0.6,0.2c-0.2,0-0.4-0.1-0.6-0.2C70.6,83,70.5,82.9,70.5,82.7z M70.7,84.8h1.1v7h-1.1V84.8z"/>
	<path class="st0" d="M79,91.3c-0.3,0.2-0.6,0.4-1,0.5S77.2,92,76.8,92c-0.5,0-1-0.1-1.4-0.3s-0.7-0.4-0.9-0.7s-0.4-0.7-0.5-1.2
		c-0.1-0.5-0.2-1-0.2-1.5c0-1.2,0.3-2.1,0.8-2.7c0.5-0.6,1.3-0.9,2.3-0.9c0.4,0,0.8,0,1.1,0.1c0.3,0.1,0.6,0.2,0.8,0.3l-0.3,1
		c-0.2-0.1-0.5-0.2-0.7-0.3c-0.3-0.1-0.5-0.1-0.8-0.1c-1.3,0-2,0.9-2,2.7c0,0.4,0,0.7,0.1,1c0.1,0.3,0.2,0.6,0.4,0.9
		c0.2,0.2,0.4,0.4,0.6,0.6s0.6,0.2,1,0.2c0.3,0,0.6-0.1,0.9-0.2c0.3-0.1,0.5-0.2,0.7-0.4L79,91.3z"/>
	<path class="st0" d="M80.4,85.3c0.4-0.2,0.8-0.4,1.2-0.5c0.5-0.1,1-0.2,1.5-0.2c0.5,0,0.9,0.1,1.2,0.2s0.5,0.3,0.7,0.5
		c0.2,0.2,0.3,0.4,0.3,0.7c0.1,0.3,0.1,0.5,0.1,0.8c0,0.6,0,1.1,0,1.6c0,0.5,0,1,0,1.5c0,0.3,0,0.7,0,1c0,0.3,0.1,0.6,0.2,0.9h-0.8
		l-0.3-1h-0.1c-0.1,0.1-0.2,0.3-0.3,0.4s-0.3,0.2-0.5,0.3c-0.2,0.1-0.4,0.2-0.6,0.2c-0.2,0.1-0.5,0.1-0.8,0.1s-0.6,0-0.8-0.1
		c-0.3-0.1-0.5-0.2-0.7-0.4s-0.3-0.4-0.4-0.6c-0.1-0.2-0.2-0.5-0.2-0.8c0-0.4,0.1-0.8,0.3-1s0.4-0.5,0.7-0.7
		c0.3-0.2,0.7-0.3,1.1-0.3s0.9-0.1,1.4-0.1c0.1,0,0.3,0,0.4,0s0.3,0,0.4,0c0-0.3,0-0.5,0-0.8c0-0.5-0.1-0.9-0.3-1.1
		c-0.2-0.2-0.6-0.3-1.1-0.3c-0.2,0-0.3,0-0.5,0c-0.2,0-0.4,0.1-0.6,0.1s-0.4,0.1-0.5,0.2s-0.3,0.1-0.5,0.2L80.4,85.3z M82.4,90.9
		c0.3,0,0.5,0,0.7-0.1c0.2-0.1,0.4-0.2,0.5-0.3c0.1-0.1,0.3-0.2,0.4-0.4s0.2-0.3,0.2-0.4v-1.2c-0.1,0-0.3,0-0.4,0
		c-0.1,0-0.3,0-0.4,0c-0.3,0-0.6,0-0.8,0c-0.3,0-0.5,0.1-0.7,0.2s-0.4,0.2-0.5,0.4c-0.1,0.2-0.2,0.3-0.2,0.6c0,0.3,0.1,0.6,0.3,0.8
		S82.1,90.9,82.4,90.9z"/>
	<path class="st0" d="M86.6,84.8h1.1v-1.4l1.1-0.3v1.7h1.9v1h-1.9v3.9c0,0.5,0.1,0.8,0.2,1c0.1,0.2,0.3,0.3,0.6,0.3
		c0.2,0,0.4,0,0.6-0.1c0.2-0.1,0.4-0.1,0.6-0.2l0.3,0.9c-0.3,0.1-0.5,0.2-0.8,0.3c-0.3,0.1-0.6,0.1-1,0.1c-0.6,0-1-0.2-1.2-0.5
		c-0.2-0.3-0.4-0.9-0.4-1.6v-4.1h-1.1V84.8z"/>
	<path class="st0" d="M92.2,82.7c0-0.2,0.1-0.4,0.2-0.6c0.1-0.2,0.3-0.2,0.6-0.2s0.4,0.1,0.6,0.2c0.2,0.2,0.2,0.3,0.2,0.6
		s-0.1,0.4-0.2,0.5c-0.2,0.1-0.4,0.2-0.6,0.2s-0.4-0.1-0.6-0.2C92.3,83,92.2,82.9,92.2,82.7z M92.5,84.8h1.1v7h-1.1V84.8z"/>
	<path class="st0" d="M95.6,88.3c0-1.2,0.3-2.1,0.8-2.7s1.3-0.9,2.3-0.9c0.5,0,1,0.1,1.4,0.3c0.4,0.2,0.7,0.4,1,0.7s0.4,0.7,0.6,1.2
		s0.2,1,0.2,1.5c0,1.2-0.3,2.1-0.8,2.7c-0.5,0.6-1.3,0.9-2.3,0.9c-0.5,0-1-0.1-1.4-0.3s-0.7-0.4-1-0.7s-0.4-0.7-0.6-1.2
		C95.7,89.3,95.6,88.8,95.6,88.3z M96.8,88.3c0,0.4,0,0.7,0.1,1c0.1,0.3,0.2,0.6,0.3,0.9c0.1,0.2,0.3,0.4,0.6,0.6
		c0.2,0.1,0.5,0.2,0.9,0.2c1.3,0,1.9-0.9,1.9-2.7c0-0.4,0-0.7-0.1-1c-0.1-0.3-0.2-0.6-0.3-0.9c-0.1-0.2-0.3-0.4-0.6-0.6
		c-0.2-0.1-0.5-0.2-0.9-0.2C97.4,85.6,96.8,86.5,96.8,88.3z"/>
	<path class="st0" d="M108,91.8v-4c0-0.7-0.1-1.3-0.3-1.6c-0.2-0.4-0.6-0.6-1.2-0.6c-0.5,0-0.9,0.1-1.2,0.4s-0.5,0.6-0.7,1v4.8h-1.1
		v-7h0.8l0.2,0.9h0.1c0.2-0.3,0.5-0.5,0.9-0.7s0.8-0.3,1.4-0.3c0.4,0,0.7,0,1,0.1s0.5,0.2,0.7,0.5c0.2,0.2,0.3,0.5,0.4,0.9
		s0.1,0.9,0.1,1.4v4.2H108z"/>
	<path class="st0" d="M54.5,105.9h-3.6l-1,2.7h-1.2l3.7-10H53l3.7,10h-1.2L54.5,105.9z M51.3,104.9h2.9l-1.1-3l-0.3-1.5h0l-0.3,1.5
		L51.3,104.9z"/>
	<path class="st0" d="M57.9,101.6h0.8l0.2,0.8H59c0.2-0.3,0.5-0.6,0.8-0.7s0.7-0.3,1.2-0.3c0.9,0,1.6,0.3,2.1,0.8
		c0.5,0.6,0.7,1.5,0.7,2.7c0,0.6-0.1,1.1-0.2,1.6c-0.2,0.5-0.4,0.9-0.7,1.2c-0.3,0.3-0.6,0.6-1,0.8c-0.4,0.2-0.8,0.3-1.3,0.3
		c-0.3,0-0.6,0-0.8-0.1c-0.2,0-0.4-0.1-0.7-0.2v2.9h-1.1V101.6z M60.7,102.4c-0.5,0-0.9,0.1-1.1,0.4c-0.3,0.2-0.5,0.6-0.6,1.1v3.5
		c0.2,0.1,0.4,0.2,0.6,0.3s0.5,0.1,0.9,0.1c0.6,0,1.2-0.2,1.5-0.7c0.4-0.5,0.6-1.2,0.6-2.1c0-0.4,0-0.7-0.1-1
		c-0.1-0.3-0.2-0.6-0.3-0.8c-0.1-0.2-0.3-0.4-0.6-0.5S61.1,102.4,60.7,102.4z"/>
	<path class="st0" d="M65.5,101.6h0.8l0.2,0.8h0.1c0.2-0.3,0.5-0.6,0.8-0.7s0.7-0.3,1.2-0.3c0.9,0,1.6,0.3,2.1,0.8s0.7,1.5,0.7,2.7
		c0,0.6-0.1,1.1-0.2,1.6c-0.2,0.5-0.4,0.9-0.7,1.2c-0.3,0.3-0.6,0.6-1,0.8c-0.4,0.2-0.8,0.3-1.3,0.3c-0.3,0-0.6,0-0.8-0.1
		c-0.2,0-0.4-0.1-0.7-0.2v2.9h-1.1V101.6z M68.3,102.4c-0.5,0-0.9,0.1-1.1,0.4c-0.3,0.2-0.5,0.6-0.6,1.1v3.5
		c0.2,0.1,0.4,0.2,0.6,0.3s0.5,0.1,0.9,0.1c0.6,0,1.2-0.2,1.5-0.7c0.4-0.5,0.6-1.2,0.6-2.1c0-0.4,0-0.7-0.1-1
		c-0.1-0.3-0.2-0.6-0.3-0.8c-0.1-0.2-0.3-0.4-0.6-0.5S68.7,102.4,68.3,102.4z"/>
	<path class="st0" d="M76.1,106.7c0-0.3-0.1-0.5-0.3-0.7c-0.2-0.2-0.4-0.3-0.6-0.4c-0.2-0.1-0.5-0.2-0.8-0.3
		c-0.3-0.1-0.6-0.2-0.8-0.4c-0.2-0.2-0.5-0.4-0.6-0.6c-0.2-0.2-0.3-0.6-0.3-1c0-0.7,0.2-1.2,0.6-1.5c0.4-0.3,0.9-0.5,1.6-0.5
		c0.5,0,0.9,0,1.3,0.1s0.6,0.2,0.9,0.3l-0.3,0.9c-0.2-0.1-0.5-0.2-0.8-0.3c-0.3-0.1-0.6-0.1-1-0.1c-0.4,0-0.7,0.1-0.9,0.2
		c-0.2,0.1-0.3,0.4-0.3,0.7c0,0.2,0.1,0.4,0.3,0.6c0.2,0.1,0.4,0.3,0.6,0.4c0.2,0.1,0.5,0.2,0.8,0.3s0.6,0.2,0.8,0.4
		c0.2,0.2,0.5,0.4,0.6,0.6s0.3,0.6,0.3,1c0,0.3,0,0.6-0.1,0.8c-0.1,0.3-0.2,0.5-0.5,0.7s-0.5,0.3-0.8,0.4c-0.3,0.1-0.7,0.2-1.1,0.2
		c-0.5,0-1-0.1-1.4-0.2c-0.4-0.1-0.7-0.2-0.9-0.4l0.3-1c0.2,0.1,0.5,0.2,0.8,0.3s0.7,0.2,1,0.2c0.4,0,0.7-0.1,1-0.2
		C76,107.4,76.1,107.1,76.1,106.7z"/>
</g>
<title>globe3</title>
<path class="st1" d="M67.8,44.8c0,1.4-1.1,2.5-2.4,2.5c-1.4,0-2.5-1.1-2.5-2.4c0-1.4,1.1-2.5,2.4-2.5l0,0
	C66.7,42.3,67.8,43.4,67.8,44.8z"/>
<path class="st2" d="M72.1,35.9c-2.1-1.1-4.4-1.6-6.7-1.6c-2.3-0.1-4.6,0.5-6.6,1.6"/>
<path class="st2" d="M75.3,30.3c-3.1-1.5-6.6-2.3-10.1-2.2c-3.4-0.1-6.7,0.6-9.8,2.1"/>
<path class="st2" d="M58.7,35.9c2-1.1,4.3-1.6,6.6-1.6c2.3-0.1,4.7,0.5,6.7,1.6"/>
<path class="st2" d="M68.4,20.2c-1.1-0.1-2.2-0.1-3.4-0.1c-4.7-0.1-9.4,0.9-13.7,3.1"/>
<path class="st2" d="M79.3,23.4c-1.5-0.8-3.2-1.5-4.8-2"/>
<path class="st2" d="M55.4,30.2c3-1.5,6.4-2.2,9.8-2.1c3.5-0.1,7,0.7,10.1,2.2"/>
<polyline class="st1" points="57.1,75.2 65.2,49.2 72.5,75.2 "/>
<line class="st1" x1="58.5" y1="72" x2="69.3" y2="66.2"/>
<line class="st1" x1="71.5" y1="71.8" x2="60.7" y2="66.3"/>
<line class="st1" x1="61.3" y1="62.4" x2="68.8" y2="62.3"/>
</svg>
