<?xml version="1.0" encoding="utf-8"?>
<!-- Generator: Adobe Illustrator 23.0.3, SVG Export Plug-In . SVG Version: 6.00 Build 0)  -->
<svg version="1.1" id="Layer_1" xmlns="http://www.w3.org/2000/svg" xmlns:xlink="http://www.w3.org/1999/xlink" x="0px" y="0px"
	 viewBox="0 0 130 130" style="enable-background:new 0 0 130 130;" xml:space="preserve">
<style type="text/css">
	.st0{fill:#FFFFFF;}
	.st1{fill:none;stroke:#FFE161;stroke-width:1.5;stroke-miterlimit:10;}
	.st2{fill:none;stroke:#1EB9D5;stroke-width:1.5;}
</style>
<g>
	<path class="st0" d="M14.4,83.7h-4.1v3h4v1h-4v3.9h4.1v1H9.2v-10h5.2V83.7z"/>
	<path class="st0" d="M17.9,89.3l-2.3-2.9h1.3l1.6,2.1l1.6-2.1h1.3l-2.3,2.9l2.6,3.3h-1.3l-2-2.5l-2,2.5h-1.3L17.9,89.3z"/>
	<path class="st0" d="M27.8,88.2c-0.6-0.7-1.4-0.9-1.9-0.9c-1.2,0-2.2,0.8-2.2,2.3c0,1.5,1.1,2.3,2.2,2.3c0.6,0,1.4-0.3,2-1v1.3
		c-0.7,0.5-1.4,0.6-2,0.6c-1.9,0-3.3-1.4-3.3-3.3c0-1.9,1.4-3.3,3.3-3.3c1,0,1.6,0.4,1.9,0.6V88.2z"/>
	<path class="st0" d="M29.5,81.7h1.1v5.4c0.2-0.3,0.8-0.9,1.8-0.9c0.7,0,1.4,0.3,1.8,0.9c0.3,0.5,0.4,1,0.4,1.7v3.9h-1.1v-3.8
		c0-0.4,0-0.8-0.3-1.1c-0.2-0.3-0.5-0.4-1-0.4c-0.4,0-0.8,0.1-1.1,0.5c-0.4,0.5-0.4,1.2-0.4,1.7v3.3h-1.1V81.7z"/>
	<path class="st0" d="M41.3,86.4h1.1v6.2h-1.1v-0.9c-0.4,0.5-1,1.1-2.1,1.1c-1.6,0-3-1.1-3-3.3c0-2.1,1.4-3.3,3-3.3
		c1.2,0,1.8,0.7,2.1,1V86.4z M37.3,89.5c0,1.3,0.8,2.3,2,2.3c1.3,0,2.1-1.1,2.1-2.3c0-1.6-1.1-2.3-2.1-2.3
		C38.3,87.2,37.3,88,37.3,89.5z"/>
	<path class="st0" d="M44.5,86.4h1.1v0.7c0.2-0.3,0.8-0.9,1.8-0.9c0.7,0,1.4,0.3,1.8,0.9c0.3,0.5,0.4,1,0.4,1.7v3.9h-1.1v-3.8
		c0-0.4,0-0.8-0.3-1.1c-0.2-0.3-0.5-0.4-1-0.4c-0.4,0-0.8,0.1-1.1,0.5c-0.4,0.5-0.4,1.2-0.4,1.7v3.3h-1.1V86.4z"/>
	<path class="st0" d="M56.3,86.4h1.1v6.1c0,0.7,0,1.6-0.6,2.4c-0.5,0.6-1.3,1.2-2.5,1.2c-1.1,0-1.8-0.4-2.2-0.8s-0.8-1.1-0.8-2h1.1
		c0,0.5,0.2,1,0.5,1.3c0.5,0.5,1,0.6,1.5,0.6c0.8,0,1.3-0.3,1.6-0.9c0.3-0.5,0.3-1.1,0.3-1.6v-0.9c-0.4,0.5-1,1.1-2.1,1.1
		c-0.9,0-1.6-0.4-2.1-0.8c-0.4-0.4-0.9-1.2-0.9-2.5c0-1.2,0.5-2,0.9-2.4c0.5-0.5,1.3-0.8,2.1-0.8c0.9,0,1.6,0.4,2.1,1V86.4z
		 M52.9,87.8c-0.5,0.5-0.6,1.2-0.6,1.7c0,0.5,0.1,1.3,0.7,1.8c0.3,0.3,0.8,0.5,1.3,0.5s1-0.2,1.4-0.5c0.4-0.4,0.7-1.1,0.7-1.8
		c0-0.7-0.3-1.4-0.7-1.8c-0.3-0.3-0.9-0.6-1.4-0.6C53.6,87.2,53.2,87.5,52.9,87.8z"/>
	<path class="st0" d="M64.9,91.1c-0.2,0.3-0.4,0.7-0.8,1c-0.6,0.5-1.3,0.8-2.1,0.8c-1.5,0-3.1-0.9-3.1-3.3c0-1.9,1.1-3.3,3-3.3
		c1.2,0,2,0.6,2.4,1.1c0.4,0.6,0.6,1.5,0.6,2.3h-4.8c0,1.3,0.9,2.1,2,2.1c0.5,0,0.9-0.2,1.3-0.5c0.3-0.2,0.5-0.6,0.6-0.9L64.9,91.1z
		 M63.8,88.9c-0.2-1-0.9-1.6-1.8-1.6c-0.9,0-1.7,0.7-1.8,1.6H63.8z"/>
	<path class="st0" d="M71.5,86.7h5.1v-4.1h1.1v10h-1.1v-4.9h-5.1v4.9h-1.1v-10h1.1V86.7z"/>
	<path class="st0" d="M79.6,89.6c0-1.9,1.4-3.3,3.3-3.3s3.3,1.4,3.3,3.3c0,1.9-1.4,3.3-3.3,3.3S79.6,91.5,79.6,89.6z M80.8,89.6
		c0,1.5,1.1,2.3,2.2,2.3c1.1,0,2.2-0.8,2.2-2.3c0-1.5-1-2.3-2.2-2.3S80.8,88,80.8,89.6z"/>
	<path class="st0" d="M89,90.1c0,0.4,0,0.9,0.3,1.3c0.2,0.2,0.5,0.5,1.1,0.5c0.6,0,0.9-0.3,1.1-0.5c0.3-0.4,0.3-0.9,0.3-1.3v-3.6
		h1.1v3.8c0,0.8-0.1,1.3-0.6,1.9c-0.6,0.6-1.3,0.8-1.9,0.8c-0.6,0-1.3-0.2-1.9-0.8c-0.5-0.5-0.6-1.1-0.6-1.9v-3.8H89V90.1z"/>
	<path class="st0" d="M97.4,87.9c-0.2-0.4-0.5-0.6-0.9-0.6c-0.4,0-0.8,0.2-0.8,0.7c0,0.5,0.3,0.6,1,0.9c0.9,0.4,1.3,0.7,1.6,1
		c0.3,0.3,0.3,0.7,0.3,1c0,1.3-0.9,2-2.1,2c-0.3,0-1.7,0-2.2-1.6l0.9-0.4c0.1,0.3,0.5,1,1.3,1c0.7,0,1-0.5,1-1c0-0.6-0.4-0.8-1-1
		c-0.8-0.3-1.2-0.6-1.5-0.9c-0.2-0.3-0.3-0.6-0.3-0.9c0-1.1,0.8-1.7,1.8-1.7c0.3,0,1.2,0.1,1.7,1.1L97.4,87.9z"/>
	<path class="st0" d="M105.7,91.1c-0.2,0.3-0.5,0.7-0.8,1c-0.6,0.5-1.3,0.8-2.1,0.8c-1.5,0-3.1-0.9-3.1-3.3c0-1.9,1.1-3.3,3-3.3
		c1.2,0,2,0.6,2.4,1.1c0.4,0.6,0.6,1.5,0.6,2.3h-4.8c0,1.3,0.9,2.1,2,2.1c0.5,0,0.9-0.2,1.3-0.5c0.3-0.2,0.5-0.6,0.6-0.9L105.7,91.1
		z M104.6,88.9c-0.2-1-0.9-1.6-1.8-1.6s-1.7,0.7-1.8,1.6H104.6z"/>
	<path class="st0" d="M109.9,87.9c-0.1-0.4-0.5-0.6-0.9-0.6c-0.4,0-0.8,0.2-0.8,0.7c0,0.5,0.3,0.6,1,0.9c0.9,0.4,1.3,0.7,1.6,1
		c0.3,0.3,0.3,0.7,0.3,1c0,1.3-0.9,2-2.1,2c-0.3,0-1.6,0-2.2-1.6l0.9-0.4c0.1,0.3,0.5,1,1.3,1c0.7,0,1-0.5,1-1c0-0.6-0.4-0.8-1-1
		c-0.8-0.3-1.2-0.6-1.5-0.9c-0.2-0.3-0.3-0.6-0.3-0.9c0-1.1,0.8-1.7,1.8-1.7c0.3,0,1.2,0.1,1.7,1.1L109.9,87.9z"/>
	<path class="st0" d="M122.8,81.3l0.9,0.5L116,95.6l-0.9-0.4L122.8,81.3z"/>
	<path class="st0" d="M51.8,100.6c0.6,0,1.6,0,2.3,0.6c0.3,0.2,0.9,0.9,0.9,2.1c0,0.5-0.1,1.4-1,2c1.4,0.3,1.9,1.6,1.9,2.5
		s-0.5,1.7-1,2.2c-0.8,0.6-1.7,0.7-2.4,0.7H50v-10H51.8z M51.1,105h0.8c0.6,0,2-0.1,2-1.7c0-1.7-1.6-1.7-1.9-1.7h-0.9V105z
		 M51.1,109.6h1.3c0.6,0,1.3,0,1.8-0.4c0.4-0.3,0.7-0.8,0.7-1.4c0-0.8-0.5-1.3-0.9-1.5c-0.4-0.2-0.9-0.3-1.7-0.3h-1.1V109.6z"/>
	<path class="st0" d="M62.4,104.4h1.1v6.2h-1.1v-0.9c-0.4,0.5-1,1.1-2.1,1.1c-1.6,0-3-1.1-3-3.3c0-2.1,1.4-3.3,3-3.3
		c1.2,0,1.8,0.7,2.1,1V104.4z M58.4,107.5c0,1.3,0.8,2.3,2,2.3c1.3,0,2.1-1.1,2.1-2.3c0-1.6-1.1-2.3-2.1-2.3
		C59.4,105.2,58.4,106,58.4,107.5z"/>
	<path class="st0" d="M65.6,104.4h1.1v0.7c0.2-0.3,0.8-0.9,1.8-0.9c0.7,0,1.4,0.3,1.8,0.9c0.3,0.5,0.4,1,0.4,1.7v3.9h-1.1v-3.8
		c0-0.4,0-0.8-0.3-1.1c-0.2-0.3-0.5-0.4-1-0.4c-0.4,0-0.8,0.1-1.1,0.5c-0.4,0.5-0.5,1.2-0.5,1.7v3.3h-1.1V104.4z"/>
	<path class="st0" d="M73.7,99.7v7l2.3-2.3h1.4l-2.7,2.7l3.1,3.6h-1.4l-2.5-2.8l-0.3,0.3v2.6h-1.1V99.7H73.7z"/>
	<path class="st0" d="M81.5,105.9c-0.2-0.4-0.5-0.6-0.9-0.6c-0.4,0-0.8,0.2-0.8,0.7c0,0.5,0.3,0.6,1,0.9c0.9,0.4,1.3,0.7,1.6,1
		c0.3,0.3,0.3,0.7,0.3,1c0,1.3-0.9,2-2.1,2c-0.3,0-1.7,0-2.2-1.6l0.9-0.4c0.1,0.3,0.5,1,1.3,1c0.7,0,1-0.5,1-1c0-0.6-0.4-0.8-1-1
		c-0.8-0.3-1.2-0.6-1.5-0.9c-0.2-0.3-0.3-0.6-0.3-0.9c0-1.1,0.8-1.7,1.8-1.7c0.3,0,1.2,0.1,1.7,1.1L81.5,105.9z"/>
</g>
<line class="st1" x1="46.5" y1="43.5" x2="46.8" y2="37.6"/>
<line class="st1" x1="45.9" y1="59.8" x2="46.4" y2="48.4"/>
<line class="st1" x1="83.1" y1="51.3" x2="82.6" y2="37.6"/>
<line class="st1" x1="83.4" y1="59.8" x2="83.2" y2="56"/>
<line class="st1" x1="77.2" y1="59.8" x2="78" y2="37.3"/>
<line class="st1" x1="51.1" y1="37.3" x2="51.9" y2="59.8"/>
<line class="st1" x1="62.1" y1="59.8" x2="63" y2="37.6"/>
<line class="st1" x1="67.3" y1="37.3" x2="68.1" y2="59.8"/>
<title>globe4</title>
<polygon class="st2" points="40.2,37.2 65.3,29.2 89.2,37.2 "/>
<rect x="44.5" y="59.8" class="st2" width="40.3" height="4.2"/>
<rect x="41" y="67.6" class="st2" width="47.4" height="4.2"/>
</svg>
