<?xml version="1.0" encoding="utf-8"?>
<!-- Generator: Adobe Illustrator 23.0.3, SVG Export Plug-In . SVG Version: 6.00 Build 0)  -->
<svg version="1.1" id="Layer_1" xmlns="http://www.w3.org/2000/svg" xmlns:xlink="http://www.w3.org/1999/xlink" x="0px" y="0px"
	 viewBox="0 0 130 130" style="enable-background:new 0 0 130 130;" xml:space="preserve">
<style type="text/css">
	.st0{fill:none;stroke:#1EB9D5;stroke-width:1.5;}
	.st1{fill:#FFFFFF;}
</style>
<title>globe4</title>
<polygon class="st0" points="40.2,37.2 65.3,29.2 89.2,37.2 "/>
<line class="st0" x1="46.5" y1="43.5" x2="46.8" y2="37.6"/>
<line class="st0" x1="45.9" y1="59.8" x2="46.4" y2="48.4"/>
<line class="st0" x1="83.1" y1="51.3" x2="82.6" y2="37.6"/>
<line class="st0" x1="83.4" y1="59.8" x2="83.2" y2="56"/>
<rect x="44.5" y="59.8" class="st0" width="40.3" height="4.2"/>
<rect x="41" y="67.6" class="st0" width="47.4" height="4.2"/>
<line class="st0" x1="77.2" y1="59.8" x2="78" y2="37.3"/>
<line class="st0" x1="51.1" y1="37.3" x2="51.9" y2="59.8"/>
<line class="st0" x1="62.1" y1="59.8" x2="63" y2="37.6"/>
<line class="st0" x1="67.3" y1="37.3" x2="68.1" y2="59.8"/>
<g>
	<path class="st1" d="M20.7,94.6h-3.9v-7h3.9v0.7h-3.1v2.3h2.9v0.7h-2.9v2.6h3.1V94.6z"/>
	<path class="st1" d="M26.9,94.6H26l-1.9-3.1l-2,3.1h-0.8l2.4-3.7l-2.2-3.3h0.9l1.8,2.8l1.8-2.8h0.8l-2.2,3.3L26.9,94.6z"/>
	<path class="st1" d="M30.9,88.2c-0.7,0-1.3,0.2-1.9,0.7c-0.5,0.5-0.6,1.2-0.6,2.1c0,0.9,0.2,1.7,0.6,2.2c0.4,0.5,1,0.7,1.9,0.7
		c0.5,0,1-0.1,1.7-0.3v0.7c-0.5,0.2-1.1,0.3-1.8,0.3c-1,0-1.9-0.3-2.4-0.9c-0.5-0.6-0.8-1.5-0.8-2.7c0-0.7,0.1-1.3,0.4-1.9
		c0.3-0.5,0.6-0.9,1.1-1.2c0.5-0.3,1.1-0.4,1.8-0.4c0.7,0,1.3,0.1,2,0.4l-0.3,0.7C32,88.3,31.4,88.2,30.9,88.2z"/>
	<path class="st1" d="M39.5,94.6h-0.8v-3.3h-3.7v3.3h-0.8v-7h0.8v3h3.7v-3h0.8V94.6z"/>
	<path class="st1" d="M45.8,94.6L45,92.3h-2.8l-0.8,2.3h-0.8l2.8-7H44l2.8,7H45.8z M44.6,91.6l-0.8-2.2c-0.1-0.3-0.2-0.6-0.3-1
		c-0.1,0.3-0.2,0.6-0.3,1l-0.8,2.2H44.6z"/>
	<path class="st1" d="M53.1,94.6h-0.9l-3.8-5.9l0,0c0,0.7,0.1,1.3,0.1,1.9v4h-0.7v-7h0.9l3.8,5.9l0,0c0-0.1,0-0.4,0-0.8
		c0-0.5,0-0.8,0-1v-4h0.7v7H53.1z"/>
	<path class="st1" d="M58.1,90.9h2.4v3.4c-0.4,0.1-0.7,0.2-1.1,0.3c-0.4,0.1-0.8,0.1-1.3,0.1c-1,0-1.9-0.3-2.5-0.9
		c-0.5-0.6-0.8-1.5-0.8-2.7c0-0.7,0.1-1.3,0.4-2c0.3-0.5,0.7-0.9,1.2-1.2s1.2-0.4,2-0.4c0.7,0,1.4,0.1,2.1,0.4L60,88.6
		c-0.6-0.3-1.2-0.4-1.9-0.4c-0.8,0-1.5,0.2-2,0.7c-0.4,0.5-0.7,1.2-0.7,2.1c0,0.9,0.2,1.7,0.7,2.2c0.4,0.5,1.1,0.7,2.1,0.7
		c0.5,0,0.9-0.1,1.4-0.2v-2.2h-1.7V90.9z"/>
	<path class="st1" d="M66.1,94.6h-3.9v-7h3.9v0.7H63v2.3h2.9v0.7H63v2.6h3.1V94.6z"/>
	<path class="st1" d="M75.5,94.6h-0.8v-3.3H71v3.3h-0.8v-7H71v3h3.7v-3h0.8V94.6z"/>
	<path class="st1" d="M83.5,91.1c0,1.1-0.3,2-0.8,2.7c-0.5,0.6-1.3,0.9-2.4,0.9s-1.9-0.3-2.4-0.9c-0.5-0.6-0.8-1.5-0.8-2.7
		s0.3-2.1,0.8-2.7c0.5-0.6,1.3-0.9,2.4-0.9s1.8,0.3,2.4,0.9C83.2,89,83.5,90,83.5,91.1z M77.9,91.1c0,0.9,0.2,1.7,0.6,2.2
		c0.4,0.5,1,0.7,1.8,0.7c0.8,0,1.3-0.2,1.8-0.7c0.4-0.5,0.6-1.2,0.6-2.2s-0.2-1.7-0.6-2.2c-0.4-0.5-0.9-0.7-1.8-0.7
		c-0.8,0-1.3,0.2-1.8,0.7C78.1,89.5,77.9,90.2,77.9,91.1z"/>
	<path class="st1" d="M90.4,87.6v4.5c0,0.8-0.2,1.4-0.7,1.9c-0.5,0.4-1.1,0.7-2,0.7s-1.5-0.2-2-0.7c-0.4-0.4-0.7-1.1-0.7-1.9v-4.5
		h0.8v4.5c0,0.6,0.2,1,0.5,1.3c0.3,0.3,0.8,0.5,1.4,0.5c0.6,0,1-0.2,1.3-0.5c0.3-0.3,0.5-0.7,0.5-1.3v-4.5H90.4z"/>
	<path class="st1" d="M96.1,92.8c0,0.6-0.2,1.1-0.7,1.4c-0.5,0.3-1,0.5-1.9,0.5c-0.8,0-1.4-0.1-2-0.3v-0.8c0.3,0.1,0.6,0.2,0.9,0.3
		c0.3,0.1,0.7,0.1,1,0.1c0.5,0,0.9-0.1,1.2-0.3s0.4-0.5,0.4-0.8c0-0.2,0-0.4-0.1-0.6c-0.1-0.2-0.3-0.3-0.5-0.4
		c-0.2-0.1-0.6-0.3-1-0.4c-0.6-0.2-1.1-0.5-1.4-0.8c-0.3-0.3-0.4-0.7-0.4-1.2c0-0.5,0.2-0.9,0.6-1.2c0.4-0.3,0.9-0.5,1.7-0.5
		s1.3,0.1,2,0.4l-0.2,0.7c-0.6-0.2-1.1-0.4-1.7-0.4c-0.4,0-0.7,0.1-1,0.3s-0.4,0.4-0.4,0.7c0,0.2,0,0.4,0.1,0.6s0.2,0.3,0.4,0.4
		c0.2,0.1,0.5,0.3,0.9,0.4c0.7,0.3,1.2,0.5,1.5,0.8C96,91.8,96.1,92.2,96.1,92.8z"/>
	<path class="st1" d="M101.5,94.6h-3.9v-7h3.9v0.7h-3.1v2.3h2.9v0.7h-2.9v2.6h3.1V94.6z"/>
	<path class="st1" d="M107,92.8c0,0.6-0.2,1.1-0.7,1.4c-0.5,0.3-1,0.5-1.9,0.5s-1.4-0.1-2-0.3v-0.8c0.3,0.1,0.6,0.2,0.9,0.3
		c0.3,0.1,0.7,0.1,1,0.1c0.5,0,0.9-0.1,1.2-0.3s0.4-0.5,0.4-0.8c0-0.2,0-0.4-0.1-0.6c-0.1-0.2-0.3-0.3-0.5-0.4s-0.6-0.3-1-0.4
		c-0.6-0.2-1.1-0.5-1.4-0.8c-0.3-0.3-0.4-0.7-0.4-1.2c0-0.5,0.2-0.9,0.6-1.2c0.4-0.3,0.9-0.5,1.7-0.5c0.7,0,1.3,0.1,2,0.4l-0.2,0.6
		c-0.6-0.2-1.1-0.4-1.7-0.4c-0.4,0-0.7,0.1-1,0.3c-0.3,0.2-0.4,0.4-0.4,0.7c0,0.2,0,0.4,0.1,0.6s0.2,0.3,0.4,0.4
		c0.2,0.1,0.5,0.3,0.9,0.4c0.7,0.3,1.2,0.5,1.5,0.8C106.9,91.8,107,92.2,107,92.8z"/>
	<path class="st1" d="M113.6,87.6l-2.6,7h-0.8l2.6-7H113.6z"/>
	<path class="st1" d="M49.4,101.2h2c0.9,0,1.7,0.1,2.1,0.4c0.4,0.3,0.6,0.7,0.6,1.3c0,0.4-0.1,0.7-0.3,1c-0.2,0.3-0.6,0.4-1,0.5l0,0
		c1,0.2,1.5,0.7,1.5,1.7c0,0.6-0.2,1.1-0.6,1.4c-0.4,0.3-1,0.5-1.8,0.5h-2.5V101.2z M50.2,104.2h1.3c0.6,0,1-0.1,1.2-0.3
		c0.2-0.2,0.4-0.5,0.4-0.9c0-0.4-0.1-0.7-0.4-0.8c-0.3-0.1-0.7-0.3-1.3-0.3h-1.2V104.2z M50.2,104.9v2.6h1.4c0.5,0,1-0.1,1.2-0.3
		c0.2-0.2,0.4-0.5,0.4-1c0-0.4-0.1-0.7-0.4-0.9c-0.3-0.2-0.7-0.3-1.3-0.3C51.5,104.9,50.2,104.9,50.2,104.9z"/>
	<path class="st1" d="M60.1,108.2l-0.8-2.3h-2.8l-0.8,2.3h-0.8l2.8-7h0.7l2.8,7H60.1z M59,105.2l-0.8-2.2c-0.1-0.3-0.2-0.6-0.3-1
		c-0.1,0.3-0.2,0.6-0.3,1l-0.8,2.2H59z"/>
	<path class="st1" d="M67.4,108.2h-0.9l-3.8-5.9l0,0c0,0.7,0.1,1.3,0.1,1.9v4h-0.7v-7H63l3.8,5.9l0,0c0-0.1,0-0.4,0-0.8s0-0.8,0-1
		v-4h0.7v7H67.4z"/>
	<path class="st1" d="M74.4,108.2h-0.9l-2.6-3.4l-0.7,0.6v2.8h-0.8v-7h0.8v3.5l3.2-3.5h0.9l-2.8,3.1L74.4,108.2z"/>
	<path class="st1" d="M79.3,106.3c0,0.6-0.2,1.1-0.7,1.4c-0.5,0.3-1,0.5-1.9,0.5c-0.8,0-1.4-0.1-2-0.3v-0.8c0.3,0.1,0.6,0.2,0.9,0.3
		c0.3,0.1,0.7,0.1,1,0.1c0.5,0,0.9-0.1,1.2-0.3s0.4-0.5,0.4-0.8c0-0.2,0-0.4-0.1-0.6c-0.1-0.2-0.3-0.3-0.5-0.4
		c-0.2-0.1-0.6-0.3-1-0.4c-0.6-0.2-1.1-0.5-1.4-0.8c-0.3-0.3-0.4-0.7-0.4-1.2c0-0.5,0.2-0.9,0.6-1.2c0.4-0.3,0.9-0.5,1.7-0.5
		s1.3,0.1,2,0.4l-0.2,0.7c-0.6-0.2-1.1-0.4-1.7-0.4c-0.4,0-0.7,0.1-1,0.3s-0.4,0.4-0.4,0.7c0,0.2,0,0.4,0.1,0.6
		c0.1,0.2,0.2,0.3,0.4,0.4c0.2,0.1,0.5,0.3,0.9,0.4c0.7,0.3,1.2,0.5,1.5,0.8C79.2,105.4,79.3,105.8,79.3,106.3z"/>
</g>
</svg>
