<svg xmlns="http://www.w3.org/2000/svg" viewBox="0 0 137.66 99.6"><defs><style>.a{fill:#ffe161;}.b{fill:none;stroke:#1eb9d5;stroke-linecap:round;stroke-linejoin:round;stroke-width:2px;}</style></defs><title>Asset 6</title><path class="a" d="M8,95.66a3,3,0,0,1-1.28.54,8.73,8.73,0,0,1-1.65.15,5.45,5.45,0,0,1-2-.36,4.36,4.36,0,0,1-1.62-1.1A5.41,5.41,0,0,1,.4,93,8.29,8.29,0,0,1,0,90.25a7.77,7.77,0,0,1,.45-2.81,5.25,5.25,0,0,1,1.18-1.89,4.54,4.54,0,0,1,1.64-1.06,5.17,5.17,0,0,1,1.85-.34,9.48,9.48,0,0,1,1.66.11,5.35,5.35,0,0,1,1.09.29L7.53,85.8a5.22,5.22,0,0,0-2.3-.4,3.82,3.82,0,0,0-1.37.25,3.22,3.22,0,0,0-1.21.82A4.5,4.5,0,0,0,1.8,88a7.16,7.16,0,0,0-.32,2.28,6.44,6.44,0,0,0,.31,2.12,4.34,4.34,0,0,0,.83,1.52,3.28,3.28,0,0,0,1.25.91,4,4,0,0,0,1.56.3A5.21,5.21,0,0,0,6.75,95a3.83,3.83,0,0,0,1-.38Z"/><path class="a" d="M13.67,89a3.14,3.14,0,0,0-1-.17,1.6,1.6,0,0,0-1.15.4,1.7,1.7,0,0,0-.52,1v5.9H9.69V87.72h1l.25,1H11a2.69,2.69,0,0,1,.76-.89,2,2,0,0,1,1.14-.31,4.28,4.28,0,0,1,1.1.17Z"/><path class="a" d="M17.91,93.18l.47,1.62h.09l.37-1.63,1.64-5.45h1.35l-2.5,7.57-.56,1.6a8.9,8.9,0,0,1-.62,1.38,3.33,3.33,0,0,1-.75,1,1.48,1.48,0,0,1-1,.36,2.58,2.58,0,0,1-1-.16l.24-1.17a1.14,1.14,0,0,0,.42.09,1.23,1.23,0,0,0,.91-.5,4.19,4.19,0,0,0,.73-1.71l-3.39-8.43h1.55Z"/><path class="a" d="M23.28,87.72h.93l.25,1h.07a2.55,2.55,0,0,1,1-.9,3,3,0,0,1,1.41-.31,3.09,3.09,0,0,1,2.51,1,5.13,5.13,0,0,1,.82,3.26A6.34,6.34,0,0,1,30,93.68a4.16,4.16,0,0,1-.79,1.44A3.43,3.43,0,0,1,28,96a3.93,3.93,0,0,1-1.59.32,5.17,5.17,0,0,1-1-.07,3.63,3.63,0,0,1-.78-.27v3.51H23.28Zm3.4,1a1.93,1.93,0,0,0-1.35.45,2.39,2.39,0,0,0-.7,1.35v4.18a2.29,2.29,0,0,0,.69.37,3.59,3.59,0,0,0,1,.12,2.21,2.21,0,0,0,1.84-.87,4,4,0,0,0,.68-2.55,6.16,6.16,0,0,0-.11-1.26,3,3,0,0,0-.38-1,1.81,1.81,0,0,0-.68-.61A2.08,2.08,0,0,0,26.68,88.7Z"/><path class="a" d="M31.29,87.72H32.6V86.05L34,85.66v2.06h2.29V88.9H34v4.67a2.48,2.48,0,0,0,.22,1.24.79.79,0,0,0,.74.36,2.63,2.63,0,0,0,.74-.09c.2-.06.43-.14.68-.24l.3,1a4.92,4.92,0,0,1-1,.36,4.74,4.74,0,0,1-1.16.13A1.67,1.67,0,0,1,33,95.77a3.44,3.44,0,0,1-.42-2V88.9H31.29Z"/><path class="a" d="M37.45,91.94a5,5,0,0,1,1-3.28,3.35,3.35,0,0,1,2.74-1.14,4,4,0,0,1,1.64.31,3,3,0,0,1,1.15.89,3.89,3.89,0,0,1,.68,1.4,7.32,7.32,0,0,1,.22,1.82,4.93,4.93,0,0,1-1,3.27,3.34,3.34,0,0,1-2.73,1.14A4,4,0,0,1,39.5,96a3.08,3.08,0,0,1-1.15-.89,3.89,3.89,0,0,1-.68-1.4A7.3,7.3,0,0,1,37.45,91.94Zm1.4,0A6.26,6.26,0,0,0,39,93.17a3.11,3.11,0,0,0,.4,1,2.07,2.07,0,0,0,.7.71,2,2,0,0,0,1.07.27c1.52,0,2.29-1.07,2.29-3.23a5.57,5.57,0,0,0-.13-1.25,3.16,3.16,0,0,0-.39-1,2,2,0,0,0-1.77-1C39.62,88.69,38.85,89.77,38.85,91.94Z"/><path class="a" d="M55.69,84.15l1.06.47L50.6,98.51,49.54,98Z"/><path class="a" d="M69.18,87.05a3,3,0,0,1-.14.86,2.78,2.78,0,0,1-.4.81,2.59,2.59,0,0,1-.69.67,3.26,3.26,0,0,1-1,.44v.07a4,4,0,0,1,1,.28,2.72,2.72,0,0,1,.82.56,2.64,2.64,0,0,1,.57.86,2.91,2.91,0,0,1,.22,1.19,3.12,3.12,0,0,1-1.37,2.67,4.29,4.29,0,0,1-1.41.62,6.31,6.31,0,0,1-1.62.2h-.67c-.26,0-.53,0-.81,0l-.84-.07a6.22,6.22,0,0,1-.75-.12V84.45c.42-.07.9-.12,1.45-.17s1.16-.06,1.81-.06a8.82,8.82,0,0,1,1.34.1,3.88,3.88,0,0,1,1.24.43,2.42,2.42,0,0,1,1.28,2.3Zm-4.84,2.49c.19,0,.42,0,.69,0a5.6,5.6,0,0,0,.67,0,4.33,4.33,0,0,0,.76-.32,3.37,3.37,0,0,0,.64-.46,1.88,1.88,0,0,0,.43-.61,1.71,1.71,0,0,0,.16-.75,1.78,1.78,0,0,0-.21-.91,1.67,1.67,0,0,0-.56-.59,2.62,2.62,0,0,0-.81-.31,4.73,4.73,0,0,0-.93-.09l-1,0a6,6,0,0,0-.7.08v4Zm.93,5.53a4,4,0,0,0,1-.13,2.5,2.5,0,0,0,.89-.4,2.11,2.11,0,0,0,.62-.68,2,2,0,0,0,.23-1,2.06,2.06,0,0,0-.28-1.12,1.9,1.9,0,0,0-.73-.65,2.87,2.87,0,0,0-1-.32,6.92,6.92,0,0,0-1.11-.09H63.46V95a1.92,1.92,0,0,0,.34,0l.47,0,.52,0Z"/><path class="a" d="M73.27,94.08a1.33,1.33,0,0,0,.21.84.67.67,0,0,0,.57.25l.47,0a2.42,2.42,0,0,0,.57-.15l.16,1.06a2.92,2.92,0,0,1-.76.22,5.48,5.48,0,0,1-.83.08,1.83,1.83,0,0,1-1.25-.43,1.87,1.87,0,0,1-.49-1.46V84.35h1.35Z"/><path class="a" d="M76.22,91.94a5,5,0,0,1,1-3.28,3.34,3.34,0,0,1,2.73-1.14,4,4,0,0,1,1.65.31,3.08,3.08,0,0,1,1.15.89,3.89,3.89,0,0,1,.68,1.4,7.32,7.32,0,0,1,.22,1.82,4.93,4.93,0,0,1-1,3.27,3.35,3.35,0,0,1-2.74,1.14A4,4,0,0,1,78.27,96a3,3,0,0,1-1.15-.89,3.89,3.89,0,0,1-.68-1.4A7.3,7.3,0,0,1,76.22,91.94Zm1.4,0a5.58,5.58,0,0,0,.13,1.23,3.34,3.34,0,0,0,.39,1,2.1,2.1,0,0,0,.71.71,2,2,0,0,0,1.06.27c1.53,0,2.3-1.07,2.3-3.23a5.57,5.57,0,0,0-.13-1.25,3.16,3.16,0,0,0-.4-1A2,2,0,0,0,81,89a2.12,2.12,0,0,0-1.07-.26C78.39,88.69,77.62,89.77,77.62,91.94Z"/><path class="a" d="M91.48,95.59a3.71,3.71,0,0,1-1.2.57,5.29,5.29,0,0,1-1.45.19A3.89,3.89,0,0,1,87.18,96a2.84,2.84,0,0,1-1.1-.89,3.82,3.82,0,0,1-.63-1.4,7.86,7.86,0,0,1-.19-1.81,5,5,0,0,1,.94-3.28,3.34,3.34,0,0,1,2.72-1.14,6.07,6.07,0,0,1,1.37.13,3.84,3.84,0,0,1,1,.36l-.39,1.16a3.67,3.67,0,0,0-.86-.34,3.63,3.63,0,0,0-1-.13c-1.6,0-2.39,1.08-2.39,3.24a6.08,6.08,0,0,0,.12,1.22,3.28,3.28,0,0,0,.42,1,2.32,2.32,0,0,0,.78.71,2.41,2.41,0,0,0,1.19.27A3.12,3.12,0,0,0,90.26,95a3.5,3.5,0,0,0,.78-.42Z"/><path class="a" d="M95.46,92.36h-.78v3.79H93.33V84.35h1.35v7.18l.69-.23L98,87.72h1.57L97,91.11l-.69.56.84.67,2.82,3.81H98.27Z"/><path class="a" d="M107,95.59a3.71,3.71,0,0,1-1.2.57,5.29,5.29,0,0,1-1.45.19,3.89,3.89,0,0,1-1.65-.31,2.91,2.91,0,0,1-1.1-.89,3.65,3.65,0,0,1-.62-1.4,7.84,7.84,0,0,1-.2-1.81,5.07,5.07,0,0,1,.94-3.28,3.34,3.34,0,0,1,2.72-1.14,6,6,0,0,1,1.37.13,3.84,3.84,0,0,1,1,.36l-.38,1.16a3.86,3.86,0,0,0-.86-.34,3.75,3.75,0,0,0-1-.13c-1.59,0-2.39,1.08-2.39,3.24a5.43,5.43,0,0,0,.13,1.22,2.87,2.87,0,0,0,.42,1,2.2,2.2,0,0,0,.77.71,2.41,2.41,0,0,0,1.19.27,3.08,3.08,0,0,0,1.09-.18,3.5,3.5,0,0,0,.78-.42Z"/><path class="a" d="M114.22,96.15v-4.8a7.82,7.82,0,0,0-.08-1.16,2.14,2.14,0,0,0-.28-.83,1.31,1.31,0,0,0-.55-.49,2.09,2.09,0,0,0-.9-.17,2.24,2.24,0,0,0-1.43.51,2.37,2.37,0,0,0-.83,1.33v5.61h-1.34V84.35h1.34v4.32h.07a3.3,3.3,0,0,1,1-.84,3.37,3.37,0,0,1,1.53-.31,4.12,4.12,0,0,1,1.23.16,1.83,1.83,0,0,1,.87.56,2.51,2.51,0,0,1,.5,1.09,7.59,7.59,0,0,1,.16,1.73v5.09Z"/><path class="a" d="M117.89,88.35a5.09,5.09,0,0,1,1.49-.58,8.6,8.6,0,0,1,1.78-.18,3.67,3.67,0,0,1,1.41.23,2,2,0,0,1,.81.62,2.14,2.14,0,0,1,.37.83,4.76,4.76,0,0,1,.09.91c0,.68,0,1.33,0,2s-.05,1.25-.05,1.82,0,.81.05,1.19a5.14,5.14,0,0,0,.19,1h-1L122.63,95h-.09a2.61,2.61,0,0,1-.38.47,2.52,2.52,0,0,1-.54.4,3.45,3.45,0,0,1-.75.3,4,4,0,0,1-1,.11,3,3,0,0,1-1-.16,2.54,2.54,0,0,1-.8-.48,2.37,2.37,0,0,1-.53-.75,2.48,2.48,0,0,1-.19-1,2.37,2.37,0,0,1,.3-1.24,2.17,2.17,0,0,1,.85-.79,4,4,0,0,1,1.31-.42,10,10,0,0,1,1.7-.13H122a2.56,2.56,0,0,1,.47,0c0-.34,0-.65,0-.92a1.82,1.82,0,0,0-.37-1.29,1.9,1.9,0,0,0-1.35-.37,4.59,4.59,0,0,0-.62,0l-.67.12a6.36,6.36,0,0,0-.66.19,4.08,4.08,0,0,0-.55.25Zm2.39,6.75a2.77,2.77,0,0,0,.85-.12,2.73,2.73,0,0,0,.64-.32,1.8,1.8,0,0,0,.44-.43,2,2,0,0,0,.27-.46v-1.4l-.48,0h-.49a8.43,8.43,0,0,0-1,.06,3.06,3.06,0,0,0-.88.22,1.46,1.46,0,0,0-.61.44,1.07,1.07,0,0,0-.23.7,1.21,1.21,0,0,0,.43,1A1.51,1.51,0,0,0,120.28,95.1Z"/><path class="a" d="M126.39,85.16a.93.93,0,0,1,.26-.67.87.87,0,0,1,.66-.27,1,1,0,0,1,.69.27.88.88,0,0,1,.29.67.79.79,0,0,1-.29.64,1,1,0,0,1-.69.25.89.89,0,0,1-.66-.25A.83.83,0,0,1,126.39,85.16Zm.28,2.56H128v8.43h-1.35Z"/><path class="a" d="M136.31,96.15v-4.8a4.06,4.06,0,0,0-.38-2,1.45,1.45,0,0,0-1.39-.66,2.24,2.24,0,0,0-1.47.48,2.57,2.57,0,0,0-.82,1.2v5.77H130.9V87.72h.95l.25,1h.07a3,3,0,0,1,1.09-.89,3.52,3.52,0,0,1,1.62-.34,4.1,4.1,0,0,1,1.22.16,1.85,1.85,0,0,1,.86.56,2.78,2.78,0,0,1,.53,1.09,7.53,7.53,0,0,1,.17,1.73v5.09Z"/><polygon class="b" points="16.61 8.41 31.25 16.7 45.67 8.41 31.25 1 16.61 8.41"/><line class="b" x1="45.53" y1="19.88" x2="45.68" y2="8.41"/><polyline class="b" points="16.61 8.41 16.61 25.05 31.15 33.48 40.08 28.77"/><line class="b" x1="31.25" y1="16.7" x2="31.25" y2="32.31"/><polygon class="b" points="92.21 8.41 106.85 16.7 121.28 8.41 106.85 1 92.21 8.41"/><line class="b" x1="121.17" y1="16.39" x2="121.28" y2="8.41"/><polyline class="b" points="92.21 8.41 92.21 25.05 106.75 33.48 121.05 25.94 121.09 23.25"/><line class="b" x1="106.85" y1="16.7" x2="106.85" y2="32.31"/><polygon class="b" points="53.68 38.18 68.32 46.48 82.75 38.18 68.32 30.77 53.68 38.18"/><polyline class="b" points="74.05 60.18 82.52 55.71 82.75 38.18"/><polyline class="b" points="53.68 38.18 53.68 54.82 63.22 60.36"/><line class="b" x1="68.32" y1="46.48" x2="68.32" y2="58.15"/><line class="b" x1="39.11" y1="21.83" x2="59.37" y2="34.31"/><line class="b" x1="76.19" y1="34.49" x2="98.63" y2="22.55"/></svg>