<?xml version="1.0" encoding="utf-8"?>
<!-- Generator: Adobe Illustrator 23.0.3, SVG Export Plug-In . SVG Version: 6.00 Build 0)  -->
<svg version="1.1" id="Layer_1" xmlns="http://www.w3.org/2000/svg" xmlns:xlink="http://www.w3.org/1999/xlink" x="0px" y="0px"
	 viewBox="0 0 130 130" style="enable-background:new 0 0 130 130;" xml:space="preserve">
<style type="text/css">
	.st0{fill:none;stroke:#1EB9D5;stroke-width:1.5;}
	.st1{enable-background:new    ;}
	.st2{fill:#FFFFFF;}
</style>
<title>globe9</title>
<path class="st0" d="M83.4,73.6v2.8c0,1-0.8,1.8-1.8,1.8H64.2c-1,0-1.8-0.8-1.8-1.8V42.8c0-1,0.8-1.8,1.8-1.8h17.4
	c1,0,1.8,0.8,1.8,1.8l0,0v25.7"/>
<path class="st0" d="M65.8,63v9.3c-0.1,0.8,0.5,1.6,1.4,1.6h0.1h11.2c0.8,0,1.5-0.7,1.5-1.5c0,0,0,0,0-0.1V46.8
	c0-0.8-0.6-1.5-1.5-1.6l0,0h-3L75,46.5h-4.3l-0.4-1.3h-3c-0.8,0-1.5,0.7-1.5,1.6l0,0v12.7"/>
<path class="st0" d="M61,33.5c-1.6,0.5-3.1,1.4-4.2,2.6c-1.2,1.1-2.1,2.6-2.6,4.2"/>
<path class="st0" d="M59.7,29c-2.4,0.8-4.6,2.2-6.3,4c-1.8,1.7-3.1,3.8-3.9,6.1"/>
<path class="st0" d="M54.1,40.3c0.5-1.6,1.4-3,2.6-4.2c1.2-1.2,2.7-2.1,4.3-2.6"/>
<path class="st0" d="M58.2,23.4c-3.4,1.1-6.5,3-9,5.6c-2.5,2.4-4.3,5.3-5.4,8.6"/>
<path class="st0" d="M49.5,39.1c0.8-2.3,2.1-4.4,3.9-6.1c1.8-1.8,3.9-3.2,6.3-4"/>
<g class="st1">
	<path class="st2" d="M24.2,95.4l-2.4-6.3l0,0c0,0.5,0.1,1.1,0.1,1.8v4.5H21v-7.1h1.2l2.3,5.9l0,0l2.3-5.9H28v7.1h-0.8v-4.6
		c0-0.5,0-1.1,0.1-1.7l0,0l-2.4,6.3C24.9,95.4,24.2,95.4,24.2,95.4z"/>
	<path class="st2" d="M36.3,91.8c0,1.1-0.3,2-0.9,2.7c-0.6,0.7-1.4,1-2.4,1c-1.1,0-1.9-0.3-2.4-1c-0.6-0.6-0.9-1.5-0.9-2.7
		s0.3-2.1,0.9-2.7s1.4-1,2.4-1c1,0,1.8,0.3,2.4,1C36,89.8,36.3,90.7,36.3,91.8z M30.6,91.8c0,1,0.2,1.7,0.6,2.2
		c0.4,0.5,1,0.7,1.8,0.7s1.4-0.2,1.8-0.7c0.4-0.5,0.6-1.2,0.6-2.2s-0.2-1.7-0.6-2.2c-0.4-0.5-1-0.7-1.8-0.7s-1.4,0.2-1.8,0.7
		C30.8,90.2,30.6,90.9,30.6,91.8z"/>
	<path class="st2" d="M37.8,88.3h2c0.9,0,1.6,0.1,2.1,0.4s0.6,0.7,0.6,1.3c0,0.4-0.1,0.8-0.4,1c-0.2,0.3-0.6,0.5-1,0.5l0,0
		c1.1,0.2,1.6,0.8,1.6,1.7c0,0.6-0.2,1.1-0.6,1.5c-0.4,0.4-1,0.5-1.8,0.5h-2.5C37.8,95.2,37.8,88.3,37.8,88.3z M38.7,91.3h1.4
		c0.6,0,1-0.1,1.3-0.3c0.3-0.2,0.4-0.5,0.4-0.9s-0.1-0.7-0.4-0.9c-0.3-0.2-0.7-0.3-1.4-0.3h-1.2L38.7,91.3L38.7,91.3z M38.7,92v2.7
		h1.5c0.6,0,1-0.1,1.3-0.3c0.3-0.2,0.4-0.6,0.4-1s-0.1-0.8-0.4-1S40.7,92,40.1,92H38.7z"/>
	<path class="st2" d="M44.3,95.4v-7.1h0.8v7.1H44.3z"/>
	<path class="st2" d="M47.1,95.4v-7.1h0.8v6.4H51v0.8h-3.9V95.4z"/>
	<path class="st2" d="M56.3,95.4h-4v-7.1h4V89h-3.1v2.3h3V92h-3v2.6h3.1V95.4z"/>
	<path class="st2" d="M66.7,91.8c0,1.1-0.3,2-0.9,2.7c-0.6,0.7-1.4,1-2.4,1c-1.1,0-1.9-0.3-2.4-1c-0.6-0.6-0.9-1.5-0.9-2.7
		s0.3-2.1,0.9-2.7c0.6-0.6,1.4-1,2.4-1s1.8,0.3,2.4,1C66.4,89.8,66.7,90.7,66.7,91.8z M61,91.8c0,1,0.2,1.7,0.6,2.2
		c0.4,0.5,1,0.7,1.8,0.7s1.4-0.2,1.8-0.7c0.4-0.5,0.6-1.2,0.6-2.2s-0.2-1.7-0.6-2.2s-1-0.7-1.8-0.7s-1.4,0.2-1.8,0.7
		C61.2,90.2,61,90.9,61,91.8z"/>
	<path class="st2" d="M72.8,90.4c0,0.7-0.2,1.3-0.7,1.7c-0.5,0.4-1.2,0.6-2.1,0.6h-0.8v2.8h-0.8v-7.1h1.9
		C71.9,88.3,72.8,89,72.8,90.4z M69.1,91.9h0.7c0.7,0,1.3-0.1,1.6-0.4c0.3-0.3,0.5-0.6,0.5-1.1s-0.2-0.8-0.5-1.1
		C71.1,89,70.7,89,70,89h-0.9V91.9z"/>
	<path class="st2" d="M78.2,95.4h-4v-7.1h4V89h-3.1v2.3h3V92h-3v2.6h3.1V95.4z"/>
	<path class="st2" d="M80.7,92.5v3h-0.8v-7.1h2c0.9,0,1.5,0.2,1.9,0.5s0.6,0.8,0.6,1.5c0,0.9-0.5,1.6-1.4,1.9l1.9,3.2h-1l-1.7-3
		H80.7z M80.7,91.7h1.1c0.6,0,1-0.1,1.3-0.3c0.3-0.2,0.4-0.6,0.4-1c0-0.5-0.1-0.8-0.4-1S82.4,89,81.7,89h-1.1L80.7,91.7L80.7,91.7z"
		/>
	<path class="st2" d="M90.5,95.4l-0.9-2.2h-2.9l-0.9,2.3H85l2.8-7.2h0.8l2.8,7.2L90.5,95.4L90.5,95.4z M89.4,92.4l-0.8-2.2
		c-0.1-0.3-0.2-0.6-0.3-1c-0.1,0.3-0.2,0.7-0.3,1l-0.8,2.2H89.4z"/>
	<path class="st2" d="M94.5,95.4h-0.8V89h-2.3v-0.7h5.4V89h-2.3C94.5,89,94.5,95.4,94.5,95.4z"/>
	<path class="st2" d="M104.1,91.8c0,1.1-0.3,2-0.9,2.7s-1.4,1-2.4,1c-1.1,0-1.9-0.3-2.4-1c-0.6-0.6-0.9-1.5-0.9-2.7s0.3-2.1,0.9-2.7
		s1.4-1,2.4-1s1.8,0.3,2.4,1S104.1,90.7,104.1,91.8z M98.4,91.8c0,1,0.2,1.7,0.6,2.2s1,0.7,1.8,0.7s1.4-0.2,1.8-0.7s0.6-1.2,0.6-2.2
		s-0.2-1.7-0.6-2.2s-1-0.7-1.8-0.7s-1.4,0.2-1.8,0.7C98.6,90.2,98.4,90.9,98.4,91.8z"/>
	<path class="st2" d="M106.5,92.5v3h-0.8v-7.1h2c0.9,0,1.5,0.2,1.9,0.5s0.6,0.8,0.6,1.5c0,0.9-0.5,1.6-1.4,1.9l1.9,3.2h-1l-1.7-3
		H106.5z M106.5,91.7h1.1c0.6,0,1-0.1,1.3-0.3c0.3-0.2,0.4-0.6,0.4-1c0-0.5-0.1-0.8-0.4-1s-0.7-0.4-1.3-0.4h-1.1V91.7z"/>
	<path class="st2" d="M115.9,93.5c0,0.6-0.2,1.1-0.7,1.5s-1.1,0.5-1.9,0.5s-1.5-0.1-2-0.3v-0.8c0.3,0.1,0.6,0.2,1,0.3
		c0.3,0.1,0.7,0.1,1,0.1c0.6,0,1-0.1,1.2-0.3c0.3-0.2,0.4-0.5,0.4-0.9c0-0.2,0-0.5-0.1-0.6c-0.1-0.2-0.3-0.3-0.5-0.4
		s-0.6-0.3-1.1-0.5c-0.7-0.2-1.1-0.5-1.4-0.8s-0.4-0.8-0.4-1.3s0.2-1,0.6-1.3s1-0.5,1.6-0.5c0.7,0,1.4,0.1,2,0.4l-0.3,0.7
		c-0.6-0.2-1.2-0.4-1.7-0.4c-0.4,0-0.8,0.1-1,0.3c-0.2,0.2-0.4,0.5-0.4,0.8c0,0.2,0,0.5,0.1,0.6c0.1,0.2,0.2,0.3,0.5,0.4
		c0.2,0.1,0.5,0.3,1,0.4c0.7,0.3,1.3,0.6,1.5,0.9C115.7,92.6,115.9,93,115.9,93.5z"/>
	<path class="st2" d="M64.5,104.2c0,0.7-0.2,1.3-0.7,1.7c-0.5,0.4-1.2,0.6-2.1,0.6h-0.9v2.8H60v-7.1h1.9
		C63.6,102.1,64.5,102.8,64.5,104.2z M60.8,105.7h0.7c0.7,0,1.3-0.1,1.6-0.4c0.3-0.2,0.5-0.6,0.5-1.1s-0.2-0.8-0.5-1.1
		c-0.3-0.2-0.8-0.3-1.4-0.3h-0.9V105.7z"/>
	<path class="st2" d="M70.2,109.2h-4.7v-0.7l1.9-1.9c0.6-0.6,1-1,1.1-1.2c0.2-0.2,0.3-0.5,0.4-0.7s0.1-0.5,0.1-0.8
		c0-0.4-0.1-0.7-0.3-0.9c-0.2-0.2-0.6-0.3-1-0.3c-0.3,0-0.6,0-0.8,0.1c-0.3,0.1-0.6,0.3-0.9,0.5l-0.4-0.6c0.7-0.5,1.4-0.8,2.1-0.8
		s1.2,0.2,1.6,0.5s0.6,0.8,0.6,1.4c0,0.5-0.1,0.9-0.4,1.3s-0.7,1-1.4,1.7l-1.6,1.5l0,0h3.7L70.2,109.2L70.2,109.2z"/>
	<path class="st2" d="M76.2,104.2c0,0.7-0.2,1.3-0.7,1.7c-0.5,0.4-1.2,0.6-2.1,0.6h-0.8v2.8h-0.8v-7.1h1.9
		C75.3,102.1,76.2,102.8,76.2,104.2z M72.5,105.7h0.7c0.7,0,1.3-0.1,1.6-0.4c0.3-0.2,0.5-0.6,0.5-1.1s-0.2-0.8-0.5-1.1
		c-0.3-0.2-0.8-0.3-1.4-0.3h-0.9C72.5,102.8,72.5,105.7,72.5,105.7z"/>
</g>
</svg>
