<?xml version="1.0" encoding="utf-8"?>
<!-- Generator: Adobe Illustrator 23.0.3, SVG Export Plug-In . SVG Version: 6.00 Build 0)  -->
<svg version="1.1" id="Layer_1" xmlns="http://www.w3.org/2000/svg" xmlns:xlink="http://www.w3.org/1999/xlink" x="0px" y="0px"
	 viewBox="0 0 130 130" style="enable-background:new 0 0 130 130;" xml:space="preserve">
<style type="text/css">
	.st0{fill:#FFE161;}
	.st1{fill:none;stroke:#1EB9D5;stroke-width:1.5;stroke-linecap:round;stroke-linejoin:round;}
</style>
<title>globe1</title>
<path class="st0" d="M26.8,84.1c0.3-0.1,0.6-0.1,0.9-0.1c0.3,0,0.6,0,0.9,0c0.3,0,0.6,0,0.9,0.1c0.3,0.1,0.5,0.2,0.7,0.3
	c0.2,0.2,0.4,0.4,0.5,0.6c0.1,0.3,0.2,0.6,0.2,0.9c0,0.5-0.1,0.9-0.4,1.3c-0.3,0.3-0.7,0.6-1.1,0.7l0.5,0.4l1.7,2.7h-1l-1.9-3
	l-1-0.2V91h-0.8L26.8,84.1z M28.6,84.7H28h-0.2h-0.2v2.6h0.8c0.4,0.1,0.8,0,1.2-0.2c0.3-0.2,0.5-0.6,0.4-1c0-0.3-0.1-0.6-0.4-0.9
	C29.3,84.9,28.9,84.7,28.6,84.7z"/>
<path class="st0" d="M35.7,90.6c-0.2,0.2-0.5,0.3-0.7,0.4c-0.3,0.1-0.6,0.1-1,0.1c-0.3,0-0.7,0-1-0.2c-0.3-0.1-0.5-0.3-0.7-0.5
	c-0.2-0.2-0.3-0.5-0.4-0.8c-0.1-0.3-0.1-0.7-0.1-1.1c0-0.7,0.2-1.4,0.6-1.9c0.4-0.5,1-0.7,1.6-0.7c0.2,0,0.5,0,0.7,0.1
	c0.2,0,0.4,0.1,0.6,0.3c0.2,0.2,0.3,0.4,0.4,0.6c0.1,0.3,0.2,0.7,0.2,1c0,0.2,0,0.5-0.1,0.7h-3.2c0,0.3,0,0.5,0.1,0.8
	c0,0.2,0.1,0.4,0.3,0.6c0.1,0.2,0.3,0.3,0.5,0.4c0.2,0.1,0.5,0.1,0.7,0.1c0.2,0,0.5,0,0.7-0.1c0.2-0.1,0.4-0.1,0.5-0.3L35.7,90.6z
	 M34,86.6c-0.3,0-0.7,0.1-0.9,0.3c-0.3,0.3-0.4,0.6-0.4,1h2.5c0-0.4-0.1-0.7-0.3-1C34.6,86.7,34.3,86.6,34,86.6L34,86.6z"/>
<path class="st0" d="M40.2,86l1.1,2.9l0.2,0.9l0,0l0.2-1l0.9-2.8h0.8l-1.7,5h-0.4l-1.3-3.3L39.9,87l0,0l-0.2,0.8l-1.2,3.2h-0.4
	l-1.7-5h0.9l1,2.9l0.2,1l0,0l0.2-1l1-2.9H40.2z"/>
<path class="st0" d="M44.2,86.4c0.3-0.2,0.6-0.3,0.9-0.3c0.3-0.1,0.7-0.1,1-0.1c0.3,0,0.6,0,0.8,0.1c0.2,0.1,0.3,0.2,0.5,0.4
	c0.1,0.1,0.2,0.3,0.2,0.5c0,0.2,0,0.4,0,0.5c0,0.4,0,0.8,0,1.2s0,0.7,0,1.1s0,0.5,0,0.7c0,0.2,0.1,0.4,0.1,0.6h-0.6L47,90.3l0,0
	c-0.1,0.1-0.1,0.2-0.2,0.3c-0.1,0.1-0.2,0.2-0.3,0.2C46.3,90.9,46.2,91,46,91c-0.2,0.1-0.4,0.1-0.6,0.1c-0.2,0-0.4,0-0.6-0.1
	c-0.2-0.1-0.3-0.2-0.5-0.3c-0.1-0.1-0.2-0.3-0.3-0.4c-0.1-0.2-0.1-0.4-0.1-0.6c0-0.3,0.1-0.5,0.2-0.7c0.1-0.2,0.3-0.4,0.5-0.5
	c0.2-0.1,0.5-0.2,0.8-0.2c0.3-0.1,0.7-0.1,1-0.1h0.3c0.1,0,0.2,0,0.3,0c0-0.2,0-0.4,0-0.5c0-0.3,0-0.5-0.2-0.8
	c-0.2-0.2-0.5-0.2-0.8-0.2c-0.1,0-0.2,0-0.4,0l-0.4,0.1l-0.4,0.1L44.5,87L44.2,86.4z M45.6,90.4c0.2,0,0.3,0,0.5-0.1
	c0.1,0,0.3-0.1,0.4-0.2c0.1-0.1,0.2-0.2,0.3-0.2c0.1-0.1,0.1-0.2,0.2-0.3v-0.8h-0.6c-0.2,0-0.4,0-0.6,0c-0.2,0-0.3,0.1-0.5,0.1
	c-0.1,0.1-0.3,0.1-0.4,0.3c-0.1,0.1-0.1,0.3-0.1,0.4c0,0.2,0.1,0.4,0.2,0.6C45.2,90.3,45.4,90.4,45.6,90.4L45.6,90.4z"/>
<path class="st0" d="M51.5,86.8c-0.2-0.1-0.4-0.1-0.6-0.1c-0.2,0-0.5,0.1-0.7,0.2c-0.2,0.2-0.3,0.4-0.3,0.6V91h-0.8v-5h0.5l0.2,0.6
	l0,0c0.1-0.2,0.3-0.4,0.5-0.5c0.2-0.1,0.4-0.2,0.7-0.2c0.2,0,0.4,0,0.7,0.1L51.5,86.8z"/>
<path class="st0" d="M56.3,89.3c0,0.3,0,0.7,0,0.9c0,0.3,0,0.5,0.1,0.8h-0.5l-0.2-0.7l0,0c-0.1,0.2-0.3,0.4-0.6,0.6
	c-0.3,0.2-0.6,0.2-0.9,0.2c-0.6,0-1.1-0.2-1.5-0.6c-0.4-0.6-0.5-1.3-0.5-2c0-0.7,0.2-1.4,0.6-1.9c0.4-0.4,1-0.6,1.6-0.6
	c0.2,0,0.4,0,0.6,0c0.2,0,0.3,0.1,0.5,0.1v-2.1h0.8V89.3z M54.3,90.4c0.3,0,0.6-0.1,0.8-0.3c0.2-0.2,0.4-0.5,0.4-0.8v-2.4
	c-0.1-0.1-0.3-0.2-0.4-0.2c-0.2,0-0.4-0.1-0.6-0.1c-0.4,0-0.8,0.1-1.1,0.4c-0.3,0.4-0.4,0.9-0.4,1.4c0,0.3,0,0.5,0.1,0.8
	c0,0.2,0.1,0.4,0.2,0.6c0.1,0.2,0.2,0.3,0.4,0.4C53.9,90.4,54.1,90.4,54.3,90.4L54.3,90.4z"/>
<path class="st0" d="M60,89.6c0-0.2-0.1-0.3-0.2-0.5c-0.1-0.1-0.3-0.2-0.4-0.3l-0.6-0.2c-0.2-0.1-0.4-0.2-0.6-0.3
	c-0.2-0.1-0.3-0.3-0.4-0.4c-0.3-0.6-0.2-1.3,0.2-1.7c0.3-0.2,0.7-0.4,1.1-0.3c0.3,0,0.6,0,0.9,0.1c0.2,0.1,0.4,0.1,0.6,0.2l-0.2,0.7
	c-0.2-0.1-0.3-0.1-0.5-0.2c-0.2-0.1-0.5-0.1-0.7-0.1c-0.2,0-0.4,0-0.6,0.1c-0.1,0.1-0.2,0.3-0.2,0.5c0,0.2,0.1,0.3,0.2,0.4
	c0.1,0.1,0.3,0.2,0.4,0.3l0.6,0.2c0.2,0.1,0.4,0.2,0.6,0.3c0.2,0.1,0.3,0.3,0.4,0.4c0.1,0.2,0.2,0.5,0.2,0.7c0,0.2,0,0.4-0.1,0.6
	c-0.1,0.2-0.2,0.4-0.3,0.5c-0.2,0.1-0.3,0.2-0.5,0.3c-0.2,0.1-0.5,0.1-0.8,0.1c-0.3,0-0.7,0-1-0.1c-0.2-0.1-0.5-0.1-0.7-0.2l0.2-0.7
	c0.2,0.1,0.4,0.2,0.6,0.2c0.2,0.1,0.5,0.1,0.7,0.1c0.2,0,0.5,0,0.7-0.2C59.9,90.1,60,89.9,60,89.6z"/>
<path class="st0" d="M67.1,84l0.6,0.3l-3.6,8.2l-0.6-0.3L67.1,84z"/>
<path class="st0" d="M75,91h-4.1v-6.9h0.8v6.2H75V91z"/>
<path class="st0" d="M75.1,88.5c0-0.7,0.2-1.4,0.6-1.9c0.4-0.5,1-0.7,1.6-0.7c0.3,0,0.7,0.1,1,0.2c0.3,0.1,0.5,0.3,0.7,0.5
	c0.2,0.2,0.3,0.5,0.4,0.8c0.1,0.3,0.1,0.7,0.1,1.1c0,0.7-0.2,1.4-0.6,1.9c-0.4,0.5-1,0.7-1.6,0.7c-0.3,0-0.7,0-1-0.2
	c-0.3-0.1-0.5-0.3-0.7-0.5c-0.2-0.2-0.3-0.5-0.4-0.8C75.1,89.2,75,88.9,75.1,88.5z M75.9,88.5c0,0.2,0,0.5,0.1,0.7
	c0,0.2,0.1,0.4,0.2,0.6c0.1,0.2,0.2,0.3,0.4,0.4c0.2,0.1,0.4,0.2,0.6,0.2c0.9,0,1.3-0.6,1.3-1.9c0-0.2,0-0.5-0.1-0.7
	c0-0.2-0.1-0.4-0.2-0.6c-0.1-0.2-0.2-0.3-0.4-0.4c-0.2-0.1-0.4-0.2-0.6-0.2C76.3,86.6,75.9,87.2,75.9,88.5z"/>
<path class="st0" d="M82,89.2l0.3,0.9h0.1l0.2-1l1-3.2h0.8l-1.5,4.5c-0.1,0.3-0.2,0.6-0.3,0.9c-0.1,0.3-0.2,0.5-0.4,0.8
	c-0.1,0.2-0.3,0.4-0.4,0.6c-0.2,0.1-0.4,0.2-0.6,0.2c-0.2,0-0.4,0-0.6-0.1l0.1-0.7c0.1,0,0.2,0,0.2,0c0.2,0,0.4-0.1,0.5-0.3
	c0.2-0.3,0.4-0.6,0.4-1l-2-4.9h0.9L82,89.2z"/>
<path class="st0" d="M85,86.4c0.3-0.2,0.6-0.3,0.9-0.3C86.2,86,86.6,86,87,86c0.3,0,0.6,0,0.8,0.1c0.2,0.1,0.4,0.2,0.5,0.4
	c0.1,0.1,0.2,0.3,0.2,0.5c0,0.2,0,0.4,0,0.5c0,0.4,0,0.8,0,1.2s0,0.7,0,1.1s0,0.5,0,0.7c0,0.2,0.1,0.4,0.1,0.6H88l-0.2-0.7l0,0
	c-0.1,0.1-0.1,0.2-0.2,0.3c-0.1,0.1-0.2,0.2-0.3,0.2C87.1,90.9,87,91,86.8,91c-0.2,0.1-0.4,0.1-0.6,0.1c-0.2,0-0.4,0-0.6-0.1
	c-0.2-0.1-0.3-0.2-0.5-0.3c-0.1-0.1-0.2-0.3-0.3-0.4c-0.1-0.2-0.1-0.4-0.1-0.6c0-0.3,0.1-0.5,0.2-0.7c0.1-0.2,0.3-0.4,0.5-0.5
	c0.2-0.1,0.5-0.2,0.8-0.2c0.3-0.1,0.7-0.1,1-0.1h0.3c0.1,0,0.2,0,0.3,0c0-0.2,0-0.4,0-0.5c0-0.3,0-0.5-0.2-0.8
	c-0.2-0.2-0.5-0.2-0.8-0.2c-0.1,0-0.2,0-0.4,0L86,86.7l-0.4,0.1L85.3,87L85,86.4z M86.4,90.4c0.2,0,0.3,0,0.5-0.1
	c0.1,0,0.3-0.1,0.4-0.2c0.1-0.1,0.2-0.2,0.3-0.2c0.1-0.1,0.1-0.2,0.2-0.3v-0.8h-0.6c-0.2,0-0.4,0-0.6,0c-0.2,0-0.4,0.1-0.5,0.1
	c-0.1,0.1-0.3,0.1-0.3,0.3c-0.1,0.1-0.1,0.3-0.1,0.4c0,0.2,0.1,0.4,0.2,0.6C86,90.3,86.2,90.4,86.4,90.4L86.4,90.4z"/>
<path class="st0" d="M90.9,89.8c0,0.2,0,0.3,0.1,0.5c0.1,0.1,0.2,0.2,0.3,0.2c0.2,0,0.4,0,0.7-0.1l0.1,0.6c-0.1,0.1-0.3,0.1-0.4,0.1
	c-0.2,0-0.3,0-0.5,0c-0.3,0-0.5-0.1-0.7-0.2c-0.2-0.2-0.3-0.5-0.3-0.8v-5.9h0.8V89.8z"/>
<path class="st0" d="M92.2,86H93v-1l0.8-0.2V86h1.3v0.7h-1.3v2.7c0,0.3,0,0.5,0.1,0.7c0.1,0.1,0.3,0.2,0.4,0.2c0.1,0,0.3,0,0.4,0
	l0.4-0.2l0.2,0.6C95.2,90.9,95,91,94.8,91c-0.2,0.1-0.5,0.1-0.7,0.1c-0.3,0-0.6-0.1-0.8-0.3C93.1,90.4,93,90,93,89.6v-2.9h-0.8
	L92.2,86z"/>
<path class="st0" d="M97.7,89.2l0.3,0.9l0,0l0.2-1l1-3.2h0.8l-1.5,4.4c-0.1,0.3-0.2,0.6-0.3,0.9c-0.1,0.3-0.2,0.5-0.4,0.8
	c-0.1,0.2-0.3,0.4-0.4,0.6C97.2,92.9,97,93,96.8,93c-0.2,0-0.4,0-0.6-0.1l0.1-0.7c0.1,0,0.2,0,0.2,0c0.2,0,0.4-0.1,0.5-0.3
	c0.2-0.3,0.4-0.6,0.4-1l-2-4.9h0.9L97.7,89.2z"/>
<polyline class="st1" points="49.8,46.1 49.8,33.2 80.9,33.2 80.9,64.2 49.8,64.2 49.8,52.1 "/>
<polygon class="st1" points="69,38.4 70.9,42.3 75.3,43 72.1,46 72.9,50.3 69,48.3 65.1,50.3 65.9,46 62.7,43 67.1,42.3 "/>
<line class="st1" x1="57.9" y1="33.4" x2="57.9" y2="63.7"/>
<line class="st1" x1="50.1" y1="55.8" x2="80.4" y2="55.8"/>
</svg>
