<?xml version="1.0" encoding="utf-8"?>
<!-- Generator: Adobe Illustrator 23.0.3, SVG Export Plug-In . SVG Version: 6.00 Build 0)  -->
<svg version="1.1" id="Layer_1" xmlns="http://www.w3.org/2000/svg" xmlns:xlink="http://www.w3.org/1999/xlink" x="0px" y="0px"
	 viewBox="0 0 130 130" style="enable-background:new 0 0 130 130;" xml:space="preserve">
<style type="text/css">
	.st0{fill:#FFFFFF;}
	.st1{fill:none;stroke:#1EB9D5;stroke-width:1.5;}
	.st2{fill:#FFE161;}
	.st3{fill:none;stroke:#1EB9D5;stroke-width:1.5;stroke-linecap:round;}
</style>
<g>
	<path class="st0" d="M34.7,78.6c0.7,0,1.7,0,2.4,0.6c0.6,0.4,1.1,1.2,1.1,2.2c0,1.5-1,2.7-2.5,2.8l3.2,4.5h-1.3l-3-4.4h-0.3v4.4
		h-1.1v-10H34.7z M34.3,83.3H35c1.4,0,2.2-0.7,2.2-1.8c0-0.6-0.2-1.1-0.8-1.5c-0.4-0.3-1-0.3-1.4-0.3h-0.7V83.3z"/>
	<path class="st0" d="M45.6,87.1c-0.2,0.3-0.4,0.7-0.8,1c-0.6,0.5-1.3,0.8-2.1,0.8c-1.5,0-3.1-0.9-3.1-3.3c0-1.9,1.1-3.3,3-3.3
		c1.2,0,2,0.6,2.4,1.1c0.4,0.6,0.6,1.5,0.6,2.3h-4.8c0,1.3,0.9,2.1,2,2.1c0.5,0,0.9-0.2,1.3-0.5c0.3-0.2,0.5-0.6,0.6-0.9L45.6,87.1z
		 M44.6,84.9c-0.2-1-0.9-1.6-1.8-1.6c-0.9,0-1.7,0.7-1.8,1.6H44.6z"/>
	<path class="st0" d="M47.6,82.4l1.8,4.2l1.9-4.7l1.9,4.7l1.9-4.2h1.2l-3.1,6.7l-1.9-4.7l-1.9,4.7l-3.1-6.7H47.6z"/>
	<path class="st0" d="M62.3,82.4h1.1v6.2h-1.1v-0.9c-0.4,0.5-1,1.1-2.1,1.1c-1.6,0-3-1.1-3-3.3c0-2.1,1.4-3.3,3-3.3
		c1.2,0,1.8,0.7,2.1,1V82.4z M58.3,85.5c0,1.3,0.8,2.3,2,2.3c1.3,0,2.1-1.1,2.1-2.3c0-1.6-1.1-2.3-2.1-2.3
		C59.2,83.2,58.3,84,58.3,85.5z"/>
	<path class="st0" d="M65.4,82.4h1.1v0.7c0.1-0.2,0.6-0.8,1.4-0.8c0.3,0,0.7,0.1,1,0.3l-0.5,1c-0.2-0.2-0.5-0.2-0.6-0.2
		c-0.4,0-0.7,0.2-0.9,0.4c-0.2,0.2-0.4,0.7-0.4,1.7v3.3h-1.1V82.4z"/>
	<path class="st0" d="M74.3,77.7h1.1v10.9h-1.1v-0.9c-0.4,0.5-1,1.1-2.1,1.1c-1.6,0-3-1.1-3-3.3c0-2.1,1.4-3.3,3-3.3
		c1.2,0,1.8,0.7,2.1,1V77.7z M70.2,85.5c0,1.3,0.8,2.3,2,2.3c1.3,0,2.1-1.1,2.1-2.3c0-1.6-1.1-2.3-2.1-2.3
		C71.2,83.2,70.2,84,70.2,85.5z"/>
	<path class="st0" d="M80,83.9c-0.2-0.4-0.5-0.6-0.9-0.6c-0.4,0-0.8,0.2-0.8,0.7c0,0.5,0.3,0.6,1,0.9c0.9,0.4,1.3,0.7,1.6,1
		c0.3,0.3,0.3,0.7,0.3,1c0,1.3-0.9,2-2.1,2c-0.3,0-1.7,0-2.2-1.6l0.9-0.4c0.1,0.3,0.5,1,1.3,1c0.7,0,1-0.5,1-1c0-0.6-0.4-0.8-1-1
		c-0.8-0.3-1.2-0.6-1.5-0.9c-0.2-0.3-0.3-0.6-0.3-0.9c0-1.1,0.8-1.7,1.8-1.7c0.3,0,1.2,0.1,1.7,1.1L80,83.9z"/>
	<path class="st0" d="M92.9,77.3l0.9,0.5L86,91.6l-0.9-0.4L92.9,77.3z"/>
	<path class="st0" d="M44.5,96.6v9h2.8v1h-3.9v-10H44.5z"/>
	<path class="st0" d="M48.1,103.6c0-1.9,1.4-3.3,3.3-3.3c1.9,0,3.3,1.4,3.3,3.3c0,1.9-1.4,3.3-3.3,3.3
		C49.5,106.8,48.1,105.5,48.1,103.6z M49.2,103.6c0,1.5,1.1,2.3,2.2,2.3c1.1,0,2.2-0.8,2.2-2.3c0-1.5-1-2.3-2.2-2.3
		C50.3,101.2,49.2,102,49.2,103.6z"/>
	<path class="st0" d="M58.3,106.1l-2.9-5.6h1.2l2.2,4.5l2-4.5h1.2l-4.6,9.7h-1.2L58.3,106.1z"/>
	<path class="st0" d="M68,100.4h1.1v6.2H68v-0.9c-0.4,0.5-1,1.1-2.1,1.1c-1.6,0-3-1.1-3-3.3c0-2.1,1.4-3.3,3-3.3
		c1.2,0,1.8,0.7,2.1,1V100.4z M64,103.5c0,1.3,0.8,2.3,2,2.3c1.3,0,2.1-1.1,2.1-2.3c0-1.6-1.1-2.3-2.1-2.3
		C64.9,101.2,64,102,64,103.5z"/>
	<path class="st0" d="M72.2,95.7v10.9h-1.1V95.7H72.2z"/>
	<path class="st0" d="M75.4,101.4v5.2h-1.1v-5.2h-0.7v-1h0.7v-2.2h1.1v2.2h1.1v1H75.4z"/>
	<path class="st0" d="M79.9,106.1l-2.9-5.6h1.2l2.2,4.5l2-4.5h1.2l-4.6,9.7h-1.2L79.9,106.1z"/>
</g>
<title>globe1</title>
<polyline class="st1" points="49.8,46.1 49.8,33.2 80.9,33.2 80.9,64.2 49.8,64.2 49.8,52.1 "/>
<polygon class="st2" points="69,38.4 70.9,42.3 75.3,43 72.1,46 72.9,50.3 69,48.3 65.1,50.3 65.9,46 62.7,43 67.1,42.3 "/>
<line class="st3" x1="57.9" y1="33.4" x2="57.9" y2="63.7"/>
<line class="st3" x1="50.1" y1="55.8" x2="80.4" y2="55.8"/>
</svg>
