<?xml version="1.0" encoding="utf-8"?>
<!-- Generator: Adobe Illustrator 23.0.3, SVG Export Plug-In . SVG Version: 6.00 Build 0)  -->
<svg version="1.1" id="Layer_1" xmlns="http://www.w3.org/2000/svg" xmlns:xlink="http://www.w3.org/1999/xlink" x="0px" y="0px"
	 viewBox="0 0 130 130" style="enable-background:new 0 0 130 130;" xml:space="preserve">
<style type="text/css">
	.st0{fill:#FFFFFF;}
	.st1{fill:none;stroke:#1EB9D5;stroke-width:1.5;}
	.st2{fill:none;stroke:#1EB9D5;stroke-width:1.5;stroke-linecap:round;stroke-linejoin:round;}
	.st3{fill:none;stroke:#FFE161;stroke-width:1.5;stroke-miterlimit:10;}
</style>
<g>
	<path class="st0" d="M46.9,90.7l1.7-10.6l3.8,8.4l3.9-8.5l1.6,10.6h-1.1l-0.9-7l-3.4,7.4L49,83.7l-1,7H46.9z"/>
	<path class="st0" d="M59.5,87.6c0-1.9,1.4-3.3,3.3-3.3c1.9,0,3.3,1.4,3.3,3.3c0,1.9-1.4,3.3-3.3,3.3C60.9,90.8,59.5,89.5,59.5,87.6
		z M60.6,87.6c0,1.5,1.1,2.3,2.2,2.3c1.1,0,2.2-0.8,2.2-2.3c0-1.5-1-2.3-2.2-2.3C61.7,85.2,60.6,86,60.6,87.6z"/>
	<path class="st0" d="M67.8,84.4h1.1v0.7c0.2-0.3,0.8-0.9,1.8-0.9c0.7,0,1.4,0.3,1.8,0.9c0.3,0.5,0.4,1,0.4,1.7v3.9h-1.1v-3.8
		c0-0.4,0-0.8-0.3-1.1c-0.2-0.3-0.5-0.4-1-0.4c-0.4,0-0.8,0.1-1.1,0.5c-0.4,0.5-0.4,1.2-0.4,1.7v3.3h-1.1V84.4z"/>
	<path class="st0" d="M80.4,89.1c-0.2,0.3-0.5,0.7-0.8,1c-0.6,0.5-1.3,0.8-2.1,0.8c-1.5,0-3.1-0.9-3.1-3.3c0-1.9,1.1-3.3,3-3.3
		c1.2,0,2,0.6,2.4,1.1c0.4,0.6,0.6,1.5,0.6,2.3h-4.8c0,1.3,0.9,2.1,2,2.1c0.5,0,0.9-0.2,1.3-0.5c0.3-0.2,0.5-0.6,0.6-0.9L80.4,89.1z
		 M79.3,86.9c-0.2-1-0.9-1.6-1.8-1.6s-1.7,0.7-1.8,1.6H79.3z"/>
	<path class="st0" d="M84,90.1l-2.9-5.6h1.2l2.2,4.5l2-4.5h1.2l-4.6,9.7H82L84,90.1z"/>
	<path class="st0" d="M37.4,99.7v9h-1.1v-9h-2.4v-1h6v1H37.4z"/>
	<path class="st0" d="M40,102.4h1.1v0.7c0.1-0.2,0.6-0.8,1.4-0.8c0.3,0,0.7,0.1,1,0.3l-0.5,1c-0.2-0.2-0.5-0.2-0.6-0.2
		c-0.4,0-0.7,0.2-0.9,0.4c-0.2,0.2-0.4,0.7-0.4,1.7v3.3H40V102.4z"/>
	<path class="st0" d="M48.9,102.4H50v6.2h-1.1v-0.9c-0.4,0.5-1,1.1-2.1,1.1c-1.6,0-3-1.1-3-3.3c0-2.1,1.4-3.3,3-3.3
		c1.2,0,1.8,0.7,2.1,1V102.4z M44.9,105.5c0,1.3,0.8,2.3,2,2.3c1.3,0,2.1-1.1,2.1-2.3c0-1.6-1.1-2.3-2.1-2.3
		C45.8,103.2,44.9,104,44.9,105.5z"/>
	<path class="st0" d="M52,102.4h1.1v0.7c0.2-0.3,0.8-0.9,1.8-0.9c0.7,0,1.4,0.3,1.8,0.9c0.3,0.5,0.4,1,0.4,1.7v3.9H56v-3.8
		c0-0.4,0-0.8-0.3-1.1c-0.2-0.3-0.5-0.4-1-0.4c-0.4,0-0.8,0.1-1.1,0.5c-0.4,0.5-0.4,1.2-0.4,1.7v3.3H52V102.4z"/>
	<path class="st0" d="M61.6,103.9c-0.1-0.4-0.5-0.6-0.9-0.6c-0.4,0-0.8,0.2-0.8,0.7c0,0.5,0.3,0.6,1,0.9c0.9,0.4,1.3,0.7,1.6,1
		c0.3,0.3,0.3,0.7,0.3,1c0,1.3-0.9,2-2.1,2c-0.3,0-1.6,0-2.2-1.6l0.9-0.4c0.1,0.3,0.5,1,1.3,1c0.7,0,1-0.5,1-1c0-0.6-0.4-0.8-1-1
		c-0.8-0.3-1.2-0.6-1.5-0.9c-0.2-0.3-0.3-0.6-0.3-0.9c0-1.1,0.8-1.7,1.8-1.7c0.3,0,1.2,0.1,1.7,1.1L61.6,103.9z"/>
	<path class="st0" d="M64.4,102.4h1.1v0.7c0.3-0.5,0.9-0.8,1.5-0.8c1.1,0,1.6,0.8,1.7,1c0.6-0.9,1.5-1,1.9-1c1.8,0,2,1.5,2,2.4v3.9
		h-1.1v-3.8c0-0.7-0.1-1.6-1.1-1.6c-1.2,0-1.4,1.2-1.4,1.9v3.5h-1.1V105c0-0.4,0-1.7-1.1-1.7c-1.2,0-1.4,1.3-1.4,2v3.4h-1.1V102.4z"
		/>
	<path class="st0" d="M75.2,99.3c0.4,0,0.8,0.3,0.8,0.8s-0.3,0.8-0.8,0.8s-0.8-0.3-0.8-0.8S74.7,99.3,75.2,99.3z M75.7,102.4v6.2
		h-1.1v-6.2H75.7z"/>
	<path class="st0" d="M78.9,103.4v5.2h-1.1v-5.2h-0.7v-1h0.7v-2.2h1.1v2.2h1.1v1H78.9z"/>
	<path class="st0" d="M82.4,103.4v5.2h-1.1v-5.2h-0.7v-1h0.7v-2.2h1.1v2.2h1.1v1H82.4z"/>
	<path class="st0" d="M90,107.1c-0.2,0.3-0.4,0.7-0.8,1c-0.6,0.5-1.3,0.8-2.1,0.8c-1.5,0-3.1-0.9-3.1-3.3c0-1.9,1.1-3.3,3-3.3
		c1.2,0,2,0.6,2.4,1.1c0.4,0.6,0.6,1.5,0.6,2.3h-4.8c0,1.3,0.9,2.1,2,2.1c0.5,0,0.9-0.2,1.3-0.5c0.3-0.2,0.5-0.6,0.6-0.9L90,107.1z
		 M88.9,104.9c-0.2-1-0.9-1.6-1.8-1.6s-1.7,0.7-1.8,1.6H88.9z"/>
	<path class="st0" d="M91.7,102.4h1.1v0.7c0.1-0.2,0.6-0.8,1.4-0.8c0.3,0,0.7,0.1,1,0.3l-0.5,1c-0.2-0.2-0.5-0.2-0.6-0.2
		c-0.4,0-0.7,0.2-0.9,0.4c-0.2,0.2-0.4,0.7-0.4,1.7v3.3h-1.1V102.4z"/>
	<path class="st0" d="M98.5,103.9c-0.2-0.4-0.5-0.6-0.9-0.6c-0.4,0-0.8,0.2-0.8,0.7c0,0.5,0.3,0.6,1,0.9c0.9,0.4,1.3,0.7,1.6,1
		c0.3,0.3,0.3,0.7,0.3,1c0,1.3-0.9,2-2.1,2c-0.3,0-1.7,0-2.2-1.6l0.9-0.4c0.1,0.3,0.5,1,1.3,1c0.7,0,1-0.5,1-1c0-0.6-0.4-0.8-1-1
		c-0.8-0.3-1.2-0.6-1.5-0.9c-0.2-0.3-0.3-0.6-0.3-0.9c0-1.1,0.8-1.7,1.8-1.7c0.3,0,1.2,0.1,1.7,1.1L98.5,103.9z"/>
</g>
<title>globe10</title>
<path class="st1" d="M40.9,42.4l17.7-5.6c4.8-1.5,10-1.5,14.9,0.1L90,42.4H40.9z"/>
<line class="st2" x1="46.7" y1="65" x2="46.7" y2="42.8"/>
<line class="st2" x1="84.1" y1="65" x2="84.1" y2="42.8"/>
<polyline class="st3" points="77.5,53.3 77.5,47.9 52.7,47.9 52.7,65 77.5,65 77.5,58.6 "/>
<polyline class="st1" points="53.9,69.2 45.2,69.2 45.2,65 85.6,65 85.6,69.2 59.9,69.2 "/>
</svg>
