<?xml version="1.0" encoding="utf-8"?>
<!-- Generator: Adobe Illustrator 23.0.3, SVG Export Plug-In . SVG Version: 6.00 Build 0)  -->
<svg version="1.1" id="Layer_1" xmlns="http://www.w3.org/2000/svg" xmlns:xlink="http://www.w3.org/1999/xlink" x="0px" y="0px"
	 viewBox="0 0 130 130" style="enable-background:new 0 0 130 130;" xml:space="preserve">
<style type="text/css">
	.st0{fill:none;stroke:#1EB9D5;stroke-width:1.5;}
	.st1{fill:#1EB9D5;}
	.st2{fill:#FFE161;}
	.st3{fill:#FFFFFF;}
</style>
<title>globe12</title>
<path class="st0" d="M86.9,66.4v1c0,2.3-1.9,4.2-4.2,4.2H47c-2.3,0-4.2-1.9-4.2-4.2V31.7c0-2.3,1.9-4.2,4.2-4.2h35.7
	c2.3,0,4.2,1.9,4.2,4.2v27.6"/>
<rect x="47.7" y="32" class="st0" width="34.2" height="17.6"/>
<rect x="70.8" y="56.3" class="st1" width="9.1" height="2.4"/>
<polyline class="st2" points="51.9,56.9 51.2,59.1 55.9,61.2 57.7,57 "/>
<rect x="48.8" y="56.3" class="st0" width="11.6" height="6.6"/>
<g>
	<path class="st3" d="M36.6,85.6c-0.1-0.3-0.4-0.6-0.6-0.8c-0.2-0.2-0.6-0.3-1.1-0.3c-1,0-1.7,0.6-1.7,1.5c0,0.4,0.1,0.6,0.4,0.9
		c0.3,0.3,0.7,0.5,1,0.6l1,0.4c0.6,0.3,1.1,0.5,1.5,0.9c0.5,0.5,0.7,1.1,0.7,1.8c0,1.8-1.4,3.1-3.2,3.1c-0.7,0-1.5-0.1-2.2-0.8
		c-0.5-0.5-0.8-1.2-0.9-1.8l1.1-0.3c0.1,0.5,0.3,1,0.6,1.3c0.4,0.4,0.9,0.6,1.4,0.6c1.4,0,2-1,2-2c0-0.5-0.1-0.8-0.5-1.2
		c-0.3-0.3-0.7-0.5-1.2-0.7l-0.9-0.4c-0.4-0.2-0.9-0.4-1.3-0.8c-0.4-0.4-0.7-0.9-0.7-1.6c0-1.5,1.2-2.6,2.8-2.6
		c0.6,0,1.1,0.1,1.6,0.4c0.4,0.3,0.8,0.7,1,1.1L36.6,85.6z"/>
	<path class="st3" d="M45.2,92.1c-0.2,0.3-0.4,0.7-0.8,1c-0.6,0.5-1.3,0.8-2.1,0.8c-1.5,0-3.1-0.9-3.1-3.3c0-1.9,1.1-3.3,3-3.3
		c1.2,0,2,0.6,2.4,1.1c0.4,0.6,0.6,1.5,0.6,2.3h-4.8c0,1.3,0.9,2.1,2,2.1c0.5,0,0.9-0.2,1.3-0.5c0.3-0.2,0.5-0.6,0.6-0.9L45.2,92.1z
		 M44.1,89.9c-0.2-1-0.9-1.6-1.8-1.6c-0.9,0-1.7,0.7-1.8,1.6H44.1z"/>
	<path class="st3" d="M47.9,82.7v10.9h-1.1V82.7H47.9z"/>
	<path class="st3" d="M51.1,88.4v5.2H50v-5.2h-0.6v-1H50v-2.7c0-0.6,0-1.3,0.6-1.8c0.3-0.3,0.8-0.4,1.2-0.4c0.4,0,0.6,0.1,0.8,0.1v1
		c-0.2-0.1-0.5-0.1-0.7-0.1c-0.2,0-0.5,0.1-0.7,0.3c-0.1,0.2-0.1,0.6-0.1,0.9v2.6h1.5v1H51.1z"/>
	<path class="st3" d="M61.8,85.6c-0.1-0.3-0.4-0.6-0.6-0.8c-0.2-0.2-0.6-0.3-1.1-0.3c-1,0-1.7,0.6-1.7,1.5c0,0.4,0.1,0.6,0.4,0.9
		c0.3,0.3,0.7,0.5,1,0.6l1,0.4c0.6,0.3,1.1,0.5,1.5,0.9c0.5,0.5,0.7,1.1,0.7,1.8c0,1.8-1.4,3.1-3.2,3.1c-0.7,0-1.5-0.1-2.2-0.8
		c-0.5-0.5-0.8-1.2-0.9-1.8l1.1-0.3c0.1,0.5,0.3,1,0.6,1.3c0.4,0.4,0.9,0.6,1.4,0.6c1.4,0,2-1,2-2c0-0.5-0.1-0.8-0.5-1.2
		c-0.3-0.3-0.7-0.5-1.2-0.7l-0.9-0.4c-0.4-0.2-0.9-0.4-1.3-0.8c-0.4-0.4-0.7-0.9-0.7-1.6c0-1.5,1.2-2.6,2.8-2.6
		c0.6,0,1.1,0.1,1.6,0.4c0.4,0.3,0.8,0.7,1,1.1L61.8,85.6z"/>
	<path class="st3" d="M70.4,92.1c-0.2,0.3-0.4,0.7-0.8,1c-0.6,0.5-1.3,0.8-2.1,0.8c-1.5,0-3.1-0.9-3.1-3.3c0-1.9,1.1-3.3,3-3.3
		c1.2,0,2,0.6,2.4,1.1c0.4,0.6,0.6,1.5,0.6,2.3h-4.8c0,1.3,0.9,2.1,2,2.1c0.5,0,0.9-0.2,1.3-0.5c0.3-0.2,0.5-0.6,0.6-0.9L70.4,92.1z
		 M69.3,89.9c-0.2-1-0.9-1.6-1.8-1.6s-1.7,0.7-1.8,1.6H69.3z"/>
	<path class="st3" d="M72,87.4h1.1v0.7c0.1-0.2,0.6-0.8,1.4-0.8c0.3,0,0.7,0.1,1,0.3l-0.5,1c-0.2-0.2-0.5-0.2-0.6-0.2
		c-0.4,0-0.7,0.2-0.9,0.4c-0.2,0.2-0.4,0.7-0.4,1.7v3.3H72V87.4z"/>
	<path class="st3" d="M77.1,87.4l1.9,4.2l1.9-4.2H82L79,94.1l-3.1-6.6H77.1z"/>
	<path class="st3" d="M83.7,84.3c0.4,0,0.8,0.3,0.8,0.8s-0.3,0.8-0.8,0.8s-0.8-0.3-0.8-0.8S83.3,84.3,83.7,84.3z M84.2,87.4v6.2
		h-1.1v-6.2H84.2z"/>
	<path class="st3" d="M91.2,89.2c-0.6-0.7-1.4-0.9-2-0.9c-1.2,0-2.2,0.8-2.2,2.3c0,1.5,1.1,2.3,2.2,2.3c0.6,0,1.4-0.3,2-1v1.3
		c-0.7,0.5-1.4,0.6-2,0.6c-1.9,0-3.3-1.4-3.3-3.3c0-1.9,1.4-3.3,3.3-3.3c1,0,1.6,0.4,1.9,0.6V89.2z"/>
	<path class="st3" d="M98.4,92.1c-0.2,0.3-0.5,0.7-0.8,1c-0.6,0.5-1.3,0.8-2.1,0.8c-1.5,0-3.1-0.9-3.1-3.3c0-1.9,1.1-3.3,3-3.3
		c1.2,0,2,0.6,2.4,1.1c0.4,0.6,0.6,1.5,0.6,2.3h-4.8c0,1.3,0.9,2.1,2,2.1c0.5,0,0.9-0.2,1.3-0.5c0.3-0.2,0.5-0.6,0.6-0.9L98.4,92.1z
		 M97.3,89.9c-0.2-1-0.9-1.6-1.8-1.6s-1.7,0.7-1.8,1.6H97.3z"/>
	<path class="st3" d="M37.3,111.7l1.7-10.6l3.8,8.4l3.9-8.5l1.6,10.6h-1.1l-0.9-7l-3.4,7.4l-3.4-7.4l-1,7H37.3z"/>
	<path class="st3" d="M55.1,105.4h1.1v6.2h-1.1v-0.9c-0.4,0.5-1,1.1-2.1,1.1c-1.6,0-3-1.1-3-3.3c0-2.1,1.4-3.3,3-3.3
		c1.2,0,1.8,0.7,2.1,1V105.4z M51.1,108.5c0,1.3,0.8,2.3,2,2.3c1.3,0,2.1-1.1,2.1-2.3c0-1.6-1.1-2.3-2.1-2.3
		C52,106.2,51.1,107,51.1,108.5z"/>
	<path class="st3" d="M63.1,107.2c-0.6-0.7-1.4-0.9-1.9-0.9c-1.2,0-2.2,0.8-2.2,2.3c0,1.5,1.1,2.3,2.2,2.3c0.6,0,1.4-0.3,2-1v1.3
		c-0.7,0.5-1.4,0.6-2,0.6c-1.9,0-3.3-1.4-3.3-3.3c0-1.9,1.4-3.3,3.3-3.3c1,0,1.6,0.4,1.9,0.6V107.2z"/>
	<path class="st3" d="M64.8,100.7h1.1v5.4c0.2-0.3,0.8-0.9,1.8-0.9c0.7,0,1.4,0.3,1.8,0.9c0.3,0.5,0.4,1,0.4,1.7v3.9h-1.1v-3.8
		c0-0.4,0-0.8-0.3-1.1c-0.2-0.3-0.5-0.4-1-0.4c-0.4,0-0.8,0.1-1.1,0.5c-0.4,0.5-0.5,1.2-0.5,1.7v3.3h-1.1V100.7z"/>
	<path class="st3" d="M72.4,102.3c0.4,0,0.8,0.3,0.8,0.8s-0.3,0.8-0.8,0.8s-0.8-0.3-0.8-0.8S72,102.3,72.4,102.3z M72.9,105.4v6.2
		h-1.1v-6.2H72.9z"/>
	<path class="st3" d="M75,105.4h1.1v0.7c0.2-0.3,0.8-0.9,1.8-0.9c0.7,0,1.4,0.3,1.8,0.9c0.3,0.5,0.4,1,0.4,1.7v3.9h-1.1v-3.8
		c0-0.4,0-0.8-0.3-1.1c-0.2-0.3-0.5-0.4-1-0.4c-0.4,0-0.8,0.1-1.1,0.5c-0.4,0.5-0.5,1.2-0.5,1.7v3.3H75V105.4z"/>
	<path class="st3" d="M87.6,110.1c-0.2,0.3-0.4,0.7-0.8,1c-0.6,0.5-1.3,0.8-2.1,0.8c-1.5,0-3.1-0.9-3.1-3.3c0-1.9,1.1-3.3,3-3.3
		c1.2,0,2,0.6,2.4,1.1c0.4,0.6,0.6,1.5,0.6,2.3h-4.8c0,1.3,0.9,2.1,2,2.1c0.5,0,0.9-0.2,1.3-0.5c0.3-0.2,0.5-0.6,0.6-0.9L87.6,110.1
		z M86.5,107.9c-0.2-1-0.9-1.6-1.8-1.6s-1.7,0.7-1.8,1.6H86.5z"/>
	<path class="st3" d="M91.8,106.9c-0.2-0.4-0.5-0.6-0.9-0.6c-0.4,0-0.8,0.2-0.8,0.7c0,0.5,0.3,0.6,1,0.9c0.9,0.4,1.3,0.7,1.6,1
		c0.3,0.3,0.3,0.7,0.3,1c0,1.3-0.9,2-2.1,2c-0.3,0-1.7,0-2.2-1.6l0.9-0.4c0.1,0.3,0.5,1,1.3,1c0.7,0,1-0.5,1-1c0-0.6-0.4-0.8-1-1
		c-0.8-0.3-1.2-0.6-1.5-0.9c-0.2-0.3-0.3-0.6-0.3-0.9c0-1.1,0.8-1.7,1.8-1.7c0.3,0,1.2,0.1,1.7,1.1L91.8,106.9z"/>
</g>
</svg>
