<?xml version="1.0" encoding="utf-8"?>
<!-- Generator: Adobe Illustrator 23.0.3, SVG Export Plug-In . SVG Version: 6.00 Build 0)  -->
<svg version="1.1" id="Layer_1" xmlns="http://www.w3.org/2000/svg" xmlns:xlink="http://www.w3.org/1999/xlink" x="0px" y="0px"
	 viewBox="0 0 130 130" style="enable-background:new 0 0 130 130;" xml:space="preserve">
<style type="text/css">
	.st0{fill:#FFFFFF;}
	.st1{fill:none;stroke:#FFE161;stroke-width:1.5;stroke-miterlimit:10;}
	.st2{fill:none;stroke:#1EB9D5;stroke-width:1.5;}
</style>
<g>
	<path class="st0" d="M29.2,83.6c0.7,0,1.7,0,2.4,0.6c0.6,0.4,1.1,1.2,1.1,2.2c0,1.5-1,2.7-2.5,2.8l3.2,4.5H32l-3-4.4h-0.3v4.4h-1.1
		v-10H29.2z M28.7,88.3h0.7c1.4,0,2.2-0.7,2.2-1.8c0-0.6-0.2-1.1-0.8-1.5c-0.4-0.3-1-0.3-1.4-0.3h-0.7V88.3z"/>
	<path class="st0" d="M40.1,92.1c-0.2,0.3-0.4,0.7-0.8,1c-0.6,0.5-1.3,0.8-2.1,0.8c-1.5,0-3.1-0.9-3.1-3.3c0-1.9,1.1-3.3,3-3.3
		c1.2,0,2,0.6,2.4,1.1c0.4,0.6,0.6,1.5,0.6,2.3h-4.8c0,1.3,0.9,2.1,2,2.1c0.5,0,0.9-0.2,1.3-0.5c0.3-0.2,0.5-0.6,0.6-0.9L40.1,92.1z
		 M39,89.9c-0.2-1-0.9-1.6-1.8-1.6s-1.7,0.7-1.8,1.6H39z"/>
	<path class="st0" d="M42.9,88.4v5.2h-1.1v-5.2h-0.7v-1h0.7v-2.2h1.1v2.2H44v1H42.9z"/>
	<path class="st0" d="M49.8,87.4h1.1v6.2h-1.1v-0.9c-0.4,0.5-1,1.1-2.1,1.1c-1.6,0-3-1.1-3-3.3c0-2.1,1.4-3.3,3-3.3
		c1.2,0,1.8,0.7,2.1,1V87.4z M45.7,90.5c0,1.3,0.8,2.3,2,2.3c1.3,0,2.1-1.1,2.1-2.3c0-1.6-1.1-2.3-2.1-2.3
		C46.7,88.2,45.7,89,45.7,90.5z"/>
	<path class="st0" d="M53.4,84.3c0.4,0,0.8,0.3,0.8,0.8s-0.3,0.8-0.8,0.8s-0.8-0.3-0.8-0.8S53,84.3,53.4,84.3z M54,87.4v6.2h-1.1
		v-6.2H54z"/>
	<path class="st0" d="M57.1,82.7v10.9H56V82.7H57.1z"/>
	<path class="st0" d="M67.3,85.6c-0.1-0.3-0.4-0.6-0.6-0.8c-0.2-0.2-0.6-0.3-1.1-0.3c-1,0-1.7,0.6-1.7,1.5c0,0.4,0.1,0.6,0.4,0.9
		c0.3,0.3,0.7,0.5,1,0.6l1,0.4c0.6,0.3,1.1,0.5,1.5,0.9c0.5,0.5,0.7,1.1,0.7,1.8c0,1.8-1.4,3.1-3.2,3.1c-0.7,0-1.5-0.1-2.2-0.8
		c-0.5-0.5-0.8-1.2-0.9-1.8l1.1-0.3c0.1,0.5,0.3,1,0.6,1.3c0.4,0.4,0.9,0.6,1.4,0.6c1.4,0,2-1,2-2c0-0.5-0.1-0.8-0.5-1.2
		c-0.3-0.3-0.7-0.5-1.2-0.7l-0.9-0.4c-0.4-0.2-0.9-0.4-1.3-0.8c-0.4-0.4-0.7-0.9-0.7-1.6c0-1.5,1.2-2.6,2.8-2.6
		c0.6,0,1.1,0.1,1.6,0.4c0.4,0.3,0.8,0.7,1,1.1L67.3,85.6z"/>
	<path class="st0" d="M70.4,82.7h1.1v5.4c0.2-0.3,0.8-0.9,1.8-0.9c0.7,0,1.4,0.3,1.8,0.9c0.3,0.5,0.4,1,0.4,1.7v3.9h-1.1v-3.8
		c0-0.4,0-0.8-0.3-1.1c-0.2-0.3-0.5-0.4-1-0.4c-0.4,0-0.8,0.1-1.1,0.5c-0.4,0.5-0.5,1.2-0.5,1.7v3.3h-1.1V82.7z"/>
	<path class="st0" d="M76.8,90.6c0-1.9,1.4-3.3,3.3-3.3s3.3,1.4,3.3,3.3c0,1.9-1.4,3.3-3.3,3.3S76.8,92.5,76.8,90.6z M77.9,90.6
		c0,1.5,1.1,2.3,2.2,2.3c1.1,0,2.2-0.8,2.2-2.3c0-1.5-1-2.3-2.2-2.3S77.9,89,77.9,90.6z"/>
	<path class="st0" d="M86.1,97.1h-1.1v-9.7h1.1v0.9c0.7-0.9,1.7-1,2.1-1c2,0,3,1.6,3,3.3c0,1.7-1.1,3.3-3,3.3c-1,0-1.7-0.5-2.2-1.1
		V97.1z M90.2,90.6c0-1.5-1-2.3-2-2.3s-2.1,0.8-2.1,2.3c0,1.3,0.8,2.3,2.1,2.3C89.4,92.9,90.2,91.8,90.2,90.6z"/>
	<path class="st0" d="M95.5,88.9c-0.1-0.4-0.5-0.6-0.9-0.6c-0.4,0-0.8,0.2-0.8,0.7c0,0.5,0.3,0.6,1,0.9c0.9,0.4,1.3,0.7,1.6,1
		c0.3,0.3,0.3,0.7,0.3,1c0,1.3-0.9,2-2.1,2c-0.3,0-1.6,0-2.2-1.6l0.9-0.4c0.1,0.3,0.5,1,1.3,1c0.7,0,1-0.5,1-1c0-0.6-0.4-0.8-1-1
		c-0.8-0.3-1.2-0.6-1.5-0.9c-0.2-0.3-0.3-0.6-0.3-0.9c0-1.1,0.8-1.7,1.8-1.7c0.3,0,1.2,0.1,1.7,1.1L95.5,88.9z"/>
	<path class="st0" d="M108.4,82.3l0.9,0.5l-7.7,13.9l-0.9-0.4L108.4,82.3z"/>
	<path class="st0" d="M56.8,103.9c-0.3-0.3-0.8-0.7-1.3-0.9c-0.5-0.2-1.1-0.4-1.7-0.4c-2.3,0-4,1.9-4,4.2c0,2.7,2.2,4.1,4,4.1
		c0.7,0,1.3-0.2,1.9-0.5c0.6-0.3,1-0.7,1.2-0.8v1.4c-1.1,0.8-2.3,1-3,1c-3,0-5.2-2.2-5.2-5.1c0-3,2.2-5.2,5.2-5.2c0.6,0,1.8,0.1,3,1
		V103.9z"/>
	<path class="st0" d="M58.6,100.7h1.1v5.4c0.2-0.3,0.8-0.9,1.8-0.9c0.7,0,1.4,0.3,1.8,0.9c0.3,0.5,0.4,1,0.4,1.7v3.9h-1.1v-3.8
		c0-0.4,0-0.8-0.3-1.1c-0.2-0.3-0.5-0.4-1-0.4c-0.4,0-0.8,0.1-1.1,0.5c-0.4,0.5-0.4,1.2-0.4,1.7v3.3h-1.1V100.7z"/>
	<path class="st0" d="M70.4,105.4h1.1v6.2h-1.1v-0.9c-0.4,0.5-1,1.1-2.1,1.1c-1.6,0-3-1.1-3-3.3c0-2.1,1.4-3.3,3-3.3
		c1.2,0,1.8,0.7,2.1,1V105.4z M66.4,108.5c0,1.3,0.8,2.3,2,2.3c1.3,0,2.1-1.1,2.1-2.3c0-1.6-1.1-2.3-2.1-2.3
		C67.4,106.2,66.4,107,66.4,108.5z"/>
	<path class="st0" d="M74.1,102.3c0.4,0,0.8,0.3,0.8,0.8s-0.3,0.8-0.8,0.8s-0.8-0.3-0.8-0.8S73.7,102.3,74.1,102.3z M74.6,105.4v6.2
		h-1.1v-6.2H74.6z"/>
	<path class="st0" d="M76.7,105.4h1.1v0.7c0.2-0.3,0.8-0.9,1.8-0.9c0.7,0,1.4,0.3,1.8,0.9c0.3,0.5,0.4,1,0.4,1.7v3.9h-1.1v-3.8
		c0-0.4,0-0.8-0.3-1.1c-0.2-0.3-0.5-0.4-1-0.4c-0.4,0-0.8,0.1-1.1,0.5c-0.4,0.5-0.4,1.2-0.4,1.7v3.3h-1.1V105.4z"/>
	<path class="st0" d="M86.3,106.9c-0.1-0.4-0.5-0.6-0.9-0.6c-0.4,0-0.8,0.2-0.8,0.7c0,0.5,0.3,0.6,1,0.9c0.9,0.4,1.3,0.7,1.6,1
		c0.3,0.3,0.3,0.7,0.3,1c0,1.3-0.9,2-2.1,2c-0.3,0-1.6,0-2.2-1.6l0.9-0.4c0.1,0.3,0.5,1,1.3,1c0.7,0,1-0.5,1-1c0-0.6-0.4-0.8-1-1
		c-0.8-0.3-1.2-0.6-1.5-0.9c-0.2-0.3-0.3-0.6-0.3-0.9c0-1.1,0.8-1.7,1.8-1.7c0.3,0,1.2,0.1,1.7,1.1L86.3,106.9z"/>
</g>
<title>globe8</title>
<polygon class="st1" points="84.4,32.9 45,32.9 47.2,28.9 82.2,28.9 "/>
<polyline class="st2" points="62.3,71.4 45,71.4 45,40.6 "/>
<polyline class="st2" points="84.4,40.6 84.4,71.4 69.3,71.4 "/>
<polyline class="st2" points="80.4,38.8 80.4,62.1 48.7,62.1 48.7,38.4 "/>
<line class="st1" x1="38.8" y1="36.3" x2="45.1" y2="32.8"/>
<line class="st1" x1="84.2" y1="32.8" x2="89.9" y2="36.5"/>
<path class="st1" d="M49.3,36.6c0,5.1-10.1,4.9-10.1-0.2l50.4,0.2c0,5.1-10.1,5.3-10.1,0.3"/>
<path class="st1" d="M59.5,37c0,5.1-10.1,4.5-10.1-0.6"/>
<path class="st1" d="M69.5,37c0,5.1-10.1,4.9-10.1-0.2"/>
<path class="st1" d="M79.6,37c0,5.1-10.1,4.9-10.1-0.2"/>
</svg>
