<?xml version="1.0" encoding="utf-8"?>
<!-- Generator: Adobe Illustrator 23.0.3, SVG Export Plug-In . SVG Version: 6.00 Build 0)  -->
<svg version="1.1" id="Layer_1" xmlns="http://www.w3.org/2000/svg" xmlns:xlink="http://www.w3.org/1999/xlink" x="0px" y="0px"
	 viewBox="0 0 130 130" style="enable-background:new 0 0 130 130;" xml:space="preserve">
<style type="text/css">
	.st0{fill:none;stroke:#1EB9D5;stroke-width:1.5;}
	.st1{fill:#17BAD6;}
	.st2{fill:#FFFFFF;}
</style>
<title>globe6</title>
<path class="st0" d="M79.2,72.4v3.8c0,1.4-1.1,2.5-2.5,2.5H53.1c-1.4,0-2.5-1.1-2.5-2.5V30.7c0-1.4,1.1-2.5,2.5-2.5l0,0h23.6
	c1.4,0,2.5,1.1,2.5,2.5v34.9"/>
<path class="st0" d="M54.4,58.7v14c-0.1,1.2,0.9,2.3,2.2,2.4l0,0h16.6c1.3-0.1,2.2-1.1,2.2-2.4V34.3c0.1-1.3-0.9-2.3-2.2-2.4h-4.4
	l-0.8,2h-6.4l-0.6-2h-4.4c-1.2,0.1-2.2,1.1-2.2,2.4l0,0v19.1"/>
<path class="st1" d="M66,44.5v0.9c1.3,0,3.7,0.6,3.7,1.3c0,0.3-0.5,1.2-0.8,1.2C68,47.5,67,47.2,66,47.1v5.4
	c2.1,0.8,4.5,1.6,4.5,4.8c0,2.6-1.8,4.3-4.5,4.6v1.2c0,0.3-0.1,0.4-0.5,0.4S65,63.4,65,63.1V62c-2.6-0.1-4.6-1.1-4.6-1.7
	c0-0.4,0.6-1.3,0.8-1.3c1.1,0.7,2.4,1.2,3.7,1.3v-6c-2.1-0.8-4.3-1.6-4.3-4.6c0-2.3,1.7-3.9,4.3-4.2v-1c0-0.2,0.1-0.4,0.5-0.4
	S66,44.3,66,44.5z M62.9,49.8c0,1.3,1,2,2.2,2.5v-5C63.8,47.3,62.8,48.4,62.9,49.8L62.9,49.8z M66,60.2c1.4-0.2,2.4-1.4,2.3-2.8
	c0-1.5-1-2.2-2.3-2.7V60.2z"/>
<g>
	<path class="st2" d="M45.7,96.3h-0.8v-6.9h3.8v0.7h-3v2.5h2.9v0.7h-2.9V96.3z"/>
	<path class="st2" d="M49.9,96.3v-6.9h0.8v6.9H49.9z"/>
	<path class="st2" d="M58,96.3h-0.9l-3.8-5.8l0,0c0.1,0.7,0.1,1.3,0.1,1.9v3.9h-0.7v-6.9h0.8l3.8,5.8l0,0c0-0.1,0-0.4,0-0.8
		s0-0.8,0-1v-4h0.8v6.9H58z"/>
	<path class="st2" d="M62,96.3h-0.8v-6.2H59v-0.7h5.2v0.7H62V96.3z"/>
	<path class="st2" d="M69,96.3h-3.8v-6.9H69v0.7h-3v2.2h2.9V93H66v2.5h3V96.3z"/>
	<path class="st2" d="M73.5,90c-0.8,0-1.4,0.3-1.8,0.8S71,92,71,92.9s0.2,1.6,0.6,2.1s1,0.7,1.8,0.7c0.5,0,1-0.1,1.6-0.3v0.7
		c-0.5,0.2-1.1,0.3-1.8,0.3c-1,0-1.8-0.3-2.4-0.9C70.2,94.9,70,94,70,92.9c0-0.7,0.1-1.3,0.4-1.9c0.3-0.5,0.6-0.9,1.2-1.2
		c0.5-0.3,1.1-0.4,1.8-0.4c0.7,0,1.4,0.1,1.9,0.4L75,90.5C74.6,90.1,74,90,73.5,90z"/>
	<path class="st2" d="M81.9,96.3h-0.8V93h-3.6v3.2h-0.8v-6.9h0.8v2.9h3.6v-2.9h0.8C81.9,89.3,81.9,96.3,81.9,96.3z"/>
	<path class="st2" d="M88.8,89.4l-2.6,6.9h-0.8l2.6-6.9H88.8z"/>
	<path class="st2" d="M26.3,109.5l-2.3-6.1l0,0c0,0.5,0.1,1.1,0.1,1.7v4.4h-0.7v-6.9h1.2l2.2,5.7l0,0l2.2-5.7h1.2v6.9h-0.8v-4.4
		c0-0.5,0-1.1,0.1-1.7l0,0l-2.4,6.1H26.3z"/>
	<path class="st2" d="M38,106c0,1.1-0.3,2-0.8,2.6s-1.3,0.9-2.3,0.9s-1.8-0.3-2.4-0.9s-0.8-1.5-0.8-2.6s0.3-2,0.8-2.6
		c0.6-0.6,1.3-0.9,2.4-0.9c1,0,1.8,0.3,2.3,0.9C37.7,104,38,104.9,38,106z M32.5,106c0,0.9,0.2,1.6,0.6,2.1c0.4,0.5,1,0.7,1.7,0.7
		c0.8,0,1.3-0.2,1.7-0.7s0.6-1.2,0.6-2.1s-0.2-1.6-0.6-2.1s-1-0.7-1.7-0.7c-0.8,0-1.3,0.2-1.7,0.7S32.5,105.1,32.5,106z"/>
	<path class="st2" d="M39.5,102.6h1.9c0.9,0,1.6,0.1,2,0.4s0.6,0.7,0.6,1.3c0,0.4-0.1,0.7-0.3,1c-0.2,0.3-0.6,0.4-1,0.5l0,0
		c1,0.2,1.6,0.7,1.6,1.7c0,0.6-0.2,1.1-0.6,1.4s-1,0.5-1.7,0.5h-2.4L39.5,102.6L39.5,102.6z M40.3,105.6h1.3c0.6,0,1-0.1,1.2-0.3
		s0.4-0.5,0.4-0.9s-0.1-0.7-0.4-0.8c-0.3-0.2-0.7-0.3-1.3-0.3h-1.2V105.6z M40.3,106.2v2.6h1.4c0.6,0,1-0.1,1.3-0.3
		c0.3-0.2,0.4-0.6,0.4-1s-0.1-0.7-0.4-0.9c-0.3-0.2-0.7-0.3-1.3-0.3L40.3,106.2L40.3,106.2z"/>
	<path class="st2" d="M45.8,109.5v-6.9h0.8v6.9H45.8z"/>
	<path class="st2" d="M48.5,109.5v-6.9h0.8v6.2h3v0.7C52.3,109.5,48.5,109.5,48.5,109.5z"/>
	<path class="st2" d="M57.3,109.5h-3.8v-6.9h3.8v0.7h-3v2.2h2.9v0.7h-2.9v2.5h3V109.5z"/>
	<path class="st2" d="M67.4,109.5h-0.8l-1.4-4.6c-0.1-0.2-0.1-0.5-0.2-0.8s-0.1-0.5-0.1-0.6c-0.1,0.4-0.2,0.9-0.3,1.4l-1.3,4.6h-0.9
		l-1.8-6.9h0.8l1.1,4.3c0.2,0.6,0.3,1.1,0.3,1.6c0.1-0.6,0.2-1.1,0.4-1.7l1.2-4.2h0.8l1.3,4.2c0.2,0.5,0.3,1,0.4,1.7
		c0.1-0.4,0.2-1,0.3-1.6l1.1-4.2h0.8L67.4,109.5z"/>
	<path class="st2" d="M74.6,109.5l-0.9-2.2h-2.8l-0.8,2.2h-0.8l2.7-6.9h0.7l2.7,6.9H74.6z M73.5,106.6l-0.8-2.1
		c-0.1-0.3-0.2-0.6-0.3-1c-0.1,0.3-0.2,0.6-0.3,1l-0.8,2.1H73.5z"/>
	<path class="st2" d="M76.4,109.5v-6.9h0.8v6.2h3v0.7C80.2,109.5,76.4,109.5,76.4,109.5z"/>
	<path class="st2" d="M81.4,109.5v-6.9h0.8v6.2h3v0.7C85.2,109.5,81.4,109.5,81.4,109.5z"/>
	<path class="st2" d="M90.3,109.5h-3.9v-6.9h3.8v0.7h-3v2.2h2.9v0.7h-2.9v2.5h3L90.3,109.5L90.3,109.5z"/>
	<path class="st2" d="M93.9,109.5h-0.8v-6.2h-2.2v-0.7h5.2v0.7h-2.2V109.5z"/>
	<path class="st2" d="M101,107.7c0,0.6-0.2,1.1-0.7,1.4s-1,0.5-1.8,0.5s-1.4-0.1-1.9-0.3v-0.8c0.3,0.1,0.6,0.2,0.9,0.3
		c0.3,0.1,0.7,0.1,1,0.1c0.5,0,0.9-0.1,1.2-0.3c0.3-0.2,0.4-0.5,0.4-0.8c0-0.2,0-0.4-0.1-0.6s-0.3-0.3-0.5-0.4s-0.6-0.3-1-0.4
		c-0.6-0.2-1.1-0.5-1.4-0.8s-0.4-0.7-0.4-1.2s0.2-1,0.6-1.3s0.9-0.5,1.6-0.5s1.3,0.1,1.9,0.4l-0.2,0.7c-0.6-0.2-1.1-0.4-1.7-0.4
		c-0.4,0-0.8,0.1-1,0.3c-0.2,0.2-0.4,0.4-0.4,0.8c0,0.2,0,0.4,0.1,0.6s0.2,0.3,0.4,0.4c0.2,0.1,0.5,0.3,1,0.4
		c0.7,0.3,1.2,0.5,1.5,0.8C100.9,106.8,101,107.2,101,107.7z"/>
</g>
</svg>
