<svg xmlns="http://www.w3.org/2000/svg" viewBox="0 0 284.36 123.86"><defs><style>.a{fill:#ffe161;}.b{fill:none;stroke:#1eb9d5;stroke-linecap:round;stroke-linejoin:round;stroke-width:2px;}</style></defs><title>Asset 2</title><path class="a" d="M8.75,109.94H5.07v10.55H3.67V109.94H0v-1.25H8.75Z"/><path class="a" d="M14.34,119.82a3.78,3.78,0,0,1-1.27.64,5.38,5.38,0,0,1-1.62.23,4,4,0,0,1-1.67-.31,3,3,0,0,1-1.17-.89,3.83,3.83,0,0,1-.67-1.39,6.83,6.83,0,0,1-.22-1.82,5,5,0,0,1,1-3.29,3.42,3.42,0,0,1,2.75-1.13,4.92,4.92,0,0,1,1.14.13,2.39,2.39,0,0,1,1,.48,2.43,2.43,0,0,1,.74,1,4.11,4.11,0,0,1,.29,1.71,8,8,0,0,1-.1,1.23H9.12a5.21,5.21,0,0,0,.15,1.32,2.66,2.66,0,0,0,.47,1,2.08,2.08,0,0,0,.84.6,3.61,3.61,0,0,0,2.4,0,2.37,2.37,0,0,0,.86-.47ZM11.45,113a2.39,2.39,0,0,0-1.6.52,2.59,2.59,0,0,0-.71,1.79h4.18a2.61,2.61,0,0,0-.49-1.79A1.8,1.8,0,0,0,11.45,113Z"/><path class="a" d="M18.26,118.42a1.33,1.33,0,0,0,.2.84.67.67,0,0,0,.57.25l.47,0a2.62,2.62,0,0,0,.58-.15l.15,1.06a3,3,0,0,1-.75.22,4.54,4.54,0,0,1-.84.08,1.83,1.83,0,0,1-1.24-.42,1.86,1.86,0,0,1-.49-1.46V108.69h1.35Z"/><path class="a" d="M27.83,119.82a3.88,3.88,0,0,1-1.27.64,5.49,5.49,0,0,1-1.63.23,4.08,4.08,0,0,1-1.67-.31,2.94,2.94,0,0,1-1.16-.89,3.84,3.84,0,0,1-.68-1.39,7.28,7.28,0,0,1-.21-1.82,5,5,0,0,1,1-3.29,3.4,3.4,0,0,1,2.74-1.13,5,5,0,0,1,1.15.13,2.42,2.42,0,0,1,1.77,1.48,4.28,4.28,0,0,1,.29,1.71,8.11,8.11,0,0,1-.11,1.23H22.6a4.77,4.77,0,0,0,.16,1.32,2.51,2.51,0,0,0,.47,1,2,2,0,0,0,.83.6,3.32,3.32,0,0,0,1.26.21,3.26,3.26,0,0,0,1.14-.2,2.29,2.29,0,0,0,.86-.47ZM24.93,113a2.38,2.38,0,0,0-1.59.52,2.64,2.64,0,0,0-.72,1.79H26.8a2.56,2.56,0,0,0-.49-1.79A1.77,1.77,0,0,0,24.93,113Z"/><path class="a" d="M35.8,119.94a3.75,3.75,0,0,1-1.19.56,5.34,5.34,0,0,1-1.45.19,3.91,3.91,0,0,1-1.66-.31,2.82,2.82,0,0,1-1.1-.89,3.74,3.74,0,0,1-.62-1.4,7.78,7.78,0,0,1-.2-1.81,5,5,0,0,1,1-3.28,3.32,3.32,0,0,1,2.71-1.14,6,6,0,0,1,1.37.13,3.84,3.84,0,0,1,1,.36l-.38,1.16a3.86,3.86,0,0,0-.86-.34,3.73,3.73,0,0,0-1-.13q-2.4,0-2.4,3.24a5.37,5.37,0,0,0,.13,1.22,2.87,2.87,0,0,0,.42,1,2.13,2.13,0,0,0,.78.71,2.37,2.37,0,0,0,1.18.27,3.08,3.08,0,0,0,1.09-.18,2.84,2.84,0,0,0,.78-.42Z"/><path class="a" d="M36.8,116.28a5,5,0,0,1,1-3.28,3.36,3.36,0,0,1,2.74-1.14,4.1,4.1,0,0,1,1.64.31,3,3,0,0,1,1.16.9,4,4,0,0,1,.67,1.4,6.8,6.8,0,0,1,.22,1.81,5,5,0,0,1-1,3.28,3.37,3.37,0,0,1-2.74,1.13,3.93,3.93,0,0,1-1.64-.31,2.94,2.94,0,0,1-1.16-.89,3.8,3.8,0,0,1-.67-1.4A6.8,6.8,0,0,1,36.8,116.28Zm1.4,0a6.11,6.11,0,0,0,.12,1.23,3.51,3.51,0,0,0,.4,1,2,2,0,0,0,.71.7,2,2,0,0,0,1.06.27c1.53,0,2.29-1.06,2.29-3.23a5.57,5.57,0,0,0-.13-1.25,3.16,3.16,0,0,0-.39-1,2.16,2.16,0,0,0-.71-.7,2.08,2.08,0,0,0-1.06-.26C39,113,38.2,114.11,38.2,116.28Z"/><path class="a" d="M51.24,120.49v-4.77a9.88,9.88,0,0,0-.06-1.17,2.57,2.57,0,0,0-.22-.83,1.19,1.19,0,0,0-.48-.51,1.75,1.75,0,0,0-.82-.17,1.84,1.84,0,0,0-1.29.47,2.61,2.61,0,0,0-.72,1.18v5.8H46.3v-8.43h1l.25,1h.07a3.85,3.85,0,0,1,1-.88,3.11,3.11,0,0,1,1.56-.35,2.58,2.58,0,0,1,1.32.31,2,2,0,0,1,.8,1.09,2.79,2.79,0,0,1,1.07-1,3.29,3.29,0,0,1,1.55-.37,4,4,0,0,1,1.19.16,1.67,1.67,0,0,1,.81.57,2.55,2.55,0,0,1,.47,1.09,9.41,9.41,0,0,1,.14,1.76v5H56.18v-5.07a7.83,7.83,0,0,0-.06-1,2.14,2.14,0,0,0-.23-.75,1.08,1.08,0,0,0-.49-.43,1.91,1.91,0,0,0-.82-.15,1.78,1.78,0,0,0-1.31.47,2.78,2.78,0,0,0-.68,1.35v5.63Z"/><path class="a" d="M72.18,120a3,3,0,0,1-1.28.54,8.73,8.73,0,0,1-1.65.15,5.41,5.41,0,0,1-2-.36,4.36,4.36,0,0,1-1.62-1.1,5.41,5.41,0,0,1-1.1-1.9,8.29,8.29,0,0,1-.4-2.74,8,8,0,0,1,.44-2.8,5.54,5.54,0,0,1,1.18-1.89,4.47,4.47,0,0,1,1.65-1.07,5.13,5.13,0,0,1,1.85-.34,10.34,10.34,0,0,1,1.65.11,4.7,4.7,0,0,1,1.1.3l-.34,1.24a5.29,5.29,0,0,0-2.31-.4A3.8,3.8,0,0,0,68,110a3.13,3.13,0,0,0-1.21.83,4.16,4.16,0,0,0-.85,1.5,7,7,0,0,0-.32,2.27,6.84,6.84,0,0,0,.3,2.13,4.39,4.39,0,0,0,.84,1.51,3.28,3.28,0,0,0,1.25.91,3.78,3.78,0,0,0,1.56.31,5.21,5.21,0,0,0,1.32-.15,4,4,0,0,0,1-.39Z"/><path class="a" d="M73.7,112.69a4.88,4.88,0,0,1,1.49-.58,8.53,8.53,0,0,1,1.78-.18,3.42,3.42,0,0,1,1.4.24,1.85,1.85,0,0,1,.81.61,2,2,0,0,1,.37.83,4.8,4.8,0,0,1,.1.92c0,.67,0,1.33-.05,2s-.06,1.24-.06,1.82a11.09,11.09,0,0,0,.06,1.18,5.39,5.39,0,0,0,.18,1h-1l-.36-1.18h-.08a3.08,3.08,0,0,1-.38.46,2.29,2.29,0,0,1-.55.4,3.36,3.36,0,0,1-.74.3,3.5,3.5,0,0,1-1,.12,2.91,2.91,0,0,1-1-.17,2.23,2.23,0,0,1-1.34-1.23,2.44,2.44,0,0,1-.19-1,2.4,2.4,0,0,1,.3-1.24,2.31,2.31,0,0,1,.85-.79,4.66,4.66,0,0,1,1.32-.42,10.85,10.85,0,0,1,1.69-.13h.47a3.73,3.73,0,0,1,.46,0c0-.34,0-.64,0-.91a1.8,1.8,0,0,0-.37-1.3,1.9,1.9,0,0,0-1.35-.37,4.45,4.45,0,0,0-.61,0l-.68.12a6.36,6.36,0,0,0-.66.2,2.45,2.45,0,0,0-.54.25Zm2.39,6.76a2.47,2.47,0,0,0,.84-.13,2.26,2.26,0,0,0,.64-.32,2.06,2.06,0,0,0,.45-.43,2.14,2.14,0,0,0,.26-.45v-1.4l-.48,0h-.48a8.47,8.47,0,0,0-1,.06,3.24,3.24,0,0,0-.88.22,1.51,1.51,0,0,0-.6.44,1,1,0,0,0-.23.7,1.26,1.26,0,0,0,.42,1A1.56,1.56,0,0,0,76.09,119.45Z"/><path class="a" d="M86.17,113.36a3.14,3.14,0,0,0-1-.17,1.64,1.64,0,0,0-1.15.4,1.73,1.73,0,0,0-.52,1v5.9H82.19v-8.43h1l.25,1h.07a2.54,2.54,0,0,1,.76-.88,1.94,1.94,0,0,1,1.14-.31,4.23,4.23,0,0,1,1.1.16Z"/><path class="a" d="M91.9,113.36a3.14,3.14,0,0,0-1-.17,1.64,1.64,0,0,0-1.15.4,1.73,1.73,0,0,0-.52,1v5.9H87.92v-8.43h1l.25,1h.07a2.65,2.65,0,0,1,.76-.88,1.94,1.94,0,0,1,1.14-.31,4.23,4.23,0,0,1,1.1.16Z"/><path class="a" d="M93.65,109.5a.93.93,0,0,1,.26-.66.88.88,0,0,1,.67-.28.94.94,0,0,1,.69.28.88.88,0,0,1,.29.66.82.82,0,0,1-.29.64,1,1,0,0,1-.69.26.94.94,0,0,1-.67-.26A.87.87,0,0,1,93.65,109.5Zm.29,2.56h1.35v8.43H93.94Z"/><path class="a" d="M104.32,119.82a3.78,3.78,0,0,1-1.27.64,5.4,5.4,0,0,1-1.63.23,4.11,4.11,0,0,1-1.67-.31,3,3,0,0,1-1.16-.89,3.83,3.83,0,0,1-.67-1.39,6.83,6.83,0,0,1-.22-1.82,5,5,0,0,1,1-3.29,3.42,3.42,0,0,1,2.75-1.13,4.92,4.92,0,0,1,1.14.13,2.44,2.44,0,0,1,1,.48,2.52,2.52,0,0,1,.74,1,4.28,4.28,0,0,1,.29,1.71,8,8,0,0,1-.1,1.23H99.1a5.21,5.21,0,0,0,.15,1.32,2.66,2.66,0,0,0,.47,1,2,2,0,0,0,.84.6,3.3,3.3,0,0,0,1.25.21,3.36,3.36,0,0,0,1.15-.2,2.37,2.37,0,0,0,.86-.47Zm-2.9-6.78a2.38,2.38,0,0,0-1.59.52,2.64,2.64,0,0,0-.72,1.79h4.18a2.61,2.61,0,0,0-.48-1.79A1.81,1.81,0,0,0,101.42,113Z"/><path class="a" d="M110.71,113.36a3.14,3.14,0,0,0-1-.17,1.64,1.64,0,0,0-1.15.4,1.73,1.73,0,0,0-.52,1v5.9h-1.35v-8.43h1l.25,1H108a2.65,2.65,0,0,1,.76-.88,1.94,1.94,0,0,1,1.14-.31,4.23,4.23,0,0,1,1.1.16Z"/><path class="a" d="M116.17,118.2a1,1,0,0,0-.3-.79,2.55,2.55,0,0,0-.75-.48,9.16,9.16,0,0,0-1-.37,4.63,4.63,0,0,1-1-.46,2.66,2.66,0,0,1-.75-.71,2.1,2.1,0,0,1-.3-1.19,2.15,2.15,0,0,1,.69-1.77,2.93,2.93,0,0,1,1.92-.57,5.65,5.65,0,0,1,2.6.54l-.32,1.11a5.13,5.13,0,0,0-.94-.32,4.36,4.36,0,0,0-1.17-.15,2,2,0,0,0-1.09.25,1,1,0,0,0-.34.88.83.83,0,0,0,.3.68,3,3,0,0,0,.75.44c.3.13.63.26,1,.38a4.73,4.73,0,0,1,1,.49,2.62,2.62,0,0,1,.75.77,2.2,2.2,0,0,1,.3,1.22,2.79,2.79,0,0,1-.18,1,2,2,0,0,1-.54.81,2.85,2.85,0,0,1-.92.53,3.89,3.89,0,0,1-1.29.19,6.47,6.47,0,0,1-1.64-.18,5,5,0,0,1-1.13-.44l.41-1.15a4.48,4.48,0,0,0,1,.41,4.57,4.57,0,0,0,1.26.18,2.27,2.27,0,0,0,1.2-.28A1.12,1.12,0,0,0,116.17,118.2Z"/><path class="a" d="M128.29,108.49l1.06.47-6.15,13.89-1.06-.47Z"/><path class="a" d="M142.22,120a3,3,0,0,1-1.29.54,8.58,8.58,0,0,1-1.65.15,5.45,5.45,0,0,1-2-.36,4.41,4.41,0,0,1-1.61-1.1,5.26,5.26,0,0,1-1.1-1.9,8.28,8.28,0,0,1-.41-2.74,7.72,7.72,0,0,1,.45-2.8,5.39,5.39,0,0,1,1.18-1.89,4.52,4.52,0,0,1,1.64-1.07,5.23,5.23,0,0,1,1.86-.34,10.52,10.52,0,0,1,1.65.11,4.84,4.84,0,0,1,1.1.3l-.34,1.24a5.29,5.29,0,0,0-2.31-.4A3.86,3.86,0,0,0,138,110a3.1,3.1,0,0,0-1.2.83,4.16,4.16,0,0,0-.85,1.5,8,8,0,0,0,0,4.4,4.24,4.24,0,0,0,.84,1.51,3.33,3.33,0,0,0,1.24.91,3.85,3.85,0,0,0,1.56.31,5.24,5.24,0,0,0,1.33-.15,4,4,0,0,0,.95-.39Z"/><path class="a" d="M143.09,116.28A5,5,0,0,1,144,113a3.38,3.38,0,0,1,2.74-1.14,4.19,4.19,0,0,1,1.65.31,3,3,0,0,1,1.15.9,4,4,0,0,1,.68,1.4,7.25,7.25,0,0,1,.21,1.81,5,5,0,0,1-.95,3.28,3.36,3.36,0,0,1-2.74,1.13,4,4,0,0,1-1.64-.31,3,3,0,0,1-1.16-.89,4,4,0,0,1-.67-1.4A6.8,6.8,0,0,1,143.09,116.28Zm1.4,0a5.46,5.46,0,0,0,.13,1.23,3.24,3.24,0,0,0,.39,1,2.07,2.07,0,0,0,.71.7,2,2,0,0,0,1.06.27c1.53,0,2.3-1.06,2.3-3.23A6.22,6.22,0,0,0,149,115a3.41,3.41,0,0,0-.4-1,1.94,1.94,0,0,0-1.77-1C145.25,113,144.49,114.11,144.49,116.28Z"/><path class="a" d="M157.54,120.49v-4.77a9.88,9.88,0,0,0-.06-1.17,2.56,2.56,0,0,0-.23-.83,1.08,1.08,0,0,0-.48-.51A1.75,1.75,0,0,0,156,113a1.88,1.88,0,0,0-1.29.47,2.51,2.51,0,0,0-.71,1.18v5.8H152.6v-8.43h.94l.25,1h.07a4,4,0,0,1,1.06-.88,3,3,0,0,1,1.55-.35,2.62,2.62,0,0,1,1.33.31,2,2,0,0,1,.8,1.09,2.72,2.72,0,0,1,1.07-1,3.25,3.25,0,0,1,1.54-.37,4.15,4.15,0,0,1,1.2.16,1.77,1.77,0,0,1,.81.57,2.55,2.55,0,0,1,.46,1.09,8.63,8.63,0,0,1,.14,1.76v5h-1.34v-5.07a7.83,7.83,0,0,0-.06-1,2,2,0,0,0-.24-.75,1.08,1.08,0,0,0-.49-.43,1.91,1.91,0,0,0-.82-.15,1.78,1.78,0,0,0-1.31.47,2.77,2.77,0,0,0-.67,1.35v5.63Z"/><path class="a" d="M171.22,120.49v-4.77a10.09,10.09,0,0,0-.05-1.17,2.56,2.56,0,0,0-.23-.83,1.08,1.08,0,0,0-.48-.51,1.75,1.75,0,0,0-.82-.17,1.84,1.84,0,0,0-1.29.47,2.61,2.61,0,0,0-.72,1.18v5.8h-1.34v-8.43h.94l.25,1h.07a3.85,3.85,0,0,1,1-.88,3.11,3.11,0,0,1,1.56-.35,2.64,2.64,0,0,1,1.33.31,2,2,0,0,1,.8,1.09,2.72,2.72,0,0,1,1.07-1,3.25,3.25,0,0,1,1.54-.37,4.15,4.15,0,0,1,1.2.16,1.69,1.69,0,0,1,.8.57,2.55,2.55,0,0,1,.47,1.09,9.41,9.41,0,0,1,.14,1.76v5h-1.35v-5.07a7.83,7.83,0,0,0-.06-1,1.79,1.79,0,0,0-.23-.75,1.08,1.08,0,0,0-.49-.43,1.91,1.91,0,0,0-.82-.15,1.78,1.78,0,0,0-1.31.47,2.78,2.78,0,0,0-.68,1.35v5.63Z"/><path class="a" d="M181.19,112.06v4.81a7.79,7.79,0,0,0,.07,1.15,2.54,2.54,0,0,0,.26.83,1.36,1.36,0,0,0,.51.5,1.74,1.74,0,0,0,.81.16,2.09,2.09,0,0,0,.81-.14,2.29,2.29,0,0,0,.63-.39,2.8,2.8,0,0,0,.49-.59,3.49,3.49,0,0,0,.34-.7v-5.63h1.35v6c0,.4,0,.82,0,1.25a6.82,6.82,0,0,0,.14,1.14h-.93l-.34-1.33h-.08a3.44,3.44,0,0,1-1.05,1.1,2.93,2.93,0,0,1-1.66.43,3.9,3.9,0,0,1-1.19-.16,1.73,1.73,0,0,1-.86-.56,2.58,2.58,0,0,1-.52-1.09,6.9,6.9,0,0,1-.18-1.73v-5.09Z"/><path class="a" d="M194.47,120.49v-4.8a4.1,4.1,0,0,0-.38-2,1.45,1.45,0,0,0-1.39-.67,2.25,2.25,0,0,0-1.48.48,2.53,2.53,0,0,0-.81,1.21v5.76h-1.35v-8.43H190l.26,1h.06a3,3,0,0,1,1.09-.88,3.57,3.57,0,0,1,1.63-.35,4.38,4.38,0,0,1,1.21.16,1.84,1.84,0,0,1,.87.57,2.72,2.72,0,0,1,.52,1.08,7,7,0,0,1,.18,1.73v5.09Z"/><path class="a" d="M198.28,109.5a.93.93,0,0,1,.26-.66.85.85,0,0,1,.66-.28,1,1,0,0,1,.7.28.87.87,0,0,1,.28.66.81.81,0,0,1-.28.64,1,1,0,0,1-.7.26.91.91,0,0,1-.66-.26A.87.87,0,0,1,198.28,109.5Zm.28,2.56h1.35v8.43h-1.35Z"/><path class="a" d="M208.54,119.94a3.75,3.75,0,0,1-1.19.56,5.34,5.34,0,0,1-1.45.19,3.91,3.91,0,0,1-1.66-.31,2.89,2.89,0,0,1-1.1-.89,3.74,3.74,0,0,1-.62-1.4,7.78,7.78,0,0,1-.2-1.81,5,5,0,0,1,1-3.28,3.32,3.32,0,0,1,2.71-1.14,6,6,0,0,1,1.37.13,3.84,3.84,0,0,1,1,.36l-.38,1.16a3.86,3.86,0,0,0-.86-.34,3.68,3.68,0,0,0-1-.13q-2.4,0-2.4,3.24a5.37,5.37,0,0,0,.13,1.22,2.87,2.87,0,0,0,.42,1,2.13,2.13,0,0,0,.78.71,2.37,2.37,0,0,0,1.18.27,3.08,3.08,0,0,0,1.09-.18,2.84,2.84,0,0,0,.78-.42Z"/><path class="a" d="M210.26,112.69a5.09,5.09,0,0,1,1.49-.58,8.6,8.6,0,0,1,1.78-.18,3.44,3.44,0,0,1,1.41.24,2,2,0,0,1,.81.61,2.14,2.14,0,0,1,.37.83,4.78,4.78,0,0,1,.09.92c0,.67,0,1.33-.05,2s0,1.24,0,1.82c0,.41,0,.81,0,1.18a6.28,6.28,0,0,0,.19,1h-1l-.35-1.18h-.09a3,3,0,0,1-.37.46,2.51,2.51,0,0,1-.55.4,3.4,3.4,0,0,1-1.7.42,3,3,0,0,1-1-.17,2.31,2.31,0,0,1-.8-.48,2.37,2.37,0,0,1-.53-.75,2.44,2.44,0,0,1-.19-1,2.4,2.4,0,0,1,.3-1.24,2.24,2.24,0,0,1,.85-.79,4.55,4.55,0,0,1,1.32-.42,10.85,10.85,0,0,1,1.69-.13h.46a3.73,3.73,0,0,1,.47,0c0-.34.05-.64.05-.91a1.85,1.85,0,0,0-.37-1.3,1.9,1.9,0,0,0-1.35-.37,4.59,4.59,0,0,0-.62,0l-.67.12a6.36,6.36,0,0,0-.66.2,2.54,2.54,0,0,0-.55.25Zm2.4,6.76a2.47,2.47,0,0,0,.84-.13,2.26,2.26,0,0,0,.64-.32,2.06,2.06,0,0,0,.45-.43,2.7,2.7,0,0,0,.26-.45v-1.4l-.48,0h-.48a8.47,8.47,0,0,0-1,.06,3.06,3.06,0,0,0-.88.22,1.55,1.55,0,0,0-.61.44,1.07,1.07,0,0,0-.22.7,1.26,1.26,0,0,0,.42,1A1.56,1.56,0,0,0,212.66,119.45Z"/><path class="a" d="M217.64,112.06H219V110.4l1.35-.39v2h2.29v1.18h-2.29v4.67a2.48,2.48,0,0,0,.22,1.24.79.79,0,0,0,.74.36,2.63,2.63,0,0,0,.74-.09c.2-.06.43-.14.68-.24l.3,1a5.59,5.59,0,0,1-1,.35,4.74,4.74,0,0,1-1.16.13,1.67,1.67,0,0,1-1.45-.58,3.38,3.38,0,0,1-.42-1.94v-4.93h-1.32Z"/><path class="a" d="M224.47,109.5a.93.93,0,0,1,.26-.66.88.88,0,0,1,.67-.28.94.94,0,0,1,.69.28.88.88,0,0,1,.29.66.82.82,0,0,1-.29.64,1,1,0,0,1-.69.26.94.94,0,0,1-.67-.26A.87.87,0,0,1,224.47,109.5Zm.29,2.56h1.35v8.43h-1.35Z"/><path class="a" d="M228.52,116.28a5,5,0,0,1,.95-3.28,3.36,3.36,0,0,1,2.74-1.14,4.1,4.1,0,0,1,1.64.31,3,3,0,0,1,1.16.9,4,4,0,0,1,.67,1.4,6.8,6.8,0,0,1,.22,1.81,5,5,0,0,1-1,3.28,3.37,3.37,0,0,1-2.74,1.13,4,4,0,0,1-1.65-.31,3,3,0,0,1-1.15-.89,3.8,3.8,0,0,1-.67-1.4A6.8,6.8,0,0,1,228.52,116.28Zm1.4,0a6.11,6.11,0,0,0,.12,1.23,3.51,3.51,0,0,0,.4,1,2,2,0,0,0,.71.7,2,2,0,0,0,1.06.27c1.53,0,2.29-1.06,2.29-3.23a5.57,5.57,0,0,0-.13-1.25,3.16,3.16,0,0,0-.39-1,2.16,2.16,0,0,0-.71-.7,2.08,2.08,0,0,0-1.06-.26C230.68,113,229.92,114.11,229.92,116.28Z"/><path class="a" d="M243.43,120.49v-4.8a4,4,0,0,0-.38-2,1.44,1.44,0,0,0-1.39-.67,2.24,2.24,0,0,0-1.47.48,2.55,2.55,0,0,0-.82,1.21v5.76H238v-8.43H239l.25,1h.07a3.05,3.05,0,0,1,1.08-.88,3.59,3.59,0,0,1,1.63-.35,4.33,4.33,0,0,1,1.21.16,1.84,1.84,0,0,1,.87.57,2.73,2.73,0,0,1,.53,1.08,7.59,7.59,0,0,1,.17,1.73v5.09Z"/><path class="a" d="M256.94,117.22h-4.32l-1.18,3.27H250l4.47-12h.64l4.48,12h-1.48ZM253.07,116h3.45l-1.3-3.59-.42-1.79h0l-.42,1.82Z"/><path class="a" d="M261.07,112.06H262l.26,1h.06a2.6,2.6,0,0,1,1-.91,3.17,3.17,0,0,1,1.4-.31,3.07,3.07,0,0,1,2.52,1,5.08,5.08,0,0,1,.82,3.25,6,6,0,0,1-.28,1.91,4,4,0,0,1-.78,1.44,3.4,3.4,0,0,1-1.22.91,3.78,3.78,0,0,1-1.6.32,5.12,5.12,0,0,1-1-.07,4.53,4.53,0,0,1-.79-.26v3.5h-1.34Zm3.4,1a2,2,0,0,0-1.36.45,2.55,2.55,0,0,0-.7,1.36V119a2.72,2.72,0,0,0,.7.36,3.51,3.51,0,0,0,1,.12,2.22,2.22,0,0,0,1.85-.86,4.05,4.05,0,0,0,.68-2.56,6,6,0,0,0-.12-1.25,2.6,2.6,0,0,0-.37-1,1.84,1.84,0,0,0-.68-.62A2.2,2.2,0,0,0,264.47,113Z"/><path class="a" d="M270.19,112.06h.92l.26,1h.06a2.53,2.53,0,0,1,1-.91,3.14,3.14,0,0,1,1.4-.31,3,3,0,0,1,2.51,1,5.07,5.07,0,0,1,.83,3.25,6,6,0,0,1-.28,1.91,4,4,0,0,1-.78,1.44,3.4,3.4,0,0,1-1.22.91,3.78,3.78,0,0,1-1.6.32,5.12,5.12,0,0,1-1-.07,4.27,4.27,0,0,1-.79-.26v3.5h-1.34Zm3.4,1a2,2,0,0,0-1.36.45,2.55,2.55,0,0,0-.7,1.36V119a2.83,2.83,0,0,0,.69.36,3.63,3.63,0,0,0,1,.12,2.22,2.22,0,0,0,1.85-.86,4.11,4.11,0,0,0,.68-2.56,6,6,0,0,0-.12-1.25,2.61,2.61,0,0,0-.38-1,1.81,1.81,0,0,0-.67-.62A2.26,2.26,0,0,0,273.59,113Z"/><path class="a" d="M283,118.2a1,1,0,0,0-.3-.79,2.55,2.55,0,0,0-.75-.48,9.16,9.16,0,0,0-1-.37,4.63,4.63,0,0,1-1-.46,2.66,2.66,0,0,1-.75-.71,2.1,2.1,0,0,1-.3-1.19,2.15,2.15,0,0,1,.69-1.77,2.93,2.93,0,0,1,1.92-.57,5.65,5.65,0,0,1,2.6.54l-.32,1.11a5.13,5.13,0,0,0-.94-.32,4.36,4.36,0,0,0-1.17-.15,2,2,0,0,0-1.09.25,1,1,0,0,0-.34.88.83.83,0,0,0,.3.68,3,3,0,0,0,.75.44c.3.13.63.26,1,.38a4.73,4.73,0,0,1,1,.49,2.62,2.62,0,0,1,.75.77,2.2,2.2,0,0,1,.3,1.22,2.79,2.79,0,0,1-.18,1,2,2,0,0,1-.54.81,2.85,2.85,0,0,1-.92.53,3.89,3.89,0,0,1-1.29.19,6.47,6.47,0,0,1-1.64-.18,5,5,0,0,1-1.13-.44l.41-1.15a4.86,4.86,0,0,0,2.27.59,2.27,2.27,0,0,0,1.2-.28A1.12,1.12,0,0,0,283,118.2Z"/><path class="b" d="M146.57,43.06a4.19,4.19,0,1,1-4.19-4.19A4.2,4.2,0,0,1,146.57,43.06Z"/><path class="b" d="M153.87,28a23.76,23.76,0,0,0-11.49-2.68A22.52,22.52,0,0,0,131.11,28"/><path class="b" d="M159.39,18.43a37.63,37.63,0,0,0-17.25-3.8,36.06,36.06,0,0,0-16.64,3.64"/><path class="b" d="M131.11,28a22.52,22.52,0,0,1,11.27-2.68A23.76,23.76,0,0,1,153.87,28"/><path class="b" d="M147.67,1.26Q144.91,1,141.9,1c-10,0-17.58,2.21-23.33,5.27"/><path class="b" d="M166.23,6.58A44.16,44.16,0,0,0,158,3.21"/><path class="b" d="M125.5,18.27a36.06,36.06,0,0,1,16.64-3.64,37.63,37.63,0,0,1,17.25,3.8"/><polyline class="b" points="128.41 91.52 142.09 47.25 154.67 91.52"/><line class="b" x1="130.68" y1="86.11" x2="150.79" y2="77.9"/><line class="b" x1="152.87" y1="85.69" x2="132.88" y2="78.07"/><line class="b" x1="135.45" y1="70.7" x2="146.7" y2="64.27"/><line class="b" x1="137.24" y1="64.3" x2="148.23" y2="70.84"/></svg>