<?xml version="1.0" encoding="utf-8"?>
<!-- Generator: Adobe Illustrator 23.0.3, SVG Export Plug-In . SVG Version: 6.00 Build 0)  -->
<svg version="1.1" id="Layer_1" xmlns="http://www.w3.org/2000/svg" xmlns:xlink="http://www.w3.org/1999/xlink" x="0px" y="0px"
	 viewBox="0 0 130 130" style="enable-background:new 0 0 130 130;" xml:space="preserve">
<style type="text/css">
	.st0{fill:#FFE161;}
	.st1{fill:none;stroke:#1EB9D5;stroke-width:1.5;stroke-linecap:round;stroke-linejoin:round;}
</style>
<title>globe4</title>
<path class="st0" d="M11.7,86.7h3.8v0.7h-3v2.3h2.7v0.7h-2.7v2.5h3v0.7h-3.8V86.7z"/>
<path class="st0" d="M18.2,91.1l-1.7-2.4h1l0.9,1.3l0.3,0.6L19,90l1-1.4h0.9L19.2,91l1.8,2.6h-1l-1-1.5l-0.3-0.6l-0.3,0.6l-1.1,1.5
	h-0.9L18.2,91.1z"/>
<path class="st0" d="M25.1,93.3c-0.2,0.2-0.4,0.3-0.7,0.3c-0.3,0.1-0.6,0.1-0.9,0.1c-0.3,0-0.7,0-1-0.2c-0.2-0.1-0.4-0.3-0.6-0.6
	c-0.2-0.2-0.3-0.5-0.4-0.8c-0.1-0.3-0.1-0.7-0.1-1.1c-0.1-0.7,0.1-1.3,0.5-1.9c0.4-0.5,1-0.7,1.6-0.7c0.3,0,0.5,0,0.8,0.1
	c0.2,0,0.4,0.1,0.6,0.2l-0.2,0.7c-0.2-0.1-0.3-0.2-0.5-0.2c-0.2-0.1-0.4-0.1-0.6-0.1c-0.9,0-1.4,0.6-1.4,1.9c0,0.2,0,0.5,0.1,0.7
	c0,0.2,0.1,0.4,0.2,0.6c0.1,0.2,0.3,0.3,0.5,0.4c0.2,0.1,0.5,0.2,0.7,0.2c0.2,0,0.4,0,0.6-0.1c0.2-0.1,0.3-0.1,0.5-0.2L25.1,93.3z"
	/>
<path class="st0" d="M29.4,93.6v-2.8c0-0.2,0-0.4,0-0.7c0-0.2-0.1-0.3-0.2-0.5c-0.1-0.1-0.2-0.2-0.3-0.3c-0.2-0.1-0.3-0.1-0.5-0.1
	c-0.3,0-0.6,0.1-0.8,0.3c-0.2,0.2-0.4,0.5-0.5,0.8v3.3h-0.8v-6.9H27v2.5l0,0c0.2-0.2,0.4-0.4,0.6-0.5c0.3-0.1,0.6-0.2,0.9-0.2
	c0.2,0,0.5,0,0.7,0.1c0.2,0.1,0.4,0.2,0.5,0.3c0.2,0.2,0.3,0.4,0.3,0.6c0.1,0.3,0.1,0.7,0.1,1v3L29.4,93.6z"/>
<path class="st0" d="M31.5,89.1c0.3-0.2,0.6-0.3,0.9-0.3c0.3-0.1,0.7-0.1,1-0.1c0.3,0,0.6,0,0.8,0.1c0.2,0.1,0.3,0.2,0.5,0.4
	c0.1,0.1,0.2,0.3,0.2,0.5c0,0.2,0.1,0.4,0,0.5c0,0.4,0,0.8,0,1.2s0,0.7,0,1.1s0,0.5,0,0.7c0,0.2,0.1,0.4,0.1,0.6h-0.6L34.3,93l0,0
	c-0.1,0.1-0.1,0.2-0.2,0.3c-0.1,0.1-0.2,0.2-0.3,0.2c-0.1,0.1-0.3,0.1-0.4,0.2c-0.2,0.1-0.4,0.1-0.6,0.1c-0.2,0-0.4,0-0.6-0.1
	c-0.4-0.1-0.6-0.4-0.8-0.7c-0.1-0.2-0.1-0.4-0.1-0.6c0-0.3,0.1-0.5,0.2-0.7c0.1-0.2,0.3-0.4,0.5-0.5c0.2-0.1,0.5-0.2,0.8-0.2
	c0.3-0.1,0.7-0.1,1-0.1H34h0.3c0-0.2,0-0.4,0-0.5c0-0.3,0-0.5-0.2-0.8c-0.2-0.2-0.5-0.3-0.8-0.2h-0.4c-0.1,0-0.3,0-0.4,0.1l-0.4,0.1
	c-0.1,0-0.2,0.1-0.3,0.2L31.5,89.1z M33,93c0.2,0,0.3,0,0.5-0.1c0.1,0,0.3-0.1,0.4-0.2c0.1-0.1,0.2-0.2,0.3-0.3
	c0.1-0.1,0.1-0.2,0.2-0.3v-0.8H34h-0.3c-0.2,0-0.4,0-0.6,0c-0.2,0-0.3,0.1-0.5,0.1c-0.1,0.1-0.3,0.1-0.4,0.3
	c-0.1,0.1-0.1,0.3-0.1,0.4c0,0.2,0.1,0.4,0.2,0.6C32.5,92.9,32.8,93,33,93z"/>
<path class="st0" d="M39.7,93.6v-2.8c0-0.4-0.1-0.8-0.2-1.2c-0.2-0.3-0.5-0.4-0.8-0.4c-0.3,0-0.6,0.1-0.9,0.3
	c-0.2,0.2-0.4,0.4-0.5,0.7v3.4h-0.8v-4.9h0.5l0.2,0.6l0,0c0.2-0.2,0.4-0.4,0.6-0.5c0.3-0.1,0.7-0.2,1-0.2c0.2,0,0.5,0,0.7,0.1
	c0.2,0.1,0.4,0.2,0.5,0.3c0.1,0.2,0.3,0.4,0.3,0.6c0.1,0.3,0.1,0.7,0.1,1v3H39.7z"/>
<path class="st0" d="M45.7,93.8c0,0.5-0.1,1-0.5,1.4c-0.4,0.3-1,0.5-1.5,0.5c-0.3,0-0.7,0-1-0.1c-0.2,0-0.4-0.1-0.6-0.2l0.2-0.7
	l0.5,0.2C43,95,43.3,95,43.5,95c0.2,0,0.5,0,0.7-0.1c0.2,0,0.3-0.1,0.4-0.2c0.1-0.1,0.2-0.3,0.2-0.4c0-0.2,0.1-0.4,0.1-0.7v-0.5l0,0
	c-0.1,0.2-0.3,0.3-0.5,0.4c-0.3,0.1-0.5,0.2-0.8,0.2c-0.6,0-1.1-0.2-1.5-0.6c-0.4-0.6-0.5-1.3-0.5-1.9c0-0.7,0.2-1.4,0.6-1.9
	c0.5-0.5,1.1-0.7,1.7-0.7c0.3,0,0.7,0,1,0.1c0.2,0.1,0.5,0.1,0.7,0.2V93.8z M43.7,93c0.3,0,0.6-0.1,0.8-0.2c0.2-0.2,0.4-0.5,0.4-0.8
	v-2.5c-0.3-0.1-0.7-0.2-1-0.2c-0.4,0-0.8,0.1-1.1,0.5c-0.3,0.4-0.4,0.9-0.4,1.4c0,0.3,0,0.5,0.1,0.8c0,0.2,0.1,0.4,0.2,0.6
	c0.1,0.2,0.2,0.3,0.4,0.4C43.3,93,43.5,93,43.7,93L43.7,93z"/>
<path class="st0" d="M50.8,93.2c-0.2,0.2-0.5,0.3-0.8,0.4c-0.3,0.1-0.7,0.1-1,0.1c-0.3,0-0.7-0.1-1-0.2c-0.3-0.1-0.5-0.3-0.7-0.5
	c-0.2-0.2-0.3-0.5-0.4-0.8c-0.1-0.4-0.1-0.7,0-1.1c0-0.7,0.2-1.4,0.6-1.9c0.4-0.5,1-0.7,1.6-0.7c0.2,0,0.5,0,0.7,0.1
	c0.2,0,0.4,0.1,0.6,0.3c0.2,0.2,0.3,0.4,0.4,0.6c0.1,0.3,0.2,0.7,0.2,1c0,0.2,0,0.5,0,0.7h-3.3c0,0.3,0,0.5,0.1,0.8
	c0.1,0.2,0.1,0.4,0.3,0.6c0.1,0.2,0.3,0.3,0.5,0.3c0.2,0.1,0.5,0.1,0.7,0.1c0.2,0,0.5,0,0.7-0.1c0.2-0.1,0.4-0.2,0.5-0.3L50.8,93.2z
	 M49.1,89.2c-0.3,0-0.7,0.1-0.9,0.3c-0.3,0.3-0.4,0.6-0.4,1h2.5c0-0.3-0.1-0.7-0.2-1C49.8,89.3,49.5,89.2,49.1,89.2L49.1,89.2z"/>
<path class="st0" d="M59.1,90.4h-3.3v3.2H55v-6.9h0.8v3h3.3v-3H60v6.9h-0.8L59.1,90.4z"/>
<path class="st0" d="M61.3,91.2c0-0.7,0.2-1.4,0.6-1.9c0.4-0.5,1-0.7,1.6-0.7c0.3,0,0.7,0,1,0.2c0.3,0.1,0.5,0.3,0.7,0.5
	c0.2,0.2,0.3,0.5,0.4,0.8c0.1,0.3,0.1,0.7,0.1,1.1c0,0.7-0.2,1.4-0.6,1.9c-0.4,0.5-1,0.7-1.6,0.7c-0.3,0-0.7-0.1-1-0.2
	c-0.3-0.1-0.5-0.3-0.7-0.5c-0.2-0.2-0.3-0.5-0.4-0.8C61.3,91.9,61.2,91.5,61.3,91.2z M62.1,91.2c0,0.2,0,0.5,0.1,0.7
	c0,0.2,0.1,0.4,0.2,0.6c0.1,0.2,0.2,0.3,0.4,0.4c0.2,0.1,0.4,0.2,0.6,0.2c0.9,0,1.3-0.6,1.3-1.9c0-0.2,0-0.5-0.1-0.7
	c0-0.2-0.1-0.4-0.2-0.6c-0.1-0.2-0.2-0.3-0.4-0.4c-0.2-0.1-0.4-0.2-0.6-0.2C62.5,89.2,62.1,89.9,62.1,91.2z"/>
<path class="st0" d="M67.6,88.7v2.8c0,0.2,0,0.4,0,0.7c0,0.2,0.1,0.3,0.2,0.5c0.1,0.1,0.2,0.3,0.3,0.3c0.2,0.1,0.3,0.1,0.5,0.1
	c0.2,0,0.4,0,0.5-0.1c0.1-0.1,0.3-0.1,0.4-0.2c0.1-0.1,0.2-0.2,0.3-0.3c0.1-0.1,0.1-0.3,0.2-0.4v-3.3h0.8v3.5c0,0.2,0,0.5,0,0.7
	c0,0.2,0,0.4,0.1,0.7h-0.5L70,92.9h0c-0.2,0.3-0.4,0.5-0.6,0.6c-0.3,0.2-0.6,0.3-1,0.3c-0.2,0-0.5,0-0.7-0.1
	c-0.2-0.1-0.4-0.2-0.5-0.3c-0.2-0.2-0.3-0.4-0.3-0.6c-0.1-0.3-0.1-0.7-0.1-1v-3L67.6,88.7z"/>
<path class="st0" d="M74.3,92.3c0-0.2-0.1-0.3-0.2-0.5c-0.1-0.1-0.3-0.2-0.4-0.3l-0.6-0.2c-0.2-0.1-0.4-0.2-0.6-0.3
	c-0.2-0.1-0.3-0.3-0.4-0.4c-0.1-0.2-0.2-0.5-0.2-0.7c0-0.4,0.1-0.7,0.4-1c0.3-0.2,0.7-0.4,1.1-0.3c0.3,0,0.6,0,0.9,0.1
	c0.2,0.1,0.4,0.1,0.6,0.2l-0.2,0.7c-0.2-0.1-0.4-0.1-0.6-0.2c-0.2-0.1-0.5-0.1-0.7-0.1c-0.2,0-0.4,0-0.6,0.2
	c-0.1,0.1-0.2,0.3-0.2,0.5c0,0.2,0.1,0.3,0.2,0.4c0.1,0.1,0.3,0.2,0.4,0.2c0.2,0.1,0.4,0.2,0.6,0.2c0.2,0.1,0.4,0.2,0.6,0.3
	c0.2,0.1,0.3,0.3,0.4,0.4c0.1,0.2,0.2,0.5,0.2,0.7c0,0.2,0,0.4-0.1,0.6c-0.1,0.2-0.2,0.3-0.3,0.5c-0.2,0.1-0.3,0.3-0.5,0.3
	c-0.2,0.1-0.5,0.1-0.8,0.1c-0.3,0-0.7,0-1-0.1c-0.2-0.1-0.5-0.1-0.7-0.3l0.3-0.7c0.2,0.1,0.4,0.2,0.6,0.2c0.2,0.1,0.5,0.1,0.7,0.1
	c0.2,0,0.5-0.1,0.7-0.2C74.2,92.8,74.4,92.5,74.3,92.3z"/>
<path class="st0" d="M79.9,93.2c-0.2,0.2-0.5,0.3-0.7,0.4c-0.3,0.1-0.7,0.1-1,0.1c-0.3,0-0.7-0.1-1-0.2c-0.3-0.1-0.5-0.3-0.7-0.5
	c-0.2-0.2-0.3-0.5-0.4-0.8C76,91.9,76,91.5,76,91.2c0-0.7,0.2-1.4,0.6-1.9c0.4-0.5,1-0.7,1.6-0.7c0.2,0,0.5,0,0.7,0.1
	c0.2,0,0.4,0.1,0.6,0.3c0.2,0.2,0.3,0.4,0.4,0.6c0.1,0.3,0.2,0.7,0.2,1c0,0.2,0,0.5-0.1,0.7h-3.1c0,0.3,0.1,0.5,0.1,0.8
	c0.1,0.2,0.1,0.4,0.3,0.6c0.1,0.2,0.3,0.3,0.5,0.3c0.2,0.1,0.5,0.1,0.7,0.1c0.2,0,0.5,0,0.7-0.1c0.2-0.1,0.4-0.2,0.5-0.3L79.9,93.2z
	 M78.2,89.2c-0.3,0-0.7,0.1-0.9,0.3c-0.3,0.3-0.4,0.6-0.4,1h2.4c0-0.4-0.1-0.7-0.3-1C78.8,89.3,78.5,89.2,78.2,89.2L78.2,89.2z"/>
<path class="st0" d="M83.5,92.3c0-0.2-0.1-0.3-0.2-0.5c-0.1-0.1-0.3-0.2-0.4-0.3c-0.2-0.1-0.4-0.2-0.6-0.2c-0.2-0.1-0.4-0.1-0.6-0.3
	c-0.2-0.1-0.3-0.2-0.4-0.4c-0.1-0.2-0.2-0.5-0.2-0.7c0-0.4,0.1-0.7,0.4-1c0.3-0.2,0.7-0.4,1.1-0.3c0.3,0,0.6,0,0.9,0.1
	c0.2,0.1,0.4,0.1,0.6,0.2L84,89.6c-0.2-0.1-0.4-0.1-0.6-0.2c-0.2-0.1-0.5-0.1-0.7-0.1c-0.2,0-0.4,0-0.6,0.2
	c-0.1,0.1-0.2,0.3-0.2,0.5c0,0.2,0.1,0.3,0.2,0.4c0.1,0.1,0.3,0.2,0.4,0.2c0.2,0.1,0.4,0.2,0.6,0.2c0.2,0.1,0.4,0.2,0.6,0.3
	c0.2,0.1,0.3,0.3,0.4,0.4c0.1,0.2,0.2,0.5,0.2,0.7c0,0.2,0,0.4-0.1,0.6c-0.1,0.2-0.2,0.3-0.3,0.5c-0.2,0.1-0.3,0.3-0.5,0.3
	c-0.2,0.1-0.5,0.1-0.8,0.1c-0.3,0-0.7,0-1-0.1c-0.2-0.1-0.5-0.1-0.7-0.3l0.2-0.7c0.2,0.1,0.4,0.2,0.6,0.2c0.2,0.1,0.5,0.1,0.7,0.1
	c0.2,0,0.5-0.1,0.7-0.2C83.4,92.8,83.6,92.5,83.5,92.3z"/>
<path class="st0" d="M90.6,86.6l0.6,0.3L87.6,95L87,94.7L90.6,86.6z"/>
<path class="st0" d="M98.5,88.3c0,0.2,0,0.3-0.1,0.5c-0.1,0.2-0.1,0.3-0.2,0.5c-0.1,0.2-0.2,0.3-0.4,0.4c-0.2,0.1-0.4,0.2-0.6,0.2
	l0,0c0.2,0,0.4,0.1,0.6,0.2c0.2,0.1,0.3,0.2,0.5,0.3c0.1,0.1,0.3,0.3,0.3,0.5c0.1,0.2,0.1,0.5,0.1,0.7c0,0.3-0.1,0.6-0.2,0.9
	c-0.1,0.3-0.3,0.5-0.6,0.6c-0.3,0.2-0.5,0.3-0.8,0.4c-0.3,0.1-0.7,0.1-1,0.1h-0.9h-0.5c-0.1,0-0.3,0-0.4-0.1v-6.8
	c0.2,0,0.5-0.1,0.8-0.1s0.7,0,1.1,0c0.3,0,0.5,0,0.8,0.1c0.3,0,0.5,0.1,0.7,0.2c0.2,0.1,0.4,0.3,0.5,0.5
	C98.4,87.7,98.5,88,98.5,88.3z M95.7,89.8h0.4h0.4c0.2-0.1,0.3-0.1,0.4-0.2c0.1-0.1,0.3-0.2,0.4-0.3c0.1-0.1,0.2-0.2,0.3-0.4
	c0.1-0.1,0.1-0.3,0.1-0.4c0-0.2,0-0.4-0.1-0.5c-0.1-0.1-0.2-0.3-0.3-0.3c-0.2-0.1-0.3-0.1-0.5-0.2c-0.2,0-0.4,0-0.5,0h-0.6
	c-0.1,0-0.3,0-0.4,0.1v2.3L95.7,89.8z M96.2,93c0.2,0,0.4,0,0.6-0.1c0.2,0,0.4-0.1,0.5-0.2c0.2-0.1,0.3-0.2,0.4-0.4
	c0.2-0.4,0.2-0.8,0-1.2c-0.1-0.2-0.3-0.3-0.4-0.4c-0.2-0.1-0.4-0.2-0.6-0.2c-0.2,0-0.4,0-0.7,0h-0.9V93h0.2h0.3L96.2,93L96.2,93z"/>
<path class="st0" d="M100,89.1c0.3-0.2,0.6-0.3,0.9-0.3c0.3-0.1,0.7-0.1,1-0.1c0.3,0,0.6,0,0.8,0.1c0.2,0.1,0.3,0.2,0.5,0.4
	c0.1,0.1,0.2,0.3,0.2,0.5c0,0.2,0,0.4,0,0.5c0,0.4,0,0.8,0,1.2s0,0.7,0,1.1s0,0.5,0,0.7c0,0.2,0.1,0.4,0.1,0.6H103l-0.2-0.7l0,0
	c-0.1,0.1-0.1,0.2-0.2,0.3c-0.1,0.1-0.2,0.2-0.3,0.2c-0.1,0.1-0.3,0.1-0.4,0.2c-0.2,0.1-0.4,0.1-0.6,0.1c-0.2,0-0.4,0-0.6-0.1
	c-0.2-0.1-0.3-0.2-0.5-0.3c-0.1-0.1-0.2-0.3-0.3-0.4c-0.1-0.2-0.1-0.4-0.1-0.6c0-0.3,0.1-0.5,0.2-0.7c0.1-0.2,0.3-0.4,0.5-0.5
	c0.2-0.1,0.5-0.2,0.8-0.2c0.3-0.1,0.7-0.1,1-0.1h0.3h0.3c0-0.2,0-0.4,0-0.5c0-0.3,0-0.5-0.2-0.8c-0.2-0.2-0.5-0.3-0.8-0.2h-0.4
	c-0.1,0-0.3,0-0.4,0.1l-0.4,0.1c-0.1,0-0.2,0.1-0.3,0.2L100,89.1z M101.4,93.1c0.2,0,0.3,0,0.5-0.1c0.1,0,0.3-0.1,0.4-0.2
	c0.1-0.1,0.2-0.2,0.3-0.3c0.1-0.1,0.1-0.2,0.2-0.3v-0.8h-0.3h-0.3c-0.2,0-0.4,0-0.6,0c-0.2,0-0.3,0.1-0.5,0.1
	c-0.1,0.1-0.3,0.1-0.4,0.3c-0.1,0.1-0.1,0.3-0.1,0.4c0,0.2,0.1,0.4,0.2,0.6C100.9,92.9,101.2,93,101.4,93.1L101.4,93.1z"/>
<path class="st0" d="M108.1,93.6v-2.8c0-0.4-0.1-0.8-0.2-1.2c-0.2-0.3-0.5-0.4-0.8-0.4c-0.3,0-0.6,0.1-0.9,0.3
	c-0.2,0.2-0.4,0.4-0.5,0.7v3.4H105v-4.9h0.6l0.2,0.6l0,0c0.2-0.2,0.4-0.4,0.6-0.5c0.3-0.1,0.7-0.2,1-0.2c0.2,0,0.5,0,0.7,0.1
	c0.2,0.1,0.4,0.2,0.5,0.3c0.1,0.2,0.2,0.4,0.3,0.6c0.1,0.3,0.1,0.7,0.1,1v3H108.1z"/>
<path class="st0" d="M111.6,91.4h-0.5v2.2h-0.8v-6.9h0.8v4.2l0.4-0.1l1.5-2.1h0.9l-1.5,2l-0.4,0.3l0.5,0.4l1.7,2.2h-1L111.6,91.4z"
	/>
<path class="st0" d="M117.3,92.3c0-0.2-0.1-0.3-0.2-0.5c-0.1-0.1-0.3-0.2-0.4-0.3c-0.2-0.1-0.4-0.2-0.6-0.2
	c-0.2-0.1-0.4-0.2-0.6-0.3c-0.2-0.1-0.3-0.3-0.4-0.4c-0.1-0.2-0.2-0.5-0.2-0.7c0-0.4,0.1-0.7,0.4-1c0.3-0.2,0.7-0.4,1.1-0.3
	c0.3,0,0.6,0,0.9,0.1c0.2,0.1,0.4,0.1,0.6,0.2l-0.2,0.7c-0.2-0.1-0.4-0.1-0.6-0.2c-0.2-0.1-0.5-0.1-0.7-0.1c-0.2,0-0.4,0-0.6,0.2
	c-0.1,0.1-0.2,0.3-0.2,0.5c0,0.2,0.1,0.3,0.2,0.4c0.1,0.1,0.3,0.2,0.4,0.2c0.2,0.1,0.4,0.2,0.6,0.2c0.2,0.1,0.4,0.2,0.6,0.3
	c0.2,0.1,0.3,0.3,0.4,0.4c0.1,0.2,0.2,0.5,0.2,0.7c0,0.2,0,0.4-0.1,0.6c-0.1,0.2-0.2,0.3-0.3,0.5c-0.2,0.1-0.3,0.3-0.5,0.3
	c-0.2,0.1-0.5,0.1-0.8,0.1c-0.3,0-0.7,0-1-0.1c-0.2-0.1-0.5-0.1-0.7-0.3l0.2-0.7c0.2,0.1,0.4,0.2,0.6,0.2c0.2,0.1,0.5,0.1,0.7,0.1
	c0.2,0,0.5-0.1,0.7-0.2C117.2,92.8,117.3,92.5,117.3,92.3z"/>
<polygon class="st1" points="40.2,37.2 65.3,29.2 89.2,37.2 "/>
<line class="st1" x1="46.5" y1="43.5" x2="46.8" y2="37.6"/>
<line class="st1" x1="45.9" y1="59.8" x2="46.4" y2="48.4"/>
<line class="st1" x1="83.1" y1="51.3" x2="82.6" y2="37.6"/>
<line class="st1" x1="83.4" y1="59.8" x2="83.2" y2="56"/>
<rect x="44.5" y="59.8" class="st1" width="40.3" height="4.2"/>
<rect x="41" y="67.6" class="st1" width="47.4" height="4.2"/>
<line class="st1" x1="77.2" y1="59.8" x2="78" y2="37.3"/>
<line class="st1" x1="51.1" y1="37.3" x2="51.9" y2="59.8"/>
<line class="st1" x1="62.1" y1="59.8" x2="63" y2="37.6"/>
<line class="st1" x1="67.3" y1="37.3" x2="68.1" y2="59.8"/>
</svg>
