<svg xmlns="http://www.w3.org/2000/svg" viewBox="0 0 130 130"><defs><style>.a{fill:#ffe161;}.b{fill:none;stroke:#1eb9d5;stroke-linecap:round;stroke-linejoin:round;stroke-width:2px;}.c{fill:#1eb9d5;}</style></defs><title>globe11</title><path class="a" d="M36.45,88.37a4.92,4.92,0,0,1,.81-.12l.86,0a4.86,4.86,0,0,1,.92.09,2.48,2.48,0,0,1,.86.33,1.79,1.79,0,0,1,.63.65,2.11,2.11,0,0,1,.24,1.06,2.32,2.32,0,0,1-.23,1.07,2,2,0,0,1-.6.7,2.5,2.5,0,0,1-.86.39,4.15,4.15,0,0,1-1,.12h-.4l-.24,0-.17,0v2.63h-.82Zm1.69.57h-.49a1.76,1.76,0,0,0-.38,0v2.87l.16,0H38a3.71,3.71,0,0,0,.67-.06,1.76,1.76,0,0,0,.6-.24,1.31,1.31,0,0,0,.43-.47,1.61,1.61,0,0,0,.16-.78,1.4,1.4,0,0,0-.15-.68,1.3,1.3,0,0,0-.41-.43,1.81,1.81,0,0,0-.57-.24A3.36,3.36,0,0,0,38.14,88.94Z"/><path class="a" d="M41.52,91.76a4.16,4.16,0,0,1,.73-2.65,2.5,2.5,0,0,1,2.09-.93,2.89,2.89,0,0,1,1.26.26,2.43,2.43,0,0,1,.89.73A3.4,3.4,0,0,1,47,90.29a6.08,6.08,0,0,1,.16,1.47,4.21,4.21,0,0,1-.73,2.66,2.54,2.54,0,0,1-2.1.92,2.84,2.84,0,0,1-1.25-.26,2.3,2.3,0,0,1-.88-.72,3.09,3.09,0,0,1-.52-1.13A6.06,6.06,0,0,1,41.52,91.76Zm.87,0a5.44,5.44,0,0,0,.11,1.09,3.31,3.31,0,0,0,.35.9,2,2,0,0,0,.61.63,1.67,1.67,0,0,0,.88.23,1.69,1.69,0,0,0,1.44-.7,3.56,3.56,0,0,0,.52-2.15,4.83,4.83,0,0,0-.11-1.08,2.75,2.75,0,0,0-.36-.91,1.81,1.81,0,0,0-.61-.62,1.58,1.58,0,0,0-.88-.23,1.68,1.68,0,0,0-1.43.69A3.59,3.59,0,0,0,42.39,91.76Z"/><path class="a" d="M51.69,93.46a1,1,0,0,0-.25-.68,2.56,2.56,0,0,0-.62-.46,8.57,8.57,0,0,0-.8-.38,4.47,4.47,0,0,1-.81-.43,2.4,2.4,0,0,1-.61-.62,1.64,1.64,0,0,1-.25-1,1.6,1.6,0,0,1,.56-1.28,2.41,2.41,0,0,1,1.6-.48,6.12,6.12,0,0,1,1.1.09,3,3,0,0,1,.77.23l-.25.73a3.7,3.7,0,0,0-.66-.21,4.4,4.4,0,0,0-1-.1,1.37,1.37,0,0,0-1,.29.91.91,0,0,0-.08,1.33A2.71,2.71,0,0,0,50,91l.81.4a4.59,4.59,0,0,1,.81.46,2.4,2.4,0,0,1,.61.62,1.57,1.57,0,0,1,.25.91,1.84,1.84,0,0,1-.16.8,1.73,1.73,0,0,1-.46.62,2.18,2.18,0,0,1-.74.39,3.33,3.33,0,0,1-1,.14,6,6,0,0,1-1.23-.11,3.21,3.21,0,0,1-.75-.26l.28-.73a2.71,2.71,0,0,0,.67.25,3.86,3.86,0,0,0,1,.12,2.37,2.37,0,0,0,.61-.07,1.5,1.5,0,0,0,.5-.2,1.42,1.42,0,0,0,.33-.36A1.08,1.08,0,0,0,51.69,93.46Z"/><path class="a" d="M61.77,90.58l.1-1h0l-.38.95-1.79,3.12H59.4l-1.91-3.13-.36-.94h0l.13,1v4.65h-.77V88.3h.62l2.16,3.54.33.77h0l.3-.79L62,88.3h.64v6.92h-.82Z"/><path class="a" d="M64.11,90.65a2.57,2.57,0,0,1,.88-.34,5,5,0,0,1,1-.11,2.05,2.05,0,0,1,.82.14,1.13,1.13,0,0,1,.48.36,1.28,1.28,0,0,1,.22.49,3.17,3.17,0,0,1,0,.53c0,.4,0,.78,0,1.16s0,.73,0,1.07,0,.47,0,.69a3.38,3.38,0,0,0,.11.6H67.1l-.21-.69h0a1.74,1.74,0,0,1-.22.27,1.57,1.57,0,0,1-.32.24,2.24,2.24,0,0,1-.44.17,1.91,1.91,0,0,1-.56.07,1.63,1.63,0,0,1-.59-.1,1.31,1.31,0,0,1-.47-.28,1.25,1.25,0,0,1-.31-.44A1.62,1.62,0,0,1,64,93.17a1.31,1.31,0,0,1,.5-.46,2.4,2.4,0,0,1,.77-.25,6,6,0,0,1,1-.08h.27l.27,0a5.13,5.13,0,0,0,0-.53,1,1,0,0,0-.22-.76,1.08,1.08,0,0,0-.79-.22l-.36,0a2.66,2.66,0,0,0-.39.07l-.39.11a1.35,1.35,0,0,0-.32.15Zm1.41,4a1.53,1.53,0,0,0,.49-.08,1.59,1.59,0,0,0,.37-.18,1.12,1.12,0,0,0,.27-.26,1,1,0,0,0,.15-.26V93l-.28,0h-.28a5.74,5.74,0,0,0-.6,0,2.32,2.32,0,0,0-.52.13.92.92,0,0,0-.35.26.61.61,0,0,0-.13.41.75.75,0,0,0,.24.57A1,1,0,0,0,65.52,94.61Z"/><path class="a" d="M72.46,94.89a2.08,2.08,0,0,1-.7.34,3.35,3.35,0,0,1-.85.11,2.37,2.37,0,0,1-1-.18,1.66,1.66,0,0,1-.64-.53,2.21,2.21,0,0,1-.37-.82,4.37,4.37,0,0,1-.11-1.06,2.91,2.91,0,0,1,.55-1.92A1.94,1.94,0,0,1,71,90.16a3.69,3.69,0,0,1,.81.08,2.06,2.06,0,0,1,.59.21l-.22.68a1.94,1.94,0,0,0-.51-.2,2.21,2.21,0,0,0-.59-.08c-.94,0-1.4.64-1.4,1.9a3.38,3.38,0,0,0,.07.72,1.78,1.78,0,0,0,.25.6,1.3,1.3,0,0,0,.45.42,1.37,1.37,0,0,0,.7.16,1.83,1.83,0,0,0,.64-.11,2,2,0,0,0,.46-.25Z"/><path class="a" d="M76.72,95.22V92.4a4.47,4.47,0,0,0,0-.67,1.28,1.28,0,0,0-.17-.49.7.7,0,0,0-.32-.29,1.28,1.28,0,0,0-.53-.1,1.35,1.35,0,0,0-.84.3,1.36,1.36,0,0,0-.48.78v3.29h-.79V88.3h.79v2.53h0a2.14,2.14,0,0,1,.62-.49,2,2,0,0,1,.89-.18,2.53,2.53,0,0,1,.72.09,1.07,1.07,0,0,1,.51.34,1.37,1.37,0,0,1,.3.63,4.82,4.82,0,0,1,.09,1v3Z"/><path class="a" d="M79,88.78a.56.56,0,0,1,.15-.39.51.51,0,0,1,.39-.17.54.54,0,0,1,.4.17.5.5,0,0,1,.17.39.45.45,0,0,1-.17.37.57.57,0,0,1-.4.15.53.53,0,0,1-.39-.15A.5.5,0,0,1,79,88.78Zm.16,1.5h.79v4.94h-.79Z"/><path class="a" d="M84.78,95.22V92.4a2.37,2.37,0,0,0-.23-1.16.84.84,0,0,0-.81-.39,1.37,1.37,0,0,0-.87.28,1.56,1.56,0,0,0-.47.71v3.38h-.8V90.28h.56l.15.6h0a1.81,1.81,0,0,1,.63-.52,2.19,2.19,0,0,1,1-.2,2.55,2.55,0,0,1,.71.09,1.18,1.18,0,0,1,.51.34,1.61,1.61,0,0,1,.3.63,4.12,4.12,0,0,1,.11,1v3Z"/><path class="a" d="M90.62,94.83a2.39,2.39,0,0,1-.75.37,3.31,3.31,0,0,1-1,.14,2.45,2.45,0,0,1-1-.18,1.79,1.79,0,0,1-.68-.53,2.28,2.28,0,0,1-.4-.81,4.35,4.35,0,0,1-.13-1.07,2.89,2.89,0,0,1,.57-1.93,2,2,0,0,1,1.61-.66,3.07,3.07,0,0,1,.67.08,1.38,1.38,0,0,1,.6.28,1.4,1.4,0,0,1,.44.58,2.59,2.59,0,0,1,.17,1,4.76,4.76,0,0,1-.06.72H87.55a3,3,0,0,0,.09.77,1.52,1.52,0,0,0,.28.57,1.19,1.19,0,0,0,.49.35,1.77,1.77,0,0,0,.73.13,2,2,0,0,0,.68-.12,1.37,1.37,0,0,0,.5-.28Zm-1.7-4a1.42,1.42,0,0,0-.94.31,1.55,1.55,0,0,0-.42,1H90a1.57,1.57,0,0,0-.28-1.06A1.06,1.06,0,0,0,88.92,90.85Z"/><path class="a" d="M94.2,93.88a.61.61,0,0,0-.17-.47,1.75,1.75,0,0,0-.44-.28L93,92.91a2.94,2.94,0,0,1-.57-.26,1.6,1.6,0,0,1-.44-.42,1.21,1.21,0,0,1-.18-.7,1.27,1.27,0,0,1,.41-1,1.72,1.72,0,0,1,1.12-.33,3.15,3.15,0,0,1,1.53.32l-.19.65a2.93,2.93,0,0,0-.55-.19,2.5,2.5,0,0,0-.69-.09,1,1,0,0,0-.63.15.58.58,0,0,0-.21.51.46.46,0,0,0,.18.4,1.71,1.71,0,0,0,.44.26c.18.08.37.15.57.22a2.86,2.86,0,0,1,.58.29,1.71,1.71,0,0,1,.44.45,1.28,1.28,0,0,1,.18.72,1.63,1.63,0,0,1-.11.59,1.16,1.16,0,0,1-.32.47,1.44,1.44,0,0,1-.54.32,2.37,2.37,0,0,1-.75.11,3.73,3.73,0,0,1-1-.11,2.84,2.84,0,0,1-.67-.26l.24-.67a2.48,2.48,0,0,0,.6.24,2.65,2.65,0,0,0,.74.11,1.37,1.37,0,0,0,.7-.17A.65.65,0,0,0,94.2,93.88Z"/><path class="b" d="M64.4,27.56H77.16a4.19,4.19,0,0,1,4.18,4.17V60.6a4.19,4.19,0,0,1-4.18,4.18H53.88A4.19,4.19,0,0,1,49.7,60.6V31.73a4.19,4.19,0,0,1,4.18-4.17h3.4"/><path class="b" d="M77.12,64.78v5.66a4.19,4.19,0,0,1-4.18,4.18H57.14A4.19,4.19,0,0,1,53,70.44V64.78"/><rect class="b" x="54.35" y="32.21" width="22.33" height="10.24"/><rect class="c" x="57.12" y="46.33" width="3.31" height="3.31"/><rect class="c" x="63.98" y="46.33" width="3.31" height="3.31"/><rect class="c" x="70.49" y="46.33" width="3.31" height="3.31"/><rect class="c" x="57.12" y="52.16" width="3.31" height="3.31"/><rect class="c" x="63.98" y="52.16" width="3.31" height="3.31"/><rect class="c" x="70.49" y="52.16" width="3.31" height="3.31"/><rect class="c" x="57.12" y="57.77" width="3.31" height="3.31"/><rect class="c" x="63.98" y="57.77" width="3.31" height="3.31"/><rect class="c" x="70.49" y="57.77" width="3.31" height="3.31"/><path class="c" d="M56.9,65.1v9.52h5.43V64.79S56.9,65,56.9,65.1Z"/></svg>