<?xml version="1.0" encoding="utf-8"?>
<!-- Generator: Adobe Illustrator 23.0.3, SVG Export Plug-In . SVG Version: 6.00 Build 0)  -->
<svg version="1.1" id="Layer_1" xmlns="http://www.w3.org/2000/svg" xmlns:xlink="http://www.w3.org/1999/xlink" x="0px" y="0px"
	 viewBox="0 0 130 130" style="enable-background:new 0 0 130 130;" xml:space="preserve">
<style type="text/css">
	.st0{fill:#FFE161;}
	.st1{fill:none;stroke:#1EB9D5;stroke-width:1.5;stroke-linecap:round;stroke-linejoin:round;}
	.st2{fill:#1EB9D5;}
</style>
<title>globe12</title>
<path class="st0" d="M23,90.1c0-0.2-0.1-0.5-0.2-0.7c-0.2-0.2-0.4-0.3-0.6-0.5c-0.2-0.1-0.5-0.3-0.8-0.4c-0.3-0.1-0.6-0.3-0.8-0.4
	c-0.2-0.2-0.5-0.4-0.6-0.6c-0.2-0.3-0.3-0.6-0.2-1c0-0.5,0.2-1,0.6-1.3c0.5-0.3,1-0.5,1.6-0.5c0.4,0,0.7,0,1.1,0.1
	c0.3,0,0.5,0.1,0.8,0.2l-0.2,0.7c-0.2-0.1-0.4-0.2-0.7-0.2c-0.3-0.1-0.7-0.1-1-0.1c-0.4,0-0.7,0.1-1,0.3c-0.4,0.3-0.4,0.9-0.1,1.3
	c0,0,0,0,0,0c0.2,0.2,0.4,0.3,0.6,0.5l0.8,0.4c0.3,0.1,0.6,0.3,0.8,0.5c0.2,0.2,0.4,0.4,0.6,0.6c0.2,0.3,0.3,0.6,0.2,0.9
	c0,0.3,0,0.5-0.2,0.8c-0.1,0.2-0.3,0.5-0.5,0.6c-0.2,0.2-0.5,0.3-0.7,0.4c-0.3,0.1-0.7,0.1-1,0.1c-0.4,0-0.8,0-1.2-0.1
	c-0.3-0.1-0.5-0.1-0.8-0.3l0.3-0.7c0.2,0.1,0.4,0.2,0.7,0.2c0.3,0.1,0.7,0.1,1,0.1c0.2,0,0.4,0,0.6-0.1c0.2,0,0.3-0.1,0.5-0.2
	c0.1-0.1,0.2-0.2,0.3-0.4C22.9,90.4,23,90.3,23,90.1z"/>
<path class="st0" d="M28.6,91.5c-0.2,0.2-0.5,0.3-0.7,0.4c-0.3,0.1-0.7,0.1-1,0.1c-0.3,0-0.7,0-1-0.2c-0.3-0.1-0.5-0.3-0.7-0.5
	c-0.2-0.2-0.3-0.5-0.4-0.8c-0.1-0.3-0.1-0.7-0.1-1.1c0-0.7,0.2-1.4,0.6-1.9c0.4-0.5,1-0.7,1.6-0.7c0.2,0,0.5,0,0.7,0.1
	c0.2,0,0.4,0.1,0.6,0.3c0.2,0.2,0.3,0.4,0.4,0.6c0.1,0.3,0.2,0.7,0.2,1c0,0.2,0,0.5-0.1,0.7h-3.1c0,0.3,0,0.5,0.1,0.8
	c0.1,0.2,0.1,0.4,0.3,0.6c0.1,0.2,0.3,0.3,0.5,0.3c0.2,0.1,0.5,0.1,0.7,0.1c0.2,0,0.5,0,0.7-0.1c0.2-0.1,0.4-0.2,0.5-0.3L28.6,91.5z
	 M26.9,87.5c-0.3,0-0.7,0.1-0.9,0.3c-0.3,0.3-0.4,0.6-0.4,1H28c0-0.4-0.1-0.8-0.3-1.1C27.5,87.6,27.2,87.5,26.9,87.5L26.9,87.5z"/>
<path class="st0" d="M30.9,90.7c0,0.2,0,0.3,0.1,0.5c0.1,0.1,0.2,0.2,0.3,0.2h0.3c0.1,0,0.2,0,0.3-0.1l0.1,0.6
	c-0.1,0.1-0.3,0.1-0.4,0.1c-0.2,0-0.3,0-0.5,0c-0.3,0-0.5-0.1-0.7-0.2c-0.2-0.2-0.3-0.5-0.3-0.9V85h0.8L30.9,90.7z"/>
<path class="st0" d="M32.4,86.9h0.8v-0.3c0-0.3,0-0.5,0.1-0.8c0-0.2,0.1-0.4,0.2-0.6c0.1-0.1,0.3-0.2,0.4-0.3
	c0.2-0.1,0.4-0.1,0.7-0.1c0.2,0,0.4,0,0.6,0c0.2,0,0.3,0.1,0.5,0.2l-0.2,0.7c-0.1-0.1-0.3-0.1-0.4-0.1h-0.4c-0.1,0-0.3,0-0.4,0.1
	c-0.1,0.1-0.2,0.1-0.2,0.2c0,0.1-0.1,0.2-0.1,0.4c0,0.2,0,0.3,0,0.5v0.1h1.3v0.7H34v4.2h-0.8v-4.2h-0.8L32.4,86.9z"/>
<path class="st0" d="M41.9,90.1c0-0.2-0.1-0.5-0.2-0.7c-0.2-0.2-0.4-0.3-0.6-0.5c-0.2-0.1-0.5-0.3-0.8-0.4c-0.3-0.1-0.6-0.3-0.8-0.4
	c-0.2-0.2-0.5-0.4-0.6-0.6c-0.2-0.3-0.3-0.6-0.2-1c0-0.5,0.2-1,0.6-1.3c0.5-0.3,1-0.5,1.6-0.5c0.4,0,0.7,0,1.1,0.1
	c0.3,0,0.5,0.1,0.8,0.2l-0.2,0.7c-0.2-0.1-0.4-0.2-0.7-0.2c-0.3-0.1-0.7-0.1-1-0.1c-0.4,0-0.7,0.1-1,0.3c-0.2,0.2-0.3,0.4-0.3,0.7
	c0,0.2,0.1,0.5,0.2,0.7c0.2,0.2,0.4,0.3,0.6,0.5l0.8,0.4c0.3,0.1,0.6,0.3,0.8,0.5c0.2,0.2,0.5,0.4,0.6,0.6c0.2,0.3,0.3,0.6,0.2,0.9
	c0,0.3-0.1,0.5-0.2,0.8c-0.1,0.2-0.3,0.5-0.5,0.6c-0.2,0.2-0.5,0.3-0.7,0.4c-0.3,0.1-0.7,0.1-1,0.1c-0.4,0-0.8,0-1.2-0.1
	c-0.3-0.1-0.5-0.1-0.8-0.3l0.3-0.7c0.2,0.1,0.4,0.2,0.7,0.2c0.3,0.1,0.7,0.1,1,0.1c0.2,0,0.4,0,0.6-0.1c0.2,0,0.3-0.1,0.5-0.2
	c0.1-0.1,0.2-0.2,0.3-0.4C41.9,90.4,41.9,90.3,41.9,90.1z"/>
<path class="st0" d="M47.6,91.5c-0.2,0.2-0.5,0.3-0.8,0.4c-0.3,0.1-0.6,0.1-1,0.1c-0.3,0-0.7-0.1-1-0.2c-0.3-0.1-0.5-0.3-0.7-0.5
	c-0.2-0.2-0.3-0.5-0.4-0.8c-0.1-0.4-0.1-0.7-0.1-1.1c-0.1-0.7,0.1-1.4,0.6-1.9c0.4-0.5,1-0.7,1.6-0.7c0.2,0,0.5,0,0.7,0.1
	c0.2,0,0.4,0.1,0.6,0.3c0.2,0.2,0.3,0.4,0.4,0.6c0.1,0.3,0.2,0.7,0.2,1c0,0.2,0,0.5-0.1,0.7h-3.1c0,0.3,0,0.5,0.1,0.8
	c0.1,0.2,0.2,0.4,0.3,0.6c0.1,0.2,0.3,0.3,0.5,0.3c0.2,0.1,0.5,0.1,0.7,0.1c0.2,0,0.5,0,0.7-0.1c0.2-0.1,0.4-0.2,0.5-0.3L47.6,91.5z
	 M45.9,87.5c-0.3,0-0.7,0.1-0.9,0.3c-0.3,0.3-0.4,0.6-0.4,1H47c0-0.4-0.1-0.8-0.3-1.1C46.5,87.5,46.2,87.5,45.9,87.5L45.9,87.5z"/>
<path class="st0" d="M51.3,87.7c-0.2-0.1-0.4-0.1-0.6-0.1c-0.2,0-0.5,0.1-0.7,0.2c-0.2,0.2-0.3,0.4-0.3,0.6v3.5H49v-4.9h0.6l0.1,0.6
	l0,0c0.1-0.2,0.3-0.4,0.5-0.5c0.2-0.1,0.4-0.2,0.7-0.2c0.2,0,0.4,0,0.6,0.1L51.3,87.7z"/>
<path class="st0" d="M53.8,89.8l0.3,0.9l0,0l0.2-1l1.1-2.9h0.8l-2.1,5h-0.3l-2.1-5h0.9L53.8,89.8z"/>
<path class="st0" d="M57.1,85.4c0-0.1,0.1-0.3,0.2-0.4c0.1-0.1,0.2-0.2,0.4-0.2c0.2,0,0.3,0.1,0.4,0.2c0.1,0.1,0.2,0.2,0.2,0.4
	c0,0.1-0.1,0.3-0.2,0.4C58,85.9,57.8,86,57.7,86c-0.1,0-0.3,0-0.4-0.2C57.2,85.7,57.1,85.6,57.1,85.4z M57.3,86.9h0.8v4.9h-0.8V86.9
	z"/>
<path class="st0" d="M63.1,91.5c-0.2,0.2-0.4,0.3-0.7,0.3C62.2,92,61.9,92,61.6,92c-0.3,0-0.7,0-1-0.2c-0.3-0.1-0.5-0.3-0.6-0.5
	c-0.2-0.2-0.3-0.5-0.4-0.8c-0.1-0.3-0.1-0.7-0.1-1.1c-0.1-0.7,0.1-1.4,0.5-1.9c0.4-0.5,1-0.7,1.6-0.7c0.3,0,0.5,0,0.8,0.1
	c0.2,0,0.4,0.1,0.6,0.2l-0.2,0.7c-0.2-0.1-0.3-0.2-0.5-0.2c-0.2-0.1-0.4-0.1-0.6-0.1c-0.9,0-1.4,0.6-1.4,1.9c0,0.2,0,0.5,0.1,0.7
	c0,0.2,0.1,0.4,0.2,0.6c0.1,0.2,0.3,0.3,0.5,0.4c0.2,0.1,0.5,0.2,0.7,0.2c0.2,0,0.4,0,0.6-0.1c0.2-0.1,0.3-0.1,0.5-0.2L63.1,91.5z"
	/>
<path class="st0" d="M67.6,91.5c-0.2,0.2-0.5,0.3-0.7,0.4c-0.3,0.1-0.7,0.1-1,0.1c-0.3,0-0.7-0.1-1-0.2c-0.3-0.1-0.5-0.3-0.7-0.5
	c-0.2-0.2-0.3-0.5-0.4-0.8c-0.1-0.3-0.1-0.7-0.1-1.1c0-0.7,0.2-1.4,0.6-1.9c0.4-0.5,1-0.7,1.6-0.7c0.2,0,0.5,0,0.7,0.1
	c0.2,0,0.4,0.1,0.6,0.3c0.2,0.2,0.3,0.4,0.4,0.6c0.1,0.3,0.2,0.7,0.2,1c0,0.2,0,0.5-0.1,0.7h-3.1c0,0.3,0,0.5,0.1,0.8
	c0.1,0.2,0.1,0.4,0.3,0.6c0.1,0.2,0.3,0.3,0.5,0.3c0.2,0.1,0.5,0.1,0.7,0.1c0.2,0,0.5,0,0.7-0.1c0.2-0.1,0.4-0.2,0.5-0.3L67.6,91.5z
	 M65.9,87.5c-0.3,0-0.7,0.1-0.9,0.3c-0.3,0.3-0.4,0.6-0.4,1H67c0-0.4-0.1-0.8-0.3-1.1C66.5,87.5,66.2,87.5,65.9,87.5L65.9,87.5z"/>
<path class="st0" d="M77.1,87.2l0.1-1h-0.1l-0.4,1l-1.8,3.1h-0.2l-1.9-3.1l-0.4-0.9l0,0l0.1,1v4.7h-0.8V85h0.6l2.2,3.5l0.3,0.8l0,0
	l0.3-0.8l2-3.5h0.6v6.9h-0.8V87.2z"/>
<path class="st0" d="M79.4,87.3c0.3-0.2,0.6-0.3,0.9-0.3c0.3-0.1,0.7-0.1,1-0.1c0.3,0,0.6,0,0.8,0.1c0.2,0.1,0.4,0.2,0.5,0.4
	c0.1,0.1,0.2,0.3,0.2,0.5c0,0.2,0,0.4,0,0.5c0,0.4,0,0.8,0,1.2s0,0.7,0,1.1s0,0.5,0,0.7c0,0.2,0.1,0.4,0.1,0.6h-0.6l-0.2-0.7l0,0
	c-0.1,0.1-0.1,0.2-0.2,0.3c-0.1,0.1-0.2,0.2-0.3,0.2c-0.1,0.1-0.3,0.1-0.4,0.2c-0.2,0.1-0.4,0.1-0.6,0.1c-0.2,0-0.4,0-0.6-0.1
	c-0.2-0.1-0.3-0.2-0.5-0.3c-0.1-0.1-0.2-0.3-0.3-0.4c-0.2-0.4-0.2-0.9,0.1-1.3c0.1-0.2,0.3-0.4,0.5-0.5c0.2-0.1,0.5-0.2,0.8-0.2
	c0.3-0.1,0.7-0.1,1-0.1h0.3h0.3c0-0.2,0-0.4,0-0.5c0-0.3,0-0.5-0.2-0.8c-0.2-0.2-0.5-0.3-0.8-0.2h-0.4l-0.4,0.1l-0.4,0.1
	c-0.1,0-0.2,0.1-0.3,0.2L79.4,87.3z M80.8,91.3c0.2,0,0.3,0,0.5-0.1c0.1,0,0.3-0.1,0.4-0.2c0.1-0.1,0.2-0.2,0.3-0.3
	c0.1-0.1,0.1-0.2,0.2-0.3v-0.8h-0.3h-0.3c-0.2,0-0.4,0-0.6,0c-0.2,0-0.4,0.1-0.5,0.1c-0.1,0.1-0.3,0.1-0.3,0.3
	c-0.1,0.1-0.1,0.3-0.1,0.4c0,0.2,0.1,0.4,0.2,0.6C80.3,91.2,80.6,91.3,80.8,91.3L80.8,91.3z"/>
<path class="st0" d="M87.7,91.5c-0.2,0.2-0.4,0.3-0.7,0.3C86.8,92,86.5,92,86.2,92c-0.3,0-0.7,0-1-0.2c-0.3-0.1-0.5-0.3-0.6-0.5
	c-0.2-0.2-0.3-0.5-0.4-0.8c-0.1-0.3-0.1-0.7-0.1-1.1c0-0.7,0.1-1.4,0.6-1.9c0.4-0.5,1-0.7,1.6-0.7c0.3,0,0.5,0,0.8,0.1
	c0.2,0,0.4,0.1,0.6,0.2l-0.2,0.7c-0.2-0.1-0.3-0.2-0.5-0.2c-0.2-0.1-0.4-0.1-0.6-0.1c-0.9,0-1.4,0.6-1.4,1.9c0,0.2,0,0.5,0.1,0.7
	c0,0.2,0.1,0.4,0.2,0.6c0.1,0.2,0.3,0.3,0.4,0.4c0.2,0.1,0.5,0.2,0.7,0.2c0.2,0,0.4,0,0.6-0.1c0.2-0.1,0.3-0.1,0.5-0.2L87.7,91.5z"
	/>
<path class="st0" d="M92,91.9v-2.8c0-0.2,0-0.4,0-0.7c0-0.2-0.1-0.3-0.2-0.5c-0.1-0.1-0.2-0.2-0.3-0.3c-0.2-0.1-0.3-0.1-0.5-0.1
	c-0.3,0-0.6,0.1-0.8,0.3c-0.2,0.2-0.4,0.5-0.5,0.8v3.3h-0.8V85h0.8v2.5l0,0c0.2-0.2,0.4-0.4,0.6-0.5c0.3-0.1,0.6-0.2,0.9-0.2
	c0.2,0,0.5,0,0.7,0.1c0.2,0.1,0.4,0.2,0.5,0.3c0.2,0.2,0.3,0.4,0.3,0.6c0.1,0.3,0.1,0.7,0.1,1v3L92,91.9z"/>
<path class="st0" d="M94.2,85.4c0-0.1,0.1-0.3,0.2-0.4c0.1-0.1,0.2-0.2,0.4-0.2c0.2,0,0.3,0.1,0.4,0.2c0.1,0.1,0.2,0.2,0.2,0.4
	c0,0.1-0.1,0.3-0.2,0.4c-0.1,0.1-0.3,0.2-0.4,0.2c-0.1,0-0.3,0-0.4-0.2C94.3,85.7,94.2,85.6,94.2,85.4z M94.4,86.9h0.8v4.9h-0.8
	V86.9z"/>
<path class="st0" d="M100.1,91.9v-2.8c0-0.4-0.1-0.8-0.2-1.2c-0.2-0.3-0.5-0.4-0.8-0.4c-0.3,0-0.6,0.1-0.9,0.3
	c-0.2,0.2-0.4,0.4-0.5,0.7v3.4h-0.8v-4.9h0.6l0.2,0.6l0,0c0.2-0.2,0.4-0.4,0.6-0.5c0.3-0.1,0.7-0.2,1-0.2c0.2,0,0.5,0,0.7,0.1
	c0.2,0.1,0.4,0.2,0.5,0.3c0.1,0.2,0.2,0.4,0.3,0.6c0.1,0.3,0.1,0.7,0.1,1v3H100.1z"/>
<path class="st0" d="M105.9,91.5c-0.2,0.2-0.5,0.3-0.8,0.4c-0.3,0.1-0.7,0.1-1,0.1c-0.3,0-0.7-0.1-1-0.2c-0.3-0.1-0.5-0.3-0.7-0.5
	c-0.2-0.2-0.3-0.5-0.4-0.8c-0.1-0.4-0.1-0.7-0.1-1.1c0-0.7,0.2-1.4,0.6-1.9c0.4-0.5,1-0.7,1.6-0.7c0.2,0,0.5,0,0.7,0.1
	c0.2,0,0.4,0.1,0.6,0.3c0.2,0.2,0.3,0.4,0.4,0.6c0.1,0.3,0.2,0.7,0.2,1c0,0.2,0,0.5-0.1,0.7h-3.2c0,0.3,0,0.5,0.1,0.8
	c0.1,0.2,0.1,0.4,0.3,0.6c0.1,0.2,0.3,0.3,0.5,0.3c0.2,0.1,0.5,0.1,0.7,0.1c0.2,0,0.5,0,0.7-0.1c0.2-0.1,0.4-0.2,0.5-0.3L105.9,91.5
	z M104.2,87.5c-0.3,0-0.7,0.1-0.9,0.3c-0.3,0.3-0.4,0.6-0.4,1h2.4c0-0.4-0.1-0.7-0.3-1C104.8,87.6,104.5,87.5,104.2,87.5L104.2,87.5
	z"/>
<path class="st0" d="M109.5,90.5c0-0.2-0.1-0.3-0.2-0.5c-0.1-0.1-0.3-0.2-0.4-0.3l-0.6-0.2c-0.2-0.1-0.4-0.2-0.6-0.3
	c-0.2-0.1-0.3-0.3-0.4-0.4c-0.1-0.2-0.2-0.5-0.2-0.7c0-0.4,0.1-0.7,0.4-1c0.3-0.2,0.7-0.4,1.1-0.3c0.3,0,0.6,0,0.9,0.1
	c0.2,0.1,0.4,0.1,0.6,0.2l-0.2,0.7c-0.2-0.1-0.4-0.1-0.6-0.2c-0.2-0.1-0.5-0.1-0.7-0.1c-0.2,0-0.4,0-0.6,0.2
	c-0.2,0.1-0.2,0.3-0.2,0.5c0,0.2,0.1,0.3,0.2,0.4c0.1,0.1,0.3,0.2,0.4,0.2c0.2,0.1,0.4,0.2,0.6,0.2c0.2,0.1,0.4,0.2,0.6,0.3
	c0.2,0.1,0.3,0.3,0.4,0.4c0.1,0.2,0.2,0.5,0.2,0.7c0,0.2,0,0.4-0.1,0.6c-0.1,0.2-0.2,0.3-0.3,0.5c-0.2,0.1-0.3,0.3-0.5,0.3
	c-0.2,0.1-0.5,0.1-0.8,0.1c-0.3,0-0.7,0-1-0.1c-0.2-0.1-0.5-0.1-0.7-0.3l0.2-0.7c0.2,0.1,0.4,0.2,0.6,0.2c0.2,0.1,0.5,0.1,0.8,0.1
	c0.2,0,0.5-0.1,0.7-0.2C109.4,91,109.5,90.8,109.5,90.5z"/>
<path class="st1" d="M86.9,66.4v1c0,2.3-1.9,4.2-4.2,4.2H47c-2.3,0-4.2-1.9-4.2-4.2V31.7c0-2.3,1.9-4.2,4.2-4.2h35.7
	c2.3,0,4.2,1.9,4.2,4.2v27.6"/>
<rect x="47.7" y="32" class="st1" width="34.2" height="17.6"/>
<rect x="70.8" y="56.3" class="st2" width="9.1" height="2.4"/>
<rect x="48.8" y="56.3" class="st1" width="11.6" height="6.6"/>
<polyline class="st2" points="53.3,56.9 52.7,58.6 56.3,60.2 57.7,57 "/>
</svg>
