<svg xmlns="http://www.w3.org/2000/svg" viewBox="0 0 130 130"><defs><style>.a{fill:#ffe161;}.b{fill:none;stroke:#1eb9d5;stroke-linecap:round;stroke-linejoin:round;stroke-width:2px;}</style></defs><title>globe7</title><path class="a" d="M29.28,90.23a1.83,1.83,0,0,1-.75.32,5.07,5.07,0,0,1-1,.09,3,3,0,0,1-1.17-.22,2.54,2.54,0,0,1-.95-.64,3.11,3.11,0,0,1-.64-1.12,4.77,4.77,0,0,1-.24-1.6,4.45,4.45,0,0,1,.27-1.65,3,3,0,0,1,.69-1.1,2.58,2.58,0,0,1,1-.63,3.18,3.18,0,0,1,1.09-.2,5.21,5.21,0,0,1,1,.07,3.11,3.11,0,0,1,.64.17l-.2.73a3,3,0,0,0-1.35-.24,2.22,2.22,0,0,0-.8.15,1.87,1.87,0,0,0-.71.48,2.57,2.57,0,0,0-.5.88,4.32,4.32,0,0,0-.19,1.34,3.86,3.86,0,0,0,.18,1.24,2.45,2.45,0,0,0,.49.89,2,2,0,0,0,.73.54,2.32,2.32,0,0,0,.92.18,3,3,0,0,0,.77-.09,2.25,2.25,0,0,0,.56-.23Z"/><path class="a" d="M32.58,86.34a1.7,1.7,0,0,0-.56-.1,1,1,0,0,0-.68.23,1,1,0,0,0-.3.59v3.46h-.79V85.58h.55l.15.6h0a1.44,1.44,0,0,1,.45-.52,1.12,1.12,0,0,1,.66-.18,2.29,2.29,0,0,1,.65.1Z"/><path class="a" d="M35.06,88.78l.28,1h0l.22-1,1-3.19h.79L35.9,90c-.11.33-.22.64-.33.94a5.15,5.15,0,0,1-.36.81,1.89,1.89,0,0,1-.45.57.84.84,0,0,1-.57.21,1.57,1.57,0,0,1-.58-.09l.13-.69a.59.59,0,0,0,.25,0,.72.72,0,0,0,.54-.29,2.36,2.36,0,0,0,.42-1l-2-4.94h.91Z"/><path class="a" d="M38.21,85.58h.55l.14.59h0a1.5,1.5,0,0,1,.59-.53,1.84,1.84,0,0,1,.83-.18,1.79,1.79,0,0,1,1.47.58A3,3,0,0,1,42.31,88a3.57,3.57,0,0,1-.16,1.12,2.57,2.57,0,0,1-.46.85,2.11,2.11,0,0,1-.72.53,2.34,2.34,0,0,1-.93.19,2.9,2.9,0,0,1-.58,0,2.71,2.71,0,0,1-.46-.15v2h-.79Zm2,.57a1.18,1.18,0,0,0-.8.26,1.52,1.52,0,0,0-.41.8v2.45a1.44,1.44,0,0,0,.41.21,2,2,0,0,0,.6.07,1.28,1.28,0,0,0,1.08-.5,2.37,2.37,0,0,0,.4-1.5,3.38,3.38,0,0,0-.07-.74,1.49,1.49,0,0,0-.22-.56,1,1,0,0,0-.39-.36A1.24,1.24,0,0,0,40.21,86.15Z"/><path class="a" d="M42.91,85.58h.77v-1l.79-.23v1.21h1.34v.69H44.47V89a1.41,1.41,0,0,0,.13.72.46.46,0,0,0,.43.21,1.44,1.44,0,0,0,.44,0l.39-.14.18.6a3.31,3.31,0,0,1-.58.21,3,3,0,0,1-.69.08,1,1,0,0,1-.85-.34,2.07,2.07,0,0,1-.24-1.15V86.27h-.77Z"/><path class="a" d="M46.52,88.05a2.91,2.91,0,0,1,.56-1.92,2,2,0,0,1,1.61-.67,2.35,2.35,0,0,1,1,.18,1.85,1.85,0,0,1,.68.52,2.23,2.23,0,0,1,.39.82,4,4,0,0,1,.13,1.07A2.89,2.89,0,0,1,50.29,90a2,2,0,0,1-1.6.67,2.27,2.27,0,0,1-1-.19,1.71,1.71,0,0,1-.67-.52,2.33,2.33,0,0,1-.4-.82A4.33,4.33,0,0,1,46.52,88.05Zm.82,0a3.38,3.38,0,0,0,.08.72,1.79,1.79,0,0,0,.23.6,1.3,1.3,0,0,0,.42.42,1.19,1.19,0,0,0,.62.15c.89,0,1.34-.62,1.34-1.89a3.41,3.41,0,0,0-.07-.73,2.09,2.09,0,0,0-.23-.61,1.37,1.37,0,0,0-.42-.41,1.21,1.21,0,0,0-.62-.15C47.79,86.14,47.34,86.78,47.34,88.05Z"/><path class="a" d="M57.22,83.48l.62.28L54.23,91.9l-.62-.28Z"/><path class="a" d="M65.12,85.18a1.55,1.55,0,0,1-.08.51,1.58,1.58,0,0,1-.23.47,1.74,1.74,0,0,1-.41.4,1.92,1.92,0,0,1-.58.25v0a2.33,2.33,0,0,1,.57.17,1.58,1.58,0,0,1,.48.33,1.5,1.5,0,0,1,.33.5,1.68,1.68,0,0,1,.13.7,1.85,1.85,0,0,1-.22.93,1.78,1.78,0,0,1-.59.63,2.45,2.45,0,0,1-.82.37,3.81,3.81,0,0,1-1,.12h-.39l-.48,0-.49,0a2.54,2.54,0,0,1-.44-.07V83.66c.25,0,.53-.07.85-.1s.68,0,1.06,0a5.12,5.12,0,0,1,.78.06,2.42,2.42,0,0,1,.73.25,1.46,1.46,0,0,1,.54.51A1.54,1.54,0,0,1,65.12,85.18Zm-2.83,1.46h.4a2.25,2.25,0,0,0,.4,0,2.44,2.44,0,0,0,.44-.19,1.41,1.41,0,0,0,.37-.27,1.1,1.1,0,0,0,.26-.35,1.2,1.2,0,0,0,0-1,1,1,0,0,0-.33-.34,1.26,1.26,0,0,0-.48-.18,2.42,2.42,0,0,0-.54-.06l-.6,0a3,3,0,0,0-.41,0v2.35Zm.54,3.25a2.49,2.49,0,0,0,.61-.08,1.6,1.6,0,0,0,.53-.24,1.16,1.16,0,0,0,.36-.4,1.08,1.08,0,0,0,.13-.56A1.14,1.14,0,0,0,64.3,88a1.08,1.08,0,0,0-.43-.39,1.77,1.77,0,0,0-.59-.18,3.49,3.49,0,0,0-.65,0h-.86v2.48l.2,0,.28,0h.58Z"/><path class="a" d="M67.52,89.3a.82.82,0,0,0,.12.5.4.4,0,0,0,.34.14,1.42,1.42,0,0,0,.28,0,1.73,1.73,0,0,0,.33-.08l.09.62a2.15,2.15,0,0,1-.44.13,3.25,3.25,0,0,1-.49,0,1.05,1.05,0,0,1-.73-.26,1.07,1.07,0,0,1-.29-.85V83.6h.79Z"/><path class="a" d="M69.25,88.05a2.91,2.91,0,0,1,.56-1.92,2,2,0,0,1,1.61-.67,2.35,2.35,0,0,1,1,.18,1.85,1.85,0,0,1,.68.52,2.23,2.23,0,0,1,.39.82,4,4,0,0,1,.13,1.07A2.89,2.89,0,0,1,73,90a2,2,0,0,1-1.6.67,2.27,2.27,0,0,1-1-.19,1.71,1.71,0,0,1-.67-.52,2.33,2.33,0,0,1-.4-.82A4.33,4.33,0,0,1,69.25,88.05Zm.82,0a3.38,3.38,0,0,0,.08.72,1.79,1.79,0,0,0,.23.6,1.37,1.37,0,0,0,.41.42,1.25,1.25,0,0,0,.63.15c.89,0,1.34-.62,1.34-1.89a3.41,3.41,0,0,0-.07-.73,2.09,2.09,0,0,0-.23-.61A1.37,1.37,0,0,0,72,86.3a1.21,1.21,0,0,0-.62-.15C70.52,86.14,70.07,86.78,70.07,88.05Z"/><path class="a" d="M78.2,90.19a2,2,0,0,1-.7.33,3,3,0,0,1-.85.12,2.15,2.15,0,0,1-1-.19,1.58,1.58,0,0,1-.65-.52,2.29,2.29,0,0,1-.37-.82,4.93,4.93,0,0,1-.11-1.06,3,3,0,0,1,.55-1.92,2,2,0,0,1,1.6-.67,3.72,3.72,0,0,1,.8.07,2.65,2.65,0,0,1,.6.21l-.23.69a2,2,0,0,0-.5-.21,2.35,2.35,0,0,0-.6-.07c-.93,0-1.4.63-1.4,1.9a4,4,0,0,0,.07.71,2,2,0,0,0,.25.61,1.28,1.28,0,0,0,1.15.57,1.83,1.83,0,0,0,.64-.1,2.16,2.16,0,0,0,.46-.25Z"/><path class="a" d="M80.53,88.29h-.46v2.23h-.79V83.6h.79v4.21l.41-.14L82,85.58h.92l-1.51,2-.41.33.5.39,1.65,2.24h-1Z"/><path class="a" d="M87.27,90.19a2,2,0,0,1-.7.33,3,3,0,0,1-.85.12,2.18,2.18,0,0,1-1-.19,1.65,1.65,0,0,1-.65-.52,2.11,2.11,0,0,1-.36-.82,4.35,4.35,0,0,1-.12-1.06,2.91,2.91,0,0,1,.56-1.92,1.92,1.92,0,0,1,1.59-.67,3.72,3.72,0,0,1,.8.07,2.65,2.65,0,0,1,.6.21l-.23.69a2,2,0,0,0-.5-.21,2.27,2.27,0,0,0-.59-.07c-.94,0-1.41.63-1.41,1.9a3.22,3.22,0,0,0,.08.71,1.94,1.94,0,0,0,.24.61,1.43,1.43,0,0,0,.46.42,1.48,1.48,0,0,0,.7.15,1.77,1.77,0,0,0,.63-.1,2.16,2.16,0,0,0,.46-.25Z"/><path class="a" d="M91.53,90.52V87.7a4.5,4.5,0,0,0,0-.68,1.29,1.29,0,0,0-.16-.48.74.74,0,0,0-.32-.29,1.17,1.17,0,0,0-.53-.1,1.31,1.31,0,0,0-.84.3,1.33,1.33,0,0,0-.48.78v3.29h-.79V83.6h.79v2.53h0a1.94,1.94,0,0,1,.61-.49,2,2,0,0,1,.9-.18,2.53,2.53,0,0,1,.72.09,1.08,1.08,0,0,1,.51.33,1.66,1.66,0,0,1,.3.64,4.71,4.71,0,0,1,.09,1v3Z"/><path class="a" d="M93.68,85.94a2.87,2.87,0,0,1,.88-.33,4.42,4.42,0,0,1,1-.11,2,2,0,0,1,.83.14,1.16,1.16,0,0,1,.47.36,1.21,1.21,0,0,1,.22.49,3.07,3.07,0,0,1,0,.53c0,.39,0,.78,0,1.16s0,.73,0,1.06,0,.48,0,.69a3.68,3.68,0,0,0,.11.61h-.58l-.21-.69h0a1.74,1.74,0,0,1-.22.27,1.24,1.24,0,0,1-.32.23,2.24,2.24,0,0,1-.44.18,2.31,2.31,0,0,1-.56.07,1.87,1.87,0,0,1-.59-.1,1.47,1.47,0,0,1-.47-.28,1.52,1.52,0,0,1-.31-.44,1.38,1.38,0,0,1-.11-.59,1.42,1.42,0,0,1,.17-.72,1.33,1.33,0,0,1,.5-.47,2.4,2.4,0,0,1,.77-.24,6.14,6.14,0,0,1,1-.08h.27l.27,0a5.29,5.29,0,0,0,0-.53,1,1,0,0,0-.22-.76,1.07,1.07,0,0,0-.79-.22l-.36,0-.39.08a2.22,2.22,0,0,0-.39.11,1.92,1.92,0,0,0-.32.14Zm1.41,4a1.48,1.48,0,0,0,.49-.08,1.35,1.35,0,0,0,.38-.19,1.24,1.24,0,0,0,.26-.25.91.91,0,0,0,.15-.27V88.3h-.56a5.66,5.66,0,0,0-.6,0,1.53,1.53,0,0,0-.51.13,1,1,0,0,0-.36.25.63.63,0,0,0-.13.41.73.73,0,0,0,.24.57A.93.93,0,0,0,95.09,89.91Z"/><path class="a" d="M98.66,84.07a.57.57,0,0,1,.16-.39.53.53,0,0,1,.39-.16.58.58,0,0,1,.4.16.54.54,0,0,1,.17.39.49.49,0,0,1-.17.38.57.57,0,0,1-.4.15.53.53,0,0,1-.39-.15A.51.51,0,0,1,98.66,84.07Zm.17,1.51h.79v4.94h-.79Z"/><path class="a" d="M104.48,90.52V87.7a2.39,2.39,0,0,0-.22-1.16.85.85,0,0,0-.81-.39,1.32,1.32,0,0,0-.87.28,1.6,1.6,0,0,0-.48.71v3.38h-.79V85.58h.56l.14.6h0a1.85,1.85,0,0,1,.64-.52,2.18,2.18,0,0,1,1-.2,2.63,2.63,0,0,1,.72.09,1.08,1.08,0,0,1,.51.33,1.66,1.66,0,0,1,.3.64,4,4,0,0,1,.11,1v3Z"/><polygon class="b" points="34.3 39.08 42.89 43.94 51.34 39.08 42.89 34.73 34.3 39.08"/><line class="b" x1="51.26" y1="48.72" x2="51.34" y2="39.08"/><polyline class="b" points="34.3 39.08 34.3 48.83 42.83 53.78 46.45 51.84"/><line class="b" x1="42.89" y1="43.94" x2="42.89" y2="53.09"/><polygon class="b" points="78.63 39.08 87.21 43.94 95.67 39.08 87.21 34.73 78.63 39.08"/><line class="b" x1="95.61" y1="42.8" x2="95.67" y2="39.08"/><polyline class="b" points="78.63 39.08 78.63 48.83 87.15 53.78 95.54 49.35 95.56 47.78"/><line class="b" x1="87.21" y1="43.94" x2="87.21" y2="53.09"/><polygon class="b" points="56.03 56.53 64.62 61.4 73.08 56.53 64.62 52.19 56.03 56.53"/><polyline class="b" points="67.98 69.43 72.95 66.81 73.08 56.53"/><polyline class="b" points="56.03 56.53 56.03 66.29 61.63 69.53"/><line class="b" x1="64.62" y1="61.4" x2="64.62" y2="66.49"/><line class="b" x1="47.49" y1="46.94" x2="59.37" y2="54.26"/><line class="b" x1="69.24" y1="54.37" x2="82.39" y2="47.37"/></svg>