<?xml version="1.0" encoding="utf-8"?>
<!-- Generator: Adobe Illustrator 23.0.3, SVG Export Plug-In . SVG Version: 6.00 Build 0)  -->
<svg version="1.1" id="Layer_1" xmlns="http://www.w3.org/2000/svg" xmlns:xlink="http://www.w3.org/1999/xlink" x="0px" y="0px"
	 viewBox="0 0 130 130" style="enable-background:new 0 0 130 130;" xml:space="preserve">
<style type="text/css">
	.st0{fill:#FFFFFF;}
	.st1{fill:none;stroke:#1EB9D5;stroke-width:1.5;}
	.st2{fill:none;stroke:#FFE161;stroke-width:1.5;stroke-miterlimit:10;}
</style>
<g>
	<path class="st0" d="M14.2,94.7l1.7-10.6l3.8,8.4l3.9-8.5l1.6,10.6h-1.1l-0.9-7l-3.4,7.4l-3.4-7.4l-1,7H14.2z"/>
	<path class="st0" d="M26.9,91.6c0-1.9,1.4-3.3,3.3-3.3c1.9,0,3.3,1.4,3.3,3.3c0,1.9-1.4,3.3-3.3,3.3C28.3,94.8,26.9,93.5,26.9,91.6
		z M28,91.6c0,1.5,1.1,2.3,2.2,2.3c1.1,0,2.2-0.8,2.2-2.3c0-1.5-1-2.3-2.2-2.3C29,89.2,28,90,28,91.6z"/>
	<path class="st0" d="M36.2,94.7h-1.1V83.7h1.1v5.6c0.7-0.9,1.7-1,2.1-1c1.9,0,3,1.6,3,3.3c0,1.7-1.1,3.3-3,3.3
		c-1,0-1.7-0.5-2.2-1.1V94.7z M40.3,91.6c0-1.5-1-2.3-2-2.3s-2.1,0.8-2.1,2.3c0,1.3,0.8,2.3,2.1,2.3C39.5,93.9,40.3,92.8,40.3,91.6z
		"/>
	<path class="st0" d="M43.6,85.3c0.4,0,0.8,0.3,0.8,0.8s-0.3,0.8-0.8,0.8s-0.8-0.3-0.8-0.8S43.1,85.3,43.6,85.3z M44.1,88.4v6.2H43
		v-6.2H44.1z"/>
	<path class="st0" d="M47.2,83.7v10.9h-1.1V83.7H47.2z"/>
	<path class="st0" d="M54.8,93.1c-0.2,0.3-0.4,0.7-0.8,1c-0.6,0.5-1.3,0.8-2.1,0.8c-1.5,0-3.1-0.9-3.1-3.3c0-1.9,1.1-3.3,3-3.3
		c1.2,0,2,0.6,2.4,1.1c0.4,0.6,0.6,1.5,0.6,2.3H50c0,1.3,0.9,2.1,2,2.1c0.5,0,0.9-0.2,1.3-0.5c0.3-0.2,0.5-0.6,0.6-0.9L54.8,93.1z
		 M53.7,90.9c-0.2-1-0.9-1.6-1.8-1.6s-1.7,0.7-1.8,1.6H53.7z"/>
	<path class="st0" d="M59.7,89.7c0-3,2.3-5.2,5.2-5.2c2.9,0,5.2,2.2,5.2,5.2c0,3-2.3,5.2-5.2,5.2C62,94.8,59.7,92.6,59.7,89.7z
		 M60.8,89.7c0,2.3,1.8,4.1,4.1,4.1c2.3,0,4.1-1.8,4.1-4.1s-1.8-4.1-4.1-4.1C62.6,85.5,60.8,87.4,60.8,89.7z"/>
	<path class="st0" d="M73,98.1h-1.1v-9.7H73v0.9c0.7-0.9,1.7-1,2.1-1c2,0,3,1.6,3,3.3c0,1.7-1.1,3.3-3,3.3c-1,0-1.7-0.5-2.2-1.1
		V98.1z M77,91.6c0-1.5-1-2.3-2-2.3s-2.1,0.8-2.1,2.3c0,1.3,0.8,2.3,2.1,2.3C76.2,93.9,77,92.8,77,91.6z"/>
	<path class="st0" d="M85.3,93.1c-0.2,0.3-0.4,0.7-0.8,1c-0.6,0.5-1.3,0.8-2.1,0.8c-1.5,0-3.1-0.9-3.1-3.3c0-1.9,1.1-3.3,3-3.3
		c1.2,0,2,0.6,2.4,1.1c0.4,0.6,0.6,1.5,0.6,2.3h-4.8c0,1.3,0.9,2.1,2,2.1c0.5,0,0.9-0.2,1.3-0.5c0.3-0.2,0.5-0.6,0.6-0.9L85.3,93.1z
		 M84.2,90.9c-0.2-1-0.9-1.6-1.8-1.6s-1.7,0.7-1.8,1.6H84.2z"/>
	<path class="st0" d="M87,88.4h1.1v0.7c0.1-0.2,0.6-0.8,1.4-0.8c0.3,0,0.7,0.1,1,0.3l-0.5,1c-0.2-0.2-0.5-0.2-0.6-0.2
		c-0.4,0-0.7,0.2-0.9,0.4c-0.2,0.2-0.4,0.7-0.4,1.7v3.3H87V88.4z"/>
	<path class="st0" d="M95.9,88.4H97v6.2h-1.1v-0.9c-0.4,0.5-1,1.1-2.1,1.1c-1.6,0-3-1.1-3-3.3c0-2.1,1.4-3.3,3-3.3
		c1.2,0,1.8,0.7,2.1,1V88.4z M91.8,91.5c0,1.3,0.8,2.3,2,2.3c1.3,0,2.1-1.1,2.1-2.3c0-1.6-1.1-2.3-2.1-2.3
		C92.8,89.2,91.8,90,91.8,91.5z"/>
	<path class="st0" d="M100.1,89.4v5.2H99v-5.2h-0.7v-1H99v-2.2h1.1v2.2h1.1v1H100.1z"/>
	<path class="st0" d="M101.8,91.6c0-1.9,1.4-3.3,3.3-3.3s3.3,1.4,3.3,3.3c0,1.9-1.4,3.3-3.3,3.3S101.8,93.5,101.8,91.6z M102.9,91.6
		c0,1.5,1.1,2.3,2.2,2.3c1.1,0,2.2-0.8,2.2-2.3c0-1.5-1-2.3-2.2-2.3S102.9,90,102.9,91.6z"/>
	<path class="st0" d="M110.1,88.4h1.1v0.7c0.1-0.2,0.6-0.8,1.4-0.8c0.3,0,0.7,0.1,1,0.3l-0.5,1c-0.2-0.2-0.5-0.2-0.6-0.2
		c-0.4,0-0.7,0.2-0.9,0.4c-0.2,0.2-0.4,0.7-0.4,1.7v3.3h-1.1V88.4z"/>
	<path class="st0" d="M116.9,89.9c-0.2-0.4-0.5-0.6-0.9-0.6c-0.4,0-0.8,0.2-0.8,0.7c0,0.5,0.3,0.6,1,0.9c0.9,0.4,1.3,0.7,1.6,1
		c0.3,0.3,0.3,0.7,0.3,1c0,1.3-0.9,2-2.1,2c-0.3,0-1.7,0-2.2-1.6l0.9-0.4c0.1,0.3,0.5,1,1.3,1c0.7,0,1-0.5,1-1c0-0.6-0.4-0.8-1-1
		c-0.8-0.3-1.2-0.6-1.5-0.9c-0.2-0.3-0.3-0.6-0.3-0.9c0-1.1,0.8-1.7,1.8-1.7c0.3,0,1.2,0.1,1.7,1.1L116.9,89.9z"/>
	<path class="st0" d="M58,102.6c1,0,1.8,0.1,2.5,0.7c0.7,0.6,0.9,1.5,0.9,2.1c0,1.4-0.9,2.8-3.2,2.8h-1v4.3h-1.1v-10H58z
		 M57.2,107.3h0.9c1.3,0,2.1-0.7,2.1-1.8c0-1.6-1.5-1.7-2.2-1.7h-0.8V107.3z"/>
	<path class="st0" d="M62.4,112.7l3.6-4.2c0.3-0.3,0.9-1.1,1.2-1.5c0.5-0.6,0.6-1.1,0.6-1.5c0-1.1-0.8-2-2-2c-0.7,0-1.3,0.3-1.7,0.9
		c-0.2,0.3-0.3,0.7-0.3,1.2h-1.1c0-1,0.4-1.6,0.8-2.1c0.4-0.5,1.1-1,2.4-1c1.8,0,3.1,1.3,3.1,3c0,0.7-0.2,1.3-0.8,2.1
		c-0.4,0.6-1,1.2-1.4,1.7l-2.1,2.4h4.2v1H62.4z"/>
	<path class="st0" d="M73.3,102.6c1,0,1.8,0.1,2.5,0.7c0.7,0.6,0.9,1.5,0.9,2.1c0,1.4-0.9,2.8-3.2,2.8h-1v4.3h-1.1v-10H73.3z
		 M72.6,107.3h0.9c1.3,0,2.1-0.7,2.1-1.8c0-1.6-1.5-1.7-2.2-1.7h-0.8V107.3z"/>
</g>
<title>globe9</title>
<path class="st1" d="M83.4,73.6v2.8c0,1-0.8,1.8-1.8,1.8H64.2c-1,0-1.8-0.8-1.8-1.8V42.8c0-1,0.8-1.8,1.8-1.8h17.4
	c1,0,1.8,0.8,1.8,1.8l0,0v25.7"/>
<path class="st1" d="M65.8,63v9.3c-0.1,0.8,0.5,1.6,1.4,1.6h0.1h11.2c0.8,0,1.5-0.7,1.5-1.5c0,0,0,0,0-0.1V46.8
	c0-0.8-0.6-1.5-1.5-1.6l0,0h-3L75,46.5h-4.3l-0.4-1.3h-3c-0.8,0-1.5,0.7-1.5,1.6l0,0v12.7"/>
<path class="st2" d="M54.1,40.3c0.5-1.6,1.4-3,2.6-4.2c1.2-1.2,2.7-2.1,4.3-2.6"/>
<path class="st2" d="M58.2,23.4c-3.4,1.1-6.5,3-9,5.6c-2.5,2.4-4.3,5.3-5.4,8.6"/>
<path class="st2" d="M49.5,39.1c0.8-2.3,2.1-4.4,3.9-6.1c1.8-1.8,3.9-3.2,6.3-4"/>
</svg>
