<?xml version="1.0" encoding="utf-8"?>
<!-- Generator: Adobe Illustrator 23.0.3, SVG Export Plug-In . SVG Version: 6.00 Build 0)  -->
<svg version="1.1" id="Layer_1" xmlns="http://www.w3.org/2000/svg" xmlns:xlink="http://www.w3.org/1999/xlink" x="0px" y="0px"
	 viewBox="0 0 130 130" style="enable-background:new 0 0 130 130;" xml:space="preserve">
<style type="text/css">
	.st0{fill:#FFE161;}
	.st1{fill:none;stroke:#1EB9D5;stroke-width:1.5;stroke-linecap:round;stroke-linejoin:round;}
</style>
<title>globe10</title>
<path class="st0" d="M30.6,86.5l0.1-1h0l-0.4,1l-1.8,3.1h-0.2l-1.9-3.1l-0.4-0.9h0l0.1,1v4.7h-0.8v-7h0.6l2.1,3.5l0.3,0.8l0,0
	l0.3-0.8l2.1-3.5h0.6v6.9h-0.8L30.6,86.5z"/>
<path class="st0" d="M32.7,88.7c0-0.7,0.1-1.4,0.6-1.9c0.4-0.5,1-0.7,1.6-0.7c0.3,0,0.7,0.1,1,0.2c0.3,0.1,0.5,0.3,0.7,0.5
	c0.2,0.2,0.3,0.5,0.4,0.8c0.1,0.3,0.1,0.7,0.1,1.1c0,0.7-0.2,1.4-0.6,1.9c-0.4,0.5-1,0.7-1.6,0.7c-0.3,0-0.7,0-1-0.2
	c-0.3-0.1-0.5-0.3-0.7-0.5c-0.2-0.2-0.3-0.5-0.4-0.8C32.8,89.4,32.7,89,32.7,88.7z M33.5,88.7c0,0.2,0,0.5,0.1,0.7
	c0,0.2,0.1,0.4,0.2,0.6c0.1,0.2,0.2,0.3,0.4,0.4c0.2,0.1,0.4,0.2,0.6,0.2c0.9,0,1.3-0.6,1.3-1.9c0-0.2,0-0.5-0.1-0.7
	c0-0.2-0.1-0.4-0.2-0.6c-0.2-0.3-0.6-0.6-1-0.6C34,86.8,33.5,87.4,33.5,88.7z"/>
<path class="st0" d="M41.5,91.1v-2.8c0-0.4,0-0.8-0.2-1.2c-0.2-0.3-0.5-0.4-0.8-0.4c-0.3,0-0.6,0.1-0.9,0.3
	c-0.2,0.2-0.4,0.4-0.5,0.7v3.4h-0.8v-4.9h0.5l0.2,0.6l0,0c0.2-0.2,0.4-0.4,0.6-0.5c0.3-0.1,0.6-0.2,1-0.2c0.2,0,0.5,0,0.7,0.1
	c0.2,0.1,0.4,0.2,0.5,0.3c0.2,0.2,0.3,0.4,0.3,0.6c0.1,0.3,0.1,0.7,0.1,1v3L41.5,91.1z"/>
<path class="st0" d="M47.3,90.7c-0.2,0.2-0.5,0.3-0.7,0.4c-0.3,0.1-0.7,0.2-1,0.1c-0.3,0-0.7,0-1-0.2c-0.3-0.1-0.5-0.3-0.7-0.5
	c-0.2-0.2-0.3-0.5-0.4-0.8c-0.1-0.3-0.1-0.7-0.1-1.1c0-0.7,0.2-1.4,0.7-1.9c0.4-0.5,1-0.7,1.6-0.7c0.2,0,0.5,0,0.7,0.1
	c0.2,0,0.4,0.1,0.6,0.3c0.2,0.2,0.3,0.4,0.4,0.6c0.1,0.3,0.2,0.7,0.2,1c0,0.2,0,0.5-0.1,0.7h-3.2c0,0.3,0,0.5,0.1,0.8
	c0,0.2,0.1,0.4,0.3,0.6c0.1,0.2,0.3,0.3,0.5,0.4c0.2,0.1,0.5,0.1,0.7,0.1c0.2,0,0.5,0,0.7-0.1c0.2-0.1,0.4-0.2,0.5-0.3L47.3,90.7z
	 M45.6,86.7c-0.3,0-0.7,0.1-0.9,0.3c-0.3,0.3-0.4,0.7-0.4,1.1h2.5c0-0.4-0.1-0.8-0.3-1.1C46.2,86.8,45.9,86.7,45.6,86.7L45.6,86.7z"
	/>
<path class="st0" d="M50,89.4l0.3,1l0,0l0.2-1l1-3.2h0.8l-1.5,4.4l-0.3,0.9c-0.1,0.3-0.2,0.5-0.4,0.8c-0.1,0.2-0.3,0.4-0.4,0.6
	c-0.2,0.1-0.4,0.2-0.6,0.2c-0.2,0-0.4,0-0.6-0.1l0.1-0.7c0.3,0.1,0.6,0,0.8-0.2c0.2-0.3,0.4-0.6,0.4-1l-2-4.9h0.9L50,89.4z"/>
<path class="st0" d="M59.6,85h-2.2v6.2h-0.8V85h-2.2v-0.7h5.1V85z"/>
<path class="st0" d="M61.9,87c-0.2-0.1-0.4-0.1-0.6-0.1c-0.2,0-0.5,0.1-0.7,0.2c-0.2,0.2-0.3,0.4-0.3,0.6v3.5h-0.8v-5h0.5l0.2,0.6
	l0,0c0.1-0.2,0.3-0.4,0.5-0.5c0.2-0.1,0.4-0.2,0.7-0.2c0.2,0,0.4,0,0.6,0.1L61.9,87z"/>
<path class="st0" d="M62.8,86.6c0.3-0.2,0.6-0.3,0.9-0.3c0.3-0.1,0.7-0.1,1-0.1c0.3,0,0.6,0,0.8,0.1c0.4,0.1,0.6,0.5,0.7,0.8
	c0,0.2,0.1,0.4,0.1,0.5c0,0.4,0,0.8,0,1.2s0,0.7,0,1.1s0,0.5,0,0.7c0,0.2,0.1,0.4,0.1,0.6h-0.6l-0.2-0.7l0,0
	c-0.1,0.1-0.1,0.2-0.2,0.3c-0.1,0.1-0.2,0.2-0.4,0.3c-0.1,0.1-0.3,0.1-0.4,0.2c-0.2,0-0.4,0.1-0.6,0.1c-0.2,0-0.4,0-0.6-0.1
	c-0.2-0.1-0.3-0.2-0.5-0.3c-0.1-0.1-0.2-0.3-0.3-0.4c-0.1-0.2-0.1-0.4-0.1-0.6c0-0.3,0.1-0.5,0.2-0.7c0.1-0.2,0.3-0.4,0.5-0.5
	c0.2-0.1,0.5-0.2,0.8-0.2c0.3-0.1,0.7-0.1,1-0.1h0.3c0.1,0,0.2,0,0.3,0c0-0.2,0-0.4,0-0.5c0-0.3,0-0.5-0.2-0.8
	c-0.2-0.2-0.5-0.2-0.8-0.2h-0.4l-0.4,0.1L63.4,87L63,87.1L62.8,86.6z M64.2,90.6c0.2,0,0.3,0,0.5-0.1c0.1,0,0.3-0.1,0.4-0.2
	c0.1-0.1,0.2-0.2,0.3-0.2c0.1-0.1,0.1-0.2,0.2-0.3V89h-0.3h-0.3c-0.2,0-0.4,0-0.6,0c-0.2,0-0.4,0.1-0.5,0.1
	c-0.1,0.1-0.3,0.1-0.3,0.3c-0.1,0.1-0.1,0.3-0.1,0.4c0,0.2,0.1,0.4,0.2,0.6C63.8,90.5,64,90.5,64.2,90.6L64.2,90.6z"/>
<path class="st0" d="M71,91.1v-2.8c0-0.4,0-0.8-0.2-1.2c-0.2-0.3-0.5-0.4-0.8-0.4c-0.3,0-0.6,0.1-0.9,0.3c-0.2,0.2-0.4,0.4-0.5,0.7
	v3.4h-0.8v-4.9h0.6l0.2,0.6l0,0c0.2-0.2,0.4-0.4,0.6-0.5c0.3-0.2,0.7-0.2,1-0.2c0.2,0,0.5,0,0.7,0.1c0.2,0.1,0.4,0.2,0.5,0.3
	c0.2,0.2,0.3,0.4,0.3,0.6c0.1,0.3,0.1,0.7,0.1,1v3L71,91.1z"/>
<path class="st0" d="M75.4,89.8c0-0.2-0.1-0.3-0.2-0.5c-0.1-0.1-0.3-0.2-0.4-0.3c-0.2-0.1-0.4-0.2-0.6-0.2c-0.2-0.1-0.4-0.2-0.6-0.3
	c-0.2-0.1-0.3-0.3-0.4-0.4C73,87.9,73,87.7,73,87.5c0-0.4,0.1-0.7,0.4-1c0.3-0.2,0.7-0.4,1.1-0.3c0.3,0,0.6,0,0.9,0.1
	c0.2,0,0.4,0.1,0.6,0.2l-0.2,0.7c-0.2-0.1-0.4-0.1-0.6-0.2c-0.2-0.1-0.5-0.1-0.7-0.1c-0.2,0-0.4,0-0.6,0.1c-0.1,0.1-0.2,0.3-0.2,0.5
	c0,0.2,0.1,0.3,0.2,0.4c0.1,0.1,0.3,0.2,0.4,0.2c0.2,0.1,0.4,0.2,0.6,0.2c0.2,0.1,0.4,0.2,0.6,0.3c0.2,0.1,0.3,0.2,0.5,0.4
	c0.1,0.2,0.2,0.5,0.2,0.7c0,0.2,0,0.4-0.1,0.6c-0.1,0.2-0.2,0.3-0.3,0.5c-0.2,0.1-0.3,0.2-0.5,0.3c-0.2,0.1-0.5,0.1-0.8,0.1
	c-0.3,0-0.7,0-1-0.1C73.2,91,73,91,72.8,90.8l0.2-0.7c0.2,0.1,0.4,0.2,0.6,0.2c0.2,0.1,0.5,0.1,0.7,0.1c0.2,0,0.5,0,0.7-0.2
	C75.3,90.2,75.4,90,75.4,89.8z"/>
<path class="st0" d="M80.2,91.1v-2.8c0-0.2,0-0.5,0-0.7c0-0.2-0.1-0.3-0.1-0.5c-0.1-0.1-0.2-0.2-0.3-0.3c-0.4-0.2-0.9-0.1-1.2,0.2
	c-0.2,0.2-0.3,0.4-0.4,0.7v3.4h-0.8v-4.9h0.6l0.2,0.6l0,0c0.2-0.2,0.4-0.4,0.6-0.5c0.3-0.2,0.6-0.2,0.9-0.2c0.3,0,0.5,0.1,0.8,0.2
	c0.2,0.2,0.4,0.4,0.5,0.6c0.2-0.2,0.4-0.5,0.6-0.6c0.3-0.1,0.6-0.2,0.9-0.2c0.2,0,0.5,0,0.7,0.1c0.2,0.1,0.4,0.2,0.5,0.3
	c0.1,0.2,0.2,0.4,0.3,0.6c0.1,0.3,0.1,0.7,0.1,1v3h-0.8v-3c0-0.2,0-0.4,0-0.6c0-0.2-0.1-0.3-0.1-0.4c-0.1-0.1-0.2-0.2-0.3-0.3
	c-0.2-0.1-0.3-0.1-0.5-0.1c-0.3,0-0.6,0.1-0.8,0.3c-0.2,0.2-0.3,0.5-0.4,0.8v3.3L80.2,91.1z"/>
<path class="st0" d="M85.4,84.7c0-0.1,0.1-0.3,0.2-0.4c0.1-0.1,0.2-0.2,0.4-0.2c0.1,0,0.3,0.1,0.4,0.2c0.1,0.1,0.2,0.2,0.2,0.4
	c0,0.1-0.1,0.3-0.2,0.4c-0.1,0.1-0.3,0.1-0.4,0.1c-0.1,0-0.3,0-0.4-0.1C85.4,85,85.4,84.8,85.4,84.7z M85.5,86.2h0.8v4.9h-0.8V86.2z
	"/>
<path class="st0" d="M87.4,86.2h0.8v-1l0.8-0.2v1.2h1.3v0.7h-1.3v2.7c0,0.3,0,0.5,0.1,0.7c0.1,0.1,0.3,0.2,0.4,0.2
	c0.1,0,0.3,0,0.4,0l0.4-0.2l0.2,0.6c-0.2,0.1-0.4,0.2-0.6,0.2c-0.2,0.1-0.5,0.1-0.7,0.1c-0.3,0-0.6-0.1-0.8-0.3
	c-0.2-0.3-0.3-0.7-0.2-1.1v-2.9h-0.8L87.4,86.2z"/>
<path class="st0" d="M90.7,86.2h0.8v-1l0.8-0.2v1.2h1.3v0.7h-1.3v2.7c0,0.3,0,0.5,0.1,0.7c0.1,0.1,0.3,0.2,0.4,0.2
	c0.1,0,0.3,0,0.4,0l0.4-0.2l0.2,0.6c-0.2,0.1-0.4,0.2-0.6,0.2c-0.2,0.1-0.5,0.1-0.7,0.1c-0.3,0-0.6-0.1-0.8-0.3
	c-0.2-0.3-0.3-0.7-0.2-1.1v-2.9h-0.8V86.2z"/>
<path class="st0" d="M98.2,90.7c-0.2,0.2-0.5,0.3-0.8,0.4c-0.3,0.1-0.7,0.2-1,0.1c-0.3,0-0.7-0.1-1-0.2c-0.3-0.1-0.5-0.3-0.7-0.5
	c-0.2-0.2-0.3-0.5-0.4-0.8c-0.1-0.4-0.1-0.7-0.1-1.1c-0.1-0.7,0.1-1.4,0.6-1.9c0.4-0.5,1-0.7,1.6-0.7c0.2,0,0.5,0,0.7,0.1
	c0.2,0,0.4,0.1,0.6,0.3c0.2,0.2,0.3,0.4,0.4,0.6c0.1,0.3,0.2,0.7,0.2,1c0,0.2,0,0.5-0.1,0.7h-3.1c0,0.3,0,0.5,0.1,0.8
	c0,0.2,0.1,0.4,0.3,0.6c0.1,0.2,0.3,0.3,0.5,0.4c0.2,0.1,0.5,0.1,0.7,0.1c0.2,0,0.5,0,0.7-0.1c0.2-0.1,0.4-0.2,0.5-0.3L98.2,90.7z
	 M96.5,86.7c-0.3,0-0.7,0.1-0.9,0.3c-0.3,0.3-0.4,0.7-0.4,1.1h2.4c0-0.4-0.1-0.7-0.3-1.1C97.1,86.8,96.8,86.7,96.5,86.7L96.5,86.7z"
	/>
<path class="st0" d="M102,87c-0.2-0.1-0.4-0.1-0.6-0.1c-0.2,0-0.5,0.1-0.7,0.2c-0.2,0.2-0.3,0.4-0.3,0.6v3.5h-0.8v-5h0.6l0.1,0.6
	l0,0c0.1-0.2,0.3-0.4,0.4-0.5c0.2-0.1,0.4-0.2,0.7-0.2c0.2,0,0.4,0,0.6,0.1L102,87z"/>
<path class="st0" d="M105.2,89.8c0-0.2-0.1-0.3-0.2-0.5c-0.1-0.1-0.3-0.2-0.4-0.3c-0.2-0.1-0.4-0.2-0.6-0.2
	c-0.2-0.1-0.4-0.2-0.6-0.3c-0.2-0.1-0.3-0.3-0.4-0.4c-0.1-0.2-0.2-0.4-0.2-0.7c0-0.4,0.1-0.7,0.4-1c0.3-0.2,0.7-0.4,1.1-0.3
	c0.3,0,0.6,0,0.9,0.1c0.2,0.1,0.4,0.1,0.6,0.2l-0.2,0.7c-0.2-0.1-0.4-0.1-0.6-0.2c-0.2-0.1-0.5-0.1-0.7-0.1c-0.2,0-0.4,0-0.6,0.1
	c-0.1,0.1-0.2,0.3-0.2,0.5c0,0.2,0.1,0.3,0.2,0.4c0.1,0.1,0.3,0.2,0.4,0.2l0.6,0.2c0.2,0.1,0.4,0.2,0.6,0.3c0.2,0.1,0.3,0.3,0.4,0.4
	c0.1,0.2,0.2,0.5,0.2,0.7c0,0.2,0,0.4-0.1,0.6c-0.1,0.2-0.2,0.4-0.3,0.5c-0.2,0.1-0.3,0.2-0.5,0.3c-0.2,0.1-0.5,0.1-0.8,0.1
	c-0.3,0-0.7,0-1-0.1c-0.2-0.1-0.5-0.1-0.7-0.2l0.2-0.7c0.4,0.2,0.9,0.3,1.3,0.3c0.2,0,0.5-0.1,0.7-0.2
	C105.1,90.3,105.2,90.1,105.2,89.8z"/>
<path class="st1" d="M40.9,42.4l17.7-5.6c4.8-1.5,10-1.5,14.9,0.1l16.5,5.5H40.9z"/>
<line class="st1" x1="46.7" y1="65" x2="46.7" y2="42.8"/>
<line class="st1" x1="84.1" y1="65" x2="84.1" y2="42.8"/>
<polyline class="st1" points="53.9,69.2 45.2,69.2 45.2,65 85.6,65 85.6,69.2 59.9,69.2 "/>
<polyline class="st1" points="77.5,53.2 77.5,47.8 52.7,47.8 52.7,64.9 77.5,64.9 77.5,58.5 "/>
</svg>
