<svg xmlns="http://www.w3.org/2000/svg" viewBox="0 0 130 130"><defs><style>.a{fill:#ffe161;}.b{fill:none;stroke:#1eb9d5;stroke-linecap:round;stroke-linejoin:round;stroke-width:2px;}</style></defs><title>globe4</title><path class="a" d="M11.69,86.7h3.77v.73h-3V89.7h2.7v.73h-2.7v2.46h3v.73H11.69Z"/><path class="a" d="M18.2,91.09l-1.66-2.41h1L18.45,90l.28.57L19,90l1-1.36h.89l-1.67,2.37L21,93.62H20l-1-1.5-.3-.59-.31.59-1.07,1.5h-.87Z"/><path class="a" d="M25.13,93.29a2.17,2.17,0,0,1-.7.34,3.35,3.35,0,0,1-.85.11,2.37,2.37,0,0,1-1-.18A1.66,1.66,0,0,1,22,93a2.21,2.21,0,0,1-.37-.82,4.37,4.37,0,0,1-.11-1.06A2.91,2.91,0,0,1,22,89.23a1.94,1.94,0,0,1,1.59-.67,3.76,3.76,0,0,1,.81.08,2.06,2.06,0,0,1,.59.21l-.22.68a2.08,2.08,0,0,0-.51-.2,2.21,2.21,0,0,0-.59-.08c-.94,0-1.4.64-1.4,1.9a3.38,3.38,0,0,0,.07.72,1.78,1.78,0,0,0,.25.6,1.3,1.3,0,0,0,.45.42,1.37,1.37,0,0,0,.7.16,1.83,1.83,0,0,0,.64-.11,2,2,0,0,0,.46-.25Z"/><path class="a" d="M29.39,93.62V90.8a4.47,4.47,0,0,0,0-.67,1.28,1.28,0,0,0-.17-.49.75.75,0,0,0-.32-.29,1.28,1.28,0,0,0-.53-.1,1.31,1.31,0,0,0-.84.3,1.36,1.36,0,0,0-.48.78v3.29h-.79V86.7H27v2.53h0a2.14,2.14,0,0,1,.62-.49,2,2,0,0,1,.89-.18,2.2,2.2,0,0,1,.72.1,1,1,0,0,1,.51.33,1.37,1.37,0,0,1,.3.63,4.82,4.82,0,0,1,.09,1v3Z"/><path class="a" d="M31.55,89.05a2.59,2.59,0,0,1,.87-.34,5,5,0,0,1,1-.11,2.1,2.1,0,0,1,.83.14,1.09,1.09,0,0,1,.47.36,1.28,1.28,0,0,1,.22.49,2.38,2.38,0,0,1,.05.53c0,.4,0,.78,0,1.16s0,.73,0,1.07,0,.47,0,.69a3.38,3.38,0,0,0,.11.6h-.58L34.32,93h0a1.74,1.74,0,0,1-.22.27,1.34,1.34,0,0,1-.32.24,2.41,2.41,0,0,1-.43.17,2,2,0,0,1-.57.07,1.63,1.63,0,0,1-.59-.1,1.3,1.3,0,0,1-.78-.72,1.54,1.54,0,0,1-.11-.58,1.36,1.36,0,0,1,.18-.73,1.24,1.24,0,0,1,.5-.46,2.32,2.32,0,0,1,.77-.25,6,6,0,0,1,1-.08H34l.27,0a5.13,5.13,0,0,0,0-.53,1.08,1.08,0,0,0-.21-.76,1.1,1.1,0,0,0-.79-.22l-.37,0a2.92,2.92,0,0,0-.39.07l-.39.11a1.35,1.35,0,0,0-.32.15ZM33,93a1.48,1.48,0,0,0,.49-.08,1.68,1.68,0,0,0,.38-.18,1.28,1.28,0,0,0,.26-.26,1,1,0,0,0,.15-.26v-.82l-.28,0h-.28q-.3,0-.6,0a2.37,2.37,0,0,0-.51.13.88.88,0,0,0-.36.26.61.61,0,0,0-.13.41.72.72,0,0,0,.25.57A.93.93,0,0,0,33,93Z"/><path class="a" d="M39.7,93.62V90.8a2.51,2.51,0,0,0-.22-1.16.86.86,0,0,0-.82-.39,1.33,1.33,0,0,0-.86.28,1.5,1.5,0,0,0-.48.71v3.38h-.79V88.68h.55l.15.6h0a1.85,1.85,0,0,1,.64-.52,2.12,2.12,0,0,1,1-.2,2.17,2.17,0,0,1,.71.1,1.08,1.08,0,0,1,.51.33,1.61,1.61,0,0,1,.31.63,4.18,4.18,0,0,1,.1,1v3Z"/><path class="a" d="M45.72,93.85a1.79,1.79,0,0,1-.51,1.41,2.22,2.22,0,0,1-1.51.46,4.8,4.8,0,0,1-1-.08,2.85,2.85,0,0,1-.62-.19l.21-.67.5.17a2.92,2.92,0,0,0,.72.07,2.53,2.53,0,0,0,.68-.07.85.85,0,0,0,.42-.25.87.87,0,0,0,.22-.44,3.06,3.06,0,0,0,.06-.65v-.47h0a1.36,1.36,0,0,1-.51.44,1.81,1.81,0,0,1-.8.15,1.72,1.72,0,0,1-1.46-.62,3.19,3.19,0,0,1-.47-1.94,2.76,2.76,0,0,1,.6-1.92A2.28,2.28,0,0,1,44,88.59a4.48,4.48,0,0,1,1,.09,5.2,5.2,0,0,1,.72.21Zm-2-.81a1.19,1.19,0,0,0,.79-.25,1.45,1.45,0,0,0,.41-.79V89.47a2.46,2.46,0,0,0-1-.19,1.3,1.3,0,0,0-1.06.46,2.13,2.13,0,0,0-.38,1.42,3.57,3.57,0,0,0,.07.76,1.64,1.64,0,0,0,.21.59,1,1,0,0,0,.39.39A1.16,1.16,0,0,0,43.73,93Z"/><path class="a" d="M50.85,93.23a2.39,2.39,0,0,1-.75.37,3.31,3.31,0,0,1-1,.14,2.45,2.45,0,0,1-1-.18,1.72,1.72,0,0,1-.68-.53,2.28,2.28,0,0,1-.4-.81A4.35,4.35,0,0,1,47,91.15a2.89,2.89,0,0,1,.57-1.93,2,2,0,0,1,1.61-.66,3.07,3.07,0,0,1,.67.08,1.38,1.38,0,0,1,.6.28,1.56,1.56,0,0,1,.44.58,2.61,2.61,0,0,1,.16,1,4.67,4.67,0,0,1,0,.72H47.78a3,3,0,0,0,.09.77,1.52,1.52,0,0,0,.28.57,1.19,1.19,0,0,0,.49.35,1.77,1.77,0,0,0,.73.13,2,2,0,0,0,.68-.12,1.37,1.37,0,0,0,.5-.28Zm-1.7-4a1.42,1.42,0,0,0-.94.31,1.55,1.55,0,0,0-.42,1h2.45A1.57,1.57,0,0,0,50,89.55,1.06,1.06,0,0,0,49.15,89.25Z"/><path class="a" d="M59.12,90.45H55.8v3.17H55V86.7h.82v3h3.32v-3h.82v6.92h-.82Z"/><path class="a" d="M61.26,91.15a2.91,2.91,0,0,1,.56-1.92,2,2,0,0,1,1.61-.67,2.35,2.35,0,0,1,1,.18,1.87,1.87,0,0,1,.68.53,2.15,2.15,0,0,1,.39.82,3.9,3.9,0,0,1,.13,1.06A2.86,2.86,0,0,1,65,93.07a2,2,0,0,1-1.6.67,2.43,2.43,0,0,1-1-.18,1.76,1.76,0,0,1-.67-.53,2.24,2.24,0,0,1-.4-.82A4.33,4.33,0,0,1,61.26,91.15Zm.82,0a3.38,3.38,0,0,0,.08.72,1.79,1.79,0,0,0,.23.6,1.18,1.18,0,0,0,.41.42,1.16,1.16,0,0,0,.63.16c.89,0,1.34-.63,1.34-1.9a3.41,3.41,0,0,0-.07-.73,1.8,1.8,0,0,0-.24-.6,1.08,1.08,0,0,0-.41-.41,1.12,1.12,0,0,0-.62-.16C62.53,89.25,62.08,89.88,62.08,91.15Z"/><path class="a" d="M67.55,88.68V91.5a4.47,4.47,0,0,0,0,.67,1.28,1.28,0,0,0,.16.49A.74.74,0,0,0,68,93a1.14,1.14,0,0,0,.48.1A1.16,1.16,0,0,0,69,93a1.1,1.1,0,0,0,.37-.23,1.58,1.58,0,0,0,.29-.34,2,2,0,0,0,.2-.41v-3.3h.79v3.54c0,.23,0,.48,0,.73a4,4,0,0,0,.08.67h-.54l-.2-.78H70a2,2,0,0,1-.61.64,1.76,1.76,0,0,1-1,.26,2.48,2.48,0,0,1-.7-.09,1.09,1.09,0,0,1-.5-.34,1.49,1.49,0,0,1-.31-.63,4.18,4.18,0,0,1-.1-1v-3Z"/><path class="a" d="M74.34,92.28a.61.61,0,0,0-.18-.47,1.75,1.75,0,0,0-.44-.28l-.57-.22a2.77,2.77,0,0,1-.58-.26,1.6,1.6,0,0,1-.44-.42,1.29,1.29,0,0,1-.17-.7,1.27,1.27,0,0,1,.4-1,1.75,1.75,0,0,1,1.13-.33,3.26,3.26,0,0,1,.89.1,3.09,3.09,0,0,1,.63.22l-.19.65a2.69,2.69,0,0,0-.55-.19,2.48,2.48,0,0,0-.68-.09,1.08,1.08,0,0,0-.64.15.58.58,0,0,0-.2.51.52.52,0,0,0,.17.41,2,2,0,0,0,.44.25c.18.08.37.15.58.22a2.54,2.54,0,0,1,.57.29,1.57,1.57,0,0,1,.44.45,1.28,1.28,0,0,1,.18.72,1.63,1.63,0,0,1-.11.59,1.07,1.07,0,0,1-.32.47,1.44,1.44,0,0,1-.54.32,2.37,2.37,0,0,1-.75.11,3.73,3.73,0,0,1-1-.11,2.93,2.93,0,0,1-.66-.26L72,92.7a2.39,2.39,0,0,0,.59.24,2.65,2.65,0,0,0,.74.11,1.34,1.34,0,0,0,.7-.17A.63.63,0,0,0,74.34,92.28Z"/><path class="a" d="M79.93,93.23a2.33,2.33,0,0,1-.74.37,3.32,3.32,0,0,1-1,.14,2.48,2.48,0,0,1-1-.18,1.87,1.87,0,0,1-.68-.53,2.11,2.11,0,0,1-.39-.81,3.92,3.92,0,0,1-.13-1.07,2.94,2.94,0,0,1,.56-1.93,2,2,0,0,1,1.61-.66,3,3,0,0,1,.67.08,1.36,1.36,0,0,1,.61.28,1.55,1.55,0,0,1,.43.58,2.59,2.59,0,0,1,.17,1,4.76,4.76,0,0,1-.06.72H76.87A3,3,0,0,0,77,92a1.67,1.67,0,0,0,.27.57,1.26,1.26,0,0,0,.49.35,1.82,1.82,0,0,0,.74.13,2,2,0,0,0,.67-.12,1.52,1.52,0,0,0,.51-.28Zm-1.7-4a1.37,1.37,0,0,0-.93.31,1.47,1.47,0,0,0-.42,1h2.45A1.56,1.56,0,0,0,79,89.55,1.06,1.06,0,0,0,78.23,89.25Z"/><path class="a" d="M83.52,92.28a.61.61,0,0,0-.18-.47,1.58,1.58,0,0,0-.44-.28c-.17-.07-.36-.15-.57-.22a2.48,2.48,0,0,1-.57-.26,1.36,1.36,0,0,1-.44-.42,1.21,1.21,0,0,1-.18-.7,1.27,1.27,0,0,1,.4-1,1.75,1.75,0,0,1,1.13-.33,3.21,3.21,0,0,1,.89.1,3.09,3.09,0,0,1,.63.22l-.19.65a2.69,2.69,0,0,0-.55-.19,2.48,2.48,0,0,0-.68-.09,1.1,1.1,0,0,0-.64.15.61.61,0,0,0-.2.51.5.5,0,0,0,.18.41,1.64,1.64,0,0,0,.44.25,5.24,5.24,0,0,0,.57.22,2.54,2.54,0,0,1,.57.29,1.57,1.57,0,0,1,.44.45,1.28,1.28,0,0,1,.18.72,1.87,1.87,0,0,1-.1.59,1.18,1.18,0,0,1-.33.47,1.47,1.47,0,0,1-.53.32,2.49,2.49,0,0,1-.76.11,3.78,3.78,0,0,1-1-.11,2.93,2.93,0,0,1-.66-.26l.24-.67a2.57,2.57,0,0,0,.59.24,2.65,2.65,0,0,0,.74.11,1.34,1.34,0,0,0,.7-.17A.63.63,0,0,0,83.52,92.28Z"/><path class="a" d="M90.62,86.58l.63.28L87.64,95,87,94.73Z"/><path class="a" d="M98.53,88.28a1.81,1.81,0,0,1-.08.51,1.54,1.54,0,0,1-.24.48,1.49,1.49,0,0,1-.4.39,1.79,1.79,0,0,1-.58.25v0a2.78,2.78,0,0,1,.56.17,1.37,1.37,0,0,1,.48.33,1.77,1.77,0,0,1,.34.5,1.68,1.68,0,0,1,.13.7,1.94,1.94,0,0,1-.22.93,2,2,0,0,1-.59.64,2.65,2.65,0,0,1-.82.36,3.81,3.81,0,0,1-1,.12h-.87l-.49,0a3.91,3.91,0,0,1-.44-.08V86.76c.24,0,.53-.07.85-.1s.68,0,1.06,0a5.26,5.26,0,0,1,.78.07,2,2,0,0,1,.73.25,1.52,1.52,0,0,1,.54.5A1.54,1.54,0,0,1,98.53,88.28Zm-2.84,1.47h.41l.39,0a3.07,3.07,0,0,0,.45-.2,1.64,1.64,0,0,0,.37-.26,1.19,1.19,0,0,0,.26-.36,1,1,0,0,0,.09-.44,1.11,1.11,0,0,0-.12-.54,1,1,0,0,0-.33-.34,1.71,1.71,0,0,0-.48-.18,2.47,2.47,0,0,0-.54,0h-.6a2.67,2.67,0,0,0-.41.05v2.35ZM96.24,93a2.49,2.49,0,0,0,.61-.08,1.45,1.45,0,0,0,.52-.23,1.27,1.27,0,0,0,.37-.4,1.36,1.36,0,0,0,0-1.22,1.13,1.13,0,0,0-.43-.38,1.58,1.58,0,0,0-.59-.19,4.62,4.62,0,0,0-.65,0h-.86v2.48l.2,0,.28,0h.58Z"/><path class="a" d="M100,89.05a2.65,2.65,0,0,1,.88-.34,5,5,0,0,1,1-.11,2.14,2.14,0,0,1,.83.14,1.16,1.16,0,0,1,.47.36,1.28,1.28,0,0,1,.22.49,3.17,3.17,0,0,1,0,.53c0,.4,0,.78,0,1.16s0,.73,0,1.07,0,.47,0,.69a3.38,3.38,0,0,0,.11.6H103l-.21-.69h0a1.74,1.74,0,0,1-.22.27,1.57,1.57,0,0,1-.32.24,2.24,2.24,0,0,1-.44.17,1.91,1.91,0,0,1-.56.07,1.63,1.63,0,0,1-.59-.1,1.31,1.31,0,0,1-.47-.28,1.4,1.4,0,0,1-.31-.44,1.36,1.36,0,0,1-.11-.58,1.46,1.46,0,0,1,.17-.73,1.31,1.31,0,0,1,.5-.46,2.49,2.49,0,0,1,.77-.25,6.14,6.14,0,0,1,1-.08h.27l.27,0a5.13,5.13,0,0,0,0-.53,1,1,0,0,0-.22-.76,1.07,1.07,0,0,0-.79-.22l-.36,0a2.66,2.66,0,0,0-.39.07l-.39.11a1.35,1.35,0,0,0-.32.15Zm1.41,4a1.48,1.48,0,0,0,.49-.08,1.68,1.68,0,0,0,.38-.18,1.28,1.28,0,0,0,.26-.26,1,1,0,0,0,.15-.26v-.82l-.28,0h-.28a5.74,5.74,0,0,0-.6,0,2.37,2.37,0,0,0-.51.13.88.88,0,0,0-.36.26.61.61,0,0,0-.13.41.75.75,0,0,0,.24.57A1,1,0,0,0,101.38,93Z"/><path class="a" d="M108.13,93.62V90.8a2.37,2.37,0,0,0-.23-1.16.84.84,0,0,0-.81-.39,1.37,1.37,0,0,0-.87.28,1.56,1.56,0,0,0-.47.71v3.38H105V88.68h.56l.15.6h0a1.81,1.81,0,0,1,.63-.52,2.19,2.19,0,0,1,1-.2,2.21,2.21,0,0,1,.71.1,1.08,1.08,0,0,1,.51.33,1.61,1.61,0,0,1,.3.63,4.12,4.12,0,0,1,.11,1v3Z"/><path class="a" d="M111.61,91.4h-.46v2.22h-.79V86.7h.79v4.21l.41-.14,1.53-2.09H114l-1.51,2-.41.32.49.4,1.65,2.23h-1Z"/><path class="a" d="M117.27,92.28a.61.61,0,0,0-.18-.47,1.58,1.58,0,0,0-.44-.28c-.17-.07-.36-.15-.57-.22a2.77,2.77,0,0,1-.58-.26,1.44,1.44,0,0,1-.43-.42,1.21,1.21,0,0,1-.18-.7,1.27,1.27,0,0,1,.4-1,1.75,1.75,0,0,1,1.13-.33,3.26,3.26,0,0,1,.89.1,3.09,3.09,0,0,1,.63.22l-.19.65a2.69,2.69,0,0,0-.55-.19,2.48,2.48,0,0,0-.68-.09,1.1,1.1,0,0,0-.64.15.61.61,0,0,0-.2.51.5.5,0,0,0,.18.41,1.64,1.64,0,0,0,.44.25,5.24,5.24,0,0,0,.57.22,2.54,2.54,0,0,1,.57.29,1.57,1.57,0,0,1,.44.45,1.28,1.28,0,0,1,.18.72,1.87,1.87,0,0,1-.1.59,1.18,1.18,0,0,1-.33.47,1.47,1.47,0,0,1-.53.32,2.49,2.49,0,0,1-.76.11,3.73,3.73,0,0,1-1-.11,2.93,2.93,0,0,1-.66-.26l.24-.67a2.57,2.57,0,0,0,.59.24,2.65,2.65,0,0,0,.74.11,1.34,1.34,0,0,0,.7-.17A.63.63,0,0,0,117.27,92.28Z"/><polygon class="b" points="40.16 37.18 65.3 29.18 89.18 37.18 40.16 37.18"/><line class="b" x1="46.54" y1="43.49" x2="46.76" y2="37.58"/><line class="b" x1="45.93" y1="59.8" x2="46.36" y2="48.41"/><line class="b" x1="83.09" y1="51.34" x2="82.55" y2="37.58"/><line class="b" x1="83.39" y1="59.8" x2="83.25" y2="56.02"/><rect class="b" x="44.5" y="59.8" width="40.35" height="4.2"/><rect class="b" x="40.95" y="67.6" width="47.44" height="4.2"/><line class="b" x1="77.18" y1="59.75" x2="78.01" y2="37.3"/><line class="b" x1="51.08" y1="37.3" x2="51.92" y2="59.75"/><line class="b" x1="62.11" y1="59.8" x2="62.95" y2="37.58"/><line class="b" x1="67.27" y1="37.3" x2="68.1" y2="59.75"/></svg>