<svg xmlns="http://www.w3.org/2000/svg" viewBox="0 0 1600 828.44"><defs><style>.a,.b,.c,.d,.e{fill:none;stroke-miterlimit:10;stroke-width:2px;}.a{stroke:#1fbad6;fill-rule:evenodd;}.b,.c,.d,.e{stroke:#ffe161;}.c{stroke-dasharray:6.13 6.13;}.d{stroke-dasharray:6 6;}.e{stroke-dasharray:6 6;}.f{fill:#ffe161;}</style></defs><title>globe</title><path class="a" d="M560.87,228.5s6.92-11.86,14.83-6.92c11.88,0,40.54,3,56.36,11.86,21.75-2,22.75-4,26.71,1s19.77-9.89,20.75,0-26.7,9.89-35.59,23.73-4,22.75,3,27.69,21.76-16.82,31.65-24.73,12.85-9.88,22.73-8.89,18.79,5,23.74,18.79-8.9,22.73-13.85,24.71-10.88-7.91-16.81,5.94-11.86,9.88-28.67,20.75-26.69,5.94-36.59,22.75-19.76,16.8-23.72,28.67-2,33.61-5.94,37.56-19.77-31.62-28.66-29.66S554,388.67,553,404.49s-8.91,21.75-5.93,26.69,9.88,6.93,18.78,2,13.84-10.87,15.82,4,5.94,32.62,14.83,42.51,16.81,7.91,23.72,31.64,12.86,28.67-2,22.74-35.59-28.66-39.55-33.62-1-13.85-17.8-25.71S539.12,454.92,537.15,451s-2-17.8-3-26.69-5.94,3-7.91-14.84S511.44,361,515.4,349.12s8.89-39.55,17.79-58.33S546,261.12,544.06,254.2,550,236.41,560.87,228.5Z"/><path class="a" d="M705.23,234.43s13.85-4,21.75-6.92,13.84-4,8.9,6.92-7.91,15.81-15.82,14.82-32.63-2-27.68-6.91S702.26,243.32,705.23,234.43Z"/><path class="a" d="M771.14,706.72A96.82,96.82,0,0,1,774.71,693c4.94-13.84,25.7-6.92,36.58-31.65s14.83-30.65,13.84-44.49S805.35,603,791.51,589.14,765.8,557.5,753,551.57s-29.66-26.7-53.38-31.64-53.39-9.88-53.39,10.88,7.9,27.67-1,47.46,1,13.83,3,31.63c1.34,12,20.76,29.66,25.71,38.56s12.86,5.93,22.74,14.84c6.43,5.79,10.35,21.19,14.21,34.24"/><path class="a" d="M919.15,155.33c-4,4.46,2.61,16.8,3.6,25.71s-13.85,3-30.65,14.83-4,19.78-19.78,16.81-23.73-20.77-25.71-33.62S822.89,162.25,812,167.2s8.9,6.92,5.93,21.75-17.79,14.82-24.72,13.85-11.86-5-21.75,5.93,4,17.79,4.95,28.67-9.89,19.76-4,20.76,17.8-16.81,21.75-5S783.34,271,778.39,283.87s15.82,32.62,31.64,39.54,19.78,0,12.86,11.87S799.16,363,790.26,378.79s4,15.81,18.78,14.83,17.8-3,14.83,13.83-6.91,19.78,5,20.76,16.81,1,27.68-20.76-9.89-19.76-6.92-36.57,5.94-15.83,16.81-22.74-4.94-10.89,3-16.81,11.29-9.5,17.8-16.82c7.91-8.89,3,4.95,16.8,17.8s24.72,33.62,24.72,41.53-12.86,22.73-4.95,23.72,9.89-5.92,15.82-16.79,12.86-4,15.82-10.88c2.38-5.53-15.82-10.87-25.7-27.69s-7.91-20.76-1-37.57,20.76-8.89,29.66-6.91-3,4.93,9.89,20.76,8.9-1,17.8,3.94,0-15.81,10.87-23.72,6.92-2,19.77,1,11.87-1,7.92-13.83-6.92-6-11.87-16.81,2.73-15.46,13.61-17.43"/><path class="a" d="M1018.65,241.35s-32.62,5.92-36.58-7.91,0-15.82-8.9-23.72-18.78-32.64-18.78-32.64"/><path class="a" d="M795.83,160.16c5.19-.74,14.82-4.82,16.67-10,2.36-6.58-8.28-5.79-27.06-4.8s-19.91,17.92-30.77,8S726,158.3,721.05,167.2s18.79,2,24.72,1-5.93,11.87,9.88,10.88,33.16-1.59,22.74,6.92c-7.41,6.06-8.15,10.13-1.85,9.78,12.21-.72,15.33-1.49,22.25-7.42s6.24-10.92-.63-18.17C794,165.73,790.83,160.87,795.83,160.16Z"/><path class="a" d="M844.64,128.63c-4.94,12.87-15.69,25.1-5.81,30S852.18,171.28,856.5,184c5.3,15.58,17.8,4,28.68-2l10.87-5.92s6.92,8.88,7.91,1-5.93-12.86-19.77-23.72-23.73-16.82-21.75-19.79"/><path class="a" d="M1060.74,320.88s-10.45-12.31-11.43-3.39-7.92,7.91-19.78,0-19.78-10.88-32.63,19.76S985,372.86,986,395.58s-14.83,12.87-3,39.56,21.74,29.66,34.6,25.7,28.67-20.75,23.72,11.87-6.92,28.67-9.88,48.46-19.78,50.42-40.54,69.2S947.46,623,946.48,632.88s-2,20.77,1,23.73"/><path class="a" d="M1076,413.88c0,161.37-130.8,292.18-292.16,292.18S491.67,575.25,491.67,413.88s130.8-292.16,292.16-292.16S1076,252.52,1076,413.88Z"/><path class="b" d="M847.37,275.59s1-.41,2.8-1.06"/><path class="c" d="M856,272.67c19.2-5.58,67.3-14.48,112.33,18,56.32,40.68,68,106.29,70.33,126.38"/><path class="b" d="M1039,420.14c.17,1.93.22,3,.22,3"/><path class="b" d="M592.26,390s.93-.51,2.71-1.29"/><path class="d" d="M600.57,386.54c21.25-7.12,81.27-17.27,157,55.24,61.11,58.51,57.52,144.39,55.27,167.59"/><path class="b" d="M812.53,612.35c-.22,1.94-.39,3-.39,3"/><path class="e" d="M661.57,527.12S679.89,466.8,774.28,405c73.79-48.3,158.3-22,158.3-22"/><path class="e" d="M595.18,186.85s-37.63-3.75-57.5,30.53c-30.16,52,12.87,113.23,12.87,113.23l.48.77S585.45,209.45,695.12,189c84.23-15.7,129.32,33.21,129.32,33.21s5.81-49.7,41-38.1"/><path class="e" d="M1011.76,227.18s73.88,16.93,93.73,117.47c18.74,95-61.24,168.7-61.24,168.7"/><path class="e" d="M710.49,591.17s3.13,83.17-51.92,88.4c-39.79,3.78-57.13-31.6-57.13-31.6"/><circle class="f" cx="549.88" cy="330.11" r="4.04"/><circle class="f" cx="593.34" cy="390.1" r="4.04"/><circle class="f" cx="660.9" cy="528.57" r="4.04"/><circle class="f" cx="710.2" cy="590.05" r="4.04"/><circle class="f" cx="811.54" cy="618.05" r="4.04"/><circle class="f" cx="931.53" cy="382.8" r="4.04"/><circle class="f" cx="1038.96" cy="426.32" r="4.04"/><circle class="f" cx="1044.74" cy="512.14" r="4.04"/><circle class="f" cx="844.97" cy="277.22" r="4.04"/><circle class="f" cx="867.44" cy="184.86" r="4.04"/><circle class="f" cx="825.14" cy="224.43" r="4.04"/></svg>