<?xml version="1.0" encoding="utf-8"?>
<!-- Generator: Adobe Illustrator 23.0.3, SVG Export Plug-In . SVG Version: 6.00 Build 0)  -->
<svg version="1.1" id="Layer_1" xmlns="http://www.w3.org/2000/svg" xmlns:xlink="http://www.w3.org/1999/xlink" x="0px" y="0px"
	 viewBox="0 0 130 130" style="enable-background:new 0 0 130 130;" xml:space="preserve">
<style type="text/css">
	.st0{fill:#FFFFFF;}
	.st1{fill:none;stroke:#1EB9D5;stroke-width:1.5;}
	.st2{fill:none;stroke:#FFE161;stroke-width:1.5;stroke-miterlimit:10;}
</style>
<g>
	<path class="st0" d="M22.4,87.1l0.1-1.5h-0.1L21.9,87l-2.5,4.4H19L16.3,87l-0.5-1.3h-0.1l0.2,1.5v6.6h-1.1v-9.8h0.9l3.1,5l0.5,1.1
		h0l0.4-1.1l2.9-5h0.9v9.8h-1.2V87.1z"/>
	<path class="st0" d="M25.4,90.2c0-1.2,0.3-2.1,0.8-2.7s1.3-0.9,2.3-0.9c0.5,0,1,0.1,1.4,0.3c0.4,0.2,0.7,0.4,1,0.7s0.4,0.7,0.6,1.2
		c0.1,0.5,0.2,1,0.2,1.5c0,1.2-0.3,2.1-0.8,2.7s-1.3,0.9-2.3,0.9c-0.5,0-1-0.1-1.4-0.3c-0.4-0.2-0.7-0.4-1-0.7
		c-0.3-0.3-0.4-0.7-0.6-1.2C25.5,91.3,25.4,90.8,25.4,90.2z M26.6,90.2c0,0.4,0,0.7,0.1,1c0.1,0.3,0.2,0.6,0.3,0.9
		c0.1,0.2,0.3,0.4,0.6,0.6c0.2,0.1,0.5,0.2,0.9,0.2c1.3,0,1.9-0.9,1.9-2.7c0-0.4,0-0.7-0.1-1c-0.1-0.3-0.2-0.6-0.3-0.9
		c-0.1-0.2-0.3-0.4-0.6-0.6s-0.5-0.2-0.9-0.2C27.2,87.5,26.6,88.4,26.6,90.2z"/>
	<path class="st0" d="M33.3,83.9h1.1v3.5h0.1c0.2-0.3,0.5-0.5,0.8-0.6c0.3-0.1,0.7-0.2,1.1-0.2c0.9,0,1.6,0.3,2,0.9s0.7,1.5,0.7,2.7
		c0,1.2-0.3,2.2-0.9,2.8c-0.6,0.6-1.4,1-2.5,1c-0.5,0-1-0.1-1.4-0.2c-0.4-0.1-0.7-0.2-1-0.4V83.9z M36.2,87.5
		c-0.5,0-0.8,0.1-1.1,0.4c-0.3,0.3-0.5,0.6-0.6,1.1v3.5c0.2,0.1,0.4,0.2,0.6,0.2c0.3,0.1,0.5,0.1,0.8,0.1c0.6,0,1.1-0.2,1.5-0.7
		c0.4-0.4,0.6-1.1,0.6-2.1c0-0.4,0-0.7-0.1-1c-0.1-0.3-0.2-0.6-0.3-0.8c-0.1-0.2-0.3-0.4-0.5-0.5C36.8,87.6,36.5,87.5,36.2,87.5z"/>
	<path class="st0" d="M40.9,84.6c0-0.2,0.1-0.4,0.2-0.6c0.1-0.2,0.3-0.2,0.6-0.2c0.2,0,0.4,0.1,0.6,0.2c0.2,0.2,0.2,0.3,0.2,0.6
		s-0.1,0.4-0.2,0.5c-0.2,0.1-0.4,0.2-0.6,0.2c-0.2,0-0.4-0.1-0.6-0.2C41,85,40.9,84.8,40.9,84.6z M41.1,86.7h1.1v7h-1.1V86.7z"/>
	<path class="st0" d="M45.9,92c0,0.3,0.1,0.6,0.2,0.7c0.1,0.1,0.3,0.2,0.5,0.2c0.1,0,0.3,0,0.4,0c0.1,0,0.3-0.1,0.5-0.1l0.1,0.9
		c-0.1,0.1-0.4,0.1-0.6,0.2c-0.3,0-0.5,0.1-0.7,0.1c-0.4,0-0.8-0.1-1-0.4c-0.3-0.2-0.4-0.6-0.4-1.2v-8.4h1.1V92z"/>
	<path class="st0" d="M53.8,93.1c-0.3,0.2-0.6,0.4-1.1,0.5c-0.4,0.1-0.9,0.2-1.4,0.2c-0.5,0-1-0.1-1.4-0.3s-0.7-0.4-1-0.7
		c-0.3-0.3-0.4-0.7-0.6-1.2c-0.1-0.4-0.2-1-0.2-1.5c0-1.2,0.3-2.1,0.8-2.7c0.5-0.6,1.3-0.9,2.3-0.9c0.3,0,0.6,0,1,0.1
		c0.3,0.1,0.6,0.2,0.9,0.4c0.3,0.2,0.5,0.5,0.6,0.8s0.2,0.8,0.2,1.4c0,0.3,0,0.6-0.1,1h-4.5c0,0.4,0,0.8,0.1,1.1s0.2,0.6,0.4,0.8
		c0.2,0.2,0.4,0.4,0.7,0.5c0.3,0.1,0.6,0.2,1,0.2c0.3,0,0.6-0.1,1-0.2c0.3-0.1,0.6-0.2,0.7-0.4L53.8,93.1z M51.4,87.5
		c-0.6,0-1,0.1-1.3,0.4c-0.3,0.3-0.5,0.8-0.6,1.5H53c0-0.7-0.1-1.2-0.4-1.5C52.3,87.7,51.9,87.5,51.4,87.5z"/>
	<path class="st0" d="M59.3,88.8c0-1.6,0.3-2.9,1-3.8c0.7-0.9,1.7-1.3,3-1.3c0.7,0,1.3,0.1,1.8,0.4c0.5,0.2,0.9,0.6,1.3,1
		c0.3,0.4,0.6,1,0.7,1.6c0.2,0.6,0.2,1.3,0.2,2.1c0,1.6-0.3,2.9-1,3.8c-0.7,0.9-1.7,1.3-3,1.3c-0.7,0-1.3-0.1-1.8-0.4
		c-0.5-0.2-0.9-0.6-1.2-1c-0.3-0.4-0.6-1-0.7-1.6C59.4,90.3,59.3,89.6,59.3,88.8z M60.5,88.8c0,0.5,0.1,1.1,0.2,1.5
		c0.1,0.5,0.3,0.9,0.5,1.3c0.2,0.4,0.5,0.7,0.9,0.9c0.3,0.2,0.8,0.3,1.2,0.3c0.9,0,1.5-0.3,2-1c0.5-0.7,0.7-1.7,0.7-3
		c0-0.5-0.1-1-0.2-1.5c-0.1-0.5-0.3-0.9-0.5-1.3c-0.2-0.4-0.5-0.7-0.9-0.9c-0.4-0.2-0.8-0.3-1.3-0.3c-0.9,0-1.5,0.3-2,1
		C60.8,86.4,60.5,87.4,60.5,88.8z"/>
	<path class="st0" d="M69.2,86.7h0.8l0.2,0.8h0.1c0.2-0.3,0.5-0.6,0.8-0.7s0.7-0.3,1.2-0.3c0.9,0,1.6,0.3,2.1,0.8s0.7,1.5,0.7,2.7
		c0,0.6-0.1,1.1-0.2,1.6c-0.2,0.5-0.4,0.9-0.7,1.2c-0.3,0.3-0.6,0.6-1,0.8c-0.4,0.2-0.8,0.3-1.3,0.3c-0.3,0-0.6,0-0.8-0.1
		c-0.2,0-0.4-0.1-0.7-0.2v2.9h-1.1V86.7z M72,87.5c-0.5,0-0.9,0.1-1.1,0.4c-0.3,0.2-0.5,0.6-0.6,1.1v3.5c0.2,0.1,0.4,0.2,0.6,0.3
		s0.5,0.1,0.9,0.1c0.6,0,1.2-0.2,1.5-0.7c0.4-0.5,0.6-1.2,0.6-2.1c0-0.4,0-0.7-0.1-1c-0.1-0.3-0.2-0.6-0.3-0.8
		c-0.1-0.2-0.3-0.4-0.6-0.5S72.3,87.5,72,87.5z"/>
	<path class="st0" d="M81.8,93.1c-0.3,0.2-0.6,0.4-1.1,0.5c-0.4,0.1-0.9,0.2-1.4,0.2c-0.5,0-1-0.1-1.4-0.3c-0.4-0.2-0.7-0.4-1-0.7
		s-0.4-0.7-0.6-1.2c-0.1-0.4-0.2-1-0.2-1.5c0-1.2,0.3-2.1,0.8-2.7c0.5-0.6,1.3-0.9,2.3-0.9c0.3,0,0.6,0,1,0.1
		c0.3,0.1,0.6,0.2,0.9,0.4c0.3,0.2,0.5,0.5,0.6,0.8c0.2,0.4,0.2,0.8,0.2,1.4c0,0.3,0,0.6-0.1,1h-4.5c0,0.4,0,0.8,0.1,1.1
		s0.2,0.6,0.4,0.8c0.2,0.2,0.4,0.4,0.7,0.5c0.3,0.1,0.6,0.2,1,0.2c0.3,0,0.6-0.1,1-0.2c0.3-0.1,0.6-0.2,0.7-0.4L81.8,93.1z
		 M79.4,87.5c-0.6,0-1,0.1-1.3,0.4c-0.3,0.3-0.5,0.8-0.6,1.5H81c0-0.7-0.1-1.2-0.4-1.5C80.3,87.7,79.9,87.5,79.4,87.5z"/>
	<path class="st0" d="M87.1,87.8c-0.3-0.1-0.5-0.1-0.8-0.1c-0.4,0-0.7,0.1-1,0.3c-0.2,0.2-0.4,0.5-0.4,0.8v4.9h-1.1v-7h0.8l0.2,0.9
		h0.1c0.2-0.3,0.4-0.6,0.6-0.7c0.2-0.2,0.6-0.3,0.9-0.3c0.3,0,0.6,0,0.9,0.1L87.1,87.8z"/>
	<path class="st0" d="M88.5,87.2c0.4-0.2,0.8-0.4,1.2-0.5s1-0.2,1.5-0.2c0.5,0,0.9,0.1,1.2,0.2s0.5,0.3,0.7,0.5
		c0.2,0.2,0.3,0.4,0.3,0.7c0.1,0.3,0.1,0.5,0.1,0.8c0,0.6,0,1.1,0,1.6c0,0.5,0,1,0,1.5c0,0.3,0,0.7,0,1c0,0.3,0.1,0.6,0.2,0.9h-0.8
		l-0.3-1h-0.1c-0.1,0.1-0.2,0.3-0.3,0.4s-0.3,0.2-0.5,0.3c-0.2,0.1-0.4,0.2-0.6,0.2c-0.2,0.1-0.5,0.1-0.8,0.1s-0.6,0-0.8-0.1
		c-0.3-0.1-0.5-0.2-0.7-0.4s-0.3-0.4-0.4-0.6c-0.1-0.2-0.2-0.5-0.2-0.8c0-0.4,0.1-0.8,0.3-1s0.4-0.5,0.7-0.7
		c0.3-0.2,0.7-0.3,1.1-0.3c0.4-0.1,0.9-0.1,1.4-0.1c0.1,0,0.3,0,0.4,0s0.3,0,0.4,0c0-0.3,0-0.5,0-0.8c0-0.5-0.1-0.9-0.3-1.1
		c-0.2-0.2-0.6-0.3-1.1-0.3c-0.2,0-0.3,0-0.5,0c-0.2,0-0.4,0.1-0.6,0.1s-0.4,0.1-0.5,0.2c-0.2,0.1-0.3,0.1-0.5,0.2L88.5,87.2z
		 M90.5,92.8c0.3,0,0.5,0,0.7-0.1c0.2-0.1,0.4-0.2,0.5-0.3c0.1-0.1,0.3-0.2,0.4-0.4c0.1-0.1,0.2-0.3,0.2-0.4v-1.2
		c-0.1,0-0.3,0-0.4,0c-0.1,0-0.3,0-0.4,0c-0.3,0-0.6,0-0.8,0c-0.3,0-0.5,0.1-0.7,0.2s-0.4,0.2-0.5,0.4c-0.1,0.2-0.2,0.3-0.2,0.6
		c0,0.3,0.1,0.6,0.4,0.8C89.8,92.7,90.1,92.8,90.5,92.8z"/>
	<path class="st0" d="M94.6,86.7h1.1v-1.4l1.1-0.3v1.7h1.9v1h-1.9v3.9c0,0.5,0.1,0.8,0.2,1c0.1,0.2,0.3,0.3,0.6,0.3
		c0.2,0,0.4,0,0.6-0.1c0.2-0.1,0.4-0.1,0.6-0.2l0.3,0.9c-0.3,0.1-0.5,0.2-0.8,0.3c-0.3,0.1-0.6,0.1-1,0.1c-0.6,0-1-0.2-1.2-0.5
		c-0.2-0.3-0.3-0.9-0.3-1.6v-4.1h-1.1V86.7z"/>
	<path class="st0" d="M99.7,90.2c0-1.2,0.3-2.1,0.8-2.7c0.5-0.6,1.3-0.9,2.3-0.9c0.5,0,1,0.1,1.4,0.3c0.4,0.2,0.7,0.4,1,0.7
		s0.4,0.7,0.6,1.2s0.2,1,0.2,1.5c0,1.2-0.3,2.1-0.8,2.7c-0.5,0.6-1.3,0.9-2.3,0.9c-0.5,0-1-0.1-1.4-0.3c-0.4-0.2-0.7-0.4-1-0.7
		s-0.4-0.7-0.6-1.2C99.8,91.3,99.7,90.8,99.7,90.2z M100.9,90.2c0,0.4,0,0.7,0.1,1c0.1,0.3,0.2,0.6,0.3,0.9c0.1,0.2,0.3,0.4,0.6,0.6
		c0.2,0.1,0.5,0.2,0.9,0.2c1.3,0,1.9-0.9,1.9-2.7c0-0.4,0-0.7-0.1-1c-0.1-0.3-0.2-0.6-0.3-0.9c-0.1-0.2-0.3-0.4-0.6-0.6
		c-0.2-0.1-0.5-0.2-0.9-0.2C101.5,87.5,100.9,88.4,100.9,90.2z"/>
	<path class="st0" d="M110.9,87.8c-0.3-0.1-0.5-0.1-0.8-0.1c-0.4,0-0.7,0.1-1,0.3c-0.2,0.2-0.4,0.5-0.4,0.8v4.9h-1.1v-7h0.8l0.2,0.9
		h0.1c0.2-0.3,0.4-0.6,0.6-0.7s0.6-0.3,0.9-0.3c0.3,0,0.6,0,0.9,0.1L110.9,87.8z"/>
	<path class="st0" d="M115.5,91.8c0-0.3-0.1-0.5-0.3-0.7c-0.2-0.2-0.4-0.3-0.6-0.4c-0.2-0.1-0.5-0.2-0.8-0.3
		c-0.3-0.1-0.6-0.2-0.8-0.4c-0.2-0.2-0.5-0.4-0.6-0.6c-0.2-0.2-0.3-0.6-0.3-1c0-0.7,0.2-1.2,0.6-1.5c0.4-0.3,0.9-0.5,1.6-0.5
		c0.5,0,0.9,0,1.3,0.1s0.6,0.2,0.9,0.3l-0.3,0.9c-0.2-0.1-0.5-0.2-0.8-0.3c-0.3-0.1-0.6-0.1-1-0.1c-0.4,0-0.7,0.1-0.9,0.2
		c-0.2,0.1-0.3,0.4-0.3,0.7c0,0.2,0.1,0.4,0.3,0.6c0.2,0.1,0.4,0.3,0.6,0.4c0.2,0.1,0.5,0.2,0.8,0.3s0.6,0.2,0.8,0.4
		c0.2,0.2,0.5,0.4,0.6,0.6s0.3,0.6,0.3,1c0,0.3,0,0.6-0.1,0.8c-0.1,0.3-0.2,0.5-0.5,0.7s-0.5,0.3-0.8,0.4c-0.3,0.1-0.7,0.2-1.1,0.2
		c-0.5,0-1-0.1-1.4-0.2c-0.4-0.1-0.7-0.2-0.9-0.4l0.3-1c0.2,0.1,0.5,0.2,0.8,0.3c0.3,0.1,0.7,0.2,1.1,0.2c0.4,0,0.7-0.1,1-0.2
		C115.4,92.5,115.5,92.2,115.5,91.8z"/>
	<path class="st0" d="M59.3,100.8c0.4-0.1,0.7-0.1,1.1-0.2s0.8,0,1.2,0c0.4,0,0.9,0,1.3,0.1c0.4,0.1,0.8,0.2,1.2,0.5
		c0.4,0.2,0.7,0.5,0.9,0.9c0.2,0.4,0.3,0.9,0.3,1.5c0,0.6-0.1,1.1-0.3,1.5c-0.2,0.4-0.5,0.7-0.9,1c-0.4,0.3-0.8,0.4-1.2,0.6
		c-0.5,0.1-0.9,0.2-1.4,0.2c0,0-0.1,0-0.2,0c-0.1,0-0.2,0-0.3,0s-0.2,0-0.3,0c-0.1,0-0.2,0-0.2,0v3.7h-1.2V100.8z M61.7,101.6
		c-0.2,0-0.5,0-0.7,0c-0.2,0-0.4,0-0.5,0.1v4.1c0,0,0.1,0,0.2,0c0.1,0,0.2,0,0.3,0s0.2,0,0.3,0c0.1,0,0.2,0,0.2,0
		c0.3,0,0.6,0,0.9-0.1c0.3-0.1,0.6-0.2,0.8-0.3c0.3-0.2,0.5-0.4,0.6-0.7c0.2-0.3,0.2-0.7,0.2-1.1c0-0.4-0.1-0.7-0.2-1
		c-0.1-0.3-0.3-0.5-0.6-0.6c-0.2-0.2-0.5-0.3-0.8-0.3S62,101.6,61.7,101.6z"/>
	<path class="st0" d="M72.2,102.9c0,0.5-0.1,1-0.3,1.5c-0.2,0.5-0.4,1-0.7,1.6c-0.3,0.5-0.6,1-1,1.5s-0.7,1-1.1,1.4l-0.7,0.6v0.1
		l0.9-0.2h3.1v1h-5.6v-0.4c0.2-0.2,0.5-0.5,0.7-0.8c0.3-0.3,0.6-0.7,0.9-1.1c0.3-0.4,0.6-0.8,0.9-1.2c0.3-0.4,0.6-0.9,0.8-1.3
		c0.2-0.4,0.4-0.9,0.6-1.3c0.1-0.4,0.2-0.9,0.2-1.2c0-0.5-0.1-0.8-0.4-1.1c-0.3-0.3-0.7-0.5-1.2-0.5c-0.4,0-0.7,0.1-1,0.2
		c-0.3,0.1-0.6,0.3-0.9,0.5l-0.5-0.8c0.3-0.3,0.7-0.5,1.2-0.7c0.4-0.2,0.9-0.2,1.4-0.2c0.4,0,0.8,0.1,1.1,0.2
		c0.3,0.1,0.6,0.3,0.8,0.5s0.4,0.5,0.5,0.8C72.1,102.3,72.2,102.6,72.2,102.9z"/>
	<path class="st0" d="M74.7,100.8c0.4-0.1,0.7-0.1,1.1-0.2c0.4,0,0.8,0,1.2,0c0.4,0,0.9,0,1.3,0.1s0.8,0.2,1.2,0.5
		c0.4,0.2,0.7,0.5,0.9,0.9c0.2,0.4,0.3,0.9,0.3,1.5c0,0.6-0.1,1.1-0.3,1.5c-0.2,0.4-0.5,0.7-0.9,1c-0.4,0.3-0.8,0.4-1.2,0.6
		s-0.9,0.2-1.4,0.2c0,0-0.1,0-0.2,0c-0.1,0-0.2,0-0.3,0c-0.1,0-0.2,0-0.3,0c-0.1,0-0.2,0-0.2,0v3.7h-1.2V100.8z M77.1,101.6
		c-0.2,0-0.5,0-0.7,0c-0.2,0-0.4,0-0.5,0.1v4.1c0,0,0.1,0,0.2,0s0.2,0,0.3,0c0.1,0,0.2,0,0.3,0c0.1,0,0.2,0,0.2,0
		c0.3,0,0.6,0,0.9-0.1c0.3-0.1,0.6-0.2,0.8-0.3c0.3-0.2,0.5-0.4,0.6-0.7c0.2-0.3,0.2-0.7,0.2-1.1c0-0.4-0.1-0.7-0.2-1
		c-0.1-0.3-0.3-0.5-0.6-0.6c-0.2-0.2-0.5-0.3-0.8-0.3S77.4,101.6,77.1,101.6z"/>
</g>
<title>globe9</title>
<path class="st1" d="M83.4,73.6v2.8c0,1-0.8,1.8-1.8,1.8H64.2c-1,0-1.8-0.8-1.8-1.8V42.8c0-1,0.8-1.8,1.8-1.8h17.4
	c1,0,1.8,0.8,1.8,1.8l0,0v25.7"/>
<path class="st1" d="M65.8,63v9.3c-0.1,0.8,0.5,1.6,1.4,1.6h0.1h11.2c0.8,0,1.5-0.7,1.5-1.5c0,0,0,0,0-0.1V46.8
	c0-0.8-0.6-1.5-1.5-1.6l0,0h-3L75,46.5h-4.3l-0.4-1.3h-3c-0.8,0-1.5,0.7-1.5,1.6l0,0v12.7"/>
<path class="st2" d="M54.1,40.3c0.5-1.6,1.4-3,2.6-4.2c1.2-1.2,2.7-2.1,4.3-2.6"/>
<path class="st2" d="M58.2,23.4c-3.4,1.1-6.5,3-9,5.6c-2.5,2.4-4.3,5.3-5.4,8.6"/>
<path class="st2" d="M49.5,39.1c0.8-2.3,2.1-4.4,3.9-6.1c1.8-1.8,3.9-3.2,6.3-4"/>
</svg>
