<?xml version="1.0" encoding="utf-8"?>
<!-- Generator: Adobe Illustrator 23.0.3, SVG Export Plug-In . SVG Version: 6.00 Build 0)  -->
<svg version="1.1" id="Layer_1" xmlns="http://www.w3.org/2000/svg" xmlns:xlink="http://www.w3.org/1999/xlink" x="0px" y="0px"
	 viewBox="0 0 130 130" style="enable-background:new 0 0 130 130;" xml:space="preserve">
<style type="text/css">
	.st0{fill:#FFFFFF;}
	.st1{fill:none;stroke:#1EB9D5;stroke-width:1.5;}
	.st2{fill:none;stroke:#FFE161;stroke-width:1.5;stroke-miterlimit:10;}
</style>
<g>
	<path class="st0" d="M26.4,83.9c-0.3-0.3-0.8-0.7-1.3-0.9c-0.5-0.2-1.1-0.4-1.7-0.4c-2.3,0-4,1.9-4,4.2c0,2.7,2.2,4.1,4,4.1
		c0.7,0,1.3-0.2,1.9-0.5c0.6-0.3,1-0.7,1.2-0.8v1.4c-1.1,0.8-2.3,1-3,1c-3,0-5.2-2.2-5.2-5.1c0-3,2.2-5.2,5.2-5.2c0.6,0,1.8,0.1,3,1
		V83.9z"/>
	<path class="st0" d="M27.8,88.6c0-1.9,1.4-3.3,3.3-3.3c1.9,0,3.3,1.4,3.3,3.3c0,1.9-1.4,3.3-3.3,3.3C29.2,91.8,27.8,90.5,27.8,88.6
		z M28.9,88.6c0,1.5,1.1,2.3,2.2,2.3c1.1,0,2.2-0.8,2.2-2.3c0-1.5-1-2.3-2.2-2.3C29.9,86.2,28.9,87,28.9,88.6z"/>
	<path class="st0" d="M36,85.4h1.1v0.7c0.3-0.5,0.9-0.8,1.5-0.8c1.1,0,1.6,0.8,1.7,1c0.6-0.9,1.5-1,1.9-1c1.8,0,2,1.5,2,2.4v3.9
		h-1.1v-3.8c0-0.7-0.1-1.6-1.1-1.6c-1.2,0-1.4,1.2-1.4,1.9v3.5h-1.1V88c0-0.4,0-1.7-1.1-1.7c-1.2,0-1.4,1.3-1.4,2v3.4H36V85.4z"/>
	<path class="st0" d="M46.3,85.4h1.1v0.7c0.3-0.5,0.9-0.8,1.5-0.8c1.1,0,1.6,0.8,1.7,1c0.6-0.9,1.5-1,1.9-1c1.8,0,2,1.5,2,2.4v3.9
		h-1.1v-3.8c0-0.7-0.1-1.6-1.1-1.6c-1.2,0-1.4,1.2-1.4,1.9v3.5h-1.1V88c0-0.4,0-1.7-1.1-1.7c-1.2,0-1.4,1.3-1.4,2v3.4h-1.1V85.4z"/>
	<path class="st0" d="M57.7,89.1c0,0.4,0,0.9,0.3,1.3c0.2,0.2,0.5,0.5,1.1,0.5c0.6,0,0.9-0.3,1.1-0.5c0.3-0.4,0.3-0.9,0.3-1.3v-3.6
		h1.1v3.8c0,0.8-0.1,1.3-0.6,1.9c-0.6,0.6-1.3,0.8-1.9,0.8c-0.6,0-1.3-0.2-1.9-0.8c-0.5-0.5-0.6-1.1-0.6-1.9v-3.8h1.1V89.1z"/>
	<path class="st0" d="M63.6,85.4h1.1v0.7c0.2-0.3,0.8-0.9,1.8-0.9c0.7,0,1.4,0.3,1.8,0.9c0.3,0.5,0.4,1,0.4,1.7v3.9h-1.1v-3.8
		c0-0.4,0-0.8-0.3-1.1c-0.2-0.3-0.5-0.4-1-0.4c-0.4,0-0.8,0.1-1.1,0.5c-0.4,0.5-0.4,1.2-0.4,1.7v3.3h-1.1V85.4z"/>
	<path class="st0" d="M71.2,82.3c0.4,0,0.8,0.3,0.8,0.8s-0.3,0.8-0.8,0.8s-0.8-0.3-0.8-0.8S70.7,82.3,71.2,82.3z M71.7,85.4v6.2
		h-1.1v-6.2H71.7z"/>
	<path class="st0" d="M78.6,87.2c-0.6-0.7-1.4-0.9-1.9-0.9c-1.2,0-2.2,0.8-2.2,2.3c0,1.5,1.1,2.3,2.2,2.3c0.6,0,1.4-0.3,2-1v1.3
		c-0.7,0.5-1.4,0.6-2,0.6c-1.9,0-3.3-1.4-3.3-3.3c0-1.9,1.4-3.3,3.3-3.3c1,0,1.6,0.4,1.9,0.6V87.2z"/>
	<path class="st0" d="M85.1,85.4h1.1v6.2h-1.1v-0.9c-0.4,0.5-1,1.1-2.1,1.1c-1.6,0-3-1.1-3-3.3c0-2.1,1.4-3.3,3-3.3
		c1.2,0,1.8,0.7,2.1,1V85.4z M81,88.5c0,1.3,0.8,2.3,2,2.3c1.3,0,2.1-1.1,2.1-2.3c0-1.6-1.1-2.3-2.1-2.3C82,86.2,81,87,81,88.5z"/>
	<path class="st0" d="M89.3,86.4v5.2h-1.1v-5.2h-0.7v-1h0.7v-2.2h1.1v2.2h1.1v1H89.3z"/>
	<path class="st0" d="M92,82.3c0.4,0,0.8,0.3,0.8,0.8s-0.3,0.8-0.8,0.8s-0.8-0.3-0.8-0.8S91.5,82.3,92,82.3z M92.5,85.4v6.2h-1.1
		v-6.2H92.5z"/>
	<path class="st0" d="M94.1,88.6c0-1.9,1.4-3.3,3.3-3.3c1.9,0,3.3,1.4,3.3,3.3c0,1.9-1.4,3.3-3.3,3.3C95.6,91.8,94.1,90.5,94.1,88.6
		z M95.3,88.6c0,1.5,1.1,2.3,2.2,2.3c1.1,0,2.2-0.8,2.2-2.3c0-1.5-1-2.3-2.2-2.3C96.3,86.2,95.3,87,95.3,88.6z"/>
	<path class="st0" d="M102.4,85.4h1.1v0.7c0.2-0.3,0.8-0.9,1.8-0.9c0.7,0,1.4,0.3,1.8,0.9c0.3,0.5,0.4,1,0.4,1.7v3.9h-1.1v-3.8
		c0-0.4,0-0.8-0.3-1.1c-0.2-0.3-0.5-0.4-1-0.4c-0.4,0-0.8,0.1-1.1,0.5c-0.4,0.5-0.5,1.2-0.5,1.7v3.3h-1.1V85.4z"/>
	<path class="st0" d="M54.6,106.8h-4.3l-1.2,2.8h-1.2l4.6-10.5l4.5,10.5h-1.2L54.6,106.8z M54.1,105.8l-1.7-4l-1.7,4H54.1z"/>
	<path class="st0" d="M59.2,113.1h-1.1v-9.7h1.1v0.9c0.7-0.9,1.7-1,2.1-1c1.9,0,3,1.6,3,3.3c0,1.7-1.1,3.3-3,3.3
		c-1,0-1.7-0.5-2.2-1.1V113.1z M63.2,106.6c0-1.5-1-2.3-2-2.3s-2.1,0.8-2.1,2.3c0,1.3,0.8,2.3,2.1,2.3
		C62.5,108.9,63.2,107.8,63.2,106.6z"/>
	<path class="st0" d="M67.1,113.1H66v-9.7h1.1v0.9c0.7-0.9,1.7-1,2.1-1c2,0,3,1.6,3,3.3c0,1.7-1.1,3.3-3,3.3c-1,0-1.7-0.5-2.2-1.1
		V113.1z M71.1,106.6c0-1.5-1-2.3-2-2.3s-2.1,0.8-2.1,2.3c0,1.3,0.8,2.3,2.1,2.3C70.4,108.9,71.1,107.8,71.1,106.6z"/>
	<path class="st0" d="M76.4,104.9c-0.2-0.4-0.5-0.6-0.9-0.6c-0.4,0-0.8,0.2-0.8,0.7c0,0.5,0.3,0.6,1,0.9c0.9,0.4,1.3,0.7,1.6,1
		c0.3,0.3,0.3,0.7,0.3,1c0,1.3-0.9,2-2.1,2c-0.3,0-1.7,0-2.2-1.6l0.9-0.4c0.1,0.3,0.5,1,1.3,1c0.7,0,1-0.5,1-1c0-0.6-0.4-0.8-1-1
		c-0.8-0.3-1.2-0.6-1.5-0.9c-0.2-0.3-0.3-0.6-0.3-0.9c0-1.1,0.8-1.7,1.8-1.7c0.3,0,1.2,0.1,1.7,1.1L76.4,104.9z"/>
</g>
<title>globe3</title>
<path class="st1" d="M67.8,44.8c0,1.4-1.1,2.5-2.4,2.5c-1.4,0-2.5-1.1-2.5-2.4c0-1.4,1.1-2.5,2.4-2.5l0,0
	C66.7,42.3,67.8,43.4,67.8,44.8z"/>
<path class="st2" d="M72.1,35.9c-2.1-1.1-4.4-1.6-6.7-1.6c-2.3-0.1-4.6,0.5-6.6,1.6"/>
<path class="st2" d="M75.3,30.3c-3.1-1.5-6.6-2.3-10.1-2.2c-3.4-0.1-6.7,0.6-9.8,2.1"/>
<path class="st2" d="M58.7,35.9c2-1.1,4.3-1.6,6.6-1.6c2.3-0.1,4.7,0.5,6.7,1.6"/>
<path class="st2" d="M68.4,20.2c-1.1-0.1-2.2-0.1-3.4-0.1c-4.7-0.1-9.4,0.9-13.7,3.1"/>
<path class="st2" d="M79.3,23.4c-1.5-0.8-3.2-1.5-4.8-2"/>
<path class="st2" d="M55.4,30.2c3-1.5,6.4-2.2,9.8-2.1c3.5-0.1,7,0.7,10.1,2.2"/>
<polyline class="st1" points="57.1,75.2 65.2,49.2 72.5,75.2 "/>
<line class="st1" x1="58.5" y1="72" x2="69.3" y2="66.2"/>
<line class="st1" x1="71.5" y1="71.8" x2="60.7" y2="66.3"/>
<line class="st1" x1="61.3" y1="62.4" x2="68.8" y2="62.3"/>
</svg>
