<?xml version="1.0" encoding="utf-8"?>
<!-- Generator: Adobe Illustrator 23.0.3, SVG Export Plug-In . SVG Version: 6.00 Build 0)  -->
<svg version="1.1" id="Layer_1" xmlns="http://www.w3.org/2000/svg" xmlns:xlink="http://www.w3.org/1999/xlink" x="0px" y="0px"
	 viewBox="0 0 130 130" style="enable-background:new 0 0 130 130;" xml:space="preserve">
<style type="text/css">
	.st0{fill:#FFFFFF;}
	.st1{fill:none;stroke:#1EB9D5;stroke-width:1.5;}
	.st2{fill:#FFE161;}
</style>
<g>
	<path class="st0" d="M41,87h5.3v1h-4.2v3.3h3.9v1h-3.9v4.4H41V87z"/>
	<path class="st0" d="M48.2,87.7c0-0.2,0.1-0.4,0.2-0.6c0.1-0.2,0.3-0.2,0.6-0.2c0.2,0,0.4,0.1,0.6,0.2c0.2,0.2,0.2,0.3,0.2,0.6
		s-0.1,0.4-0.2,0.5c-0.2,0.1-0.4,0.2-0.6,0.2c-0.2,0-0.4-0.1-0.6-0.2C48.2,88,48.2,87.9,48.2,87.7z M48.4,89.8h1.1v7h-1.1V89.8z"/>
	<path class="st0" d="M56.4,96.8v-4c0-0.7-0.1-1.3-0.3-1.6c-0.2-0.4-0.6-0.6-1.2-0.6c-0.5,0-0.9,0.1-1.2,0.4c-0.3,0.3-0.5,0.6-0.7,1
		v4.8h-1.1v-7h0.8l0.2,0.9H53c0.2-0.3,0.5-0.5,0.9-0.7c0.4-0.2,0.8-0.3,1.4-0.3c0.4,0,0.7,0,1,0.1c0.3,0.1,0.5,0.2,0.7,0.5
		c0.2,0.2,0.3,0.5,0.4,0.9s0.1,0.9,0.1,1.4v4.2H56.4z"/>
	<path class="st0" d="M58.6,89.8h1.1v-1.4l1.1-0.3v1.7h1.9v1h-1.9v3.9c0,0.5,0.1,0.8,0.2,1c0.1,0.2,0.3,0.3,0.6,0.3
		c0.2,0,0.4,0,0.6-0.1c0.2-0.1,0.4-0.1,0.6-0.2l0.3,0.9c-0.3,0.1-0.5,0.2-0.8,0.3c-0.3,0.1-0.6,0.1-1,0.1c-0.6,0-1-0.2-1.2-0.5
		c-0.2-0.3-0.4-0.9-0.4-1.6v-4.1h-1.1V89.8z"/>
	<path class="st0" d="M69.3,96.2c-0.3,0.2-0.6,0.4-1.1,0.5c-0.4,0.1-0.9,0.2-1.4,0.2c-0.5,0-1-0.1-1.4-0.3s-0.7-0.4-1-0.7
		c-0.3-0.3-0.4-0.7-0.6-1.2c-0.1-0.4-0.2-1-0.2-1.5c0-1.2,0.3-2.1,0.8-2.7c0.5-0.6,1.3-0.9,2.3-0.9c0.3,0,0.6,0,1,0.1
		c0.3,0.1,0.6,0.2,0.9,0.4s0.5,0.5,0.6,0.8c0.2,0.4,0.2,0.8,0.2,1.4c0,0.3,0,0.6-0.1,1h-4.5c0,0.4,0,0.8,0.1,1.1s0.2,0.6,0.4,0.8
		c0.2,0.2,0.4,0.4,0.7,0.5c0.3,0.1,0.6,0.2,1,0.2c0.3,0,0.6-0.1,1-0.2c0.3-0.1,0.6-0.2,0.7-0.4L69.3,96.2z M66.9,90.6
		c-0.6,0-1,0.1-1.3,0.4c-0.3,0.3-0.5,0.8-0.6,1.5h3.5c0-0.7-0.1-1.2-0.4-1.5C67.7,90.7,67.4,90.6,66.9,90.6z"/>
	<path class="st0" d="M75.9,96.3c-0.3,0.2-0.6,0.4-1,0.5S74.1,97,73.7,97c-0.5,0-1-0.1-1.4-0.3s-0.7-0.4-0.9-0.7s-0.4-0.7-0.5-1.2
		c-0.1-0.5-0.2-1-0.2-1.5c0-1.2,0.3-2.1,0.8-2.7c0.5-0.6,1.3-0.9,2.3-0.9c0.4,0,0.8,0,1.1,0.1c0.3,0.1,0.6,0.2,0.8,0.3l-0.3,1
		c-0.2-0.1-0.5-0.2-0.7-0.3c-0.3-0.1-0.5-0.1-0.8-0.1c-1.3,0-2,0.9-2,2.7c0,0.4,0,0.7,0.1,1c0.1,0.3,0.2,0.6,0.4,0.9
		c0.2,0.2,0.4,0.4,0.6,0.6s0.6,0.2,1,0.2c0.3,0,0.6-0.1,0.9-0.2c0.3-0.1,0.5-0.2,0.7-0.4L75.9,96.3z"/>
	<path class="st0" d="M81.9,96.8v-4c0-0.4,0-0.7-0.1-1s-0.1-0.5-0.2-0.7c-0.1-0.2-0.3-0.3-0.5-0.4c-0.2-0.1-0.4-0.1-0.7-0.1
		c-0.4,0-0.8,0.1-1.2,0.4c-0.4,0.3-0.6,0.7-0.7,1.1v4.7h-1.1V87h1.1v3.6h0.1c0.2-0.3,0.5-0.5,0.9-0.7s0.8-0.3,1.3-0.3
		c0.4,0,0.7,0,1,0.1c0.3,0.1,0.5,0.2,0.7,0.5c0.2,0.2,0.3,0.5,0.4,0.9S83,92,83,92.6v4.2H81.9z"/>
	<path class="st0" d="M92.3,86.8l0.9,0.4l-5.1,11.5l-0.9-0.4L92.3,86.8z"/>
	<path class="st0" d="M30.8,107l0.1-1.5h-0.1l-0.5,1.3l-2.5,4.4h-0.4l-2.7-4.4l-0.5-1.3h-0.1l0.2,1.5v6.6h-1.1v-9.8h0.9l3.1,5
		l0.5,1.1h0l0.4-1.1l2.9-5h0.9v9.8h-1.2V107z"/>
	<path class="st0" d="M33.8,110.1c0-1.2,0.3-2.1,0.8-2.7s1.3-0.9,2.3-0.9c0.5,0,1,0.1,1.4,0.3c0.4,0.2,0.7,0.4,1,0.7
		s0.4,0.7,0.6,1.2c0.1,0.5,0.2,1,0.2,1.5c0,1.2-0.3,2.1-0.8,2.7s-1.3,0.9-2.3,0.9c-0.5,0-1-0.1-1.4-0.3c-0.4-0.2-0.7-0.4-1-0.7
		c-0.3-0.3-0.4-0.7-0.6-1.2C33.9,111.1,33.8,110.6,33.8,110.1z M35,110.1c0,0.4,0,0.7,0.1,1c0.1,0.3,0.2,0.6,0.3,0.9
		c0.1,0.2,0.3,0.4,0.6,0.6c0.2,0.1,0.5,0.2,0.9,0.2c1.3,0,1.9-0.9,1.9-2.7c0-0.4,0-0.7-0.1-1c-0.1-0.3-0.2-0.6-0.3-0.9
		c-0.1-0.2-0.3-0.4-0.6-0.6s-0.5-0.2-0.9-0.2C35.6,107.4,35,108.3,35,110.1z"/>
	<path class="st0" d="M41.7,103.8h1.1v3.5h0.1c0.2-0.3,0.5-0.5,0.8-0.6c0.3-0.1,0.7-0.2,1.1-0.2c0.9,0,1.6,0.3,2,0.9
		s0.7,1.5,0.7,2.7c0,1.2-0.3,2.2-0.9,2.8c-0.6,0.6-1.4,1-2.5,1c-0.5,0-1-0.1-1.4-0.2c-0.4-0.1-0.7-0.2-1-0.4V103.8z M44.6,107.4
		c-0.5,0-0.8,0.1-1.1,0.4c-0.3,0.3-0.5,0.6-0.6,1.1v3.5c0.2,0.1,0.4,0.2,0.6,0.2c0.3,0.1,0.5,0.1,0.8,0.1c0.6,0,1.1-0.2,1.5-0.7
		c0.4-0.4,0.6-1.1,0.6-2.1c0-0.4,0-0.7-0.1-1c-0.1-0.3-0.2-0.6-0.3-0.8c-0.1-0.2-0.3-0.4-0.5-0.5C45.2,107.5,44.9,107.4,44.6,107.4z
		"/>
	<path class="st0" d="M49.3,104.5c0-0.2,0.1-0.4,0.2-0.6c0.1-0.2,0.3-0.2,0.6-0.2c0.2,0,0.4,0.1,0.6,0.2c0.2,0.2,0.2,0.3,0.2,0.6
		s-0.1,0.4-0.2,0.5c-0.2,0.1-0.4,0.2-0.6,0.2c-0.2,0-0.4-0.1-0.6-0.2C49.3,104.8,49.3,104.7,49.3,104.5z M49.5,106.6h1.1v7h-1.1
		V106.6z"/>
	<path class="st0" d="M54.3,111.9c0,0.3,0.1,0.6,0.2,0.7c0.1,0.1,0.3,0.2,0.5,0.2c0.1,0,0.3,0,0.4,0c0.1,0,0.3-0.1,0.5-0.1l0.1,0.9
		c-0.1,0.1-0.4,0.1-0.6,0.2c-0.3,0-0.5,0.1-0.7,0.1c-0.4,0-0.8-0.1-1-0.4c-0.3-0.2-0.4-0.6-0.4-1.2v-8.4h1.1V111.9z"/>
	<path class="st0" d="M62.2,113c-0.3,0.2-0.6,0.4-1.1,0.5c-0.4,0.1-0.9,0.2-1.4,0.2c-0.5,0-1-0.1-1.4-0.3s-0.7-0.4-1-0.7
		c-0.3-0.3-0.4-0.7-0.6-1.2c-0.1-0.4-0.2-1-0.2-1.5c0-1.2,0.3-2.1,0.8-2.7c0.5-0.6,1.3-0.9,2.3-0.9c0.3,0,0.6,0,1,0.1
		c0.3,0.1,0.6,0.2,0.9,0.4c0.3,0.2,0.5,0.5,0.6,0.8s0.2,0.8,0.2,1.4c0,0.3,0,0.6-0.1,1h-4.5c0,0.4,0,0.8,0.1,1.1s0.2,0.6,0.4,0.8
		c0.2,0.2,0.4,0.4,0.7,0.5c0.3,0.1,0.6,0.2,1,0.2c0.3,0,0.6-0.1,1-0.2c0.3-0.1,0.6-0.2,0.7-0.4L62.2,113z M59.8,107.4
		c-0.6,0-1,0.1-1.3,0.4c-0.3,0.3-0.5,0.8-0.6,1.5h3.5c0-0.7-0.1-1.2-0.4-1.5C60.7,107.5,60.3,107.4,59.8,107.4z"/>
	<path class="st0" d="M69.7,110.4l0.2,1.6h0l0.2-1.7l2-6.5h0.6l2,6.6L75,112h0l0.3-1.7l1.7-6.5h1.1l-2.7,10h-0.6l-2-6.6l-0.3-1.5
		h-0.1l-0.3,1.5l-2,6.6h-0.6l-2.8-10H68L69.7,110.4z"/>
	<path class="st0" d="M78.6,107.1c0.4-0.2,0.8-0.4,1.2-0.5c0.5-0.1,1-0.2,1.5-0.2c0.5,0,0.9,0.1,1.2,0.2s0.5,0.3,0.7,0.5
		c0.2,0.2,0.3,0.4,0.3,0.7c0.1,0.3,0.1,0.5,0.1,0.8c0,0.6,0,1.1,0,1.6c0,0.5,0,1,0,1.5c0,0.3,0,0.7,0,1c0,0.3,0.1,0.6,0.2,0.9h-0.8
		l-0.3-1h-0.1c-0.1,0.1-0.2,0.3-0.3,0.4s-0.3,0.2-0.5,0.3c-0.2,0.1-0.4,0.2-0.6,0.2c-0.2,0.1-0.5,0.1-0.8,0.1s-0.6,0-0.8-0.1
		c-0.3-0.1-0.5-0.2-0.7-0.4s-0.3-0.4-0.4-0.6c-0.1-0.2-0.2-0.5-0.2-0.8c0-0.4,0.1-0.8,0.3-1s0.4-0.5,0.7-0.7
		c0.3-0.2,0.7-0.3,1.1-0.3s0.9-0.1,1.4-0.1c0.1,0,0.3,0,0.4,0s0.3,0,0.4,0c0-0.3,0-0.5,0-0.8c0-0.5-0.1-0.9-0.3-1.1
		c-0.2-0.2-0.6-0.3-1.1-0.3c-0.2,0-0.3,0-0.5,0c-0.2,0-0.4,0.1-0.6,0.1s-0.4,0.1-0.5,0.2s-0.3,0.1-0.5,0.2L78.6,107.1z M80.6,112.7
		c0.3,0,0.5,0,0.7-0.1c0.2-0.1,0.4-0.2,0.5-0.3c0.1-0.1,0.3-0.2,0.4-0.4s0.2-0.3,0.2-0.4v-1.2c-0.1,0-0.3,0-0.4,0
		c-0.1,0-0.3,0-0.4,0c-0.3,0-0.6,0-0.8,0c-0.3,0-0.5,0.1-0.7,0.2s-0.4,0.2-0.5,0.4c-0.1,0.2-0.2,0.3-0.2,0.6c0,0.3,0.1,0.6,0.3,0.8
		S80.2,112.7,80.6,112.7z"/>
	<path class="st0" d="M86.9,111.9c0,0.3,0.1,0.6,0.2,0.7c0.1,0.1,0.3,0.2,0.5,0.2c0.1,0,0.3,0,0.4,0s0.3-0.1,0.5-0.1l0.1,0.9
		c-0.1,0.1-0.4,0.1-0.6,0.2c-0.3,0-0.5,0.1-0.7,0.1c-0.4,0-0.8-0.1-1-0.4c-0.3-0.2-0.4-0.6-0.4-1.2v-8.4h1.1V111.9z"/>
	<path class="st0" d="M91,111.9c0,0.3,0.1,0.6,0.2,0.7c0.1,0.1,0.3,0.2,0.5,0.2c0.1,0,0.3,0,0.4,0s0.3-0.1,0.5-0.1l0.1,0.9
		c-0.1,0.1-0.4,0.1-0.6,0.2c-0.3,0-0.5,0.1-0.7,0.1c-0.4,0-0.8-0.1-1-0.4c-0.3-0.2-0.4-0.6-0.4-1.2v-8.4H91V111.9z"/>
	<path class="st0" d="M98.9,113c-0.3,0.2-0.6,0.4-1.1,0.5c-0.4,0.1-0.9,0.2-1.4,0.2c-0.5,0-1-0.1-1.4-0.3c-0.4-0.2-0.7-0.4-1-0.7
		c-0.3-0.3-0.4-0.7-0.6-1.2c-0.1-0.4-0.2-1-0.2-1.5c0-1.2,0.3-2.1,0.8-2.7c0.5-0.6,1.3-0.9,2.3-0.9c0.3,0,0.6,0,1,0.1
		c0.3,0.1,0.6,0.2,0.9,0.4s0.5,0.5,0.6,0.8c0.2,0.4,0.2,0.8,0.2,1.4c0,0.3,0,0.6-0.1,1h-4.5c0,0.4,0,0.8,0.1,1.1s0.2,0.6,0.4,0.8
		c0.2,0.2,0.4,0.4,0.7,0.5c0.3,0.1,0.6,0.2,1,0.2c0.3,0,0.6-0.1,1-0.2c0.3-0.1,0.6-0.2,0.7-0.4L98.9,113z M96.5,107.4
		c-0.6,0-1,0.1-1.3,0.4s-0.5,0.8-0.6,1.5h3.5c0-0.7-0.1-1.2-0.4-1.5C97.4,107.5,97,107.4,96.5,107.4z"/>
	<path class="st0" d="M100,106.6h1.1v-1.4l1.1-0.3v1.7h1.9v1h-1.9v3.9c0,0.5,0.1,0.8,0.2,1c0.1,0.2,0.3,0.3,0.6,0.3
		c0.2,0,0.4,0,0.6-0.1c0.2-0.1,0.4-0.1,0.6-0.2l0.3,0.9c-0.3,0.1-0.5,0.2-0.8,0.3c-0.3,0.1-0.6,0.1-1,0.1c-0.6,0-1-0.2-1.2-0.5
		c-0.2-0.3-0.3-0.9-0.3-1.6v-4.1H100V106.6z"/>
	<path class="st0" d="M108.8,111.7c0-0.3-0.1-0.5-0.3-0.7c-0.2-0.2-0.4-0.3-0.6-0.4c-0.2-0.1-0.5-0.2-0.8-0.3
		c-0.3-0.1-0.6-0.2-0.8-0.4c-0.2-0.2-0.5-0.4-0.6-0.6c-0.2-0.2-0.3-0.6-0.3-1c0-0.7,0.2-1.2,0.6-1.5c0.4-0.3,0.9-0.5,1.6-0.5
		c0.5,0,0.9,0,1.3,0.1s0.6,0.2,0.9,0.3l-0.3,0.9c-0.2-0.1-0.5-0.2-0.8-0.3c-0.3-0.1-0.6-0.1-1-0.1c-0.4,0-0.7,0.1-0.9,0.2
		c-0.2,0.1-0.3,0.4-0.3,0.7c0,0.2,0.1,0.4,0.3,0.6c0.2,0.1,0.4,0.3,0.6,0.4c0.2,0.1,0.5,0.2,0.8,0.3s0.6,0.2,0.8,0.4
		c0.2,0.2,0.5,0.4,0.6,0.6s0.3,0.6,0.3,1c0,0.3,0,0.6-0.1,0.8c-0.1,0.3-0.2,0.5-0.5,0.7s-0.5,0.3-0.8,0.4c-0.3,0.1-0.7,0.2-1.1,0.2
		c-0.5,0-1-0.1-1.4-0.2c-0.4-0.1-0.7-0.2-0.9-0.4l0.3-1c0.2,0.1,0.5,0.2,0.8,0.3c0.3,0.1,0.7,0.2,1.1,0.2c0.4,0,0.7-0.1,1-0.2
		C108.6,112.4,108.8,112.1,108.8,111.7z"/>
</g>
<title>globe6</title>
<path class="st1" d="M79.2,72.4v3.8c0,1.4-1.1,2.5-2.5,2.5H53.1c-1.4,0-2.5-1.1-2.5-2.5V30.7c0-1.4,1.1-2.5,2.5-2.5l0,0h23.6
	c1.4,0,2.5,1.1,2.5,2.5v34.9"/>
<path class="st1" d="M54.4,58.7v14c-0.1,1.2,0.9,2.3,2.2,2.4l0,0h16.6c1.3-0.1,2.2-1.1,2.2-2.4V34.3c0.1-1.3-0.9-2.3-2.2-2.4h-4.4
	l-0.8,2h-6.4l-0.6-2h-4.4c-1.2,0.1-2.2,1.1-2.2,2.4l0,0v19.1"/>
<path class="st2" d="M66,44.5v0.9c1.3,0,3.7,0.6,3.7,1.3c0,0.3-0.5,1.2-0.8,1.2C68,47.5,67,47.2,66,47.1v5.4
	c2.1,0.8,4.5,1.6,4.5,4.8c0,2.6-1.8,4.3-4.5,4.6v1.2c0,0.3-0.1,0.4-0.5,0.4S65,63.4,65,63.1V62c-2.6-0.1-4.6-1.1-4.6-1.7
	c0-0.4,0.6-1.3,0.8-1.3c1.1,0.7,2.4,1.2,3.7,1.3v-6c-2.1-0.8-4.3-1.6-4.3-4.6c0-2.3,1.7-3.9,4.3-4.2v-1c0-0.2,0.1-0.4,0.5-0.4
	S66,44.3,66,44.5z M62.9,49.8c0,1.3,1,2,2.2,2.5v-5C63.8,47.3,62.8,48.4,62.9,49.8L62.9,49.8z M66,60.2c1.4-0.2,2.4-1.4,2.3-2.8
	c0-1.5-1-2.2-2.3-2.7V60.2z"/>
</svg>
