<?xml version="1.0" encoding="utf-8"?>
<!-- Generator: Adobe Illustrator 23.0.3, SVG Export Plug-In . SVG Version: 6.00 Build 0)  -->
<svg version="1.1" id="Layer_1" xmlns="http://www.w3.org/2000/svg" xmlns:xlink="http://www.w3.org/1999/xlink" x="0px" y="0px"
	 viewBox="0 0 130 130" style="enable-background:new 0 0 130 130;" xml:space="preserve">
<style type="text/css">
	.st0{fill:none;stroke:#1EB9D5;stroke-width:1.5;}
	.st1{fill:#FFFFFF;}
</style>
<title>globe8</title>
<polygon class="st0" points="84.4,32.9 45,32.9 47.2,28.9 82.2,28.9 "/>
<polyline class="st0" points="62.3,71.4 45,71.4 45,40.6 "/>
<polyline class="st0" points="84.4,40.6 84.4,71.4 69.3,71.4 "/>
<polyline class="st0" points="80.4,38.8 80.4,62.1 48.7,62.1 48.7,38.4 "/>
<path class="st0" d="M49.3,36.6c0,5.1-10.1,4.9-10.1-0.2l50.4,0.2c0,5.1-10.1,5.3-10.1,0.3"/>
<path class="st0" d="M59.5,37c0,5.1-10.1,4.5-10.1-0.6"/>
<path class="st0" d="M69.5,37c0,5.1-10.1,4.9-10.1-0.2"/>
<path class="st0" d="M79.6,37c0,5.1-10.1,4.9-10.1-0.2"/>
<line class="st0" x1="38.8" y1="36.3" x2="45.1" y2="32.8"/>
<line class="st0" x1="84.2" y1="32.8" x2="89.9" y2="36.5"/>
<g>
	<path class="st1" d="M31.9,89.6v3h-0.8v-7.1h2c0.9,0,1.5,0.2,1.9,0.5c0.4,0.3,0.6,0.8,0.6,1.5c0,0.9-0.5,1.6-1.4,1.9l1.9,3.2h-1
		l-1.7-3H31.9z M31.9,88.9H33c0.6,0,1-0.1,1.3-0.3c0.3-0.2,0.4-0.6,0.4-1c0-0.5-0.1-0.8-0.4-1s-0.7-0.3-1.3-0.3h-1.1V88.9z"/>
	<path class="st1" d="M41.3,92.6h-4v-7.1h4v0.7h-3.1v2.3h3v0.7h-3v2.6h3.1V92.6z"/>
	<path class="st1" d="M45,92.6h-0.8v-6.4h-2.3v-0.7h5.4v0.7H45C45,86.2,45,92.6,45,92.6z"/>
	<path class="st1" d="M52.9,92.6L52,90.3h-2.9l-0.9,2.3h-0.8l2.8-7.2h0.7l2.8,7.2H52.9z M51.7,89.6l-0.8-2.2c-0.1-0.3-0.2-0.6-0.3-1
		c-0.1,0.3-0.2,0.7-0.3,1l-0.8,2.2H51.7z"/>
	<path class="st1" d="M54.7,92.6v-7.1h0.8v7.1H54.7z"/>
	<path class="st1" d="M57.5,92.6v-7.1h0.8v6.4h3.1v0.8h-3.9V92.6z"/>
	<path class="st1" d="M69.3,90.7c0,0.6-0.2,1.1-0.7,1.5s-1.1,0.5-1.9,0.5s-1.5-0.1-2-0.3v-0.8c0.3,0.1,0.6,0.2,1,0.3s0.7,0.1,1,0.1
		c0.6,0,1-0.1,1.2-0.3c0.3-0.2,0.4-0.5,0.4-0.9c0-0.2,0-0.5-0.1-0.6c-0.1-0.2-0.3-0.3-0.5-0.4c-0.2-0.1-0.6-0.3-1.1-0.5
		c-0.7-0.2-1.1-0.5-1.4-0.8s-0.4-0.8-0.4-1.3s0.2-1,0.6-1.3c0.4-0.3,1-0.5,1.6-0.5c0.7,0,1.4,0.1,2,0.4l-0.3,0.7
		c-0.6-0.2-1.2-0.4-1.7-0.4c-0.4,0-0.8,0.1-1,0.3c-0.2,0.2-0.4,0.5-0.4,0.8c0,0.2,0,0.5,0.1,0.6c0.1,0.2,0.2,0.3,0.5,0.4
		c0.2,0.1,0.5,0.3,1,0.4c0.7,0.3,1.3,0.6,1.5,0.9C68.9,89.8,69.3,90.2,69.3,90.7z"/>
	<path class="st1" d="M76.2,92.6h-0.8v-3.4h-3.8v3.4h-0.8v-7.1h0.8v3h3.8v-3h0.8V92.6z"/>
	<path class="st1" d="M84.3,89c0,1.1-0.3,2-0.9,2.7c-0.6,0.7-1.4,1-2.4,1c-1.1,0-1.9-0.3-2.4-1c-0.6-0.6-0.9-1.5-0.9-2.7
		s0.3-2.1,0.9-2.7s1.4-1,2.4-1s1.8,0.3,2.4,1C84,87,84.3,87.9,84.3,89z M78.6,89c0,1,0.2,1.7,0.6,2.2s1,0.7,1.8,0.7
		c0.8,0,1.4-0.2,1.8-0.7c0.4-0.5,0.6-1.2,0.6-2.2s-0.2-1.7-0.6-2.2c-0.4-0.5-1-0.7-1.8-0.7c-0.8,0-1.4,0.2-1.8,0.7
		C78.9,87.3,78.6,88.1,78.6,89z"/>
	<path class="st1" d="M90.5,87.5c0,0.7-0.2,1.3-0.7,1.7c-0.5,0.4-1.2,0.6-2.1,0.6h-0.8v2.8h-0.8v-7.1H88
		C89.6,85.5,90.5,86.1,90.5,87.5z M86.8,89.1h0.7c0.7,0,1.3-0.1,1.6-0.4s0.5-0.6,0.5-1.1s-0.2-0.8-0.5-1.1s-0.8-0.3-1.4-0.3h-0.9
		C86.8,86.2,86.8,89.1,86.8,89.1z"/>
	<path class="st1" d="M96,90.7c0,0.6-0.2,1.1-0.7,1.5s-1.1,0.5-1.9,0.5s-1.5-0.1-2-0.3v-0.8c0.3,0.1,0.6,0.2,1,0.3s0.7,0.1,1,0.1
		c0.6,0,1-0.1,1.2-0.3c0.3-0.2,0.4-0.5,0.4-0.9c0-0.2,0-0.5-0.1-0.6c-0.1-0.2-0.3-0.3-0.5-0.4s-0.6-0.3-1.1-0.5
		c-0.7-0.2-1.1-0.5-1.4-0.8s-0.4-0.8-0.4-1.3s0.2-1,0.6-1.3s1-0.5,1.6-0.5c0.7,0,1.4,0.1,2,0.4l-0.3,0.7c-0.6-0.2-1.2-0.4-1.7-0.4
		c-0.4,0-0.8,0.1-1,0.3s-0.4,0.5-0.4,0.8c0,0.2,0,0.5,0.1,0.6c0.1,0.2,0.2,0.3,0.5,0.4c0.2,0.1,0.5,0.3,1,0.4
		c0.7,0.3,1.3,0.6,1.5,0.9C95.8,89.8,96,90.2,96,90.7z"/>
	<path class="st1" d="M102.6,85.5l-2.7,7.1h-0.8l2.7-7.1H102.6z"/>
	<path class="st1" d="M50,99.8c-0.8,0-1.4,0.3-1.9,0.8s-0.7,1.2-0.7,2.1s0.2,1.7,0.7,2.2c0.4,0.5,1.1,0.8,1.9,0.8
		c0.5,0,1.1-0.1,1.7-0.3v0.7c-0.5,0.2-1.1,0.3-1.8,0.3c-1.1,0-1.9-0.3-2.4-1c-0.6-0.6-0.9-1.5-0.9-2.7c0-0.7,0.1-1.4,0.4-1.9
		c0.3-0.6,0.7-1,1.2-1.3s1.1-0.4,1.8-0.4c0.7,0,1.4,0.1,2,0.4l-0.4,0.7C51,99.9,50.5,99.8,50,99.8z"/>
	<path class="st1" d="M58.6,106.3h-0.8v-3.4H54v3.4h-0.8v-7.1H54v3h3.8v-3h0.8C58.6,99.2,58.6,106.3,58.6,106.3z"/>
	<path class="st1" d="M65.1,106.3l-0.9-2.3h-2.9l-0.9,2.3h-0.8l2.8-7.2h0.7l2.8,7.2H65.1z M63.9,103.3l-0.8-2.2
		c-0.1-0.3-0.2-0.6-0.3-1c-0.1,0.3-0.2,0.7-0.3,1l-0.8,2.2H63.9z"/>
	<path class="st1" d="M66.9,106.3v-7.1h0.8v7.1H66.9z"/>
	<path class="st1" d="M75.3,106.3h-0.9l-3.9-6l0,0c0.1,0.7,0.1,1.3,0.1,1.9v4.1h-0.8v-7.1h0.9l3.9,6l0,0c0-0.1,0-0.4,0-0.8
		c0-0.5,0-0.8,0-1v-4.1h0.8L75.3,106.3L75.3,106.3z"/>
	<path class="st1" d="M81.3,104.4c0,0.6-0.2,1.1-0.7,1.5s-1.1,0.5-1.9,0.5s-1.5-0.1-2-0.3v-0.8c0.3,0.1,0.6,0.2,1,0.3s0.7,0.1,1,0.1
		c0.6,0,1-0.1,1.2-0.3c0.3-0.2,0.4-0.5,0.4-0.9c0-0.2,0-0.5-0.1-0.6c-0.1-0.2-0.3-0.3-0.5-0.4s-0.6-0.3-1.1-0.5
		c-0.7-0.2-1.1-0.5-1.4-0.8s-0.4-0.8-0.4-1.3s0.2-1,0.6-1.3s1-0.5,1.6-0.5c0.7,0,1.4,0.1,2,0.4l-0.3,0.7c-0.6-0.2-1.2-0.4-1.7-0.4
		c-0.4,0-0.8,0.1-1,0.3s-0.4,0.5-0.4,0.8c0,0.2,0,0.5,0.1,0.6c0.1,0.2,0.2,0.3,0.5,0.4c0.2,0.1,0.5,0.3,1,0.4
		c0.7,0.3,1.3,0.6,1.5,0.9C81.1,103.5,81.3,103.9,81.3,104.4z"/>
</g>
</svg>
