<?xml version="1.0" encoding="utf-8"?>
<!-- Generator: Adobe Illustrator 23.0.3, SVG Export Plug-In . SVG Version: 6.00 Build 0)  -->
<svg version="1.1" id="Layer_1" xmlns="http://www.w3.org/2000/svg" xmlns:xlink="http://www.w3.org/1999/xlink" x="0px" y="0px"
	 viewBox="0 0 130 130" style="enable-background:new 0 0 130 130;" xml:space="preserve">
<style type="text/css">
	.st0{fill:none;stroke:#1EB9D5;stroke-width:1.5;}
	.st1{fill:#FFE161;}
	.st2{fill:#1EB9D5;}
	.st3{fill:#FFFFFF;}
</style>
<title>globe11</title>
<path class="st0" d="M64.4,27.6h12.8c2.3,0,4.2,1.9,4.2,4.2v28.9c0,2.3-1.9,4.2-4.2,4.2H53.9c-2.3,0-4.2-1.9-4.2-4.2v-29
	c0-2.3,1.9-4.2,4.2-4.2h3.4"/>
<path class="st0" d="M77.1,64.8v5.7c0,2.3-1.9,4.2-4.2,4.2H57.1c-2.3,0-4.1-1.9-4.1-4.2v-5.7"/>
<rect x="54.3" y="32.2" class="st0" width="22.3" height="10.2"/>
<rect x="57.1" y="46.3" class="st1" width="3.3" height="3.3"/>
<rect x="64" y="46.3" class="st1" width="3.3" height="3.3"/>
<rect x="70.5" y="46.3" class="st1" width="3.3" height="3.3"/>
<rect x="57.1" y="52.2" class="st1" width="3.3" height="3.3"/>
<rect x="64" y="52.2" class="st1" width="3.3" height="3.3"/>
<rect x="70.5" y="52.2" class="st1" width="3.3" height="3.3"/>
<rect x="57.1" y="57.8" class="st1" width="3.3" height="3.3"/>
<rect x="64" y="57.8" class="st1" width="3.3" height="3.3"/>
<rect x="70.5" y="57.8" class="st1" width="3.3" height="3.3"/>
<path class="st2" d="M56.9,65.1v9.5h5.4v-9.8C62.3,64.8,56.9,65,56.9,65.1z"/>
<g>
	<path class="st3" d="M25.9,87c0.4-0.1,0.7-0.1,1.1-0.2s0.8,0,1.2,0c0.4,0,0.9,0,1.3,0.1c0.4,0.1,0.8,0.2,1.2,0.5
		c0.4,0.2,0.7,0.5,0.9,0.9c0.2,0.4,0.3,0.9,0.3,1.5c0,0.6-0.1,1.1-0.3,1.5c-0.2,0.4-0.5,0.7-0.9,1c-0.4,0.3-0.8,0.4-1.2,0.6
		c-0.5,0.1-0.9,0.2-1.4,0.2c0,0-0.1,0-0.2,0c-0.1,0-0.2,0-0.3,0s-0.2,0-0.3,0c-0.1,0-0.2,0-0.2,0v3.7h-1.2V87z M28.3,87.8
		c-0.2,0-0.5,0-0.7,0c-0.2,0-0.4,0-0.5,0.1V92c0,0,0.1,0,0.2,0c0.1,0,0.2,0,0.3,0s0.2,0,0.3,0c0.1,0,0.2,0,0.2,0
		c0.3,0,0.6,0,0.9-0.1c0.3-0.1,0.6-0.2,0.8-0.3c0.3-0.2,0.5-0.4,0.6-0.7c0.2-0.3,0.2-0.7,0.2-1.1c0-0.4-0.1-0.7-0.2-1
		c-0.1-0.3-0.3-0.5-0.6-0.6c-0.2-0.2-0.5-0.3-0.8-0.3S28.6,87.8,28.3,87.8z"/>
	<path class="st3" d="M33.1,91.8c0-1.6,0.3-2.9,1-3.8c0.7-0.9,1.7-1.3,3-1.3c0.7,0,1.3,0.1,1.8,0.4c0.5,0.2,0.9,0.6,1.3,1
		c0.3,0.4,0.6,1,0.7,1.6c0.2,0.6,0.2,1.3,0.2,2.1c0,1.6-0.3,2.9-1,3.8c-0.7,0.9-1.7,1.3-3,1.3c-0.7,0-1.3-0.1-1.8-0.4
		c-0.5-0.2-0.9-0.6-1.2-1c-0.3-0.4-0.6-1-0.7-1.6C33.2,93.3,33.1,92.6,33.1,91.8z M34.3,91.8c0,0.5,0.1,1.1,0.2,1.5
		c0.1,0.5,0.3,0.9,0.5,1.3c0.2,0.4,0.5,0.7,0.9,0.9c0.3,0.2,0.8,0.3,1.2,0.3c0.9,0,1.5-0.3,2-1c0.5-0.7,0.7-1.7,0.7-3
		c0-0.5-0.1-1-0.2-1.5c-0.1-0.5-0.3-0.9-0.5-1.3c-0.2-0.4-0.5-0.7-0.9-0.9c-0.4-0.2-0.8-0.3-1.3-0.3c-0.9,0-1.5,0.3-2,1
		C34.6,89.4,34.3,90.5,34.3,91.8z"/>
	<path class="st3" d="M47.5,94.2c0-0.4-0.1-0.7-0.3-1c-0.2-0.2-0.5-0.5-0.9-0.7c-0.4-0.2-0.7-0.4-1.1-0.5s-0.8-0.4-1.1-0.6
		s-0.6-0.5-0.9-0.9c-0.2-0.4-0.4-0.8-0.4-1.3c0-0.8,0.3-1.4,0.8-1.8c0.5-0.4,1.3-0.7,2.3-0.7c0.6,0,1.1,0,1.6,0.1s0.8,0.2,1.1,0.3
		l-0.4,1c-0.2-0.1-0.5-0.2-0.9-0.3c-0.4-0.1-0.9-0.1-1.4-0.1c-0.6,0-1.1,0.1-1.4,0.4c-0.3,0.3-0.5,0.6-0.5,1c0,0.4,0.1,0.7,0.4,0.9
		c0.2,0.2,0.5,0.5,0.9,0.7c0.4,0.2,0.7,0.4,1.1,0.6c0.4,0.2,0.8,0.4,1.1,0.7c0.4,0.2,0.6,0.5,0.9,0.9s0.4,0.8,0.4,1.3
		c0,0.4-0.1,0.8-0.2,1.1c-0.1,0.3-0.4,0.6-0.7,0.9c-0.3,0.2-0.6,0.4-1,0.6c-0.4,0.1-0.9,0.2-1.4,0.2c-0.7,0-1.3-0.1-1.7-0.2
		c-0.5-0.1-0.8-0.2-1.1-0.4l0.4-1c0.2,0.1,0.5,0.2,1,0.3c0.4,0.1,0.9,0.2,1.4,0.2c0.3,0,0.6,0,0.9-0.1c0.3-0.1,0.5-0.2,0.7-0.3
		c0.2-0.1,0.4-0.3,0.5-0.5S47.5,94.5,47.5,94.2z"/>
	<path class="st3" d="M61.8,90.1l0.1-1.5h-0.1L61.3,90l-2.5,4.4h-0.4L55.7,90l-0.5-1.3h-0.1l0.2,1.5v6.6h-1.1v-9.8h0.9l3.1,5
		l0.5,1.1h0l0.4-1.1l2.9-5h0.9v9.8h-1.2V90.1z"/>
	<path class="st3" d="M65.1,90.2c0.4-0.2,0.8-0.4,1.2-0.5c0.5-0.1,1-0.2,1.5-0.2c0.5,0,0.9,0.1,1.2,0.2s0.5,0.3,0.7,0.5
		c0.2,0.2,0.3,0.4,0.3,0.7c0.1,0.3,0.1,0.5,0.1,0.8c0,0.6,0,1.1,0,1.6c0,0.5,0,1,0,1.5c0,0.3,0,0.7,0,1c0,0.3,0.1,0.6,0.2,0.9h-0.8
		l-0.3-1H69c-0.1,0.1-0.2,0.3-0.3,0.4s-0.3,0.2-0.5,0.3c-0.2,0.1-0.4,0.2-0.6,0.2c-0.2,0.1-0.5,0.1-0.8,0.1s-0.6,0-0.8-0.1
		c-0.3-0.1-0.5-0.2-0.7-0.4s-0.3-0.4-0.4-0.6c-0.1-0.2-0.2-0.5-0.2-0.8c0-0.4,0.1-0.8,0.3-1s0.4-0.5,0.7-0.7
		c0.3-0.2,0.7-0.3,1.1-0.3c0.4-0.1,0.9-0.1,1.4-0.1c0.1,0,0.3,0,0.4,0s0.3,0,0.4,0c0-0.3,0-0.5,0-0.8c0-0.5-0.1-0.9-0.3-1.1
		c-0.2-0.2-0.6-0.3-1.1-0.3c-0.2,0-0.3,0-0.5,0c-0.2,0-0.4,0.1-0.6,0.1s-0.4,0.1-0.5,0.2c-0.2,0.1-0.3,0.1-0.5,0.2L65.1,90.2z
		 M67.1,95.9c0.3,0,0.5,0,0.7-0.1c0.2-0.1,0.4-0.2,0.5-0.3c0.1-0.1,0.3-0.2,0.4-0.4c0.1-0.1,0.2-0.3,0.2-0.4v-1.2
		c-0.1,0-0.3,0-0.4,0c-0.1,0-0.3,0-0.4,0c-0.3,0-0.6,0-0.8,0c-0.3,0-0.5,0.1-0.7,0.2S66.1,94,66,94.2c-0.1,0.2-0.2,0.3-0.2,0.6
		c0,0.3,0.1,0.6,0.4,0.8C66.4,95.8,66.7,95.9,67.1,95.9z"/>
	<path class="st3" d="M76.9,96.3c-0.3,0.2-0.6,0.4-1,0.5s-0.8,0.2-1.2,0.2c-0.5,0-1-0.1-1.4-0.3c-0.4-0.2-0.7-0.4-0.9-0.7
		c-0.2-0.3-0.4-0.7-0.5-1.2c-0.1-0.5-0.2-1-0.2-1.5c0-1.2,0.3-2.1,0.8-2.7s1.3-0.9,2.3-0.9c0.4,0,0.8,0,1.1,0.1
		c0.3,0.1,0.6,0.2,0.8,0.3l-0.3,1c-0.2-0.1-0.5-0.2-0.7-0.3c-0.3-0.1-0.5-0.1-0.8-0.1c-1.3,0-2,0.9-2,2.7c0,0.4,0,0.7,0.1,1
		c0.1,0.3,0.2,0.6,0.3,0.9s0.4,0.4,0.6,0.6c0.3,0.1,0.6,0.2,1,0.2c0.3,0,0.6-0.1,0.9-0.2c0.3-0.1,0.5-0.2,0.7-0.4L76.9,96.3z"/>
	<path class="st3" d="M83,96.7v-4c0-0.4,0-0.7-0.1-1s-0.1-0.5-0.2-0.7c-0.1-0.2-0.3-0.3-0.5-0.4c-0.2-0.1-0.4-0.1-0.7-0.1
		c-0.4,0-0.8,0.1-1.2,0.4c-0.4,0.3-0.6,0.7-0.7,1.1v4.7h-1.1v-9.8h1.1v3.6h0.1c0.2-0.3,0.5-0.5,0.9-0.7s0.8-0.3,1.3-0.3
		c0.4,0,0.7,0,1,0.1s0.5,0.2,0.7,0.5c0.2,0.2,0.3,0.5,0.4,0.9c0.1,0.4,0.1,0.9,0.1,1.4v4.2H83z"/>
	<path class="st3" d="M86.1,87.6c0-0.2,0.1-0.4,0.2-0.6c0.1-0.2,0.3-0.2,0.6-0.2c0.2,0,0.4,0.1,0.6,0.2c0.2,0.2,0.2,0.3,0.2,0.6
		s-0.1,0.4-0.2,0.5c-0.2,0.1-0.3,0.2-0.6,0.2c-0.2,0-0.4-0.1-0.6-0.2C86.2,88,86.1,87.8,86.1,87.6z M86.4,89.7h1.1v7h-1.1V89.7z"/>
	<path class="st3" d="M94.4,96.7v-4c0-0.7-0.1-1.3-0.3-1.6c-0.2-0.4-0.6-0.6-1.2-0.6c-0.5,0-0.9,0.1-1.2,0.4s-0.5,0.6-0.7,1v4.8
		h-1.1v-7h0.8l0.2,0.9h0.1c0.2-0.3,0.5-0.5,0.9-0.7c0.4-0.2,0.8-0.3,1.4-0.3c0.4,0,0.7,0,1,0.1s0.5,0.2,0.7,0.5
		c0.2,0.2,0.3,0.5,0.4,0.9c0.1,0.4,0.1,0.9,0.1,1.4v4.2H94.4z"/>
	<path class="st3" d="M102.6,96.2c-0.3,0.2-0.6,0.4-1.1,0.5c-0.4,0.1-0.9,0.2-1.4,0.2c-0.5,0-1-0.1-1.4-0.3c-0.4-0.2-0.7-0.4-1-0.7
		s-0.4-0.7-0.6-1.2c-0.1-0.4-0.2-1-0.2-1.5c0-1.2,0.3-2.1,0.8-2.7c0.5-0.6,1.3-0.9,2.3-0.9c0.3,0,0.6,0,1,0.1
		c0.3,0.1,0.6,0.2,0.9,0.4c0.3,0.2,0.5,0.5,0.6,0.8c0.2,0.4,0.2,0.8,0.2,1.4c0,0.3,0,0.6-0.1,1h-4.5c0,0.4,0,0.8,0.1,1.1
		s0.2,0.6,0.4,0.8c0.2,0.2,0.4,0.4,0.7,0.5c0.3,0.1,0.6,0.2,1,0.2c0.3,0,0.6-0.1,1-0.2c0.3-0.1,0.6-0.2,0.7-0.4L102.6,96.2z
		 M100.2,90.5c-0.6,0-1,0.1-1.3,0.4c-0.3,0.3-0.5,0.8-0.6,1.5h3.5c0-0.7-0.1-1.2-0.4-1.5C101.1,90.7,100.7,90.5,100.2,90.5z"/>
	<path class="st3" d="M107.7,94.8c0-0.3-0.1-0.5-0.3-0.7c-0.2-0.2-0.4-0.3-0.6-0.4c-0.2-0.1-0.5-0.2-0.8-0.3
		c-0.3-0.1-0.6-0.2-0.8-0.4c-0.2-0.2-0.5-0.4-0.6-0.6c-0.2-0.2-0.3-0.6-0.3-1c0-0.7,0.2-1.2,0.6-1.5c0.4-0.3,0.9-0.5,1.6-0.5
		c0.5,0,0.9,0,1.3,0.1s0.6,0.2,0.9,0.3l-0.3,0.9c-0.2-0.1-0.5-0.2-0.8-0.3c-0.3-0.1-0.6-0.1-1-0.1c-0.4,0-0.7,0.1-0.9,0.2
		c-0.2,0.1-0.3,0.4-0.3,0.7c0,0.2,0.1,0.4,0.3,0.6c0.2,0.1,0.4,0.3,0.6,0.4c0.2,0.1,0.5,0.2,0.8,0.3s0.6,0.2,0.8,0.4
		c0.2,0.2,0.5,0.4,0.6,0.6s0.3,0.6,0.3,1c0,0.3,0,0.6-0.1,0.8c-0.1,0.3-0.2,0.5-0.5,0.7s-0.5,0.3-0.8,0.4c-0.3,0.1-0.7,0.2-1.1,0.2
		c-0.5,0-1-0.1-1.4-0.2c-0.4-0.1-0.7-0.2-0.9-0.4l0.3-1c0.2,0.1,0.5,0.2,0.8,0.3c0.3,0.1,0.7,0.2,1.1,0.2c0.4,0,0.7-0.1,1-0.2
		C107.6,95.5,107.7,95.2,107.7,94.8z"/>
</g>
</svg>
