<?xml version="1.0" encoding="utf-8"?>
<!-- Generator: Adobe Illustrator 23.0.3, SVG Export Plug-In . SVG Version: 6.00 Build 0)  -->
<svg version="1.1" id="Layer_1" xmlns="http://www.w3.org/2000/svg" xmlns:xlink="http://www.w3.org/1999/xlink" x="0px" y="0px"
	 viewBox="0 0 130 130" style="enable-background:new 0 0 130 130;" xml:space="preserve">
<style type="text/css">
	.st0{fill:#FFFFFF;}
	.st1{fill:none;stroke:#1EB9D5;stroke-width:1.5;}
	.st2{fill:#FFE161;}
</style>
<g>
	<path class="st0" d="M46.2,87.7h-3.4v3h3.3v1h-3.3v4.9h-1.1v-10h4.6V87.7z"/>
	<path class="st0" d="M48.5,87.3c0.4,0,0.8,0.3,0.8,0.8s-0.3,0.8-0.8,0.8s-0.8-0.3-0.8-0.8S48,87.3,48.5,87.3z M49,90.4v6.2h-1.1
		v-6.2H49z"/>
	<path class="st0" d="M51,90.4h1.1v0.7c0.2-0.3,0.8-0.9,1.8-0.9c0.7,0,1.4,0.3,1.8,0.9c0.3,0.5,0.4,1,0.4,1.7v3.9H55v-3.8
		c0-0.4,0-0.8-0.3-1.1c-0.2-0.3-0.5-0.4-1-0.4c-0.4,0-0.8,0.1-1.1,0.5c-0.4,0.5-0.4,1.2-0.4,1.7v3.3H51V90.4z"/>
	<path class="st0" d="M59.2,91.4v5.2h-1.1v-5.2h-0.7v-1h0.7v-2.2h1.1v2.2h1.1v1H59.2z"/>
	<path class="st0" d="M66.8,95.1c-0.2,0.3-0.5,0.7-0.8,1c-0.6,0.5-1.3,0.8-2.1,0.8c-1.5,0-3.1-0.9-3.1-3.3c0-1.9,1.1-3.3,3-3.3
		c1.2,0,2,0.6,2.4,1.1c0.4,0.6,0.6,1.5,0.6,2.3H62c0,1.3,0.9,2.1,2,2.1c0.5,0,0.9-0.2,1.3-0.5c0.3-0.2,0.5-0.6,0.6-0.9L66.8,95.1z
		 M65.8,92.9c-0.2-1-0.9-1.6-1.8-1.6s-1.7,0.7-1.8,1.6H65.8z"/>
	<path class="st0" d="M73.4,92.2c-0.6-0.7-1.4-0.9-1.9-0.9c-1.2,0-2.2,0.8-2.2,2.3c0,1.5,1.1,2.3,2.2,2.3c0.6,0,1.4-0.3,2-1v1.3
		c-0.7,0.5-1.4,0.6-2,0.6c-1.9,0-3.3-1.4-3.3-3.3c0-1.9,1.4-3.3,3.3-3.3c1,0,1.6,0.4,1.9,0.6V92.2z"/>
	<path class="st0" d="M75.1,85.7h1.1v5.4c0.2-0.3,0.8-0.9,1.8-0.9c0.7,0,1.4,0.3,1.8,0.9c0.3,0.5,0.4,1,0.4,1.7v3.9H79v-3.8
		c0-0.4,0-0.8-0.3-1.1c-0.2-0.3-0.5-0.4-1-0.4c-0.4,0-0.8,0.1-1.1,0.5c-0.4,0.5-0.5,1.2-0.5,1.7v3.3h-1.1V85.7z"/>
	<path class="st0" d="M92.3,85.3l0.9,0.5l-7.7,13.9l-0.9-0.4L92.3,85.3z"/>
	<path class="st0" d="M23.5,114.7l1.7-10.6l3.8,8.4l3.9-8.5l1.6,10.6h-1.1l-0.9-7l-3.4,7.4l-3.4-7.4l-1,7H23.5z"/>
	<path class="st0" d="M36.1,111.6c0-1.9,1.4-3.3,3.3-3.3c1.9,0,3.3,1.4,3.3,3.3c0,1.9-1.4,3.3-3.3,3.3
		C37.6,114.8,36.1,113.5,36.1,111.6z M37.3,111.6c0,1.5,1.1,2.3,2.2,2.3c1.1,0,2.2-0.8,2.2-2.3c0-1.5-1-2.3-2.2-2.3
		C38.3,109.2,37.3,110,37.3,111.6z"/>
	<path class="st0" d="M45.5,114.7h-1.1v-10.9h1.1v5.6c0.7-0.9,1.7-1,2.1-1c1.9,0,3,1.6,3,3.3c0,1.7-1.1,3.3-3,3.3
		c-1,0-1.7-0.5-2.2-1.1V114.7z M49.5,111.6c0-1.5-1-2.3-2-2.3s-2.1,0.8-2.1,2.3c0,1.3,0.8,2.3,2.1,2.3
		C48.8,113.9,49.5,112.8,49.5,111.6z"/>
	<path class="st0" d="M52.8,105.3c0.4,0,0.8,0.3,0.8,0.8s-0.3,0.8-0.8,0.8s-0.8-0.3-0.8-0.8S52.4,105.3,52.8,105.3z M53.4,108.4v6.2
		h-1.1v-6.2H53.4z"/>
	<path class="st0" d="M56.5,103.7v10.9h-1.1v-10.9H56.5z"/>
	<path class="st0" d="M64,113.1c-0.2,0.3-0.4,0.7-0.8,1c-0.6,0.5-1.3,0.8-2.1,0.8c-1.5,0-3.1-0.9-3.1-3.3c0-1.9,1.1-3.3,3-3.3
		c1.2,0,2,0.6,2.4,1.1c0.4,0.6,0.6,1.5,0.6,2.3h-4.8c0,1.3,0.9,2.1,2,2.1c0.5,0,0.9-0.2,1.3-0.5c0.3-0.2,0.5-0.6,0.6-0.9L64,113.1z
		 M63,110.9c-0.2-1-0.9-1.6-1.8-1.6s-1.7,0.7-1.8,1.6H63z"/>
	<path class="st0" d="M69.6,104.6l2.6,7.5l3.1-8l3,8l2.9-7.5h1.2l-4.2,10.5l-2.9-8l-3.2,8l-3.8-10.5H69.6z"/>
	<path class="st0" d="M87.3,108.4h1.1v6.2h-1.1v-0.9c-0.4,0.5-1,1.1-2.1,1.1c-1.6,0-3-1.1-3-3.3c0-2.1,1.4-3.3,3-3.3
		c1.2,0,1.8,0.7,2.1,1V108.4z M83.2,111.5c0,1.3,0.8,2.3,2,2.3c1.3,0,2.1-1.1,2.1-2.3c0-1.6-1.1-2.3-2.1-2.3
		C84.2,109.2,83.2,110,83.2,111.5z"/>
	<path class="st0" d="M91.5,103.7v10.9h-1.1v-10.9H91.5z"/>
	<path class="st0" d="M94.6,103.7v10.9h-1.1v-10.9H94.6z"/>
	<path class="st0" d="M102.2,113.1c-0.2,0.3-0.5,0.7-0.8,1c-0.6,0.5-1.3,0.8-2.1,0.8c-1.5,0-3.1-0.9-3.1-3.3c0-1.9,1.1-3.3,3-3.3
		c1.2,0,2,0.6,2.4,1.1c0.4,0.6,0.6,1.5,0.6,2.3h-4.8c0,1.3,0.9,2.1,2,2.1c0.5,0,0.9-0.2,1.3-0.5c0.3-0.2,0.5-0.6,0.6-0.9
		L102.2,113.1z M101.1,110.9c-0.2-1-0.9-1.6-1.8-1.6s-1.7,0.7-1.8,1.6H101.1z"/>
	<path class="st0" d="M105,109.4v5.2h-1.1v-5.2h-0.7v-1h0.7v-2.2h1.1v2.2h1.1v1H105z"/>
	<path class="st0" d="M109.6,109.9c-0.1-0.4-0.5-0.6-0.9-0.6c-0.4,0-0.8,0.2-0.8,0.7c0,0.5,0.3,0.6,1,0.9c0.9,0.4,1.3,0.7,1.6,1
		c0.3,0.3,0.3,0.7,0.3,1c0,1.3-0.9,2-2.1,2c-0.3,0-1.6,0-2.2-1.6l0.9-0.4c0.1,0.3,0.5,1,1.3,1c0.7,0,1-0.5,1-1c0-0.6-0.4-0.8-1-1
		c-0.8-0.3-1.2-0.6-1.5-0.9c-0.2-0.3-0.3-0.6-0.3-0.9c0-1.1,0.8-1.7,1.8-1.7c0.3,0,1.2,0.1,1.7,1.1L109.6,109.9z"/>
</g>
<title>globe6</title>
<path class="st1" d="M79.2,72.4v3.8c0,1.4-1.1,2.5-2.5,2.5H53.1c-1.4,0-2.5-1.1-2.5-2.5V30.7c0-1.4,1.1-2.5,2.5-2.5l0,0h23.6
	c1.4,0,2.5,1.1,2.5,2.5v34.9"/>
<path class="st1" d="M54.4,58.7v14c-0.1,1.2,0.9,2.3,2.2,2.4l0,0h16.6c1.3-0.1,2.2-1.1,2.2-2.4V34.3c0.1-1.3-0.9-2.3-2.2-2.4h-4.4
	l-0.8,2h-6.4l-0.6-2h-4.4c-1.2,0.1-2.2,1.1-2.2,2.4l0,0v19.1"/>
<path class="st2" d="M66,44.5v0.9c1.3,0,3.7,0.6,3.7,1.3c0,0.3-0.5,1.2-0.8,1.2C68,47.5,67,47.2,66,47.1v5.4
	c2.1,0.8,4.5,1.6,4.5,4.8c0,2.6-1.8,4.3-4.5,4.6v1.2c0,0.3-0.1,0.4-0.5,0.4S65,63.4,65,63.1V62c-2.6-0.1-4.6-1.1-4.6-1.7
	c0-0.4,0.6-1.3,0.8-1.3c1.1,0.7,2.4,1.2,3.7,1.3v-6c-2.1-0.8-4.3-1.6-4.3-4.6c0-2.3,1.7-3.9,4.3-4.2v-1c0-0.2,0.1-0.4,0.5-0.4
	S66,44.3,66,44.5z M62.9,49.8c0,1.3,1,2,2.2,2.5v-5C63.8,47.3,62.8,48.4,62.9,49.8L62.9,49.8z M66,60.2c1.4-0.2,2.4-1.4,2.3-2.8
	c0-1.5-1-2.2-2.3-2.7V60.2z"/>
</svg>
