<?xml version="1.0" encoding="utf-8"?>
<!-- Generator: Adobe Illustrator 23.0.3, SVG Export Plug-In . SVG Version: 6.00 Build 0)  -->
<svg version="1.1" id="Layer_1" xmlns="http://www.w3.org/2000/svg" xmlns:xlink="http://www.w3.org/1999/xlink" x="0px" y="0px"
	 viewBox="0 0 130 130" style="enable-background:new 0 0 130 130;" xml:space="preserve">
<style type="text/css">
	.st0{fill:#FFE161;}
	.st1{fill:none;stroke:#1EB9D5;stroke-width:1.5;stroke-linecap:round;stroke-linejoin:round;}
</style>
<title>globe7</title>
<path class="st0" d="M29.3,90.2c-0.2,0.2-0.5,0.3-0.8,0.3c-0.3,0.1-0.7,0.1-1,0.1c-0.4,0-0.8-0.1-1.2-0.2c-0.4-0.1-0.7-0.4-1-0.6
	c-0.3-0.3-0.5-0.7-0.6-1.1c-0.2-0.5-0.3-1.1-0.2-1.6c0-0.6,0.1-1.1,0.3-1.7c0.1-0.4,0.4-0.8,0.7-1.1c0.3-0.3,0.6-0.5,1-0.6
	c0.3-0.1,0.7-0.2,1.1-0.2c0.3,0,0.7,0,1,0.1c0.2,0,0.4,0.1,0.6,0.2L29,84.5c-0.4-0.2-0.9-0.3-1.4-0.2c-0.3,0-0.5,0.1-0.8,0.2
	c-0.3,0.1-0.5,0.3-0.7,0.5c-0.2,0.3-0.4,0.6-0.5,0.9c-0.1,0.4-0.2,0.9-0.2,1.3c0,0.4,0.1,0.8,0.2,1.2c0.1,0.3,0.3,0.6,0.5,0.9
	c0.2,0.2,0.4,0.4,0.7,0.5c0.3,0.1,0.6,0.2,0.9,0.2c0.3,0,0.5,0,0.8-0.1c0.2-0.1,0.4-0.1,0.6-0.2L29.3,90.2z"/>
<path class="st0" d="M32.6,86.3c-0.2-0.1-0.4-0.1-0.6-0.1c-0.2,0-0.5,0.1-0.7,0.2c-0.2,0.2-0.3,0.4-0.3,0.6v3.5h-0.8v-4.9h0.5
	l0.1,0.6l0,0c0.1-0.2,0.3-0.4,0.5-0.5c0.2-0.1,0.4-0.2,0.7-0.2c0.2,0,0.4,0,0.7,0.1L32.6,86.3z"/>
<path class="st0" d="M35.1,88.8l0.3,1l0,0l0.2-1l1-3.2h0.8L35.9,90c-0.1,0.3-0.2,0.6-0.3,0.9c-0.1,0.3-0.2,0.6-0.4,0.8
	c-0.1,0.2-0.3,0.4-0.5,0.6c-0.2,0.1-0.4,0.2-0.6,0.2c-0.2,0-0.4,0-0.6-0.1l0.1-0.7c0.1,0,0.2,0,0.2,0c0.2,0,0.4-0.1,0.5-0.3
	c0.2-0.3,0.4-0.6,0.4-1l-2-4.9h0.9L35.1,88.8z"/>
<path class="st0" d="M38.2,85.6h0.5l0.1,0.6l0,0c0.1-0.2,0.3-0.4,0.6-0.5c0.3-0.1,0.5-0.2,0.8-0.2c0.6,0,1.1,0.2,1.5,0.6
	c0.4,0.6,0.6,1.3,0.5,2c0,0.4,0,0.8-0.2,1.1c-0.1,0.3-0.3,0.6-0.5,0.8c-0.2,0.2-0.4,0.4-0.7,0.5c-0.3,0.1-0.6,0.2-0.9,0.2
	c-0.2,0-0.4,0-0.6,0c-0.2,0-0.3-0.1-0.5-0.2v2h-0.8V85.6z M40.2,86.2c-0.3,0-0.6,0.1-0.8,0.3c-0.2,0.2-0.4,0.5-0.4,0.8v2.4
	c0.1,0.1,0.3,0.2,0.4,0.2c0.2,0.1,0.4,0.1,0.6,0.1c0.4,0,0.8-0.2,1.1-0.5c0.3-0.4,0.4-1,0.4-1.5c0-0.2,0-0.5-0.1-0.7
	c0-0.2-0.1-0.4-0.2-0.6c-0.1-0.2-0.2-0.3-0.4-0.4C40.6,86.2,40.4,86.1,40.2,86.2z"/>
<path class="st0" d="M42.9,85.6h0.8v-1l0.8-0.2v1.2h1.3v0.7h-1.3V89c0,0.2,0,0.5,0.1,0.7c0.1,0.1,0.3,0.2,0.4,0.2c0.1,0,0.3,0,0.4,0
	l0.4-0.1l0.2,0.6c-0.2,0.1-0.4,0.2-0.6,0.2c-0.2,0.1-0.5,0.1-0.7,0.1c-0.3,0-0.6-0.1-0.8-0.3c-0.2-0.4-0.3-0.8-0.2-1.2v-2.9h-0.8
	V85.6z"/>
<path class="st0" d="M46.5,88.1c0-0.7,0.2-1.4,0.6-1.9c0.4-0.5,1-0.7,1.6-0.7c0.3,0,0.7,0,1,0.2c0.3,0.1,0.5,0.3,0.7,0.5
	c0.2,0.2,0.3,0.5,0.4,0.8c0.1,0.3,0.1,0.7,0.1,1.1c0,0.7-0.2,1.4-0.6,1.9c-0.4,0.5-1,0.7-1.6,0.7c-0.3,0-0.7-0.1-1-0.2
	c-0.3-0.1-0.5-0.3-0.7-0.5c-0.2-0.2-0.3-0.5-0.4-0.8C46.5,88.8,46.5,88.4,46.5,88.1z M47.3,88.1c0,0.2,0,0.5,0.1,0.7
	c0,0.2,0.1,0.4,0.2,0.6c0.1,0.2,0.2,0.3,0.4,0.4c0.2,0.1,0.4,0.2,0.6,0.2c0.9,0,1.3-0.6,1.3-1.9c0-0.2,0-0.5-0.1-0.7
	c0-0.2-0.1-0.4-0.2-0.6c-0.1-0.2-0.3-0.3-0.4-0.4c-0.2-0.1-0.4-0.2-0.6-0.2C47.8,86.1,47.3,86.8,47.3,88.1z"/>
<path class="st0" d="M57.2,83.5l0.6,0.3l-3.6,8.1l-0.6-0.3L57.2,83.5z"/>
<path class="st0" d="M65.1,85.2c0,0.2,0,0.3-0.1,0.5c-0.1,0.2-0.1,0.3-0.2,0.5c-0.1,0.2-0.3,0.3-0.4,0.4c-0.2,0.1-0.4,0.2-0.6,0.2
	l0,0c0.2,0,0.4,0.1,0.6,0.2c0.2,0.1,0.3,0.2,0.5,0.3c0.1,0.1,0.3,0.3,0.3,0.5c0.1,0.2,0.1,0.5,0.1,0.7c0,0.3-0.1,0.6-0.2,0.9
	c-0.1,0.3-0.3,0.5-0.6,0.6c-0.2,0.2-0.5,0.3-0.8,0.4c-0.3,0.1-0.7,0.1-1,0.1h-0.4h-0.5h-0.5c-0.1,0-0.3,0-0.4-0.1v-6.8
	c0.2,0,0.5-0.1,0.8-0.1s0.7,0,1.1,0c0.3,0,0.5,0,0.8,0.1c0.3,0,0.5,0.1,0.7,0.2c0.2,0.1,0.4,0.3,0.5,0.5
	C65,84.6,65.1,84.9,65.1,85.2z M62.3,86.6h0.4c0.1,0,0.3,0,0.4,0c0.2,0,0.3-0.1,0.4-0.2c0.1-0.1,0.3-0.2,0.4-0.3
	c0.1-0.1,0.2-0.2,0.3-0.3c0.1-0.3,0.1-0.7,0-1c-0.1-0.1-0.2-0.3-0.3-0.3c-0.1-0.1-0.3-0.2-0.5-0.2c-0.2,0-0.4-0.1-0.5-0.1h-0.6
	c-0.1,0-0.3,0-0.4,0v2.3L62.3,86.6z M62.8,89.9c0.2,0,0.4,0,0.6-0.1c0.2,0,0.4-0.1,0.5-0.2c0.1-0.1,0.3-0.2,0.4-0.4
	c0.1-0.2,0.1-0.4,0.1-0.6c0-0.2-0.1-0.4-0.2-0.6c-0.1-0.2-0.3-0.3-0.4-0.4c-0.2-0.1-0.4-0.2-0.6-0.2c-0.2,0-0.4,0-0.7,0h-0.9v2.5H62
	h0.3L62.8,89.9L62.8,89.9z"/>
<path class="st0" d="M67.5,89.3c0,0.2,0,0.4,0.1,0.5c0.1,0.1,0.2,0.2,0.3,0.1c0.1,0,0.2,0,0.3,0c0.1,0,0.2,0,0.3-0.1l0.1,0.6
	c-0.1,0.1-0.3,0.1-0.4,0.1c-0.2,0-0.3,0-0.5,0c-0.3,0-0.5-0.1-0.7-0.3c-0.2-0.2-0.3-0.5-0.3-0.8v-5.9h0.8L67.5,89.3z"/>
<path class="st0" d="M69.2,88.1c0-0.7,0.2-1.4,0.6-1.9c0.4-0.5,1-0.7,1.6-0.7c0.3,0,0.7,0,1,0.2c0.3,0.1,0.5,0.3,0.7,0.5
	c0.2,0.2,0.3,0.5,0.4,0.8c0.1,0.3,0.1,0.7,0.1,1.1c0,0.7-0.2,1.4-0.6,1.9c-0.4,0.5-1,0.7-1.6,0.7c-0.3,0-0.7-0.1-1-0.2
	c-0.3-0.1-0.5-0.3-0.7-0.5c-0.2-0.2-0.3-0.5-0.4-0.8C69.3,88.8,69.2,88.4,69.2,88.1z M70.1,88.1c0,0.2,0,0.5,0.1,0.7
	c0,0.2,0.1,0.4,0.2,0.6c0.1,0.2,0.2,0.3,0.4,0.4c0.2,0.1,0.4,0.2,0.6,0.2c0.9,0,1.3-0.6,1.3-1.9c0-0.2,0-0.5-0.1-0.7
	c0-0.2-0.1-0.4-0.2-0.6c-0.1-0.2-0.3-0.3-0.5-0.4c-0.2-0.1-0.4-0.2-0.6-0.2C70.5,86.1,70.1,86.8,70.1,88.1z"/>
<path class="st0" d="M78.2,90.2c-0.2,0.2-0.4,0.3-0.7,0.3c-0.3,0.1-0.6,0.1-0.8,0.1c-0.3,0-0.7,0-1-0.2c-0.3-0.1-0.5-0.3-0.7-0.5
	c-0.2-0.2-0.3-0.5-0.4-0.8c-0.1-0.3-0.1-0.7-0.1-1.1c0-0.7,0.2-1.4,0.6-1.9c0.4-0.5,1-0.7,1.6-0.7c0.3,0,0.5,0,0.8,0.1
	c0.2,0,0.4,0.1,0.6,0.2l-0.2,0.7c-0.2-0.1-0.3-0.2-0.5-0.2c-0.2,0-0.4-0.1-0.6-0.1c-0.9,0-1.4,0.6-1.4,1.9c0,0.2,0,0.5,0.1,0.7
	c0,0.2,0.1,0.4,0.2,0.6c0.3,0.4,0.7,0.6,1.2,0.6c0.2,0,0.4,0,0.6-0.1c0.2-0.1,0.3-0.1,0.5-0.2L78.2,90.2z"/>
<path class="st0" d="M80.5,88.3h-0.5v2.2h-0.8v-6.9h0.8v4.2l0.4-0.1l1.5-2.1h0.9l-1.5,2L81,87.9l0.5,0.4l1.7,2.2h-1L80.5,88.3z"/>
<path class="st0" d="M87.3,90.2c-0.2,0.2-0.4,0.3-0.7,0.3c-0.3,0.1-0.6,0.1-0.8,0.1c-0.3,0-0.7,0-1-0.2c-0.3-0.1-0.5-0.3-0.7-0.5
	c-0.2-0.2-0.3-0.5-0.4-0.8c-0.1-0.3-0.1-0.7-0.1-1.1c0-0.7,0.2-1.4,0.6-1.9c0.4-0.5,1-0.7,1.6-0.7c0.3,0,0.5,0,0.8,0.1
	c0.2,0,0.4,0.1,0.6,0.2l-0.2,0.7c-0.2-0.1-0.3-0.2-0.5-0.2c-0.2,0-0.4-0.1-0.6-0.1c-0.9,0-1.4,0.6-1.4,1.9c0,0.2,0,0.5,0.1,0.7
	c0,0.2,0.1,0.4,0.2,0.6c0.1,0.2,0.3,0.3,0.5,0.4c0.2,0.1,0.5,0.2,0.7,0.2c0.2,0,0.4,0,0.6-0.1c0.2-0.1,0.3-0.1,0.5-0.2L87.3,90.2z"
	/>
<path class="st0" d="M91.5,90.5v-2.8c0-0.2,0-0.5,0-0.7c0-0.2-0.1-0.3-0.2-0.5c-0.1-0.1-0.2-0.2-0.3-0.3c-0.2-0.1-0.3-0.1-0.5-0.1
	c-0.3,0-0.6,0.1-0.8,0.3c-0.2,0.2-0.4,0.5-0.5,0.8v3.3h-0.8v-6.9h0.8v2.5l0,0c0.2-0.2,0.4-0.4,0.6-0.5c0.3-0.1,0.6-0.2,0.9-0.2
	c0.2,0,0.5,0,0.7,0.1c0.2,0.1,0.4,0.2,0.5,0.3c0.1,0.2,0.2,0.4,0.3,0.6c0.1,0.3,0.1,0.7,0.1,1v3H91.5z"/>
<path class="st0" d="M93.7,85.9c0.3-0.2,0.6-0.3,0.9-0.3c0.3-0.1,0.7-0.1,1-0.1c0.3,0,0.6,0,0.8,0.1c0.2,0.1,0.3,0.2,0.5,0.4
	c0.1,0.1,0.2,0.3,0.2,0.5c0,0.2,0,0.4,0,0.5c0,0.4,0,0.8,0,1.2s0,0.7,0,1.1s0,0.5,0,0.7c0,0.2,0.1,0.4,0.1,0.6h-0.6l-0.2-0.7l0,0
	c-0.1,0.1-0.1,0.2-0.2,0.3c-0.1,0.1-0.2,0.2-0.3,0.2c-0.1,0.1-0.3,0.1-0.4,0.2c-0.2,0-0.4,0.1-0.6,0.1c-0.2,0-0.4,0-0.6-0.1
	c-0.2-0.1-0.3-0.2-0.5-0.3c-0.1-0.1-0.2-0.3-0.3-0.4c-0.1-0.2-0.1-0.4-0.1-0.6c0-0.3,0.1-0.5,0.2-0.7c0.1-0.2,0.3-0.4,0.5-0.5
	c0.2-0.1,0.5-0.2,0.8-0.2c0.3-0.1,0.7-0.1,1-0.1h0.3h0.3c0-0.2,0-0.4,0-0.5c0-0.3,0-0.5-0.2-0.8c-0.2-0.2-0.5-0.3-0.8-0.2H95
	l-0.4,0.1c-0.1,0-0.3,0.1-0.4,0.1c-0.1,0-0.2,0.1-0.3,0.1L93.7,85.9z M95.1,89.9c0.2,0,0.3,0,0.5-0.1c0.1,0,0.3-0.1,0.4-0.2
	c0.1-0.1,0.2-0.2,0.3-0.2c0.1-0.1,0.1-0.2,0.2-0.3v-0.8h-0.6c-0.2,0-0.4,0-0.6,0c-0.2,0-0.3,0.1-0.5,0.1c-0.1,0.1-0.3,0.1-0.4,0.2
	c-0.1,0.1-0.1,0.3-0.1,0.4c0,0.2,0.1,0.4,0.2,0.6C94.6,89.8,94.9,89.9,95.1,89.9L95.1,89.9z"/>
<path class="st0" d="M98.7,84.1c0-0.1,0.1-0.3,0.2-0.4c0.1-0.1,0.2-0.2,0.4-0.2c0.1,0,0.3,0.1,0.4,0.2c0.1,0.1,0.2,0.2,0.2,0.4
	c0,0.1-0.1,0.3-0.2,0.4c-0.1,0.1-0.3,0.2-0.4,0.2c-0.1,0-0.3,0-0.4-0.2C98.7,84.4,98.7,84.2,98.7,84.1z M98.8,85.6h0.8v4.9h-0.8
	V85.6z"/>
<path class="st0" d="M104.5,90.5v-2.8c0-0.4-0.1-0.8-0.2-1.2c-0.2-0.3-0.5-0.4-0.8-0.4c-0.3,0-0.6,0.1-0.9,0.3
	c-0.2,0.2-0.4,0.4-0.5,0.7v3.4h-0.8v-4.9h0.6l0.1,0.6l0,0c0.2-0.2,0.4-0.4,0.6-0.5c0.3-0.1,0.7-0.2,1-0.2c0.2,0,0.5,0,0.7,0.1
	c0.2,0.1,0.4,0.2,0.5,0.3c0.1,0.2,0.2,0.4,0.3,0.6c0.1,0.3,0.1,0.7,0.1,1v3L104.5,90.5z"/>
<polygon class="st1" points="34.3,39.1 42.9,43.9 51.3,39.1 42.9,34.7 "/>
<line class="st1" x1="51.3" y1="48.7" x2="51.3" y2="39.1"/>
<polyline class="st1" points="34.3,39.1 34.3,48.8 42.8,53.8 46.5,51.8 "/>
<line class="st1" x1="42.9" y1="43.9" x2="42.9" y2="53.1"/>
<polygon class="st1" points="78.6,39.1 87.2,43.9 95.7,39.1 87.2,34.7 "/>
<line class="st1" x1="95.6" y1="42.8" x2="95.7" y2="39.1"/>
<polyline class="st1" points="78.6,39.1 78.6,48.8 87.2,53.8 95.5,49.3 95.6,47.8 "/>
<line class="st1" x1="87.2" y1="43.9" x2="87.2" y2="53.1"/>
<polygon class="st1" points="56,56.5 64.6,61.4 73.1,56.5 64.6,52.2 "/>
<polyline class="st1" points="68,69.4 72.9,66.8 73.1,56.5 "/>
<polyline class="st1" points="56,56.5 56,66.3 61.6,69.5 "/>
<line class="st1" x1="64.6" y1="61.4" x2="64.6" y2="66.5"/>
<line class="st1" x1="47.5" y1="46.9" x2="59.4" y2="54.3"/>
<line class="st1" x1="69.2" y1="54.4" x2="82.4" y2="47.4"/>
</svg>
