<?xml version="1.0" encoding="utf-8"?>
<!-- Generator: Adobe Illustrator 23.0.3, SVG Export Plug-In . SVG Version: 6.00 Build 0)  -->
<svg version="1.1" id="Layer_1" xmlns="http://www.w3.org/2000/svg" xmlns:xlink="http://www.w3.org/1999/xlink" x="0px" y="0px"
	 viewBox="0 0 130 130" style="enable-background:new 0 0 130 130;" xml:space="preserve">
<style type="text/css">
	.st0{fill:#FFFFFF;}
	.st1{fill:none;stroke:#FFE161;stroke-width:1.5;stroke-miterlimit:10;}
	.st2{fill:none;stroke:#1EB9D5;stroke-width:1.5;}
</style>
<g>
	<path class="st0" d="M27.1,83.2c0.4-0.1,0.8-0.1,1.2-0.2c0.5,0,0.9-0.1,1.3-0.1c0.4,0,0.8,0,1.2,0.1c0.4,0.1,0.7,0.2,1,0.5
		c0.3,0.2,0.5,0.5,0.7,0.8c0.2,0.3,0.3,0.8,0.3,1.3c0,0.8-0.2,1.4-0.6,1.9c-0.4,0.5-1,0.8-1.6,1l0.7,0.5l2.4,3.9h-1.4l-2.7-4.2
		l-1.4-0.2v4.4h-1.2V83.2z M29.6,84c-0.1,0-0.2,0-0.4,0c-0.1,0-0.3,0-0.4,0c-0.1,0-0.2,0-0.3,0c-0.1,0-0.2,0-0.3,0v3.6h1.1
		c0.6,0,1.2-0.2,1.6-0.5s0.6-0.8,0.6-1.5c0-0.5-0.2-0.9-0.5-1.2C30.7,84.2,30.2,84,29.6,84z"/>
	<path class="st0" d="M39.7,92.4c-0.3,0.2-0.6,0.4-1.1,0.5c-0.4,0.1-0.9,0.2-1.4,0.2c-0.5,0-1-0.1-1.4-0.3s-0.7-0.4-1-0.7
		c-0.3-0.3-0.4-0.7-0.6-1.2c-0.1-0.4-0.2-1-0.2-1.5c0-1.2,0.3-2.1,0.8-2.7c0.5-0.6,1.3-0.9,2.3-0.9c0.3,0,0.6,0,1,0.1
		c0.3,0.1,0.6,0.2,0.9,0.4c0.3,0.2,0.5,0.5,0.6,0.8s0.2,0.8,0.2,1.4c0,0.3,0,0.6-0.1,1h-4.5c0,0.4,0,0.8,0.1,1.1s0.2,0.6,0.4,0.8
		c0.2,0.2,0.4,0.4,0.7,0.5c0.3,0.1,0.6,0.2,1,0.2c0.3,0,0.6-0.1,1-0.2c0.3-0.1,0.6-0.2,0.7-0.4L39.7,92.4z M37.3,86.7
		c-0.6,0-1,0.1-1.3,0.4c-0.3,0.3-0.5,0.8-0.6,1.5h3.5c0-0.7-0.1-1.2-0.4-1.5C38.2,86.9,37.8,86.7,37.3,86.7z"/>
	<path class="st0" d="M40.8,85.9h1.1v-1.4l1.1-0.3v1.7h1.9v1H43v3.9c0,0.5,0.1,0.8,0.2,1c0.1,0.2,0.3,0.3,0.6,0.3
		c0.2,0,0.4,0,0.6-0.1c0.2-0.1,0.4-0.1,0.6-0.2l0.3,0.9c-0.3,0.1-0.5,0.2-0.8,0.3c-0.3,0.1-0.6,0.1-1,0.1c-0.6,0-1-0.2-1.2-0.5
		c-0.2-0.3-0.4-0.9-0.4-1.6v-4.1h-1.1V85.9z"/>
	<path class="st0" d="M46.4,86.4c0.4-0.2,0.8-0.4,1.2-0.5c0.5-0.1,1-0.2,1.5-0.2c0.5,0,0.9,0.1,1.2,0.2s0.5,0.3,0.7,0.5
		s0.3,0.4,0.3,0.7s0.1,0.5,0.1,0.8c0,0.6,0,1.1,0,1.6c0,0.5,0,1,0,1.5c0,0.3,0,0.7,0,1c0,0.3,0.1,0.6,0.2,0.9h-0.8l-0.3-1h-0.1
		c-0.1,0.1-0.2,0.3-0.3,0.4s-0.3,0.2-0.5,0.3c-0.2,0.1-0.4,0.2-0.6,0.2C48.6,93,48.3,93,48,93s-0.6,0-0.8-0.1
		c-0.3-0.1-0.5-0.2-0.7-0.4s-0.3-0.4-0.4-0.6c-0.1-0.2-0.2-0.5-0.2-0.8c0-0.4,0.1-0.8,0.3-1s0.4-0.5,0.7-0.7
		c0.3-0.2,0.7-0.3,1.1-0.3c0.4-0.1,0.9-0.1,1.4-0.1c0.1,0,0.3,0,0.4,0s0.3,0,0.4,0c0-0.3,0-0.5,0-0.8c0-0.5-0.1-0.9-0.3-1.1
		c-0.2-0.2-0.6-0.3-1.1-0.3c-0.2,0-0.3,0-0.5,0c-0.2,0-0.4,0.1-0.6,0.1s-0.4,0.1-0.5,0.2c-0.2,0.1-0.3,0.1-0.5,0.2L46.4,86.4z
		 M48.3,92.1c0.3,0,0.5,0,0.7-0.1c0.2-0.1,0.4-0.2,0.5-0.3c0.1-0.1,0.3-0.2,0.4-0.4c0.1-0.1,0.2-0.3,0.2-0.4v-1.2
		c-0.1,0-0.3,0-0.4,0c-0.1,0-0.3,0-0.4,0c-0.3,0-0.6,0-0.8,0c-0.3,0-0.5,0.1-0.7,0.2s-0.4,0.2-0.5,0.4c-0.1,0.2-0.2,0.3-0.2,0.6
		c0,0.3,0.1,0.6,0.4,0.8C47.7,92,48,92.1,48.3,92.1z"/>
	<path class="st0" d="M53.4,83.8c0-0.2,0.1-0.4,0.2-0.6c0.1-0.2,0.3-0.2,0.6-0.2c0.2,0,0.4,0.1,0.6,0.2c0.2,0.2,0.2,0.3,0.2,0.6
		s-0.1,0.4-0.2,0.5c-0.2,0.1-0.4,0.2-0.6,0.2c-0.2,0-0.4-0.1-0.6-0.2C53.5,84.2,53.4,84,53.4,83.8z M53.6,85.9h1.1v7h-1.1V85.9z"/>
	<path class="st0" d="M58.4,91.2c0,0.3,0.1,0.6,0.2,0.7c0.1,0.1,0.3,0.2,0.5,0.2c0.1,0,0.3,0,0.4,0c0.1,0,0.3-0.1,0.5-0.1l0.1,0.9
		c-0.1,0.1-0.4,0.1-0.6,0.2c-0.3,0-0.5,0.1-0.7,0.1c-0.4,0-0.8-0.1-1-0.4c-0.3-0.2-0.4-0.6-0.4-1.2v-8.4h1.1V91.2z"/>
	<path class="st0" d="M69.5,90.4c0-0.4-0.1-0.7-0.3-1c-0.2-0.2-0.5-0.5-0.9-0.7c-0.3-0.2-0.7-0.4-1.1-0.5c-0.4-0.2-0.8-0.4-1.1-0.6
		c-0.4-0.2-0.6-0.5-0.9-0.9c-0.2-0.4-0.4-0.8-0.4-1.3c0-0.8,0.3-1.4,0.8-1.8s1.3-0.7,2.3-0.7c0.6,0,1.1,0,1.6,0.1s0.8,0.2,1.1,0.3
		l-0.3,1c-0.2-0.1-0.5-0.2-0.9-0.3C68.8,84,68.3,84,67.8,84c-0.6,0-1.1,0.1-1.4,0.4S66,85,66,85.4c0,0.4,0.1,0.7,0.4,0.9
		c0.2,0.2,0.5,0.5,0.9,0.7c0.4,0.2,0.7,0.4,1.1,0.6c0.4,0.2,0.8,0.4,1.1,0.7c0.3,0.2,0.6,0.5,0.9,0.9s0.3,0.8,0.3,1.3
		c0,0.4-0.1,0.8-0.2,1.1s-0.4,0.6-0.7,0.9s-0.6,0.4-1,0.6c-0.4,0.1-0.9,0.2-1.4,0.2c-0.7,0-1.3-0.1-1.7-0.2s-0.8-0.2-1.1-0.4l0.4-1
		c0.2,0.1,0.5,0.2,1,0.3c0.4,0.1,0.9,0.2,1.4,0.2c0.3,0,0.6,0,0.9-0.1s0.5-0.2,0.7-0.3s0.4-0.3,0.5-0.5C69.5,91,69.5,90.7,69.5,90.4
		z"/>
	<path class="st0" d="M76.9,92.9v-4c0-0.4,0-0.7-0.1-1s-0.1-0.5-0.2-0.7c-0.1-0.2-0.3-0.3-0.5-0.4c-0.2-0.1-0.4-0.1-0.7-0.1
		c-0.4,0-0.8,0.1-1.2,0.4c-0.4,0.3-0.6,0.7-0.7,1.1v4.7h-1.1v-9.8h1.1v3.6h0.1c0.2-0.3,0.5-0.5,0.9-0.7s0.8-0.3,1.3-0.3
		c0.4,0,0.7,0,1,0.1s0.5,0.2,0.7,0.5c0.2,0.2,0.3,0.5,0.4,0.9c0.1,0.4,0.1,0.9,0.1,1.4v4.2H76.9z"/>
	<path class="st0" d="M79.7,89.4c0-1.2,0.3-2.1,0.8-2.7s1.3-0.9,2.3-0.9c0.5,0,1,0.1,1.4,0.3c0.4,0.2,0.7,0.4,1,0.7s0.4,0.7,0.6,1.2
		s0.2,1,0.2,1.5c0,1.2-0.3,2.1-0.8,2.7s-1.3,0.9-2.3,0.9c-0.5,0-1-0.1-1.4-0.3s-0.7-0.4-1-0.7s-0.4-0.7-0.6-1.2
		C79.7,90.5,79.7,90,79.7,89.4z M80.8,89.4c0,0.4,0,0.7,0.1,1c0.1,0.3,0.2,0.6,0.3,0.9c0.1,0.2,0.3,0.4,0.6,0.6
		c0.2,0.1,0.5,0.2,0.9,0.2c1.3,0,1.9-0.9,1.9-2.7c0-0.4,0-0.7-0.1-1c-0.1-0.3-0.2-0.6-0.3-0.9c-0.1-0.2-0.3-0.4-0.6-0.6
		c-0.2-0.1-0.5-0.2-0.9-0.2C81.5,86.7,80.8,87.6,80.8,89.4z"/>
	<path class="st0" d="M87.6,85.9h0.8l0.2,0.8h0.1c0.2-0.3,0.5-0.6,0.8-0.7s0.7-0.3,1.2-0.3c0.9,0,1.6,0.3,2.1,0.8s0.7,1.5,0.7,2.7
		c0,0.6-0.1,1.1-0.2,1.6c-0.2,0.5-0.4,0.9-0.7,1.2c-0.3,0.3-0.6,0.6-1,0.8c-0.4,0.2-0.8,0.3-1.3,0.3c-0.3,0-0.6,0-0.8-0.1
		c-0.2,0-0.4-0.1-0.7-0.2v2.9h-1.1V85.9z M90.4,86.7c-0.5,0-0.9,0.1-1.1,0.4c-0.3,0.2-0.5,0.6-0.6,1.1v3.5c0.2,0.1,0.4,0.2,0.6,0.3
		s0.5,0.1,0.9,0.1c0.6,0,1.2-0.2,1.5-0.7c0.4-0.5,0.6-1.2,0.6-2.1c0-0.4,0-0.7-0.1-1c-0.1-0.3-0.2-0.6-0.3-0.8
		c-0.1-0.2-0.3-0.4-0.6-0.5S90.7,86.7,90.4,86.7z"/>
	<path class="st0" d="M98.2,91c0-0.3-0.1-0.5-0.3-0.7c-0.2-0.2-0.4-0.3-0.6-0.4c-0.2-0.1-0.5-0.2-0.8-0.3c-0.3-0.1-0.6-0.2-0.8-0.4
		c-0.2-0.2-0.5-0.4-0.6-0.6c-0.2-0.2-0.3-0.6-0.3-1c0-0.7,0.2-1.2,0.6-1.5c0.4-0.3,0.9-0.5,1.6-0.5c0.5,0,0.9,0,1.3,0.1
		s0.6,0.2,0.9,0.3l-0.3,0.9c-0.2-0.1-0.5-0.2-0.8-0.3c-0.3-0.1-0.6-0.1-1-0.1c-0.4,0-0.7,0.1-0.9,0.2c-0.2,0.1-0.3,0.4-0.3,0.7
		c0,0.2,0.1,0.4,0.3,0.6c0.2,0.1,0.4,0.3,0.6,0.4c0.2,0.1,0.5,0.2,0.8,0.3s0.6,0.2,0.8,0.4c0.2,0.2,0.5,0.4,0.6,0.6s0.3,0.6,0.3,1
		c0,0.3,0,0.6-0.1,0.8c-0.1,0.3-0.2,0.5-0.5,0.7s-0.5,0.3-0.8,0.4c-0.3,0.1-0.7,0.2-1.1,0.2c-0.5,0-1-0.1-1.4-0.2
		c-0.4-0.1-0.7-0.2-0.9-0.4l0.3-1c0.2,0.1,0.5,0.2,0.8,0.3s0.7,0.2,1,0.2c0.4,0,0.7-0.1,1-0.2C98.1,91.7,98.2,91.4,98.2,91z"/>
	<path class="st0" d="M108.3,83l0.9,0.4l-5.1,11.5l-0.9-0.4L108.3,83z"/>
	<path class="st0" d="M54.8,109.3c-0.3,0.2-0.6,0.4-1.1,0.4s-0.9,0.1-1.4,0.1c-0.6,0-1.1-0.1-1.7-0.3c-0.5-0.2-1-0.5-1.3-0.9
		c-0.4-0.4-0.7-0.9-0.9-1.6s-0.3-1.4-0.3-2.3c0-0.9,0.1-1.7,0.4-2.3c0.2-0.6,0.6-1.2,1-1.6c0.4-0.4,0.9-0.7,1.4-0.9
		c0.5-0.2,1-0.3,1.5-0.3c0.6,0,1,0,1.4,0.1c0.4,0.1,0.7,0.1,0.9,0.2l-0.3,1c-0.4-0.2-1.1-0.3-1.9-0.3c-0.4,0-0.8,0.1-1.1,0.2
		c-0.4,0.1-0.7,0.4-1,0.7c-0.3,0.3-0.5,0.7-0.7,1.2c-0.2,0.5-0.3,1.1-0.3,1.9c0,0.7,0.1,1.3,0.3,1.8s0.4,0.9,0.7,1.3s0.6,0.6,1,0.8
		c0.4,0.2,0.8,0.3,1.3,0.3c0.4,0,0.8,0,1.1-0.1c0.3-0.1,0.6-0.2,0.8-0.3L54.8,109.3z"/>
	<path class="st0" d="M60.9,109.7v-4c0-0.4,0-0.7-0.1-1s-0.1-0.5-0.2-0.7c-0.1-0.2-0.3-0.3-0.5-0.4c-0.2-0.1-0.4-0.1-0.7-0.1
		c-0.4,0-0.8,0.1-1.2,0.4c-0.4,0.3-0.6,0.7-0.7,1.1v4.7h-1.1v-9.8h1.1v3.6h0.1c0.2-0.3,0.5-0.5,0.9-0.7s0.8-0.3,1.3-0.3
		c0.4,0,0.7,0,1,0.1c0.3,0.1,0.5,0.2,0.7,0.5c0.2,0.2,0.3,0.5,0.4,0.9c0.1,0.4,0.1,0.9,0.1,1.4v4.2H60.9z"/>
	<path class="st0" d="M63.9,103.2c0.4-0.2,0.8-0.4,1.2-0.5c0.5-0.1,1-0.2,1.5-0.2c0.5,0,0.9,0.1,1.2,0.2s0.5,0.3,0.7,0.5
		c0.2,0.2,0.3,0.4,0.3,0.7c0.1,0.3,0.1,0.5,0.1,0.8c0,0.6,0,1.1,0,1.6c0,0.5,0,1,0,1.5c0,0.3,0,0.7,0,1c0,0.3,0.1,0.6,0.2,0.9h-0.8
		l-0.3-1h-0.1c-0.1,0.1-0.2,0.3-0.3,0.4s-0.3,0.2-0.5,0.3c-0.2,0.1-0.4,0.2-0.6,0.2c-0.2,0.1-0.5,0.1-0.8,0.1s-0.6,0-0.8-0.1
		c-0.3-0.1-0.5-0.2-0.7-0.4s-0.3-0.4-0.4-0.6c-0.1-0.2-0.2-0.5-0.2-0.8c0-0.4,0.1-0.8,0.3-1s0.4-0.5,0.7-0.7
		c0.3-0.2,0.7-0.3,1.1-0.3c0.4-0.1,0.9-0.1,1.4-0.1c0.1,0,0.3,0,0.4,0s0.3,0,0.4,0c0-0.3,0-0.5,0-0.8c0-0.5-0.1-0.9-0.3-1.1
		c-0.2-0.2-0.6-0.3-1.1-0.3c-0.2,0-0.3,0-0.5,0c-0.2,0-0.4,0.1-0.6,0.1s-0.4,0.1-0.5,0.2c-0.2,0.1-0.3,0.1-0.5,0.2L63.9,103.2z
		 M65.9,108.9c0.3,0,0.5,0,0.7-0.1c0.2-0.1,0.4-0.2,0.5-0.3c0.1-0.1,0.3-0.2,0.4-0.4s0.2-0.3,0.2-0.4v-1.2c-0.1,0-0.3,0-0.4,0
		c-0.1,0-0.3,0-0.4,0c-0.3,0-0.6,0-0.8,0c-0.3,0-0.5,0.1-0.7,0.2s-0.4,0.2-0.5,0.4c-0.1,0.2-0.2,0.3-0.2,0.6c0,0.3,0.1,0.6,0.4,0.8
		C65.3,108.8,65.6,108.9,65.9,108.9z"/>
	<path class="st0" d="M71,100.6c0-0.2,0.1-0.4,0.2-0.6c0.1-0.2,0.3-0.2,0.6-0.2c0.2,0,0.4,0.1,0.6,0.2c0.2,0.2,0.2,0.3,0.2,0.6
		s-0.1,0.4-0.2,0.5c-0.2,0.1-0.3,0.2-0.6,0.2c-0.2,0-0.4-0.1-0.6-0.2C71.1,101,71,100.8,71,100.6z M71.2,102.7h1.1v7h-1.1V102.7z"/>
	<path class="st0" d="M79.2,109.7v-4c0-0.7-0.1-1.3-0.3-1.6c-0.2-0.4-0.6-0.6-1.2-0.6c-0.5,0-0.9,0.1-1.2,0.4
		c-0.3,0.3-0.5,0.6-0.7,1v4.8h-1.1v-7h0.8l0.2,0.9h0.1c0.2-0.3,0.5-0.5,0.9-0.7s0.8-0.3,1.4-0.3c0.4,0,0.7,0,1,0.1
		c0.3,0.1,0.5,0.2,0.7,0.5c0.2,0.2,0.3,0.5,0.4,0.9c0.1,0.4,0.1,0.9,0.1,1.4v4.2H79.2z"/>
	<path class="st0" d="M85.5,107.8c0-0.3-0.1-0.5-0.3-0.7c-0.2-0.2-0.4-0.3-0.6-0.4c-0.2-0.1-0.5-0.2-0.8-0.3
		c-0.3-0.1-0.6-0.2-0.8-0.4c-0.2-0.2-0.5-0.4-0.6-0.6c-0.2-0.2-0.3-0.6-0.3-1c0-0.7,0.2-1.2,0.6-1.5c0.4-0.3,0.9-0.5,1.6-0.5
		c0.5,0,0.9,0,1.3,0.1s0.6,0.2,0.9,0.3l-0.3,0.9c-0.2-0.1-0.5-0.2-0.8-0.3c-0.3-0.1-0.6-0.1-1-0.1c-0.4,0-0.7,0.1-0.9,0.2
		c-0.2,0.1-0.3,0.4-0.3,0.7c0,0.2,0.1,0.4,0.3,0.6c0.2,0.1,0.4,0.3,0.6,0.4c0.2,0.1,0.5,0.2,0.8,0.3s0.6,0.2,0.8,0.4
		c0.2,0.2,0.5,0.4,0.6,0.6s0.3,0.6,0.3,1c0,0.3,0,0.6-0.1,0.8c-0.1,0.3-0.2,0.5-0.5,0.7s-0.5,0.3-0.8,0.4c-0.3,0.1-0.7,0.2-1.1,0.2
		c-0.5,0-1-0.1-1.4-0.2c-0.4-0.1-0.7-0.2-0.9-0.4l0.3-1c0.2,0.1,0.5,0.2,0.8,0.3s0.7,0.2,1,0.2c0.4,0,0.7-0.1,1-0.2
		C85.4,108.5,85.5,108.2,85.5,107.8z"/>
</g>
<title>globe8</title>
<polygon class="st1" points="84.4,32.9 45,32.9 47.2,28.9 82.2,28.9 "/>
<polyline class="st2" points="62.3,71.4 45,71.4 45,40.6 "/>
<polyline class="st2" points="84.4,40.6 84.4,71.4 69.3,71.4 "/>
<polyline class="st2" points="80.4,38.8 80.4,62.1 48.7,62.1 48.7,38.4 "/>
<line class="st1" x1="38.8" y1="36.3" x2="45.1" y2="32.8"/>
<line class="st1" x1="84.2" y1="32.8" x2="89.9" y2="36.5"/>
<path class="st1" d="M49.3,36.6c0,5.1-10.1,4.9-10.1-0.2l50.4,0.2c0,5.1-10.1,5.3-10.1,0.3"/>
<path class="st1" d="M59.5,37c0,5.1-10.1,4.5-10.1-0.6"/>
<path class="st1" d="M69.5,37c0,5.1-10.1,4.9-10.1-0.2"/>
<path class="st1" d="M79.6,37c0,5.1-10.1,4.9-10.1-0.2"/>
</svg>
