<svg xmlns="http://www.w3.org/2000/svg" viewBox="0 0 63.83 109.92"><defs><style>.a{fill:#ffe161;}.b{fill:none;stroke:#17bad6;stroke-linecap:round;stroke-linejoin:round;stroke-width:2px;fill-rule:evenodd;}.c{fill:#17bad6;}</style></defs><title>Asset 1</title><path class="a" d="M15.33,102l-.91-1.7h-.07l.17,1.7v7.72H13.21v-12H14l5.65,7.88.87,1.61h.09l-.19-1.61V97.92h1.32v12h-.75Z"/><path class="a" d="M28.53,103.84h4V109a3.27,3.27,0,0,1-.65.37,5.92,5.92,0,0,1-.81.29,7.8,7.8,0,0,1-.89.17,7,7,0,0,1-.9.06,5.79,5.79,0,0,1-2.08-.36,4.23,4.23,0,0,1-1.63-1.11,5.27,5.27,0,0,1-1.08-1.91,8.53,8.53,0,0,1-.39-2.72,7.56,7.56,0,0,1,.47-2.8,5.68,5.68,0,0,1,1.23-1.9,5,5,0,0,1,1.71-1.07,5.7,5.7,0,0,1,1.89-.33,9.55,9.55,0,0,1,1.66.11,5.49,5.49,0,0,1,1.12.29l-.36,1.25a5.29,5.29,0,0,0-2.31-.4,4.25,4.25,0,0,0-1.4.24,3.2,3.2,0,0,0-1.26.82,4.38,4.38,0,0,0-.91,1.5,6.38,6.38,0,0,0-.35,2.29,7.31,7.31,0,0,0,.28,2.16,4.34,4.34,0,0,0,.8,1.51,3.26,3.26,0,0,0,1.24.89,4,4,0,0,0,1.57.29,3.76,3.76,0,0,0,1.84-.42V105l-2.75-.34Z"/><path class="a" d="M34.38,103.82a7.1,7.1,0,0,1,1.25-4.53,4.25,4.25,0,0,1,3.55-1.57,4.84,4.84,0,0,1,2.16.44,4,4,0,0,1,1.51,1.23,5.44,5.44,0,0,1,.88,1.93,10.1,10.1,0,0,1,.29,2.5,7.19,7.19,0,0,1-1.25,4.53,4.33,4.33,0,0,1-3.59,1.57,4.71,4.71,0,0,1-2.13-.44,4,4,0,0,1-1.5-1.24,5.31,5.31,0,0,1-.88-1.92A9.64,9.64,0,0,1,34.38,103.82Zm1.48,0a8.46,8.46,0,0,0,.2,1.85,4.86,4.86,0,0,0,.59,1.55,3.29,3.29,0,0,0,1,1.06,2.78,2.78,0,0,0,1.49.39,2.89,2.89,0,0,0,2.46-1.18,6.1,6.1,0,0,0,.9-3.67,8.6,8.6,0,0,0-.2-1.85,5.11,5.11,0,0,0-.6-1.55,3.43,3.43,0,0,0-1.05-1.06A2.8,2.8,0,0,0,39.18,99a2.86,2.86,0,0,0-2.43,1.18A6.18,6.18,0,0,0,35.86,103.82Z"/><path class="a" d="M50,107.43a1.07,1.07,0,0,0-.3-.8,2.68,2.68,0,0,0-.75-.48c-.3-.12-.63-.25-1-.37a4.6,4.6,0,0,1-1-.45,2.57,2.57,0,0,1-.75-.72,2,2,0,0,1-.3-1.18,2.17,2.17,0,0,1,.69-1.78,3,3,0,0,1,1.92-.56,5.65,5.65,0,0,1,2.6.54l-.32,1.11a6,6,0,0,0-.94-.33,4.81,4.81,0,0,0-1.17-.14,1.87,1.87,0,0,0-1.09.25,1,1,0,0,0-.34.88.83.83,0,0,0,.3.68,3.3,3.3,0,0,0,.75.44c.3.13.62.26,1,.38a4.28,4.28,0,0,1,1,.49,3,3,0,0,1,.75.76,2.24,2.24,0,0,1,.3,1.23,2.83,2.83,0,0,1-.18,1,2.12,2.12,0,0,1-.55.81,2.7,2.7,0,0,1-.91.53,3.89,3.89,0,0,1-1.29.19,6.47,6.47,0,0,1-1.64-.18,5.55,5.55,0,0,1-1.13-.44l.41-1.15a4.77,4.77,0,0,0,1,.41,4.46,4.46,0,0,0,1.26.18,2.29,2.29,0,0,0,1.2-.28A1.13,1.13,0,0,0,50,107.43Z"/><path class="b" d="M1,61.94s15.28-1.18,23.72.25a83.58,83.58,0,0,0,14.19,1.4c5.53,0,6.34,6.47-.35,6.88-4.55.29-8.56.42-9.46.42a96.12,96.12,0,0,0,12.18.91,20.43,20.43,0,0,0,8.49-2c3-1.46,5.63-3.71,7.51-5,1.34-.93,3.34-2,4.72-.27,1.52,1.86.85,3.75-1.1,5.56a53.61,53.61,0,0,1-7.79,6.26,35.13,35.13,0,0,1-11,4.59c-6.53,1.35-15.86-.78-24.43-2.36A71.08,71.08,0,0,0,1,77.72V70"/><path class="b" d="M52.69,4.62a70.27,70.27,0,0,0,10.14.07V20.47s-15.28,1.18-23.71-.25a84.37,84.37,0,0,0-14.2-1.39c-5.53,0-6.33-6.48.35-6.89,4.56-.29,8.56-.42,9.46-.42a95.86,95.86,0,0,0-12.17-.91,20.39,20.39,0,0,0-8.49,2c-3,1.46-5.64,3.71-7.52,5-1.33.93-3.34,1.95-4.72.27C.32,16,1,14.09,2.93,12.28A53.74,53.74,0,0,1,10.73,6a35.08,35.08,0,0,1,11-4.59c5.87-1.22,14,.39,21.81,1.87"/><path class="c" d="M31.92,30.58A9.44,9.44,0,1,1,22.47,40a9.44,9.44,0,0,1,9.45-9.44m0-2A11.44,11.44,0,1,0,43.36,40,11.46,11.46,0,0,0,31.92,28.58Z"/></svg>