<svg xmlns="http://www.w3.org/2000/svg" viewBox="0 0 181.42 114.48"><defs><style>.a{fill:#ffe161;}.b{fill:none;stroke:#1eb9d5;stroke-linecap:round;stroke-linejoin:round;stroke-width:2px;}</style></defs><title>Asset 9</title><path class="a" d="M0,99.11H6.42v1.25h-5v3.86H6v1.24H1.4v4.2H6.51v1.25H0Z"/><path class="a" d="M11.11,106.59l-2.83-4.11H9.93l1.6,2.33.47,1,.49-1,1.64-2.33h1.51l-2.85,4,3,4.38h-1.6l-1.79-2.56-.5-1-.53,1-1.82,2.56H8.07Z"/><path class="a" d="M22.92,110.35a3.56,3.56,0,0,1-1.19.57,5.34,5.34,0,0,1-1.45.19,3.89,3.89,0,0,1-1.65-.31,2.87,2.87,0,0,1-1.11-.9,3.85,3.85,0,0,1-.62-1.39,7.86,7.86,0,0,1-.2-1.82,5,5,0,0,1,.95-3.27,3.32,3.32,0,0,1,2.71-1.14,6.81,6.81,0,0,1,1.38.12,4.56,4.56,0,0,1,1,.37l-.39,1.16a3.87,3.87,0,0,0-.86-.35,4.11,4.11,0,0,0-1-.12c-1.6,0-2.4,1.08-2.4,3.23a6.1,6.1,0,0,0,.13,1.23,2.82,2.82,0,0,0,.42,1,2.25,2.25,0,0,0,.78.72,2.38,2.38,0,0,0,1.19.27,3.06,3.06,0,0,0,1.08-.18,3.42,3.42,0,0,0,.79-.43Z"/><path class="a" d="M30.19,110.91V106.1a7.78,7.78,0,0,0-.08-1.15,2.32,2.32,0,0,0-.27-.83,1.3,1.3,0,0,0-.55-.49,2,2,0,0,0-.9-.17A2.26,2.26,0,0,0,27,104a2.33,2.33,0,0,0-.82,1.32v5.62H24.78V99.11h1.35v4.31h.06a3.58,3.58,0,0,1,1.06-.83,3.32,3.32,0,0,1,1.52-.31,4,4,0,0,1,1.23.16,1.76,1.76,0,0,1,.87.56,2.57,2.57,0,0,1,.51,1.09,8.14,8.14,0,0,1,.16,1.73v5.09Z"/><path class="a" d="M33.86,103.1a5,5,0,0,1,1.5-.57,8.5,8.5,0,0,1,1.77-.19,3.44,3.44,0,0,1,1.41.24,1.93,1.93,0,0,1,.81.62,2,2,0,0,1,.37.83,4.68,4.68,0,0,1,.09.91c0,.67,0,1.33-.05,2s0,1.25,0,1.82c0,.42,0,.81,0,1.18a6.09,6.09,0,0,0,.19,1H39l-.35-1.18h-.08a3.92,3.92,0,0,1-.38.47,2.88,2.88,0,0,1-.55.4,3.09,3.09,0,0,1-.74.29,3.5,3.5,0,0,1-1,.12,2.78,2.78,0,0,1-1-.17,2.31,2.31,0,0,1-.8-.48,2.17,2.17,0,0,1-.53-.75,2.4,2.4,0,0,1-.19-1,2.35,2.35,0,0,1,.3-1.24,2.16,2.16,0,0,1,.85-.79,4.1,4.1,0,0,1,1.32-.42,9.75,9.75,0,0,1,1.69-.13H38a3.71,3.71,0,0,1,.47,0c0-.33,0-.64,0-.91a1.82,1.82,0,0,0-.37-1.29,1.9,1.9,0,0,0-1.35-.37,4.59,4.59,0,0,0-.62,0l-.67.12a6.36,6.36,0,0,0-.66.19,4.08,4.08,0,0,0-.55.25Zm2.4,6.76a2.75,2.75,0,0,0,.84-.12,2.55,2.55,0,0,0,.64-.32,2.32,2.32,0,0,0,.45-.43,2.41,2.41,0,0,0,.26-.46v-1.4l-.48,0h-.48a8.47,8.47,0,0,0-1,.06,3.15,3.15,0,0,0-.88.22,1.6,1.6,0,0,0-.61.43,1.09,1.09,0,0,0-.22.7,1.24,1.24,0,0,0,.42,1A1.52,1.52,0,0,0,36.26,109.86Z"/><path class="a" d="M47.77,110.91V106.1a4.16,4.16,0,0,0-.38-2,1.46,1.46,0,0,0-1.39-.66,2.25,2.25,0,0,0-1.48.48,2.55,2.55,0,0,0-.81,1.2v5.77H42.36v-8.43h.94l.26,1h.06a3.11,3.11,0,0,1,1.09-.89,3.6,3.6,0,0,1,1.63-.34,4,4,0,0,1,1.21.16,1.76,1.76,0,0,1,.87.56,2.7,2.7,0,0,1,.52,1.09,6.9,6.9,0,0,1,.18,1.73v5.09Z"/><path class="a" d="M58,111.3a3.07,3.07,0,0,1-.87,2.41,3.79,3.79,0,0,1-2.57.77,7.92,7.92,0,0,1-1.63-.13,4.84,4.84,0,0,1-1-.32l.35-1.15c.26.1.55.2.86.29a5.78,5.78,0,0,0,2.39,0,1.55,1.55,0,0,0,.71-.43,1.52,1.52,0,0,0,.37-.75,5.13,5.13,0,0,0,.1-1.11v-.81h-.06a2.21,2.21,0,0,1-.86.75,3,3,0,0,1-1.37.26,2.92,2.92,0,0,1-2.5-1.06,5.46,5.46,0,0,1-.8-3.3,4.68,4.68,0,0,1,1-3.28,3.88,3.88,0,0,1,3-1.12,7.7,7.7,0,0,1,1.64.15,9.68,9.68,0,0,1,1.23.35Zm-3.39-1.39a2,2,0,0,0,1.35-.43,2.47,2.47,0,0,0,.69-1.34v-4.31a3.94,3.94,0,0,0-1.72-.32,2.26,2.26,0,0,0-1.81.77,3.77,3.77,0,0,0-.65,2.43,7.42,7.42,0,0,0,.11,1.3,3.17,3.17,0,0,0,.38,1,1.79,1.79,0,0,0,.65.66A2,2,0,0,0,54.65,109.91Z"/><path class="a" d="M66.78,110.23a3.61,3.61,0,0,1-1.27.64,5.4,5.4,0,0,1-1.63.24,4,4,0,0,1-1.66-.31,3,3,0,0,1-1.17-.9,3.75,3.75,0,0,1-.67-1.39,6.77,6.77,0,0,1-.22-1.82,4.94,4.94,0,0,1,1-3.28,3.39,3.39,0,0,1,2.75-1.13,5.52,5.52,0,0,1,1.14.12,2.64,2.64,0,0,1,1,.48,2.53,2.53,0,0,1,.74,1,4.28,4.28,0,0,1,.29,1.71,8,8,0,0,1-.1,1.23H61.56a5.19,5.19,0,0,0,.15,1.31,2.51,2.51,0,0,0,.47,1,2,2,0,0,0,.84.61,3.3,3.3,0,0,0,1.25.21,3.57,3.57,0,0,0,1.15-.2,2.53,2.53,0,0,0,.86-.47Zm-2.9-6.77a2.33,2.33,0,0,0-1.59.52,2.61,2.61,0,0,0-.72,1.79h4.19a2.62,2.62,0,0,0-.49-1.8A1.84,1.84,0,0,0,63.88,103.46Z"/><path class="a" d="M80.89,105.5H75.23v5.41h-1.4V99.11h1.4v5.14h5.66V99.11h1.4v11.8h-1.4Z"/><path class="a" d="M84.55,106.69a5,5,0,0,1,1-3.27,3.38,3.38,0,0,1,2.74-1.14,3.93,3.93,0,0,1,1.64.31,3,3,0,0,1,1.16.89,3.88,3.88,0,0,1,.67,1.4,6.85,6.85,0,0,1,.22,1.81A5,5,0,0,1,91,110a3.36,3.36,0,0,1-2.74,1.14,3.93,3.93,0,0,1-1.64-.31,3,3,0,0,1-1.16-.9,3.75,3.75,0,0,1-.67-1.39A6.88,6.88,0,0,1,84.55,106.69Zm1.4,0a5.46,5.46,0,0,0,.13,1.23,3.07,3.07,0,0,0,.39,1,2.1,2.1,0,0,0,.71.71,2,2,0,0,0,1.06.27c1.53,0,2.29-1.07,2.29-3.24a6.21,6.21,0,0,0-.12-1.24,3.31,3.31,0,0,0-.4-1,2,2,0,0,0-.71-.7,2,2,0,0,0-1.06-.26C86.71,103.45,86,104.53,86,106.69Z"/><path class="a" d="M95.27,102.48v4.8a7.82,7.82,0,0,0,.08,1.16,2.2,2.2,0,0,0,.26.82,1.2,1.2,0,0,0,.5.5,1.8,1.8,0,0,0,.81.17,2.21,2.21,0,0,0,.81-.14,2.05,2.05,0,0,0,.63-.4,2.74,2.74,0,0,0,.49-.58,3.52,3.52,0,0,0,.35-.7v-5.63h1.35v6c0,.41,0,.83,0,1.26a8.45,8.45,0,0,0,.14,1.14h-.92l-.34-1.33h-.09a3.38,3.38,0,0,1-1,1.09,3,3,0,0,1-1.67.44,3.9,3.9,0,0,1-1.19-.16,1.85,1.85,0,0,1-.86-.56,2.77,2.77,0,0,1-.52-1.09,7,7,0,0,1-.18-1.73v-5.09Z"/><path class="a" d="M106.85,108.62a1.06,1.06,0,0,0-.3-.8,2.84,2.84,0,0,0-.75-.48c-.3-.13-.63-.25-1-.37a5.15,5.15,0,0,1-1-.45,2.57,2.57,0,0,1-.75-.72,2,2,0,0,1-.3-1.18,2.17,2.17,0,0,1,.69-1.78,3,3,0,0,1,1.92-.56,6,6,0,0,1,1.53.16,5.33,5.33,0,0,1,1.07.38l-.32,1.11a6,6,0,0,0-.94-.33,4.87,4.87,0,0,0-1.17-.14,1.85,1.85,0,0,0-1.09.25,1,1,0,0,0-.34.88.83.83,0,0,0,.3.68,3.3,3.3,0,0,0,.75.44c.3.13.62.25,1,.38a3.91,3.91,0,0,1,1,.49,2.86,2.86,0,0,1,.75.76,2.23,2.23,0,0,1,.3,1.22,2.88,2.88,0,0,1-.18,1,2.12,2.12,0,0,1-.55.81,2.7,2.7,0,0,1-.91.53,3.89,3.89,0,0,1-1.29.19,6,6,0,0,1-1.64-.19,4.86,4.86,0,0,1-1.13-.43l.41-1.15a4.77,4.77,0,0,0,1,.41,4.46,4.46,0,0,0,1.26.18,2.32,2.32,0,0,0,1.2-.29A1.1,1.1,0,0,0,106.85,108.62Z"/><path class="a" d="M116.39,110.23a3.7,3.7,0,0,1-1.27.64,5.45,5.45,0,0,1-1.63.24,4.11,4.11,0,0,1-1.67-.31,3,3,0,0,1-1.16-.9,3.75,3.75,0,0,1-.67-1.39,6.77,6.77,0,0,1-.22-1.82,4.94,4.94,0,0,1,1-3.28,3.37,3.37,0,0,1,2.74-1.13,5.54,5.54,0,0,1,1.15.12,2.71,2.71,0,0,1,1,.48,2.63,2.63,0,0,1,.74,1,4.28,4.28,0,0,1,.29,1.71,9.51,9.51,0,0,1-.1,1.23h-5.41a5.19,5.19,0,0,0,.15,1.31,2.51,2.51,0,0,0,.47,1,2,2,0,0,0,.83.61,3.39,3.39,0,0,0,1.26.21,3.62,3.62,0,0,0,1.15-.2,2.63,2.63,0,0,0,.86-.47Zm-2.9-6.77a2.33,2.33,0,0,0-1.59.52,2.61,2.61,0,0,0-.72,1.79h4.18a2.57,2.57,0,0,0-.49-1.8A1.8,1.8,0,0,0,113.49,103.46Z"/><path class="a" d="M122.51,108.62a1.06,1.06,0,0,0-.3-.8,2.84,2.84,0,0,0-.75-.48c-.3-.13-.63-.25-1-.37a5.15,5.15,0,0,1-1-.45,2.57,2.57,0,0,1-.75-.72,2,2,0,0,1-.3-1.18,2.17,2.17,0,0,1,.69-1.78,3,3,0,0,1,1.92-.56,6,6,0,0,1,1.53.16,5.33,5.33,0,0,1,1.07.38l-.32,1.11a6,6,0,0,0-.94-.33,4.87,4.87,0,0,0-1.17-.14,1.85,1.85,0,0,0-1.09.25,1,1,0,0,0-.34.88.83.83,0,0,0,.3.68,3.3,3.3,0,0,0,.75.44c.3.13.62.25,1,.38a3.91,3.91,0,0,1,1,.49,2.68,2.68,0,0,1,.74.76,2.14,2.14,0,0,1,.31,1.22,2.88,2.88,0,0,1-.18,1,2.12,2.12,0,0,1-.55.81,2.65,2.65,0,0,1-.92.53,3.79,3.79,0,0,1-1.28.19,6,6,0,0,1-1.64-.19,4.86,4.86,0,0,1-1.13-.43l.41-1.15a4.77,4.77,0,0,0,1,.41,4.46,4.46,0,0,0,1.26.18,2.32,2.32,0,0,0,1.2-.29A1.1,1.1,0,0,0,122.51,108.62Z"/><path class="a" d="M134.63,98.91l1.06.47-6.15,13.89-1.06-.47Z"/><path class="a" d="M148.11,101.81a3,3,0,0,1-.13.86,3.06,3.06,0,0,1-.4.81,2.8,2.8,0,0,1-.7.67,3.2,3.2,0,0,1-1,.44v.06a4.53,4.53,0,0,1,1,.29,2.72,2.72,0,0,1,.82.56,2.8,2.8,0,0,1,.57.86,3,3,0,0,1,.22,1.19,3.1,3.1,0,0,1-1.38,2.67,4.24,4.24,0,0,1-1.4.62,6.31,6.31,0,0,1-1.62.2h-.68l-.8,0-.85-.07a4.51,4.51,0,0,1-.74-.13V99.21c.42-.07.9-.12,1.45-.17s1.15-.07,1.8-.07a8.75,8.75,0,0,1,1.34.11,4,4,0,0,1,1.24.42,2.64,2.64,0,0,1,.92.87A2.6,2.6,0,0,1,148.11,101.81Zm-4.83,2.49.69,0a5.6,5.6,0,0,0,.67,0,4.71,4.71,0,0,0,.76-.33,2.66,2.66,0,0,0,.63-.45,2,2,0,0,0,.44-.61,1.71,1.71,0,0,0,.16-.75,1.84,1.84,0,0,0-.21-.92,1.73,1.73,0,0,0-.56-.58,2.62,2.62,0,0,0-.81-.31,4.88,4.88,0,0,0-.93-.09l-1,0a6,6,0,0,0-.7.08v4Zm.92,5.53a4.08,4.08,0,0,0,1.05-.13,2.58,2.58,0,0,0,.89-.4,2.22,2.22,0,0,0,.62-.68,2,2,0,0,0,.22-1,1.81,1.81,0,0,0-1-1.77,3.45,3.45,0,0,0-1-.32,8.29,8.29,0,0,0-1.11-.08H142.4v4.23a1.92,1.92,0,0,0,.34.05l.47,0,.52,0Z"/><path class="a" d="M150.58,103.1a4.87,4.87,0,0,1,1.49-.57,8.52,8.52,0,0,1,1.78-.19,3.42,3.42,0,0,1,1.4.24,1.87,1.87,0,0,1,.81.62,2,2,0,0,1,.37.83,4.7,4.7,0,0,1,.1.91c0,.67,0,1.33-.06,2s-.05,1.25-.05,1.82c0,.42,0,.81.05,1.18a6.09,6.09,0,0,0,.19,1h-1l-.36-1.18h-.08a3.13,3.13,0,0,1-.38.47,2.6,2.6,0,0,1-.55.4,2.93,2.93,0,0,1-.74.29,3.5,3.5,0,0,1-1,.12,2.78,2.78,0,0,1-1-.17,2.41,2.41,0,0,1-.8-.48,2.17,2.17,0,0,1-.53-.75,2.4,2.4,0,0,1-.19-1,2.35,2.35,0,0,1,.3-1.24,2.23,2.23,0,0,1,.85-.79,4.1,4.1,0,0,1,1.32-.42,9.75,9.75,0,0,1,1.69-.13h.47l.46,0c0-.33.05-.64.05-.91a1.78,1.78,0,0,0-.37-1.29,1.9,1.9,0,0,0-1.35-.37,4.45,4.45,0,0,0-.61,0l-.68.12a6.36,6.36,0,0,0-.66.19,3.92,3.92,0,0,0-.54.25Zm2.39,6.76a2.75,2.75,0,0,0,.84-.12,2.55,2.55,0,0,0,.64-.32,2.32,2.32,0,0,0,.45-.43,2,2,0,0,0,.26-.46v-1.4l-.48,0h-.48a8.47,8.47,0,0,0-1,.06,3.24,3.24,0,0,0-.88.22,1.49,1.49,0,0,0-.6.43,1,1,0,0,0-.23.7,1.24,1.24,0,0,0,.42,1A1.52,1.52,0,0,0,153,109.86Z"/><path class="a" d="M164.48,110.91V106.1a4.16,4.16,0,0,0-.38-2,1.45,1.45,0,0,0-1.39-.66,2.22,2.22,0,0,0-1.47.48,2.57,2.57,0,0,0-.82,1.2v5.77h-1.35v-8.43H160l.26,1h.07a3.08,3.08,0,0,1,1.08-.89,3.6,3.6,0,0,1,1.63-.34,4,4,0,0,1,1.21.16,1.76,1.76,0,0,1,.87.56,2.58,2.58,0,0,1,.52,1.09,6.9,6.9,0,0,1,.18,1.73v5.09Z"/><path class="a" d="M170.42,107.12h-.78v3.79h-1.35V99.11h1.35v7.18l.69-.24,2.61-3.57h1.57l-2.58,3.39-.69.55.84.68,2.82,3.81h-1.67Z"/><path class="a" d="M180.07,108.62a1.06,1.06,0,0,0-.3-.8,2.55,2.55,0,0,0-.75-.48c-.3-.13-.62-.25-1-.37a4.8,4.8,0,0,1-1-.45,2.57,2.57,0,0,1-.75-.72,2,2,0,0,1-.31-1.18,2.17,2.17,0,0,1,.69-1.78,3,3,0,0,1,1.92-.56,6,6,0,0,1,1.53.16,5.12,5.12,0,0,1,1.07.38l-.32,1.11a6,6,0,0,0-.94-.33,4.81,4.81,0,0,0-1.17-.14,1.83,1.83,0,0,0-1.08.25,1,1,0,0,0-.35.88.83.83,0,0,0,.3.68,3.8,3.8,0,0,0,.75.44c.3.13.63.25,1,.38a3.75,3.75,0,0,1,1,.49,2.59,2.59,0,0,1,.75.76,2.23,2.23,0,0,1,.3,1.22,3.12,3.12,0,0,1-.17,1,2.24,2.24,0,0,1-.55.81,2.85,2.85,0,0,1-.92.53,3.89,3.89,0,0,1-1.29.19,6,6,0,0,1-1.64-.19,5,5,0,0,1-1.12-.43l.4-1.15a5.26,5.26,0,0,0,1,.41,4.58,4.58,0,0,0,1.27.18,2.25,2.25,0,0,0,1.19-.29A1.08,1.08,0,0,0,180.07,108.62Z"/><polygon class="b" points="48.56 14.64 91.43 1 132.17 14.64 48.56 14.64"/><line class="b" x1="59.44" y1="25.41" x2="59.82" y2="15.33"/><line class="b" x1="58.39" y1="53.23" x2="59.12" y2="33.8"/><line class="b" x1="121.78" y1="38.8" x2="120.87" y2="15.33"/><line class="b" x1="122.29" y1="53.23" x2="122.05" y2="46.77"/><rect class="b" x="55.96" y="53.23" width="68.81" height="5.53"/><rect class="b" x="49.91" y="64.9" width="80.91" height="5.53"/><line class="b" x1="111.7" y1="53.14" x2="113.12" y2="14.85"/><line class="b" x1="67.19" y1="14.85" x2="68.61" y2="53.14"/><line class="b" x1="85.99" y1="53.23" x2="87.42" y2="15.33"/><line class="b" x1="94.79" y1="14.85" x2="96.21" y2="53.14"/></svg>