<svg xmlns="http://www.w3.org/2000/svg" viewBox="0 0 99.86 116.61"><defs><style>.a{fill:#ffe161;}.b{fill:none;stroke:#1eb9d5;stroke-linecap:round;stroke-linejoin:round;stroke-width:2px;}.c{fill:#1eb9d5;}</style></defs><title>Asset 11</title><path class="a" d="M0,104.73a8.33,8.33,0,0,1,1.38-.2c.5,0,1,0,1.47,0a8.43,8.43,0,0,1,1.57.15,4.21,4.21,0,0,1,1.46.55A3,3,0,0,1,7,106.3a3.48,3.48,0,0,1,.42,1.8A3.86,3.86,0,0,1,7,109.92a3.47,3.47,0,0,1-1,1.21,4.27,4.27,0,0,1-1.47.66,6.82,6.82,0,0,1-1.7.2H2.1l-.41,0-.29,0v4.48H0Zm2.88,1-.84,0a3.15,3.15,0,0,0-.64.08v4.89a.81.81,0,0,0,.27,0l.39,0h.65a6.2,6.2,0,0,0,1.14-.11,3.06,3.06,0,0,0,1-.4,2.05,2.05,0,0,0,.73-.81,2.76,2.76,0,0,0,.28-1.33,2.29,2.29,0,0,0-.26-1.16,2.13,2.13,0,0,0-.69-.74,3.09,3.09,0,0,0-1-.39A5,5,0,0,0,2.88,105.69Z"/><path class="a" d="M8.65,110.51A7.19,7.19,0,0,1,9.89,106a4.29,4.29,0,0,1,3.56-1.57,4.84,4.84,0,0,1,2.16.44,4,4,0,0,1,1.51,1.24A5.31,5.31,0,0,1,18,108a10.1,10.1,0,0,1,.29,2.5A7.1,7.1,0,0,1,17,115a4.3,4.3,0,0,1-3.58,1.57,4.71,4.71,0,0,1-2.13-.44,4.07,4.07,0,0,1-1.5-1.23A5.45,5.45,0,0,1,8.93,113,10.12,10.12,0,0,1,8.65,110.51Zm1.48,0a8.47,8.47,0,0,0,.19,1.85,5.11,5.11,0,0,0,.6,1.55A3.29,3.29,0,0,0,12,115a2.78,2.78,0,0,0,1.49.39,2.89,2.89,0,0,0,2.46-1.18,6.1,6.1,0,0,0,.9-3.67,8.6,8.6,0,0,0-.2-1.85,4.88,4.88,0,0,0-.61-1.55,3.29,3.29,0,0,0-1-1.06,2.8,2.8,0,0,0-1.51-.39A2.86,2.86,0,0,0,11,106.84,6.18,6.18,0,0,0,10.13,110.51Z"/><path class="a" d="M26,113.41a1.6,1.6,0,0,0-.42-1.15,4.15,4.15,0,0,0-1.05-.8,14.86,14.86,0,0,0-1.38-.65,7.17,7.17,0,0,1-1.37-.73A3.92,3.92,0,0,1,20.72,109a2.78,2.78,0,0,1-.43-1.61,2.69,2.69,0,0,1,1-2.19,4.12,4.12,0,0,1,2.73-.81,10.73,10.73,0,0,1,1.87.15,4.79,4.79,0,0,1,1.31.39l-.42,1.25a5.63,5.63,0,0,0-1.14-.37,7.27,7.27,0,0,0-1.69-.17,2.45,2.45,0,0,0-1.67.49,1.57,1.57,0,0,0-.14,2.27,4.62,4.62,0,0,0,1.06.78c.42.23.88.46,1.37.69a8.07,8.07,0,0,1,1.38.78,4.27,4.27,0,0,1,1,1.07,2.72,2.72,0,0,1,.42,1.55,3.35,3.35,0,0,1-.27,1.37,2.85,2.85,0,0,1-.79,1,3.76,3.76,0,0,1-1.27.68,5.73,5.73,0,0,1-1.68.23,9.36,9.36,0,0,1-2.09-.19A5.56,5.56,0,0,1,20,116l.47-1.25a5.72,5.72,0,0,0,1.15.42,6.35,6.35,0,0,0,1.7.2,4.9,4.9,0,0,0,1-.1,2.63,2.63,0,0,0,.85-.36,1.92,1.92,0,0,0,.56-.61A1.76,1.76,0,0,0,26,113.41Z"/><path class="a" d="M43.18,108.49l.17-1.77h-.08l-.64,1.62-3.07,5.32h-.42l-3.25-5.34-.61-1.6h-.09l.24,1.75v7.94H34.12v-11.8h1l3.69,6,.56,1.31h0l.53-1.35,3.52-6h1.09v11.8h-1.4Z"/><path class="a" d="M47.18,108.61a5,5,0,0,1,1.49-.58,8.6,8.6,0,0,1,1.78-.18,3.71,3.71,0,0,1,1.41.23,2.08,2.08,0,0,1,.81.62,2.14,2.14,0,0,1,.37.83,4.76,4.76,0,0,1,.09.91c0,.68,0,1.33-.05,2s0,1.25,0,1.83c0,.41,0,.8,0,1.18a5.15,5.15,0,0,0,.18,1h-1l-.35-1.18h-.09a2.7,2.7,0,0,1-.38.47,2.36,2.36,0,0,1-.55.4,3.36,3.36,0,0,1-.74.3,3.5,3.5,0,0,1-1,.12,3,3,0,0,1-1-.17,2.54,2.54,0,0,1-.8-.48,2.22,2.22,0,0,1-.53-.75,2.48,2.48,0,0,1-.2-1,2.37,2.37,0,0,1,.31-1.24,2.17,2.17,0,0,1,.85-.79,4,4,0,0,1,1.31-.42,9.87,9.87,0,0,1,1.7-.13h.46a2.38,2.38,0,0,1,.46,0,7.83,7.83,0,0,0,.06-.91,1.8,1.8,0,0,0-.38-1.3A1.85,1.85,0,0,0,50.1,109a4.49,4.49,0,0,0-.62,0l-.67.12a6.36,6.36,0,0,0-.66.19,4.08,4.08,0,0,0-.55.25Zm2.39,6.75a2.77,2.77,0,0,0,.85-.12,2.73,2.73,0,0,0,.64-.32,1.8,1.8,0,0,0,.44-.43,1.67,1.67,0,0,0,.26-.46v-1.4l-.48,0H50.8a8.72,8.72,0,0,0-1,.06,3.08,3.08,0,0,0-.87.22,1.48,1.48,0,0,0-.61.44,1.07,1.07,0,0,0-.23.7,1.26,1.26,0,0,0,.42,1A1.59,1.59,0,0,0,49.57,115.36Z"/><path class="a" d="M61.42,115.85a3.56,3.56,0,0,1-1.19.57,5.34,5.34,0,0,1-1.45.19,3.94,3.94,0,0,1-1.66-.31,3,3,0,0,1-1.1-.89,3.81,3.81,0,0,1-.62-1.4,7.84,7.84,0,0,1-.2-1.81,5,5,0,0,1,.95-3.28,3.32,3.32,0,0,1,2.71-1.14,6.1,6.1,0,0,1,1.38.13,3.89,3.89,0,0,1,1,.36l-.38,1.16a3.86,3.86,0,0,0-.86-.34,3.68,3.68,0,0,0-1-.13q-2.4,0-2.4,3.24a5.43,5.43,0,0,0,.13,1.22,2.87,2.87,0,0,0,.42,1,2.32,2.32,0,0,0,.78.71,2.37,2.37,0,0,0,1.18.27,3.08,3.08,0,0,0,1.09-.18,3.5,3.5,0,0,0,.78-.42Z"/><path class="a" d="M68.69,116.41v-4.8a7.82,7.82,0,0,0-.08-1.16,2,2,0,0,0-.28-.82,1.24,1.24,0,0,0-.54-.5,2.11,2.11,0,0,0-.91-.17,2.26,2.26,0,0,0-1.43.51,2.31,2.31,0,0,0-.82,1.33v5.61H63.28v-11.8h1.35v4.32h.06a3.46,3.46,0,0,1,1.06-.84,3.32,3.32,0,0,1,1.52-.31,4.12,4.12,0,0,1,1.23.16,1.83,1.83,0,0,1,.87.56,2.63,2.63,0,0,1,.51,1.09,8.21,8.21,0,0,1,.16,1.73v5.09Z"/><path class="a" d="M72.5,105.42a.93.93,0,0,1,.26-.67.88.88,0,0,1,.66-.27,1,1,0,0,1,.7.27.91.91,0,0,1,.28.67.81.81,0,0,1-.28.64,1,1,0,0,1-.7.25.91.91,0,0,1-.66-.25A.83.83,0,0,1,72.5,105.42Zm.28,2.56h1.35v8.43H72.78Z"/><path class="a" d="M82.43,116.41v-4.8a4.1,4.1,0,0,0-.38-2,1.46,1.46,0,0,0-1.39-.67,2.25,2.25,0,0,0-1.48.48,2.55,2.55,0,0,0-.82,1.21v5.76H77V108H78l.25,1h.07a3,3,0,0,1,1.09-.88,3.4,3.4,0,0,1,1.62-.35,4.1,4.1,0,0,1,1.22.16,1.8,1.8,0,0,1,.86.56,2.65,2.65,0,0,1,.53,1.09,7,7,0,0,1,.17,1.73v5.09Z"/><path class="a" d="M92.39,115.74a3.88,3.88,0,0,1-1.27.64,5.84,5.84,0,0,1-1.63.23,4.08,4.08,0,0,1-1.67-.31,3,3,0,0,1-1.16-.89A3.84,3.84,0,0,1,86,114a7.26,7.26,0,0,1-.22-1.82,5,5,0,0,1,1-3.29,3.42,3.42,0,0,1,2.75-1.13,5,5,0,0,1,1.15.13,2.42,2.42,0,0,1,1.77,1.48,4.3,4.3,0,0,1,.28,1.71,8,8,0,0,1-.1,1.23H87.16a5.27,5.27,0,0,0,.15,1.32,2.55,2.55,0,0,0,.48,1,2,2,0,0,0,.83.61,3.32,3.32,0,0,0,1.26.21,3.51,3.51,0,0,0,1.14-.2,2.37,2.37,0,0,0,.86-.47ZM89.49,109a2.31,2.31,0,0,0-1.59.52,2.64,2.64,0,0,0-.72,1.79h4.18a2.59,2.59,0,0,0-.49-1.8A1.82,1.82,0,0,0,89.49,109Z"/><path class="a" d="M98.51,114.12a1,1,0,0,0-.31-.79,2.38,2.38,0,0,0-.75-.49c-.29-.12-.62-.25-1-.37a4.39,4.39,0,0,1-1-.45,2.45,2.45,0,0,1-.75-.72,2,2,0,0,1-.31-1.18,2.15,2.15,0,0,1,.7-1.78,3,3,0,0,1,1.92-.56,6,6,0,0,1,1.52.16,5.76,5.76,0,0,1,1.07.38l-.32,1.11a6.19,6.19,0,0,0-.93-.33,4.93,4.93,0,0,0-1.17-.14,1.85,1.85,0,0,0-1.09.25,1,1,0,0,0-.35.88.81.81,0,0,0,.31.68,3,3,0,0,0,.75.44c.29.13.62.26,1,.38a4.09,4.09,0,0,1,1,.49,2.71,2.71,0,0,1,.75.76,2.24,2.24,0,0,1,.31,1.23,2.83,2.83,0,0,1-.18,1,2.12,2.12,0,0,1-.55.81,2.75,2.75,0,0,1-.92.53,3.81,3.81,0,0,1-1.29.19,6.38,6.38,0,0,1-1.63-.18,5.33,5.33,0,0,1-1.13-.44l.4-1.15a5.26,5.26,0,0,0,1,.41,4.58,4.58,0,0,0,1.27.18,2.26,2.26,0,0,0,1.19-.28A1.11,1.11,0,0,0,98.51,114.12Z"/><path class="b" d="M47.67,1H69.44a7.14,7.14,0,0,1,7.12,7.13V57.36a7.14,7.14,0,0,1-7.12,7.13H29.73a7.15,7.15,0,0,1-7.13-7.13V8.13A7.15,7.15,0,0,1,29.73,1h5.8"/><path class="b" d="M69.36,64.49v9.66a7.14,7.14,0,0,1-7.12,7.12H35.3a7.15,7.15,0,0,1-7.13-7.12V64.49"/><rect class="b" x="30.53" y="8.94" width="38.09" height="17.46"/><rect class="b" x="33.63" y="31.4" width="5.65" height="5.65"/><rect class="b" x="46.95" y="31.4" width="5.65" height="5.65"/><rect class="b" x="59.69" y="31.4" width="5.65" height="5.65"/><rect class="b" x="33.63" y="42.96" width="5.65" height="5.65"/><rect class="b" x="46.95" y="42.96" width="5.65" height="5.65"/><rect class="b" x="59.69" y="42.96" width="5.65" height="5.65"/><rect class="b" x="33.63" y="54.17" width="5.65" height="5.65"/><rect class="b" x="46.95" y="54.17" width="5.65" height="5.65"/><rect class="b" x="59.69" y="54.17" width="5.65" height="5.65"/><path class="c" d="M34.88,65V81.27h9.26V64.51S34.88,64.86,34.88,65Z"/></svg>