<?xml version="1.0" encoding="utf-8"?>
<!-- Generator: Adobe Illustrator 23.0.3, SVG Export Plug-In . SVG Version: 6.00 Build 0)  -->
<svg version="1.1" id="Layer_1" xmlns="http://www.w3.org/2000/svg" xmlns:xlink="http://www.w3.org/1999/xlink" x="0px" y="0px"
	 viewBox="0 0 130 130" style="enable-background:new 0 0 130 130;" xml:space="preserve">
<style type="text/css">
	.st0{fill:#FFFFFF;}
	.st1{fill:none;stroke:#17BAD6;stroke-width:1.5;}
	.st2{fill:none;stroke:#17BAD6;stroke-width:1.5;stroke-linecap:round;stroke-linejoin:round;}
	.st3{fill:#FFE161;}
</style>
<g>
	<path class="st0" d="M46.2,97.7V87.2l7.8,8.2v-7.8h1.1v10.5l-7.8-8.2v7.7H46.2z"/>
	<path class="st0" d="M62.9,92.6H67v0.2c0,1.1-0.3,2.3-1,3.2c-0.3,0.4-1.4,1.8-3.7,1.8c-3,0-5.2-2.3-5.2-5.2c0-2.9,2.2-5.2,5.2-5.2
		c1,0,2.1,0.2,3.1,1c0.4,0.3,0.9,0.8,1.2,1.2l-0.8,0.8c-0.3-0.4-0.6-0.8-0.9-1c-0.5-0.4-1.2-0.8-2.4-0.8c-2.4,0-4.1,1.8-4.1,4.1
		c0,2.7,2.2,4.1,4.1,4.1c1.3,0,2.5-0.7,3.1-1.7c0.2-0.3,0.4-0.8,0.4-1.4h-3V92.6z"/>
	<path class="st0" d="M68.5,92.7c0-3,2.3-5.2,5.2-5.2s5.2,2.2,5.2,5.2c0,3-2.3,5.2-5.2,5.2S68.5,95.6,68.5,92.7z M69.7,92.7
		c0,2.3,1.8,4.1,4.1,4.1s4.1-1.8,4.1-4.1s-1.8-4.1-4.1-4.1S69.7,90.4,69.7,92.7z"/>
	<path class="st0" d="M83.3,92.9c-0.2-0.4-0.5-0.6-0.9-0.6c-0.4,0-0.8,0.2-0.8,0.7c0,0.5,0.3,0.6,1,0.9c0.9,0.4,1.3,0.7,1.6,1
		c0.3,0.3,0.3,0.7,0.3,1c0,1.3-0.9,2-2.1,2c-0.3,0-1.7,0-2.2-1.6l0.9-0.4c0.1,0.3,0.5,1,1.3,1c0.7,0,1-0.5,1-1c0-0.6-0.4-0.8-1-1
		c-0.8-0.3-1.2-0.6-1.5-0.9c-0.2-0.3-0.3-0.6-0.3-0.9c0-1.1,0.8-1.7,1.8-1.7c0.3,0,1.2,0.1,1.7,1.1L83.3,92.9z"/>
</g>
<title>globe5</title>
<path class="st1" d="M46.8,68.3c0,0,9-0.7,13.9,0.1c2.7,0.5,5.5,0.8,8.3,0.8c3.2,0,3.7,3.8-0.2,4c-2.7,0.2-5,0.2-5.5,0.2
	c2.4,0.3,4.8,0.5,7.1,0.5c1.7,0,3.4-0.4,5-1.1c1.5-0.8,3-1.8,4.4-2.9c0.8-0.5,2-1.1,2.8-0.2s0.5,2.2-0.6,3.3
	c-1.4,1.4-2.9,2.6-4.6,3.7c-2,1.3-4.2,2.2-6.4,2.7c-3.8,0.8-9.3-0.5-14.3-1.4c-3.2-0.6-6.5-0.7-9.8-0.5V73"/>
<path class="st2" d="M77.1,34.7c2,0.1,4,0.1,5.9,0V44c0,0-9,0.7-13.9-0.2c-2.7-0.5-5.5-0.8-8.3-0.8c-3.2,0-3.7-3.8,0.2-4
	c2.7-0.2,5-0.2,5.6-0.2c-2.4-0.3-4.8-0.5-7.1-0.5c-1.7,0-3.4,0.4-5,1.2s-3,1.8-4.4,2.9c-0.8,0.5-2,1.2-2.8,0.2s-0.5-2.2,0.6-3.3
	c1.4-1.4,2.9-2.6,4.6-3.7c2-1.3,4.2-2.2,6.5-2.7c3.4-0.7,8.2,0.2,12.8,1.1"/>
<path class="st3" d="M64.9,49.9c3.1,0,5.5,2.5,5.5,5.5c0,3.1-2.5,5.5-5.5,5.5c-3.1,0-5.5-2.5-5.5-5.5l0,0
	C59.4,52.4,61.8,49.9,64.9,49.9L64.9,49.9 M64.9,48.2c-4,0-7.2,3.2-7.2,7.2s3.2,7.2,7.2,7.2s7.2-3.2,7.2-7.2l0,0
	C72.1,51.5,68.9,48.2,64.9,48.2z"/>
</svg>
