<svg xmlns="http://www.w3.org/2000/svg" viewBox="0 0 130 130"><defs><style>.a{fill:#ffe161;}.b{fill:none;stroke:#1eb9d5;stroke-linecap:round;stroke-linejoin:round;stroke-width:2px;}.c{fill:#17bad6;}</style></defs><title>globe6</title><path class="a" d="M14.53,89.14H18.3v.73h-3v2.36H18.1V93H15.35v3.09h-.82Z"/><path class="a" d="M19.56,89.61a.53.53,0,0,1,.16-.39.5.5,0,0,1,.39-.16.55.55,0,0,1,.4.16.54.54,0,0,1,.17.39.5.5,0,0,1-.17.38.63.63,0,0,1-.4.14.56.56,0,0,1-.39-.14A.49.49,0,0,1,19.56,89.61Zm.17,1.5h.79v4.94h-.79Z"/><path class="a" d="M25.38,96.05V93.24a2.36,2.36,0,0,0-.22-1.16.85.85,0,0,0-.81-.39,1.32,1.32,0,0,0-.87.28,1.43,1.43,0,0,0-.48.7v3.38h-.79V91.11h.55l.15.6h0a1.73,1.73,0,0,1,.64-.51,2,2,0,0,1,.95-.21,2.17,2.17,0,0,1,.71.1,1,1,0,0,1,.51.33,1.53,1.53,0,0,1,.31.64,4,4,0,0,1,.1,1v3Z"/><path class="a" d="M27,91.11h.78v-1l.79-.22v1.2h1.34v.69H28.53v2.74a1.6,1.6,0,0,0,.12.73.49.49,0,0,0,.44.21,1.69,1.69,0,0,0,.43,0l.4-.15.18.61a3.14,3.14,0,0,1-.59.2,2.44,2.44,0,0,1-.68.08,1,1,0,0,1-.85-.34,2.06,2.06,0,0,1-.24-1.14V91.8H27Z"/><path class="a" d="M34.47,95.66a2.19,2.19,0,0,1-.75.37,3,3,0,0,1-.95.14,2.42,2.42,0,0,1-1-.18,1.7,1.7,0,0,1-.68-.52,2.33,2.33,0,0,1-.4-.82,3.92,3.92,0,0,1-.13-1.07,2.86,2.86,0,0,1,.57-1.92A2,2,0,0,1,32.76,91a3.14,3.14,0,0,1,.67.08,1.5,1.5,0,0,1,.6.28,1.52,1.52,0,0,1,.44.59,2.55,2.55,0,0,1,.16,1,4.76,4.76,0,0,1-.06.72H31.4a3,3,0,0,0,.09.77,1.39,1.39,0,0,0,.28.57,1.21,1.21,0,0,0,.49.36,2,2,0,0,0,.73.12,2,2,0,0,0,.68-.12,1.37,1.37,0,0,0,.5-.28Zm-1.7-4a1.41,1.41,0,0,0-.94.3A1.6,1.6,0,0,0,31.41,93h2.45A1.52,1.52,0,0,0,33.58,92,1.08,1.08,0,0,0,32.77,91.69Z"/><path class="a" d="M39.14,95.73a2.39,2.39,0,0,1-.7.33,3.35,3.35,0,0,1-.85.11,2.33,2.33,0,0,1-1-.18,1.74,1.74,0,0,1-.65-.52,2.18,2.18,0,0,1-.36-.82,4.43,4.43,0,0,1-.12-1.07,3,3,0,0,1,.56-1.92A2,2,0,0,1,37.64,91a3.66,3.66,0,0,1,.8.08,2.65,2.65,0,0,1,.6.21l-.23.68a2.48,2.48,0,0,0-.5-.2,2.22,2.22,0,0,0-.59-.07q-1.41,0-1.41,1.89a3.38,3.38,0,0,0,.08.72,1.8,1.8,0,0,0,.24.6,1.24,1.24,0,0,0,.46.42,1.37,1.37,0,0,0,.7.16,1.77,1.77,0,0,0,.63-.11,1.53,1.53,0,0,0,.46-.25Z"/><path class="a" d="M43.4,96.05V93.24a6.39,6.39,0,0,0,0-.68,1.23,1.23,0,0,0-.17-.48.77.77,0,0,0-.32-.3,1.3,1.3,0,0,0-.53-.09,1.31,1.31,0,0,0-.84.3,1.34,1.34,0,0,0-.48.77v3.29h-.79V89.14H41v2.53h0a1.75,1.75,0,0,1,.62-.49,1.83,1.83,0,0,1,.89-.19,2.2,2.2,0,0,1,.72.1,1,1,0,0,1,.51.33,1.66,1.66,0,0,1,.3.64,4.65,4.65,0,0,1,.09,1v3Z"/><path class="a" d="M50.75,89l.62.27-3.6,8.15-.63-.28Z"/><path class="a" d="M59.8,91.41l.1-1h0l-.37.95-1.8,3.12h-.25l-1.9-3.13-.36-.94h-.05l.14,1v4.65h-.77V89.14h.61l2.16,3.53.33.77h0l.31-.79L60,89.14h.64v6.91H59.8Z"/><path class="a" d="M62,93.58a3,3,0,0,1,.56-1.92,2,2,0,0,1,1.6-.67,2.27,2.27,0,0,1,1,.19,1.65,1.65,0,0,1,.67.52,2.33,2.33,0,0,1,.4.82,3.9,3.9,0,0,1,.13,1.06,2.91,2.91,0,0,1-.56,1.92,2,2,0,0,1-1.61.67,2.35,2.35,0,0,1-1-.18,1.85,1.85,0,0,1-.68-.52,2.4,2.4,0,0,1-.39-.82A4,4,0,0,1,62,93.58Zm.82,0a3.38,3.38,0,0,0,.07.72,1.85,1.85,0,0,0,.24.61,1.15,1.15,0,0,0,.41.41,1.12,1.12,0,0,0,.62.16c.9,0,1.35-.63,1.35-1.9a3.47,3.47,0,0,0-.08-.73,1.79,1.79,0,0,0-.23-.6,1.15,1.15,0,0,0-.41-.41,1.25,1.25,0,0,0-.63-.15C63.22,91.68,62.77,92.31,62.77,93.58Z"/><path class="a" d="M67.52,89.14h.79V91.6h0a1.62,1.62,0,0,1,.58-.45A2,2,0,0,1,69.7,91a1.72,1.72,0,0,1,1.44.62,3.11,3.11,0,0,1,.47,1.89,2.78,2.78,0,0,1-.63,2,2.31,2.31,0,0,1-1.78.67,3.86,3.86,0,0,1-1-.12,2.82,2.82,0,0,1-.68-.25Zm2,2.55a1.16,1.16,0,0,0-.8.27,1.66,1.66,0,0,0-.45.78v2.49a1.47,1.47,0,0,0,.46.17,3.31,3.31,0,0,0,.55,0A1.33,1.33,0,0,0,70.39,95a2.27,2.27,0,0,0,.4-1.49,3.38,3.38,0,0,0-.07-.72,1.61,1.61,0,0,0-.21-.57,1.25,1.25,0,0,0-.38-.38A1.14,1.14,0,0,0,69.56,91.69Z"/><path class="a" d="M72.86,89.61a.56.56,0,0,1,.15-.39.51.51,0,0,1,.39-.16.56.56,0,0,1,.41.16.54.54,0,0,1,.17.39.5.5,0,0,1-.17.38.64.64,0,0,1-.41.14A.58.58,0,0,1,73,90,.52.52,0,0,1,72.86,89.61Zm.17,1.5h.79v4.94H73Z"/><path class="a" d="M76.39,94.84a.78.78,0,0,0,.12.49.4.4,0,0,0,.33.15l.28,0a1.33,1.33,0,0,0,.34-.09l.08.62a1.28,1.28,0,0,1-.44.13,2.26,2.26,0,0,1-.49,0,1.06,1.06,0,0,1-.73-.25,1.09,1.09,0,0,1-.28-.85V89.14h.79Z"/><path class="a" d="M82,95.66a2.19,2.19,0,0,1-.75.37,3,3,0,0,1-1,.14,2.48,2.48,0,0,1-1-.18,1.85,1.85,0,0,1-.68-.52,2.15,2.15,0,0,1-.39-.82,3.92,3.92,0,0,1-.13-1.07,2.86,2.86,0,0,1,.56-1.92A2,2,0,0,1,80.29,91a3,3,0,0,1,.67.08,1.48,1.48,0,0,1,.61.28,1.51,1.51,0,0,1,.43.59,2.53,2.53,0,0,1,.17,1,4.76,4.76,0,0,1-.06.72H78.94a3,3,0,0,0,.09.77,1.51,1.51,0,0,0,.27.57,1.28,1.28,0,0,0,.49.36,2,2,0,0,0,.74.12,2,2,0,0,0,.67-.12,1.37,1.37,0,0,0,.5-.28Zm-1.7-4a1.37,1.37,0,0,0-.93.3A1.51,1.51,0,0,0,79,93H81.4A1.52,1.52,0,0,0,81.11,92,1.06,1.06,0,0,0,80.3,91.69Z"/><path class="a" d="M87.3,93.77l.16,1.15h0l.16-1.17,1.43-4.61h.39l1.44,4.63.17,1.15h0l.18-1.17,1.17-4.61h.79l-1.93,7h-.45l-1.41-4.63-.18-1h0L89,91.54l-1.41,4.62h-.45l-2-7h.87Z"/><path class="a" d="M93.56,91.48a2.88,2.88,0,0,1,.88-.34,5,5,0,0,1,1-.11,2.14,2.14,0,0,1,.83.14,1.16,1.16,0,0,1,.47.36A1.28,1.28,0,0,1,97,92a3.27,3.27,0,0,1,0,.53c0,.4,0,.79,0,1.16s0,.73,0,1.07,0,.47,0,.69a3.38,3.38,0,0,0,.11.6h-.58l-.21-.69h0a1.74,1.74,0,0,1-.22.27,1.57,1.57,0,0,1-.32.24,1.75,1.75,0,0,1-.44.17,1.91,1.91,0,0,1-.56.07,1.63,1.63,0,0,1-.59-.1,1.31,1.31,0,0,1-.47-.28,1.4,1.4,0,0,1-.31-.44,1.5,1.5,0,0,1-.11-.58,1.39,1.39,0,0,1,.18-.73,1.21,1.21,0,0,1,.49-.46,2.47,2.47,0,0,1,.78-.25,6,6,0,0,1,1-.07H96a1.23,1.23,0,0,1,.27,0q0-.3,0-.54a1,1,0,0,0-.22-.76,1.11,1.11,0,0,0-.79-.22l-.36,0-.39.07-.39.11-.32.15Zm1.41,4a1.49,1.49,0,0,0,.49-.07,1.68,1.68,0,0,0,.38-.19,1.55,1.55,0,0,0,.26-.25,1.06,1.06,0,0,0,.15-.27v-.82h-.56a5.88,5.88,0,0,0-.6,0,2.37,2.37,0,0,0-.51.13,1,1,0,0,0-.36.26.63.63,0,0,0-.13.41.72.72,0,0,0,.25.57A.88.88,0,0,0,95,95.44Z"/><path class="a" d="M99.42,94.84a.78.78,0,0,0,.12.49.41.41,0,0,0,.34.15l.28,0a1.27,1.27,0,0,0,.33-.09l.09.62a1.28,1.28,0,0,1-.44.13,2.32,2.32,0,0,1-.49,0,1.06,1.06,0,0,1-.73-.25,1.09,1.09,0,0,1-.29-.85V89.14h.79Z"/><path class="a" d="M102.31,94.84a.78.78,0,0,0,.12.49.4.4,0,0,0,.33.15l.28,0a1.33,1.33,0,0,0,.34-.09l.09.62a1.44,1.44,0,0,1-.44.13,2.32,2.32,0,0,1-.49,0,.95.95,0,0,1-1-1.1V89.14h.79Z"/><path class="a" d="M107.92,95.66a2.05,2.05,0,0,1-.74.37,3,3,0,0,1-1,.14,2.4,2.4,0,0,1-1-.18,1.8,1.8,0,0,1-.69-.52,2.31,2.31,0,0,1-.39-.82,3.92,3.92,0,0,1-.13-1.07,2.91,2.91,0,0,1,.56-1.92,2,2,0,0,1,1.61-.67,3.16,3.16,0,0,1,.68.08,1.5,1.5,0,0,1,.6.28,1.42,1.42,0,0,1,.43.59,2.37,2.37,0,0,1,.17,1,4.76,4.76,0,0,1-.06.72h-3.17a3,3,0,0,0,.09.77,1.39,1.39,0,0,0,.28.57,1.17,1.17,0,0,0,.48.36,2,2,0,0,0,.74.12,1.93,1.93,0,0,0,.67-.12,1.42,1.42,0,0,0,.51-.28Zm-1.7-4a1.37,1.37,0,0,0-.93.3,1.6,1.6,0,0,0-.42,1.05h2.45A1.47,1.47,0,0,0,107,92,1.06,1.06,0,0,0,106.22,91.69Z"/><path class="a" d="M108.68,91.11h.78v-1l.79-.22v1.2h1.34v.69h-1.34v2.74a1.6,1.6,0,0,0,.12.73.48.48,0,0,0,.44.21,1.69,1.69,0,0,0,.43,0l.4-.15.18.61a3.14,3.14,0,0,1-.59.2,2.44,2.44,0,0,1-.68.08,1,1,0,0,1-.85-.34,2.06,2.06,0,0,1-.24-1.14V91.8h-.78Z"/><path class="a" d="M114.86,94.71a.63.63,0,0,0-.18-.47,1.58,1.58,0,0,0-.44-.28,5.29,5.29,0,0,0-.57-.21,2.5,2.5,0,0,1-.57-.27,1.47,1.47,0,0,1-.44-.42,1.18,1.18,0,0,1-.18-.69,1.29,1.29,0,0,1,.4-1.05A1.75,1.75,0,0,1,114,91a3.34,3.34,0,0,1,.9.1,2.79,2.79,0,0,1,.62.22l-.18.65a4.37,4.37,0,0,0-.55-.19,2.61,2.61,0,0,0-.69-.08,1.11,1.11,0,0,0-.64.14.62.62,0,0,0-.2.52.49.49,0,0,0,.18.4,1.82,1.82,0,0,0,.44.25c.17.08.36.15.57.23a2.52,2.52,0,0,1,.57.28,1.45,1.45,0,0,1,.44.45,1.28,1.28,0,0,1,.18.72,1.63,1.63,0,0,1-.1.59,1.23,1.23,0,0,1-.32.48,1.78,1.78,0,0,1-.54.31,2.49,2.49,0,0,1-.76.11,3.43,3.43,0,0,1-1-.11,2.94,2.94,0,0,1-.66-.25l.24-.68a2.57,2.57,0,0,0,.59.24,2.71,2.71,0,0,0,.74.11,1.32,1.32,0,0,0,.7-.17A.63.63,0,0,0,114.86,94.71Z"/><path class="b" d="M79.16,72.45v3.81a2.49,2.49,0,0,1-2.49,2.49H53.11a2.49,2.49,0,0,1-2.49-2.49V30.73a2.49,2.49,0,0,1,2.49-2.49H76.67a2.49,2.49,0,0,1,2.49,2.49V65.59"/><path class="b" d="M54.4,58.68v14a2.26,2.26,0,0,0,2.16,2.36H73.14a2.27,2.27,0,0,0,2.17-2.36V34.29a2.27,2.27,0,0,0-2.17-2.36H68.78L68,33.87H61.59L61,31.93H56.56a2.26,2.26,0,0,0-2.16,2.36v19.1"/><path class="c" d="M66,44.52v.94c1.33,0,3.69.56,3.69,1.33,0,.35-.52,1.23-.75,1.23A7.79,7.79,0,0,0,66,47.14v5.43c2.07.75,4.46,1.59,4.46,4.81C70.43,60,68.7,61.72,66,62v1.17c0,.26-.14.37-.47.37s-.46-.11-.46-.37V62c-2.64-.07-4.62-1.08-4.62-1.71,0-.37.56-1.26.81-1.26A8.38,8.38,0,0,0,65,60.3v-6c-2.06-.8-4.32-1.61-4.32-4.62,0-2.29,1.68-3.88,4.32-4.16v-1c0-.25.14-.37.46-.37S66,44.27,66,44.52Zm-3.13,5.23c0,1.33,1,2,2.2,2.47v-5A2.41,2.41,0,0,0,62.84,49.75ZM66,60.23a2.77,2.77,0,0,0,2.33-2.85c0-1.47-1-2.17-2.33-2.73Z"/></svg>