<svg xmlns="http://www.w3.org/2000/svg" viewBox="0 0 130 130"><defs><style>.a{fill:#ffe161;}.b{fill:none;stroke:#1eb9d5;stroke-linecap:round;stroke-linejoin:round;stroke-width:2px;}</style></defs><title>globe9</title><path class="a" d="M19.93,90.12l.1-1H20l-.38,1-1.79,3.12h-.25L15.65,90l-.35-.94h-.05l.14,1v4.66h-.78V87.85h.62l2.16,3.54.33.77h0l.3-.79,2.07-3.52h.64v6.92h-.82Z"/><path class="a" d="M22.08,92.3a2.91,2.91,0,0,1,.55-1.92,2,2,0,0,1,1.61-.67,2.35,2.35,0,0,1,1,.18,1.7,1.7,0,0,1,.68.53,2.24,2.24,0,0,1,.4.82,4.35,4.35,0,0,1,.12,1.06,2.91,2.91,0,0,1-.55,1.92,2,2,0,0,1-1.61.67,2.19,2.19,0,0,1-1-.19,1.68,1.68,0,0,1-.68-.52,2.33,2.33,0,0,1-.4-.82A4.35,4.35,0,0,1,22.08,92.3Zm.82,0A3.38,3.38,0,0,0,23,93a2,2,0,0,0,.23.6,1.4,1.4,0,0,0,.42.42,1.21,1.21,0,0,0,.62.16c.9,0,1.34-.63,1.34-1.9a3.41,3.41,0,0,0-.07-.73,2.21,2.21,0,0,0-.23-.61,1.37,1.37,0,0,0-.42-.41,1.21,1.21,0,0,0-.62-.15C23.34,90.39,22.9,91,22.9,92.3Z"/><path class="a" d="M27.65,87.85h.79v2.46h0a1.42,1.42,0,0,1,.58-.44,1.76,1.76,0,0,1,.76-.16,1.71,1.71,0,0,1,1.44.61,3.07,3.07,0,0,1,.48,1.9,2.79,2.79,0,0,1-.63,2,2.36,2.36,0,0,1-1.78.67,3.86,3.86,0,0,1-1-.12,2.76,2.76,0,0,1-.68-.26Zm2,2.55a1.16,1.16,0,0,0-.81.28,1.56,1.56,0,0,0-.44.78V94a1.5,1.5,0,0,0,.45.16,2.6,2.6,0,0,0,.56.06,1.32,1.32,0,0,0,1.07-.48,2.24,2.24,0,0,0,.4-1.48,3.26,3.26,0,0,0-.07-.72,1.6,1.6,0,0,0-.22-.58,1,1,0,0,0-.38-.37A1.08,1.08,0,0,0,29.69,90.4Z"/><path class="a" d="M33,88.33a.57.57,0,0,1,.15-.4.53.53,0,0,1,.39-.16.58.58,0,0,1,.4.16.51.51,0,0,1,.17.4.45.45,0,0,1-.17.37.57.57,0,0,1-.4.15.53.53,0,0,1-.39-.15A.5.5,0,0,1,33,88.33Zm.16,1.5h.79v4.94h-.79Z"/><path class="a" d="M36.51,93.55a.82.82,0,0,0,.12.5.41.41,0,0,0,.34.15l.28,0,.33-.09.09.62a1.55,1.55,0,0,1-.44.13,3.25,3.25,0,0,1-.49,0,1,1,0,0,1-1-1.11V87.85h.79Z"/><path class="a" d="M42.13,94.37a2.2,2.2,0,0,1-.75.38,3.31,3.31,0,0,1-1,.14,2.29,2.29,0,0,1-1-.19,1.68,1.68,0,0,1-.68-.52,2.36,2.36,0,0,1-.4-.81,4.42,4.42,0,0,1-.13-1.07,2.87,2.87,0,0,1,.57-1.93,2,2,0,0,1,1.61-.66,3.05,3.05,0,0,1,.67.07,1.52,1.52,0,0,1,.6.29,1.4,1.4,0,0,1,.44.58,2.59,2.59,0,0,1,.17,1,5,5,0,0,1-.06.72H39.06a3,3,0,0,0,.09.77,1.52,1.52,0,0,0,.28.57,1.19,1.19,0,0,0,.49.35,2,2,0,0,0,.73.13,2,2,0,0,0,.68-.12,1.37,1.37,0,0,0,.5-.28Zm-1.7-4a1.37,1.37,0,0,0-.94.31,1.55,1.55,0,0,0-.42,1h2.45a1.52,1.52,0,0,0-.28-1A1.06,1.06,0,0,0,40.43,90.4Z"/><path class="a" d="M46,91.31a4.22,4.22,0,0,1,.73-2.65,2.51,2.51,0,0,1,2.09-.93,2.86,2.86,0,0,1,1.26.26,2.34,2.34,0,0,1,.89.73,3.31,3.31,0,0,1,.52,1.12,6.08,6.08,0,0,1,.16,1.47A4.16,4.16,0,0,1,50.89,94a2.52,2.52,0,0,1-2.1.93,2.84,2.84,0,0,1-1.25-.26,2.3,2.3,0,0,1-.88-.73,3,3,0,0,1-.52-1.12A6.06,6.06,0,0,1,46,91.31Zm.87,0A4.86,4.86,0,0,0,47,92.4a2.77,2.77,0,0,0,.35.9,1.78,1.78,0,0,0,.6.62,1.59,1.59,0,0,0,.88.24,1.72,1.72,0,0,0,1.44-.7,3.56,3.56,0,0,0,.52-2.15,4.71,4.71,0,0,0-.11-1.08,2.74,2.74,0,0,0-.35-.91,1.93,1.93,0,0,0-.62-.62,1.57,1.57,0,0,0-.88-.24,1.7,1.7,0,0,0-1.43.7A3.56,3.56,0,0,0,46.84,91.31Z"/><path class="a" d="M52.94,89.83h.54l.15.59h0a1.5,1.5,0,0,1,.59-.53,1.8,1.8,0,0,1,.82-.18,1.82,1.82,0,0,1,1.48.58A3,3,0,0,1,57,92.2a3.57,3.57,0,0,1-.16,1.12,2.48,2.48,0,0,1-.46.85,2.11,2.11,0,0,1-.72.53,2.34,2.34,0,0,1-.93.19,2.82,2.82,0,0,1-.58,0,2.45,2.45,0,0,1-.46-.15v2.06h-.79Zm2,.57a1.17,1.17,0,0,0-.8.26,1.52,1.52,0,0,0-.41.8v2.45a1.39,1.39,0,0,0,.4.21,2,2,0,0,0,.61.08,1.31,1.31,0,0,0,1.08-.51,2.37,2.37,0,0,0,.4-1.5,3.38,3.38,0,0,0-.07-.74,1.77,1.77,0,0,0-.22-.56,1.16,1.16,0,0,0-.4-.36A1.2,1.2,0,0,0,54.94,90.4Z"/><path class="a" d="M61.89,94.37a2.06,2.06,0,0,1-.74.38,3.32,3.32,0,0,1-1,.14,2.32,2.32,0,0,1-1-.19,1.75,1.75,0,0,1-.68-.52,2.18,2.18,0,0,1-.39-.81A4,4,0,0,1,58,92.3a2.92,2.92,0,0,1,.56-1.93,2,2,0,0,1,1.61-.66,3.14,3.14,0,0,1,.68.07,1.52,1.52,0,0,1,.6.29,1.38,1.38,0,0,1,.43.58,2.59,2.59,0,0,1,.17,1,5,5,0,0,1-.06.72H58.83a3,3,0,0,0,.09.77,1.67,1.67,0,0,0,.27.57,1.26,1.26,0,0,0,.49.35,2,2,0,0,0,.74.13,2,2,0,0,0,.67-.12,1.42,1.42,0,0,0,.51-.28Zm-1.7-4a1.32,1.32,0,0,0-.93.31,1.5,1.5,0,0,0-.42,1h2.45a1.52,1.52,0,0,0-.29-1A1.06,1.06,0,0,0,60.19,90.4Z"/><path class="a" d="M65.64,90.59a1.71,1.71,0,0,0-.57-.1,1,1,0,0,0-.67.23,1,1,0,0,0-.3.59v3.46h-.79V89.83h.55l.15.6h0a1.44,1.44,0,0,1,.45-.52,1.12,1.12,0,0,1,.66-.18,2.34,2.34,0,0,1,.65.1Z"/><path class="a" d="M66.59,90.19a2.81,2.81,0,0,1,.87-.33,4.42,4.42,0,0,1,1-.11,1.94,1.94,0,0,1,.83.14,1.09,1.09,0,0,1,.47.36,1.28,1.28,0,0,1,.22.49,2.33,2.33,0,0,1,.06.53c0,.4,0,.78,0,1.16s0,.73,0,1.06,0,.48,0,.7a3.76,3.76,0,0,0,.1.6h-.58l-.21-.69h0a1.31,1.31,0,0,1-.22.27,1.34,1.34,0,0,1-.32.24,3,3,0,0,1-.43.17,2.47,2.47,0,0,1-.57.07,1.92,1.92,0,0,1-.59-.1,1.42,1.42,0,0,1-.46-.28A1.28,1.28,0,0,1,66.4,94a1.55,1.55,0,0,1-.11-.59,1.33,1.33,0,0,1,.18-.72,1.26,1.26,0,0,1,.5-.47,2.58,2.58,0,0,1,.77-.24,6,6,0,0,1,1-.08H69l.27,0a5.29,5.29,0,0,0,0-.53,1.08,1.08,0,0,0-.21-.76,1.1,1.1,0,0,0-.79-.22,2.19,2.19,0,0,0-.36,0,3.06,3.06,0,0,0-.4.07,2.85,2.85,0,0,0-.39.11,1.57,1.57,0,0,0-.32.15Zm1.4,4a1.48,1.48,0,0,0,.49-.08,1.35,1.35,0,0,0,.38-.19,1,1,0,0,0,.26-.25,1,1,0,0,0,.15-.26v-.82l-.28,0h-.28q-.3,0-.6,0a1.9,1.9,0,0,0-.51.13.88.88,0,0,0-.36.26.59.59,0,0,0-.13.41.69.69,0,0,0,.25.56A.89.89,0,0,0,68,94.16Z"/><path class="a" d="M70.92,89.83h.77v-1l.79-.23v1.21h1.34v.69H72.48v2.74a1.41,1.41,0,0,0,.13.72.45.45,0,0,0,.43.22,1.42,1.42,0,0,0,.44-.06l.39-.14.18.6a2.66,2.66,0,0,1-.58.21,3,3,0,0,1-.69.08,1,1,0,0,1-.85-.34,2.06,2.06,0,0,1-.24-1.14V90.52h-.77Z"/><path class="a" d="M74.53,92.3a2.91,2.91,0,0,1,.56-1.92,2,2,0,0,1,1.61-.67,2.35,2.35,0,0,1,1,.18,1.77,1.77,0,0,1,.68.53,2.08,2.08,0,0,1,.39.82,3.9,3.9,0,0,1,.13,1.06,2.86,2.86,0,0,1-.56,1.92,2,2,0,0,1-1.6.67,2.27,2.27,0,0,1-1-.19,1.65,1.65,0,0,1-.67-.52,2.33,2.33,0,0,1-.4-.82A4.33,4.33,0,0,1,74.53,92.3Zm.82,0a3.38,3.38,0,0,0,.08.72,1.79,1.79,0,0,0,.23.6,1.27,1.27,0,0,0,.41.42,1.25,1.25,0,0,0,.63.16c.89,0,1.34-.63,1.34-1.9a3.41,3.41,0,0,0-.07-.73,1.94,1.94,0,0,0-.24-.61,1.24,1.24,0,0,0-.41-.41,1.21,1.21,0,0,0-.62-.15C75.8,90.39,75.35,91,75.35,92.3Z"/><path class="a" d="M82.44,90.59a1.7,1.7,0,0,0-.56-.1,1,1,0,0,0-.68.23,1,1,0,0,0-.3.59v3.46h-.79V89.83h.55l.15.6h0a1.44,1.44,0,0,1,.45-.52,1.12,1.12,0,0,1,.66-.18,2.29,2.29,0,0,1,.65.1Z"/><path class="a" d="M85.64,93.43a.61.61,0,0,0-.18-.47,1.38,1.38,0,0,0-.44-.28,5.24,5.24,0,0,0-.57-.22,2.5,2.5,0,0,1-.57-.27,1.26,1.26,0,0,1-.44-.42,1.18,1.18,0,0,1-.18-.69,1.27,1.27,0,0,1,.4-1,1.75,1.75,0,0,1,1.13-.33,3.7,3.7,0,0,1,.89.09,3.5,3.5,0,0,1,.63.23l-.19.65a2.79,2.79,0,0,0-.54-.2,3.1,3.1,0,0,0-.69-.08,1.1,1.1,0,0,0-.64.15.61.61,0,0,0-.2.51.48.48,0,0,0,.18.4,1.83,1.83,0,0,0,.44.26,5.24,5.24,0,0,0,.57.22,2.54,2.54,0,0,1,.57.29,1.57,1.57,0,0,1,.44.45,1.28,1.28,0,0,1,.18.72,1.66,1.66,0,0,1-.1.59,1.27,1.27,0,0,1-.32.47,1.59,1.59,0,0,1-.54.31,2.2,2.2,0,0,1-.76.12,3.84,3.84,0,0,1-1-.11,2.93,2.93,0,0,1-.66-.26l.24-.67a3.11,3.11,0,0,0,.59.24,2.65,2.65,0,0,0,.74.11,1.32,1.32,0,0,0,.7-.17A.63.63,0,0,0,85.64,93.43Z"/><path class="a" d="M89.88,91.56h4.19v.73H89.88Z"/><path class="a" d="M97.93,87.92a4.92,4.92,0,0,1,.81-.12c.29,0,.57,0,.86,0a4.86,4.86,0,0,1,.92.09,2.43,2.43,0,0,1,.85.33,1.79,1.79,0,0,1,.63.65,2.11,2.11,0,0,1,.24,1.06A2.28,2.28,0,0,1,102,91a2.11,2.11,0,0,1-.61.71,2.42,2.42,0,0,1-.86.39,4.07,4.07,0,0,1-1,.12h-.65l-.16,0v2.63h-.82Zm1.68.56h-.49a2.37,2.37,0,0,0-.37.05v2.87l.15,0h.62a3,3,0,0,0,.66-.07,1.74,1.74,0,0,0,.6-.23,1.22,1.22,0,0,0,.43-.47,1.67,1.67,0,0,0,.16-.78,1.4,1.4,0,0,0-.15-.68,1.31,1.31,0,0,0-.4-.44,2.06,2.06,0,0,0-.57-.23A3.39,3.39,0,0,0,99.61,88.48Z"/><path class="a" d="M107,89.42a3.16,3.16,0,0,1-.2,1.07,6,6,0,0,1-.5,1.11,10.46,10.46,0,0,1-.7,1.08c-.25.35-.51.69-.77,1l-.48.43v0L105,94h2.16v.73h-3.94v-.29l.53-.56q.3-.33.63-.75t.66-.87c.21-.3.4-.61.58-.93a7,7,0,0,0,.42-.94,2.88,2.88,0,0,0,.16-.88,1.2,1.2,0,0,0-.28-.8,1,1,0,0,0-.84-.33,1.88,1.88,0,0,0-.73.16,2.71,2.71,0,0,0-.61.35l-.33-.57a2.61,2.61,0,0,1,.82-.46,3.12,3.12,0,0,1,1-.17,2,2,0,0,1,.75.13,1.48,1.48,0,0,1,.55.35,1.53,1.53,0,0,1,.35.54A1.81,1.81,0,0,1,107,89.42Z"/><path class="a" d="M108.84,87.92a4.92,4.92,0,0,1,.81-.12c.29,0,.57,0,.86,0a4.86,4.86,0,0,1,.92.09,2.43,2.43,0,0,1,.85.33,1.79,1.79,0,0,1,.63.65,2.11,2.11,0,0,1,.24,1.06,2.28,2.28,0,0,1-.22,1.06,2,2,0,0,1-.61.71,2.42,2.42,0,0,1-.86.39,4.07,4.07,0,0,1-1,.12h-.65l-.16,0v2.63h-.82Zm1.69.56H110a2.37,2.37,0,0,0-.37.05v2.87l.15,0h.62a3,3,0,0,0,.66-.07,1.74,1.74,0,0,0,.6-.23,1.22,1.22,0,0,0,.43-.47,1.67,1.67,0,0,0,.16-.78,1.4,1.4,0,0,0-.15-.68,1.31,1.31,0,0,0-.4-.44,2.06,2.06,0,0,0-.57-.23A3.38,3.38,0,0,0,110.53,88.48Z"/><path class="b" d="M83.45,73.58V76.4a1.84,1.84,0,0,1-1.84,1.84H64.2a1.85,1.85,0,0,1-1.84-1.84V42.77a1.84,1.84,0,0,1,1.84-1.83H81.61a1.83,1.83,0,0,1,1.84,1.83V68.52"/><path class="b" d="M65.84,63v9.35A1.51,1.51,0,0,0,67.3,74H78.51A1.52,1.52,0,0,0,80,72.39V46.78a1.52,1.52,0,0,0-1.47-1.57h-3l-.51,1.29H70.7l-.43-1.29h-3a1.51,1.51,0,0,0-1.46,1.57V59.51"/><path class="b" d="M61,33.51a10.11,10.11,0,0,0-4.25,2.64,9.49,9.49,0,0,0-2.58,4.19"/><path class="b" d="M59.74,29a16,16,0,0,0-6.32,4,15.28,15.28,0,0,0-3.91,6.09"/><path class="b" d="M54.12,40.34a9.49,9.49,0,0,1,2.58-4.19A10.11,10.11,0,0,1,61,33.51"/><path class="b" d="M58.23,23.37a21.6,21.6,0,0,0-9,5.63,20.87,20.87,0,0,0-5.42,8.58"/><path class="b" d="M49.51,39.11A15.28,15.28,0,0,1,53.42,33a16,16,0,0,1,6.32-4"/></svg>