<svg xmlns="http://www.w3.org/2000/svg" viewBox="0 0 130 130"><defs><style>.a{fill:#ffe161;}.b{fill:none;stroke:#1eb9d5;stroke-linecap:round;stroke-linejoin:round;stroke-width:2px;}.c{fill:#1eb9d5;}</style></defs><title>globe12</title><path class="a" d="M23,90.11a.91.91,0,0,0-.25-.67,2.47,2.47,0,0,0-.61-.47c-.25-.13-.52-.26-.81-.38a4.07,4.07,0,0,1-.8-.43,2.29,2.29,0,0,1-.62-.62,1.64,1.64,0,0,1-.25-1,1.6,1.6,0,0,1,.56-1.28,2.42,2.42,0,0,1,1.61-.48,6.08,6.08,0,0,1,1.09.09,3,3,0,0,1,.77.23l-.24.73a4.16,4.16,0,0,0-.67-.21,4.25,4.25,0,0,0-1-.1,1.4,1.4,0,0,0-1,.29.91.91,0,0,0-.08,1.33,2.56,2.56,0,0,0,.62.46l.8.4a4.59,4.59,0,0,1,.81.46,2.4,2.4,0,0,1,.61.62,1.57,1.57,0,0,1,.25.91,1.84,1.84,0,0,1-.16.8,1.73,1.73,0,0,1-.46.62,2.18,2.18,0,0,1-.74.39,3.33,3.33,0,0,1-1,.14,6,6,0,0,1-1.23-.11,3.21,3.21,0,0,1-.75-.26l.28-.73a2.88,2.88,0,0,0,.67.25,3.86,3.86,0,0,0,1,.12,2.37,2.37,0,0,0,.61-.07,1.5,1.5,0,0,0,.5-.2,1.13,1.13,0,0,0,.33-.36A1.08,1.08,0,0,0,23,90.11Z"/><path class="a" d="M28.63,91.48a2.23,2.23,0,0,1-.74.37,3.32,3.32,0,0,1-1,.14,2.4,2.4,0,0,1-1-.18,1.83,1.83,0,0,1-.69-.53,2.26,2.26,0,0,1-.39-.81,3.92,3.92,0,0,1-.13-1.07,2.94,2.94,0,0,1,.56-1.93,2,2,0,0,1,1.61-.66,3.16,3.16,0,0,1,.68.08,1.38,1.38,0,0,1,.6.28,1.45,1.45,0,0,1,.43.58,2.42,2.42,0,0,1,.17,1,4.76,4.76,0,0,1-.06.72H25.57a3,3,0,0,0,.09.77,1.52,1.52,0,0,0,.28.57,1.12,1.12,0,0,0,.49.35,1.77,1.77,0,0,0,.73.13,1.93,1.93,0,0,0,.67-.12,1.34,1.34,0,0,0,.51-.28Zm-1.7-4a1.39,1.39,0,0,0-.93.31,1.55,1.55,0,0,0-.42,1H28a1.57,1.57,0,0,0-.28-1.06A1.1,1.1,0,0,0,26.93,87.5Z"/><path class="a" d="M30.93,90.66a.78.78,0,0,0,.12.49.39.39,0,0,0,.33.15l.28,0a1.17,1.17,0,0,0,.33-.09l.09.62a1.55,1.55,0,0,1-.44.13,3.13,3.13,0,0,1-.49,0,1.06,1.06,0,0,1-.73-.25,1.11,1.11,0,0,1-.28-.86V85h.79Z"/><path class="a" d="M32.39,86.93h.77v-.28a4.55,4.55,0,0,1,.07-.79,1.33,1.33,0,0,1,.25-.55,1,1,0,0,1,.43-.31,1.82,1.82,0,0,1,.66-.11,4.45,4.45,0,0,1,.56,0,2.88,2.88,0,0,1,.51.15l-.18.66a1.47,1.47,0,0,0-.43-.12l-.38,0a.9.9,0,0,0-.4.07.48.48,0,0,0-.2.24,1,1,0,0,0-.08.37c0,.15,0,.32,0,.52v.14h1.32v.69H34v4.25h-.79V87.62h-.77Z"/><path class="a" d="M41.93,90.11a1,1,0,0,0-.25-.67,2.53,2.53,0,0,0-.62-.47c-.25-.13-.51-.26-.8-.38a4.47,4.47,0,0,1-.81-.43,2.44,2.44,0,0,1-.62-.62,1.72,1.72,0,0,1-.24-1,1.57,1.57,0,0,1,.56-1.28,2.41,2.41,0,0,1,1.6-.48,6.2,6.2,0,0,1,1.1.09,3.1,3.1,0,0,1,.77.23l-.25.73a3.59,3.59,0,0,0-.67-.21,4.25,4.25,0,0,0-1-.1,1.42,1.42,0,0,0-1,.29.9.9,0,0,0-.32.68.92.92,0,0,0,.24.65,2.78,2.78,0,0,0,.62.46l.81.4a4.17,4.17,0,0,1,.8.46,2.44,2.44,0,0,1,.62.62,1.65,1.65,0,0,1,.25.91,2,2,0,0,1-.16.8,1.76,1.76,0,0,1-.47.62,2.09,2.09,0,0,1-.74.39,3.33,3.33,0,0,1-1,.14,5.84,5.84,0,0,1-1.22-.11,3.21,3.21,0,0,1-.75-.26l.27-.73a3,3,0,0,0,.68.25,3.78,3.78,0,0,0,1,.12,2.45,2.45,0,0,0,.62-.07,1.44,1.44,0,0,0,.49-.2,1.13,1.13,0,0,0,.33-.36A1,1,0,0,0,41.93,90.11Z"/><path class="a" d="M47.58,91.48a2.39,2.39,0,0,1-.75.37,3.26,3.26,0,0,1-.95.14,2.45,2.45,0,0,1-1-.18,1.79,1.79,0,0,1-.68-.53,2.28,2.28,0,0,1-.4-.81,4.38,4.38,0,0,1-.12-1.07,2.89,2.89,0,0,1,.56-1.93,2,2,0,0,1,1.61-.66,3.07,3.07,0,0,1,.67.08,1.28,1.28,0,0,1,.6.28,1.46,1.46,0,0,1,.44.58,2.59,2.59,0,0,1,.17,1,4.76,4.76,0,0,1-.06.72H44.52a3.5,3.5,0,0,0,.08.77,1.69,1.69,0,0,0,.28.57,1.26,1.26,0,0,0,.49.35,1.82,1.82,0,0,0,.74.13,2,2,0,0,0,.67-.12,1.37,1.37,0,0,0,.5-.28Zm-1.7-4a1.37,1.37,0,0,0-.93.31,1.47,1.47,0,0,0-.42,1H47a1.56,1.56,0,0,0-.29-1.06A1.06,1.06,0,0,0,45.88,87.5Z"/><path class="a" d="M51.32,87.69a1.89,1.89,0,0,0-.56-.1,1,1,0,0,0-.67.23,1,1,0,0,0-.31.59v3.46H49V86.93h.56l.14.6h0a1.78,1.78,0,0,1,.45-.52,1.17,1.17,0,0,1,.67-.18,2.22,2.22,0,0,1,.64.1Z"/><path class="a" d="M53.78,89.83l.27.93h0l.25-1,1.11-2.88h.85l-2.11,5h-.34l-2.14-5h.91Z"/><path class="a" d="M57.12,85.43a.56.56,0,0,1,.15-.39.51.51,0,0,1,.39-.17.54.54,0,0,1,.4.17.5.5,0,0,1,.17.39.45.45,0,0,1-.17.37.57.57,0,0,1-.4.15.53.53,0,0,1-.39-.15A.5.5,0,0,1,57.12,85.43Zm.16,1.5h.79v4.94h-.79Z"/><path class="a" d="M63.13,91.54a2.08,2.08,0,0,1-.7.34,3.35,3.35,0,0,1-.85.11,2.37,2.37,0,0,1-1-.18,1.66,1.66,0,0,1-.64-.53,2.21,2.21,0,0,1-.37-.82,4.93,4.93,0,0,1-.11-1.06A2.91,2.91,0,0,1,60,87.48a1.94,1.94,0,0,1,1.59-.67,3.69,3.69,0,0,1,.81.08,2.24,2.24,0,0,1,.6.21l-.23.68a1.94,1.94,0,0,0-.51-.2,2.21,2.21,0,0,0-.59-.08c-.93,0-1.4.64-1.4,1.9a3.38,3.38,0,0,0,.07.72,1.69,1.69,0,0,0,.25.6,1.4,1.4,0,0,0,.45.42,1.37,1.37,0,0,0,.7.16,1.83,1.83,0,0,0,.64-.11,1.79,1.79,0,0,0,.46-.25Z"/><path class="a" d="M67.6,91.48a2.44,2.44,0,0,1-.74.37,3.32,3.32,0,0,1-1,.14,2.48,2.48,0,0,1-1-.18,1.87,1.87,0,0,1-.68-.53,2.11,2.11,0,0,1-.39-.81,3.92,3.92,0,0,1-.13-1.07,2.94,2.94,0,0,1,.56-1.93,2,2,0,0,1,1.61-.66,3,3,0,0,1,.67.08,1.36,1.36,0,0,1,.61.28,1.55,1.55,0,0,1,.43.58,2.59,2.59,0,0,1,.17,1,4.76,4.76,0,0,1-.06.72H64.54a3,3,0,0,0,.09.77,1.67,1.67,0,0,0,.27.57,1.26,1.26,0,0,0,.49.35,1.82,1.82,0,0,0,.74.13,2,2,0,0,0,.67-.12,1.37,1.37,0,0,0,.5-.28Zm-1.7-4a1.37,1.37,0,0,0-.93.31,1.47,1.47,0,0,0-.42,1H67a1.56,1.56,0,0,0-.29-1.06A1.06,1.06,0,0,0,65.9,87.5Z"/><path class="a" d="M77.05,87.23l.1-1H77.1l-.38,1-1.8,3.12h-.24l-1.91-3.13-.36-.94h0l.14,1v4.65h-.77V85h.62l2.16,3.54.33.77h0l.3-.79L77.23,85h.64v6.92h-.82Z"/><path class="a" d="M79.39,87.3a2.57,2.57,0,0,1,.88-.34,5,5,0,0,1,1-.11,2.05,2.05,0,0,1,.82.14,1.13,1.13,0,0,1,.48.36,1.28,1.28,0,0,1,.22.49,3.17,3.17,0,0,1,0,.53c0,.4,0,.78,0,1.16s0,.73,0,1.07,0,.47,0,.69a3.38,3.38,0,0,0,.11.6h-.58l-.21-.69h0a1.74,1.74,0,0,1-.22.27,1.57,1.57,0,0,1-.32.24,2.24,2.24,0,0,1-.44.17,1.91,1.91,0,0,1-.56.07,1.63,1.63,0,0,1-.59-.1,1.31,1.31,0,0,1-.47-.28,1.25,1.25,0,0,1-.31-.44,1.52,1.52,0,0,1,.06-1.31,1.31,1.31,0,0,1,.5-.46,2.4,2.4,0,0,1,.77-.25,6,6,0,0,1,1-.08h.27l.27,0a5.13,5.13,0,0,0,0-.53,1,1,0,0,0-.22-.76,1.08,1.08,0,0,0-.79-.22l-.36,0-.39.07-.39.11a1.35,1.35,0,0,0-.32.15Zm1.4,4a1.54,1.54,0,0,0,.5-.08,1.59,1.59,0,0,0,.37-.18,1.12,1.12,0,0,0,.27-.26,1,1,0,0,0,.15-.26v-.82l-.28,0h-.28a5.74,5.74,0,0,0-.6,0,2.32,2.32,0,0,0-.52.13.92.92,0,0,0-.35.26.61.61,0,0,0-.13.41.75.75,0,0,0,.24.57A1,1,0,0,0,80.79,91.26Z"/><path class="a" d="M87.74,91.54a2.17,2.17,0,0,1-.7.34,3.35,3.35,0,0,1-.85.11,2.37,2.37,0,0,1-1-.18,1.66,1.66,0,0,1-.64-.53,2.21,2.21,0,0,1-.37-.82,4.37,4.37,0,0,1-.11-1.06,2.91,2.91,0,0,1,.55-1.92,1.94,1.94,0,0,1,1.59-.67,3.76,3.76,0,0,1,.81.08,2.06,2.06,0,0,1,.59.21l-.22.68a2.08,2.08,0,0,0-.51-.2,2.21,2.21,0,0,0-.59-.08c-.94,0-1.4.64-1.4,1.9a3.38,3.38,0,0,0,.07.72,1.69,1.69,0,0,0,.25.6,1.3,1.3,0,0,0,.45.42,1.37,1.37,0,0,0,.7.16,1.83,1.83,0,0,0,.64-.11,2,2,0,0,0,.46-.25Z"/><path class="a" d="M92,91.87V89.05a4.47,4.47,0,0,0,0-.67,1.28,1.28,0,0,0-.17-.49.7.7,0,0,0-.32-.29,1.28,1.28,0,0,0-.53-.1,1.31,1.31,0,0,0-.84.3,1.36,1.36,0,0,0-.48.78v3.29h-.79V85h.79v2.53h0a2.14,2.14,0,0,1,.62-.49,2,2,0,0,1,.89-.18,2.2,2.2,0,0,1,.72.1,1,1,0,0,1,.51.33,1.37,1.37,0,0,1,.3.63,4.82,4.82,0,0,1,.09,1v3Z"/><path class="a" d="M94.24,85.43a.56.56,0,0,1,.15-.39.51.51,0,0,1,.39-.17.54.54,0,0,1,.4.17.5.5,0,0,1,.17.39.45.45,0,0,1-.17.37.57.57,0,0,1-.4.15.53.53,0,0,1-.39-.15A.5.5,0,0,1,94.24,85.43Zm.16,1.5h.79v4.94H94.4Z"/><path class="a" d="M100.06,91.87V89.05a2.37,2.37,0,0,0-.23-1.16A.84.84,0,0,0,99,87.5a1.37,1.37,0,0,0-.87.28,1.66,1.66,0,0,0-.48.71v3.38h-.79V86.93h.56l.15.6h0a1.81,1.81,0,0,1,.63-.52,2.19,2.19,0,0,1,1-.2,2.21,2.21,0,0,1,.71.1,1.08,1.08,0,0,1,.51.33,1.61,1.61,0,0,1,.3.63,4.12,4.12,0,0,1,.11,1v3Z"/><path class="a" d="M105.9,91.48a2.39,2.39,0,0,1-.75.37,3.31,3.31,0,0,1-1,.14,2.45,2.45,0,0,1-1-.18,1.72,1.72,0,0,1-.68-.53,2.28,2.28,0,0,1-.4-.81A4.35,4.35,0,0,1,102,89.4a2.89,2.89,0,0,1,.57-1.93,2,2,0,0,1,1.61-.66,3.07,3.07,0,0,1,.67.08,1.38,1.38,0,0,1,.6.28,1.56,1.56,0,0,1,.44.58,2.59,2.59,0,0,1,.17,1,4.76,4.76,0,0,1-.06.72h-3.18a3,3,0,0,0,.09.77,1.52,1.52,0,0,0,.28.57,1.19,1.19,0,0,0,.49.35,1.77,1.77,0,0,0,.73.13,2,2,0,0,0,.68-.12,1.37,1.37,0,0,0,.5-.28Zm-1.7-4a1.42,1.42,0,0,0-.94.31,1.55,1.55,0,0,0-.42,1h2.45A1.57,1.57,0,0,0,105,87.8,1.06,1.06,0,0,0,104.2,87.5Z"/><path class="a" d="M109.48,90.53a.64.64,0,0,0-.17-.47,1.75,1.75,0,0,0-.44-.28l-.58-.22a2.69,2.69,0,0,1-.57-.26,1.6,1.6,0,0,1-.44-.42,1.21,1.21,0,0,1-.18-.7,1.27,1.27,0,0,1,.41-1,1.72,1.72,0,0,1,1.12-.33,3.29,3.29,0,0,1,.9.1,3.09,3.09,0,0,1,.63.22l-.19.65a2.93,2.93,0,0,0-.55-.19,2.5,2.5,0,0,0-.69-.09,1,1,0,0,0-.63.15.59.59,0,0,0-.21.52.49.49,0,0,0,.18.4,2,2,0,0,0,.44.25c.18.08.37.15.57.22a2.86,2.86,0,0,1,.58.29,1.71,1.71,0,0,1,.44.45,1.28,1.28,0,0,1,.17.72,1.63,1.63,0,0,1-.1.59,1.27,1.27,0,0,1-.32.47,1.44,1.44,0,0,1-.54.32,2.37,2.37,0,0,1-.75.11,3.73,3.73,0,0,1-1-.11,2.84,2.84,0,0,1-.67-.26l.24-.67a2.57,2.57,0,0,0,.59.24,2.78,2.78,0,0,0,.75.11,1.37,1.37,0,0,0,.7-.17A.65.65,0,0,0,109.48,90.53Z"/><path class="b" d="M86.9,66.44v1a4.19,4.19,0,0,1-4.17,4.18H47a4.19,4.19,0,0,1-4.18-4.18V31.72A4.19,4.19,0,0,1,47,27.55H82.73a4.19,4.19,0,0,1,4.17,4.17v27.6"/><rect class="b" x="47.74" y="31.97" width="34.24" height="17.62"/><rect class="c" x="70.82" y="56.28" width="9.05" height="2.36"/><rect class="b" x="48.85" y="56.28" width="11.6" height="6.64"/><polyline class="c" points="53.27 56.92 52.67 58.58 56.27 60.24 57.72 57.05"/></svg>