<?xml version="1.0" encoding="utf-8"?>
<!-- Generator: Adobe Illustrator 23.0.3, SVG Export Plug-In . SVG Version: 6.00 Build 0)  -->
<svg version="1.1" id="Layer_1" xmlns="http://www.w3.org/2000/svg" xmlns:xlink="http://www.w3.org/1999/xlink" x="0px" y="0px"
	 viewBox="0 0 130 130" style="enable-background:new 0 0 130 130;" xml:space="preserve">
<style type="text/css">
	.st0{fill:#FFFFFF;}
	.st1{fill:none;stroke:#17BAD6;stroke-width:1.5;}
	.st2{fill:none;stroke:#17BAD6;stroke-width:1.5;stroke-linecap:round;stroke-linejoin:round;}
	.st3{fill:#FFE161;}
</style>
<g>
	<path class="st0" d="M52,92l-0.8-1.4h-0.1l0.1,1.4v6.4h-1.1v-10h0.6l4.7,6.5l0.7,1.3h0.1L56.2,95v-6.4h1.1v10h-0.6L52,92z"/>
	<path class="st0" d="M63,93.5h3.3v4.3c-0.1,0.1-0.3,0.2-0.5,0.3c-0.2,0.1-0.4,0.2-0.7,0.2c-0.2,0.1-0.5,0.1-0.7,0.1
		c-0.3,0-0.5,0-0.7,0c-0.6,0-1.2-0.1-1.7-0.3c-0.5-0.2-1-0.5-1.4-0.9c-0.4-0.4-0.7-0.9-0.9-1.6c-0.2-0.6-0.3-1.4-0.3-2.3
		c0-0.9,0.1-1.7,0.4-2.3c0.3-0.6,0.6-1.2,1-1.6c0.4-0.4,0.9-0.7,1.4-0.9c0.5-0.2,1-0.3,1.6-0.3c0.6,0,1,0,1.4,0.1
		c0.4,0.1,0.7,0.1,0.9,0.2l-0.3,1c-0.4-0.2-1.1-0.3-1.9-0.3c-0.4,0-0.8,0.1-1.2,0.2c-0.4,0.1-0.7,0.4-1,0.7s-0.6,0.7-0.8,1.2
		c-0.2,0.5-0.3,1.1-0.3,1.9c0,0.7,0.1,1.3,0.2,1.8c0.2,0.5,0.4,0.9,0.7,1.3c0.3,0.3,0.6,0.6,1,0.7c0.4,0.2,0.8,0.2,1.3,0.2
		c0.6,0,1.1-0.1,1.5-0.3v-2.7L63,94.2V93.5z"/>
	<path class="st0" d="M67.8,93.5c0-1.6,0.3-2.9,1-3.8c0.7-0.9,1.7-1.3,3-1.3c0.7,0,1.3,0.1,1.8,0.4c0.5,0.2,0.9,0.6,1.3,1
		s0.6,1,0.7,1.6c0.2,0.6,0.2,1.3,0.2,2.1c0,1.6-0.3,2.9-1,3.8c-0.7,0.9-1.7,1.3-3,1.3c-0.7,0-1.3-0.1-1.8-0.4
		c-0.5-0.2-0.9-0.6-1.2-1c-0.3-0.4-0.6-1-0.7-1.6C67.9,95,67.8,94.3,67.8,93.5z M69.1,93.5c0,0.5,0.1,1.1,0.2,1.5
		c0.1,0.5,0.3,0.9,0.5,1.3c0.2,0.4,0.5,0.7,0.9,0.9c0.3,0.2,0.8,0.3,1.2,0.3c0.9,0,1.5-0.3,2-1c0.5-0.7,0.7-1.7,0.7-3
		c0-0.5-0.1-1-0.2-1.5c-0.1-0.5-0.3-0.9-0.5-1.3c-0.2-0.4-0.5-0.7-0.9-0.9c-0.4-0.2-0.8-0.3-1.3-0.3c-0.9,0-1.5,0.3-2,1
		C69.3,91.1,69.1,92.1,69.1,93.5z"/>
	<path class="st0" d="M80.8,96.5c0-0.3-0.1-0.5-0.3-0.7c-0.2-0.2-0.4-0.3-0.6-0.4s-0.5-0.2-0.8-0.3c-0.3-0.1-0.6-0.2-0.8-0.4
		c-0.2-0.2-0.5-0.4-0.6-0.6c-0.2-0.2-0.3-0.6-0.3-1c0-0.7,0.2-1.2,0.6-1.5c0.4-0.3,0.9-0.5,1.6-0.5c0.5,0,0.9,0,1.3,0.1
		c0.3,0.1,0.6,0.2,0.9,0.3l-0.3,0.9c-0.2-0.1-0.5-0.2-0.8-0.3c-0.3-0.1-0.6-0.1-1-0.1c-0.4,0-0.7,0.1-0.9,0.2
		c-0.2,0.1-0.3,0.4-0.3,0.7c0,0.2,0.1,0.4,0.3,0.6c0.2,0.1,0.4,0.3,0.6,0.4c0.2,0.1,0.5,0.2,0.8,0.3s0.6,0.2,0.8,0.4
		s0.5,0.4,0.6,0.6s0.3,0.6,0.3,1c0,0.3,0,0.6-0.1,0.8c-0.1,0.3-0.2,0.5-0.5,0.7c-0.2,0.2-0.5,0.3-0.8,0.4s-0.7,0.2-1.1,0.2
		c-0.5,0-1-0.1-1.4-0.2c-0.4-0.1-0.7-0.2-0.9-0.4l0.3-1c0.2,0.1,0.5,0.2,0.8,0.3c0.3,0.1,0.7,0.2,1,0.2c0.4,0,0.7-0.1,1-0.2
		C80.7,97.2,80.8,96.9,80.8,96.5z"/>
</g>
<title>globe5</title>
<path class="st1" d="M46.8,68.3c0,0,9-0.7,13.9,0.1c2.7,0.5,5.5,0.8,8.3,0.8c3.2,0,3.7,3.8-0.2,4c-2.7,0.2-5,0.2-5.5,0.2
	c2.4,0.3,4.8,0.5,7.1,0.5c1.7,0,3.4-0.4,5-1.1c1.5-0.8,3-1.8,4.4-2.9c0.8-0.5,2-1.1,2.8-0.2s0.5,2.2-0.6,3.3
	c-1.4,1.4-2.9,2.6-4.6,3.7c-2,1.3-4.2,2.2-6.4,2.7c-3.8,0.8-9.3-0.5-14.3-1.4c-3.2-0.6-6.5-0.7-9.8-0.5V73"/>
<path class="st2" d="M77.1,34.7c2,0.1,4,0.1,5.9,0V44c0,0-9,0.7-13.9-0.2c-2.7-0.5-5.5-0.8-8.3-0.8c-3.2,0-3.7-3.8,0.2-4
	c2.7-0.2,5-0.2,5.6-0.2c-2.4-0.3-4.8-0.5-7.1-0.5c-1.7,0-3.4,0.4-5,1.2s-3,1.8-4.4,2.9c-0.8,0.5-2,1.2-2.8,0.2s-0.5-2.2,0.6-3.3
	c1.4-1.4,2.9-2.6,4.6-3.7c2-1.3,4.2-2.2,6.5-2.7c3.4-0.7,8.2,0.2,12.8,1.1"/>
<path class="st3" d="M64.9,49.9c3.1,0,5.5,2.5,5.5,5.5c0,3.1-2.5,5.5-5.5,5.5c-3.1,0-5.5-2.5-5.5-5.5l0,0
	C59.4,52.4,61.8,49.9,64.9,49.9L64.9,49.9 M64.9,48.2c-4,0-7.2,3.2-7.2,7.2s3.2,7.2,7.2,7.2s7.2-3.2,7.2-7.2l0,0
	C72.1,51.5,68.9,48.2,64.9,48.2z"/>
</svg>
