<?xml version="1.0" encoding="utf-8"?>
<!-- Generator: Adobe Illustrator 23.0.3, SVG Export Plug-In . SVG Version: 6.00 Build 0)  -->
<svg version="1.1" id="Layer_1" xmlns="http://www.w3.org/2000/svg" xmlns:xlink="http://www.w3.org/1999/xlink" x="0px" y="0px"
	 viewBox="0 0 130 130" style="enable-background:new 0 0 130 130;" xml:space="preserve">
<style type="text/css">
	.st0{fill:none;stroke:#1EB9D5;stroke-width:1.5;}
	.st1{fill:#1EB9D5;}
	.st2{fill:#FFFFFF;}
</style>
<title>globe12</title>
<path class="st0" d="M86.9,66.4v1c0,2.3-1.9,4.2-4.2,4.2H47c-2.3,0-4.2-1.9-4.2-4.2V31.7c0-2.3,1.9-4.2,4.2-4.2h35.7
	c2.3,0,4.2,1.9,4.2,4.2v27.6"/>
<rect x="47.7" y="32" class="st0" width="34.2" height="17.6"/>
<rect x="70.8" y="56.3" class="st1" width="9.1" height="2.4"/>
<rect x="48.8" y="56.3" class="st0" width="11.6" height="6.6"/>
<polyline class="st1" points="53.3,56.9 52.7,58.6 56.3,60.2 57.7,57 "/>
<g>
	<path class="st2" d="M39,91.4c0,0.6-0.2,1.1-0.7,1.5s-1.1,0.5-1.9,0.5s-1.5-0.1-2-0.3v-0.8c0.3,0.1,0.6,0.2,1,0.3
		c0.4,0.1,0.7,0.1,1,0.1c0.6,0,1-0.1,1.2-0.3c0.3-0.2,0.4-0.5,0.4-0.9c0-0.2,0-0.5-0.1-0.6c-0.1-0.2-0.3-0.3-0.5-0.4
		c-0.2-0.1-0.6-0.3-1.1-0.5c-0.7-0.2-1.1-0.5-1.4-0.8s-0.4-0.8-0.4-1.3s0.2-1,0.6-1.3c0.4-0.3,1-0.5,1.6-0.5c0.7,0,1.4,0.1,2,0.4
		l-0.3,0.7c-0.6-0.2-1.2-0.4-1.7-0.4c-0.4,0-0.8,0.1-1,0.3s-0.4,0.5-0.4,0.8c0,0.2,0,0.5,0.1,0.6c0.3,0.2,0.5,0.3,0.7,0.5
		c0.2,0.1,0.5,0.3,1,0.4c0.7,0.3,1.3,0.6,1.5,0.9C38.8,90.6,39,91,39,91.4z"/>
	<path class="st2" d="M44.5,93.3h-4v-7.1h4v0.7h-3.1v2.3h3V90h-3v2.6h3.1V93.3z"/>
	<path class="st2" d="M46.1,93.3v-7.1h0.8v6.4H50v0.8h-3.9V93.3z"/>
	<path class="st2" d="M52.1,93.3h-0.8v-7.1h4v0.7h-3.1v2.6h3v0.7h-3v3.1C52.2,93.3,52.1,93.3,52.1,93.3z"/>
	<path class="st2" d="M63,91.4c0,0.6-0.2,1.1-0.7,1.5s-1.1,0.5-1.9,0.5c-0.8,0-1.5-0.1-2-0.3v-0.8c0.3,0.1,0.6,0.2,1,0.3
		s0.7,0.1,1,0.1c0.6,0,1-0.1,1.2-0.3c0.3-0.2,0.4-0.5,0.4-0.9c0-0.2,0-0.5-0.1-0.6c-0.1-0.2-0.3-0.3-0.5-0.4s-0.6-0.3-1.1-0.5
		c-0.7-0.2-1.1-0.5-1.4-0.8s-0.4-0.8-0.4-1.3s0.2-1,0.6-1.3s1-0.5,1.6-0.5c0.7,0,1.4,0.1,2,0.4l-0.3,0.7c-0.6-0.2-1.2-0.4-1.7-0.4
		c-0.4,0-0.8,0.1-1,0.3s-0.4,0.5-0.4,0.8c0,0.2,0,0.5,0.1,0.6c0.1,0.2,0.2,0.3,0.5,0.4c0.2,0.1,0.5,0.3,1,0.4
		c0.7,0.3,1.3,0.6,1.5,0.9S63,91,63,91.4z"/>
	<path class="st2" d="M68.5,93.3h-4v-7.1h4v0.7h-3.1v2.3h3V90h-3v2.6h3.1V93.3z"/>
	<path class="st2" d="M70.9,90.4v3h-0.8v-7.1h2c0.9,0,1.5,0.2,1.9,0.5s0.6,0.8,0.6,1.5c0,0.9-0.5,1.6-1.4,1.9l1.9,3.2h-1l-1.7-3
		H70.9z M70.9,89.7H72c0.6,0,1-0.1,1.3-0.3c0.3-0.2,0.4-0.6,0.4-1c0-0.5-0.1-0.8-0.4-1c-0.3-0.2-0.7-0.3-1.3-0.3h-1.1V89.7z"/>
	<path class="st2" d="M80.3,86.2h0.9l-2.6,7.1h-0.8l-2.6-7.1h0.9l1.6,4.6c0.2,0.5,0.3,1,0.4,1.5c0.1-0.5,0.3-1.1,0.5-1.6L80.3,86.2z
		"/>
	<path class="st2" d="M82.2,93.3v-7.1H83v7.1H82.2z"/>
	<path class="st2" d="M88,86.8c-0.8,0-1.4,0.3-1.9,0.8s-0.7,1.2-0.7,2.1s0.2,1.7,0.7,2.2c0.4,0.5,1.1,0.8,1.9,0.8
		c0.5,0,1.1-0.1,1.7-0.3v0.7c-0.5,0.2-1.1,0.3-1.8,0.3c-1.1,0-1.9-0.3-2.4-1c-0.6-0.6-0.9-1.5-0.9-2.7c0-0.7,0.1-1.4,0.4-1.9
		c0.3-0.6,0.7-1,1.2-1.3s1.1-0.4,1.8-0.4c0.7,0,1.4,0.1,2,0.4l-0.3,0.7C89.1,87,88.6,86.8,88,86.8z"/>
	<path class="st2" d="M95.3,93.3h-4v-7.1h4v0.7h-3.1v2.3h3V90h-3v2.6h3.1V93.3z"/>
	<path class="st2" d="M43.4,106.8l-2.4-6.3l0,0c0,0.5,0.1,1.1,0.1,1.8v4.5h-0.8v-7.1h1.2l2.3,5.9l0,0l2.3-5.9h1.2v7.1h-0.8v-4.6
		c0-0.5,0-1.1,0.1-1.7l0,0l-2.4,6.3C44.2,106.8,43.4,106.8,43.4,106.8z"/>
	<path class="st2" d="M53.8,106.8l-0.9-2.3H50l-0.9,2.3h-0.8l2.8-7.2h0.7l2.8,7.2H53.8z M52.6,103.8l-0.8-2.2
		c-0.1-0.3-0.2-0.6-0.3-1c-0.1,0.3-0.2,0.7-0.3,1l-0.8,2.2H52.6z"/>
	<path class="st2" d="M58.7,100.3c-0.8,0-1.4,0.3-1.9,0.8s-0.7,1.2-0.7,2.1s0.2,1.7,0.7,2.2c0.4,0.5,1.1,0.8,1.9,0.8
		c0.5,0,1.1-0.1,1.7-0.3v0.7c-0.5,0.2-1.1,0.3-1.8,0.3c-1.1,0-1.9-0.3-2.4-1c-0.6-0.6-0.9-1.5-0.9-2.7c0-0.7,0.1-1.4,0.4-1.9
		c0.3-0.6,0.7-1,1.2-1.3s1.1-0.4,1.8-0.4c0.7,0,1.4,0.1,2,0.4l-0.4,0.7C59.7,100.5,59.2,100.3,58.7,100.3z"/>
	<path class="st2" d="M67.3,106.8h-0.8v-3.3h-3.8v3.4h-0.8v-7.1h0.8v3h3.8v-3h0.8V106.8z"/>
	<path class="st2" d="M69.3,106.8v-7.1h0.8v7.1H69.3z"/>
	<path class="st2" d="M77.7,106.8h-0.9l-3.9-6l0,0c0.1,0.7,0.1,1.3,0.1,1.9v4.1h-0.8v-7.1h0.9l3.9,6l0,0c0-0.1,0-0.4,0-0.8
		c0-0.5,0-0.8,0-1v-4.1h0.8L77.7,106.8L77.7,106.8z"/>
	<path class="st2" d="M83.6,106.8h-4v-7.1h4v0.7h-3.1v2.3h3v0.8h-3v2.6h3.1V106.8z"/>
	<path class="st2" d="M89.2,104.9c0,0.6-0.2,1.1-0.7,1.5s-1.1,0.5-1.9,0.5s-1.5-0.1-2-0.3v-0.8c0.3,0.1,0.6,0.2,1,0.3s0.7,0.1,1,0.1
		c0.6,0,1-0.1,1.2-0.3c0.3-0.2,0.4-0.5,0.4-0.9c0-0.2,0-0.5-0.1-0.6c-0.1-0.2-0.3-0.3-0.5-0.4s-0.6-0.3-1.1-0.5
		c-0.7-0.2-1.1-0.5-1.4-0.8s-0.4-0.8-0.4-1.3s0.2-1,0.6-1.3s1-0.5,1.6-0.5c0.7,0,1.4,0.1,2,0.4l-0.3,0.7c-0.6-0.2-1.2-0.4-1.7-0.4
		c-0.4,0-0.8,0.1-1,0.3s-0.4,0.5-0.4,0.8c0,0.2,0,0.5,0.1,0.6c0.1,0.2,0.2,0.3,0.5,0.4c0.2,0.1,0.5,0.3,1,0.4
		c0.7,0.3,1.3,0.6,1.5,0.9C89.1,104.1,89.2,104.5,89.2,104.9z"/>
</g>
</svg>
