<?xml version="1.0" encoding="utf-8"?>
<!-- Generator: Adobe Illustrator 23.0.4, SVG Export Plug-In . SVG Version: 6.00 Build 0)  -->
<svg version="1.1" id="Layer_1" xmlns="http://www.w3.org/2000/svg" xmlns:xlink="http://www.w3.org/1999/xlink" x="0px" y="0px"
	 viewBox="0 0 833.9 828.4" style="enable-background:new 0 0 833.9 828.4;" xml:space="preserve">
<style type="text/css">
	.st0{fill:none;stroke:#1FBAD6;stroke-width:2;stroke-miterlimit:10;}
	.st1{fill:none;stroke:#FF6346;stroke-width:2;stroke-miterlimit:10;stroke-dasharray:5.9845,5.9845;}
	.st2{fill:none;stroke:#FFE161;stroke-width:2;stroke-miterlimit:10;}
	.st3{fill:none;stroke:#FFE161;stroke-width:2;stroke-miterlimit:10;stroke-dasharray:6,6;}
	.st4{fill:#FFE161;}
	.st5{fill:#FF6346;}
</style>
<title>globe</title>
<path class="st0" d="M182.3,228.5c0,0,6.9-11.9,14.8-6.9c11.9,0,40.6,3,56.4,11.9c21.8-2,22.7-4,26.7,1s19.8-9.9,20.8,0
	s-26.7,9.9-35.6,23.7c-8.9,13.8-4,22.8,3,27.7s21.8-16.9,31.7-24.7c9.9-7.9,12.9-9.9,22.7-8.9s18.8,5,23.7,18.8s-8.9,22.7-13.9,24.7
	s-10.9-7.9-16.8,5.9s-11.9,9.9-28.7,20.8s-26.7,5.9-36.6,22.8s-19.8,16.8-23.7,28.7s-2,33.6-5.9,37.6s-19.8-31.6-28.7-29.7
	s-16.8,6.9-17.8,22.8s-8.9,21.8-5.9,26.7s9.9,6.9,18.8,2s13.9-10.9,15.8,4s5.9,32.6,14.8,42.5s16.8,7.9,23.7,31.6s12.9,28.7-2,22.7
	s-35.6-28.7-39.5-33.6s-1-13.9-17.8-25.7s-21.7-19.8-23.7-23.7s-2-17.8-3-26.7s-5.9,3-7.9-14.8s-14.8-48.5-10.8-60.4
	s8.9-39.5,17.8-58.3s12.8-29.7,10.9-36.6C163.6,247.3,171.5,236.4,182.3,228.5z"/>
<path class="st0" d="M326.7,234.4c0,0,13.9-4,21.8-6.9s13.8-4,8.9,6.9s-7.9,15.8-15.8,14.8s-32.6-2-27.7-6.9
	S323.7,243.3,326.7,234.4z"/>
<path class="st0" d="M392.6,706.7c0.8-4.7,2-9.2,3.6-13.7c4.9-13.8,25.7-6.9,36.6-31.7s14.8-30.7,13.8-44.5S426.8,603,413,589.1
	s-25.7-31.6-38.6-37.6s-29.7-26.7-53.4-31.6s-53.4-9.9-53.4,10.9c0,20.8,7.9,27.7-1,47.5s1,13.8,3,31.6c1.3,12,20.8,29.7,25.7,38.6
	s12.9,5.9,22.7,14.8c6.4,5.8,10.4,21.2,14.2,34.2"/>
<path class="st0" d="M540.6,155.3c-4,4.5,2.6,16.8,3.6,25.7s-13.8,3-30.7,14.8s-4,19.8-19.8,16.8s-23.7-20.8-25.7-33.6
	s-23.7-16.8-34.6-11.9s8.9,6.9,5.9,21.8s-17.8,14.8-24.7,13.9s-11.9-5-21.8,5.9s4,17.8,5,28.7s-9.9,19.8-4,20.8s17.8-16.8,21.8-5
	c4,11.8-10.8,17.8-15.8,30.7s15.8,32.6,31.6,39.5s19.8,0,12.9,11.9s-23.7,27.7-32.6,43.5s4,15.8,18.8,14.8s17.8-3,14.8,13.8
	s-6.9,19.8,4.9,20.8s16.8,1,27.7-20.8s-9.9-19.8-6.9-36.6s5.9-15.8,16.8-22.7s-4.9-10.9,3-16.8s11.3-9.5,17.8-16.8
	c7.9-8.9,3,5,16.8,17.8s24.7,33.6,24.7,41.5s-12.9,22.7-5,23.7s9.9-5.9,15.8-16.8s12.8-4,15.8-10.9c2.4-5.5-15.8-10.9-25.7-27.7
	s-7.9-20.8-1-37.6s20.8-8.9,29.7-6.9s-3,4.9,9.9,20.8s8.9-1,17.8,3.9s0-15.8,10.9-23.7s6.9-2,19.8,1s11.9-1,7.9-13.8
	s-6.9-6-11.9-16.8s2.7-15.5,13.6-17.4"/>
<path class="st0" d="M640.1,241.3c0,0-32.6,5.9-36.6-7.9s0-15.8-8.9-23.7s-18.8-32.6-18.8-32.6"/>
<path class="st0" d="M417.3,160.2c5.2-0.7,14.8-4.8,16.7-10c2.4-6.6-8.3-5.8-27.1-4.8s-19.9,17.9-30.8,8s-28.7,4.9-33.6,13.8
	s18.8,2,24.7,1s-5.9,11.9,9.9,10.9s33.2-1.6,22.7,6.9c-7.4,6.1-8.1,10.1-1.9,9.8c12.2-0.7,15.3-1.5,22.2-7.4s6.2-10.9-0.6-18.2
	C415.4,165.7,412.3,160.9,417.3,160.2z"/>
<path class="st0" d="M466.1,128.6c-4.9,12.9-15.7,25.1-5.8,30s13.4,12.6,17.7,25.4c5.3,15.6,17.8,4,28.7-2l10.9-5.9
	c0,0,6.9,8.9,7.9,1s-5.9-12.9-19.8-23.7s-23.7-16.8-21.8-19.8"/>
<path class="st0" d="M682.2,320.9c0,0-10.4-12.3-11.4-3.4s-7.9,7.9-19.8,0s-19.8-10.9-32.6,19.8s-11.9,35.6-10.9,58.3
	s-14.8,12.9-3,39.6s21.7,29.7,34.6,25.7s28.7-20.8,23.7,11.9s-6.9,28.7-9.9,48.5c-3,19.8-19.8,50.4-40.5,69.2s-43.5,32.6-44.4,42.5
	s-2,20.8,1,23.7"/>
<path class="st0" d="M697.5,413.9c0,161.4-130.8,292.2-292.2,292.2S113.1,575.2,113.1,413.9s130.8-292.2,292.2-292.2
	S697.5,252.5,697.5,413.9z"/>
<path class="st1" d="M473.4,273.6c19.2-5.6,71.3-15.5,116.3,17c56.3,40.7,67.9,109.3,70.2,129.4"/>
<path class="st2" d="M213.7,390c0,0,0.9-0.5,2.7-1.3"/>
<path class="st3" d="M222,386.5c21.2-7.1,81.3-17.3,157,55.2c61.1,58.5,57.5,144.4,55.3,167.6"/>
<path class="st2" d="M434,612.3c-0.2,1.9-0.4,3-0.4,3"/>
<path class="st3" d="M283,527.1c0,0,18.3-60.3,112.7-122.1c73.8-48.3,158.3-22,158.3-22"/>
<path class="st3" d="M216.6,186.8c0,0-37.6-3.8-57.5,30.5C129,269.4,172,330.6,172,330.6l0.5,0.8c0,0,34.4-121.9,144.1-142.4
	c84.2-15.7,129.3,33.2,129.3,33.2s5.8-49.7,41-38.1"/>
<path class="st3" d="M633.2,227.2c0,0,73.9,16.9,93.7,117.5c18.7,95-61.2,168.7-61.2,168.7"/>
<path class="st1" d="M331.9,591.2c0,0,3.1,83.2-51.9,88.4c-39.8,3.8-57.1-31.6-57.1-31.6"/>
<circle class="st4" cx="171.3" cy="330.1" r="4"/>
<circle class="st4" cx="214.8" cy="390.1" r="4"/>
<circle class="st4" cx="282.4" cy="528.6" r="4"/>
<circle class="st5" cx="331.6" cy="590" r="4"/>
<circle class="st4" cx="433" cy="618" r="4"/>
<circle class="st4" cx="553" cy="382.8" r="4"/>
<circle class="st5" cx="660.4" cy="426.3" r="4"/>
<circle class="st4" cx="666.2" cy="512.1" r="4"/>
<circle class="st5" cx="466.4" cy="277.2" r="4"/>
<circle class="st4" cx="488.9" cy="184.9" r="4"/>
<circle class="st4" cx="446.6" cy="224.4" r="4"/>
</svg>
