<?xml version="1.0" encoding="utf-8"?>
<!-- Generator: Adobe Illustrator 23.0.3, SVG Export Plug-In . SVG Version: 6.00 Build 0)  -->
<svg version="1.1" id="Layer_1" xmlns="http://www.w3.org/2000/svg" xmlns:xlink="http://www.w3.org/1999/xlink" x="0px" y="0px"
	 viewBox="0 0 130 130" style="enable-background:new 0 0 130 130;" xml:space="preserve">
<style type="text/css">
	.st0{fill:none;stroke:#1EB9D5;stroke-width:1.5;stroke-linecap:round;stroke-linejoin:round;}
	.st1{fill:none;stroke:#1EB9D5;stroke-width:1.5;}
	.st2{fill:#FFFFFF;}
</style>
<title>globe7</title>
<polygon class="st0" points="34.3,39.1 42.9,43.9 51.3,39.1 42.9,34.7 "/>
<line class="st1" x1="51.3" y1="49.7" x2="51.3" y2="39.1"/>
<polyline class="st1" points="34.3,39.1 34.3,48.8 42.8,53.8 46.5,51.8 "/>
<line class="st1" x1="42.9" y1="43.9" x2="42.9" y2="53.1"/>
<polygon class="st0" points="78.6,39.1 87.2,43.9 95.7,39.1 87.2,34.7 "/>
<line class="st1" x1="95.6" y1="42.8" x2="95.7" y2="39.1"/>
<polyline class="st1" points="78.6,39.1 78.6,48.8 87.2,53.8 95.5,49.3 95.6,46.8 "/>
<line class="st1" x1="87.2" y1="43.9" x2="87.2" y2="53.1"/>
<polygon class="st0" points="56,56.5 64.6,61.4 73.1,56.5 64.6,52.2 "/>
<polyline class="st1" points="68,69.4 72.9,66.8 73.1,56.5 "/>
<polyline class="st1" points="56,56.5 56,66.3 61.6,69.5 "/>
<line class="st1" x1="64.6" y1="61.4" x2="64.6" y2="66.5"/>
<line class="st1" x1="47.5" y1="46.9" x2="59.8" y2="54.6"/>
<line class="st1" x1="69.2" y1="54.4" x2="82.4" y2="47.4"/>
<g>
	<path class="st2" d="M46.4,84.7c-0.8,0-1.4,0.3-1.9,0.8s-0.7,1.2-0.7,2.1s0.2,1.7,0.7,2.2c0.4,0.5,1.1,0.8,1.9,0.8
		c0.5,0,1.1-0.1,1.7-0.3V91c-0.5,0.2-1.1,0.3-1.8,0.3c-1.1,0-1.9-0.3-2.4-1c-0.5-0.7-0.9-1.5-0.9-2.7c0-0.7,0.1-1.4,0.4-1.9
		s0.7-1,1.2-1.3s1.1-0.4,1.8-0.4c0.7,0,1.4,0.1,2,0.4L48,85.1C47.5,84.9,47,84.7,46.4,84.7z"/>
	<path class="st2" d="M50.5,88.3v3h-0.8v-7.1h2c0.9,0,1.5,0.2,1.9,0.5c0.4,0.3,0.6,0.8,0.6,1.5c0,0.9-0.5,1.6-1.4,1.9l1.9,3.2h-1
		l-1.7-3H50.5z M50.5,87.6h1.1c0.6,0,1-0.1,1.3-0.3c0.3-0.2,0.4-0.6,0.4-1c0-0.5-0.1-0.8-0.4-1S52.2,85,51.6,85h-1.1V87.6z"/>
	<path class="st2" d="M57.7,87.7l1.9-3.6h0.9l-2.4,4.4v2.8h-0.9v-2.7l-2.4-4.4h0.9L57.7,87.7z"/>
	<path class="st2" d="M66,86.2c0,0.7-0.2,1.3-0.7,1.7c-0.5,0.4-1.2,0.6-2.1,0.6h-0.8v2.8h-0.8v-7.1h1.9C65.1,84.1,66,84.8,66,86.2z
		 M62.3,87.7H63c0.7,0,1.3-0.1,1.6-0.4c0.3-0.3,0.5-0.6,0.5-1.1s-0.2-0.8-0.5-1.1c-0.3-0.3-0.8-0.3-1.4-0.3h-0.9V87.7z"/>
	<path class="st2" d="M69.7,91.2h-0.8v-6.4h-2.3v-0.7H72v0.7h-2.3C69.7,84.8,69.7,91.2,69.7,91.2z"/>
	<path class="st2" d="M79.2,87.7c0,1.1-0.3,2-0.9,2.7c-0.6,0.7-1.4,1-2.4,1c-1.1,0-1.9-0.3-2.4-1c-0.6-0.6-0.9-1.5-0.9-2.7
		s0.3-2.1,0.9-2.7c0.6-0.6,1.4-1,2.4-1s1.8,0.3,2.4,1C78.9,85.7,79.2,86.5,79.2,87.7z M73.5,87.7c0,1,0.2,1.7,0.6,2.2
		c0.4,0.5,1,0.7,1.8,0.7c0.8,0,1.4-0.2,1.8-0.7c0.4-0.5,0.6-1.2,0.6-2.2s-0.2-1.7-0.6-2.2s-1-0.7-1.8-0.7c-0.8,0-1.4,0.2-1.8,0.7
		C73.7,86,73.5,86.7,73.5,87.7z"/>
	<path class="st2" d="M86,84.1l-2.7,7.1h-0.8l2.7-7.1H86z"/>
	<path class="st2" d="M34.3,97.8h2c0.9,0,1.6,0.1,2.1,0.4s0.6,0.7,0.6,1.3c0,0.4-0.1,0.8-0.4,1c-0.2,0.3-0.6,0.5-1,0.5l0,0
		c1.1,0.2,1.6,0.8,1.6,1.7c0,0.6-0.2,1.1-0.6,1.5c-0.4,0.4-1,0.5-1.8,0.5h-2.5C34.3,104.7,34.3,97.8,34.3,97.8z M35.1,100.9h1.4
		c0.6,0,1-0.1,1.3-0.3c0.3-0.2,0.4-0.5,0.4-0.9s-0.1-0.7-0.4-0.9c-0.3-0.2-0.7-0.3-1.4-0.3h-1.2L35.1,100.9L35.1,100.9z M35.1,101.6
		v2.7h1.5c0.6,0,1-0.1,1.3-0.3c0.3-0.2,0.4-0.6,0.4-1s-0.1-0.8-0.4-1c-0.3-0.2-0.8-0.3-1.4-0.3L35.1,101.6L35.1,101.6z"/>
	<path class="st2" d="M40.7,104.9v-7.1h0.8v6.4h3.1v0.8h-3.9V104.9z"/>
	<path class="st2" d="M52.1,101.4c0,1.1-0.3,2-0.9,2.7s-1.4,1-2.4,1c-1.1,0-1.9-0.3-2.4-1c-0.6-0.6-0.9-1.5-0.9-2.7s0.3-2.1,0.9-2.7
		s1.4-1,2.4-1s1.8,0.3,2.4,1S52.1,100.2,52.1,101.4z M46.4,101.4c0,1,0.2,1.7,0.6,2.2s1,0.7,1.8,0.7s1.4-0.2,1.8-0.7
		s0.6-1.2,0.6-2.2s-0.2-1.7-0.6-2.2s-1-0.7-1.8-0.7s-1.4,0.2-1.8,0.7C46.6,99.7,46.4,100.4,46.4,101.4z"/>
	<path class="st2" d="M56.8,98.4c-0.8,0-1.4,0.3-1.9,0.8s-0.7,1.2-0.7,2.1s0.2,1.7,0.7,2.2c0.4,0.5,1.1,0.8,1.9,0.8
		c0.5,0,1.1-0.1,1.7-0.3v0.7c-0.5,0.2-1.1,0.3-1.8,0.3c-1.1,0-1.9-0.3-2.4-1c-0.6-0.6-0.9-1.5-0.9-2.7c0-0.7,0.1-1.4,0.4-1.9
		c0.3-0.6,0.7-1,1.2-1.3s1.1-0.4,1.8-0.4c0.7,0,1.4,0.1,2,0.4l-0.4,0.7C57.8,98.6,57.3,98.4,56.8,98.4z"/>
	<path class="st2" d="M65.2,104.9h-1l-2.6-3.5l-0.8,0.7v2.8H60v-7.1h0.8v3.5l3.2-3.5h1l-2.9,3.1L65.2,104.9z"/>
	<path class="st2" d="M69.2,98.4c-0.8,0-1.4,0.3-1.9,0.8s-0.7,1.2-0.7,2.1s0.2,1.7,0.7,2.2c0.4,0.5,1.1,0.8,1.9,0.8
		c0.5,0,1.1-0.1,1.7-0.3v0.7c-0.5,0.2-1.1,0.3-1.8,0.3c-1.1,0-1.9-0.3-2.4-1c-0.6-0.6-0.9-1.5-0.9-2.7c0-0.7,0.1-1.4,0.4-1.9
		c0.3-0.6,0.7-1,1.2-1.3s1.1-0.4,1.8-0.4c0.7,0,1.4,0.1,2,0.4l-0.4,0.7C70.3,98.6,69.8,98.4,69.2,98.4z"/>
	<path class="st2" d="M77.9,104.9h-0.8v-3.4h-3.8v3.4h-0.8v-7.1h0.8v3h3.8v-3h0.8V104.9z"/>
	<path class="st2" d="M84.3,104.9l-0.9-2.3h-2.9l-0.9,2.3h-0.8l2.8-7.2h0.7l2.8,7.2H84.3z M83.2,101.9l-0.8-2.2
		c-0.1-0.3-0.2-0.6-0.3-1c-0.1,0.3-0.2,0.7-0.3,1l-0.8,2.2H83.2z"/>
	<path class="st2" d="M86.2,104.9v-7.1H87v7.1H86.2z"/>
	<path class="st2" d="M94.5,104.9h-0.9l-3.9-6l0,0c0.1,0.7,0.1,1.3,0.1,1.9v4.1H89v-7.1h0.9l3.9,6l0,0c0-0.1,0-0.4,0-0.8
		c0-0.5,0-0.8,0-1v-4.1h0.8L94.5,104.9L94.5,104.9z"/>
</g>
</svg>
