<svg xmlns="http://www.w3.org/2000/svg" viewBox="0 0 260.93 112.44"><defs><style>.a{fill:#ffe161;}.b{fill:none;stroke:#1eb9d5;stroke-linecap:round;stroke-linejoin:round;stroke-width:2px;}.c{fill:#1eb9d5;}</style></defs><title>Asset 3</title><path class="a" d="M3.61,105.18l.27,1.95h0l.29-2,2.43-7.88h.67l2.45,7.91.29,1.95h0l.31-2,2-7.88h1.35l-3.29,12H9.62l-2.39-7.91-.3-1.78H6.84l-.3,1.8-2.39,7.89H3.37L0,97.27H1.48Z"/><path class="a" d="M20.56,108.4a3.78,3.78,0,0,1-1.27.64,5.38,5.38,0,0,1-1.62.24A4,4,0,0,1,16,109a2.88,2.88,0,0,1-1.17-.89,3.83,3.83,0,0,1-.67-1.39,6.83,6.83,0,0,1-.22-1.82,5,5,0,0,1,1-3.29,3.42,3.42,0,0,1,2.75-1.13,4.92,4.92,0,0,1,1.14.13,2.39,2.39,0,0,1,1,.48,2.43,2.43,0,0,1,.74,1,4.14,4.14,0,0,1,.29,1.71,8,8,0,0,1-.1,1.23H15.34a5.21,5.21,0,0,0,.15,1.32,2.66,2.66,0,0,0,.47,1,2.08,2.08,0,0,0,.84.6,3.61,3.61,0,0,0,2.4,0,2.37,2.37,0,0,0,.86-.47Zm-2.89-6.78a2.34,2.34,0,0,0-1.6.53,2.54,2.54,0,0,0-.71,1.78h4.18a2.61,2.61,0,0,0-.49-1.79A1.8,1.8,0,0,0,17.67,101.62Z"/><path class="a" d="M23,97.27h1.35v4.2h.07a2.68,2.68,0,0,1,1-.76,3.12,3.12,0,0,1,1.3-.27,2.94,2.94,0,0,1,2.46,1,5.24,5.24,0,0,1,.81,3.23,4.73,4.73,0,0,1-1.08,3.36,4,4,0,0,1-3,1.14,6.47,6.47,0,0,1-1.71-.2,4.34,4.34,0,0,1-1.16-.44Zm3.48,4.35a2,2,0,0,0-1.37.47,2.74,2.74,0,0,0-.76,1.34v4.24a2.48,2.48,0,0,0,.78.28A4.83,4.83,0,0,0,26,108a2.28,2.28,0,0,0,1.83-.8,3.86,3.86,0,0,0,.68-2.53,6.78,6.78,0,0,0-.11-1.23,3.13,3.13,0,0,0-.37-1,2,2,0,0,0-.65-.64A1.86,1.86,0,0,0,26.45,101.62Z"/><path class="a" d="M40.81,97.07l1.06.47-6.15,13.89L34.66,111Z"/><path class="a" d="M47.18,97.27a6.76,6.76,0,0,1,.72-.07l.82,0h1.61a6.09,6.09,0,0,1,2.45.44A4.52,4.52,0,0,1,54.5,98.8a5.06,5.06,0,0,1,1,1.88,8.31,8.31,0,0,1,.33,2.41,8.74,8.74,0,0,1-.31,2.3,5.58,5.58,0,0,1-1,2,4.88,4.88,0,0,1-1.75,1.36,6.09,6.09,0,0,1-2.62.51h-.7l-.88,0-.84,0a4.35,4.35,0,0,1-.56,0Zm3.19,1.12h-1l-.46,0-.33,0v9.44l.32,0h.49l.49,0h.32a4.39,4.39,0,0,0,2-.41,3.47,3.47,0,0,0,1.28-1.08,4.36,4.36,0,0,0,.68-1.57,7.9,7.9,0,0,0,.2-1.83,7.81,7.81,0,0,0-.18-1.66,4.53,4.53,0,0,0-.64-1.51,3.42,3.42,0,0,0-1.22-1.1A3.91,3.91,0,0,0,50.37,98.39Z"/><path class="a" d="M64.22,108.4A3.78,3.78,0,0,1,63,109a5.4,5.4,0,0,1-1.63.24,4.11,4.11,0,0,1-1.67-.32,2.85,2.85,0,0,1-1.16-.89,3.83,3.83,0,0,1-.67-1.39,6.83,6.83,0,0,1-.22-1.82,5,5,0,0,1,1-3.29,3.41,3.41,0,0,1,2.75-1.13,4.92,4.92,0,0,1,1.14.13,2.44,2.44,0,0,1,1,.48,2.52,2.52,0,0,1,.74,1,4.31,4.31,0,0,1,.29,1.71,9.51,9.51,0,0,1-.1,1.23H59a5.21,5.21,0,0,0,.15,1.32,2.66,2.66,0,0,0,.47,1,2,2,0,0,0,.83.6,3.64,3.64,0,0,0,2.41,0,2.46,2.46,0,0,0,.86-.47Zm-2.9-6.78a2.33,2.33,0,0,0-1.59.53,2.59,2.59,0,0,0-.72,1.78h4.18a2.61,2.61,0,0,0-.48-1.79A1.81,1.81,0,0,0,61.32,101.62Z"/><path class="a" d="M70.34,106.78A1,1,0,0,0,70,106a2.68,2.68,0,0,0-.75-.48,10.06,10.06,0,0,0-1-.37,4.63,4.63,0,0,1-1-.46,2.42,2.42,0,0,1-.75-.71,2.08,2.08,0,0,1-.3-1.18A2.16,2.16,0,0,1,67,101a2.93,2.93,0,0,1,1.92-.57,6.53,6.53,0,0,1,1.53.16,7,7,0,0,1,1.07.38l-.32,1.11a5.13,5.13,0,0,0-.94-.32,4.36,4.36,0,0,0-1.17-.15,1.86,1.86,0,0,0-1.09.26,1,1,0,0,0-.34.87.83.83,0,0,0,.3.68,3,3,0,0,0,.75.44c.3.13.62.26,1,.38a4.73,4.73,0,0,1,1,.49,2.9,2.9,0,0,1,.75.77,2.2,2.2,0,0,1,.3,1.22,2.79,2.79,0,0,1-.18,1,2,2,0,0,1-.55.81,2.7,2.7,0,0,1-.91.53,3.88,3.88,0,0,1-1.29.2,6.43,6.43,0,0,1-1.64-.19,5,5,0,0,1-1.13-.44l.41-1.15a4.29,4.29,0,0,0,1,.41,4.51,4.51,0,0,0,1.26.18,2.29,2.29,0,0,0,1.2-.28A1.11,1.11,0,0,0,70.34,106.78Z"/><path class="a" d="M75.85,105.28h-.77v3.79H73.73V97.27h1.35v7.18l.69-.23,2.61-3.58H80L77.37,104l-.69.56.84.67,2.82,3.81H78.67Z"/><path class="a" d="M80.69,100.64H82V99l1.34-.39v2h2.3v1.18h-2.3v4.67a2.6,2.6,0,0,0,.22,1.24.81.81,0,0,0,.74.36,2.7,2.7,0,0,0,.75-.09c.2-.06.42-.14.67-.24l.3,1a5.48,5.48,0,0,1-1,.35,4.79,4.79,0,0,1-1.16.14,1.66,1.66,0,0,1-1.45-.59,3.38,3.38,0,0,1-.42-1.94v-4.93H80.69Z"/><path class="a" d="M86.86,104.86a5,5,0,0,1,1-3.28,3.38,3.38,0,0,1,2.74-1.14,4.1,4.1,0,0,1,1.64.31,3,3,0,0,1,1.16.9,3.8,3.8,0,0,1,.67,1.4,6.8,6.8,0,0,1,.22,1.81,5,5,0,0,1-.95,3.28,3.36,3.36,0,0,1-2.74,1.14,3.93,3.93,0,0,1-1.64-.32,2.92,2.92,0,0,1-1.16-.89,3.8,3.8,0,0,1-.67-1.4A6.8,6.8,0,0,1,86.86,104.86Zm1.4,0a5.46,5.46,0,0,0,.13,1.23,3.24,3.24,0,0,0,.39,1,2.07,2.07,0,0,0,.71.7,1.9,1.9,0,0,0,1.06.27c1.53,0,2.29-1.06,2.29-3.23a6.31,6.31,0,0,0-.12-1.25,3.51,3.51,0,0,0-.4-1,2,2,0,0,0-1.77-1C89,101.61,88.26,102.69,88.26,104.86Z"/><path class="a" d="M96.37,100.64h.92l.26,1h.06a2.6,2.6,0,0,1,1-.91,3.17,3.17,0,0,1,1.4-.31,3.07,3.07,0,0,1,2.52,1,5.08,5.08,0,0,1,.82,3.25,6,6,0,0,1-.28,1.91,4,4,0,0,1-.78,1.44,3.46,3.46,0,0,1-1.22.92,3.93,3.93,0,0,1-1.59.32,5,5,0,0,1-1-.08,4.53,4.53,0,0,1-.79-.26v3.5H96.37Zm3.4,1a2,2,0,0,0-1.36.45,2.55,2.55,0,0,0-.7,1.36v4.18a2.72,2.72,0,0,0,.7.36,3.51,3.51,0,0,0,1,.12,2.21,2.21,0,0,0,1.85-.86,4.05,4.05,0,0,0,.68-2.56,6,6,0,0,0-.12-1.25,2.6,2.6,0,0,0-.37-1,1.84,1.84,0,0,0-.68-.62A2.2,2.2,0,0,0,99.77,101.62Z"/><path class="a" d="M114.22,97.07l1.06.47-6.15,13.89-1.07-.47Z"/><path class="a" d="M129.66,101.15l.17-1.77h-.09L129.1,101,126,106.33h-.42L122.36,101l-.61-1.6h-.08l.23,1.75v7.94h-1.31V97.27h1l3.7,6,.55,1.31h0l.53-1.35,3.52-6h1.1v11.8h-1.4Z"/><path class="a" d="M133.31,104.86a5,5,0,0,1,1-3.28,3.35,3.35,0,0,1,2.74-1.14,4.17,4.17,0,0,1,1.64.31,2.93,2.93,0,0,1,1.15.9,3.81,3.81,0,0,1,.68,1.4,7.24,7.24,0,0,1,.22,1.81,5,5,0,0,1-.95,3.28,3.38,3.38,0,0,1-2.74,1.14,4,4,0,0,1-1.65-.32,2.89,2.89,0,0,1-1.15-.89,3.81,3.81,0,0,1-.68-1.4A7.24,7.24,0,0,1,133.31,104.86Zm1.4,0a6.1,6.1,0,0,0,.13,1.23,3.26,3.26,0,0,0,.4,1,2,2,0,0,0,.7.7,1.94,1.94,0,0,0,1.07.27c1.52,0,2.29-1.06,2.29-3.23a5.64,5.64,0,0,0-.13-1.25,3.24,3.24,0,0,0-.39-1,2.16,2.16,0,0,0-.71-.7,2.08,2.08,0,0,0-1.06-.26C135.48,101.61,134.71,102.69,134.71,104.86Z"/><path class="a" d="M142.82,97.27h1.35v4.2h.07a2.65,2.65,0,0,1,1-.76,3.17,3.17,0,0,1,1.31-.27,2.9,2.9,0,0,1,2.45,1,5.17,5.17,0,0,1,.82,3.23,4.73,4.73,0,0,1-1.08,3.36,4,4,0,0,1-3,1.14A6.47,6.47,0,0,1,144,109a4.21,4.21,0,0,1-1.16-.44Zm3.47,4.35a2,2,0,0,0-1.36.47,2.74,2.74,0,0,0-.76,1.34v4.24a2.33,2.33,0,0,0,.77.28,4.94,4.94,0,0,0,.95.09,2.31,2.31,0,0,0,1.83-.8,3.92,3.92,0,0,0,.68-2.53,6,6,0,0,0-.12-1.23,2.9,2.9,0,0,0-.37-1,1.9,1.9,0,0,0-.65-.64A1.81,1.81,0,0,0,146.29,101.62Z"/><path class="a" d="M151.92,98.08a.93.93,0,0,1,.26-.66.88.88,0,0,1,.67-.28.94.94,0,0,1,.69.28.88.88,0,0,1,.29.66.82.82,0,0,1-.29.64,1,1,0,0,1-.69.26.94.94,0,0,1-.67-.26A.87.87,0,0,1,151.92,98.08Zm.29,2.56h1.35v8.43h-1.35Z"/><path class="a" d="M157.94,107a1.4,1.4,0,0,0,.2.84.7.7,0,0,0,.58.25l.47,0a2.42,2.42,0,0,0,.57-.15l.15,1.06a3,3,0,0,1-.75.22,4.63,4.63,0,0,1-.83.09,1.62,1.62,0,0,1-1.74-1.89V97.27h1.35Z"/><path class="a" d="M167.51,108.4a3.78,3.78,0,0,1-1.27.64,5.38,5.38,0,0,1-1.62.24A4,4,0,0,1,163,109a3,3,0,0,1-1.17-.89,4,4,0,0,1-.67-1.39,6.83,6.83,0,0,1-.22-1.82,5,5,0,0,1,1-3.29,3.42,3.42,0,0,1,2.75-1.13,5.07,5.07,0,0,1,1.15.13,2.4,2.4,0,0,1,1,.48,2.43,2.43,0,0,1,.74,1,4.14,4.14,0,0,1,.29,1.71,8,8,0,0,1-.1,1.23h-5.41a5.21,5.21,0,0,0,.15,1.32,2.66,2.66,0,0,0,.47,1,2.08,2.08,0,0,0,.84.6,3.61,3.61,0,0,0,2.4,0,2.37,2.37,0,0,0,.86-.47Zm-2.89-6.78a2.34,2.34,0,0,0-1.6.53,2.54,2.54,0,0,0-.71,1.78h4.18a2.61,2.61,0,0,0-.49-1.79A1.8,1.8,0,0,0,164.62,101.62Z"/><path class="a" d="M179.62,105.8H175.3l-1.18,3.27h-1.4l4.47-12h.64l4.48,12h-1.48Zm-3.87-1.21h3.45L177.9,101l-.42-1.79h0L177,101Z"/><path class="a" d="M183.75,100.64h.92l.26,1H185a2.6,2.6,0,0,1,1-.91,3.18,3.18,0,0,1,1.41-.31,3.06,3.06,0,0,1,2.51,1,5.08,5.08,0,0,1,.82,3.25,6,6,0,0,1-.28,1.91,4,4,0,0,1-.78,1.44,3.46,3.46,0,0,1-1.22.92,3.93,3.93,0,0,1-1.59.32,5,5,0,0,1-1-.08,4.19,4.19,0,0,1-.78-.26v3.5h-1.35Zm3.4,1a1.93,1.93,0,0,0-1.35.45,2.42,2.42,0,0,0-.7,1.36v4.18a2.51,2.51,0,0,0,.69.36,3.59,3.59,0,0,0,1,.12,2.2,2.2,0,0,0,1.84-.86,4.05,4.05,0,0,0,.68-2.56,6.76,6.76,0,0,0-.11-1.25,2.79,2.79,0,0,0-.38-1,1.84,1.84,0,0,0-.68-.62A2.2,2.2,0,0,0,187.15,101.62Z"/><path class="a" d="M192.87,100.64h.92l.26,1h.06a2.6,2.6,0,0,1,1-.91,3.17,3.17,0,0,1,1.4-.31,3.07,3.07,0,0,1,2.52,1,5.08,5.08,0,0,1,.82,3.25,6,6,0,0,1-.28,1.91,4,4,0,0,1-.78,1.44,3.46,3.46,0,0,1-1.22.92,3.93,3.93,0,0,1-1.59.32,5,5,0,0,1-1-.08,4.53,4.53,0,0,1-.79-.26v3.5h-1.34Zm3.4,1a2,2,0,0,0-1.36.45,2.55,2.55,0,0,0-.7,1.36v4.18a2.72,2.72,0,0,0,.7.36,3.51,3.51,0,0,0,1,.12,2.21,2.21,0,0,0,1.85-.86,4.05,4.05,0,0,0,.68-2.56,6,6,0,0,0-.12-1.25,2.6,2.6,0,0,0-.37-1,1.84,1.84,0,0,0-.68-.62A2.2,2.2,0,0,0,196.27,101.62Z"/><path class="a" d="M203.49,107a1.33,1.33,0,0,0,.2.84.67.67,0,0,0,.57.25l.47,0a2.62,2.62,0,0,0,.58-.15l.15,1.06a3,3,0,0,1-.75.22,4.63,4.63,0,0,1-.84.09,1.83,1.83,0,0,1-1.24-.43,1.86,1.86,0,0,1-.49-1.46V97.27h1.35Z"/><path class="a" d="M206.91,98.08a.89.89,0,0,1,.26-.66.84.84,0,0,1,.66-.28,1,1,0,0,1,.7.28.87.87,0,0,1,.28.66.81.81,0,0,1-.28.64,1,1,0,0,1-.7.26.9.9,0,0,1-.66-.26A.83.83,0,0,1,206.91,98.08Zm.28,2.56h1.35v8.43h-1.35Z"/><path class="a" d="M217.17,108.52a3.85,3.85,0,0,1-1.19.56,5.4,5.4,0,0,1-1.45.2,3.9,3.9,0,0,1-1.66-.32,2.73,2.73,0,0,1-1.1-.89,3.74,3.74,0,0,1-.62-1.4,7.78,7.78,0,0,1-.2-1.81,5,5,0,0,1,1-3.28,3.32,3.32,0,0,1,2.71-1.14,6,6,0,0,1,1.37.13,3.84,3.84,0,0,1,1,.36l-.38,1.16a3.86,3.86,0,0,0-.86-.34,3.73,3.73,0,0,0-1-.13q-2.4,0-2.4,3.24a5.37,5.37,0,0,0,.13,1.22,2.87,2.87,0,0,0,.42,1,2.1,2.1,0,0,0,.77.71,2.3,2.3,0,0,0,1.19.27,3.08,3.08,0,0,0,1.09-.18,2.84,2.84,0,0,0,.78-.42Z"/><path class="a" d="M218.89,101.27a5.09,5.09,0,0,1,1.49-.58,8.6,8.6,0,0,1,1.78-.18,3.47,3.47,0,0,1,1.41.24,2,2,0,0,1,.81.61,2.12,2.12,0,0,1,.37.84,4.6,4.6,0,0,1,.09.91c0,.67,0,1.33-.05,2s0,1.25,0,1.82c0,.41,0,.81,0,1.18a5.38,5.38,0,0,0,.19,1h-1l-.35-1.18h-.09a2.57,2.57,0,0,1-.38.46,2.23,2.23,0,0,1-.54.4,3.45,3.45,0,0,1-.75.3,3.5,3.5,0,0,1-1,.12,3,3,0,0,1-1-.17,2.22,2.22,0,0,1-.8-.48,2.37,2.37,0,0,1-.53-.75,2.44,2.44,0,0,1-.19-1,2.4,2.4,0,0,1,.3-1.24,2.17,2.17,0,0,1,.85-.79,4.58,4.58,0,0,1,1.31-.42,11.09,11.09,0,0,1,1.7-.13H223a3.89,3.89,0,0,1,.47,0c0-.34.05-.64.05-.91a1.85,1.85,0,0,0-.37-1.3,1.9,1.9,0,0,0-1.35-.37,4.59,4.59,0,0,0-.62,0l-.67.12a6.36,6.36,0,0,0-.66.2,2.54,2.54,0,0,0-.55.25Zm2.39,6.76a2.49,2.49,0,0,0,.85-.13,2.4,2.4,0,0,0,.64-.32,1.8,1.8,0,0,0,.44-.43,2.23,2.23,0,0,0,.27-.45v-1.4l-.48,0h-.49a8.43,8.43,0,0,0-1,.06,3.06,3.06,0,0,0-.88.22,1.55,1.55,0,0,0-.61.44,1.07,1.07,0,0,0-.23.7,1.23,1.23,0,0,0,.43,1A1.56,1.56,0,0,0,221.28,108Z"/><path class="a" d="M226.27,100.64h1.32V99l1.35-.39v2h2.29v1.18h-2.29v4.67a2.48,2.48,0,0,0,.22,1.24.79.79,0,0,0,.74.36,2.63,2.63,0,0,0,.74-.09,7,7,0,0,0,.67-.24l.31,1a5.88,5.88,0,0,1-1,.35,4.73,4.73,0,0,1-1.16.14,1.66,1.66,0,0,1-1.45-.59,3.38,3.38,0,0,1-.42-1.94v-4.93h-1.32Z"/><path class="a" d="M233.1,98.08a.93.93,0,0,1,.26-.66.88.88,0,0,1,.67-.28.94.94,0,0,1,.69.28.87.87,0,0,1,.28.66.81.81,0,0,1-.28.64A1,1,0,0,1,234,99a.94.94,0,0,1-.67-.26A.87.87,0,0,1,233.1,98.08Zm.29,2.56h1.35v8.43h-1.35Z"/><path class="a" d="M237.15,104.86a5,5,0,0,1,.95-3.28,3.36,3.36,0,0,1,2.74-1.14,4.14,4.14,0,0,1,1.64.31,2.93,2.93,0,0,1,1.15.9,3.81,3.81,0,0,1,.68,1.4,6.8,6.8,0,0,1,.22,1.81,5,5,0,0,1-.95,3.28,3.38,3.38,0,0,1-2.74,1.14,4,4,0,0,1-1.65-.32,2.89,2.89,0,0,1-1.15-.89,4,4,0,0,1-.68-1.4A7.25,7.25,0,0,1,237.15,104.86Zm1.39,0a6.1,6.1,0,0,0,.13,1.23,3.26,3.26,0,0,0,.4,1,2,2,0,0,0,.7.7,1.94,1.94,0,0,0,1.07.27c1.52,0,2.29-1.06,2.29-3.23a5.64,5.64,0,0,0-.13-1.25,3.24,3.24,0,0,0-.39-1,2.16,2.16,0,0,0-.71-.7,2.08,2.08,0,0,0-1.06-.26C239.31,101.61,238.54,102.69,238.54,104.86Z"/><path class="a" d="M252.06,109.07v-4.8a4,4,0,0,0-.38-2,1.44,1.44,0,0,0-1.39-.67,2.24,2.24,0,0,0-1.47.48,2.55,2.55,0,0,0-.82,1.21v5.76h-1.35v-8.43h.95l.25,1h.07a3.05,3.05,0,0,1,1.08-.88,3.59,3.59,0,0,1,1.63-.35,4.38,4.38,0,0,1,1.21.16,1.84,1.84,0,0,1,.87.57,2.6,2.6,0,0,1,.52,1.08,7,7,0,0,1,.18,1.73v5.09Z"/><path class="a" d="M259.58,106.78a1,1,0,0,0-.3-.79,2.55,2.55,0,0,0-.75-.48,10.06,10.06,0,0,0-1-.37,4.63,4.63,0,0,1-1-.46,2.42,2.42,0,0,1-.75-.71,2.08,2.08,0,0,1-.3-1.18,2.16,2.16,0,0,1,.69-1.78,2.93,2.93,0,0,1,1.92-.57,6.53,6.53,0,0,1,1.53.16,7,7,0,0,1,1.07.38l-.32,1.11a5.13,5.13,0,0,0-.94-.32,4.36,4.36,0,0,0-1.17-.15,1.86,1.86,0,0,0-1.09.26,1,1,0,0,0-.34.87.83.83,0,0,0,.3.68,3,3,0,0,0,.75.44c.3.13.62.26,1,.38a4.73,4.73,0,0,1,1,.49,2.9,2.9,0,0,1,.75.77,2.2,2.2,0,0,1,.3,1.22,2.79,2.79,0,0,1-.18,1,1.89,1.89,0,0,1-.55.81,2.7,2.7,0,0,1-.91.53,3.88,3.88,0,0,1-1.29.2,6.43,6.43,0,0,1-1.64-.19,5,5,0,0,1-1.13-.44l.41-1.15a4.86,4.86,0,0,0,2.27.59,2.29,2.29,0,0,0,1.2-.28A1.11,1.11,0,0,0,259.58,106.78Z"/><line class="b" x1="178.92" y1="32.1" x2="187.53" y2="32.1"/><line class="b" x1="131.82" y1="32.1" x2="165.93" y2="32.1"/><line class="b" x1="74.19" y1="19.02" x2="132.36" y2="19.02"/><rect class="b" x="130.6" y="14.06" width="57.26" height="57.26" rx="16.27"/><polyline class="b" points="155.18 1 166.03 1 166.03 13.56"/><polyline class="b" points="129.89 56.58 73.68 56.58 73.68 1 143.09 1"/><circle class="c" cx="80.75" cy="10.04" r="2.12"/><circle class="c" cx="88.86" cy="10.04" r="2.12"/><circle class="c" cx="96.73" cy="10.04" r="2.12"/></svg>