<?xml version="1.0" encoding="utf-8"?>
<!-- Generator: Adobe Illustrator 23.0.3, SVG Export Plug-In . SVG Version: 6.00 Build 0)  -->
<svg version="1.1" id="Layer_1" xmlns="http://www.w3.org/2000/svg" xmlns:xlink="http://www.w3.org/1999/xlink" x="0px" y="0px"
	 viewBox="0 0 130 130" style="enable-background:new 0 0 130 130;" xml:space="preserve">
<style type="text/css">
	.st0{fill:#FFE161;}
	.st1{fill:none;stroke:#1EB9D5;stroke-width:1.5;stroke-linecap:round;stroke-linejoin:round;}
	.st2{fill:#1EB9D5;}
</style>
<title>globe11</title>
<path class="st0" d="M36.5,88.4c0.3-0.1,0.5-0.1,0.8-0.1h0.9c0.3,0,0.6,0,0.9,0.1c0.3,0.1,0.6,0.2,0.9,0.3c0.3,0.2,0.5,0.4,0.6,0.7
	c0.2,0.3,0.3,0.7,0.2,1.1c0,0.4-0.1,0.7-0.2,1.1c-0.1,0.3-0.3,0.5-0.6,0.7c-0.3,0.2-0.6,0.3-0.9,0.4c-0.3,0.1-0.7,0.1-1,0.1h-0.4
	h-0.2h-0.2v2.6h-0.8L36.5,88.4z M38.1,88.9h-0.5c-0.1,0-0.3,0-0.4,0v2.9h0.2H38c0.2,0,0.4,0,0.7-0.1c0.2,0,0.4-0.1,0.6-0.2
	c0.2-0.1,0.3-0.3,0.4-0.5c0.1-0.2,0.2-0.5,0.2-0.8c0-0.2,0-0.5-0.2-0.7c-0.1-0.2-0.2-0.3-0.4-0.4c-0.2-0.1-0.4-0.2-0.6-0.2
	C38.5,88.9,38.3,88.9,38.1,88.9z"/>
<path class="st0" d="M41.5,91.8c-0.1-0.9,0.2-1.9,0.7-2.7c0.5-0.6,1.3-1,2.1-0.9c0.4,0,0.9,0.1,1.3,0.3c0.4,0.2,0.7,0.4,0.9,0.7
	c0.2,0.3,0.4,0.7,0.5,1.1c0.1,0.5,0.2,1,0.2,1.5c0.1,0.9-0.2,1.9-0.7,2.7c-0.5,0.6-1.3,1-2.1,0.9c-0.4,0-0.9-0.1-1.2-0.3
	c-0.3-0.2-0.7-0.4-0.9-0.7c-0.2-0.3-0.4-0.7-0.5-1.1C41.6,92.7,41.5,92.3,41.5,91.8z M42.4,91.8c0,0.4,0,0.7,0.1,1.1
	c0.1,0.3,0.2,0.6,0.3,0.9c0.2,0.3,0.4,0.5,0.6,0.6c0.3,0.2,0.6,0.2,0.9,0.2c0.6,0,1.1-0.2,1.4-0.7c0.4-0.6,0.6-1.4,0.5-2.2
	c0-0.4,0-0.7-0.1-1.1c-0.1-0.3-0.2-0.6-0.4-0.9c-0.1-0.3-0.4-0.5-0.6-0.6c-0.3-0.2-0.6-0.2-0.9-0.2c-0.6,0-1.1,0.2-1.4,0.7
	C42.5,90.3,42.3,91,42.4,91.8z"/>
<path class="st0" d="M51.7,93.5c0-0.2-0.1-0.5-0.2-0.7c-0.2-0.2-0.4-0.3-0.6-0.5c-0.3-0.1-0.5-0.3-0.8-0.4c-0.3-0.1-0.6-0.3-0.8-0.4
	c-0.2-0.2-0.4-0.4-0.6-0.6c-0.2-0.3-0.3-0.6-0.2-1c0-0.5,0.2-1,0.6-1.3c0.5-0.3,1-0.5,1.6-0.5c0.4,0,0.7,0,1.1,0.1
	c0.3,0,0.5,0.1,0.8,0.2l-0.2,0.7c-0.2-0.1-0.4-0.2-0.7-0.2c-0.3-0.1-0.7-0.1-1-0.1c-0.4,0-0.7,0.1-1,0.3c-0.4,0.3-0.4,0.9-0.1,1.3
	c0,0,0,0,0,0c0.2,0.2,0.4,0.4,0.6,0.5l0.8,0.4c0.3,0.1,0.6,0.3,0.8,0.5c0.2,0.2,0.4,0.4,0.6,0.6c0.2,0.3,0.3,0.6,0.2,0.9
	c0,0.3,0,0.5-0.2,0.8c-0.1,0.2-0.3,0.5-0.5,0.6c-0.2,0.2-0.5,0.3-0.7,0.4c-0.3,0.1-0.7,0.1-1,0.1c-0.4,0-0.8,0-1.2-0.1
	c-0.3-0.1-0.5-0.1-0.8-0.3l0.3-0.7c0.2,0.1,0.4,0.2,0.7,0.2c0.3,0.1,0.7,0.1,1,0.1c0.2,0,0.4,0,0.6-0.1c0.2,0,0.3-0.1,0.5-0.2
	c0.1-0.1,0.2-0.2,0.3-0.4C51.6,93.8,51.7,93.6,51.7,93.5z"/>
<path class="st0" d="M61.8,90.6l0.1-1l0,0l-0.4,0.9l-1.8,3.1h-0.3l-1.9-3.1l-0.4-0.9l0,0l0.1,1v4.7h-0.8v-6.9h0.6l2.2,3.5l0.3,0.8
	l0,0l0.3-0.8l2.1-3.5h0.6v6.9h-0.8L61.8,90.6z"/>
<path class="st0" d="M64.1,90.7c0.3-0.2,0.6-0.3,0.9-0.3c0.3-0.1,0.7-0.1,1-0.1c0.3,0,0.6,0,0.8,0.1c0.2,0.1,0.4,0.2,0.5,0.4
	c0.1,0.1,0.2,0.3,0.2,0.5c0,0.2,0,0.4,0,0.5c0,0.4,0,0.8,0,1.2s0,0.7,0,1.1s0,0.5,0,0.7c0,0.2,0.1,0.4,0.1,0.6h-0.5l-0.2-0.7l0,0
	c-0.1,0.1-0.1,0.2-0.2,0.3c-0.1,0.1-0.2,0.2-0.3,0.2c-0.1,0.1-0.3,0.1-0.4,0.2c-0.2,0.1-0.4,0.1-0.6,0.1c-0.2,0-0.4,0-0.6-0.1
	c-0.2-0.1-0.3-0.2-0.5-0.3c-0.1-0.1-0.2-0.3-0.3-0.4c-0.2-0.4-0.2-0.9,0-1.3c0.1-0.2,0.3-0.4,0.5-0.5c0.2-0.1,0.5-0.2,0.8-0.2
	c0.3-0.1,0.7-0.1,1-0.1h0.3h0.3c0-0.2,0-0.4,0-0.5c0-0.3,0-0.5-0.2-0.8c-0.2-0.2-0.5-0.3-0.8-0.2h-0.4c-0.1,0-0.3,0-0.4,0.1L64.7,91
	c-0.1,0-0.2,0.1-0.3,0.2L64.1,90.7z M65.5,94.7c0.2,0,0.3,0,0.5-0.1c0.1,0,0.3-0.1,0.4-0.2c0.1-0.1,0.2-0.2,0.3-0.3
	c0.1-0.1,0.1-0.2,0.2-0.3V93h-0.3h-0.3c-0.2,0-0.4,0-0.6,0c-0.2,0-0.4,0.1-0.5,0.1c-0.1,0.1-0.3,0.1-0.3,0.3
	c-0.1,0.1-0.1,0.3-0.1,0.4c0,0.2,0.1,0.4,0.2,0.6C65.1,94.5,65.3,94.6,65.5,94.7L65.5,94.7z"/>
<path class="st0" d="M72.5,94.9c-0.2,0.2-0.4,0.3-0.7,0.3c-0.3,0.1-0.6,0.1-0.8,0.1c-0.3,0-0.7,0-1-0.2c-0.3-0.1-0.5-0.3-0.6-0.5
	c-0.2-0.2-0.3-0.5-0.4-0.8c-0.1-0.3-0.1-0.7-0.1-1.1c0-0.7,0.1-1.4,0.6-1.9c0.4-0.5,1-0.7,1.7-0.7c0.3,0,0.5,0,0.8,0.1
	c0.2,0,0.4,0.1,0.6,0.2l-0.2,0.7C72,91,71.8,91,71.7,90.9c-0.2-0.1-0.4-0.1-0.6-0.1c-0.9,0-1.4,0.6-1.4,1.9c0,0.2,0,0.5,0.1,0.7
	c0,0.2,0.1,0.4,0.2,0.6c0.1,0.2,0.3,0.3,0.4,0.4c0.2,0.1,0.5,0.2,0.7,0.2c0.2,0,0.4,0,0.6-0.1c0.2-0.1,0.3-0.1,0.5-0.2L72.5,94.9z"
	/>
<path class="st0" d="M76.7,95.2v-2.8c0-0.2,0-0.4,0-0.7c0-0.2-0.1-0.3-0.2-0.5c-0.1-0.1-0.2-0.2-0.3-0.3c-0.2-0.1-0.3-0.1-0.5-0.1
	c-0.3,0-0.6,0.1-0.8,0.3c-0.2,0.2-0.4,0.5-0.5,0.8v3.3h-0.8v-6.9h0.8v2.5l0,0c0.2-0.2,0.4-0.4,0.6-0.5c0.3-0.1,0.6-0.2,0.9-0.2
	c0.2,0,0.5,0,0.7,0.1c0.2,0.1,0.4,0.2,0.5,0.3c0.2,0.2,0.3,0.4,0.3,0.6c0.1,0.3,0.1,0.7,0.1,1v3L76.7,95.2z"/>
<path class="st0" d="M79,88.8c0-0.1,0.1-0.3,0.2-0.4c0.1-0.1,0.2-0.2,0.4-0.2c0.2,0,0.3,0.1,0.4,0.2c0.1,0.1,0.2,0.2,0.2,0.4
	c0,0.1-0.1,0.3-0.2,0.4c-0.1,0.1-0.3,0.2-0.4,0.2c-0.1,0-0.3,0-0.4-0.2C79.1,89.1,79,88.9,79,88.8z M79.2,90.3H80v4.9h-0.8V90.3z"/>
<path class="st0" d="M84.8,95.2v-2.8c0-0.4-0.1-0.8-0.2-1.2c-0.2-0.3-0.5-0.4-0.8-0.4c-0.3,0-0.6,0.1-0.9,0.3
	c-0.2,0.2-0.4,0.4-0.5,0.7v3.4h-0.8v-4.9h0.6l0.2,0.6l0,0c0.2-0.2,0.4-0.4,0.6-0.5c0.3-0.1,0.7-0.2,1-0.2c0.2,0,0.5,0,0.7,0.1
	c0.2,0.1,0.4,0.2,0.5,0.3c0.1,0.2,0.2,0.4,0.3,0.6c0.1,0.3,0.1,0.7,0.1,1v3L84.8,95.2z"/>
<path class="st0" d="M90.6,94.8c-0.2,0.2-0.5,0.3-0.8,0.4c-0.3,0.1-0.7,0.1-1,0.1c-0.3,0-0.7-0.1-1-0.2c-0.3-0.1-0.5-0.3-0.7-0.5
	c-0.2-0.2-0.3-0.5-0.4-0.8c-0.1-0.3-0.1-0.7-0.1-1.1c0-0.7,0.2-1.4,0.6-1.9c0.4-0.5,1-0.7,1.6-0.7c0.2,0,0.5,0,0.7,0.1
	c0.2,0,0.4,0.1,0.6,0.3c0.2,0.2,0.3,0.4,0.4,0.6c0.1,0.3,0.2,0.7,0.2,1c0,0.2,0,0.5-0.1,0.7h-3.1c0,0.3,0,0.5,0.1,0.8
	c0.1,0.2,0.1,0.4,0.3,0.6c0.1,0.2,0.3,0.3,0.5,0.3c0.2,0.1,0.5,0.1,0.7,0.1c0.2,0,0.5,0,0.7-0.1c0.2-0.1,0.4-0.2,0.5-0.3L90.6,94.8z
	 M88.9,90.8c-0.3,0-0.7,0.1-0.9,0.3c-0.3,0.3-0.4,0.6-0.4,1H90c0-0.4-0.1-0.8-0.3-1.1C89.5,90.9,89.2,90.8,88.9,90.8L88.9,90.8z"/>
<path class="st0" d="M94.2,93.9c0-0.2,0-0.3-0.2-0.5c-0.1-0.1-0.3-0.2-0.4-0.3L93,92.9c-0.2-0.1-0.4-0.2-0.6-0.3
	c-0.2-0.1-0.3-0.3-0.4-0.4c-0.1-0.2-0.2-0.5-0.2-0.7c0-0.4,0.1-0.7,0.4-1c0.3-0.2,0.7-0.4,1.1-0.3c0.5,0,1.1,0.1,1.5,0.3l-0.2,0.7
	c-0.2-0.1-0.4-0.1-0.6-0.2c-0.2-0.1-0.5-0.1-0.7-0.1c-0.2,0-0.4,0-0.6,0.2c-0.2,0.1-0.2,0.3-0.2,0.5c0,0.2,0.1,0.3,0.2,0.4
	c0.1,0.1,0.3,0.2,0.4,0.3c0.2,0.1,0.4,0.2,0.6,0.2c0.2,0.1,0.4,0.2,0.6,0.3c0.2,0.1,0.3,0.3,0.4,0.4c0.1,0.2,0.2,0.5,0.2,0.7
	c0,0.2,0,0.4-0.1,0.6c-0.1,0.2-0.2,0.3-0.3,0.5c-0.2,0.1-0.3,0.3-0.5,0.3c-0.2,0.1-0.5,0.1-0.8,0.1c-0.3,0-0.7,0-1-0.1
	c-0.2-0.1-0.5-0.1-0.7-0.3l0.2-0.7c0.2,0.1,0.4,0.2,0.6,0.2c0.2,0.1,0.5,0.1,0.7,0.1c0.2,0,0.5-0.1,0.7-0.2
	C94.1,94.4,94.2,94.1,94.2,93.9z"/>
<path class="st1" d="M64.4,27.6h12.8c2.3,0,4.2,1.9,4.2,4.2v28.9c0,2.3-1.9,4.2-4.2,4.2H53.9c-2.3,0-4.2-1.9-4.2-4.2V31.7
	c0-2.3,1.9-4.2,4.2-4.2h3.4"/>
<path class="st1" d="M77.1,64.8v5.7c0,2.3-1.9,4.2-4.2,4.2H57.1c-2.3,0-4.1-1.9-4.1-4.2v-5.7"/>
<rect x="54.3" y="32.2" class="st1" width="22.3" height="10.2"/>
<rect x="57.1" y="46.3" class="st2" width="3.3" height="3.3"/>
<rect x="64" y="46.3" class="st2" width="3.3" height="3.3"/>
<rect x="70.5" y="46.3" class="st2" width="3.3" height="3.3"/>
<rect x="57.1" y="52.2" class="st2" width="3.3" height="3.3"/>
<rect x="64" y="52.2" class="st2" width="3.3" height="3.3"/>
<rect x="70.5" y="52.2" class="st2" width="3.3" height="3.3"/>
<rect x="57.1" y="57.8" class="st2" width="3.3" height="3.3"/>
<rect x="64" y="57.8" class="st2" width="3.3" height="3.3"/>
<rect x="70.5" y="57.8" class="st2" width="3.3" height="3.3"/>
<path class="st2" d="M56.9,65.1v9.5h5.4v-9.8C62.3,64.8,56.9,65,56.9,65.1z"/>
</svg>
