<?xml version="1.0" encoding="utf-8"?>
<!-- Generator: Adobe Illustrator 23.0.3, SVG Export Plug-In . SVG Version: 6.00 Build 0)  -->
<svg version="1.1" id="Layer_1" xmlns="http://www.w3.org/2000/svg" xmlns:xlink="http://www.w3.org/1999/xlink" x="0px" y="0px"
	 viewBox="0 0 130 130" style="enable-background:new 0 0 130 130;" xml:space="preserve">
<style type="text/css">
	.st0{fill:#FFE161;}
	.st1{fill:none;stroke:#1EB9D5;stroke-width:1.5;stroke-linecap:round;stroke-linejoin:round;}
	.st2{fill:#17BAD6;}
</style>
<title>globe6</title>
<path class="st0" d="M14.5,89.1h3.8v0.7h-3v2.4h2.8V93h-2.8v3.1h-0.8L14.5,89.1z"/>
<path class="st0" d="M19.6,89.6c0-0.1,0.1-0.3,0.2-0.4c0.1-0.1,0.2-0.2,0.4-0.2c0.1,0,0.3,0.1,0.4,0.2c0.1,0.1,0.2,0.2,0.2,0.4
	c0,0.1-0.1,0.3-0.2,0.4c-0.1,0.1-0.3,0.1-0.4,0.1c-0.1,0-0.3,0-0.4-0.1C19.6,89.9,19.6,89.8,19.6,89.6z M19.7,91.1h0.8v4.9h-0.8
	V91.1z"/>
<path class="st0" d="M25.4,96.1v-2.8c0-0.4,0-0.8-0.2-1.2c-0.2-0.3-0.5-0.4-0.8-0.4c-0.3,0-0.6,0.1-0.9,0.3
	c-0.2,0.2-0.4,0.4-0.5,0.7V96h-0.8v-4.9h0.5l0.1,0.6l0,0c0.2-0.2,0.4-0.4,0.6-0.5c0.3-0.1,0.6-0.2,1-0.2c0.2,0,0.5,0,0.7,0.1
	c0.2,0.1,0.4,0.2,0.5,0.3c0.2,0.2,0.3,0.4,0.3,0.6c0.1,0.3,0.1,0.7,0.1,1v3L25.4,96.1z"/>
<path class="st0" d="M27,91.1h0.8v-1l0.8-0.2v1.2h1.3v0.7h-1.4v2.7c0,0.2,0,0.5,0.1,0.7c0.1,0.1,0.3,0.2,0.4,0.2c0.1,0,0.3,0,0.4,0
	l0.4-0.2l0.2,0.6c-0.2,0.1-0.4,0.2-0.6,0.2c-0.2,0.1-0.5,0.1-0.7,0.1c-0.3,0-0.6-0.1-0.9-0.3c-0.2-0.3-0.3-0.7-0.2-1.1v-2.9H27V91.1
	z"/>
<path class="st0" d="M34.5,95.7C34.2,95.8,34,96,33.7,96c-0.3,0.1-0.6,0.1-1,0.1c-0.3,0-0.7,0-1-0.2c-0.3-0.1-0.5-0.3-0.7-0.5
	c-0.2-0.2-0.3-0.5-0.4-0.8c-0.1-0.3-0.1-0.7-0.1-1.1c0-0.7,0.2-1.4,0.6-1.9c0.4-0.5,1-0.7,1.6-0.7c0.2,0,0.5,0,0.7,0.1
	c0.2,0,0.4,0.1,0.6,0.3c0.2,0.2,0.3,0.4,0.4,0.6c0.1,0.3,0.2,0.7,0.2,1c0,0.2,0,0.5-0.1,0.7h-3.2c0,0.3,0,0.5,0.1,0.8
	c0,0.2,0.1,0.4,0.3,0.6c0.1,0.2,0.3,0.3,0.5,0.4c0.2,0.1,0.5,0.1,0.7,0.1c0.2,0,0.5,0,0.7-0.1c0.2-0.1,0.4-0.2,0.5-0.3L34.5,95.7z
	 M32.8,91.7c-0.3,0-0.7,0.1-0.9,0.3c-0.3,0.3-0.4,0.7-0.4,1h2.5c0-0.4-0.1-0.7-0.3-1C33.4,91.8,33.1,91.7,32.8,91.7L32.8,91.7z"/>
<path class="st0" d="M39.1,95.7c-0.2,0.1-0.5,0.3-0.7,0.3c-0.3,0.1-0.6,0.1-0.8,0.1c-0.3,0-0.7,0-1-0.2c-0.3-0.1-0.5-0.3-0.7-0.5
	c-0.2-0.2-0.3-0.5-0.4-0.8c-0.1-0.4-0.1-0.7-0.1-1.1c0-0.7,0.2-1.4,0.6-1.9c0.4-0.5,1-0.7,1.6-0.7c0.3,0,0.5,0,0.8,0.1
	c0.2,0,0.4,0.1,0.6,0.2L38.8,92c-0.2-0.1-0.3-0.2-0.5-0.2c-0.2,0-0.4-0.1-0.6-0.1c-0.9,0-1.4,0.6-1.4,1.9c0,0.2,0,0.5,0.1,0.7
	c0,0.2,0.1,0.4,0.2,0.6c0.1,0.2,0.3,0.3,0.5,0.4c0.2,0.1,0.5,0.2,0.7,0.2c0.2,0,0.4,0,0.6-0.1c0.2-0.1,0.3-0.1,0.5-0.2L39.1,95.7z"
	/>
<path class="st0" d="M43.4,96.1v-2.8c0-0.2,0-0.5,0-0.7c0-0.2-0.1-0.3-0.2-0.5c-0.1-0.1-0.2-0.2-0.3-0.3c-0.2-0.1-0.3-0.1-0.5-0.1
	c-0.3,0-0.6,0.1-0.8,0.3c-0.2,0.2-0.4,0.5-0.5,0.8V96h-0.8v-6.9H41v2.5l0,0c0.2-0.2,0.4-0.4,0.6-0.5c0.3-0.1,0.6-0.2,0.9-0.2
	c0.2,0,0.5,0,0.7,0.1c0.2,0.1,0.4,0.2,0.5,0.3c0.1,0.2,0.2,0.4,0.3,0.6c0.1,0.3,0.1,0.7,0.1,1v3L43.4,96.1z"/>
<path class="st0" d="M50.8,89l0.6,0.3l-3.6,8.2l-0.6-0.3L50.8,89z"/>
<path class="st0" d="M59.8,91.4l0.1-1l0,0l-0.4,0.9l-1.8,3.1h-0.2l-1.9-3.1l-0.4-0.9h0l0.1,1v4.7h-0.8v-6.9h0.6l2.2,3.5l0.3,0.8l0,0
	l0.3-0.8l2-3.5h0.6v6.9h-0.8V91.4z"/>
<path class="st0" d="M62,93.6c0-0.7,0.2-1.4,0.6-1.9c0.4-0.5,1-0.7,1.6-0.7c0.3,0,0.7,0.1,1,0.2c0.3,0.1,0.5,0.3,0.7,0.5
	c0.2,0.2,0.3,0.5,0.4,0.8c0.1,0.3,0.1,0.7,0.1,1.1c0,0.7-0.2,1.4-0.6,1.9c-0.4,0.5-1,0.7-1.6,0.7c-0.3,0-0.7,0-1-0.2
	c-0.3-0.1-0.5-0.3-0.7-0.5c-0.2-0.2-0.3-0.5-0.4-0.8C62,94.3,62,93.9,62,93.6z M62.8,93.6c0,0.2,0,0.5,0.1,0.7
	c0,0.2,0.1,0.4,0.2,0.6c0.1,0.2,0.2,0.3,0.4,0.4c0.2,0.1,0.4,0.2,0.6,0.2c0.9,0,1.3-0.6,1.3-1.9c0-0.2,0-0.5-0.1-0.7
	c0-0.2-0.1-0.4-0.2-0.6c-0.1-0.2-0.2-0.3-0.4-0.4c-0.2-0.1-0.4-0.2-0.6-0.2C63.2,91.7,62.8,92.3,62.8,93.6L62.8,93.6z"/>
<path class="st0" d="M67.5,89.1h0.8v2.5l0,0c0.2-0.2,0.4-0.3,0.6-0.4c0.3-0.1,0.5-0.2,0.8-0.2c0.6,0,1.1,0.2,1.4,0.6
	c0.4,0.6,0.5,1.2,0.5,1.9c0.1,0.7-0.2,1.4-0.6,2c-0.5,0.5-1.1,0.7-1.8,0.7c-0.3,0-0.7,0-1-0.1c-0.2-0.1-0.5-0.1-0.7-0.2L67.5,89.1z
	 M69.5,91.7c-0.3,0-0.6,0.1-0.8,0.3c-0.2,0.2-0.4,0.5-0.4,0.8v2.5c0.1,0.1,0.3,0.1,0.5,0.2c0.2,0,0.4,0,0.6,0c0.4,0,0.8-0.1,1.1-0.4
	c0.3-0.4,0.4-1,0.4-1.5c0-0.2,0-0.5-0.1-0.7c0-0.2-0.1-0.4-0.2-0.6c-0.1-0.2-0.2-0.3-0.4-0.4C70,91.7,69.8,91.7,69.5,91.7L69.5,91.7
	z"/>
<path class="st0" d="M72.9,89.6c0-0.1,0.1-0.3,0.2-0.4c0.1-0.1,0.2-0.2,0.4-0.2c0.2,0,0.3,0.1,0.4,0.2c0.1,0.1,0.2,0.2,0.2,0.4
	c0,0.1-0.1,0.3-0.2,0.4c-0.1,0.1-0.3,0.1-0.4,0.1c-0.1,0-0.3,0-0.4-0.1C72.9,89.9,72.9,89.8,72.9,89.6z M73,91.1h0.8v4.9H73L73,91.1
	z"/>
<path class="st0" d="M76.4,94.8c0,0.2,0,0.3,0.1,0.5c0.1,0.1,0.2,0.2,0.3,0.2h0.3c0.1,0,0.2,0,0.3-0.1l0.1,0.6
	c-0.1,0.1-0.3,0.1-0.4,0.1c-0.2,0-0.3,0-0.5,0c-0.3,0-0.5-0.1-0.7-0.2c-0.2-0.2-0.3-0.5-0.3-0.8v-5.9h0.8V94.8z"/>
<path class="st0" d="M82,95.7c-0.2,0.2-0.5,0.3-0.8,0.4c-0.3,0.1-0.7,0.2-1,0.1c-0.3,0-0.7-0.1-1-0.2c-0.3-0.1-0.5-0.3-0.7-0.5
	c-0.2-0.2-0.3-0.5-0.4-0.8c-0.1-0.3-0.1-0.7-0.1-1.1c-0.1-0.7,0.1-1.4,0.6-1.9c0.4-0.5,1-0.7,1.7-0.7c0.2,0,0.5,0,0.7,0.1
	c0.2,0,0.4,0.1,0.6,0.3c0.2,0.2,0.3,0.4,0.4,0.6c0.1,0.3,0.2,0.7,0.2,1c0,0.2,0,0.5-0.1,0.7h-3.2c0,0.3,0,0.5,0.1,0.8
	c0,0.2,0.1,0.4,0.3,0.6c0.1,0.2,0.3,0.3,0.5,0.4c0.2,0.1,0.5,0.1,0.7,0.1c0.2,0,0.5,0,0.7-0.1c0.2-0.1,0.4-0.2,0.5-0.3L82,95.7z
	 M80.3,91.7c-0.3,0-0.7,0.1-0.9,0.3c-0.3,0.3-0.4,0.7-0.4,1h2.4c0-0.4-0.1-0.7-0.3-1C80.9,91.8,80.6,91.7,80.3,91.7L80.3,91.7z"/>
<path class="st0" d="M87.3,93.8l0.2,1.2l0,0l0.2-1.2l1.4-4.6h0.4l1.4,4.6l0.2,1.2l0,0l0.2-1.2l1.2-4.6h0.8l-1.9,7h-0.4l-1.4-4.6
	l-0.2-1l0,0l-0.2,1l-1.4,4.6h-0.4l-2-7H86L87.3,93.8z"/>
<path class="st0" d="M93.6,91.5c0.3-0.2,0.6-0.3,0.9-0.3c0.3-0.1,0.7-0.1,1-0.1c0.3,0,0.6,0,0.8,0.1c0.2,0.1,0.3,0.2,0.5,0.4
	c0.1,0.1,0.2,0.3,0.3,0.5c0,0.2,0,0.4,0,0.5c0,0.4,0,0.8,0,1.2s0,0.7,0,1.1s0,0.5,0,0.7c0,0.2,0.1,0.4,0.1,0.6h-0.6l-0.2-0.7l0,0
	c-0.1,0.1-0.1,0.2-0.2,0.3c-0.1,0.1-0.2,0.2-0.3,0.2c-0.1,0.1-0.3,0.1-0.4,0.2c-0.2,0.1-0.4,0.1-0.6,0.1c-0.2,0-0.4,0-0.6-0.1
	c-0.2-0.1-0.3-0.2-0.5-0.3c-0.1-0.1-0.2-0.3-0.3-0.4c-0.1-0.2-0.1-0.4-0.1-0.6c0-0.3,0.1-0.5,0.2-0.7c0.1-0.2,0.3-0.4,0.5-0.5
	c0.2-0.1,0.5-0.2,0.8-0.2c0.3-0.1,0.7-0.1,1-0.1H96c0.1,0,0.2,0,0.3,0c0-0.2,0-0.4,0-0.5c0-0.3,0-0.5-0.2-0.8
	c-0.2-0.2-0.5-0.3-0.8-0.2h-0.4l-0.4,0.1l-0.4,0.1L93.8,92L93.6,91.5z M95,95.5c0.2,0,0.3,0,0.5-0.1c0.1,0,0.3-0.1,0.4-0.2
	c0.1-0.1,0.2-0.2,0.3-0.2c0.1-0.1,0.1-0.2,0.2-0.3v-0.8h-0.6c-0.2,0-0.4,0-0.6,0c-0.2,0-0.3,0.1-0.5,0.1c-0.1,0.1-0.3,0.1-0.4,0.3
	c-0.1,0.1-0.1,0.3-0.1,0.4c0,0.2,0.1,0.4,0.2,0.6C94.5,95.4,94.8,95.5,95,95.5L95,95.5z"/>
<path class="st0" d="M99.4,94.8c0,0.2,0,0.3,0.1,0.5c0.1,0.1,0.2,0.2,0.3,0.2h0.3c0.1,0,0.2,0,0.3-0.1l0.1,0.6
	c-0.1,0.1-0.3,0.1-0.4,0.1c-0.2,0-0.3,0-0.5,0c-0.3,0-0.5-0.1-0.7-0.2c-0.2-0.2-0.3-0.5-0.3-0.8v-5.9h0.8L99.4,94.8z"/>
<path class="st0" d="M102.3,94.8c0,0.2,0,0.3,0.1,0.5c0.1,0.1,0.2,0.2,0.3,0.2h0.3c0.1,0,0.2,0,0.3-0.1l0.1,0.6
	c-0.1,0.1-0.3,0.1-0.4,0.1c-0.2,0-0.3,0-0.5,0c-0.5,0-1-0.4-1-0.9c0-0.1,0-0.1,0-0.2v-5.9h0.8L102.3,94.8z"/>
<path class="st0" d="M107.9,95.7c-0.2,0.2-0.5,0.3-0.7,0.4c-0.3,0.1-0.7,0.2-1,0.1c-0.3,0-0.7,0-1-0.2c-0.3-0.1-0.5-0.3-0.7-0.5
	c-0.2-0.2-0.3-0.5-0.4-0.8c-0.1-0.3-0.1-0.7-0.1-1.1c0-0.7,0.2-1.4,0.6-1.9c0.4-0.5,1-0.7,1.6-0.7c0.2,0,0.5,0,0.7,0.1
	c0.2,0,0.4,0.1,0.6,0.3c0.2,0.2,0.3,0.4,0.4,0.6c0.1,0.3,0.2,0.7,0.2,1c0,0.2,0,0.5-0.1,0.7h-3.2c0,0.3,0,0.5,0.1,0.8
	c0,0.2,0.1,0.4,0.3,0.6c0.1,0.2,0.3,0.3,0.5,0.4c0.2,0.1,0.5,0.1,0.7,0.1c0.2,0,0.5,0,0.7-0.1c0.2-0.1,0.4-0.2,0.5-0.3L107.9,95.7z
	 M106.2,91.7c-0.3,0-0.7,0.1-0.9,0.3c-0.3,0.3-0.4,0.7-0.4,1.1h2.4c0-0.4-0.1-0.7-0.3-1C106.8,91.8,106.5,91.7,106.2,91.7
	L106.2,91.7z"/>
<path class="st0" d="M108.7,91.1h0.8v-1l0.8-0.2v1.2h1.3v0.7h-1.3v2.7c0,0.2,0,0.5,0.1,0.7c0.1,0.1,0.3,0.2,0.4,0.2
	c0.1,0,0.3,0,0.4,0l0.4-0.2l0.2,0.6c-0.2,0.1-0.4,0.2-0.6,0.2c-0.2,0.1-0.5,0.1-0.7,0.1c-0.3,0-0.6-0.1-0.8-0.3
	c-0.2-0.3-0.3-0.7-0.2-1.1v-2.9h-0.8L108.7,91.1z"/>
<path class="st0" d="M114.9,94.7c0-0.2-0.1-0.3-0.2-0.5c-0.1-0.1-0.3-0.2-0.4-0.3c-0.2-0.1-0.4-0.2-0.6-0.2
	c-0.2-0.1-0.4-0.2-0.6-0.3c-0.2-0.1-0.3-0.3-0.4-0.4c-0.1-0.2-0.2-0.4-0.2-0.7c0-0.4,0.1-0.8,0.4-1.1c0.3-0.2,0.7-0.3,1.1-0.3
	c0.3,0,0.6,0,0.9,0.1c0.2,0,0.4,0.1,0.6,0.2l-0.2,0.7c-0.2-0.1-0.4-0.1-0.6-0.2c-0.2-0.1-0.5-0.1-0.7-0.1c-0.2,0-0.4,0-0.6,0.1
	c-0.1,0.1-0.2,0.3-0.2,0.5c0,0.2,0.1,0.3,0.2,0.4c0.1,0.1,0.3,0.2,0.4,0.2c0.2,0.1,0.4,0.2,0.6,0.2c0.2,0.1,0.4,0.2,0.6,0.3
	c0.2,0.1,0.3,0.3,0.4,0.4c0.1,0.2,0.2,0.5,0.2,0.7c0,0.2,0,0.4-0.1,0.6c-0.1,0.2-0.2,0.3-0.3,0.5c-0.2,0.1-0.3,0.2-0.5,0.3
	c-0.2,0.1-0.5,0.1-0.8,0.1c-0.3,0-0.7,0-1-0.1c-0.2-0.1-0.5-0.1-0.7-0.2l0.2-0.7c0.2,0.1,0.4,0.2,0.6,0.2c0.2,0.1,0.5,0.1,0.7,0.1
	c0.2,0,0.5,0,0.7-0.2C114.8,95.2,114.9,95,114.9,94.7z"/>
<path class="st1" d="M79.2,72.4v3.8c0,1.4-1.1,2.5-2.5,2.5H53.1c-1.4,0-2.5-1.1-2.5-2.5V30.7c0-1.4,1.1-2.5,2.5-2.5l0,0h23.6
	c1.4,0,2.5,1.1,2.5,2.5v34.9"/>
<path class="st1" d="M54.4,58.7v14c-0.1,1.2,0.9,2.3,2.2,2.4c0,0,0,0,0,0h16.6c1.3-0.1,2.2-1.1,2.2-2.4V34.3
	c0.1-1.3-0.9-2.3-2.2-2.4h-4.4L68,33.9h-6.4L61,31.9h-4.4c-1.2,0.1-2.2,1.1-2.2,2.4c0,0,0,0,0,0v19.1"/>
<path class="st2" d="M66,44.5v0.9c1.3,0,3.7,0.6,3.7,1.3c0,0.3-0.5,1.2-0.8,1.2C68,47.5,67,47.2,66,47.1v5.4
	c2.1,0.8,4.5,1.6,4.5,4.8c0,2.6-1.8,4.3-4.5,4.6v1.2c0,0.3-0.1,0.4-0.5,0.4s-0.5-0.1-0.5-0.4V62c-2.6-0.1-4.6-1.1-4.6-1.7
	c0-0.4,0.6-1.3,0.8-1.3c1.1,0.7,2.4,1.2,3.7,1.3v-6c-2.1-0.8-4.3-1.6-4.3-4.6c0-2.3,1.7-3.9,4.3-4.2v-1c0-0.2,0.1-0.4,0.5-0.4
	S66,44.3,66,44.5z M62.9,49.8c0,1.3,1,2,2.2,2.5v-5C63.8,47.3,62.8,48.4,62.9,49.8L62.9,49.8z M66,60.2c1.4-0.2,2.4-1.4,2.3-2.8
	c0-1.5-1-2.2-2.3-2.7V60.2z"/>
</svg>
