<svg xmlns="http://www.w3.org/2000/svg" viewBox="0 0 130 130"><defs><style>.a{fill:#ffe161;}.b{fill:none;stroke:#1eb9d5;stroke-linecap:round;stroke-linejoin:round;stroke-width:2px;}</style></defs><title>globe3</title><path class="a" d="M26,95.87a1.71,1.71,0,0,1-.75.32,5.07,5.07,0,0,1-1,.09,3.2,3.2,0,0,1-1.17-.21,2.56,2.56,0,0,1-.95-.65,3.15,3.15,0,0,1-.64-1.11,4.83,4.83,0,0,1-.24-1.61,4.43,4.43,0,0,1,.27-1.64A3.08,3.08,0,0,1,22.27,90a2.58,2.58,0,0,1,1-.63,3.18,3.18,0,0,1,1.09-.2,6.25,6.25,0,0,1,1,.07,3.11,3.11,0,0,1,.64.17l-.2.73a3.22,3.22,0,0,0-1.35-.23,2.45,2.45,0,0,0-.8.14,1.78,1.78,0,0,0-.71.49,2.48,2.48,0,0,0-.5.88,4.25,4.25,0,0,0-.19,1.33A3.92,3.92,0,0,0,22.36,94a2.63,2.63,0,0,0,.49.89,2.11,2.11,0,0,0,.73.53,2.32,2.32,0,0,0,.92.18,3,3,0,0,0,.77-.09,2.25,2.25,0,0,0,.56-.23Z"/><path class="a" d="M26.54,93.69a2.91,2.91,0,0,1,.56-1.92,2,2,0,0,1,1.61-.67,2.35,2.35,0,0,1,1,.18,1.87,1.87,0,0,1,.68.53,2.15,2.15,0,0,1,.39.82,3.9,3.9,0,0,1,.13,1.06,2.91,2.91,0,0,1-.56,1.92,2,2,0,0,1-1.6.67,2.43,2.43,0,0,1-1-.18,1.76,1.76,0,0,1-.67-.53,2.24,2.24,0,0,1-.4-.82A3.9,3.9,0,0,1,26.54,93.69Zm.82,0a3.38,3.38,0,0,0,.08.72,1.79,1.79,0,0,0,.23.6,1.18,1.18,0,0,0,.41.42,1.16,1.16,0,0,0,.63.16c.89,0,1.34-.63,1.34-1.9A3.41,3.41,0,0,0,30,93a1.8,1.8,0,0,0-.24-.6,1.08,1.08,0,0,0-.41-.41,1.12,1.12,0,0,0-.62-.16C27.81,91.79,27.36,92.42,27.36,93.69Z"/><path class="a" d="M35,96.16v-2.8a6.66,6.66,0,0,0,0-.68,1.5,1.5,0,0,0-.14-.49.68.68,0,0,0-.28-.3,1.07,1.07,0,0,0-.48-.1,1.09,1.09,0,0,0-.75.28,1.44,1.44,0,0,0-.42.69v3.4h-.79V91.22h.55l.15.6h0a2.51,2.51,0,0,1,.61-.52,1.9,1.9,0,0,1,.92-.2,1.46,1.46,0,0,1,.77.18,1.19,1.19,0,0,1,.47.64,1.58,1.58,0,0,1,.63-.6,1.83,1.83,0,0,1,.91-.22,2.07,2.07,0,0,1,.7.1.92.92,0,0,1,.47.33,1.35,1.35,0,0,1,.27.64,4.85,4.85,0,0,1,.09,1v3h-.79v-3a3.72,3.72,0,0,0,0-.62,1.09,1.09,0,0,0-.14-.44.62.62,0,0,0-.28-.25,1.08,1.08,0,0,0-.48-.09,1.05,1.05,0,0,0-.77.28,1.56,1.56,0,0,0-.4.79v3.3Z"/><path class="a" d="M43,96.16v-2.8a4.52,4.52,0,0,0,0-.68,1.51,1.51,0,0,0-.13-.49.74.74,0,0,0-.28-.3,1.18,1.18,0,0,0-1.24.18,1.44,1.44,0,0,0-.42.69v3.4h-.79V91.22h.55l.15.6h0a2.56,2.56,0,0,1,.62-.52,1.86,1.86,0,0,1,.91-.2,1.5,1.5,0,0,1,.78.18,1.24,1.24,0,0,1,.47.64,1.52,1.52,0,0,1,.63-.6,1.79,1.79,0,0,1,.9-.22,2,2,0,0,1,.7.1,1,1,0,0,1,.48.33,1.58,1.58,0,0,1,.27.64,5.74,5.74,0,0,1,.08,1v3h-.79v-3a5.46,5.46,0,0,0,0-.62,1.27,1.27,0,0,0-.14-.44.64.64,0,0,0-.29-.25,1.08,1.08,0,0,0-.48-.09,1.07,1.07,0,0,0-.77.28,1.63,1.63,0,0,0-.39.79v3.3Z"/><path class="a" d="M48.88,91.22V94a4.47,4.47,0,0,0,0,.67,1.28,1.28,0,0,0,.16.49.74.74,0,0,0,.29.29,1.1,1.1,0,0,0,.48.1,1.19,1.19,0,0,0,.47-.09,1.1,1.1,0,0,0,.37-.23,1.58,1.58,0,0,0,.29-.34,2,2,0,0,0,.2-.41v-3.3H52v3.54c0,.23,0,.48,0,.73a4,4,0,0,0,.08.67h-.54l-.2-.78h-.05a2,2,0,0,1-.61.64,1.76,1.76,0,0,1-1,.26,2.43,2.43,0,0,1-.7-.09,1.09,1.09,0,0,1-.5-.34,1.49,1.49,0,0,1-.31-.63,4.18,4.18,0,0,1-.1-1v-3Z"/><path class="a" d="M56.66,96.16V93.34a2.39,2.39,0,0,0-.22-1.16.85.85,0,0,0-.81-.39,1.37,1.37,0,0,0-.87.28,1.66,1.66,0,0,0-.48.71v3.38h-.79V91.22h.56l.14.6h0a1.85,1.85,0,0,1,.64-.52,2.18,2.18,0,0,1,1-.2,2.28,2.28,0,0,1,.72.1,1.08,1.08,0,0,1,.51.33,1.61,1.61,0,0,1,.3.63,4.12,4.12,0,0,1,.11,1v3Z"/><path class="a" d="M58.9,89.72a.56.56,0,0,1,.15-.39.51.51,0,0,1,.39-.17.58.58,0,0,1,.41.17.53.53,0,0,1,.16.39.47.47,0,0,1-.16.37.61.61,0,0,1-.41.15.53.53,0,0,1-.39-.15A.5.5,0,0,1,58.9,89.72Zm.17,1.5h.79v4.94h-.79Z"/><path class="a" d="M64.92,95.83a2.23,2.23,0,0,1-.71.34,3.35,3.35,0,0,1-.85.11,2.28,2.28,0,0,1-1-.18,1.69,1.69,0,0,1-.65-.53,2.21,2.21,0,0,1-.37-.82,4.93,4.93,0,0,1-.11-1.06,2.91,2.91,0,0,1,.55-1.92,1.94,1.94,0,0,1,1.59-.67,3.69,3.69,0,0,1,.81.08,2.24,2.24,0,0,1,.6.21l-.23.68a2,2,0,0,0-.5-.2,2.35,2.35,0,0,0-.6-.08c-.93,0-1.4.64-1.4,1.9a3.38,3.38,0,0,0,.07.72,2,2,0,0,0,.25.6,1.43,1.43,0,0,0,.46.42,1.33,1.33,0,0,0,.69.16,1.83,1.83,0,0,0,.64-.11,1.79,1.79,0,0,0,.46-.25Z"/><path class="a" d="M65.92,91.59a2.65,2.65,0,0,1,.88-.34,5,5,0,0,1,1-.11,2.14,2.14,0,0,1,.83.14,1.16,1.16,0,0,1,.47.36,1.28,1.28,0,0,1,.22.49,3.17,3.17,0,0,1,0,.53c0,.4,0,.78,0,1.16s0,.73,0,1.07,0,.47,0,.69a3.38,3.38,0,0,0,.11.6h-.58l-.21-.69h0a1.74,1.74,0,0,1-.22.27,1.57,1.57,0,0,1-.32.24,2.24,2.24,0,0,1-.44.17,1.91,1.91,0,0,1-.56.07,1.63,1.63,0,0,1-.59-.1,1.31,1.31,0,0,1-.47-.28,1.4,1.4,0,0,1-.31-.44,1.54,1.54,0,0,1-.11-.58,1.36,1.36,0,0,1,.18-.73,1.21,1.21,0,0,1,.49-.46,2.47,2.47,0,0,1,.78-.25,6,6,0,0,1,1-.08h.27l.27,0a5.13,5.13,0,0,0,0-.53,1,1,0,0,0-.22-.76,1.07,1.07,0,0,0-.79-.22l-.36,0a2.66,2.66,0,0,0-.39.07l-.39.11a1.35,1.35,0,0,0-.32.15Zm1.41,4a1.48,1.48,0,0,0,.49-.08,1.68,1.68,0,0,0,.38-.18,1.28,1.28,0,0,0,.26-.26,1,1,0,0,0,.15-.26V94l-.28,0h-.28a5.88,5.88,0,0,0-.6,0,2.37,2.37,0,0,0-.51.13.88.88,0,0,0-.36.26.61.61,0,0,0-.13.41.72.72,0,0,0,.25.57A.93.93,0,0,0,67.33,95.55Z"/><path class="a" d="M70.25,91.22H71v-1l.79-.23v1.21h1.35v.69H71.81v2.74a1.61,1.61,0,0,0,.13.73.48.48,0,0,0,.44.21,1.35,1.35,0,0,0,.43-.06,3.24,3.24,0,0,0,.4-.14l.18.6a2.75,2.75,0,0,1-.59.21,3,3,0,0,1-.68.08,1,1,0,0,1-.85-.34A2,2,0,0,1,71,94.8V91.91h-.77Z"/><path class="a" d="M74.25,89.72a.57.57,0,0,1,.16-.39.51.51,0,0,1,.39-.17.54.54,0,0,1,.4.17.5.5,0,0,1,.17.39.45.45,0,0,1-.17.37.57.57,0,0,1-.4.15.53.53,0,0,1-.39-.15A.51.51,0,0,1,74.25,89.72Zm.17,1.5h.79v4.94h-.79Z"/><path class="a" d="M76.63,93.69a2.86,2.86,0,0,1,.56-1.92,2,2,0,0,1,1.6-.67,2.35,2.35,0,0,1,1,.18,1.79,1.79,0,0,1,.68.53,2.33,2.33,0,0,1,.4.82A4.33,4.33,0,0,1,81,93.69a2.91,2.91,0,0,1-.56,1.92,2,2,0,0,1-1.61.67,2.35,2.35,0,0,1-1-.18,1.79,1.79,0,0,1-.68-.53,2.08,2.08,0,0,1-.39-.82A3.9,3.9,0,0,1,76.63,93.69Zm.82,0a3.38,3.38,0,0,0,.07.72,2,2,0,0,0,.23.6,1.3,1.3,0,0,0,.42.42,1.12,1.12,0,0,0,.62.16c.9,0,1.34-.63,1.34-1.9a3.41,3.41,0,0,0-.07-.73,2,2,0,0,0-.23-.6,1.18,1.18,0,0,0-.42-.41,1.12,1.12,0,0,0-.62-.16C77.89,91.79,77.45,92.42,77.45,93.69Z"/><path class="a" d="M85.37,96.16V93.34a2.39,2.39,0,0,0-.22-1.16.85.85,0,0,0-.81-.39,1.37,1.37,0,0,0-.87.28,1.5,1.5,0,0,0-.48.71v3.38H82.2V91.22h.55l.15.6h0a1.85,1.85,0,0,1,.64-.52,2.15,2.15,0,0,1,1-.2,2.17,2.17,0,0,1,.71.1,1,1,0,0,1,.51.33,1.49,1.49,0,0,1,.31.63,4.18,4.18,0,0,1,.1,1v3Z"/><path class="a" d="M93.29,94.24H90.76l-.69,1.92h-.82l2.62-7h.37l2.63,7H94ZM91,93.53h2l-.77-2.1L92,90.38h0l-.24,1.07Z"/><path class="a" d="M95.71,91.22h.54l.15.59h0a1.58,1.58,0,0,1,.59-.53,2.1,2.1,0,0,1,2.3.4,3,3,0,0,1,.48,1.91,3.52,3.52,0,0,1-.16,1.12,2.39,2.39,0,0,1-.46.85,2,2,0,0,1-.72.53,2.18,2.18,0,0,1-.93.19,4,4,0,0,1-.58,0,2.83,2.83,0,0,1-.46-.16v2.06h-.79Zm2,.57a1.18,1.18,0,0,0-.8.26,1.52,1.52,0,0,0-.41.8V95.3a1.32,1.32,0,0,0,.41.21,1.93,1.93,0,0,0,.6.08,1.31,1.31,0,0,0,1.08-.51,2.37,2.37,0,0,0,.4-1.5,3.29,3.29,0,0,0-.07-.73,1.54,1.54,0,0,0-.22-.57,1.07,1.07,0,0,0-.4-.36A1.32,1.32,0,0,0,97.71,91.79Z"/><path class="a" d="M101.06,91.22h.54l.15.59h0a1.58,1.58,0,0,1,.59-.53,1.8,1.8,0,0,1,.82-.18,1.82,1.82,0,0,1,1.47.58,3,3,0,0,1,.49,1.91,3.51,3.51,0,0,1-.17,1.12,2.37,2.37,0,0,1-.45.85,2,2,0,0,1-.72.53,2.18,2.18,0,0,1-.93.19,4,4,0,0,1-.58,0,2.53,2.53,0,0,1-.46-.16v2.06h-.79Zm2,.57a1.16,1.16,0,0,0-.79.26,1.45,1.45,0,0,0-.41.8V95.3a1.39,1.39,0,0,0,.4.21,2,2,0,0,0,.61.08,1.31,1.31,0,0,0,1.08-.51,2.44,2.44,0,0,0,.4-1.5,4,4,0,0,0-.07-.73,1.74,1.74,0,0,0-.22-.57,1.25,1.25,0,0,0-.4-.36A1.33,1.33,0,0,0,103.05,91.79Z"/><path class="a" d="M108.58,94.82a.61.61,0,0,0-.18-.47,1.75,1.75,0,0,0-.44-.28l-.57-.22a2.77,2.77,0,0,1-.58-.26,1.6,1.6,0,0,1-.44-.42,1.21,1.21,0,0,1-.17-.7,1.27,1.27,0,0,1,.4-1,1.75,1.75,0,0,1,1.13-.33,3.26,3.26,0,0,1,.89.1,3.09,3.09,0,0,1,.63.22l-.19.65a2.69,2.69,0,0,0-.55-.19,2.48,2.48,0,0,0-.68-.09,1.08,1.08,0,0,0-.64.15.58.58,0,0,0-.2.51.52.52,0,0,0,.17.41,2,2,0,0,0,.44.25c.18.08.37.15.58.22a2.78,2.78,0,0,1,.57.29,1.71,1.71,0,0,1,.44.45,1.28,1.28,0,0,1,.18.72,1.63,1.63,0,0,1-.11.59,1.07,1.07,0,0,1-.32.47,1.44,1.44,0,0,1-.54.32,2.37,2.37,0,0,1-.75.11,3.73,3.73,0,0,1-1-.11,2.93,2.93,0,0,1-.66-.26l.23-.67a3,3,0,0,0,1.34.35,1.34,1.34,0,0,0,.7-.17A.65.65,0,0,0,108.58,94.82Z"/><path class="b" d="M67.79,50.76a2.46,2.46,0,1,1-2.46-2.45A2.46,2.46,0,0,1,67.79,50.76Z"/><path class="b" d="M72.06,41.93a13.92,13.92,0,0,0-6.73-1.57,13.14,13.14,0,0,0-6.61,1.57"/><path class="b" d="M75.3,36.32A22.14,22.14,0,0,0,65.19,34.1a21.08,21.08,0,0,0-9.76,2.13"/><path class="b" d="M58.72,41.93a13.14,13.14,0,0,1,6.61-1.57,13.92,13.92,0,0,1,6.73,1.57"/><path class="b" d="M68.43,26.25c-1.08-.09-2.2-.15-3.38-.15a28.67,28.67,0,0,0-13.68,3.09"/><path class="b" d="M79.31,29.37a25.68,25.68,0,0,0-4.85-2"/><path class="b" d="M55.43,36.23a21.08,21.08,0,0,1,9.76-2.13A22.14,22.14,0,0,1,75.3,36.32"/><polyline class="b" points="57.14 79.17 65.16 53.22 72.53 79.17"/><line class="b" x1="58.47" y1="76" x2="69.31" y2="70.23"/><line class="b" x1="71.48" y1="75.76" x2="60.72" y2="70.34"/><line class="b" x1="61.27" y1="66.42" x2="68.81" y2="66.34"/></svg>