<svg xmlns="http://www.w3.org/2000/svg" viewBox="0 0 130 130"><defs><style>.a{fill:#ffe161;}.b{fill:none;stroke:#1eb9d5;stroke-linecap:round;stroke-linejoin:round;stroke-width:2px;}</style></defs><title>globe8</title><path class="a" d="M20.64,85.58c.25,0,.54-.08.86-.11s.63,0,.9,0a4,4,0,0,1,.86.1,2,2,0,0,1,.72.33,1.6,1.6,0,0,1,.5.59,1.89,1.89,0,0,1,.19.89,2,2,0,0,1-.44,1.32,2.21,2.21,0,0,1-1.13.67l.47.36,1.72,2.74h-.95l-1.91-3-1-.15v3.13h-.82Zm1.78.57h-.54l-.24,0a.48.48,0,0,0-.18,0v2.55h.77a1.87,1.87,0,0,0,1.13-.34,1.24,1.24,0,0,0,.44-1,1.18,1.18,0,0,0-.36-.88A1.45,1.45,0,0,0,22.42,86.15Z"/><path class="a" d="M29.57,92a2.23,2.23,0,0,1-.74.37,3.32,3.32,0,0,1-1,.14,2.48,2.48,0,0,1-1-.18,1.77,1.77,0,0,1-.68-.53,2.11,2.11,0,0,1-.39-.81A3.92,3.92,0,0,1,25.69,90,3,3,0,0,1,26.25,88a2,2,0,0,1,1.61-.66,3.16,3.16,0,0,1,.68.08,1.5,1.5,0,0,1,.6.28,1.42,1.42,0,0,1,.43.59,2.5,2.5,0,0,1,.17,1,4.76,4.76,0,0,1-.06.72H26.51a3,3,0,0,0,.09.77,1.59,1.59,0,0,0,.27.57,1.26,1.26,0,0,0,.49.35,1.82,1.82,0,0,0,.74.13,2,2,0,0,0,.67-.12,1.42,1.42,0,0,0,.51-.28Zm-1.7-4a1.37,1.37,0,0,0-.93.31,1.55,1.55,0,0,0-.42,1H29a1.56,1.56,0,0,0-.29-1.06A1.06,1.06,0,0,0,27.87,88.06Z"/><path class="a" d="M30.33,87.49h.77v-1l.8-.23v1.21h1.34v.69H31.9v2.74a1.63,1.63,0,0,0,.12.73.48.48,0,0,0,.44.21,1.31,1.31,0,0,0,.43-.06,3.24,3.24,0,0,0,.4-.14l.18.6a2.75,2.75,0,0,1-.59.21,2.88,2.88,0,0,1-.68.08,1,1,0,0,1-.85-.34,2,2,0,0,1-.25-1.14V88.18h-.77Z"/><path class="a" d="M34.26,87.86a2.59,2.59,0,0,1,.87-.34,5,5,0,0,1,1-.11,2.1,2.1,0,0,1,.83.14,1,1,0,0,1,.47.36,1.14,1.14,0,0,1,.22.49,2.46,2.46,0,0,1,.06.53c0,.4,0,.78,0,1.16s0,.73,0,1.07,0,.47,0,.69a2.67,2.67,0,0,0,.11.6h-.59L37,91.76H37a1.31,1.31,0,0,1-.22.27,1.34,1.34,0,0,1-.32.24,1.68,1.68,0,0,1-.43.17,2,2,0,0,1-.57.07,1.57,1.57,0,0,1-.58-.1,1.23,1.23,0,0,1-.47-.28,1.28,1.28,0,0,1-.32-.44,1.54,1.54,0,0,1-.11-.58,1.39,1.39,0,0,1,.18-.73,1.24,1.24,0,0,1,.5-.46,2.32,2.32,0,0,1,.77-.25,6.07,6.07,0,0,1,1-.07h.27a1.37,1.37,0,0,1,.28,0q0-.3,0-.54a1.09,1.09,0,0,0-.22-.76A1.15,1.15,0,0,0,36,88.1l-.36,0-.4.07-.38.11a2,2,0,0,0-.33.15Zm1.4,4a1.75,1.75,0,0,0,.49-.07,1.68,1.68,0,0,0,.38-.19,1.25,1.25,0,0,0,.26-.25A2.09,2.09,0,0,0,37,91v-.82l-.29,0h-.28q-.3,0-.6,0a2.37,2.37,0,0,0-.51.13.88.88,0,0,0-.36.26.67.67,0,0,0-.13.41.72.72,0,0,0,.25.57A.88.88,0,0,0,35.66,91.82Z"/><path class="a" d="M39.24,86a.56.56,0,0,1,.15-.39.51.51,0,0,1,.39-.17.58.58,0,0,1,.41.17.53.53,0,0,1,.16.39.47.47,0,0,1-.16.37.61.61,0,0,1-.41.15.53.53,0,0,1-.39-.15A.5.5,0,0,1,39.24,86Zm.17,1.5h.79v4.94h-.79Z"/><path class="a" d="M42.77,91.22a.86.86,0,0,0,.11.49.42.42,0,0,0,.34.15l.28,0a1.17,1.17,0,0,0,.33-.09l.09.62a1.28,1.28,0,0,1-.44.13,3.13,3.13,0,0,1-.49,0,1.06,1.06,0,0,1-.73-.25,1.1,1.1,0,0,1-.28-.86V85.51h.79Z"/><path class="a" d="M50.61,90.67a1,1,0,0,0-.24-.67,2.53,2.53,0,0,0-.62-.47c-.25-.13-.52-.26-.81-.38a4.07,4.07,0,0,1-.8-.43,2.15,2.15,0,0,1-.62-.62,1.72,1.72,0,0,1-.25-.95,1.58,1.58,0,0,1,.57-1.28,2.39,2.39,0,0,1,1.6-.47,7.24,7.24,0,0,1,1.09.08,3,3,0,0,1,.77.23l-.24.73a3.85,3.85,0,0,0-.67-.21,4.25,4.25,0,0,0-1-.1,1.4,1.4,0,0,0-1,.29.88.88,0,0,0-.33.68.92.92,0,0,0,.25.65,2.56,2.56,0,0,0,.62.46c.24.13.51.27.8.4a4.59,4.59,0,0,1,.81.46,2.44,2.44,0,0,1,.62.62,1.65,1.65,0,0,1,.24.91,2,2,0,0,1-.15.8,1.79,1.79,0,0,1-.47.62,2.09,2.09,0,0,1-.74.39,3.33,3.33,0,0,1-1,.14,5.84,5.84,0,0,1-1.22-.11,3.15,3.15,0,0,1-.76-.26l.28-.73a2.88,2.88,0,0,0,.67.25,3.86,3.86,0,0,0,1,.12,2.37,2.37,0,0,0,.61-.07,1.42,1.42,0,0,0,.5-.2,1.13,1.13,0,0,0,.33-.36A1.08,1.08,0,0,0,50.61,90.67Z"/><path class="a" d="M55.83,92.43V89.62a4.52,4.52,0,0,0,0-.68,1.28,1.28,0,0,0-.17-.49.82.82,0,0,0-.32-.29,1.28,1.28,0,0,0-.53-.1,1.31,1.31,0,0,0-.84.3,1.36,1.36,0,0,0-.48.78v3.29h-.79V85.51h.79V88h0a2.14,2.14,0,0,1,.62-.49,2,2,0,0,1,.89-.18,2.2,2.2,0,0,1,.72.1,1,1,0,0,1,.51.33,1.43,1.43,0,0,1,.3.63,4.82,4.82,0,0,1,.09,1v3Z"/><path class="a" d="M57.79,90A2.86,2.86,0,0,1,58.35,88a2,2,0,0,1,1.6-.67,2.43,2.43,0,0,1,1,.18,1.84,1.84,0,0,1,.67.53,2.33,2.33,0,0,1,.4.82A4.33,4.33,0,0,1,62.12,90a2.91,2.91,0,0,1-.56,1.92,2,2,0,0,1-1.61.67,2.35,2.35,0,0,1-1-.18,1.77,1.77,0,0,1-.68-.53,2.08,2.08,0,0,1-.39-.82A3.9,3.9,0,0,1,57.79,90Zm.82,0a3.38,3.38,0,0,0,.07.72,2.21,2.21,0,0,0,.23.61,1.27,1.27,0,0,0,.42.41,1.12,1.12,0,0,0,.62.16c.9,0,1.35-.63,1.35-1.9a3.4,3.4,0,0,0-.08-.73,1.79,1.79,0,0,0-.23-.6,1.18,1.18,0,0,0-.42-.41,1.1,1.1,0,0,0-.62-.16C59.06,88.06,58.61,88.69,58.61,90Z"/><path class="a" d="M63.36,87.49h.55l.14.59h0a1.58,1.58,0,0,1,.59-.53,1.84,1.84,0,0,1,.83-.18A1.81,1.81,0,0,1,67,88a3,3,0,0,1,.48,1.9A3.52,3.52,0,0,1,67.3,91a2.39,2.39,0,0,1-.46.85,2,2,0,0,1-.72.53,2.18,2.18,0,0,1-.93.19,3,3,0,0,1-.58,0,2.11,2.11,0,0,1-.46-.16v2.06h-.79Zm2,.57a1.14,1.14,0,0,0-.8.27,1.48,1.48,0,0,0-.41.79v2.45a1.44,1.44,0,0,0,.41.21,1.93,1.93,0,0,0,.6.08,1.3,1.3,0,0,0,1.08-.51,2.37,2.37,0,0,0,.4-1.5,3.29,3.29,0,0,0-.07-.73,1.62,1.62,0,0,0-.22-.57,1.12,1.12,0,0,0-.39-.36A1.4,1.4,0,0,0,65.36,88.06Z"/><path class="a" d="M70.88,91.09a.63.63,0,0,0-.18-.47,1.45,1.45,0,0,0-.44-.28c-.17-.07-.36-.15-.57-.22a2.12,2.12,0,0,1-.57-.26,1.47,1.47,0,0,1-.44-.42,1.18,1.18,0,0,1-.18-.69,1.28,1.28,0,0,1,.41-1A1.72,1.72,0,0,1,70,87.37a3.29,3.29,0,0,1,.9.1,2.79,2.79,0,0,1,.62.22l-.18.65a3.2,3.2,0,0,0-.55-.19,2.61,2.61,0,0,0-.69-.09,1.1,1.1,0,0,0-.64.15.62.62,0,0,0-.2.52.49.49,0,0,0,.18.4,1.82,1.82,0,0,0,.44.25c.17.08.36.15.57.23a2.39,2.39,0,0,1,.58.28,1.54,1.54,0,0,1,.43.45,1.28,1.28,0,0,1,.18.72,1.63,1.63,0,0,1-.1.59,1.31,1.31,0,0,1-.32.48,1.78,1.78,0,0,1-.54.31,2.49,2.49,0,0,1-.76.11,3.84,3.84,0,0,1-1-.11,2.93,2.93,0,0,1-.66-.26l.24-.67a2.57,2.57,0,0,0,.59.24,2.71,2.71,0,0,0,.74.11,1.38,1.38,0,0,0,.71-.17A.65.65,0,0,0,70.88,91.09Z"/><path class="a" d="M78,85.4l.62.27L75,93.82l-.62-.28Z"/><path class="a" d="M86.15,92.15a1.83,1.83,0,0,1-.75.31,5,5,0,0,1-1,.09,3.19,3.19,0,0,1-1.16-.21,2.48,2.48,0,0,1-1-.65,3.16,3.16,0,0,1-.65-1.11A5.12,5.12,0,0,1,81.44,89a4.44,4.44,0,0,1,.26-1.64,3.08,3.08,0,0,1,.69-1.11,2.67,2.67,0,0,1,1-.63,3.17,3.17,0,0,1,1.09-.19,6.33,6.33,0,0,1,1,.06,3.11,3.11,0,0,1,.64.17l-.2.73a3.18,3.18,0,0,0-1.35-.23,2.45,2.45,0,0,0-.8.14,1.86,1.86,0,0,0-.71.49,2.64,2.64,0,0,0-.5.88,4.84,4.84,0,0,0,0,2.58,2.81,2.81,0,0,0,.49.89,2.21,2.21,0,0,0,.73.53,2.32,2.32,0,0,0,.92.18,2.91,2.91,0,0,0,.77-.09A1.82,1.82,0,0,0,86,91.5Z"/><path class="a" d="M90.46,92.43V89.62a6.39,6.39,0,0,0,0-.68,1.28,1.28,0,0,0-.17-.49.82.82,0,0,0-.32-.29,1.28,1.28,0,0,0-.53-.1,1.31,1.31,0,0,0-.84.3,1.36,1.36,0,0,0-.48.78v3.29h-.79V85.51h.79V88h0a2,2,0,0,1,.62-.49,2,2,0,0,1,.89-.18,2.2,2.2,0,0,1,.72.1,1,1,0,0,1,.51.33,1.68,1.68,0,0,1,.3.63,4.82,4.82,0,0,1,.09,1v3Z"/><path class="a" d="M92.61,87.86a2.65,2.65,0,0,1,.88-.34,5,5,0,0,1,1-.11,2.14,2.14,0,0,1,.83.14,1.16,1.16,0,0,1,.47.36,1.28,1.28,0,0,1,.22.49,3.27,3.27,0,0,1,0,.53c0,.4,0,.78,0,1.16s0,.73,0,1.07,0,.47,0,.69a3.38,3.38,0,0,0,.11.6H95.6l-.21-.69h0a1.74,1.74,0,0,1-.22.27,1.57,1.57,0,0,1-.32.24,1.75,1.75,0,0,1-.44.17,1.91,1.91,0,0,1-.56.07,1.63,1.63,0,0,1-.59-.1,1.31,1.31,0,0,1-.47-.28,1.4,1.4,0,0,1-.31-.44,1.54,1.54,0,0,1-.11-.58,1.39,1.39,0,0,1,.18-.73,1.18,1.18,0,0,1,.5-.46,2.32,2.32,0,0,1,.77-.25,6.07,6.07,0,0,1,1-.07H95a1.23,1.23,0,0,1,.27,0q0-.3,0-.54a1.1,1.1,0,0,0-.21-.76,1.16,1.16,0,0,0-.8-.22l-.36,0-.39.07-.39.11a1.91,1.91,0,0,0-.32.15Zm1.41,4a1.81,1.81,0,0,0,.49-.07,1.68,1.68,0,0,0,.38-.19,1.55,1.55,0,0,0,.26-.25A1.25,1.25,0,0,0,95.3,91v-.82l-.28,0h-.28a5.88,5.88,0,0,0-.6,0,2.37,2.37,0,0,0-.51.13.88.88,0,0,0-.36.26.61.61,0,0,0-.13.41.72.72,0,0,0,.25.57A.88.88,0,0,0,94,91.82Z"/><path class="a" d="M97.6,86a.56.56,0,0,1,.15-.39.51.51,0,0,1,.39-.17.54.54,0,0,1,.4.17.5.5,0,0,1,.17.39.45.45,0,0,1-.17.37.57.57,0,0,1-.4.15.53.53,0,0,1-.39-.15A.5.5,0,0,1,97.6,86Zm.16,1.5h.79v4.94h-.79Z"/><path class="a" d="M103.42,92.43V89.62a2.39,2.39,0,0,0-.23-1.17.84.84,0,0,0-.81-.39,1.32,1.32,0,0,0-.87.29,1.57,1.57,0,0,0-.48.7v3.38h-.79V87.49h.56l.15.6h0a2,2,0,0,1,.64-.52,2.19,2.19,0,0,1,1-.2,2.21,2.21,0,0,1,.71.1,1.08,1.08,0,0,1,.51.33,1.68,1.68,0,0,1,.3.63,4.12,4.12,0,0,1,.11,1v3Z"/><path class="a" d="M107.82,91.09a.66.66,0,0,0-.17-.47,1.75,1.75,0,0,0-.44-.28l-.58-.22a2.27,2.27,0,0,1-.57-.26,1.47,1.47,0,0,1-.44-.42,1.18,1.18,0,0,1-.18-.69,1.28,1.28,0,0,1,.41-1,1.72,1.72,0,0,1,1.12-.33,3.29,3.29,0,0,1,.9.1,3.09,3.09,0,0,1,.63.22l-.19.65a2.93,2.93,0,0,0-.55-.19,2.5,2.5,0,0,0-.69-.09,1.1,1.1,0,0,0-.64.15.62.62,0,0,0-.2.52.49.49,0,0,0,.18.4,2,2,0,0,0,.44.25c.17.08.37.15.57.23a2.39,2.39,0,0,1,.58.28,1.71,1.71,0,0,1,.44.45,1.37,1.37,0,0,1,.17.72,1.63,1.63,0,0,1-.1.59,1.31,1.31,0,0,1-.32.48,1.78,1.78,0,0,1-.54.31,2.44,2.44,0,0,1-.76.11,3.7,3.7,0,0,1-1-.11,2.84,2.84,0,0,1-.67-.26l.24-.67a2.57,2.57,0,0,0,.59.24,2.72,2.72,0,0,0,.75.11,1.37,1.37,0,0,0,.7-.17A.65.65,0,0,0,107.82,91.09Z"/><polygon class="b" points="84.44 32.86 44.95 32.86 47.18 28.94 82.21 28.94 84.44 32.86"/><polyline class="b" points="62.35 71.36 44.95 71.36 44.95 40.57"/><polyline class="b" points="84.44 40.57 84.44 71.36 69.29 71.36"/><polyline class="b" points="80.44 39.85 80.44 62.11 48.7 62.11 48.7 39.43"/><path class="b" d="M49.32,36.58c0,5.06-10.11,4.93-10.11-.15l50.43.15c0,5.06-10.11,5.35-10.11.26"/><path class="b" d="M59.46,37c0,5.06-10.11,4.51-10.11-.57"/><path class="b" d="M69.47,37c0,5.06-10.11,4.93-10.11-.16"/><path class="b" d="M79.61,37c0,5.06-10.11,4.93-10.11-.16"/><line class="b" x1="39.21" y1="36.43" x2="45.07" y2="32.82"/><line class="b" x1="84.21" y1="32.82" x2="89.64" y2="36.58"/></svg>