<svg xmlns="http://www.w3.org/2000/svg" viewBox="0 0 172.47 119.02"><defs><style>.a{fill:#ffe161;}.b{fill:none;stroke:#1eb9d5;stroke-linecap:round;stroke-linejoin:round;stroke-width:2px;}.c{fill:#17bad6;}</style></defs><title>Asset 5</title><path class="a" d="M0,104.86H6.42v1.25h-5v4H6.08v1.25H1.4v5.28H0Z"/><path class="a" d="M8.58,105.67a1,1,0,0,1,.26-.67.91.91,0,0,1,.67-.28,1,1,0,0,1,.69.28.91.91,0,0,1,.28.67.81.81,0,0,1-.28.64,1,1,0,0,1-.69.25.93.93,0,0,1-.67-.25A.87.87,0,0,1,8.58,105.67Zm.29,2.56h1.34v8.43H8.87Z"/><path class="a" d="M18.51,116.66v-4.81a4.16,4.16,0,0,0-.38-2,1.46,1.46,0,0,0-1.39-.66,2.25,2.25,0,0,0-1.48.48,2.55,2.55,0,0,0-.81,1.2v5.77H13.1v-8.43H14l.25,1h.07a3,3,0,0,1,1.09-.89,3.55,3.55,0,0,1,1.62-.34,4.06,4.06,0,0,1,1.22.16,1.76,1.76,0,0,1,.87.56,2.7,2.7,0,0,1,.52,1.09,6.9,6.9,0,0,1,.18,1.73v5.09Z"/><path class="a" d="M21.2,108.23h1.32v-1.67l1.35-.39v2.06h2.29v1.18H23.87v4.67a2.51,2.51,0,0,0,.22,1.24.79.79,0,0,0,.74.36,2.63,2.63,0,0,0,.74-.09c.2-.06.43-.15.67-.25l.31,1a5.13,5.13,0,0,1-1,.35,4.73,4.73,0,0,1-1.16.14,1.67,1.67,0,0,1-1.45-.58,3.44,3.44,0,0,1-.42-2v-4.92H21.2Z"/><path class="a" d="M34,116a3.7,3.7,0,0,1-1.27.64,5.5,5.5,0,0,1-1.63.24,4.08,4.08,0,0,1-1.67-.31,3,3,0,0,1-1.16-.9,3.76,3.76,0,0,1-.68-1.39,7.2,7.2,0,0,1-.22-1.82,4.87,4.87,0,0,1,1-3.28A3.37,3.37,0,0,1,31.08,108a5.62,5.62,0,0,1,1.15.12,2.78,2.78,0,0,1,1,.48,2.56,2.56,0,0,1,.74,1,4.28,4.28,0,0,1,.29,1.71,8.11,8.11,0,0,1-.11,1.23H28.77a5.19,5.19,0,0,0,.15,1.31,2.52,2.52,0,0,0,.48,1,2,2,0,0,0,.83.61,3.32,3.32,0,0,0,1.26.21,3.51,3.51,0,0,0,1.14-.2,2.43,2.43,0,0,0,.86-.47Zm-2.9-6.77a2.33,2.33,0,0,0-1.59.52,2.61,2.61,0,0,0-.72,1.79H33a2.57,2.57,0,0,0-.49-1.8A1.82,1.82,0,0,0,31.1,109.21Z"/><path class="a" d="M42,116.1a3.61,3.61,0,0,1-1.2.57,5.68,5.68,0,0,1-1.44.19,3.91,3.91,0,0,1-1.66-.31,2.84,2.84,0,0,1-1.1-.9,3.54,3.54,0,0,1-.62-1.39,7.86,7.86,0,0,1-.2-1.82,5,5,0,0,1,1-3.28A3.34,3.34,0,0,1,39.41,108a6.63,6.63,0,0,1,1.37.12,4.23,4.23,0,0,1,1,.37l-.38,1.16a3.87,3.87,0,0,0-.86-.35,4.19,4.19,0,0,0-1-.12c-1.59,0-2.39,1.08-2.39,3.23a5.46,5.46,0,0,0,.13,1.23,2.82,2.82,0,0,0,.42,1,2.22,2.22,0,0,0,.77.72,2.41,2.41,0,0,0,1.19.27,3.11,3.11,0,0,0,1.87-.61Z"/><path class="a" d="M49.24,116.66v-4.81a7.78,7.78,0,0,0-.08-1.15,2.14,2.14,0,0,0-.28-.83,1.24,1.24,0,0,0-.55-.49,2,2,0,0,0-.9-.17,2.24,2.24,0,0,0-1.43.51,2.32,2.32,0,0,0-.83,1.32v5.62H43.83v-11.8h1.34v4.31h.07a3.21,3.21,0,0,1,1.06-.83,3.29,3.29,0,0,1,1.52-.31,4.12,4.12,0,0,1,1.23.16,1.76,1.76,0,0,1,.87.56,2.45,2.45,0,0,1,.5,1.09,7.47,7.47,0,0,1,.17,1.73v5.09Z"/><path class="a" d="M61.78,104.66l1.06.47L56.69,119l-1.07-.47Z"/><path class="a" d="M77.22,108.73l.17-1.77H77.3l-.64,1.62-3.07,5.33h-.42l-3.25-5.34L69.31,107h-.08l.23,1.76v7.94H68.15v-11.8h1l3.7,6,.55,1.32h0l.52-1.35,3.52-6h1.1v11.8h-1.4Z"/><path class="a" d="M80.87,112.44a5,5,0,0,1,1-3.28A3.39,3.39,0,0,1,84.57,108a4,4,0,0,1,1.64.31,2.91,2.91,0,0,1,1.15.89,3.89,3.89,0,0,1,.68,1.4,6.85,6.85,0,0,1,.22,1.81,5,5,0,0,1-1,3.28,3.38,3.38,0,0,1-2.74,1.14,4,4,0,0,1-1.65-.31,3,3,0,0,1-1.15-.9,3.93,3.93,0,0,1-.68-1.39A7.32,7.32,0,0,1,80.87,112.44Zm1.4,0a6.1,6.1,0,0,0,.13,1.23,3.08,3.08,0,0,0,.4,1,2.16,2.16,0,0,0,.7.71,2,2,0,0,0,1.07.27c1.52,0,2.29-1.07,2.29-3.24a5.55,5.55,0,0,0-.13-1.24,3.07,3.07,0,0,0-.39-1,2.07,2.07,0,0,0-.71-.7,2,2,0,0,0-1.06-.26C83,109.2,82.27,110.27,82.27,112.44Z"/><path class="a" d="M90.38,104.86h1.35v4.2h.07a2.62,2.62,0,0,1,1-.76,3.17,3.17,0,0,1,1.31-.27,2.93,2.93,0,0,1,2.45,1,5.22,5.22,0,0,1,.82,3.24,4.7,4.7,0,0,1-1.08,3.35,3.94,3.94,0,0,1-3,1.15,6.92,6.92,0,0,1-1.71-.2,4.55,4.55,0,0,1-1.16-.44Zm3.47,4.35a1.93,1.93,0,0,0-1.36.47,2.71,2.71,0,0,0-.76,1.33v4.25a2.83,2.83,0,0,0,.78.28,4.76,4.76,0,0,0,.94.09,2.28,2.28,0,0,0,1.83-.81,3.9,3.9,0,0,0,.68-2.53,6,6,0,0,0-.12-1.23,3,3,0,0,0-.37-1,1.77,1.77,0,0,0-1.62-.87Z"/><path class="a" d="M99.48,105.67a.94.94,0,0,1,.27-.67.87.87,0,0,1,.66-.28,1,1,0,0,1,.69.28.92.92,0,0,1,.29.67.82.82,0,0,1-.29.64,1,1,0,0,1-.69.25.89.89,0,0,1-.66-.25A.84.84,0,0,1,99.48,105.67Zm.29,2.56h1.35v8.43H99.77Z"/><path class="a" d="M105.5,114.58a1.41,1.41,0,0,0,.2.85.7.7,0,0,0,.58.25l.47,0a3.12,3.12,0,0,0,.57-.16l.15,1.07a2.63,2.63,0,0,1-.75.21,4.63,4.63,0,0,1-.83.09,1.81,1.81,0,0,1-1.25-.43,1.89,1.89,0,0,1-.49-1.46V104.86h1.35Z"/><path class="a" d="M115.08,116a3.75,3.75,0,0,1-1.28.64,5.38,5.38,0,0,1-1.62.24,4.08,4.08,0,0,1-1.67-.31,3.07,3.07,0,0,1-1.17-.9,3.91,3.91,0,0,1-.67-1.39,6.77,6.77,0,0,1-.22-1.82,4.92,4.92,0,0,1,1-3.28,3.39,3.39,0,0,1,2.75-1.13,5.69,5.69,0,0,1,1.15.12,2.67,2.67,0,0,1,1,.48,2.57,2.57,0,0,1,.75,1,4.3,4.3,0,0,1,.28,1.71,8,8,0,0,1-.1,1.23h-5.41a5.19,5.19,0,0,0,.15,1.31,2.51,2.51,0,0,0,.47,1,2.08,2.08,0,0,0,.84.61,3.3,3.3,0,0,0,1.25.21,3.52,3.52,0,0,0,1.15-.2,2.53,2.53,0,0,0,.86-.47Zm-2.9-6.77a2.34,2.34,0,0,0-1.6.52,2.61,2.61,0,0,0-.71,1.79h4.18a2.62,2.62,0,0,0-.49-1.8A1.83,1.83,0,0,0,112.18,109.21Z"/><path class="a" d="M124.11,112.76l.27,2h0l.28-2,2.43-7.87h.68l2.44,7.9.29,2h0l.31-2,2-7.87h1.35l-3.29,12h-.77l-2.39-7.9-.31-1.79h-.08L127,109l-2.39,7.89h-.77l-3.38-12H122Z"/><path class="a" d="M134.8,108.85a4.72,4.72,0,0,1,1.49-.57,8.59,8.59,0,0,1,1.78-.19,3.51,3.51,0,0,1,1.41.24,1.89,1.89,0,0,1,.8.62,2.16,2.16,0,0,1,.38.83,4.68,4.68,0,0,1,.09.91c0,.67,0,1.33-.05,2s0,1.25,0,1.82a11,11,0,0,0,0,1.18,5.26,5.26,0,0,0,.18,1h-1l-.36-1.18h-.08a2.65,2.65,0,0,1-.38.46,2.13,2.13,0,0,1-.55.41,2.93,2.93,0,0,1-.74.29,3.5,3.5,0,0,1-1,.12,2.73,2.73,0,0,1-1-.17,2.22,2.22,0,0,1-.8-.48,2,2,0,0,1-.53-.75,2.4,2.4,0,0,1-.2-1,2.26,2.26,0,0,1,.31-1.24,2.1,2.1,0,0,1,.85-.79,4,4,0,0,1,1.31-.42,9.87,9.87,0,0,1,1.7-.13h.46a3.55,3.55,0,0,1,.46,0,7.54,7.54,0,0,0,.05-.91,1.82,1.82,0,0,0-.37-1.3,1.91,1.91,0,0,0-1.35-.37,4.55,4.55,0,0,0-.61,0l-.68.12a4.11,4.11,0,0,0-.65.19,3.13,3.13,0,0,0-.55.25Zm2.39,6.76a2.66,2.66,0,0,0,.84-.12,2.63,2.63,0,0,0,.65-.32,2.57,2.57,0,0,0,.44-.43,1.67,1.67,0,0,0,.26-.46v-1.4l-.48,0h-.48a8.47,8.47,0,0,0-1,.06,3.08,3.08,0,0,0-.87.22,1.46,1.46,0,0,0-.61.43,1.09,1.09,0,0,0-.23.7,1.24,1.24,0,0,0,.42,1A1.52,1.52,0,0,0,137.19,115.61Z"/><path class="a" d="M144.79,114.58a1.34,1.34,0,0,0,.21.85.67.67,0,0,0,.57.25l.47,0a3.12,3.12,0,0,0,.57-.16l.16,1.07a2.63,2.63,0,0,1-.75.21,4.63,4.63,0,0,1-.84.09,1.83,1.83,0,0,1-1.25-.43,1.89,1.89,0,0,1-.49-1.46V104.86h1.35Z"/><path class="a" d="M149.72,114.58a1.35,1.35,0,0,0,.2.85.67.67,0,0,0,.57.25l.47,0a3.44,3.44,0,0,0,.58-.16l.15,1.07a2.63,2.63,0,0,1-.75.21,4.63,4.63,0,0,1-.84.09,1.78,1.78,0,0,1-1.24-.43,1.85,1.85,0,0,1-.49-1.46V104.86h1.35Z"/><path class="a" d="M159.29,116a3.7,3.7,0,0,1-1.27.64,5.45,5.45,0,0,1-1.63.24,4.08,4.08,0,0,1-1.67-.31,3,3,0,0,1-1.16-.9,3.93,3.93,0,0,1-.68-1.39,7.22,7.22,0,0,1-.21-1.82,4.92,4.92,0,0,1,1-3.28,3.37,3.37,0,0,1,2.74-1.13,5.54,5.54,0,0,1,1.15.12,2.78,2.78,0,0,1,1,.48,2.56,2.56,0,0,1,.74,1,4.28,4.28,0,0,1,.29,1.71,8.11,8.11,0,0,1-.11,1.23h-5.41a5.16,5.16,0,0,0,.16,1.31,2.38,2.38,0,0,0,.47,1,2,2,0,0,0,.83.61,3.32,3.32,0,0,0,1.26.21,3.51,3.51,0,0,0,1.14-.2,2.43,2.43,0,0,0,.86-.47Zm-2.9-6.77a2.33,2.33,0,0,0-1.59.52,2.61,2.61,0,0,0-.72,1.79h4.18a2.57,2.57,0,0,0-.49-1.8A1.8,1.8,0,0,0,156.39,109.21Z"/><path class="a" d="M160.59,108.23h1.31v-1.67l1.35-.39v2.06h2.29v1.18h-2.29v4.67a2.51,2.51,0,0,0,.22,1.24.8.8,0,0,0,.74.36,2.63,2.63,0,0,0,.74-.09c.21-.06.43-.15.68-.25l.3,1a5.06,5.06,0,0,1-2.16.49,1.68,1.68,0,0,1-1.45-.58,3.44,3.44,0,0,1-.42-2v-4.92h-1.31Z"/><path class="a" d="M171.12,114.36a1,1,0,0,0-.3-.79,2.55,2.55,0,0,0-.75-.48c-.3-.13-.62-.25-1-.37a5.15,5.15,0,0,1-1-.45,2.85,2.85,0,0,1-.75-.72,2.06,2.06,0,0,1-.3-1.18,2.17,2.17,0,0,1,.69-1.78,3,3,0,0,1,1.92-.56,6,6,0,0,1,1.53.16,5.12,5.12,0,0,1,1.07.38l-.32,1.11a5.1,5.1,0,0,0-.94-.33,4.37,4.37,0,0,0-1.17-.14,1.87,1.87,0,0,0-1.09.25,1,1,0,0,0-.34.88.83.83,0,0,0,.3.68,3.3,3.3,0,0,0,.75.44c.3.13.63.25,1,.38a3.91,3.91,0,0,1,1,.49,2.59,2.59,0,0,1,.75.76,2.23,2.23,0,0,1,.3,1.22,2.88,2.88,0,0,1-.18,1,2,2,0,0,1-.54.8,2.7,2.7,0,0,1-.92.54,4.17,4.17,0,0,1-1.29.19,6,6,0,0,1-1.64-.19,5.58,5.58,0,0,1-1.13-.43l.41-1.15a4.51,4.51,0,0,0,1,.4,4.23,4.23,0,0,0,1.26.19,2.27,2.27,0,0,0,1.2-.29A1.11,1.11,0,0,0,171.12,114.36Z"/><path class="b" d="M110.23,76.39v6.5A4.24,4.24,0,0,1,106,87.14H65.79a4.24,4.24,0,0,1-4.24-4.25V5.25A4.24,4.24,0,0,1,65.79,1H106a4.24,4.24,0,0,1,4.24,4.25V64.7"/><path class="b" d="M66.43,52.91V76.82a4,4,0,0,0,4,4h30.86a4,4,0,0,0,4-4V11.32a4,4,0,0,0-4-4H93.2L91.78,10.6h-12L78.63,7.29H70.46a4,4,0,0,0-4,4V43.89"/><path class="c" d="M87.73,28.77v1.59c2.27,0,6.29.95,6.29,2.27,0,.59-.88,2.11-1.28,2.11-.59,0-2-1.44-5-1.52V42.5c3.54,1.27,7.6,2.7,7.6,8.19,0,4.54-2.94,7.41-7.6,7.8v2c0,.44-.24.64-.8.64s-.79-.2-.79-.64V58.53c-4.5-.12-7.88-1.83-7.88-2.9,0-.64.95-2.15,1.39-2.15s2.63,2.07,6.49,2.19V45.4c-3.5-1.35-7.36-2.74-7.36-7.88,0-3.9,2.86-6.6,7.36-7.08V28.77c0-.44.24-.64.79-.64S87.73,28.33,87.73,28.77ZM82.4,37.68C82.4,40,84,41,86.14,41.9V33.34A4.11,4.11,0,0,0,82.4,37.68Zm5.33,17.87a4.73,4.73,0,0,0,4-4.86c0-2.5-1.79-3.7-4-4.65Z"/></svg>