<?xml version="1.0" encoding="utf-8"?>
<!-- Generator: Adobe Illustrator 23.0.3, SVG Export Plug-In . SVG Version: 6.00 Build 0)  -->
<svg version="1.1" id="Layer_1" xmlns="http://www.w3.org/2000/svg" xmlns:xlink="http://www.w3.org/1999/xlink" x="0px" y="0px"
	 viewBox="0 0 130 130" style="enable-background:new 0 0 130 130;" xml:space="preserve">
<style type="text/css">
	.st0{fill:none;stroke:#FFE161;stroke-width:1.5;stroke-miterlimit:10;}
	.st1{fill:#FFFFFF;}
	.st2{fill:none;stroke:#1EB9D5;stroke-width:1.5;}
</style>
<line class="st0" x1="46.5" y1="43.5" x2="46.8" y2="37.6"/>
<line class="st0" x1="45.9" y1="59.8" x2="46.4" y2="48.4"/>
<line class="st0" x1="83.1" y1="51.3" x2="82.6" y2="37.6"/>
<line class="st0" x1="83.4" y1="59.8" x2="83.2" y2="56"/>
<line class="st0" x1="77.2" y1="59.8" x2="78" y2="37.3"/>
<line class="st0" x1="51.1" y1="37.3" x2="51.9" y2="59.8"/>
<line class="st0" x1="62.1" y1="59.8" x2="63" y2="37.6"/>
<line class="st0" x1="67.3" y1="37.3" x2="68.1" y2="59.8"/>
<g>
	<path class="st1" d="M9,83.4h5.3v1h-4.2v3.2H14v1h-3.8v3.5h4.2v1H9V83.4z"/>
	<path class="st1" d="M18.2,89.6l-2.4-3.4h1.4l1.3,1.9L19,89l0.4-0.8l1.4-1.9H22l-2.4,3.4l2.5,3.6h-1.3l-1.5-2.1l-0.4-0.8l-0.4,0.8
		L17,93.2h-1.2L18.2,89.6z"/>
	<path class="st1" d="M28,92.8c-0.3,0.2-0.6,0.4-1,0.5s-0.8,0.2-1.2,0.2c-0.5,0-1-0.1-1.4-0.3c-0.4-0.2-0.7-0.4-0.9-0.7
		c-0.2-0.3-0.4-0.7-0.5-1.2c-0.1-0.5-0.2-1-0.2-1.5c0-1.2,0.3-2.1,0.8-2.7c0.5-0.6,1.3-0.9,2.3-0.9c0.4,0,0.8,0,1.1,0.1
		c0.3,0.1,0.6,0.2,0.8,0.3l-0.3,1c-0.2-0.1-0.5-0.2-0.7-0.3S26.3,87,26,87c-1.3,0-2,0.9-2,2.7c0,0.4,0,0.7,0.1,1
		c0.1,0.3,0.2,0.6,0.4,0.9c0.2,0.2,0.4,0.4,0.6,0.6c0.3,0.1,0.6,0.2,1,0.2c0.3,0,0.6-0.1,0.9-0.2s0.5-0.2,0.7-0.4L28,92.8z"/>
	<path class="st1" d="M34.1,93.2v-4c0-0.4,0-0.7-0.1-1s-0.1-0.5-0.2-0.7c-0.1-0.2-0.3-0.3-0.5-0.4c-0.2-0.1-0.4-0.1-0.7-0.1
		c-0.4,0-0.8,0.1-1.2,0.4c-0.4,0.3-0.6,0.7-0.7,1.1v4.7h-1.1v-9.8h1.1V87h0.1c0.2-0.3,0.5-0.5,0.9-0.7s0.8-0.3,1.3-0.3
		c0.4,0,0.7,0,1,0.1c0.3,0.1,0.5,0.2,0.7,0.5c0.2,0.2,0.3,0.5,0.4,0.9c0.1,0.4,0.1,0.9,0.1,1.4v4.2H34.1z"/>
	<path class="st1" d="M37.1,86.7c0.4-0.2,0.8-0.4,1.2-0.5c0.5-0.1,1-0.2,1.5-0.2c0.5,0,0.9,0.1,1.2,0.2s0.5,0.3,0.7,0.5
		s0.3,0.4,0.3,0.7s0.1,0.5,0.1,0.8c0,0.6,0,1.1,0,1.6c0,0.5,0,1,0,1.5c0,0.3,0,0.7,0,1c0,0.3,0.1,0.6,0.2,0.9h-0.8l-0.3-1H41
		c-0.1,0.1-0.2,0.3-0.3,0.4s-0.3,0.2-0.5,0.3c-0.2,0.1-0.4,0.2-0.6,0.2c-0.2,0.1-0.5,0.1-0.8,0.1s-0.6,0-0.8-0.1
		c-0.3-0.1-0.5-0.2-0.7-0.4s-0.3-0.4-0.4-0.6c-0.1-0.2-0.2-0.5-0.2-0.8c0-0.4,0.1-0.8,0.3-1s0.4-0.5,0.7-0.7
		c0.3-0.2,0.7-0.3,1.1-0.3c0.4-0.1,0.9-0.1,1.4-0.1c0.1,0,0.3,0,0.4,0s0.3,0,0.4,0c0-0.3,0-0.5,0-0.8c0-0.5-0.1-0.9-0.3-1.1
		c-0.2-0.2-0.6-0.3-1.1-0.3c-0.2,0-0.3,0-0.5,0c-0.2,0-0.4,0.1-0.6,0.1s-0.4,0.1-0.5,0.2c-0.2,0.1-0.3,0.1-0.5,0.2L37.1,86.7z
		 M39.1,92.4c0.3,0,0.5,0,0.7-0.1c0.2-0.1,0.4-0.2,0.5-0.3c0.1-0.1,0.3-0.2,0.4-0.4c0.1-0.1,0.2-0.3,0.2-0.4v-1.2
		c-0.1,0-0.3,0-0.4,0c-0.1,0-0.3,0-0.4,0c-0.3,0-0.6,0-0.8,0c-0.3,0-0.5,0.1-0.7,0.2s-0.4,0.2-0.5,0.4c-0.1,0.2-0.2,0.3-0.2,0.6
		c0,0.3,0.1,0.6,0.4,0.8C38.5,92.3,38.8,92.4,39.1,92.4z"/>
	<path class="st1" d="M48.7,93.2v-4c0-0.7-0.1-1.3-0.3-1.6c-0.2-0.4-0.6-0.6-1.2-0.6c-0.5,0-0.9,0.1-1.2,0.4c-0.3,0.3-0.5,0.6-0.7,1
		v4.8h-1.1v-7H45l0.2,0.9h0.1c0.2-0.3,0.5-0.5,0.9-0.7c0.4-0.2,0.8-0.3,1.4-0.3c0.4,0,0.7,0,1,0.1c0.3,0.1,0.5,0.2,0.7,0.5
		c0.2,0.2,0.3,0.5,0.4,0.9s0.1,0.9,0.1,1.4v4.2H48.7z"/>
	<path class="st1" d="M57.2,93.6c0,0.9-0.2,1.6-0.7,2c-0.5,0.4-1.2,0.6-2.1,0.6c-0.6,0-1,0-1.4-0.1c-0.3-0.1-0.6-0.2-0.9-0.3l0.3-1
		c0.2,0.1,0.5,0.2,0.7,0.2c0.3,0.1,0.6,0.1,1,0.1c0.4,0,0.7,0,1-0.1c0.2-0.1,0.4-0.2,0.6-0.3c0.1-0.2,0.3-0.4,0.3-0.6
		c0.1-0.3,0.1-0.6,0.1-0.9v-0.7H56c-0.2,0.3-0.4,0.5-0.7,0.6c-0.3,0.1-0.7,0.2-1.1,0.2c-0.9,0-1.6-0.3-2.1-0.9
		c-0.4-0.6-0.7-1.5-0.7-2.7c0-1.2,0.3-2.1,0.9-2.7c0.6-0.6,1.4-0.9,2.5-0.9c0.5,0,1,0,1.4,0.1c0.4,0.1,0.7,0.2,1,0.3V93.6z
		 M54.4,92.4c0.5,0,0.8-0.1,1.1-0.4c0.3-0.2,0.5-0.6,0.6-1.1v-3.6c-0.4-0.2-0.8-0.3-1.4-0.3c-0.6,0-1.1,0.2-1.5,0.6
		c-0.4,0.4-0.5,1.1-0.5,2c0,0.4,0,0.8,0.1,1.1c0.1,0.3,0.2,0.6,0.3,0.8c0.1,0.2,0.3,0.4,0.5,0.5C53.8,92.3,54.1,92.4,54.4,92.4z"/>
	<path class="st1" d="M64.5,92.7c-0.3,0.2-0.6,0.4-1.1,0.5c-0.4,0.1-0.9,0.2-1.4,0.2c-0.5,0-1-0.1-1.4-0.3s-0.7-0.4-1-0.7
		c-0.3-0.3-0.4-0.7-0.6-1.2c-0.1-0.4-0.2-1-0.2-1.5c0-1.2,0.3-2.1,0.8-2.7c0.5-0.6,1.3-0.9,2.3-0.9c0.3,0,0.6,0,1,0.1
		c0.3,0.1,0.6,0.2,0.9,0.4c0.3,0.2,0.5,0.5,0.6,0.8s0.2,0.8,0.2,1.4c0,0.3,0,0.6-0.1,1h-4.5c0,0.4,0,0.8,0.1,1.1s0.2,0.6,0.4,0.8
		c0.2,0.2,0.4,0.4,0.7,0.5c0.3,0.1,0.6,0.2,1,0.2c0.3,0,0.6-0.1,1-0.2c0.3-0.1,0.6-0.2,0.7-0.4L64.5,92.7z M62.1,87
		c-0.6,0-1,0.1-1.3,0.4c-0.3,0.3-0.5,0.8-0.6,1.5h3.5c0-0.7-0.1-1.2-0.4-1.5C62.9,87.2,62.6,87,62.1,87z"/>
	<path class="st1" d="M76.2,88.7h-4.7v4.5h-1.2v-9.8h1.2v4.3h4.7v-4.3h1.2v9.8h-1.2V88.7z"/>
	<path class="st1" d="M79.2,89.7c0-1.2,0.3-2.1,0.8-2.7s1.3-0.9,2.3-0.9c0.5,0,1,0.1,1.4,0.3s0.7,0.4,1,0.7s0.4,0.7,0.6,1.2
		c0.1,0.5,0.2,1,0.2,1.5c0,1.2-0.3,2.1-0.8,2.7s-1.3,0.9-2.3,0.9c-0.5,0-1-0.1-1.4-0.3c-0.4-0.2-0.7-0.4-1-0.7
		c-0.3-0.3-0.4-0.7-0.6-1.2C79.3,90.8,79.2,90.3,79.2,89.7z M80.4,89.7c0,0.4,0,0.7,0.1,1c0.1,0.3,0.2,0.6,0.3,0.9
		c0.1,0.2,0.3,0.4,0.6,0.6s0.5,0.2,0.9,0.2c1.3,0,1.9-0.9,1.9-2.7c0-0.4,0-0.7-0.1-1c-0.1-0.3-0.2-0.6-0.3-0.9
		c-0.1-0.2-0.3-0.4-0.6-0.6c-0.2-0.1-0.5-0.2-0.9-0.2C81,87,80.4,87.9,80.4,89.7z"/>
	<path class="st1" d="M88.1,86.2v4c0,0.4,0,0.7,0.1,1s0.1,0.5,0.2,0.7c0.1,0.2,0.2,0.3,0.4,0.4c0.2,0.1,0.4,0.1,0.7,0.1
		c0.3,0,0.5,0,0.7-0.1c0.2-0.1,0.4-0.2,0.5-0.3c0.2-0.1,0.3-0.3,0.4-0.5c0.1-0.2,0.2-0.4,0.3-0.6v-4.7h1.1v5c0,0.3,0,0.7,0,1
		c0,0.4,0.1,0.7,0.1,0.9h-0.8l-0.3-1.1h-0.1c-0.2,0.4-0.5,0.7-0.9,0.9c-0.4,0.2-0.8,0.4-1.4,0.4c-0.4,0-0.7,0-1-0.1
		c-0.3-0.1-0.5-0.2-0.7-0.5c-0.2-0.2-0.3-0.5-0.4-0.9S87,91,87,90.5v-4.2H88.1z"/>
	<path class="st1" d="M97.7,91.3c0-0.3-0.1-0.5-0.3-0.7c-0.2-0.2-0.4-0.3-0.6-0.4s-0.5-0.2-0.8-0.3c-0.3-0.1-0.6-0.2-0.8-0.4
		c-0.2-0.2-0.5-0.4-0.6-0.6c-0.2-0.2-0.3-0.6-0.3-1c0-0.7,0.2-1.2,0.6-1.5c0.4-0.3,0.9-0.5,1.6-0.5c0.5,0,0.9,0,1.3,0.1
		c0.3,0.1,0.6,0.2,0.9,0.3l-0.3,0.9c-0.2-0.1-0.5-0.2-0.8-0.3c-0.3-0.1-0.6-0.1-1-0.1c-0.4,0-0.7,0.1-0.9,0.2
		c-0.2,0.1-0.3,0.4-0.3,0.7c0,0.2,0.1,0.4,0.3,0.6c0.2,0.1,0.4,0.3,0.6,0.4c0.2,0.1,0.5,0.2,0.8,0.3s0.6,0.2,0.8,0.4
		s0.5,0.4,0.6,0.6s0.3,0.6,0.3,1c0,0.3,0,0.6-0.1,0.8c-0.1,0.3-0.2,0.5-0.5,0.7c-0.2,0.2-0.5,0.3-0.8,0.4s-0.7,0.2-1.1,0.2
		c-0.5,0-1-0.1-1.4-0.2c-0.4-0.1-0.7-0.2-0.9-0.4l0.3-1c0.2,0.1,0.5,0.2,0.8,0.3c0.3,0.1,0.7,0.2,1,0.2c0.4,0,0.7-0.1,1-0.2
		C97.6,92,97.7,91.7,97.7,91.3z"/>
	<path class="st1" d="M105.7,92.7c-0.3,0.2-0.6,0.4-1.1,0.5c-0.4,0.1-0.9,0.2-1.4,0.2c-0.5,0-1-0.1-1.4-0.3c-0.4-0.2-0.7-0.4-1-0.7
		s-0.4-0.7-0.6-1.2c-0.1-0.4-0.2-1-0.2-1.5c0-1.2,0.3-2.1,0.8-2.7c0.5-0.6,1.3-0.9,2.3-0.9c0.3,0,0.6,0,1,0.1
		c0.3,0.1,0.6,0.2,0.9,0.4s0.5,0.5,0.6,0.8c0.2,0.4,0.2,0.8,0.2,1.4c0,0.3,0,0.6-0.1,1h-4.5c0,0.4,0,0.8,0.1,1.1s0.2,0.6,0.4,0.8
		c0.2,0.2,0.4,0.4,0.7,0.5c0.3,0.1,0.6,0.2,1,0.2c0.3,0,0.6-0.1,1-0.2c0.3-0.1,0.6-0.2,0.7-0.4L105.7,92.7z M103.3,87
		c-0.6,0-1,0.1-1.3,0.4s-0.5,0.8-0.6,1.5h3.5c0-0.7-0.1-1.2-0.4-1.5C104.1,87.2,103.8,87,103.3,87z"/>
	<path class="st1" d="M110.8,91.3c0-0.3-0.1-0.5-0.3-0.7c-0.2-0.2-0.4-0.3-0.6-0.4c-0.2-0.1-0.5-0.2-0.8-0.3
		c-0.3-0.1-0.6-0.2-0.8-0.4c-0.2-0.2-0.5-0.4-0.6-0.6c-0.2-0.2-0.3-0.6-0.3-1c0-0.7,0.2-1.2,0.6-1.5c0.4-0.3,0.9-0.5,1.6-0.5
		c0.5,0,0.9,0,1.3,0.1s0.6,0.2,0.9,0.3l-0.3,0.9c-0.2-0.1-0.5-0.2-0.8-0.3c-0.3-0.1-0.6-0.1-1-0.1c-0.4,0-0.7,0.1-0.9,0.2
		c-0.2,0.1-0.3,0.4-0.3,0.7c0,0.2,0.1,0.4,0.3,0.6c0.2,0.1,0.4,0.3,0.6,0.4c0.2,0.1,0.5,0.2,0.8,0.3s0.6,0.2,0.8,0.4
		c0.2,0.2,0.5,0.4,0.6,0.6s0.3,0.6,0.3,1c0,0.3,0,0.6-0.1,0.8c-0.1,0.3-0.2,0.5-0.5,0.7s-0.5,0.3-0.8,0.4c-0.3,0.1-0.7,0.2-1.1,0.2
		c-0.5,0-1-0.1-1.4-0.2c-0.4-0.1-0.7-0.2-0.9-0.4l0.3-1c0.2,0.1,0.5,0.2,0.8,0.3c0.3,0.1,0.7,0.2,1.1,0.2c0.4,0,0.7-0.1,1-0.2
		C110.6,92,110.8,91.7,110.8,91.3z"/>
	<path class="st1" d="M120.8,83.3l0.9,0.4l-5.1,11.5l-0.9-0.4L120.8,83.3z"/>
	<path class="st1" d="M53.9,102.5c0,0.2,0,0.5-0.1,0.7c-0.1,0.2-0.2,0.5-0.3,0.7s-0.3,0.4-0.6,0.6c-0.2,0.2-0.5,0.3-0.8,0.4v0.1
		c0.3,0,0.5,0.1,0.8,0.2c0.3,0.1,0.5,0.3,0.7,0.5c0.2,0.2,0.4,0.4,0.5,0.7c0.1,0.3,0.2,0.6,0.2,1c0,0.5-0.1,0.9-0.3,1.3
		c-0.2,0.4-0.5,0.7-0.8,0.9s-0.7,0.4-1.2,0.5c-0.4,0.1-0.9,0.2-1.3,0.2c-0.2,0-0.3,0-0.6,0c-0.2,0-0.4,0-0.7,0c-0.2,0-0.5,0-0.7-0.1
		c-0.2,0-0.4-0.1-0.6-0.1v-9.6c0.3-0.1,0.7-0.1,1.2-0.1c0.5,0,1-0.1,1.5-0.1c0.4,0,0.7,0,1.1,0.1c0.4,0.1,0.7,0.2,1,0.4
		c0.3,0.2,0.6,0.4,0.8,0.7S53.9,102,53.9,102.5z M49.9,104.5c0.2,0,0.4,0,0.6,0c0.2,0,0.4,0,0.6,0c0.2-0.1,0.4-0.2,0.6-0.3
		c0.2-0.1,0.4-0.2,0.5-0.4c0.2-0.1,0.3-0.3,0.4-0.5s0.1-0.4,0.1-0.6c0-0.3-0.1-0.6-0.2-0.8c-0.1-0.2-0.3-0.4-0.5-0.5
		c-0.2-0.1-0.4-0.2-0.7-0.3c-0.3-0.1-0.5-0.1-0.8-0.1c-0.3,0-0.6,0-0.8,0c-0.3,0-0.5,0-0.6,0.1v3.3H49.9z M50.7,109.1
		c0.3,0,0.6,0,0.9-0.1c0.3-0.1,0.5-0.2,0.7-0.3s0.4-0.3,0.5-0.6c0.1-0.2,0.2-0.5,0.2-0.8c0-0.4-0.1-0.7-0.2-0.9
		c-0.2-0.2-0.4-0.4-0.6-0.5c-0.2-0.1-0.5-0.2-0.8-0.3c-0.3,0-0.6-0.1-0.9-0.1h-1.2v3.5c0.1,0,0.2,0,0.3,0c0.1,0,0.3,0,0.4,0
		c0.1,0,0.3,0,0.4,0C50.4,109.1,50.5,109.1,50.7,109.1z"/>
	<path class="st1" d="M55.9,103.5c0.4-0.2,0.8-0.4,1.2-0.5c0.5-0.1,1-0.2,1.5-0.2c0.5,0,0.9,0.1,1.2,0.2s0.5,0.3,0.7,0.5
		s0.3,0.4,0.3,0.7s0.1,0.5,0.1,0.8c0,0.6,0,1.1,0,1.6c0,0.5,0,1,0,1.5c0,0.3,0,0.7,0,1c0,0.3,0.1,0.6,0.2,0.9h-0.8l-0.3-1h-0.1
		c-0.1,0.1-0.2,0.3-0.3,0.4s-0.3,0.2-0.5,0.3c-0.2,0.1-0.4,0.2-0.6,0.2c-0.2,0.1-0.5,0.1-0.8,0.1s-0.6,0-0.8-0.1
		c-0.3-0.1-0.5-0.2-0.7-0.4s-0.3-0.4-0.4-0.6c-0.1-0.2-0.2-0.5-0.2-0.8c0-0.4,0.1-0.8,0.3-1s0.4-0.5,0.7-0.7
		c0.3-0.2,0.7-0.3,1.1-0.3C58,106,58.5,106,59,106c0.1,0,0.3,0,0.4,0s0.3,0,0.4,0c0-0.3,0-0.5,0-0.8c0-0.5-0.1-0.9-0.3-1.1
		c-0.2-0.2-0.6-0.3-1.1-0.3c-0.2,0-0.3,0-0.5,0c-0.2,0-0.4,0.1-0.6,0.1s-0.4,0.1-0.5,0.2c-0.2,0.1-0.3,0.1-0.5,0.2L55.9,103.5z
		 M57.9,109.2c0.3,0,0.5,0,0.7-0.1c0.2-0.1,0.4-0.2,0.5-0.3c0.1-0.1,0.3-0.2,0.4-0.4c0.1-0.1,0.2-0.3,0.2-0.4v-1.2
		c-0.1,0-0.3,0-0.4,0c-0.1,0-0.3,0-0.4,0c-0.3,0-0.6,0-0.8,0c-0.3,0-0.5,0.1-0.7,0.2s-0.4,0.2-0.5,0.4c-0.1,0.2-0.2,0.3-0.2,0.6
		c0,0.3,0.1,0.6,0.4,0.8C57.3,109.1,57.6,109.2,57.9,109.2z"/>
	<path class="st1" d="M67.5,110v-4c0-0.7-0.1-1.3-0.3-1.6c-0.2-0.4-0.6-0.6-1.2-0.6c-0.5,0-0.9,0.1-1.2,0.4c-0.3,0.3-0.5,0.6-0.7,1
		v4.8H63v-7h0.8l0.2,0.9h0.1c0.2-0.3,0.5-0.5,0.9-0.7c0.4-0.2,0.8-0.3,1.4-0.3c0.4,0,0.7,0,1,0.1s0.5,0.2,0.7,0.5
		c0.2,0.2,0.3,0.5,0.4,0.9c0.1,0.4,0.1,0.9,0.1,1.4v4.2H67.5z"/>
	<path class="st1" d="M72.4,106.9h-0.6v3.2h-1.1v-9.8h1.1v6l0.6-0.2l2.2-3h1.3l-2.1,2.8l-0.6,0.5l0.7,0.6l2.3,3.2h-1.4L72.4,106.9z"
		/>
	<path class="st1" d="M80.4,108.1c0-0.3-0.1-0.5-0.3-0.7c-0.2-0.2-0.4-0.3-0.6-0.4s-0.5-0.2-0.8-0.3c-0.3-0.1-0.6-0.2-0.8-0.4
		c-0.2-0.2-0.5-0.4-0.6-0.6c-0.2-0.2-0.3-0.6-0.3-1c0-0.7,0.2-1.2,0.6-1.5c0.4-0.3,0.9-0.5,1.6-0.5c0.5,0,0.9,0,1.3,0.1
		c0.3,0.1,0.6,0.2,0.9,0.3l-0.3,0.9c-0.2-0.1-0.5-0.2-0.8-0.3c-0.3-0.1-0.6-0.1-1-0.1c-0.4,0-0.7,0.1-0.9,0.2
		c-0.2,0.1-0.3,0.4-0.3,0.7c0,0.2,0.1,0.4,0.3,0.6c0.2,0.1,0.4,0.3,0.6,0.4c0.2,0.1,0.5,0.2,0.8,0.3s0.6,0.2,0.8,0.4
		s0.5,0.4,0.6,0.6s0.3,0.6,0.3,1c0,0.3,0,0.6-0.1,0.8c-0.1,0.3-0.2,0.5-0.5,0.7c-0.2,0.2-0.5,0.3-0.8,0.4s-0.7,0.2-1.1,0.2
		c-0.5,0-1-0.1-1.4-0.2c-0.4-0.1-0.7-0.2-0.9-0.4l0.3-1c0.2,0.1,0.5,0.2,0.8,0.3c0.3,0.1,0.7,0.2,1,0.2c0.4,0,0.7-0.1,1-0.2
		C80.3,108.8,80.4,108.5,80.4,108.1z"/>
</g>
<title>globe4</title>
<polygon class="st2" points="40.2,37.2 65.3,29.2 89.2,37.2 "/>
<rect x="44.5" y="59.8" class="st2" width="40.3" height="4.2"/>
<rect x="41" y="67.6" class="st2" width="47.4" height="4.2"/>
</svg>
