<svg xmlns="http://www.w3.org/2000/svg" viewBox="0 0 833.89 828.44"><defs><style>.a,.b,.c,.d,.e{fill:none;stroke-miterlimit:10;stroke-width:2px;}.a{stroke:#1fbad6;fill-rule:evenodd;}.b,.c,.d,.e{stroke:#ffe161;}.c{stroke-dasharray:6.13 6.13;}.d{stroke-dasharray:6 6;}.e{stroke-dasharray:6 6;}.f{fill:#ffe161;}</style></defs><title>globe</title><path class="a" d="M182.33,228.5s6.91-11.86,14.82-6.92c11.88,0,40.55,3,56.37,11.86,21.75-2,22.74-4,26.7,1s19.77-9.89,20.75,0-26.69,9.89-35.58,23.73-4,22.75,2.95,27.69S290.1,269,300,261.12s12.85-9.88,22.73-8.89,18.79,5,23.74,18.79-8.9,22.73-13.85,24.71-10.87-7.91-16.81,5.94-11.86,9.88-28.67,20.75-26.69,5.94-36.58,22.75-19.77,16.8-23.73,28.67-2,33.61-5.93,37.56-19.78-31.62-28.67-29.66-16.82,6.93-17.8,22.75-8.9,21.75-5.93,26.69,9.88,6.93,18.78,2,13.85-10.87,15.82,4,5.94,32.62,14.83,42.51,16.81,7.91,23.72,31.64,12.86,28.67-2,22.74-35.58-28.66-39.54-33.62-1-13.85-17.8-25.71S160.57,454.92,158.6,451s-2-17.8-3-26.69-5.93,3-7.91-14.84S132.89,361,136.85,349.12s8.89-39.55,17.8-58.33,12.84-29.67,10.87-36.59S171.46,236.41,182.33,228.5Z"/><path class="a" d="M326.68,234.43s13.85-4,21.76-6.92,13.84-4,8.89,6.92-7.91,15.81-15.82,14.82-32.63-2-27.68-6.91S323.71,243.32,326.68,234.43Z"/><path class="a" d="M392.6,706.72A96.77,96.77,0,0,1,396.16,693c4.94-13.84,25.7-6.92,36.58-31.65s14.83-30.65,13.84-44.49S426.8,603,413,589.14s-25.7-31.64-38.56-37.57-29.66-26.7-53.38-31.64-53.39-9.88-53.39,10.88,7.9,27.67-1,47.46,1,13.83,3,31.63c1.34,12,20.76,29.66,25.71,38.56s12.86,5.93,22.74,14.84c6.43,5.79,10.36,21.19,14.21,34.24"/><path class="a" d="M540.61,155.33c-4,4.46,2.6,16.8,3.6,25.71s-13.85,3-30.66,14.83-3.95,19.78-19.77,16.81-23.73-20.77-25.72-33.62-23.72-16.81-34.6-11.86,8.9,6.92,5.93,21.75-17.79,14.82-24.71,13.85-11.87-5-21.76,5.93,4,17.79,4.95,28.67-9.89,19.76-4,20.76,17.8-16.81,21.76-5S404.79,271,399.84,283.87s15.83,32.62,31.65,39.54,19.77,0,12.85,11.87S420.61,363,411.71,378.79s4,15.81,18.78,14.83,17.81-3,14.84,13.83-6.92,19.78,4.94,20.76,16.81,1,27.68-20.76-9.89-19.76-6.92-36.57,5.94-15.83,16.81-22.74-4.94-10.89,3-16.81,11.3-9.5,17.8-16.82c7.91-8.89,3,4.95,16.81,17.8s24.71,33.62,24.71,41.53-12.86,22.73-5,23.72,9.9-5.92,15.83-16.79,12.85-4,15.82-10.88C579.2,364.36,561,359,551.12,342.2s-7.91-20.76-1-37.57,20.76-8.89,29.66-6.91-3,4.93,9.89,20.76,8.9-1,17.8,3.94,0-15.81,10.87-23.72,6.92-2,19.77,1,11.87-1,7.92-13.83-6.92-6-11.87-16.81,2.73-15.46,13.61-17.43"/><path class="a" d="M640.1,241.35s-32.62,5.92-36.57-7.91,0-15.82-8.9-23.72-18.79-32.64-18.79-32.64"/><path class="a" d="M417.28,160.16c5.19-.74,14.82-4.82,16.67-10,2.36-6.58-8.27-5.79-27.06-4.8s-19.9,17.92-30.77,8-28.67,4.94-33.62,13.84,18.79,2,24.72,1-5.93,11.87,9.88,10.88,33.17-1.59,22.74,6.92c-7.41,6.06-8.15,10.13-1.85,9.78,12.21-.72,15.33-1.49,22.25-7.42s6.24-10.92-.62-18.17C415.42,165.73,412.28,160.87,417.28,160.16Z"/><path class="a" d="M466.09,128.63c-4.94,12.87-15.69,25.1-5.81,30S473.63,171.28,478,184c5.3,15.58,17.81,4,28.68-2l10.88-5.92s6.91,8.88,7.91,1-5.93-12.86-19.78-23.72-23.73-16.82-21.75-19.79"/><path class="a" d="M682.19,320.88s-10.44-12.31-11.43-3.39-7.91,7.91-19.78,0-19.78-10.88-32.63,19.76-11.86,35.61-10.87,58.33-14.83,12.87-3,39.56,21.74,29.66,34.6,25.7,28.68-20.75,23.73,11.87-6.93,28.67-9.89,48.46-19.78,50.42-40.54,69.2S568.91,623,567.93,632.88s-2,20.77,1,23.73"/><path class="a" d="M697.45,413.88c0,161.37-130.8,292.18-292.17,292.18S113.12,575.25,113.12,413.88,243.93,121.72,405.28,121.72,697.45,252.52,697.45,413.88Z"/><path class="b" d="M468.82,275.59s1-.41,2.8-1.06"/><path class="c" d="M477.45,272.67c19.2-5.58,67.31-14.48,112.33,18,56.33,40.68,68,106.29,70.33,126.38"/><path class="b" d="M660.43,420.14c.18,1.93.22,3,.22,3"/><path class="b" d="M213.71,390s.93-.51,2.71-1.29"/><path class="d" d="M222,386.54c21.25-7.12,81.28-17.27,157,55.24,61.11,58.51,57.52,144.39,55.27,167.59"/><path class="b" d="M434,612.35c-.23,1.94-.39,3-.39,3"/><path class="e" d="M283,527.12S301.34,466.8,395.73,405c73.79-48.3,158.3-22,158.3-22"/><path class="e" d="M216.63,186.85s-37.63-3.75-57.5,30.53C129,269.42,172,330.61,172,330.61l.48.77S206.91,209.45,316.57,189c84.23-15.7,129.32,33.21,129.32,33.21s5.81-49.7,41-38.1"/><path class="e" d="M633.21,227.18s73.89,16.93,93.73,117.47c18.74,95-61.23,168.7-61.23,168.7"/><path class="e" d="M331.94,591.17s3.13,83.17-51.92,88.4c-39.79,3.78-57.13-31.6-57.13-31.6"/><circle class="f" cx="171.33" cy="330.11" r="4.04"/><circle class="f" cx="214.79" cy="390.1" r="4.04"/><circle class="f" cx="282.35" cy="528.57" r="4.04"/><circle class="f" cx="331.65" cy="590.05" r="4.04"/><circle class="f" cx="433" cy="618.05" r="4.04"/><circle class="f" cx="552.98" cy="382.8" r="4.04"/><circle class="f" cx="660.41" cy="426.32" r="4.04"/><circle class="f" cx="666.2" cy="512.14" r="4.04"/><circle class="f" cx="466.42" cy="277.22" r="4.04"/><circle class="f" cx="488.9" cy="184.86" r="4.04"/><circle class="f" cx="446.59" cy="224.43" r="4.04"/></svg>