<?xml version="1.0" encoding="utf-8"?>
<!-- Generator: Adobe Illustrator 23.0.3, SVG Export Plug-In . SVG Version: 6.00 Build 0)  -->
<svg version="1.1" id="Layer_1" xmlns="http://www.w3.org/2000/svg" xmlns:xlink="http://www.w3.org/1999/xlink" x="0px" y="0px"
	 viewBox="0 0 130 130" style="enable-background:new 0 0 130 130;" xml:space="preserve">
<style type="text/css">
	.st0{fill:#FFE161;}
	.st1{fill:none;stroke:#17BAD6;stroke-width:1.5;stroke-linecap:round;stroke-linejoin:round;}
	.st2{fill:#17BAD6;}
</style>
<title>globe5</title>
<path class="st0" d="M55.2,91.8l-0.5-1l0,0l0.1,1v4.5H54v-7h0.4l3.3,4.6l0.5,1l0,0l-0.1-1v-4.5h0.8v7h-0.4L55.2,91.8z"/>
<path class="st0" d="M62.9,92.9h2.3v3C65.1,96,65,96,64.9,96.1c-0.2,0.1-0.3,0.1-0.5,0.2c-0.2,0-0.3,0.1-0.5,0.1c-0.2,0-0.4,0-0.5,0
	c-0.4,0-0.8-0.1-1.2-0.2c-0.4-0.1-0.7-0.4-1-0.7c-0.3-0.3-0.5-0.7-0.6-1.1c-0.2-0.5-0.2-1.1-0.2-1.6c0-0.6,0.1-1.1,0.3-1.6
	c0.2-0.4,0.4-0.8,0.7-1.1c0.3-0.3,0.6-0.5,1-0.6c0.4-0.1,0.7-0.2,1.1-0.2c0.3,0,0.7,0,1,0.1c0.2,0,0.4,0.1,0.7,0.2l-0.2,0.7
	C64.4,90,63.9,90,63.5,90c-0.3,0-0.6,0.1-0.8,0.2c-0.3,0.1-0.5,0.3-0.7,0.5c-0.2,0.3-0.4,0.6-0.5,0.9c-0.2,0.4-0.2,0.9-0.2,1.3
	c0,0.4,0.1,0.9,0.2,1.3c0.1,0.3,0.3,0.6,0.5,0.9c0.2,0.2,0.4,0.4,0.7,0.5c0.3,0.1,0.6,0.2,0.9,0.2c0.4,0,0.7-0.1,1.1-0.2v-1.9
	l-1.6-0.2V92.9z"/>
<path class="st0" d="M66.3,92.9c-0.1-0.9,0.2-1.9,0.7-2.7c0.5-0.6,1.3-1,2.1-0.9c0.4,0,0.9,0.1,1.3,0.3c0.4,0.2,0.7,0.4,0.9,0.7
	c0.2,0.3,0.4,0.7,0.5,1.1c0.1,0.5,0.2,1,0.2,1.5c0.1,0.9-0.2,1.9-0.7,2.7c-0.5,0.6-1.3,1-2.1,0.9c-0.4,0-0.9-0.1-1.2-0.3
	c-0.4-0.2-0.7-0.4-0.9-0.7c-0.2-0.3-0.4-0.7-0.5-1.1C66.4,93.8,66.3,93.4,66.3,92.9z M67.2,92.9c0,0.4,0,0.8,0.1,1.1
	c0.1,0.3,0.2,0.6,0.4,0.9c0.1,0.3,0.4,0.5,0.6,0.6c0.3,0.2,0.6,0.2,0.9,0.2c0.6,0,1.1-0.2,1.4-0.7c0.4-0.6,0.6-1.4,0.5-2.2
	c0-0.4,0-0.8-0.1-1.1c-0.1-0.3-0.2-0.6-0.4-0.9c-0.1-0.3-0.4-0.5-0.6-0.6c-0.3-0.2-0.6-0.2-0.9-0.2c-0.6,0-1.1,0.2-1.4,0.7
	C67.3,91.4,67.2,92.1,67.2,92.9z"/>
<path class="st0" d="M75.5,95c0-0.2-0.1-0.3-0.2-0.5c-0.1-0.1-0.3-0.2-0.4-0.3c-0.2-0.1-0.4-0.2-0.6-0.2c-0.2-0.1-0.4-0.2-0.6-0.3
	c-0.2-0.1-0.3-0.2-0.4-0.4c-0.1-0.2-0.2-0.4-0.2-0.7c0-0.4,0.1-0.7,0.4-1c0.3-0.2,0.7-0.4,1.1-0.3c0.3,0,0.6,0,0.9,0.1
	c0.2,0.1,0.4,0.1,0.6,0.2L76,92.3c-0.2-0.1-0.4-0.2-0.6-0.2C75.2,92,75,92,74.7,92c-0.2,0-0.4,0-0.6,0.2c-0.1,0.1-0.2,0.3-0.2,0.5
	c0,0.2,0.1,0.3,0.2,0.4c0.1,0.1,0.3,0.2,0.4,0.3c0.2,0.1,0.4,0.2,0.6,0.2c0.2,0.1,0.4,0.2,0.6,0.3c0.2,0.1,0.3,0.3,0.4,0.4
	c0.1,0.2,0.2,0.5,0.2,0.7c0,0.2,0,0.4-0.1,0.6c-0.1,0.2-0.2,0.3-0.3,0.5c-0.2,0.1-0.3,0.2-0.5,0.3c-0.2,0.1-0.5,0.1-0.8,0.1
	c-0.3,0-0.7,0-1-0.1c-0.2-0.1-0.5-0.1-0.7-0.3l0.2-0.7c0.2,0.1,0.4,0.2,0.6,0.2c0.2,0.1,0.5,0.1,0.7,0.1c0.2,0,0.5-0.1,0.7-0.2
	C75.4,95.5,75.5,95.3,75.5,95z"/>
<path class="st1" d="M46.8,68.3c0,0,9-0.7,13.9,0.1c2.7,0.5,5.5,0.8,8.3,0.8c3.2,0,3.7,3.8-0.2,4c-2.7,0.2-5,0.2-5.5,0.2
	c2.4,0.3,4.8,0.5,7.1,0.5c1.7,0,3.4-0.4,5-1.1c1.5-0.8,3-1.8,4.4-2.9c0.8-0.5,2-1.1,2.8-0.2s0.5,2.2-0.6,3.3
	c-1.4,1.4-2.9,2.6-4.6,3.7c-2,1.3-4.2,2.2-6.4,2.7c-3.8,0.8-9.3-0.5-14.3-1.4c-3.2-0.6-6.5-0.7-9.8-0.5v-4.5"/>
<path class="st1" d="M77.1,34.7c2,0.1,4,0.1,5.9,0V44c0,0-9,0.7-13.9-0.2c-2.7-0.5-5.5-0.8-8.3-0.8c-3.2,0-3.7-3.8,0.2-4
	c2.7-0.2,5-0.2,5.6-0.2c-2.4-0.3-4.8-0.5-7.1-0.5c-1.7,0-3.4,0.4-5,1.2c-1.6,0.8-3,1.8-4.4,2.9c-0.8,0.5-2,1.2-2.8,0.2
	s-0.5-2.2,0.6-3.3c1.4-1.4,2.9-2.6,4.6-3.7c2-1.3,4.2-2.2,6.5-2.7c3.4-0.7,8.2,0.2,12.8,1.1"/>
<path class="st2" d="M64.9,49.9c3.1,0,5.5,2.5,5.5,5.5c0,3.1-2.5,5.5-5.5,5.5c-3.1,0-5.5-2.5-5.5-5.5c0,0,0,0,0,0
	C59.4,52.4,61.8,49.9,64.9,49.9C64.9,49.9,64.9,49.9,64.9,49.9 M64.9,48.2c-4,0-7.2,3.2-7.2,7.2s3.2,7.2,7.2,7.2
	c4,0,7.2-3.2,7.2-7.2c0,0,0,0,0,0C72.1,51.5,68.9,48.2,64.9,48.2z"/>
</svg>
