<?xml version="1.0" encoding="utf-8"?>
<!-- Generator: Adobe Illustrator 23.0.3, SVG Export Plug-In . SVG Version: 6.00 Build 0)  -->
<svg version="1.1" id="Layer_1" xmlns="http://www.w3.org/2000/svg" xmlns:xlink="http://www.w3.org/1999/xlink" x="0px" y="0px"
	 viewBox="0 0 130 130" style="enable-background:new 0 0 130 130;" xml:space="preserve">
<style type="text/css">
	.st0{fill:#FFFFFF;}
	.st1{fill:none;stroke:#1EB9D5;stroke-width:1.5;stroke-linecap:round;stroke-linejoin:round;}
	.st2{fill:none;stroke:#1EB9D5;stroke-width:1.5;}
	.st3{fill:none;stroke:#FFE161;stroke-width:1.5;stroke-miterlimit:10;}
</style>
<g>
	<path class="st0" d="M47.5,82.9c-0.3-0.3-0.8-0.7-1.3-0.9c-0.5-0.2-1.1-0.4-1.7-0.4c-2.3,0-4,1.9-4,4.2c0,2.7,2.2,4.1,4,4.1
		c0.7,0,1.3-0.2,1.9-0.5c0.6-0.3,1-0.7,1.2-0.8v1.4c-1.1,0.8-2.3,1-3,1c-3,0-5.2-2.2-5.2-5.1c0-3,2.2-5.2,5.2-5.2c0.6,0,1.8,0.1,3,1
		V82.9z"/>
	<path class="st0" d="M49.2,84.4h1.1v0.7c0.1-0.2,0.6-0.8,1.4-0.8c0.3,0,0.7,0.1,1,0.3l-0.5,1c-0.2-0.2-0.5-0.2-0.6-0.2
		c-0.4,0-0.7,0.2-0.9,0.4c-0.2,0.2-0.4,0.7-0.4,1.7v3.3h-1.1V84.4z"/>
	<path class="st0" d="M56.1,90.1l-2.9-5.6h1.2l2.2,4.5l2-4.5h1.2l-4.6,9.7h-1.2L56.1,90.1z"/>
	<path class="st0" d="M62.1,94.1H61v-9.7h1.1v0.9c0.7-0.9,1.7-1,2.1-1c1.9,0,3,1.6,3,3.3c0,1.7-1.1,3.3-3,3.3c-1,0-1.7-0.5-2.2-1.1
		V94.1z M66.2,87.6c0-1.5-1-2.3-2-2.3s-2.1,0.8-2.1,2.3c0,1.3,0.8,2.3,2.1,2.3C65.4,89.9,66.2,88.8,66.2,87.6z"/>
	<path class="st0" d="M70,85.4v5.2H69v-5.2h-0.7v-1H69v-2.2H70v2.2h1.1v1H70z"/>
	<path class="st0" d="M71.8,87.6c0-1.9,1.4-3.3,3.3-3.3c1.9,0,3.3,1.4,3.3,3.3c0,1.9-1.4,3.3-3.3,3.3C73.2,90.8,71.8,89.5,71.8,87.6
		z M72.9,87.6c0,1.5,1.1,2.3,2.2,2.3c1.1,0,2.2-0.8,2.2-2.3c0-1.5-1-2.3-2.2-2.3C73.9,85.2,72.9,86,72.9,87.6z"/>
	<path class="st0" d="M90.2,79.3l0.9,0.5l-7.7,13.9l-0.9-0.4L90.2,79.3z"/>
	<path class="st0" d="M36.4,98.6c0.6,0,1.6,0,2.3,0.6c0.3,0.2,0.9,0.9,0.9,2.1c0,0.5-0.1,1.4-1,2c1.4,0.3,1.9,1.6,1.9,2.5
		s-0.5,1.7-1,2.2c-0.8,0.6-1.7,0.7-2.4,0.7h-2.5v-10H36.4z M35.7,103h0.8c0.6,0,2-0.1,2-1.7c0-1.7-1.6-1.7-1.9-1.7h-0.9V103z
		 M35.7,107.6h1.3c0.6,0,1.3,0,1.8-0.4c0.4-0.3,0.7-0.8,0.7-1.4c0-0.8-0.5-1.3-0.9-1.5c-0.4-0.2-0.9-0.3-1.7-0.3h-1.1V107.6z"/>
	<path class="st0" d="M43.3,97.7v10.9h-1.1V97.7H43.3z"/>
	<path class="st0" d="M45,105.6c0-1.9,1.4-3.3,3.3-3.3c1.9,0,3.3,1.4,3.3,3.3c0,1.9-1.4,3.3-3.3,3.3C46.4,108.8,45,107.5,45,105.6z
		 M46.1,105.6c0,1.5,1.1,2.3,2.2,2.3c1.1,0,2.2-0.8,2.2-2.3c0-1.5-1-2.3-2.2-2.3C47.1,103.2,46.1,104,46.1,105.6z"/>
	<path class="st0" d="M58.1,104.2c-0.6-0.7-1.4-0.9-1.9-0.9c-1.2,0-2.2,0.8-2.2,2.3c0,1.5,1.1,2.3,2.2,2.3c0.6,0,1.4-0.3,2-1v1.3
		c-0.7,0.5-1.4,0.6-2,0.6c-1.9,0-3.3-1.4-3.3-3.3c0-1.9,1.4-3.3,3.3-3.3c1,0,1.6,0.4,1.9,0.6V104.2z"/>
	<path class="st0" d="M60.9,97.7v7l2.3-2.3h1.4l-2.7,2.7l3.1,3.6h-1.4l-2.5-2.8l-0.3,0.3v2.6h-1.1V97.7H60.9z"/>
	<path class="st0" d="M70.8,104.2c-0.6-0.7-1.4-0.9-2-0.9c-1.2,0-2.2,0.8-2.2,2.3c0,1.5,1.1,2.3,2.2,2.3c0.6,0,1.4-0.3,2-1v1.3
		c-0.7,0.5-1.4,0.6-2,0.6c-1.9,0-3.3-1.4-3.3-3.3c0-1.9,1.4-3.3,3.3-3.3c1,0,1.6,0.4,1.9,0.6V104.2z"/>
	<path class="st0" d="M72.5,97.7h1.1v5.4c0.2-0.3,0.8-0.9,1.8-0.9c0.7,0,1.4,0.3,1.8,0.9c0.3,0.5,0.4,1,0.4,1.7v3.9h-1.1v-3.8
		c0-0.4,0-0.8-0.3-1.1c-0.2-0.3-0.5-0.4-1-0.4c-0.4,0-0.8,0.1-1.1,0.5c-0.4,0.5-0.4,1.2-0.4,1.7v3.3h-1.1V97.7z"/>
	<path class="st0" d="M84.4,102.4h1.1v6.2h-1.1v-0.9c-0.4,0.5-1,1.1-2.1,1.1c-1.6,0-3-1.1-3-3.3c0-2.1,1.4-3.3,3-3.3
		c1.2,0,1.8,0.7,2.1,1V102.4z M80.3,105.5c0,1.3,0.8,2.3,2,2.3c1.3,0,2.1-1.1,2.1-2.3c0-1.6-1.1-2.3-2.1-2.3
		C81.3,103.2,80.3,104,80.3,105.5z"/>
	<path class="st0" d="M88,99.3c0.4,0,0.8,0.3,0.8,0.8s-0.3,0.8-0.8,0.8s-0.8-0.3-0.8-0.8S87.6,99.3,88,99.3z M88.6,102.4v6.2h-1.1
		v-6.2H88.6z"/>
	<path class="st0" d="M90.6,102.4h1.1v0.7c0.2-0.3,0.8-0.9,1.8-0.9c0.7,0,1.4,0.3,1.8,0.9c0.3,0.5,0.4,1,0.4,1.7v3.9h-1.1v-3.8
		c0-0.4,0-0.8-0.3-1.1c-0.2-0.3-0.5-0.4-1-0.4c-0.4,0-0.8,0.1-1.1,0.5c-0.4,0.5-0.5,1.2-0.5,1.7v3.3h-1.1V102.4z"/>
</g>
<title>globe7</title>
<polygon class="st1" points="34.3,39.1 42.9,43.9 51.3,39.1 42.9,34.7 "/>
<line class="st2" x1="51.3" y1="49.7" x2="51.3" y2="39.1"/>
<polyline class="st2" points="34.3,39.1 34.3,48.8 42.8,53.8 46.5,51.8 "/>
<line class="st2" x1="42.9" y1="43.9" x2="42.9" y2="53.1"/>
<polygon class="st1" points="78.6,39.1 87.2,43.9 95.7,39.1 87.2,34.7 "/>
<line class="st2" x1="95.6" y1="42.8" x2="95.7" y2="39.1"/>
<polyline class="st2" points="78.6,39.1 78.6,48.8 87.2,53.8 95.5,49.3 95.6,46.8 "/>
<line class="st2" x1="87.2" y1="43.9" x2="87.2" y2="53.1"/>
<line class="st3" x1="47.5" y1="46.9" x2="59.8" y2="54.6"/>
<line class="st3" x1="69.2" y1="54.4" x2="82.4" y2="47.4"/>
<polygon class="st1" points="56,56.5 64.6,61.4 73.1,56.5 64.6,52.2 "/>
<polyline class="st2" points="68,69.4 72.9,66.8 73.1,56.5 "/>
<polyline class="st2" points="56,56.5 56,66.3 61.6,69.5 "/>
<line class="st2" x1="64.6" y1="61.4" x2="64.6" y2="66.5"/>
</svg>
