<?xml version="1.0" encoding="utf-8"?>
<!-- Generator: Adobe Illustrator 23.0.3, SVG Export Plug-In . SVG Version: 6.00 Build 0)  -->
<svg version="1.1" id="Layer_1" xmlns="http://www.w3.org/2000/svg" xmlns:xlink="http://www.w3.org/1999/xlink" x="0px" y="0px"
	 viewBox="0 0 130 130" style="enable-background:new 0 0 130 130;" xml:space="preserve">
<style type="text/css">
	.st0{fill:#FFFFFF;}
	.st1{fill:none;stroke:#1EB9D5;stroke-width:1.5;}
	.st2{fill:#FFE161;}
</style>
<g>
	<path class="st0" d="M14.1,83.6l2.6,7.5l3.1-8l3,8l2.9-7.5H27l-4.2,10.5l-2.9-8l-3.1,8l-3.8-10.5H14.1z"/>
	<path class="st0" d="M33.1,92.1c-0.2,0.3-0.4,0.7-0.8,1c-0.6,0.5-1.3,0.8-2.1,0.8c-1.5,0-3.1-0.9-3.1-3.3c0-1.9,1.1-3.3,3-3.3
		c1.2,0,2,0.6,2.4,1.1c0.4,0.6,0.6,1.5,0.6,2.3h-4.8c0,1.3,0.9,2.1,2,2.1c0.5,0,0.9-0.2,1.3-0.5c0.3-0.2,0.5-0.6,0.6-0.9L33.1,92.1z
		 M32,89.9c-0.2-1-0.9-1.6-1.8-1.6c-0.9,0-1.7,0.7-1.8,1.6H32z"/>
	<path class="st0" d="M35.8,93.7h-1.1V82.7h1.1v5.6c0.7-0.9,1.7-1,2.1-1c1.9,0,3,1.6,3,3.3c0,1.7-1.1,3.3-3,3.3
		c-1,0-1.7-0.5-2.2-1.1V93.7z M39.9,90.6c0-1.5-1-2.3-2-2.3s-2.1,0.8-2.1,2.3c0,1.3,0.8,2.3,2.1,2.3C39.1,92.9,39.9,91.8,39.9,90.6z
		"/>
	<path class="st0" d="M52.8,82.3l0.9,0.5L46,96.6l-0.9-0.4L52.8,82.3z"/>
	<path class="st0" d="M58.8,83.6h2c1,0,2.4,0.1,3.7,1.2c0.9,0.8,1.7,2,1.7,3.8c0,2.1-1,3.2-1.8,3.8c-0.9,0.8-1.9,1.2-3.7,1.2h-2
		V83.6z M59.9,92.6h1c0.8,0,1.9-0.1,2.9-0.9c0.8-0.6,1.4-1.6,1.4-3c0-2.4-1.7-4-4.2-4h-1V92.6z"/>
	<path class="st0" d="M73.5,92.1c-0.2,0.3-0.4,0.7-0.8,1c-0.6,0.5-1.3,0.8-2.1,0.8c-1.5,0-3.1-0.9-3.1-3.3c0-1.9,1.1-3.3,3-3.3
		c1.2,0,2,0.6,2.4,1.1c0.4,0.6,0.6,1.5,0.6,2.3h-4.8c0,1.3,0.9,2.1,2,2.1c0.5,0,0.9-0.2,1.3-0.5c0.3-0.2,0.5-0.6,0.6-0.9L73.5,92.1z
		 M72.4,89.9c-0.2-1-0.9-1.6-1.8-1.6s-1.7,0.7-1.8,1.6H72.4z"/>
	<path class="st0" d="M77.8,88.9c-0.2-0.4-0.5-0.6-0.9-0.6c-0.4,0-0.8,0.2-0.8,0.7c0,0.5,0.3,0.6,1,0.9c0.9,0.4,1.3,0.7,1.6,1
		c0.3,0.3,0.3,0.7,0.3,1c0,1.3-0.9,2-2.1,2c-0.3,0-1.7,0-2.2-1.6l0.9-0.4c0.1,0.3,0.5,1,1.3,1c0.7,0,1-0.5,1-1c0-0.6-0.4-0.8-1-1
		c-0.8-0.3-1.2-0.6-1.5-0.9c-0.2-0.3-0.3-0.6-0.3-0.9c0-1.1,0.8-1.7,1.8-1.7c0.3,0,1.2,0.1,1.7,1.1L77.8,88.9z"/>
	<path class="st0" d="M81.6,82.7v7l2.3-2.3h1.4l-2.7,2.7l3.1,3.6h-1.4l-2.5-2.8l-0.3,0.3v2.6h-1.1V82.7H81.6z"/>
	<path class="st0" d="M87.9,88.4v5.2h-1.1v-5.2h-0.7v-1h0.7v-2.2h1.1v2.2H89v1H87.9z"/>
	<path class="st0" d="M89.6,90.6c0-1.9,1.4-3.3,3.3-3.3c1.9,0,3.3,1.4,3.3,3.3c0,1.9-1.4,3.3-3.3,3.3C91,93.8,89.6,92.5,89.6,90.6z
		 M90.7,90.6c0,1.5,1.1,2.3,2.2,2.3c1.1,0,2.2-0.8,2.2-2.3c0-1.5-1-2.3-2.2-2.3C91.8,88.2,90.7,89,90.7,90.6z"/>
	<path class="st0" d="M99,97.1h-1.1v-9.7H99v0.9c0.7-0.9,1.7-1,2.1-1c2,0,3,1.6,3,3.3c0,1.7-1.1,3.3-3,3.3c-1,0-1.7-0.5-2.2-1.1
		V97.1z M103,90.6c0-1.5-1-2.3-2-2.3s-2.1,0.8-2.1,2.3c0,1.3,0.8,2.3,2.1,2.3C102.3,92.9,103,91.8,103,90.6z"/>
	<path class="st0" d="M116,82.3l0.9,0.5l-7.7,13.9l-0.9-0.4L116,82.3z"/>
	<path class="st0" d="M27.9,111.7l1.7-10.6l3.8,8.4l3.9-8.5l1.6,10.6h-1.1l-0.9-7l-3.4,7.4l-3.4-7.4l-1,7H27.9z"/>
	<path class="st0" d="M40.5,108.6c0-1.9,1.4-3.3,3.3-3.3c1.9,0,3.3,1.4,3.3,3.3c0,1.9-1.4,3.3-3.3,3.3
		C41.9,111.8,40.5,110.5,40.5,108.6z M41.6,108.6c0,1.5,1.1,2.3,2.2,2.3c1.1,0,2.2-0.8,2.2-2.3c0-1.5-1-2.3-2.2-2.3
		C42.7,106.2,41.6,107,41.6,108.6z"/>
	<path class="st0" d="M49.8,111.7h-1.1v-10.9h1.1v5.6c0.7-0.9,1.7-1,2.1-1c1.9,0,3,1.6,3,3.3c0,1.7-1.1,3.3-3,3.3
		c-1,0-1.7-0.5-2.2-1.1V111.7z M53.9,108.6c0-1.5-1-2.3-2-2.3s-2.1,0.8-2.1,2.3c0,1.3,0.8,2.3,2.1,2.3
		C53.1,110.9,53.9,109.8,53.9,108.6z"/>
	<path class="st0" d="M57.2,102.3c0.4,0,0.8,0.3,0.8,0.8s-0.3,0.8-0.8,0.8s-0.8-0.3-0.8-0.8S56.8,102.3,57.2,102.3z M57.7,105.4v6.2
		h-1.1v-6.2H57.7z"/>
	<path class="st0" d="M60.8,100.7v10.9h-1.1v-10.9H60.8z"/>
	<path class="st0" d="M68.4,110.1c-0.2,0.3-0.4,0.7-0.8,1c-0.6,0.5-1.3,0.8-2.1,0.8c-1.5,0-3.1-0.9-3.1-3.3c0-1.9,1.1-3.3,3-3.3
		c1.2,0,2,0.6,2.4,1.1c0.4,0.6,0.6,1.5,0.6,2.3h-4.8c0,1.3,0.9,2.1,2,2.1c0.5,0,0.9-0.2,1.3-0.5c0.3-0.2,0.5-0.6,0.6-0.9L68.4,110.1
		z M67.3,107.9c-0.2-1-0.9-1.6-1.8-1.6s-1.7,0.7-1.8,1.6H67.3z"/>
	<path class="st0" d="M79.4,108.8h-4.3l-1.2,2.8h-1.2l4.6-10.5l4.5,10.5h-1.2L79.4,108.8z M78.9,107.8l-1.7-4l-1.7,4H78.9z"/>
	<path class="st0" d="M84,115.1h-1.1v-9.7H84v0.9c0.7-0.9,1.7-1,2.1-1c1.9,0,3,1.6,3,3.3c0,1.7-1.1,3.3-3,3.3c-1,0-1.7-0.5-2.2-1.1
		V115.1z M88.1,108.6c0-1.5-1-2.3-2-2.3s-2.1,0.8-2.1,2.3c0,1.3,0.8,2.3,2.1,2.3C87.3,110.9,88.1,109.8,88.1,108.6z"/>
	<path class="st0" d="M91.9,115.1h-1.1v-9.7h1.1v0.9c0.7-0.9,1.7-1,2.1-1c2,0,3,1.6,3,3.3c0,1.7-1.1,3.3-3,3.3c-1,0-1.7-0.5-2.2-1.1
		V115.1z M95.9,108.6c0-1.5-1-2.3-2-2.3s-2.1,0.8-2.1,2.3c0,1.3,0.8,2.3,2.1,2.3C95.2,110.9,95.9,109.8,95.9,108.6z"/>
	<path class="st0" d="M101.3,106.9c-0.2-0.4-0.5-0.6-0.9-0.6c-0.4,0-0.8,0.2-0.8,0.7c0,0.5,0.3,0.6,1,0.9c0.9,0.4,1.3,0.7,1.6,1
		c0.3,0.3,0.3,0.7,0.3,1c0,1.3-0.9,2-2.1,2c-0.3,0-1.7,0-2.2-1.6l0.9-0.4c0.1,0.3,0.5,1,1.3,1c0.7,0,1-0.5,1-1c0-0.6-0.4-0.8-1-1
		c-0.8-0.3-1.2-0.6-1.5-0.9c-0.2-0.3-0.3-0.6-0.3-0.9c0-1.1,0.8-1.7,1.8-1.7c0.3,0,1.2,0.1,1.7,1.1L101.3,106.9z"/>
</g>
<title>globe2</title>
<line class="st1" x1="94.1" y1="49.2" x2="99.2" y2="49.2"/>
<line class="st1" x1="66.5" y1="49.2" x2="86.5" y2="49.2"/>
<line class="st1" x1="32.7" y1="41.5" x2="67.8" y2="41.5"/>
<path class="st1" d="M74.1,38.6H91c4.6,0,8.3,3.7,8.3,8.3v16.9c0,4.6-3.7,8.3-8.3,8.3H74.1c-4.6,0-8.3-3.7-8.3-8.3V47
	C65.8,42.4,69.5,38.6,74.1,38.6z"/>
<polyline class="st1" points="80.2,31 86.6,31 86.6,38.3 "/>
<polyline class="st1" points="65.4,63.6 32.4,63.6 32.4,31 73.1,31 "/>
<circle class="st2" cx="36.6" cy="36.3" r="1.2"/>
<circle class="st2" cx="41.3" cy="36.3" r="1.2"/>
<circle class="st2" cx="45.9" cy="36.3" r="1.2"/>
</svg>
