<?xml version="1.0" encoding="utf-8"?>
<!-- Generator: Adobe Illustrator 23.0.3, SVG Export Plug-In . SVG Version: 6.00 Build 0)  -->
<svg version="1.1" id="Layer_1" xmlns="http://www.w3.org/2000/svg" xmlns:xlink="http://www.w3.org/1999/xlink" x="0px" y="0px"
	 viewBox="0 0 130 130" style="enable-background:new 0 0 130 130;" xml:space="preserve">
<style type="text/css">
	.st0{fill:#FFFFFF;}
	.st1{fill:none;stroke:#1EB9D5;stroke-width:1.5;}
	.st2{fill:#FFE161;}
	.st3{fill:#1EB9D5;}
</style>
<g>
	<path class="st0" d="M26.5,86.6c1,0,1.8,0.1,2.5,0.7c0.7,0.6,0.9,1.5,0.9,2.1c0,1.4-0.9,2.8-3.2,2.8h-1v4.3h-1.1v-10H26.5z
		 M25.8,91.3h0.9c1.3,0,2.1-0.7,2.1-1.8c0-1.6-1.5-1.7-2.2-1.7h-0.8V91.3z"/>
	<path class="st0" d="M31,91.7c0-3,2.3-5.2,5.2-5.2s5.2,2.2,5.2,5.2c0,3-2.3,5.2-5.2,5.2C33.3,96.8,31,94.6,31,91.7z M32.1,91.7
		c0,2.3,1.8,4.1,4.1,4.1c2.2,0,4.1-1.8,4.1-4.1s-1.8-4.1-4.1-4.1C33.9,87.5,32.1,89.4,32.1,91.7z"/>
	<path class="st0" d="M47.9,88.6c-0.1-0.3-0.4-0.6-0.6-0.8c-0.2-0.2-0.6-0.3-1.1-0.3c-1,0-1.7,0.6-1.7,1.5c0,0.4,0.1,0.6,0.4,0.9
		c0.3,0.3,0.7,0.5,1,0.6l1,0.4c0.6,0.3,1.1,0.5,1.5,0.9c0.5,0.5,0.7,1.1,0.7,1.8c0,1.8-1.4,3.1-3.2,3.1c-0.7,0-1.5-0.1-2.2-0.8
		c-0.5-0.5-0.8-1.2-0.9-1.8L44,94c0.1,0.5,0.3,1,0.6,1.3c0.4,0.4,0.9,0.6,1.4,0.6c1.4,0,2-1,2-2c0-0.5-0.1-0.8-0.5-1.2
		c-0.3-0.3-0.7-0.5-1.2-0.7l-0.9-0.4c-0.4-0.2-0.9-0.4-1.3-0.8c-0.4-0.4-0.7-0.9-0.7-1.6c0-1.5,1.2-2.6,2.8-2.6
		c0.6,0,1.1,0.1,1.6,0.4c0.4,0.3,0.8,0.7,1,1.1L47.9,88.6z"/>
	<path class="st0" d="M54.3,96.7L56,86.1l3.8,8.4l3.9-8.5l1.6,10.6h-1.1l-0.9-7l-3.4,7.4l-3.4-7.4l-1,7H54.3z"/>
	<path class="st0" d="M72.1,90.4h1.1v6.2h-1.1v-0.9c-0.4,0.5-1,1.1-2.1,1.1c-1.6,0-3-1.1-3-3.3c0-2.1,1.4-3.3,3-3.3
		c1.2,0,1.8,0.7,2.1,1V90.4z M68.1,93.5c0,1.3,0.8,2.3,2,2.3c1.3,0,2.1-1.1,2.1-2.3c0-1.6-1.1-2.3-2.1-2.3
		C69.1,91.2,68.1,92,68.1,93.5z"/>
	<path class="st0" d="M80.1,92.2c-0.6-0.7-1.4-0.9-2-0.9C77,91.2,76,92,76,93.6c0,1.5,1.1,2.3,2.2,2.3c0.6,0,1.4-0.3,2-1v1.3
		c-0.7,0.5-1.4,0.6-2,0.6c-1.9,0-3.3-1.4-3.3-3.3c0-1.9,1.4-3.3,3.3-3.3c1,0,1.6,0.4,1.9,0.6V92.2z"/>
	<path class="st0" d="M81.8,85.7h1.1v5.4c0.2-0.3,0.8-0.9,1.8-0.9c0.7,0,1.4,0.3,1.8,0.9c0.3,0.5,0.4,1,0.4,1.7v3.9h-1.1v-3.8
		c0-0.4,0-0.8-0.3-1.1c-0.2-0.3-0.5-0.4-1-0.4c-0.4,0-0.8,0.1-1.1,0.5c-0.4,0.5-0.4,1.2-0.4,1.7v3.3h-1.1V85.7z"/>
	<path class="st0" d="M89.4,87.3c0.4,0,0.8,0.3,0.8,0.8s-0.3,0.8-0.8,0.8s-0.8-0.3-0.8-0.8S89,87.3,89.4,87.3z M90,90.4v6.2h-1.1
		v-6.2H90z"/>
	<path class="st0" d="M92,90.4h1.1v0.7c0.2-0.3,0.8-0.9,1.8-0.9c0.7,0,1.4,0.3,1.8,0.9c0.3,0.5,0.4,1,0.4,1.7v3.9h-1.1v-3.8
		c0-0.4,0-0.8-0.3-1.1c-0.2-0.3-0.5-0.4-1-0.4c-0.4,0-0.8,0.1-1.1,0.5c-0.4,0.5-0.5,1.2-0.5,1.7v3.3H92V90.4z"/>
	<path class="st0" d="M104.6,95.1c-0.2,0.3-0.4,0.7-0.8,1c-0.6,0.5-1.3,0.8-2.1,0.8c-1.5,0-3.1-0.9-3.1-3.3c0-1.9,1.1-3.3,3-3.3
		c1.2,0,2,0.6,2.4,1.1c0.4,0.6,0.6,1.5,0.6,2.3h-4.8c0,1.3,0.9,2.1,2,2.1c0.5,0,0.9-0.2,1.3-0.5c0.3-0.2,0.5-0.6,0.6-0.9L104.6,95.1
		z M103.5,92.9c-0.2-1-0.9-1.6-1.8-1.6s-1.7,0.7-1.8,1.6H103.5z"/>
	<path class="st0" d="M108.8,91.9c-0.2-0.4-0.5-0.6-0.9-0.6c-0.4,0-0.8,0.2-0.8,0.7c0,0.5,0.3,0.6,1,0.9c0.9,0.4,1.3,0.7,1.6,1
		c0.3,0.3,0.3,0.7,0.3,1c0,1.3-0.9,2-2.1,2c-0.3,0-1.7,0-2.2-1.6l0.9-0.4c0.1,0.3,0.5,1,1.3,1c0.7,0,1-0.5,1-1c0-0.6-0.4-0.8-1-1
		c-0.8-0.3-1.2-0.6-1.5-0.9c-0.2-0.3-0.3-0.6-0.3-0.9c0-1.1,0.8-1.7,1.8-1.7c0.3,0,1.2,0.1,1.7,1.1L108.8,91.9z"/>
</g>
<title>globe11</title>
<path class="st1" d="M64.4,27.6h12.8c2.3,0,4.2,1.9,4.2,4.2v28.9c0,2.3-1.9,4.2-4.2,4.2H53.9c-2.3,0-4.2-1.9-4.2-4.2v-29
	c0-2.3,1.9-4.2,4.2-4.2h3.4"/>
<path class="st1" d="M77.1,64.8v5.7c0,2.3-1.9,4.2-4.2,4.2H57.1c-2.3,0-4.1-1.9-4.1-4.2v-5.7"/>
<rect x="54.3" y="32.2" class="st1" width="22.3" height="10.2"/>
<rect x="57.1" y="46.3" class="st2" width="3.3" height="3.3"/>
<rect x="64" y="46.3" class="st2" width="3.3" height="3.3"/>
<rect x="70.5" y="46.3" class="st2" width="3.3" height="3.3"/>
<rect x="57.1" y="52.2" class="st2" width="3.3" height="3.3"/>
<rect x="64" y="52.2" class="st2" width="3.3" height="3.3"/>
<rect x="70.5" y="52.2" class="st2" width="3.3" height="3.3"/>
<rect x="57.1" y="57.8" class="st2" width="3.3" height="3.3"/>
<rect x="64" y="57.8" class="st2" width="3.3" height="3.3"/>
<rect x="70.5" y="57.8" class="st2" width="3.3" height="3.3"/>
<path class="st3" d="M56.9,65.1v9.5h5.4v-9.8C62.3,64.8,56.9,65,56.9,65.1z"/>
</svg>
