<?xml version="1.0" encoding="utf-8"?>
<!-- Generator: Adobe Illustrator 23.0.3, SVG Export Plug-In . SVG Version: 6.00 Build 0)  -->
<svg version="1.1" id="Layer_1" xmlns="http://www.w3.org/2000/svg" xmlns:xlink="http://www.w3.org/1999/xlink" x="0px" y="0px"
	 viewBox="0 0 130 130" style="enable-background:new 0 0 130 130;" xml:space="preserve">
<style type="text/css">
	.st0{fill:none;stroke:#1EB9D5;stroke-width:1.5;}
	.st1{fill:#FFFFFF;}
</style>
<title>globe3</title>
<path class="st0" d="M67.8,48.8c0,1.4-1.1,2.5-2.4,2.5c-1.4,0-2.5-1.1-2.5-2.4c0-1.4,1.1-2.5,2.4-2.5l0,0
	C66.7,46.3,67.8,47.4,67.8,48.8z"/>
<path class="st0" d="M72.1,39.9c-2.1-1.1-4.4-1.6-6.7-1.6c-2.3-0.1-4.6,0.5-6.6,1.6"/>
<path class="st0" d="M75.3,34.3c-3.1-1.5-6.6-2.3-10.1-2.2c-3.4-0.1-6.7,0.6-9.8,2.1"/>
<path class="st0" d="M58.7,39.9c2-1.1,4.3-1.6,6.6-1.6c2.3-0.1,4.7,0.5,6.7,1.6"/>
<path class="st0" d="M68.4,24.2c-1.1-0.1-2.2-0.1-3.4-0.1c-4.7-0.1-9.4,0.9-13.7,3.1"/>
<path class="st0" d="M79.3,27.4c-1.5-0.8-3.2-1.5-4.8-2"/>
<path class="st0" d="M55.4,34.2c3-1.5,6.4-2.2,9.8-2.1c3.5-0.1,7,0.7,10.1,2.2"/>
<polyline class="st0" points="57.1,79.2 65.2,53.2 72.5,79.2 "/>
<line class="st0" x1="58.5" y1="76" x2="69.3" y2="70.2"/>
<line class="st0" x1="71.5" y1="75.8" x2="60.7" y2="70.3"/>
<line class="st0" x1="61.3" y1="66.4" x2="68.8" y2="66.3"/>
<g>
	<path class="st1" d="M25.6,90.5c-0.8,0-1.4,0.3-1.9,0.8S23,92.5,23,93.4s0.2,1.7,0.7,2.2c0.4,0.5,1.1,0.8,1.9,0.8
		c0.5,0,1.1-0.1,1.7-0.3v0.7c-0.5,0.2-1.1,0.3-1.8,0.3c-1.1,0-1.9-0.3-2.4-1s-0.9-1.5-0.9-2.7c0-0.7,0.1-1.4,0.4-1.9
		c0.3-0.5,0.7-1,1.2-1.3s1.1-0.4,1.8-0.4c0.7,0,1.4,0.1,2,0.4l-0.4,0.7C26.6,90.6,26.1,90.5,25.6,90.5z"/>
	<path class="st1" d="M35,93.4c0,1.1-0.3,2-0.9,2.7c-0.6,0.7-1.4,1-2.4,1c-1.1,0-1.9-0.3-2.4-1c-0.6-0.6-0.9-1.5-0.9-2.7
		s0.3-2.1,0.9-2.7c0.6-0.6,1.4-1,2.4-1s1.8,0.3,2.4,1C34.7,91.4,35,92.3,35,93.4z M29.3,93.4c0,1,0.2,1.7,0.6,2.2
		c0.4,0.5,1,0.7,1.8,0.7s1.4-0.2,1.8-0.7c0.4-0.5,0.6-1.2,0.6-2.2s-0.2-1.7-0.6-2.2c-0.4-0.5-1-0.7-1.8-0.7s-1.4,0.2-1.8,0.7
		C29.5,91.7,29.3,92.5,29.3,93.4z"/>
	<path class="st1" d="M39.8,97l-2.4-6.3l0,0c0,0.5,0.1,1.1,0.1,1.8V97h-0.8v-7.1h1.2l2.3,5.9l0,0l2.3-5.9h1.2V97h-0.8v-4.6
		c0-0.5,0-1.1,0.1-1.7l0,0L40.4,97H39.8z"/>
	<path class="st1" d="M48.8,97l-2.4-6.3l0,0c0,0.5,0.1,1.1,0.1,1.8V97h-0.8v-7.1h1.2l2.3,5.9l0,0l2.3-5.9h1.2V97h-0.8v-4.6
		c0-0.5,0-1.1,0.1-1.7l0,0L49.5,97H48.8z"/>
	<path class="st1" d="M60.1,89.8v4.6c0,0.8-0.2,1.5-0.7,1.9s-1.2,0.7-2,0.7s-1.5-0.2-2-0.7s-0.7-1.1-0.7-1.9v-4.6h0.8v4.7
		c0,0.6,0.2,1.1,0.5,1.4s0.8,0.5,1.4,0.5c0.6,0,1.1-0.2,1.4-0.5c0.3-0.3,0.5-0.8,0.5-1.4v-4.6L60.1,89.8L60.1,89.8z"/>
	<path class="st1" d="M67.5,97h-0.9l-3.9-6l0,0c0.1,0.7,0.1,1.3,0.1,1.9V97H62v-7.1h0.9l3.9,6l0,0c0-0.1,0-0.4,0-0.8
		c0-0.5,0-0.8,0-1V90h0.7V97z"/>
	<path class="st1" d="M69.5,97v-7.1h0.8V97H69.5z"/>
	<path class="st1" d="M75.3,90.5c-0.8,0-1.4,0.3-1.9,0.8s-0.7,1.2-0.7,2.1s0.2,1.7,0.7,2.2c0.4,0.5,1.1,0.8,1.9,0.8
		c0.5,0,1.1-0.1,1.7-0.3v0.7c-0.5,0.2-1.1,0.3-1.8,0.3c-1.1,0-1.9-0.3-2.4-1c-0.6-0.6-0.9-1.5-0.9-2.7c0-0.7,0.1-1.4,0.4-1.9
		c0.3-0.6,0.7-1,1.2-1.3s1.1-0.4,1.8-0.4c0.7,0,1.4,0.1,2,0.4l-0.4,0.7C76.4,90.6,75.9,90.5,75.3,90.5z"/>
	<path class="st1" d="M83.1,97l-0.9-2.3h-2.9L78.4,97h-0.8l2.8-7.2h0.7l2.8,7.2H83.1z M81.9,94l-0.8-2.2c-0.1-0.3-0.2-0.6-0.3-1
		c-0.1,0.3-0.2,0.7-0.3,1L79.6,94H81.9z"/>
	<path class="st1" d="M87.1,97h-0.8v-6.4H84v-0.7h5.4v0.7h-2.3C87.1,90.6,87.1,97,87.1,97z"/>
	<path class="st1" d="M90.4,97v-7.1h0.8V97H90.4z"/>
	<path class="st1" d="M99.4,93.4c0,1.1-0.3,2-0.9,2.7s-1.4,1-2.4,1c-1.1,0-1.9-0.3-2.4-1c-0.6-0.6-0.9-1.5-0.9-2.7s0.3-2.1,0.9-2.7
		s1.4-1,2.4-1s1.8,0.3,2.4,1S99.4,92.3,99.4,93.4z M93.7,93.4c0,1,0.2,1.7,0.6,2.2s1,0.7,1.8,0.7s1.4-0.2,1.8-0.7s0.6-1.2,0.6-2.2
		s-0.2-1.7-0.6-2.2s-1-0.7-1.8-0.7s-1.4,0.2-1.8,0.7C93.9,91.7,93.7,92.5,93.7,93.4z"/>
	<path class="st1" d="M106.6,97h-0.9l-3.9-6l0,0c0.1,0.7,0.1,1.3,0.1,1.9V97h-0.8v-7.1h0.9l3.9,6l0,0c0-0.1,0-0.4,0-0.8
		c0-0.5,0-0.8,0-1V90h0.8L106.6,97L106.6,97z"/>
	<path class="st1" d="M58.3,110.6l-0.9-2.3h-2.9l-0.8,2.3h-0.8l2.8-7.2h0.7l2.8,7.2H58.3z M57.2,107.6l-0.8-2.2
		c-0.1-0.3-0.2-0.6-0.3-1c-0.1,0.3-0.2,0.7-0.3,1l-0.9,2.2H57.2z"/>
	<path class="st1" d="M64.7,105.5c0,0.7-0.2,1.3-0.7,1.7c-0.5,0.4-1.2,0.6-2.1,0.6h-0.8v2.8h-0.9v-7.1h1.9
		C63.8,103.4,64.7,104.1,64.7,105.5z M61,107.1h0.7c0.7,0,1.3-0.1,1.6-0.4s0.5-0.6,0.5-1.1s-0.2-0.8-0.5-1.1s-0.8-0.3-1.4-0.3H61
		C61,104.2,61,107.1,61,107.1z"/>
	<path class="st1" d="M70.7,105.5c0,0.7-0.2,1.3-0.7,1.7c-0.5,0.4-1.2,0.6-2.1,0.6h-0.8v2.8h-0.9v-7.1h1.9
		C69.8,103.4,70.7,104.1,70.7,105.5z M67,107.1h0.7c0.7,0,1.3-0.1,1.6-0.4s0.5-0.6,0.5-1.1s-0.2-0.8-0.5-1.1s-0.8-0.3-1.4-0.3H67
		C67,104.2,67,107.1,67,107.1z"/>
	<path class="st1" d="M76.3,108.7c0,0.6-0.2,1.1-0.7,1.5s-1.1,0.5-1.9,0.5s-1.5-0.1-2-0.3v-0.8c0.3,0.1,0.6,0.2,1,0.3s0.7,0.1,1,0.1
		c0.6,0,1-0.1,1.2-0.3c0.3-0.2,0.4-0.5,0.4-0.9c0-0.2,0-0.5-0.1-0.6c-0.1-0.2-0.3-0.3-0.5-0.4s-0.6-0.3-1.1-0.5
		c-0.7-0.2-1.1-0.5-1.4-0.8s-0.4-0.8-0.4-1.3s0.2-1,0.6-1.3s1-0.5,1.6-0.5c0.7,0,1.4,0.1,2,0.4l-0.3,0.7c-0.6-0.2-1.2-0.4-1.7-0.4
		c-0.4,0-0.8,0.1-1,0.3s-0.4,0.5-0.4,0.8c0,0.2,0,0.5,0.1,0.6c0.1,0.2,0.2,0.3,0.5,0.4c0.2,0.1,0.5,0.3,1,0.4
		c0.7,0.3,1.3,0.6,1.5,0.9C76.1,107.8,76.3,108.2,76.3,108.7z"/>
</g>
</svg>
