<?xml version="1.0" encoding="utf-8"?>
<!-- Generator: Adobe Illustrator 23.0.3, SVG Export Plug-In . SVG Version: 6.00 Build 0)  -->
<svg version="1.1" id="Layer_1" xmlns="http://www.w3.org/2000/svg" xmlns:xlink="http://www.w3.org/1999/xlink" x="0px" y="0px"
	 viewBox="0 0 130 130" style="enable-background:new 0 0 130 130;" xml:space="preserve">
<style type="text/css">
	.st0{fill:none;stroke:#1EB9D5;stroke-width:1.5;}
	.st1{fill:none;stroke:#1EB9D5;stroke-width:1.5;stroke-linecap:round;stroke-linejoin:round;}
	.st2{enable-background:new    ;}
	.st3{fill:#FFFFFF;}
</style>
<title>globe10</title>
<path class="st0" d="M40.9,42.4l17.7-5.6c4.8-1.5,10-1.5,14.9,0.1L90,42.4H40.9z"/>
<line class="st1" x1="46.7" y1="65" x2="46.7" y2="42.8"/>
<line class="st1" x1="84.1" y1="65" x2="84.1" y2="42.8"/>
<polyline class="st0" points="53.9,69.2 45.2,69.2 45.2,65 85.6,65 85.6,69.2 59.9,69.2 "/>
<polyline class="st0" points="77.5,53.2 77.5,47.8 52.7,47.8 52.7,64.9 77.5,64.9 77.5,58.5 "/>
<g class="st2">
	<path class="st3" d="M51.1,91.3L48.7,85h0c0,0.5,0.1,1.1,0.1,1.8v4.5h-0.8v-7.1h1.2l2.3,5.9h0l2.3-5.9H55v7.1h-0.8v-4.6
		c0-0.5,0-1.1,0.1-1.7h0l-2.4,6.3H51.1z"/>
	<path class="st3" d="M63.2,87.8c0,1.1-0.3,2-0.9,2.7s-1.4,1-2.4,1c-1.1,0-1.9-0.3-2.4-1c-0.6-0.6-0.9-1.5-0.9-2.7
		c0-1.2,0.3-2.1,0.9-2.7c0.6-0.6,1.4-1,2.4-1c1,0,1.8,0.3,2.4,1S63.2,86.6,63.2,87.8z M57.5,87.8c0,1,0.2,1.7,0.6,2.2
		c0.4,0.5,1,0.7,1.8,0.7c0.8,0,1.4-0.2,1.8-0.7s0.6-1.2,0.6-2.2c0-1-0.2-1.7-0.6-2.2c-0.4-0.5-1-0.7-1.8-0.7c-0.8,0-1.4,0.2-1.8,0.7
		C57.7,86.1,57.5,86.8,57.5,87.8z"/>
	<path class="st3" d="M70.3,91.3h-0.9l-3.9-6h0c0.1,0.7,0.1,1.3,0.1,1.9v4.1h-0.8v-7.1h0.9l3.9,6h0c0-0.1,0-0.4,0-0.8
		c0-0.5,0-0.8,0-1v-4.1h0.8V91.3z"/>
	<path class="st3" d="M76.3,91.3h-4v-7.1h4v0.7h-3.1v2.3h3V88h-3v2.6h3.1V91.3z"/>
	<path class="st3" d="M79.7,87.8l1.9-3.6h0.9l-2.4,4.4v2.8h-0.8v-2.7l-2.4-4.4h0.9L79.7,87.8z"/>
	<path class="st3" d="M31.8,104.8H31v-6.4h-2.3v-0.7h5.4v0.7h-2.3V104.8z"/>
	<path class="st3" d="M36,101.8v3h-0.8v-7.1h2c0.9,0,1.5,0.2,1.9,0.5s0.6,0.8,0.6,1.5c0,0.9-0.5,1.6-1.4,1.9l1.9,3.2h-1l-1.7-3H36z
		 M36,101.1h1.1c0.6,0,1-0.1,1.3-0.3c0.3-0.2,0.4-0.6,0.4-1c0-0.5-0.1-0.8-0.4-1s-0.7-0.3-1.3-0.3H36V101.1z"/>
	<path class="st3" d="M45.8,104.8l-0.9-2.3h-2.9l-0.9,2.3h-0.8l2.8-7.2h0.7l2.8,7.2H45.8z M44.7,101.8l-0.8-2.2
		c-0.1-0.3-0.2-0.6-0.3-1c-0.1,0.3-0.2,0.7-0.3,1l-0.8,2.2H44.7z"/>
	<path class="st3" d="M53.2,104.8h-0.9l-3.9-6h0c0.1,0.7,0.1,1.3,0.1,1.9v4.1h-0.8v-7.1h0.9l3.9,6h0c0-0.1,0-0.4,0-0.8
		c0-0.5,0-0.8,0-1v-4.1h0.8V104.8z"/>
	<path class="st3" d="M59.2,102.9c0,0.6-0.2,1.1-0.7,1.5c-0.5,0.4-1.1,0.5-1.9,0.5c-0.8,0-1.5-0.1-2-0.3v-0.8c0.3,0.1,0.6,0.2,1,0.3
		c0.3,0.1,0.7,0.1,1,0.1c0.6,0,1-0.1,1.2-0.3c0.3-0.2,0.4-0.5,0.4-0.9c0-0.2,0-0.5-0.1-0.6c-0.1-0.2-0.3-0.3-0.5-0.4
		c-0.2-0.1-0.6-0.3-1.1-0.5c-0.7-0.2-1.1-0.5-1.4-0.8c-0.3-0.3-0.4-0.8-0.4-1.3c0-0.5,0.2-1,0.6-1.3c0.4-0.3,1-0.5,1.6-0.5
		c0.7,0,1.4,0.1,2,0.4l-0.3,0.7c-0.6-0.2-1.2-0.4-1.7-0.4c-0.4,0-0.8,0.1-1,0.3c-0.2,0.2-0.4,0.5-0.4,0.8c0,0.2,0,0.5,0.1,0.6
		c0.1,0.2,0.2,0.3,0.5,0.4c0.2,0.1,0.5,0.3,1,0.4c0.7,0.3,1.3,0.6,1.5,0.9C59.1,102,59.2,102.4,59.2,102.9z"/>
	<path class="st3" d="M63.9,104.8l-2.4-6.3h0c0,0.5,0.1,1.1,0.1,1.8v4.5h-0.8v-7.1h1.2l2.3,5.9h0l2.3-5.9h1.2v7.1h-0.8v-4.6
		c0-0.5,0-1.1,0.1-1.7h0l-2.4,6.3H63.9z"/>
	<path class="st3" d="M69.7,104.8v-7.1h0.8v7.1H69.7z"/>
	<path class="st3" d="M74.7,104.8h-0.8v-6.4h-2.3v-0.7H77v0.7h-2.3V104.8z"/>
	<path class="st3" d="M80.2,104.8h-0.8v-6.4h-2.3v-0.7h5.4v0.7h-2.3V104.8z"/>
	<path class="st3" d="M87.6,104.8h-4v-7.1h4v0.7h-3.1v2.3h3v0.7h-3v2.6h3.1V104.8z"/>
	<path class="st3" d="M90,101.8v3h-0.8v-7.1h2c0.9,0,1.5,0.2,1.9,0.5c0.4,0.3,0.6,0.8,0.6,1.5c0,0.9-0.5,1.6-1.4,1.9l1.9,3.2h-1
		l-1.7-3H90z M90,101.1h1.1c0.6,0,1-0.1,1.3-0.3c0.3-0.2,0.4-0.6,0.4-1c0-0.5-0.1-0.8-0.4-1s-0.7-0.3-1.3-0.3H90V101.1z"/>
	<path class="st3" d="M99.3,102.9c0,0.6-0.2,1.1-0.7,1.5c-0.5,0.4-1.1,0.5-1.9,0.5c-0.8,0-1.5-0.1-2-0.3v-0.8c0.3,0.1,0.6,0.2,1,0.3
		c0.3,0.1,0.7,0.1,1,0.1c0.6,0,1-0.1,1.2-0.3c0.3-0.2,0.4-0.5,0.4-0.9c0-0.2,0-0.5-0.1-0.6c-0.1-0.2-0.3-0.3-0.5-0.4
		c-0.2-0.1-0.6-0.3-1.1-0.5c-0.7-0.2-1.1-0.5-1.4-0.8c-0.3-0.3-0.4-0.8-0.4-1.3c0-0.5,0.2-1,0.6-1.3c0.4-0.3,1-0.5,1.6-0.5
		c0.7,0,1.4,0.1,2,0.4l-0.3,0.7c-0.6-0.2-1.2-0.4-1.7-0.4c-0.4,0-0.8,0.1-1,0.3c-0.2,0.2-0.4,0.5-0.4,0.8c0,0.2,0,0.5,0.1,0.6
		c0.1,0.2,0.2,0.3,0.5,0.4c0.2,0.1,0.5,0.3,1,0.4c0.7,0.3,1.3,0.6,1.5,0.9C99.2,102,99.3,102.4,99.3,102.9z"/>
</g>
</svg>
