<?xml version="1.0" encoding="utf-8"?>
<!-- Generator: Adobe Illustrator 25.0.0, SVG Export Plug-In . SVG Version: 6.00 Build 0)  -->
<svg version="1.1" xmlns="http://www.w3.org/2000/svg" xmlns:xlink="http://www.w3.org/1999/xlink" x="0px" y="0px"
	 viewBox="0 0 1079.1 891.2" style="enable-background:new 0 0 1079.1 891.2;" xml:space="preserve">
<style type="text/css">
	.st0{fill:#1FBAD6;}
	.st1{fill:#334054;}
	.st2{fill:none;stroke:#047989;stroke-width:2;stroke-miterlimit:10;}
	.st3{fill:none;stroke:#3B8C88;stroke-width:2;stroke-miterlimit:10;}
	.st4{fill:url(#SVGID_1_);}
	.st5{fill:none;stroke:#1FBAD6;stroke-width:2;stroke-miterlimit:10;}
	.st6{fill:#4C5D75;}
	.st7{fill:none;stroke:#FFE161;stroke-width:2;stroke-miterlimit:10;}
	.st8{fill:#FFE161;}
	.st9{fill:none;stroke:#D3D3D3;stroke-width:2;stroke-miterlimit:10;}
	.st10{fill:#BA9600;}
	.st11{fill:none;stroke:#FF6346;stroke-width:2;stroke-miterlimit:10;}
	.st12{fill:#FFFFFF;}
	.st13{fill:none;stroke:#1FBAD6;stroke-width:2;stroke-miterlimit:10;stroke-dasharray:8,8;}
</style>
<g id="Layer_3">
	<g>
		<path class="st0" d="M142.3,637.9c0.1-0.3,0.9-3.4,1.9-7.2l-1-3.9c-1.4,5.3-2.8,10.5-2.9,10.6L142.3,637.9z"/>
		<path class="st0" d="M165.2,673.8l1.7,1c3.3-5.5,5-10.8,5.5-15.5l-2.1,0.5C169.6,664.1,168,669,165.2,673.8z"/>
		<path class="st0" d="M188.1,645.1l-13.1-50.3c-1.4-5.2-6.7-8.4-11.9-7l-18.7,4.9c-5.2,1.4-8.4,6.7-7,11.9l5.8,22.2
			c1.3-4.7,2.5-9.4,2.8-10.6c0.4-2.2,2.6-3.8,4.9-3.4c0.5,0.1,0.9,0.2,1.3,0.5c2.7,1.4,2.7,4.3,2.4,6.2c-0.1,0.7-0.4,2.4-0.7,4.5
			c-0.4,2.8-1.2,7.2-1.7,10.7c2.1-4.4,5.1-11,7.2-15.7c1.3-2.2,4-3.1,6.2-2c2.2,1,3.2,3.6,2.3,5.9l-0.2,0.4c0.8-0.1,1.6-0.1,2.5,0.2
			c1.1,0.4,2.1,1.2,2.6,2.3c0.5,1.1,0.6,2.3,0.2,3.4c0,0.1-0.1,0.2-0.1,0.3l-1.1,2.3c0.8-0.2,1.7-0.2,2.6,0.1c1.1,0.4,2,1.2,2.5,2.4
			c0.6,1.5,0.5,3.1,0,4l-5.3,11.2c0.9,2.4,1.2,5.8,0.8,9.8l8.7-2.3C186.4,655.7,189.5,650.3,188.1,645.1z M153.1,610.5
			c-2.4,0-4.3-1.9-4.3-4.3c0-2.4,1.9-4.3,4.3-4.3c2.4,0,4.3,1.9,4.3,4.3C157.4,608.6,155.5,610.5,153.1,610.5z"/>
	</g>
</g>
<g id="Layer_1">
	<path class="st1" d="M269.6,699.8c22.2-0.4,44.8-29.7,44.8-29.7s-15.9-21-63.8-21.4c-43.1-0.3-55.9,12.4-55.9,12.4
		S224.1,700.6,269.6,699.8z"/>
	<path class="st2" d="M159.9,591.4l0.6-0.2c3.1-0.9,6.3,0.9,7.1,4c0,0,0,0,0,0l16.4,57.5c0.9,3.1-0.9,6.3-4,7.1c0,0,0,0,0,0
		l-9.3,2.6"/>
	<path class="st2" d="M142.2,634.9l-8.5-30c-0.9-3.1,0.9-6.3,4-7.1c0,0,0,0,0,0l16-4.6"/>
	<g>
		<path class="st3" d="M618.9,464.4c-2.3,1.2-4.3,3-6.4,6.5c-5.5,9.4-11,9.3-13.2,15.9s-1.1,18.7-3.3,20.9s-11-17.6-16-16.5
			s-9.4,3.9-9.9,12.7c-0.5,8.8-5,12.1-3.3,14.8s5.5,3.9,10.4,1.1s7.7-6,8.8,2.2c1.1,8.2,3.3,18.1,8.2,23.6s9.3,4.4,13.2,17.6
			s7.2,16-1.1,12.7c-8.3-3.3-19.8-15.9-22-18.7s-0.6-7.7-9.9-14.3s-12.1-11-13.2-13.2s-1.1-9.9-1.7-14.9s-3.3,1.7-4.4-8.2
			c-1.1-9.9-8.2-27-6-33.6s4.9-22,9.9-32.4s7.1-16.5,6-20.4s3.4-9.9,9.4-14.3c0,0,3.8-6.6,8.2-3.9c6.6,0,22.6,1.7,31.3,6.6
			c12.1-1.1,12.6-2.2,14.8,0.6s11-5.5,11.5,0s-14.8,5.5-19.8,13.2c-4.9,7.7-2.2,12.6,1.6,15.4s12.1-9.4,17.6-13.8
			c5.5-4.4,7.2-5.5,12.6-5c5.5,0.6,10.4,2.8,13.2,10.5s-5,12.6-7.7,13.8s-6-4.4-9.3,3.3s-6.6,5.5-15.9,11.5c-1.8,1.2-3.5,2-5,2.7"/>
		<path class="st3" d="M654.8,409.3c0,0,7.7-2.2,12.1-3.8s7.7-2.2,4.9,3.8c-2.8,6.1-4.4,8.8-8.8,8.2c-4.4-0.5-18.2-1.1-15.4-3.9
			S653.2,414.3,654.8,409.3z"/>
		<path class="st3" d="M691.5,672c0.5-2.6,1.1-5.1,2-7.6c2.8-7.7,14.3-3.9,20.3-17.6s8.2-17,7.7-24.8s-11-7.7-18.7-15.4
			s-14.3-17.6-21.4-20.9s-16.5-14.8-29.7-17.6s-29.7-5.5-29.7,6s4.4,15.4-0.6,26.4c-5,11,0.6,7.7,1.7,17.6
			c0.7,6.7,11.6,16.5,14.3,21.5s7.2,3.3,12.7,8.2c1.4,1.3,2.6,3.3,3.6,5.9"/>
		<path class="st3" d="M779.7,469.3c-5.5-9.4-4.4-11.5-0.6-20.9s11.6-5,16.5-3.9s-1.7,2.8,5.5,11.5s5-0.6,9.9,2.2s0-8.8,6-13.2
			s3.8-1.1,11,0.6s6.6-0.6,4.4-7.7s-3.8-3.3-6.6-9.4s1.5-8.6,7.6-9.7"/>
		<path class="st3" d="M773.8,365.3c-2.2,2.5,1.4,9.3,2,14.3c0.6,5-7.7,1.7-17,8.2c-9.3,6.6-2.2,11-11,9.4s-13.2-11.5-14.3-18.7
			s-13.2-9.4-19.2-6.6s5,3.9,3.3,12.1s-9.9,8.2-13.7,7.7s-6.6-2.8-12.1,3.3c-5.5,6.1,2.2,9.9,2.8,15.9c0.5,6.1-5.5,11-2.2,11.5
			c3.3,0.5,9.9-9.4,12.1-2.8c2.2,6.6-6,9.9-8.8,17.1s8.8,18.1,17.6,22s11,0,7.2,6.6s-13.2,15.4-18.2,24.2s2.2,8.8,10.4,8.2
			s9.9-1.7,8.3,7.7c-1.7,9.4-3.8,11,2.7,11.5s9.3,0.6,15.4-11.5s-5.5-11-3.8-20.3s3.3-8.8,9.3-12.6s-2.8-6.1,1.7-9.4
			c3.7-2.7,7-5.8,9.9-9.4c4.4-4.9,1.7,2.8,9.3,9.9s13.7,18.7,13.7,23.1s-7.2,12.6-2.8,13.2s5.5-3.3,8.8-9.3s7.2-2.2,8.8-6.1
			c0.7-1.7-2-3.3-5.5-6"/>
		<path class="st3" d="M813.9,413c-2.5-0.7-4.4-2-5.1-4.3c-2.2-7.7,0-8.8-5-13.2c-5-4.4-10.4-18.1-10.4-18.1"/>
		<path class="st3" d="M705.2,368c2.9-0.4,8.2-2.7,9.3-5.6c1.3-3.7-4.6-3.2-15-2.7c-10.4,0.6-11.1,10-17.1,4.5
			c-6.1-5.6-15.9,2.7-18.7,7.7c-2.8,4.9,10.4,1.1,13.7,0.6c3.3-0.6-3.3,6.6,5.5,6s18.4-0.9,12.7,3.9c-4.1,3.4-4.5,5.6-1,5.4
			c6.8-0.4,8.5-0.8,12.4-4.1c3.8-3.3,3.5-6.1-0.3-10.1C704.2,371.1,702.4,368.4,705.2,368z"/>
		<path class="st3" d="M732.4,350.5c-2.7,7.2-8.7,14-3.2,16.7s7.4,7,9.9,14.1c3,8.7,9.9,2.2,16-1.1l6-3.3c0,0,3.8,4.9,4.4,0.6
			s-3.3-7.1-11-13.2s-13.2-9.4-12.1-11"/>
		<path class="st3" d="M835.4,573.2c-3.1,10.8-11.5,25-21.6,34.1c-11.5,10.4-24.2,18.1-24.7,23.6c-0.5,5.5-1.1,11.6,0.6,13.2"/>
		<path class="st3" d="M852.6,457.4c0,0-5.8-6.9-6.3-1.9s-4.4,4.4-11,0s-11-6-18.2,11s-6.6,19.8-6,32.4s-8.2,7.2-1.7,22
			c6.6,14.8,12.1,16.5,19.2,14.3s16-11.5,13.2,6.6c-1.1,7.4-2,11.4-2.7,14.3"/>
		<path class="st3" d="M536,509.2c0-89.7,72.7-162.5,162.5-162.5c0,0,0,0,0,0c89.7,0,162.5,72.7,162.5,162.5
			c0,89.7-72.7,162.5-162.5,162.5c-83.2,0-151.8-62.5-161.4-143.1"/>
	</g>
	<linearGradient id="SVGID_1_" gradientUnits="userSpaceOnUse" x1="787.2838" y1="400.3544" x2="887.5721" y2="342.4529">
		<stop  offset="0" style="stop-color:#E22D6C"/>
		<stop  offset="1" style="stop-color:#FF6346"/>
	</linearGradient>
	<polygon class="st4" points="793,334.1 889.2,345.3 881.8,408.7 785.6,397.5 	"/>
	<g>
		<path class="st2" d="M236,649.3c-21.4,1-40.3,6.9-47.7,18.7l-25.6,37.7l5.5-26.8c-2.8-7.4-7.9-5.9-17.2-5.5"/>
		<path class="st2" d="M441.7,700.4c-5.2,8.6-10.8,17-16.7,25.1c-15.2,20.7-36.6,39.6-36.6,39.6s-12.2-12.1-27.7-34.6
			c-19.7-28.6-40-54.7-40-54.7c-6.6-8.7-18.4-16.1-33-20.7"/>
		<path class="st2" d="M319.7,801.7l-9.3-66.8c0,0,21.7,21.7,35.4,38.6c14.2,17.6,26.3,32.7,26.3,32.7c2.9,4.2,7.3,7.1,12.4,7.9h0.1
			c0.5,0.1,1,0.2,1.5,0.2h3.1c5.1-0.4,9.7-3,12.8-7c0,0,26.5-29.6,43.2-51.2s35.7-51,35.7-51c-16.4-1.5-23.7-2.8-30.9-19.1"/>
		<path class="st2" d="M133.8,671.8c0,0,0.3,19.8-8.7,53.6c-9,33.8-19.5,66.7-19.5,66.7v0.2c0,0.4-0.1,0.8-0.2,1.2
			c-0.1,0.2,0,0.3-0.1,0.7c-0.1,0.4-0.1,0.7-0.1,1.1v1.7c0,0.3,0,0.4,0,0.8c0,0.4,0.1,0.8,0.2,1.1c0.1,0.2,0.1,0.4,0.1,0.6
			c0.1,0.5,0.2,1.1,0.4,1.6l0.1,0.1c1.2,4.2,3.8,7.8,7.4,10.2c1.3,0.9,2.8,1.6,4.4,2.2l0,0c0.5,0.2,1.1,0.3,1.6,0.5h0.1
			c0.5,0.1,1,0.2,1.5,0.2l0.4,0.1c0.4,0.1,0.8,0.1,1.2,0.1h2.5l0.8-0.1c0.3,0,0.6-0.1,1-0.1l0.9-0.2l0.7-0.2
			c0.5-0.1,0.9-0.3,1.4-0.5l0.2-0.1c2.7-1,5.1-2.7,7-4.8l0.2-0.2c0.3-0.3,0.5-0.6,0.7-0.9l0.4-0.6l0.2-0.2c0,0,17.7-23.1,30.8-38.4
			c15.1-17.6,29-33,29-33l3.8,66.8c0,14.6,59.4-10.6,105.5-2.9"/>
	</g>
	<path class="st2" d="M153.1,609.9c-0.4,0.2-0.9,0.3-1.4,0.3c-2,0-3.6-1.6-3.6-3.6c0-2,1.6-3.6,3.6-3.6c1.5,0,2.8,0.9,3.3,2.2"/>
	<path class="st5" d="M315.1,568.9c-4.2-4-5.8-14,2.2-18.1c16.2-8.4,0-31.8-11.8-25.8c-8.2,4.2-16.1,7.2-19.1-1.2
		c-2.5-6.9,2.3-9.8-1.7-18.2c-1.9-4-8.7-8.3-15.5-1.6c-5.9,5.8-16.4-2-19.2-13.1s-20.9-12.4-25.1-1.6c-3.7,9.4-12.9,24-25.8,14.5
		c-8.8-6.5-17.9-0.2-15.6,11.9c1.5,8.1,8.4,19.9-13.8,18.9c-14.8-0.7-18.2,18.7-9.2,29.6c9.5,11.5,42.8,47.1,45.5,20.6
		c2.6-26.5,35.7-22.2,47.7-14.2c12,8,25.2,3.1,34,0.3c8.8-2.8,15,4.3,18.4,10.3S319.3,572.9,315.1,568.9z"/>
	<g>
		<path class="st6" d="M438.1,481c0,0.9-0.7,1.7-1.6,1.7c-0.9,0-1.7-0.7-1.7-1.6s0.7-1.7,1.6-1.7c0,0,0,0,0,0l0,0
			C437.4,479.4,438.1,480.1,438.1,481C438.1,481,438.1,481,438.1,481z"/>
		<path class="st6" d="M473.5,481c0,0.9-0.7,1.7-1.6,1.7c-0.9,0-1.7-0.7-1.7-1.6s0.7-1.7,1.6-1.7c0,0,0,0,0,0l0,0
			C472.7,479.4,473.5,480.1,473.5,481C473.5,481,473.5,481,473.5,481z"/>
		<path class="st6" d="M508.8,481c0,0.9-0.7,1.7-1.6,1.7c-0.9,0-1.7-0.7-1.7-1.6s0.7-1.7,1.6-1.7c0,0,0,0,0,0l0,0
			C508.1,479.4,508.8,480.1,508.8,481C508.8,481,508.8,481,508.8,481z"/>
		<path class="st6" d="M438.1,447.3c0,0.9-0.7,1.6-1.7,1.6c-0.9,0-1.7-0.7-1.7-1.7c0-0.9,0.7-1.6,1.7-1.6c0,0,0,0,0,0l0,0
			C437.4,445.7,438.1,446.4,438.1,447.3C438.1,447.3,438.1,447.3,438.1,447.3z"/>
		<path class="st6" d="M473.5,447.3c0,0.9-0.7,1.6-1.7,1.6c-0.9,0-1.7-0.7-1.7-1.7c0-0.9,0.7-1.6,1.7-1.6c0,0,0,0,0,0l0,0
			C472.7,445.7,473.5,446.4,473.5,447.3C473.5,447.3,473.5,447.3,473.5,447.3z"/>
		<path class="st6" d="M508.8,447.3c0,0.9-0.7,1.6-1.7,1.6c-0.9,0-1.7-0.7-1.7-1.7c0-0.9,0.7-1.6,1.7-1.6c0,0,0,0,0,0l0,0
			C508.1,445.7,508.8,446.4,508.8,447.3C508.8,447.3,508.8,447.3,508.8,447.3z"/>
		<path class="st6" d="M438.1,411.2c0,0.9-0.7,1.6-1.7,1.6c-0.9,0-1.7-0.7-1.7-1.7c0-0.9,0.7-1.6,1.7-1.6c0,0,0,0,0,0l0,0
			C437.4,409.6,438.1,410.3,438.1,411.2C438.1,411.2,438.1,411.2,438.1,411.2z"/>
		<path class="st6" d="M473.5,411.2c0,0.9-0.7,1.6-1.7,1.6c-0.9,0-1.7-0.7-1.7-1.7c0-0.9,0.7-1.6,1.7-1.6c0,0,0,0,0,0l0,0
			C472.7,409.6,473.5,410.3,473.5,411.2C473.5,411.2,473.5,411.2,473.5,411.2z"/>
		<path class="st6" d="M508.8,411.2c0,0.9-0.7,1.6-1.7,1.6c-0.9,0-1.7-0.7-1.7-1.7c0-0.9,0.7-1.6,1.7-1.6c0,0,0,0,0,0l0,0
			C508.1,409.6,508.8,410.3,508.8,411.2C508.8,411.2,508.8,411.2,508.8,411.2z"/>
		<path class="st6" d="M508.8,375.2c0,0.9-0.7,1.6-1.7,1.6c-0.9,0-1.7-0.7-1.7-1.7c0-0.9,0.7-1.6,1.7-1.6c0,0,0,0,0,0l0,0
			C508.1,373.5,508.8,374.3,508.8,375.2C508.8,375.2,508.8,375.2,508.8,375.2z"/>
		<path class="st6" d="M546.9,411.2c0,0.9-0.7,1.6-1.7,1.6c-0.9,0-1.7-0.7-1.7-1.7c0-0.9,0.7-1.6,1.7-1.6c0,0,0,0,0,0l0,0
			C546.1,409.6,546.9,410.3,546.9,411.2C546.9,411.2,546.9,411.2,546.9,411.2z"/>
		<path class="st6" d="M546.9,375.2c-0.1,0.9-0.9,1.6-1.8,1.5c-0.8-0.1-1.5-0.7-1.5-1.5c0-0.9,0.7-1.6,1.7-1.6l0,0l0,0
			C546.1,373.5,546.9,374.3,546.9,375.2C546.9,375.2,546.9,375.2,546.9,375.2z"/>
		<path class="st6" d="M582.2,375.2c0,0.9-0.7,1.6-1.7,1.6c-0.9,0-1.7-0.7-1.7-1.7c0-0.9,0.7-1.6,1.7-1.6c0,0,0,0,0,0l0,0
			C581.5,373.5,582.2,374.3,582.2,375.2C582.2,375.2,582.2,375.2,582.2,375.2z"/>
		<path class="st6" d="M546.9,338.9c0,0.9-0.7,1.6-1.7,1.6c-0.9,0-1.7-0.7-1.7-1.7c0-0.9,0.7-1.6,1.7-1.6c0,0,0,0,0,0l0,0
			C546.1,337.3,546.9,338,546.9,338.9C546.9,338.9,546.9,338.9,546.9,338.9z"/>
		<path class="st6" d="M582.2,338.9c0,0.9-0.7,1.6-1.7,1.6c-0.9,0-1.7-0.7-1.7-1.7c0-0.9,0.7-1.6,1.7-1.6c0,0,0,0,0,0l0,0
			C581.5,337.3,582.2,338,582.2,338.9C582.2,338.9,582.2,338.9,582.2,338.9z"/>
		<path class="st6" d="M625,772.6c0,0.9-0.7,1.7-1.6,1.7c-0.9,0-1.7-0.7-1.7-1.6s0.7-1.7,1.6-1.7c0,0,0,0,0,0l0,0
			C624.3,771,625,771.7,625,772.6C625,772.6,625,772.6,625,772.6z"/>
		<path class="st6" d="M590.1,772.6c0,0.9-0.7,1.7-1.6,1.7s-1.7-0.7-1.7-1.6s0.7-1.7,1.6-1.7c0,0,0,0,0,0l0,0
			C589.4,771,590.1,771.7,590.1,772.6C590.1,772.6,590.1,772.6,590.1,772.6z"/>
		<path class="st6" d="M660.4,772.6c0,0.9-0.7,1.7-1.6,1.7c-0.9,0-1.7-0.7-1.7-1.6s0.7-1.7,1.6-1.7c0,0,0,0,0,0l0,0
			C659.7,771,660.4,771.7,660.4,772.6C660.4,772.6,660.4,772.6,660.4,772.6z"/>
		<path class="st6" d="M625,736.6c0,0.9-0.7,1.7-1.6,1.7c-0.9,0-1.7-0.7-1.7-1.6s0.7-1.7,1.6-1.7c0,0,0,0,0,0l0,0
			C624.3,734.9,625,735.6,625,736.6C625,736.6,625,736.6,625,736.6z"/>
		<path class="st6" d="M660.4,736.6c0,0.9-0.7,1.7-1.6,1.7c-0.9,0-1.7-0.7-1.7-1.6s0.7-1.7,1.6-1.7c0,0,0,0,0,0l0,0
			C659.7,734.9,660.4,735.6,660.4,736.6C660.4,736.6,660.4,736.6,660.4,736.6z"/>
		<path class="st6" d="M695.7,736.6c0,0.9-0.7,1.7-1.6,1.7c-0.9,0-1.7-0.7-1.7-1.6s0.7-1.7,1.6-1.7c0,0,0,0,0,0l0,0
			C695,734.9,695.7,735.6,695.7,736.6C695.7,736.6,695.7,736.6,695.7,736.6z"/>
		<path class="st6" d="M625,700.5c0,0.9-0.7,1.7-1.6,1.7c-0.9,0-1.7-0.7-1.7-1.6s0.7-1.7,1.6-1.7c0,0,0,0,0,0l0,0
			C624.3,698.9,625,699.6,625,700.5C625,700.5,625,700.5,625,700.5z"/>
		<path class="st6" d="M625,667.9c0,0.9-0.7,1.7-1.6,1.7c-0.9,0-1.7-0.7-1.7-1.6s0.7-1.7,1.6-1.7c0,0,0,0,0,0l0,0
			C624.3,666.3,625,667,625,667.9C625,667.9,625,667.9,625,667.9z"/>
		<path class="st6" d="M590.1,667.9c0,0.9-0.7,1.7-1.6,1.7c-0.9,0-1.7-0.7-1.7-1.6s0.7-1.7,1.6-1.7c0,0,0,0,0,0l0,0
			C589.4,666.3,590.1,667,590.1,667.9C590.1,667.9,590.1,667.9,590.1,667.9z"/>
		<path class="st6" d="M660.4,700.5c0,0.9-0.7,1.7-1.6,1.7c-0.9,0-1.7-0.7-1.7-1.6s0.7-1.7,1.6-1.7c0,0,0,0,0,0l0,0
			C659.7,698.9,660.4,699.6,660.4,700.5C660.4,700.5,660.4,700.5,660.4,700.5z"/>
		<path class="st6" d="M695.7,700.5c0,0.9-0.7,1.7-1.6,1.7c-0.9,0-1.7-0.7-1.7-1.6s0.7-1.7,1.6-1.7c0,0,0,0,0,0l0,0
			C695,698.9,695.7,699.6,695.7,700.5C695.7,700.5,695.7,700.5,695.7,700.5z"/>
		<path class="st6" d="M733.8,700.5c0,0.9-0.7,1.7-1.6,1.7c-0.9,0-1.7-0.7-1.7-1.6s0.7-1.7,1.6-1.7c0,0,0,0,0,0l0,0
			C733,698.9,733.8,699.6,733.8,700.5C733.8,700.5,733.8,700.5,733.8,700.5z"/>
		<path class="st6" d="M621.1,338.9c0,0.9-0.7,1.6-1.7,1.6c-0.9,0-1.7-0.7-1.7-1.7c0-0.9,0.7-1.6,1.7-1.6c0,0,0,0,0,0l0,0
			C620.4,337.3,621.1,338,621.1,338.9C621.1,338.9,621.1,338.9,621.1,338.9z"/>
		<path class="st6" d="M656.5,338.9c0,0.9-0.7,1.6-1.7,1.6s-1.7-0.7-1.7-1.6c0-0.9,0.7-1.6,1.7-1.6l0,0
			C655.7,337.3,656.5,338,656.5,338.9C656.5,338.9,656.5,338.9,656.5,338.9z"/>
		<path class="st6" d="M656.5,302.9c0,0.9-0.7,1.6-1.7,1.6c-0.9,0-1.7-0.7-1.7-1.7c0-0.9,0.7-1.6,1.7-1.6c0,0,0,0,0,0l0,0
			C655.7,301.2,656.5,302,656.5,302.9C656.5,302.9,656.5,302.9,656.5,302.9z"/>
		<path class="st6" d="M692.6,302.9c0,0.9-0.7,1.6-1.7,1.6s-1.7-0.7-1.7-1.6c0-0.9,0.7-1.6,1.7-1.6l0,0
			C691.8,301.2,692.6,301.9,692.6,302.9C692.6,302.9,692.6,302.9,692.6,302.9z"/>
		<path class="st6" d="M656.5,266.8c0,0.9-0.7,1.6-1.7,1.6s-1.7-0.7-1.7-1.7c0-0.9,0.7-1.6,1.7-1.6c0,0,0,0,0,0l0,0
			C655.7,265.2,656.5,265.9,656.5,266.8C656.5,266.8,656.5,266.8,656.5,266.8z"/>
		<path class="st6" d="M438.1,512.8c0,0.9-0.7,1.6-1.7,1.6s-1.7-0.7-1.7-1.7c0-0.9,0.7-1.6,1.7-1.6c0,0,0,0,0,0l0,0
			C437.4,511.2,438.1,511.9,438.1,512.8z"/>
		<path class="st6" d="M473.5,512.8c0,0.9-0.7,1.6-1.7,1.6s-1.7-0.7-1.7-1.7c0-0.9,0.7-1.6,1.7-1.6c0,0,0,0,0,0l0,0
			C472.7,511.2,473.4,511.9,473.5,512.8z"/>
		<path class="st6" d="M508.8,512.8c0,0.9-0.7,1.6-1.7,1.6s-1.7-0.7-1.7-1.7c0-0.9,0.7-1.6,1.7-1.6c0,0,0,0,0,0l0,0
			C508.1,511.2,508.8,511.9,508.8,512.8z"/>
		<path class="st6" d="M438.1,544.1c0,0.9-0.7,1.7-1.6,1.7s-1.7-0.7-1.7-1.6s0.7-1.7,1.6-1.7c0,0,0,0,0,0l0,0
			C437.3,542.6,438,543.3,438.1,544.1z"/>
		<path class="st6" d="M473.5,544.1c0,0.9-0.7,1.7-1.6,1.7s-1.7-0.7-1.7-1.6s0.7-1.7,1.6-1.7c0,0,0,0,0,0l0,0
			C472.7,542.5,473.4,543.2,473.5,544.1z"/>
		<path class="st6" d="M473.5,576.1c0,0.9-0.7,1.6-1.7,1.6s-1.7-0.7-1.7-1.7c0-0.9,0.7-1.6,1.7-1.6c0,0,0,0,0,0l0,0
			C472.7,574.5,473.4,575.2,473.5,576.1z"/>
	</g>
	<g>
		<path class="st7" d="M754.1,162.8c-0.1,0.3-0.5,3.9-0.4,4.1c0.5,3.1-3,2.7-3,2.7c-0.5-1.3-1.3-2.5-2.3-3.4c-1.2-1.2,1.8-2.4-2.2-4
			c0.9-0.3,1.7-0.8,2.6-1.2c0.4-0.7-13.5-18.9-19.5-45.3c-4.8-21.3,7.3-41.3,26.6-44.8s38.1,11.1,42,32.6
			c3.8,20.9-17.5,50.3-36.2,55.9"/>
		<path class="st7" d="M749,160.6c1.6,0.6,3.8,1.9,5.4,2.5C757.5,159.9,749.3,160.5,749,160.6z"/>
	</g>
	<path class="st8" d="M772.3,119c-0.7-4.8-3.9-7.1-9.6-8.4L761,99.2c2-0.2,4.1,0,6,0.7l0.7-3.6c-2.3-0.8-4.7-1-7.1-0.6l-0.5-3.3
		l-2.7,0.4l0.5,3.6c-4.9,1.5-7.6,5.5-7,9.9c0.6,4.5,4.2,6.8,9.6,8l1.8,12.3c-0.1,0-0.2,0-0.3,0.1c-2.7,0.4-5.4,0-7.9-1l-0.6,3.7
		c1.9,0.9,5.5,1.3,8.7,0.9l0.6-0.1l0.5,3.3l2.8-0.4l-0.5-3.6C770.7,127.4,772.9,123.2,772.3,119z M755,105.1
		c-0.3-1.8,0.6-4.1,3.3-5.2l1.4,9.9C756.8,108.8,755.3,107.5,755,105.1z M764.9,125.6l-1.6-10.7c2.9,1,4.3,2.5,4.7,4.9
		C768.4,122.3,767.1,124.7,764.9,125.6z"/>
	<g>
		<g>
			<path class="st9" d="M957.5,113c-1.1-1.7-2.2-3.5-2.8-4.9c-2.8-6.7-4.1-15.2-4.6-23c-1-16,9.7-29.7,24-30.6
				c14.3-1,26.8,11.2,27.8,27.2c0.8,12.1-9.8,27.1-21.2,34c-3.7,2.2-15.4,6.2-15.4,6.5c0,1,0,2.1,0.1,3.1c-0.2,1.8-7.2-1.4-7-4
				c0-0.2,0.3-1.6,1.6-1.6l0,0c0.2,0,1.4-0.1,1.5-0.2"/>
			<path class="st9" d="M965.1,122.2c-1.5-1-2.9-2.1-4.3-3.3C961.8,119.5,968.4,123.5,965.1,122.2z"/>
		</g>
		<path class="st8" d="M983.1,90.6l0.8-1.5l-3.1-1.6l3.4-6.4l-2.1-1.1l-3.4,6.4l-4.4-2.4l-0.6-8.6l-2.4-1.3l-3.4,6.4l-2.9-1.6
			l-0.8,1.5L967,82l-1.1,2l-2.9-1.6l-0.8,1.5l2.9,1.6l-3.2,6l2.1,1.1l3.2-6l4.9,2.6l0.6,8l2.3,1.2l3.2-6l3.1,1.6l0.8-1.5l-3.1-1.6
			l1.1-2L983.1,90.6z M971.7,77.9L971.7,77.9c0,1.5,0,3.1,0.1,4.7l-1.9-1C970.6,80.3,971.1,79.1,971.7,77.9L971.7,77.9z M968.1,85.1
			c0.4-0.7,0.7-1.4,1.1-2l2.7,1.5l0.1,0.9l0.2,1.8L968.1,85.1z M974.7,94.5L974.7,94.5c0.1-1.2,0.1-2.5,0.1-3.9l1.4,0.8
			C975.7,92.3,975.2,93.4,974.7,94.5z M976.9,89.9l-2.2-1.2l-0.1-1.5l-0.1-1.2l3.5,1.9C977.6,88.5,977.2,89.2,976.9,89.9L976.9,89.9
			z"/>
	</g>
	<path class="st8" d="M925.4,143.8l-7.7-0.4c-0.5-1.3-1.2-2.5-2.3-3.5c-2.1-2.1-5.6-3.4-10.3-3.7c-3.1-0.2-6.2-0.1-9.3,0.2l-0.3,5.7
		l-6.9-0.4l-0.2,3.1l6.9,0.4l-0.2,4l-6.9-0.4l-0.2,3.1l6.9,0.4l-1.1,21.1l4.8,0.3l0.8-15c1.3,0.3,2.6,0.5,3.9,0.5
		c4.7,0.2,9-0.9,11.7-3.5c0.7-0.7,1.3-1.4,1.8-2.2l8,0.4l0.2-3.1l-7-0.4c0.2-0.8,0.3-1.7,0.3-2.5c0-0.5,0-0.9,0-1.4l6.9,0.4
		L925.4,143.8z M900.5,140.3c1.5-0.2,3.1-0.3,4.6-0.1c3.2,0.2,5.7,1.2,7.1,3l-11.8-0.6L900.5,140.3z M903.7,155.4
		c-1.3,0-2.7-0.2-4-0.6l0.1-2.2l11.4,0.6C909.6,154.9,907,155.6,903.7,155.4z M913.5,147.9c0,0.8-0.2,1.6-0.4,2.3l-13.1-0.7l0.2-4
		l13.3,0.7C913.5,146.8,913.6,147.4,913.5,147.9L913.5,147.9z"/>
	<path class="st9" d="M792.9,316.7c1-3.9,0-7.9-1.6-11.6c-0.9-2.2-2.3-4.2-2.9-6.5c-1.6-5.5,1.3-11.2,3.5-16.6s3.3-12.2-0.7-16.3
		c-1.2-1.2-2.9-2.1-3.7-3.7c-0.8-1.6-0.4-3.7,0-5.5l3-9"/>
	<path class="st9" d="M898.9,328.5c1-6.3-3.4-6.3-5-12.2c-0.9-3.5,1.1-13.1,0.5-16.8c-1.6-8.9,1.3-18,3.5-26.6s14.8-17.9,10.7-24.5
		c-1.2-2-2.9-3.4-3.7-6s0.5-0.3,0-8.8c-0.5-8.5-6.5-20.5-6.5-20.5"/>
	<polygon class="st10" points="760.5,290.1 756.9,295.2 751.1,297.6 756.2,301.2 758.6,307 762.2,301.9 768,299.5 762.9,295.9 	"/>
	<polygon class="st10" points="885.2,273.5 881.6,278.6 875.7,281 880.9,284.6 883.3,290.4 886.9,285.3 892.7,282.9 887.5,279.3 	
		"/>
	<polygon class="st10" points="842,232.7 838.4,237.9 832.6,240.2 837.8,243.9 840.1,249.7 843.8,244.5 849.6,242.1 844.4,238.5 	
		"/>
	<path class="st8" d="M806.2,219.2c-2.6,1.3-5.4,1.7-8.3,1.4c-4.2-0.4-7.9-2.6-10.3-6c-1.8-2.5-2.8-5.7-2.8-9.6l-3.3-0.4l0.3-2.6
		l3.1,0.3l0.1-0.8c0.1-0.9,0.2-1.7,0.4-2.4l-3.2-0.4l0.3-2.7l3.5,0.4c0.9-3.3,2.8-6.3,5.4-8.6c3.1-2.6,7.1-3.8,11.1-3.3
		c2.5,0.3,4.9,1.1,6.9,2.5l-1.5,3.4c-1.7-1.2-3.7-2-5.8-2.2c-2.7-0.4-5.4,0.4-7.4,2.2c-1.8,1.4-3.1,3.7-4,6.5l14.9,1.7l-0.3,2.7
		l-15.4-1.7c-0.1,0.7-0.3,1.5-0.4,2.2l-0.1,1l15.5,1.7l-0.3,2.6l-15.2-1.7c0,2.6,0.7,5.2,2.2,7.3c1.7,2.3,4.4,3.7,7.2,4
		c2.3,0.2,4.6-0.1,6.7-1L806.2,219.2z"/>
	<path class="st8" d="M972.9,201l-21.9-2.5l0,0.4l-0.3,2.4l-0.1,0.9l4.4,0.5c3.9,0.5,6.6,2.1,7.1,5.1l-12-1.4l-0.3,2.9l12.3,1.4
		c-0.7,3.5-3.9,5.5-8.4,4.9l-4.5-0.5l-0.4,3.4l4.2,0.5c4,0.6,5.7,2.6,6.1,7.5c0.5,4.4,0.9,7.5,1.4,8.5l4.6,0.5
		c-0.6-1.4-1-4.8-1.6-9.7c-0.4-3.7-1.7-6.3-4.3-7.5v-0.2c3.4-0.7,6.4-3,7.3-6.8l5.2,0.6l0.3-2.9l-5.3-0.6c-0.1-1.9-0.8-3.7-2-5.2
		c-0.1-0.1-0.2-0.2-0.3-0.3l8.1,0.9L972.9,201z"/>
	<line class="st5" x1="829.7" y1="343" x2="795.7" y2="339.2"/>
	<path class="st11" d="M266.4,620.1c-8.2,2.7-15.8,0.7-23.5-3.9c1.1,6.5,5.6,11.4,11.9,11.4"/>
	<g>
		<path class="st5" d="M154.4,679.8c-6.6-0.2-13.5-4.3-15.2-11.4c-3-12.3-2.9-27.1-2.9-27.1l0.6-13.3c0-1.1,0.7-2.1,1.8-2.3"/>
		<path class="st5" d="M141.3,637.6c0,0,5.1-18.8,5.6-21.2c0.3-1.8,2-3,3.7-2.7c0.4,0.1,0.7,0.2,1,0.3c1.8,0.9,2.2,2.6,1.9,5.2
			c-0.4,2.6-3.4,20.6-3,20.7c0.4,0.1,9.8-20.6,9.8-20.6c1-1.7,3.1-2.3,4.8-1.5c1.7,0.8,2.6,2.8,1.8,4.6L156.8,645l8.1-18.2
			c0.8-1.7,2.5-3.2,4.9-2.4c1.8,0.6,2.8,2.6,2.2,4.4c0,0.1-0.1,0.2-0.1,0.3l-9.1,19.2l5.8-12.2c1-2.2,3.1-4,5.5-3.2s2.5,3.7,1.9,5
			l-5.5,11.6c2.1,4.8,1.5,14.8-4.5,24.8"/>
		<path class="st5" d="M478,696.7c1.2-0.5,2.2-1.1,2.9-1.8c20.3-20-0.3-33.1-0.3-33.1l18.2-10.5c1.3-0.8,3.2-2.5,2-5.3
			c-1.2-2.8-4.6-2.4-6-1.6l-21.3,12.3c-0.2-0.1-1.5-0.5-2-0.6l9.3-18.4c0.7-1.4,1-4.7-1.9-5.7c-2-0.8-4.3,0.1-5.2,2.1l-12.7,25
			c-6.7,8.7-7.1,17-7.1,17c-1.4,13.6,5.1,19.6,12.2,21.4"/>
		<path class="st5" d="M274.2,645.9c-0.6-3.9-1-7.7-1.1-9.5c15.4-10.2,28.2-31.9,26.3-51.1"/>
		<path class="st5" d="M211.3,572.3c-11.4,23.1-2,51,20.9,62.6c2.4,7.5,4.2,15.2,5.5,23c0,0,8.2,15.5,25.2,15
			c12-0.4,12.9-9.8,12.5-17.1"/>
		<path class="st5" d="M272.8,636.6c-3.4,2.4-6.8,4.6-9.1,5.3c-4.5,1.3-19.2-4.8-19.2-4.8"/>
		<path class="st5" d="M261.5,589.3c0,0,3.2,8.4,6.5,10.9c3.2,2.5,1.3,11.6-9,5.9"/>
	</g>
	<path class="st0" d="M233.4,586.2c-0.3-0.3-0.5-0.7-0.7-1.1c-1.1-2.3-0.2-5,2.1-6.2c2.3-1.1,5-0.2,6.2,2.1c1.1,2.3,0.2,5-2.1,6.2
		l-0.2,0.1C237.2,586.2,235.3,585.8,233.4,586.2z"/>
	<path class="st12" d="M234.5,584.7L234.5,584.7c-0.8-0.2-1.3-0.9-1.1-1.7l0.3-1.4c0.2-0.8,0.9-1.3,1.7-1.1l0,0
		c0.8,0.2,1.3,0.9,1.1,1.7l-0.3,1.4C236.1,584.4,235.3,584.9,234.5,584.7z"/>
	<g>
		<path class="st9" d="M865.8,132.9c4-11.9,12.9-21.5,25-25.2c3.6-1.1,7.4-1.7,11.1-1.6c0.8,0,1.6,0.1,2.5,0.1
			c16.7,1.3,32.1,13.8,37.9,32.4c6.1,19.9-7.7,50.1-24.9,63.1c-0.7,0.5-1.3,0.9-2,1.4c-2.4,1.6-5,2.9-7.8,3.8
			c-1.8,0.6-3.6,0.9-5.5,0.9l0,0c-0.4,1.1-0.6,2.3-0.5,3.4c0.5,3.3-3.9,0.8-3.9,1c0.4,2.8-2.9,5.5-3.2,5.3c-1.7-1-3.6-5-3.7-5.2
			c-0.1-0.5,3.9-4.6,3.7-5.3c-4.9-2.1-9.9-6.8-13.7-12c-0.9-1.2-1.7-2.4-2.5-3.6c-1.2-1.8-2.2-3.7-3.3-5.7
			c-3.3-6.4-6.1-13.1-8.3-19.9c0-0.1-0.1-0.2-0.1-0.3c-0.4-1.1-0.8-2.3-1.1-3.4c-0.6-2-1.1-4-1.5-6.1c-0.1-0.8-0.3-1.6-0.4-2.4
			c-0.2-1.6-0.3-3.3-0.4-5c0-1.7,0-3.3,0.2-5"/>
		<path class="st9" d="M894,207.2c2,0,7.8-0.5,8.1,1.4C902.1,209,893.9,207.4,894,207.2z"/>
	</g>
	<g>
		<path class="st9" d="M823.8,171.9c6.4,7.2,9.9,17,8.7,27.4c0,0,0,0,0,0c-2.2,19.3-21,45.9-40.3,43.7
			c-19.3-2.2-31.9-32.2-29.7-51.6c2.1-19.3,19.6-33.3,38.9-31.1c0,0,0,0,0,0c5.5,0.6,10.6,2.5,15,5.3"/>
		<path class="st9" d="M790.4,242.6c0,0-2.5,3.2-4.1,3.2c-1.6,0-0.2,3.1,2.5,2.5c2.7-0.6,8.4,0,11.1-0.3s-5.3-5.2-5.3-5.2"/>
	</g>
	<g>
		<path class="st7" d="M927.3,224.1c-1.5-6.1-2.1-12.1-1.5-17.4v0c1.8-18.2,18-31.5,36.3-29.7c18.2,1.8,31.5,18,29.7,36.3
			c0,0.3-0.1,0.5-0.1,0.8c-2,18.2-19.8,43.2-38,41.2c-9.5-1.1-18.8-12.1-23.7-22.2"/>
		<path class="st7" d="M957.4,255.5c0,0,0.6,2.8,0,3.7c-0.6,0.9-3.8,1.9-5.3,0.6c-1.5-1.3,1-2.2,1-2.2l-0.4-2.2"/>
	</g>
	<path class="st7" d="M902.7,329.7c4.7-7.6,12.7-12.5,21.6-13.2c2.1-0.1,4.4-0.1,5.9-1.5c1-1,1.7-2.3,1.9-3.8c0.6-2.6,0.6-5.4,0-8
		c-0.7-3.1-2.2-6.1-2.7-9.3c-0.7-5,1.2-10,3.2-14.7c1.7-4.1,3.6-8.5,7.6-10.5c1.8-0.9,3.9-1.2,5.7-2c2.4-1.1,8.1-4.8,8.2-7"/>
	<path class="st7" d="M807.6,317.5c-5.7-13.8-34.4-31.6-26.6-43.9c1.5-13.3-6.2-21.8-10.3-23.7c-5-2.3-0.9-12.7-5.7-15.4
		c-21.3-16.3-21-33.6-19.8-40.7c0.5-3.3,2.2-6.3,2.9-9.5c0.9-4.2-4.3-11.7,1-16.9"/>
	<polyline class="st5" points="893.8,363.4 888.1,414.3 789.1,403.2 796.2,339.2 790.5,338.6 793,316.5 903.4,328.9 901,351 
		895.2,350.3 	"/>
	<path class="st11" d="M847.3,357.1l0-34.6c3-0.1,7.6-0.9,17.1-2.3c7.8-1.2,12-9,7.7-16.5c-2.6-4.6-6.7-5.9-10.3-4.9
		c-11.9,3.4-14.6,23.8-14.6,23.8s0.1-12.4-1.4-17.3c-1.7-5.6-3.7-7.8-7-8.8c-3.2-1.1-6.7-0.5-9.3,1.5c-2.5,2-3.6,5.2-3.5,9.1
		c0.2,9.9,18,14.8,21.2,15.4l-18.1,88l18.2,2l0-44"/>
	<path class="st7" d="M210.4,571.7c4.2,1.6,8,4.8,12.5,4.4c3.2-0.3,5.8-2.3,8.4-4.2c6.5-4.7,14.1-9,22.1-8.2
		c11.4,1.1,20,12.1,31.4,13.3c3.5,0.4,7-0.2,10.2-1.7c6.6-3.1,10.8-9.7,10.9-16.9"/>
	<path class="st13" d="M144.5,592.6c0,0-61.1-314.8,235.8-351.1c277.9-33.9,287.8,368,461.3,301c79.4-30.7,46-128.2,46-128.2"/>
	<path class="st9" d="M894.6,328.8c5-10.6,1.1-11.9,3.7-22.8c1.5-6.4,9.6-22.2,11.5-28.7c4.5-15.9,13-30.6,20.5-44.7
		c7.5-14,14.7-24.5,15.5-37.2c0.2-3.9,1.9-36.3,2.9-40.9c4.5-19.1,12.7-30.7,12.7-30.7"/>
</g>
</svg>
