<svg id="Layer_1" data-name="Layer 1" xmlns="http://www.w3.org/2000/svg" viewBox="0 0 500 500"><defs><style>.cls-1{fill:#334054;}.cls-2,.cls-3,.cls-5,.cls-6{fill:none;stroke-miterlimit:10;stroke-width:2px;}.cls-2{stroke:#1fbad6;}.cls-3{stroke:#ff6346;}.cls-4{fill:#1fbad6;}.cls-5{stroke:#047989;}.cls-6{stroke:#ffe161;}.cls-7{fill:#4c5d75;}</style></defs><path class="cls-1" d="M212,273.93c-3.31-3.15-4.58-11,1.74-14.27,12.77-6.63,0-25.09-9.31-20.36-6.47,3.32-12.7,5.68-15.07-.94-2-5.45,1.81-7.74-1.34-14.36-1.5-3.16-6.86-6.55-12.23-1.26-4.65,4.57-12.94-1.58-15.15-10.34s-16.48-9.78-19.8-1.26c-2.91,7.42-10.17,18.93-20.35,11.44-6.94-5.13-14.12-.16-12.3,9.39,1.18,6.39,6.62,15.69-10.89,14.91-11.68-.56-14.36,14.75-7.26,23.35,7.5,9.07,33.76,37.15,35.89,16.25s28.17-17.52,37.63-11.21,19.88,2.45,26.83.24,11.83,3.39,14.51,8.13S215.28,277.09,212,273.93Z"/><path class="cls-2" d="M272.35,326.17c2.07-13.35-2.34-58.28-1.15-74.46,0,0,1.2-14,1.41-16.55,0-.29,0-.66,0-1.07"/><path class="cls-3" d="M172.38,322.17c-6.47,2.13-12.47.55-18.54-3.08.86,5.13,4.41,9,9.38,9"/><path class="cls-2" d="M178.53,342.52c-.47-3.08-.79-6.07-.87-7.49,12.15-8,22.25-25.17,20.75-40.31"/><path class="cls-2" d="M128.91,284.46a37,37,0,0,0,16.49,49.38A128.84,128.84,0,0,1,149.73,352s6.47,12.22,19.88,11.83c9.47-.32,10.18-7.73,9.87-13.49"/><path class="cls-2" d="M177.42,335.18c-2.68,1.9-5.36,3.63-7.17,4.19-3.55,1-15.15-3.79-15.15-3.79"/><path class="cls-2" d="M168.51,297.87s2.52,6.63,5.13,8.6,1,9.15-7.1,4.65"/><path class="cls-4" d="M146.34,295.43a3.68,3.68,0,1,1,4.34.78l-.16.08A5.2,5.2,0,0,0,146.34,295.43Z"/><path class="cls-5" d="M172,370.55c-23.25,6.37-28-22.06-28-22.06-9.83.55-28.85,5.05-38.95,15s-19.83,34.85-24.47,47c0,0,19.2,9.6,21.78,32.87,9.52-9.18,16.81-22,16.81-22"/><path class="cls-5" d="M219.77,426.11c-2.52-24,.29-35.25.35-35.55.44,0,41.16-13.42,52-43.77a97.55,97.55,0,0,0,4.38-20.45c-22.41,1.05-31.71-10.21-31.71-10.21a47.31,47.31,0,0,1-1.51,7.9c-4.3,12-9.64,19.07-24.93,21.72a246.63,246.63,0,0,1-30,2.89"/><path class="cls-2" d="M256.7,239.14c-2-3.33-3.94-6.65-7.59-8,6.18-7.28,5.95-16.24.54-12.09s-9.55,6.86-10,12.23c-.38,4.84,1.54,7.7,5.65,11.16s5.26,9.59,5.26,9.59c.83,9,0,32-1.06,54.45"/><path class="cls-2" d="M53.73,369.18a21.68,21.68,0,0,0-.3,4.69c1.81,10.54,15.76,33.37,25.47,44.82s-4,30.32-20.22,12.12c-7.19-8.05-17.73-30.17-25.31-52,0,0-4.72-13.18-5.63-15.58s-2.24-9.9.33-12.7,5.1-.3,6.61.36,3.6,2,4.17,6.18-2,4.79-4.44,4.24-3.25-4.71-3.25-4.71"/><path class="cls-2" d="M44.15,362.94a16.81,16.81,0,0,1,6.58-9.19c-4.8-.46-8.74-6.83-3.17-6.87,6.44,0,8.94-3.85,11,4.1,1.59,6,1.08,7.38-.57,9.59"/><path class="cls-2" d="M43.36,343.09s2.76-4.06,6.44-1.72,1.31,5.37,1.31,5.37"/><path class="cls-2" d="M36.31,346a7.08,7.08,0,0,1,5.15-3.1c3.39-.24,4.92,3.46,4.92,3.46"/><path class="cls-2" d="M31.28,348.58s2-5.33,8-1.75,4.17,11.1,2.4,12.63c-.86.76-3.6.55-3.6.55"/><path class="cls-2" d="M48.22,353.35s.21,4.72-4.42,3.31"/><line class="cls-6" x1="238.71" y1="230.68" x2="159.72" y2="221.92"/><polyline class="cls-6" points="134.69 219.14 128.36 218.44 145.65 62.57 460.39 97.48 443.1 253.35 255.89 232.09"/><path class="cls-2" d="M210.79,281.78c-3.31-3.16-4.57-11,1.74-14.28,12.78-6.63,0-25.09-9.31-20.35-6.47,3.31-12.7,5.68-15.07-1-2-5.44,1.82-7.73-1.34-14.36-1.5-3.15-6.86-6.54-12.23-1.26-4.65,4.58-12.93-1.58-15.14-10.33S143,210.46,139.64,219c-2.92,7.42-10.18,18.94-20.36,11.44-6.94-5.12-14.12-.15-12.3,9.39,1.18,6.39,6.62,15.7-10.89,14.91-11.67-.55-14.36,14.75-7.26,23.35,7.5,9.07,33.77,37.16,35.9,16.25s28.16-17.51,37.63-11.2,19.88,2.44,26.82.24,11.83,3.39,14.51,8.12S214.11,284.93,210.79,281.78Z"/><path class="cls-3" d="M165.37,110s3.18,6.08,4.21,7.32,6.83-2.08,6.2-3.4-3.44-6.37-4.12-7.51S164.76,108.83,165.37,110Z"/><path class="cls-3" d="M168.17,106.24a60.84,60.84,0,0,0-9.58-16.33C151.75,81.43,145.82,79.15,141,82s-6.2,7.11-5,11.21,13.9,14.11,19.55,16.66"/><path class="cls-3" d="M135.61,89.82c5.74-6.91,13.5-.27,19,6.93s10,12.86,10,12.86"/><path class="cls-3" d="M141.27,86.74s-3.93,7.64,20,18.77"/><path class="cls-3" d="M171.66,106.37s4.45-8.89,9.19-17.19,13-13.86,20.62-8.3,6.75,12.77,2.82,18.24-13.18,8.12-18.86,10.4-8.23,2.37-8.23,2.37"/><path class="cls-3" d="M175.78,113.88A91.52,91.52,0,0,0,183.5,103c4.19-6.84,7.2-11.67,8.93-14.13s8-5.57,14.51-.64"/><path class="cls-3" d="M200.46,85.44s2.16,5.61-4.9,10.79a73.71,73.71,0,0,1-12.29,7.49"/><path class="cls-3" d="M165.37,110a170,170,0,0,0-17.27,0c-6.2.55-14.77,0-20.52,5.93s-5.81,14,1.06,19,21.56-2.76,21.56-2.76"/><path class="cls-3" d="M168.75,115.27s-6.14,2.92-17.27,3.83-16.24,0-21.35,5.75,1.37,11.4,1.37,11.4"/><path class="cls-3" d="M129.16,127s2.2,4.75,11.26,1.14a70.57,70.57,0,0,0,16.62-9.9"/><path class="cls-3" d="M173.37,116.55A89.92,89.92,0,0,0,191.61,118c9.76-.28,11.79,4.95,10.59,11.14"/><path class="cls-3" d="M176.56,114.08s15.05-1.09,24.72-5,12.59-5.2,12.59-5.2l-4.38-7.3-5.2,2.55"/><path class="cls-3" d="M195.9,110.89s9.23,1.18,9.72,8.39-3.12,11.23-8.75,13-16.93-5.7-24.14-15.19"/><path class="cls-3" d="M201.77,122.14s.09,4.19-7.13,3.17S181,118,181,118"/><polyline class="cls-3" points="169.58 117.28 147.52 152.4 139.15 149.35 158.68 118.51"/><path class="cls-7" d="M361.86,302.1a1.65,1.65,0,1,1-1.64,1.66h0a1.65,1.65,0,0,1,1.62-1.64Z"/><path class="cls-7" d="M361.86,266.74a1.65,1.65,0,1,1-1.64,1.66h0a1.65,1.65,0,0,1,1.62-1.64Z"/><path class="cls-7" d="M328.16,302.1a1.65,1.65,0,1,1-1.65,1.65h0a1.64,1.64,0,0,1,1.62-1.64h0Z"/><path class="cls-7" d="M328.16,335.89a1.65,1.65,0,1,1-1.65,1.65h0a1.65,1.65,0,0,1,1.63-1.65Z"/><path class="cls-7" d="M328.16,266.74a1.65,1.65,0,1,1-1.65,1.65h0a1.64,1.64,0,0,1,1.62-1.64h0Z"/><path class="cls-7" d="M292.09,302.1a1.65,1.65,0,1,1-1.65,1.65h0a1.64,1.64,0,0,1,1.62-1.64h0Z"/><path class="cls-7" d="M292.09,266.74a1.65,1.65,0,1,1-1.65,1.65h0a1.64,1.64,0,0,1,1.62-1.64h0Z"/><path class="cls-7" d="M393.66,302.1a1.65,1.65,0,1,1-1.65,1.65h0A1.71,1.71,0,0,1,393.66,302.1Z"/><path class="cls-7" d="M393.66,266.74a1.65,1.65,0,1,1-1.65,1.65h0A1.71,1.71,0,0,1,393.66,266.74Z"/><path class="cls-7" d="M425,302.1a1.65,1.65,0,1,1-1.64,1.66h0A1.71,1.71,0,0,1,425,302.1Z"/><path class="cls-7" d="M457,302.1a1.65,1.65,0,1,1-1.65,1.65h0A1.71,1.71,0,0,1,457,302.1Z"/><line class="cls-3" x1="154" y1="205.54" x2="161.59" y2="143.21"/><line class="cls-3" x1="172.01" y1="117.96" x2="160.05" y2="216.17"/><polyline class="cls-3" points="166.61 102 171.44 62.33 178.67 63.21 174.1 101.73"/><polyline class="cls-3" points="136.41 110.53 137.2 103.5 147.09 104.44"/><polyline class="cls-3" points="210.69 111.46 459.42 138.4 458.64 145.43 204.84 117.95"/></svg>