<?xml version="1.0" encoding="utf-8"?>
<!-- Generator: Adobe Illustrator 25.2.3, SVG Export Plug-In . SVG Version: 6.00 Build 0)  -->
<svg version="1.1" id="Layer_1" xmlns="http://www.w3.org/2000/svg" xmlns:xlink="http://www.w3.org/1999/xlink" x="0px" y="0px"
	 viewBox="0 0 500 500" style="enable-background:new 0 0 500 500;" xml:space="preserve">
<style type="text/css">
	.st0{fill:#F4F9F9;}
	.st1{fill:none;stroke:#FF6346;stroke-width:2;stroke-miterlimit:10;}
	.st2{fill:#283142;}
	.st3{fill:none;stroke:#1FBAD6;stroke-width:2;stroke-miterlimit:10;}
	.st4{fill:#1FBAD6;}
	.st5{fill:none;stroke:#047989;stroke-width:2;stroke-miterlimit:10;}
	.st6{fill:#BA9600;}
	.st7{fill:#047989;}
	.st8{fill:#FFE161;}
	.st9{fill:#334054;}
	.st10{fill:#E8BC03;}
	.st11{fill:#FF6346;}
</style>
<polyline class="st0" points="134.7,219.1 128.4,218.4 145.6,62.6 460.4,97.5 443.1,253.4 255.9,232.1 "/>
<line class="st1" x1="172" y1="118" x2="160.1" y2="216.2"/>
<path class="st2" d="M212,273.9c-3.3-3.1-4.6-11,1.7-14.3c12.8-6.6,0-25.1-9.3-20.4c-6.5,3.3-12.7,5.7-15.1-0.9
	c-2-5.4,1.8-7.7-1.3-14.4c-1.5-3.2-6.9-6.6-12.2-1.3c-4.6,4.6-12.9-1.6-15.1-10.3s-16.5-9.8-19.8-1.3c-2.9,7.4-10.2,18.9-20.3,11.4
	c-6.9-5.1-14.1-0.2-12.3,9.4c1.2,6.4,6.6,15.7-10.9,14.9c-11.7-0.6-14.4,14.7-7.3,23.3c7.5,9.1,33.8,37.1,35.9,16.2
	s28.2-17.5,37.6-11.2s19.9,2.5,26.8,0.2s11.8,3.4,14.5,8.1S215.3,277.1,212,273.9z"/>
<path class="st3" d="M272.4,326.2c2.1-13.4-2.3-58.3-1.1-74.5c0,0,1.2-14,1.4-16.6c0-0.3,0-0.7,0-1.1"/>
<path class="st1" d="M172.4,322.2c-6.5,2.1-12.5,0.5-18.5-3.1c0.9,5.1,4.4,9,9.4,9"/>
<path class="st3" d="M178.5,342.5c-0.5-3.1-0.8-6.1-0.9-7.5c12.1-8,22.2-25.2,20.8-40.3"/>
<path class="st3" d="M128.9,284.5c-9,18.2-1.6,40.2,16.5,49.4c1.9,5.9,3.3,12,4.3,18.2c0,0,6.5,12.2,19.9,11.8
	c9.5-0.3,10.2-7.7,9.9-13.5"/>
<path class="st3" d="M177.4,335.2c-2.7,1.9-5.4,3.6-7.2,4.2c-3.6,1-15.1-3.8-15.1-3.8"/>
<path class="st3" d="M168.5,297.9c0,0,2.5,6.6,5.1,8.6s1,9.1-7.1,4.6"/>
<path class="st4" d="M146.3,295.4c-1.4-1.5-1.3-3.8,0.2-5.2c1.5-1.4,3.8-1.3,5.2,0.2c1.4,1.5,1.3,3.8-0.2,5.2
	c-0.3,0.2-0.5,0.4-0.9,0.6l-0.2,0.1C149.3,295.4,147.8,295.1,146.3,295.4z"/>
<path class="st5" d="M172,370.5c-23.2,6.4-28-22.1-28-22.1c-9.8,0.5-28.8,5-38.9,15s-19.8,34.9-24.5,47c0,0,19.2,9.6,21.8,32.9
	c9.5-9.2,16.8-22,16.8-22"/>
<path class="st5" d="M219.8,426.1c-2.5-24,0.3-35.2,0.4-35.5c0.4,0,41.2-13.4,52-43.8c2.2-6.6,3.7-13.5,4.4-20.5
	c-22.4,1-31.7-10.2-31.7-10.2c-0.3,2.7-0.8,5.3-1.5,7.9c-4.3,12-9.6,19.1-24.9,21.7c-9.9,1.6-20,2.5-30,2.9"/>
<path class="st3" d="M256.7,239.1c-2-3.3-3.9-6.6-7.6-8c6.2-7.3,5.9-16.2,0.5-12.1s-9.6,6.9-10,12.2c-0.4,4.8,1.5,7.7,5.6,11.2
	s5.3,9.6,5.3,9.6c0.8,9,0,32-1.1,54.5"/>
<path class="st3" d="M53.7,369.2c-0.3,1.5-0.4,3.1-0.3,4.7c1.8,10.5,15.8,33.4,25.5,44.8s-4,30.3-20.2,12.1
	c-7.2-8-17.7-30.2-25.3-52c0,0-4.7-13.2-5.6-15.6s-2.2-9.9,0.3-12.7s5.1-0.3,6.6,0.4s3.6,2,4.2,6.2s-2,4.8-4.4,4.2s-3.2-4.7-3.2-4.7
	"/>
<path class="st3" d="M44.2,362.9c1.1-3.7,3.4-7,6.6-9.2c-4.8-0.5-8.7-6.8-3.2-6.9c6.4,0,8.9-3.9,11,4.1c1.6,6,1.1,7.4-0.6,9.6"/>
<path class="st3" d="M43.4,343.1c0,0,2.8-4.1,6.4-1.7s1.3,5.4,1.3,5.4"/>
<path class="st3" d="M36.3,346c1.2-1.7,3.1-2.9,5.2-3.1c3.4-0.2,4.9,3.5,4.9,3.5"/>
<path class="st3" d="M31.3,348.6c0,0,2-5.3,8-1.8s4.2,11.1,2.4,12.6c-0.9,0.8-3.6,0.5-3.6,0.5"/>
<path class="st3" d="M48.2,353.4c0,0,0.2,4.7-4.4,3.3"/>
<path class="st3" d="M210.8,281.8c-3.3-3.2-4.6-11,1.7-14.3c12.8-6.6,0-25.1-9.3-20.4c-6.5,3.3-12.7,5.7-15.1-1
	c-2-5.4,1.8-7.7-1.3-14.4c-1.5-3.1-6.9-6.5-12.2-1.3c-4.6,4.6-12.9-1.6-15.1-10.3s-16.4-9.7-19.8-1.2c-2.9,7.4-10.2,18.9-20.4,11.4
	c-6.9-5.1-14.1-0.1-12.3,9.4c1.2,6.4,6.6,15.7-10.9,14.9c-11.7-0.6-14.4,14.7-7.3,23.3c7.5,9.1,33.8,37.2,35.9,16.2
	s28.2-17.5,37.6-11.2s19.9,2.4,26.8,0.2s11.8,3.4,14.5,8.1S214.1,284.9,210.8,281.8z"/>
<path class="st1" d="M165.4,110c0,0,3.2,6.1,4.2,7.3s6.8-2.1,6.2-3.4s-3.4-6.4-4.1-7.5S164.8,108.8,165.4,110z"/>
<path class="st1" d="M168.2,106.2c-2.3-5.9-5.6-11.4-9.6-16.3c-6.8-8.5-12.8-10.8-17.6-7.9s-6.2,7.1-5,11.2s13.9,14.1,19.6,16.7"/>
<path class="st1" d="M135.6,89.8c5.7-6.9,13.5-0.3,19,6.9s10,12.9,10,12.9"/>
<path class="st1" d="M141.3,86.7c0,0-3.9,7.6,20,18.8"/>
<path class="st1" d="M171.7,106.4c0,0,4.4-8.9,9.2-17.2s13-13.9,20.6-8.3s6.8,12.8,2.8,18.2s-13.2,8.1-18.9,10.4s-8.2,2.4-8.2,2.4"
	/>
<path class="st1" d="M175.8,113.9c2.8-3.4,5.4-7.1,7.7-10.9c4.2-6.8,7.2-11.7,8.9-14.1s8-5.6,14.5-0.6"/>
<path class="st1" d="M200.5,85.4c0,0,2.2,5.6-4.9,10.8c-3.8,2.9-8,5.4-12.3,7.5"/>
<path class="st1" d="M165.4,110c-5.8-0.3-11.5-0.3-17.3,0c-6.2,0.6-14.8,0-20.5,5.9s-5.8,14,1.1,19s21.6-2.8,21.6-2.8"/>
<path class="st1" d="M168.8,115.3c0,0-6.1,2.9-17.3,3.8s-16.2,0-21.4,5.8c-5.1,5.8,1.4,11.4,1.4,11.4"/>
<path class="st1" d="M129.2,127c0,0,2.2,4.8,11.3,1.1c6-2.5,11.6-5.9,16.6-9.9"/>
<path class="st1" d="M173.4,116.6c6,1.1,12.1,1.6,18.2,1.4c9.8-0.3,11.8,4.9,10.6,11.1"/>
<path class="st1" d="M176.6,114.1c0,0,15.1-1.1,24.7-5s12.6-5.2,12.6-5.2l-4.4-7.3l-5.2,2.6"/>
<path class="st1" d="M195.9,110.9c0,0,9.2,1.2,9.7,8.4s-3.1,11.2-8.8,13s-16.9-5.7-24.1-15.2"/>
<path class="st1" d="M201.8,122.1c0,0,0.1,4.2-7.1,3.2S181,118,181,118"/>
<polyline class="st1" points="169.6,117.3 147.5,152.4 139.1,149.4 158.7,118.5 "/>
<path class="st6" d="M361.9,302.1c0.9,0,1.7,0.7,1.7,1.6c0,0.9-0.7,1.7-1.6,1.7c-0.9,0-1.7-0.7-1.7-1.6l0,0
	C360.2,302.9,360.9,302.1,361.9,302.1L361.9,302.1z"/>
<path class="st6" d="M361.9,266.7c0.9,0,1.7,0.7,1.7,1.6c0,0.9-0.7,1.7-1.6,1.7c-0.9,0-1.7-0.7-1.7-1.6l0,0
	C360.2,267.5,360.9,266.8,361.9,266.7L361.9,266.7z"/>
<path class="st6" d="M328.2,302.1c0.9,0,1.6,0.7,1.6,1.6c0,0.9-0.7,1.6-1.6,1.6c-0.9,0-1.6-0.7-1.6-1.6l0,0l0,0
	C326.5,302.9,327.2,302.1,328.2,302.1L328.2,302.1L328.2,302.1z"/>
<path class="st6" d="M328.2,335.9c0.9,0,1.6,0.7,1.6,1.6c0,0.9-0.7,1.6-1.6,1.6c-0.9,0-1.6-0.7-1.6-1.6l0,0l0,0
	C326.5,336.6,327.2,335.9,328.2,335.9L328.2,335.9z"/>
<path class="st6" d="M328.2,266.7c0.9,0,1.6,0.7,1.6,1.6c0,0.9-0.7,1.6-1.6,1.6c-0.9,0-1.6-0.7-1.6-1.6l0,0l0,0
	C326.5,267.5,327.2,266.8,328.2,266.7L328.2,266.7L328.2,266.7z"/>
<path class="st6" d="M292.1,302.1c0.9,0,1.6,0.7,1.6,1.6c0,0.9-0.7,1.6-1.6,1.6c-0.9,0-1.6-0.7-1.6-1.6l0,0l0,0
	C290.4,302.9,291.2,302.1,292.1,302.1L292.1,302.1L292.1,302.1z"/>
<path class="st6" d="M292.1,266.7c0.9,0,1.6,0.7,1.6,1.6c0,0.9-0.7,1.6-1.6,1.6c-0.9,0-1.6-0.7-1.6-1.6l0,0l0,0
	C290.4,267.5,291.2,266.8,292.1,266.7L292.1,266.7L292.1,266.7z"/>
<path class="st6" d="M393.7,302.1c0.9,0,1.6,0.7,1.6,1.6c0,0.9-0.7,1.6-1.6,1.6c-0.9,0-1.6-0.7-1.6-1.6l0,0l0,0
	C392,302.9,392.8,302.1,393.7,302.1z"/>
<path class="st6" d="M393.7,266.7c0.9,0,1.6,0.7,1.6,1.6c0,0.9-0.7,1.6-1.6,1.6c-0.9,0-1.6-0.7-1.6-1.6l0,0l0,0
	C392,267.5,392.8,266.8,393.7,266.7z"/>
<path class="st6" d="M425,302.1c0.9,0,1.7,0.7,1.7,1.6c0,0.9-0.7,1.7-1.6,1.7c-0.9,0-1.7-0.7-1.7-1.6l0,0
	C423.4,302.9,424.1,302.1,425,302.1z"/>
<path class="st6" d="M457,302.1c0.9,0,1.6,0.7,1.6,1.6c0,0.9-0.7,1.6-1.6,1.6c-0.9,0-1.6-0.7-1.6-1.6l0,0l0,0
	C455.4,302.9,456.1,302.1,457,302.1z"/>
<line class="st1" x1="155.2" y1="195.8" x2="161.6" y2="143.2"/>
<polyline class="st1" points="166.6,102 171.4,62.3 178.7,63.2 174.1,101.7 "/>
<polyline class="st1" points="136.4,110.5 137.2,103.5 147.1,104.4 "/>
<polyline class="st1" points="210.7,111.5 459.4,138.4 458.6,145.4 204.8,117.9 "/>
</svg>
