<?xml version="1.0" encoding="utf-8"?>
<!-- Generator: Adobe Illustrator 25.0.1, SVG Export Plug-In . SVG Version: 6.00 Build 0)  -->
<svg version="1.1" id="Layer_1" xmlns="http://www.w3.org/2000/svg" xmlns:xlink="http://www.w3.org/1999/xlink" x="0px" y="0px"
	 viewBox="0 0 450 450" style="enable-background:new 0 0 450 450;" xml:space="preserve">
<style type="text/css">
	.st0{fill:none;stroke:#1EB9D5;stroke-width:6;stroke-miterlimit:10;}
	.st1{fill:none;stroke:#FF6346;stroke-width:6;stroke-miterlimit:10;}
	.st2{fill:none;stroke:#FFE161;stroke-width:6;stroke-miterlimit:10;}
</style>
<g id="Layer_3">
	<path class="st0" d="M237.9,127.9c-45.6-2.3-84.5,32.8-86.8,78.4c-2.3,45.6,32.8,84.5,78.4,86.8s84.5-32.8,86.8-78.4c0,0,0,0,0,0"
		/>
	<path class="st1" d="M337.7,193.3c2.4-45.6-32.7-84.4-78.3-86.8c0,0-0.1,0-0.1,0l-2.9,82.4L337.7,193.3z"/>
	<path class="st2" d="M315.6,268.1c-6.6,9.2-14.7,17.3-23.9,23.9l8,13.8l-16.3,9.4l-8-13.8c-10.3,4.7-21.4,7.7-32.7,8.7v16h-18.8
		v-16c-11.3-1-22.3-4-32.7-8.7l-8,13.8l-16.3-9.4l8-13.8c-9.2-6.6-17.3-14.7-23.9-23.9l-13.8,8l-9.4-16.3l13.8-8
		c-4.7-10.3-7.7-21.4-8.7-32.7h-16v-18.8h16c1-11.3,4-22.3,8.7-32.7l-13.8-8l9.4-16.3l13.8,8c6.6-9.2,14.7-17.3,23.9-23.9"/>
</g>
</svg>
