<?xml version="1.0" encoding="utf-8"?>
<!-- Generator: Adobe Illustrator 24.3.0, SVG Export Plug-In . SVG Version: 6.00 Build 0)  -->
<svg version="1.1" id="Layer_1" xmlns="http://www.w3.org/2000/svg" xmlns:xlink="http://www.w3.org/1999/xlink" x="0px" y="0px"
	 viewBox="0 0 450 409.2" style="enable-background:new 0 0 450 409.2;" xml:space="preserve">
<style type="text/css">
	.st0{display:none;}
	.st1{fill:#FF6346;}
	.st2{fill:none;stroke:#334054;stroke-width:6;stroke-miterlimit:10;}
	.st3{fill:none;stroke:#1EB9D5;stroke-width:6;stroke-miterlimit:10;}
</style>
<g id="Layer_4_copy" class="st0">
</g>
<g id="Layer_4">
</g>
<g id="Layer_6">
</g>
<g id="Layer_10">
</g>
<g id="Layer_5">
</g>
<g id="Layer_8">
</g>
<g id="Layer_9">
</g>
<g id="Layer_2_1_">
</g>
<g id="Layer_1_1_">
</g>
<g id="Layer_3">
	<g>
		<g>
			<path class="st1" d="M238,129c3.8,0,6.6,2.8,6.6,6.6s-2.8,6.6-6.6,6.6s-6.6-2.8-6.6-6.6S234.2,129,238,129z M243.1,153.8v44.1
				h-10.3v-44.1H243.1z"/>
		</g>
		<line class="st2" x1="159.8" y1="116.1" x2="80.4" y2="116.1"/>
		<line class="st2" x1="159.8" y1="143.5" x2="122.3" y2="143.5"/>
		<g>
			<g>
				<g>
					<path class="st3" d="M314.1,202.2v15.5c0,6.1-4.8,11.1-10.7,11.1h-59l-39.9,38v-38h-31.9c-5.9,0-10.7-5-10.7-11.1v-105
						c0-6.1,4.8-11.1,10.7-11.1h130.7c5.9,0,10.7,5,10.7,11.1v51.1"/>
				</g>
			</g>
		</g>
	</g>
</g>
</svg>
