<svg xmlns="http://www.w3.org/2000/svg" viewBox="0 0 280.4 78.51"><defs><style>.a{fill:#1fbad6;}.b{fill:#fff;}</style></defs><title>reloadly logo w</title><path class="a" d="M35.92,4A33,33,0,0,1,68.84,36.94a32.57,32.57,0,0,1-9.77,23.48l-2.15,2.13,2.16,2.13,12,11.83H31.88V37.84l13.18,13,2.08,2.06,2.11-2A19.26,19.26,0,0,0,35.92,17.73,19.36,19.36,0,0,0,16.67,36.8V76.51H3V37A33,33,0,0,1,35.92,4m0-3A35.94,35.94,0,0,0,0,37V79.51H19.67V36.8a16.25,16.25,0,1,1,27.5,11.91l-18.29-18V79.51H78.39l-17.2-17A36,36,0,0,0,35.92,1Z" transform="translate(0 -1)"/><path class="b" d="M101.76,30.6l-1.37,7.84A11.89,11.89,0,0,0,97.7,38a5,5,0,0,0-4.18,1.89,14.6,14.6,0,0,0-2.35,5.72V61.33H83.05V31h7l.74,5.89a10.85,10.85,0,0,1,3.18-5,7.09,7.09,0,0,1,4.72-1.77A11.71,11.71,0,0,1,101.76,30.6Z" transform="translate(0 -1)"/><path class="b" d="M127.79,48.63H108.85c.27,2.75,1,4.69,2.24,5.84a7,7,0,0,0,5,1.71,10.6,10.6,0,0,0,3.67-.63,17.17,17.17,0,0,0,3.72-2l3.37,4.58a17.83,17.83,0,0,1-11.5,4.12q-7.16,0-11-4.29T100.5,46.34A20.4,20.4,0,0,1,102.13,38a13.35,13.35,0,0,1,4.75-5.8,12.89,12.89,0,0,1,7.41-2.12q6.46,0,10.07,4.06T128,45.48Q128,46.05,127.79,48.63Zm-7.89-5.44q0-7.55-5.44-7.55a4.63,4.63,0,0,0-3.92,1.86c-.93,1.24-1.5,3.25-1.69,6H119.9Z" transform="translate(0 -1)"/><path class="b" d="M133.92,60.1A8.41,8.41,0,0,1,131.86,54V18.93L140,18V53.78c0,1.33.55,2,1.66,2a3.49,3.49,0,0,0,1.6-.34l1.66,5.78a12.9,12.9,0,0,1-5.2,1A7.63,7.63,0,0,1,133.92,60.1Z" transform="translate(0 -1)"/><path class="b" d="M170.48,34.35q3.84,4.26,3.83,11.82a19.34,19.34,0,0,1-1.74,8.44,13.1,13.1,0,0,1-5,5.64,14.63,14.63,0,0,1-7.75,2q-6.81,0-10.67-4.27t-3.86-11.81A19.31,19.31,0,0,1,147,37.73a13,13,0,0,1,5-5.64,14.75,14.75,0,0,1,7.81-2Q166.65,30.09,170.48,34.35Zm-15.25,4.24q-1.51,2.43-1.51,7.58t1.51,7.58a5.47,5.47,0,0,0,9.1,0q1.51-2.43,1.52-7.58t-1.49-7.58a4.94,4.94,0,0,0-4.52-2.43A5.07,5.07,0,0,0,155.23,38.59Z" transform="translate(0 -1)"/><path class="b" d="M201.9,55.52a3,3,0,0,0,1.71,1.23l-1.71,5.38a9.86,9.86,0,0,1-4.38-1.26,6.54,6.54,0,0,1-2.61-3.2q-3,4.57-9.09,4.58a9.83,9.83,0,0,1-7.19-2.61A9.06,9.06,0,0,1,176,52.86a8.87,8.87,0,0,1,3.61-7.61q3.6-2.62,10.36-2.63h3.49V41.13c0-1.87-.42-3.16-1.26-3.89A6.41,6.41,0,0,0,188,36.16a26.24,26.24,0,0,0-8,1.6l-1.83-5.44a30.33,30.33,0,0,1,11.21-2.23c4.12,0,7.16.89,9.1,2.66s2.92,4.42,2.92,7.93V52.92A5,5,0,0,0,201.9,55.52ZM193.43,53V47.26h-2.69q-6.59,0-6.58,4.92a4.52,4.52,0,0,0,1,3.12,3.69,3.69,0,0,0,2.89,1.11A6,6,0,0,0,193.43,53Z" transform="translate(0 -1)"/><path class="b" d="M234.05,18.93v42.4H226.9l-.46-3.72a10,10,0,0,1-8.69,4.64,9.73,9.73,0,0,1-8.56-4.32q-2.94-4.32-2.95-11.76a21.52,21.52,0,0,1,1.52-8.33,13.12,13.12,0,0,1,4.32-5.69,10.65,10.65,0,0,1,6.47-2.06,10.3,10.3,0,0,1,7.38,3V18ZM223.3,55.3a9.7,9.7,0,0,0,2.63-2.78V39a9.63,9.63,0,0,0-2.43-2.15,5.65,5.65,0,0,0-2.84-.71,4.92,4.92,0,0,0-4.37,2.46q-1.57,2.46-1.58,7.61c0,3.62.47,6.2,1.4,7.72a4.47,4.47,0,0,0,4,2.29A5.7,5.7,0,0,0,223.3,55.3Z" transform="translate(0 -1)"/><path class="b" d="M242.12,60.1A8.45,8.45,0,0,1,240.06,54V18.93l8.13-.91V53.78c0,1.33.55,2,1.66,2a3.52,3.52,0,0,0,1.6-.34l1.66,5.78a13,13,0,0,1-5.21,1A7.63,7.63,0,0,1,242.12,60.1Z" transform="translate(0 -1)"/><path class="b" d="M270.62,61.39a18.12,18.12,0,0,1-5.75,8.93c-2.62,2.09-6.15,3.3-10.62,3.6l-.86-5.84A14,14,0,0,0,259.77,66a10.58,10.58,0,0,0,3.35-4.69h-2.8L250.88,31h8.64l6.06,25.06L272,31h8.41Z" transform="translate(0 -1)"/></svg>