<?xml version="1.0" encoding="utf-8"?>
<!-- Generator: Adobe Illustrator 23.0.0, SVG Export Plug-In . SVG Version: 6.00 Build 0)  -->
<svg version="1.1" id="Layer_1" xmlns="http://www.w3.org/2000/svg" xmlns:xlink="http://www.w3.org/1999/xlink" x="0px" y="0px"
	 viewBox="0 0 284 289" style="enable-background:new 0 0 284 289;" xml:space="preserve">
<style type="text/css">
	.st0{fill-rule:evenodd;clip-rule:evenodd;fill:#1FBAD6;}
	.st1{fill:#FFFFFF;}
</style>
<g>
	<path class="st0" d="M181,137.3l28.6,28.2h-82.3v-6.6v-5.6v-4.7v-26.4V119V84.3l30.4,30c5.1-4.9,8.3-11.8,8.3-19.5
		c0-14.9-12.1-27-27-27c-14.8,0-26.8,11.9-27,26.7l0,0v0.3v53.3v17.4H79.3V94.8C79.3,61.8,106,35,139,35s59.7,26.8,59.7,59.7
		C198.8,111.4,192,126.4,181,137.3z"/>
	<path class="st1" d="M84.5,196.4c0-0.9-0.4-2.2-1.2-3.9c-0.8-1.7-1.9-3.4-3.4-5.1c-1.5-1.7-3.2-3.2-5.3-4.4
		c-2.1-1.3-4.4-1.9-6.9-1.9c-4,0-8.3,0.6-12.9,1.7c-4.6,1.1-9.7,3.2-15.2,6.2c-0.8,0.5-1.7,1-2.8,1.7c-1,0.6-2,1.4-3,2.2
		c-0.9,0.8-1.7,1.7-2.4,2.6c-0.6,0.9-1,1.9-1,2.9c0,0.6,0.1,1.3,0.4,2.1s0.7,1.6,1.2,2.4c0.5,0.8,1.2,1.4,1.9,1.9s1.6,0.8,2.5,0.8
		c0.6,0,0.9-0.3,1-0.8s0.2-1.1,0.2-1.7c0-0.2,0-0.6-0.1-1.2c-0.1-0.6-0.2-1.2-0.3-1.9c-0.1-0.6-0.2-1.3-0.3-1.9
		c-0.1-0.6-0.1-1-0.1-1.3c0-1,0.6-2.1,1.9-3.2c1.3-1.1,2.9-2.1,4.7-3s3.7-1.7,5.6-2.2c1.9-0.6,3.6-0.9,4.9-0.9h0.6
		c0.1,0,0.3,0.1,0.4,0.4c0.2,0.3,0.3,0.4,0.4,0.6c-0.6,1.5-1,3.4-1.4,5.7s-0.7,4.8-0.9,7.5s-0.4,5.5-0.6,8.3
		c-0.1,2.9-0.2,5.7-0.3,8.4s-0.1,5.3-0.1,7.7v6.1c0,1.8,0,3.2,0.1,4.4s0.2,2.1,0.4,2.8s0.5,1.2,0.8,1.5s0.8,0.5,1.4,0.5h1.4
		c0.7,0,1.4,0,2.2-0.1s1.5-0.2,2.2-0.4s1.3-0.5,1.6-0.8c-0.7-0.2-1.1-0.6-1.1-1.1c-0.1-0.5-0.1-0.9-0.1-1.1v-9.5V222
		c0-1.9,0.1-3.1,0.2-3.6c0-0.2,0.3-0.4,0.9-0.4c0.6-0.1,1-0.1,1.3-0.1c1.5,0,2.6,0.3,3.3,0.8s1.3,1.5,1.7,2.9
		c0.4,1.4,0.7,3.4,0.9,5.9c0.2,2.5,0.6,5.8,1.1,9.8c0.3,2.1,1,3.7,2.1,4.5c1.1,0.9,2.6,1.3,4.4,1.3c1.9,0,3.5-0.4,4.6-1.3
		c1.2-0.8,1.7-1.9,1.7-3.1c0-0.2,0-0.4,0-0.6c0-0.1-0.1-0.3-0.1-0.5c-0.4,0.6-0.8,1.1-1.1,1.3c-0.3,0.3-0.8,0.4-1.4,0.4
		s-1-0.4-1.3-1.1c-0.3-0.7-0.6-1.7-0.7-2.9c-0.2-1.2-0.3-2.5-0.4-4s-0.2-2.9-0.3-4.4c-0.1-1.5-0.4-2.9-0.7-4.2
		c-0.3-1.3-0.7-2.3-1.3-3.1c-1-1.4-2.2-2.4-3.5-3s-2.6-1.1-3.9-1.6c2-0.3,3.9-1.1,5.8-2.2c1.9-1.2,3.6-2.6,5.1-4.3s2.7-3.6,3.6-5.7
		C84,200.8,84.5,198.6,84.5,196.4L84.5,196.4z M77.8,195c0,1.5-0.4,3.3-1.2,5.3c-0.8,2-1.8,3.8-3.1,5.6c-1.3,1.8-2.8,3.2-4.5,4.4
		s-3.5,1.8-5.4,1.8c-1.1,0-1.8-0.1-2.1-0.3s-0.4-0.7-0.4-1.5v-19.7c0-1.5,0.2-2.5,0.5-3.2c0.3-0.6,0.7-1,1.2-1.1
		c1.1-0.1,1.9-0.1,2.2-0.1h0.8c3.6,0,6.5,0.7,8.7,2.2C76.6,189.9,77.8,192.1,77.8,195L77.8,195z M110.7,222.6V222
		c0-1-0.4-1.4-1.3-1.4c-0.4,0-0.7,0.1-0.8,0.4c-0.2,0.3-0.3,0.8-0.5,1.6c-0.2,1.2-0.5,2.4-0.9,3.7s-0.9,2.4-1.6,3.4
		s-1.5,1.8-2.6,2.5c-1,0.6-2.4,1-4,1c-1.2,0-2.2-0.3-3-0.8s-1.5-1.2-2-1.9s-0.9-1.4-1.1-2.2c-0.3-0.7-0.4-1.3-0.4-1.7v-2.5
		c0.4,0.1,0.8,0.2,1.2,0.3c0.4,0.1,0.8,0.1,1.1,0.1c1.6,0,3-0.5,4.2-1.4s2.3-2.1,3.1-3.5c0.8-1.4,1.5-2.9,1.9-4.5
		c0.5-1.6,0.7-3.1,0.7-4.4l-0.1-1.2c-0.1-1-0.3-1.9-0.7-2.8c-0.4-0.9-0.9-1.7-1.6-2.4s-1.5-1.2-2.4-1.7C99,202.2,98,202,97,202
		c-2.1,0-3.9,0.7-5.3,2.1c-1.5,1.4-2.7,3.1-3.6,5.2c-1,2.1-1.7,4.3-2.1,6.7c-0.5,2.4-0.7,4.5-0.7,6.5s0.2,4,0.6,5.8s1.1,3.4,2.1,4.8
		c1,1.4,2.2,2.4,3.8,3.2c1.5,0.8,3.4,1.2,5.6,1.2c2.3,0,4.3-0.5,6-1.5s3-2.3,4.1-3.8s1.9-3.1,2.4-4.9
		C110.5,225.6,110.7,224,110.7,222.6L110.7,222.6z M100.7,209.5v0.5c0,0.8-0.1,1.8-0.3,3.1c-0.2,1.2-0.6,2.5-1.1,3.6
		c-0.5,1.2-1.1,2.2-1.9,3.1c-0.8,0.8-1.8,1.3-2.9,1.3h-0.4c-0.5,0-0.8-0.2-0.9-0.5s-0.1-0.7-0.1-1.2V219c0-0.4,0.1-1.2,0.3-2.5
		c0.2-1.3,0.6-2.6,1.1-4s1.1-2.6,1.8-3.7c0.7-1.1,1.6-1.6,2.6-1.6c0.7,0,1.1,0.3,1.4,0.8S100.7,209,100.7,209.5L100.7,209.5z
		 M125.7,233.2c0,0.7-0.2,1.3-0.7,1.8s-1.1,1-1.8,1.4c-0.7,0.4-1.4,0.7-2.2,0.9c-0.8,0.2-1.4,0.3-1.9,0.3c-1,0-2-0.1-3.2-0.3
		s-2.1-0.6-2.9-1.2c-0.9-0.7-1.7-1.9-2.2-3.5c-0.6-1.6-1-3.5-1.4-5.8c-0.3-2.2-0.5-4.7-0.6-7.5c-0.1-2.7-0.2-5.6-0.2-8.6
		c0-1.2,0-2.6,0.1-4.2c0.1-1.5,0.2-3.1,0.3-4.8c0.1-1.7,0.3-3.3,0.4-5c0.2-1.7,0.3-3.3,0.5-4.8c0.2-1.1,0.4-2.2,0.6-3.5
		c0.2-1.2,0.5-2.4,0.7-3.6c0.3-1.1,0.6-2.1,0.9-3.1c0.3-0.9,0.7-1.6,1.1-1.9c0.5-0.5,1.1-0.7,1.8-0.9c0.8-0.1,1.5-0.2,2.1-0.2
		c1.3,0,2.3,0.3,3.1,1c0.8,0.7,1.4,1.6,1.8,2.8s0.7,2.5,0.8,4c0.1,1.5,0.2,3.1,0.2,4.8c0,2.6-0.1,5.4-0.3,8.4
		c-0.2,3-0.5,6.1-1.1,9.1c-0.5,3.1-1.3,6-2.3,8.9s-2.3,5.5-3.9,7.9c0.1,0.8,0.2,1.7,0.3,2.8c0.1,1,0.4,2,0.6,2.9
		c0.3,0.9,0.6,1.7,1.1,2.3s1,0.9,1.8,0.9c0.7,0,1.2-0.2,1.6-0.5s0.7-0.7,1.1-1.1c0.3-0.4,0.6-0.7,0.9-1.1c0.3-0.3,0.7-0.5,1.2-0.5
		c0.6,0,0.9,0.2,1.1,0.5C125.6,232.4,125.7,232.7,125.7,233.2L125.7,233.2z M119.4,193.4c0-0.6,0-1.2,0-2s-0.1-1.6-0.3-2.3
		c-0.1-0.8-0.3-1.4-0.6-1.9c-0.2-0.5-0.5-0.8-0.9-0.8c-0.6,0-1,0.8-1.4,2.4c-0.3,1.6-0.6,3.7-0.8,6.2c-0.2,2.6-0.3,5.5-0.4,8.7
		s-0.1,6.5-0.1,9.9v3c0,1,0.1,2,0.2,2.8c1.9-4.5,3.1-8.8,3.6-13C119.1,202.1,119.4,197.8,119.4,193.4L119.4,193.4z M153.7,211.4
		c-0.2,0.3-0.4,0.8-0.6,1.4c-0.2,0.6-0.5,1.2-0.8,1.9s-0.7,1.4-1.2,2.2s-1.2,1.5-2,2.2c0-1,0-1.9-0.1-2.8c-0.1-0.9-0.1-1.8-0.3-2.5
		c-0.2-1.4-0.4-2.8-0.7-4.2s-0.7-2.4-1.3-3c-0.7-0.8-1.5-1.7-2.3-2.6c-0.8-0.9-1.7-1.7-2.5-2.3c-0.8-0.7-1.7-1.2-2.6-1.7
		c-0.9-0.5-1.8-0.7-2.7-0.7c-0.7,0-1.6,0.2-2.5,0.5s-1.7,0.9-2.5,1.7c-0.7,0.8-1.5,2-2.3,3.6c-0.8,1.5-1.5,3.2-2.1,5.2
		c-0.6,1.9-1.1,3.9-1.6,6c-0.4,2.1-0.6,4.2-0.6,6.2c0,1.2,0.1,2.4,0.3,3.7c0.2,1.3,0.5,2.5,1,3.7s1.2,2.4,2.1,3.4
		c0.9,1.1,2.1,2,3.5,2.8c0.5,0.3,1,0.6,1.6,0.8c0.6,0.3,1.3,0.5,1.9,0.7c0.7,0.2,1.3,0.4,2,0.5c0.6,0.1,1.2,0.2,1.7,0.2
		c1.5,0,2.9-0.4,4-1.3c1.2-0.9,2.1-1.9,3-3.2c0.8-1.2,1.5-2.5,1.9-3.8c0.5-1.3,0.7-2.4,0.8-3.2c0.1-0.2,0.1-0.5,0.1-0.9s0.1-1,0.1-2
		c0.6-0.5,1.1-0.9,1.7-1.4c0.5-0.5,1-1.1,1.5-1.7c0.8-1,1.5-2.2,2.2-3.6c0.7-1.4,1.1-3,1.1-4.7c0-0.2-0.1-0.5-0.2-0.8
		c-0.1-0.3-0.3-0.5-0.6-0.5C154.3,210.8,153.9,211,153.7,211.4L153.7,211.4z M144.1,218.7L144.1,218.7v1.6c0,0.3-0.5,0.7-1.6,1.2
		c-1,0.5-2.4,0.8-4,0.8c-2.2,0-3.8-0.5-4.7-1.6c-0.9-1-1.4-2.7-1.4-5c0-1.3,0.2-2.6,0.6-4c0.4-1.4,0.9-2.6,1.5-3.6
		c0.6-1.1,1.3-1.9,2.1-2.6c0.8-0.7,1.6-1,2.5-1c0.8,0,1.6,0.3,2.1,1c0.6,0.6,1,1.5,1.4,2.4c0.4,1,0.6,2,0.8,3.2s0.3,2.3,0.4,3.3
		c0.1,1.1,0.1,2,0.2,2.8C144.1,218,144.1,218.5,144.1,218.7L144.1,218.7z M143.7,225.7c0,0.7-0.1,1.4-0.4,2.3
		c-0.3,0.8-0.6,1.6-1.2,2.4c-0.5,0.7-1.2,1.3-2.1,1.8c-0.9,0.5-1.9,0.7-3.2,0.7c-1,0-1.9-0.2-2.5-0.6c-0.7-0.4-1.2-0.8-1.6-1.4
		c-0.4-0.6-0.6-1.2-0.8-1.9s-0.3-1.3-0.3-1.9l0.1-1.8c1,0.7,1.8,1.1,2.7,1.4c0.8,0.2,2,0.3,3.5,0.3c0.8,0,1.8-0.1,3-0.3
		C142.1,226.4,143,226.1,143.7,225.7L143.7,225.7z M186.6,226.4c-0.1,0.8-0.4,1.7-0.8,2.8c-0.5,1.1-1,2.1-1.7,3.1s-1.5,1.8-2.5,2.5
		c-0.9,0.7-2,1-3.1,1c-1.7,0-3.2-0.6-4.4-1.9c-1.3-1.3-2-3.1-2.3-5.5c-0.3,0.9-0.7,1.9-1.2,3.1c-0.5,1.2-1,2.3-1.7,3.3
		s-1.5,1.9-2.3,2.6c-0.9,0.7-1.9,1.1-3.1,1.1c-0.3,0-0.6,0-0.8-0.1s-0.4-0.1-0.6-0.2c-0.2-0.1-0.4-0.2-0.7-0.2
		c-0.3-0.1-0.6-0.1-1.1-0.1c-1.4,0-2.5-0.4-3.4-1.3c-0.9-0.9-1.7-2-2.2-3.3c-0.6-1.4-1-2.8-1.2-4.4c-0.3-1.6-0.4-3.1-0.4-4.5
		c0-3.4,0.2-6.6,0.6-9.7c0.4-3.1,1-5.7,1.8-8.1c0.8-2.3,1.9-4.2,3.3-5.6c1.4-1.4,3-2.1,4.9-2.1c1.1,0,2,0.1,2.6,0.3s1.1,0.4,1.7,0.7
		c0.5,0.3,1.1,0.5,1.7,0.8c0.6,0.3,1.4,0.5,2.5,0.7c1.2,0.7,2,1.5,2.5,2.4s0.8,1.9,0.9,3c0.1,1.1,0.2,2.2,0.1,3.3
		c-0.1,1.2,0,2.3,0.2,3.4c0,0.1,0.1,0.1,0.4,0.3c0.3,0.1,0.6,0.2,0.9,0.4c0.3,0.1,0.6,0.3,0.9,0.6c0.3,0.3,0.4,0.6,0.4,1v0.3
		c-0.6,1.5-0.9,2.8-1,3.9c-0.1,1.1-0.2,2.5-0.2,4.1c0,0.8,0,1.7,0.1,2.6c0.1,0.9,0.2,1.8,0.4,2.6s0.5,1.5,0.9,2s0.9,0.8,1.5,0.8
		c0.7,0,1.3-0.3,1.8-1s1-1.5,1.4-2.3c0.4-0.9,0.7-1.8,0.9-2.7c0.3-0.9,0.4-1.6,0.5-2c0.1-0.7,0.4-1,0.8-1c0.3,0,0.6,0.2,0.8,0.5
		c0.3,0.3,0.4,0.9,0.4,1.7v0.6C186.7,225.9,186.7,226.1,186.6,226.4L186.6,226.4z M171,212.7c0-0.6-0.1-1.4-0.2-2.2
		c-0.1-0.8-0.3-1.6-0.6-2.4c-0.3-0.7-0.7-1.4-1.3-1.9s-1.3-0.8-2.3-0.8c-1.6,0-2.9,0.7-3.9,2.2c-1,1.4-1.8,3.1-2.3,5.1
		c-0.6,1.9-0.9,4-1.1,6c-0.2,2.1-0.3,3.7-0.3,4.9c0,0.9,0,2,0.1,3.3s0.2,2.5,0.5,3.6c0.2,1.1,0.6,2.1,1,2.9c0.4,0.8,1,1.2,1.7,1.2
		c1.6,0,2.9-0.6,3.8-1.9c0.9-1.3,1.5-2.9,2-4.7c0.5-1.9,0.8-3.9,1-6.1c0.2-2.2,0.4-4.2,0.6-6c0.1-1,0.4-1.6,0.8-1.8
		c0.4-0.3,0.6-0.4,0.6-0.6v-0.8H171z M218.7,221.2l0.1-1.4c0.1-0.6,0-1.3-0.1-1.9c-0.1-0.6-0.5-1-1-1c-0.6,0-0.9,0.2-1.1,0.5
		c-0.2,0.3-0.3,0.7-0.3,1.2c-0.5,4.1-1.2,7-2,8.9s-2,2.8-3.7,2.8c-0.7,0-1.3-0.3-1.7-1c-0.4-0.6-0.7-1.5-0.9-2.6s-0.3-2.4-0.4-3.8
		c-0.1-1.4-0.1-3-0.1-4.5v-8.6c0-3.9,0.1-7.6,0.3-11s0.3-6.5,0.5-9.1s0.3-4.8,0.5-6.4c0.2-1.6,0.3-2.6,0.3-3c0-0.8-0.4-1.3-1.1-1.5
		c-0.7-0.2-1.7-0.3-3-0.3c-0.8,0-1.7,0.1-2.6,0.2c-0.9,0.1-1.9,0.3-2.8,0.6c0.2,0.3,0.4,0.7,0.6,1.2c0.2,0.5,0.3,1,0.5,1.8
		c0.1,0.7,0.2,1.6,0.3,2.7c0.1,1,0.1,2.3,0.1,3.8v2.8c0,1.2,0,2.6,0,4s-0.1,2.9-0.1,4.4s-0.1,2.7-0.1,3.7c-0.6-0.2-1.5-0.6-2.8-1
		c-1.3-0.5-2.6-0.7-3.9-0.7c-1.2,0-2.4,0.5-3.3,1.4c-1,0.9-1.9,2-2.6,3.4c-0.8,1.4-1.4,2.9-1.9,4.5s-1,3.2-1.4,4.7s-0.6,2.8-0.8,3.9
		c-0.2,1.1-0.3,1.9-0.3,2.2v1.4c0,0.6,0,1.5,0.1,2.6s0.3,2.2,0.6,3.4s0.9,2.3,1.6,3.5c0.7,1.1,1.8,2,3.1,2.7
		c0.9,0.5,1.8,0.8,2.6,1.1s1.7,0.5,2.5,0.5c1.2,0,2.3-0.3,3.1-0.9c0.8-0.6,1.5-1.3,2-2.2s1-1.9,1.3-2.9c0.3-1.1,0.6-2.1,0.8-3
		l0.1-0.4c0.7,2.4,1.7,4.1,2.8,5.3c1.1,1.1,2.9,1.7,5.3,1.7c1.6,0,3-0.5,4.2-1.4c1.2-1,2.1-2.1,2.8-3.6c0.7-1.4,1.2-2.9,1.6-4.5
		C218.3,223.8,218.6,222.4,218.7,221.2L218.7,221.2z M200.8,208.9l-0.1,3.1c-0.1,0.9-0.2,2.1-0.3,3.6c-0.2,1.5-0.4,3.1-0.7,4.7
		c-0.3,1.7-0.7,3.3-1.1,5c-0.4,1.7-0.9,3.2-1.4,4.6c-0.5,1.4-1.1,2.5-1.7,3.3c-0.6,0.8-1.3,1.3-2,1.3s-1.2-0.3-1.6-0.8
		c-0.4-0.6-0.7-1.2-0.9-2s-0.4-1.6-0.4-2.5c-0.1-0.9-0.1-1.7-0.1-2.4c0-1.8,0.1-3.9,0.4-6.2c0.3-2.3,0.7-4.5,1.3-6.5
		s1.3-3.7,2.2-5.1c0.9-1.4,1.9-2.1,3-2.1c0.3,0,0.6,0.1,1,0.3s0.8,0.4,1.1,0.6c0.4,0.2,0.7,0.5,0.9,0.7
		C200.7,208.5,200.8,208.7,200.8,208.9L200.8,208.9z M232.9,233.2c0,0.7-0.2,1.3-0.7,1.8s-1.1,1-1.8,1.4s-1.4,0.7-2.2,0.9
		s-1.4,0.3-1.9,0.3c-1,0-2-0.1-3.2-0.3s-2.1-0.6-2.9-1.2c-0.9-0.7-1.7-1.9-2.2-3.5c-0.6-1.6-1-3.5-1.4-5.8c-0.3-2.2-0.5-4.7-0.6-7.5
		c-0.1-2.7-0.2-5.6-0.2-8.6c0-1.2,0-2.6,0.1-4.2c0.1-1.5,0.2-3.1,0.3-4.8s0.3-3.3,0.4-5c0.2-1.7,0.3-3.3,0.5-4.8
		c0.2-1.1,0.4-2.2,0.6-3.5c0.2-1.2,0.5-2.4,0.7-3.6c0.3-1.1,0.6-2.1,0.9-3.1c0.3-0.9,0.7-1.6,1.1-1.9c0.5-0.5,1.1-0.7,1.8-0.9
		c0.8-0.1,1.5-0.2,2.1-0.2c1.3,0,2.3,0.3,3.1,1s1.4,1.6,1.8,2.8c0.4,1.2,0.7,2.5,0.8,4s0.2,3.1,0.2,4.8c0,2.6-0.1,5.4-0.3,8.4
		s-0.5,6.1-1.1,9.1c-0.5,3.1-1.3,6-2.3,8.9s-2.3,5.5-3.9,7.9c0.1,0.8,0.2,1.7,0.3,2.8c0.1,1,0.4,2,0.6,2.9c0.3,0.9,0.6,1.7,1.1,2.3
		s1,0.9,1.8,0.9c0.7,0,1.2-0.2,1.6-0.5c0.4-0.3,0.7-0.7,1.1-1.1c0.3-0.4,0.6-0.7,0.9-1.1c0.3-0.3,0.7-0.5,1.2-0.5
		c0.6,0,0.9,0.2,1.1,0.5C232.8,232.4,232.9,232.7,232.9,233.2L232.9,233.2z M226.6,193.4c0-0.6,0-1.2,0-2s-0.1-1.6-0.3-2.3
		c-0.1-0.8-0.3-1.4-0.6-1.9c-0.2-0.5-0.5-0.8-0.9-0.8c-0.6,0-1,0.8-1.4,2.4c-0.3,1.6-0.6,3.7-0.8,6.2c-0.2,2.6-0.3,5.5-0.4,8.7
		c-0.1,3.2-0.1,6.5-0.1,9.9v3c0,1,0.1,2,0.2,2.8c1.9-4.5,3.1-8.8,3.6-13C226.3,202.1,226.6,197.8,226.6,193.4L226.6,193.4z
		 M258.4,235.1c0-0.7-0.3-1.2-0.8-1.4c-0.6-0.2-1.2-0.3-1.8-0.4v-25.1c0.3-0.1,0.5-0.3,0.5-0.6c0-0.5-0.2-0.8-0.7-1.1
		c-0.5-0.3-1-0.5-1.7-0.6c-0.6-0.2-1.3-0.3-2-0.3c-0.7-0.1-1.3-0.1-1.9-0.1c-0.5,3.2-1,6.4-1.5,9.6c-0.6,3.2-1.2,6-1.9,8.5
		s-1.4,4.5-2.2,6s-1.7,2.3-2.8,2.3c-1,0-1.6-0.9-1.9-2.7c-0.3-1.8-0.5-4.8-0.5-9.1c0-2.8,0.1-5.2,0.2-7.2c0.1-1.9,0.3-3.5,0.5-4.7
		s0.4-2.1,0.7-2.8c0.3-0.6,0.6-1.1,0.9-1.3c0.1-0.1,0.2-0.2,0.4-0.3c0.1-0.1,0.2-0.2,0.2-0.4c0-0.6-0.3-1.1-0.8-1.6
		c-0.6-0.4-1.2-0.8-1.9-1c-0.7-0.3-1.4-0.4-2.1-0.6c-0.7-0.1-1.1-0.2-1.4-0.2c-0.7,0-1.3,0.7-1.8,2s-0.8,3-1,5s-0.4,4.3-0.4,6.7
		c-0.1,2.4-0.1,4.7-0.1,6.9c0,0.6,0,1.5,0.1,2.7s0.2,2.5,0.4,3.9s0.5,2.6,0.9,3.9c0.4,1.2,0.9,2.1,1.6,2.7c0.9,0.7,1.9,1.4,3.1,2
		c1.1,0.7,2.2,1,3.1,1c1.1,0,2-0.4,2.8-1.3c0.8-0.8,1.5-1.9,2.1-3.1c0.6-1.2,1.1-2.6,1.5-4s0.7-2.7,1-3.7v10.8c-1.9,1.4-3.7,3-5.3,5
		c-1.6,1.9-3.1,4.1-4.2,6.3c-1.2,2.3-2.1,4.6-2.8,7s-1,4.8-1,7s0.5,3.8,1.5,4.8s2.8,1.7,5.3,2.2c0.5,0.1,0.8,0.2,1.1,0.3
		c0.3,0.1,0.5,0.2,0.6,0.2c0.1,0.1,0.3,0.1,0.4,0.1c0.1,0,0.4,0,0.6,0c0.7,0,1.3-0.3,1.8-1s1.1-1.3,1.9-1.8c0.1-0.1,0.3-0.2,0.7-0.4
		c0.3-0.2,0.7-0.5,1.1-0.7c0.4-0.3,0.7-0.5,1-0.7s0.5-0.3,0.6-0.4c0.9-0.7,1.6-1.6,2.1-2.6c0.5-1.1,0.8-2.2,1.1-3.5
		c0.2-1.2,0.4-2.5,0.4-3.8s0-2.4,0-3.5v-13.5c0.1-0.2,0.3-0.3,0.6-0.3c0.3,0,0.6-0.1,0.9-0.1c0.3-0.1,0.5-0.2,0.8-0.3
		C258.3,235.9,258.4,235.6,258.4,235.1L258.4,235.1z M249.1,239.3v9.4v0.3c0,0.8-0.1,2.2-0.2,3.9s-0.4,3.6-0.7,5.3
		c-0.4,1.8-0.9,3.3-1.6,4.7c-0.7,1.3-1.7,2-2.9,2c-0.8,0-1.5-0.2-1.9-0.7s-0.7-1-1-1.7c-0.2-0.6-0.4-1.3-0.4-1.9s0-1.1,0-1.4
		c0-1.4,0.2-3,0.6-4.8c0.4-1.9,1-3.7,1.7-5.6c0.8-1.9,1.7-3.7,2.8-5.4C246.5,241.8,247.7,240.4,249.1,239.3z"/>
</g>
</svg>
