<?xml version="1.0" encoding="utf-8"?>
<!-- Generator: Adobe Illustrator 23.0.4, SVG Export Plug-In . SVG Version: 6.00 Build 0)  -->
<svg version="1.1" id="Layer_1" xmlns="http://www.w3.org/2000/svg" xmlns:xlink="http://www.w3.org/1999/xlink" x="0px" y="0px"
	 viewBox="0 0 280.4 80.6" style="enable-background:new 0 0 280.4 80.6;" xml:space="preserve">
<style type="text/css">
	.st0{fill-rule:evenodd;clip-rule:evenodd;fill:#1FBAD6;}
	.st1{fill:#FFFFFF;}
</style>
<g>
	<path class="st0" d="M61.2,62.5l17.2,17H28.9v-4v-3.4v-2.8V53.5v-1.9V30.7l18.3,18c3.1-2.9,5-7.1,5-11.7c0-9-7.3-16.2-16.2-16.2
		S19.9,28,19.8,36.9l0,0V37v32v10.5H0V37C0,17.1,16.1,1,35.9,1s35.9,16.1,35.9,35.9C71.9,47,67.8,56,61.2,62.5z"/>
</g>
<g>
	<path class="st1" d="M101.8,30.6l-1.4,7.8c-1.1-0.3-2-0.4-2.7-0.4c-1.8,0-3.2,0.6-4.2,1.9s-1.8,3.2-2.3,5.7v15.7H83V31h7l0.7,5.9
		c0.7-2.1,1.8-3.8,3.2-5c1.4-1.2,3-1.8,4.7-1.8C99.6,30.1,100.7,30.3,101.8,30.6z"/>
	<path class="st1" d="M127.8,48.6h-18.9c0.3,2.7,1,4.7,2.2,5.8s2.9,1.7,5,1.7c1.3,0,2.5-0.2,3.7-0.6c1.1-0.4,2.4-1.1,3.7-2l3.4,4.6
		c-3.4,2.7-7.2,4.1-11.5,4.1c-4.8,0-8.4-1.4-11-4.3s-3.8-6.7-3.8-11.6c0-3.1,0.5-5.9,1.6-8.3c1.1-2.5,2.7-4.4,4.7-5.8
		c2.1-1.4,4.5-2.1,7.4-2.1c4.3,0,7.7,1.4,10.1,4.1s3.6,6.5,3.6,11.3C128,45.9,127.9,46.9,127.8,48.6z M119.9,43.2
		c0-5-1.8-7.6-5.4-7.6c-1.7,0-3,0.6-3.9,1.9c-0.9,1.2-1.5,3.3-1.7,6h11V43.2z"/>
	<path class="st1" d="M133.9,60.1c-1.4-1.4-2.1-3.5-2.1-6.1V18.9L140,18v35.8c0,1.3,0.6,2,1.7,2c0.6,0,1.1-0.1,1.6-0.3l1.7,5.8
		c-1.6,0.7-3.3,1-5.2,1C137.2,62.2,135.3,61.5,133.9,60.1z"/>
	<path class="st1" d="M170.5,34.4c2.6,2.8,3.8,6.8,3.8,11.8c0,3.2-0.6,6-1.7,8.4c-1.2,2.4-2.8,4.3-5,5.6s-4.8,2-7.8,2
		c-4.5,0-8.1-1.4-10.7-4.3c-2.6-2.8-3.9-6.8-3.9-11.8c0-3.2,0.6-6,1.7-8.4c1.2-2.4,2.8-4.3,5-5.6c2.2-1.3,4.8-2,7.8-2
		C164.4,30.1,167.9,31.5,170.5,34.4z M155.2,38.6c-1,1.6-1.5,4.1-1.5,7.6c0,3.4,0.5,6,1.5,7.6s2.5,2.4,4.5,2.4s3.5-0.8,4.5-2.4
		c1-1.6,1.5-4.1,1.5-7.6c0-3.4-0.5-6-1.5-7.6s-2.5-2.4-4.5-2.4C157.8,36.2,156.2,37,155.2,38.6z"/>
	<path class="st1" d="M201.9,55.5c0.3,0.6,0.9,1,1.7,1.2l-1.7,5.4c-1.8-0.2-3.3-0.6-4.4-1.3s-2-1.8-2.6-3.2c-2,3.1-5,4.6-9.1,4.6
		c-3,0-5.4-0.9-7.2-2.6c-1.8-1.7-2.7-4-2.7-6.8c0-3.3,1.2-5.9,3.6-7.6c2.4-1.8,5.9-2.6,10.4-2.6h3.5v-1.5c0-1.9-0.4-3.2-1.3-3.9
		c-0.8-0.7-2.2-1.1-4.2-1.1c-2.1,0-4.8,0.5-8,1.6l-1.8-5.4c3.8-1.5,7.5-2.2,11.2-2.2c4.1,0,7.2,0.9,9.1,2.7s2.9,4.4,2.9,7.9v12.2
		C201.4,54.1,201.6,55,201.9,55.5z M193.4,53v-5.8h-2.7c-4.4,0-6.6,1.6-6.6,4.9c0,1.3,0.3,2.4,1,3.1c0.7,0.7,1.6,1.1,2.9,1.1
		C190.3,56.4,192.1,55.3,193.4,53z"/>
	<path class="st1" d="M234.1,18.9v42.4h-7.2l-0.5-3.7c-2.1,3.1-5,4.6-8.7,4.6s-6.6-1.4-8.6-4.3s-2.9-6.8-2.9-11.8
		c0-3.1,0.5-5.9,1.5-8.3c1-2.4,2.5-4.3,4.3-5.7c1.9-1.4,4-2.1,6.5-2.1c2.8,0,5.3,1,7.4,3V18L234.1,18.9z M223.3,55.3
		c0.9-0.6,1.8-1.5,2.6-2.8V39c-0.8-1-1.6-1.7-2.4-2.1c-0.8-0.5-1.8-0.7-2.8-0.7c-1.9,0-3.3,0.8-4.4,2.5c-1,1.6-1.6,4.2-1.6,7.6
		c0,3.6,0.5,6.2,1.4,7.7s2.3,2.3,4,2.3C221.3,56.2,222.4,55.9,223.3,55.3z"/>
	<path class="st1" d="M242.1,60.1c-1.4-1.4-2.1-3.5-2.1-6.1V18.9l8.1-0.9v35.8c0,1.3,0.6,2,1.7,2c0.6,0,1.1-0.1,1.6-0.3l1.7,5.8
		c-1.6,0.7-3.3,1-5.2,1C245.4,62.2,243.5,61.5,242.1,60.1z"/>
	<path class="st1" d="M270.6,61.4c-1.2,3.9-3.1,6.8-5.8,8.9c-2.6,2.1-6.2,3.3-10.6,3.6l-0.9-5.8c2.9-0.4,5-1.1,6.4-2.1
		s2.5-2.6,3.3-4.7h-2.8L250.9,31h8.6l6.1,25.1L272,31h8.4L270.6,61.4z"/>
</g>
</svg>
