<?xml version="1.0" encoding="utf-8"?>
<!-- Generator: Adobe Illustrator 25.0.0, SVG Export Plug-In . SVG Version: 6.00 Build 0)  -->
<svg version="1.1" id="Layer_1" xmlns="http://www.w3.org/2000/svg" xmlns:xlink="http://www.w3.org/1999/xlink" x="0px" y="0px"
	 viewBox="0 0 698.7 413.7" style="enable-background:new 0 0 698.7 413.7;" xml:space="preserve">
<style type="text/css">
	.st0{fill:none;stroke:#1EB9D5;stroke-width:3;stroke-miterlimit:10;}
	.st1{fill-rule:evenodd;clip-rule:evenodd;fill:#1FBAD6;}
	.st2{fill:#1FBAD6;}
	.st3{fill:none;stroke:#334054;stroke-width:3;stroke-miterlimit:10;}
	.st4{fill:none;stroke:#FF6346;stroke-width:3;stroke-miterlimit:10;}
	.st5{fill:none;stroke:#FFFFFF;stroke-width:3;stroke-miterlimit:10;}
	.st6{fill:#FF6346;}
</style>
<path class="st0" d="M682.3,346v21.8c0,18.2-17.2,32.9-38.1,32.9H84.6c-21.1,0-38.1-14.8-38.1-32.9V101.4
	c0-18.2,17.2-32.9,38.1-32.9h559.6c21.1,0,38.1,14.8,38.1,32.9L682.3,346L682.3,346z"/>
<g>
	<path class="st0" d="M669.3,296.4l1.5,21.8c1.3,18.2-14.8,34-35.8,35.4L76.8,392.4c-21.1,1.5-39.1-12.1-40.3-30.2L18.1,96.5
		c-1.3-18.2,14.8-34,35.8-35.4l558.2-38.7c21.1-1.5,39.1,12.1,40.3,30.2l15.3,221"/>
	<path class="st1" d="M382.6,196.1l27.6,23.7l-74.3,5.2l-5.1-73.3l29.3,25.2c9.1-10,8.3-25.4-1.7-34.5c-10-9.1-25.4-8.3-34.5,1.7
		c-4.4,4.9-6.7,11.3-6.3,17.8l0,0l4.4,64.1l-29.5,2l-4.4-63.8c-2-29.8,20.5-55.5,50.2-57.5c29.8-2,55.5,20.5,57.5,50.2
		C396.9,171.1,392.1,185.2,382.6,196.1L382.6,196.1z"/>
	
		<rect x="89.2" y="284.5" transform="matrix(0.9976 -6.924367e-02 6.924367e-02 0.9976 -20.8653 15.0428)" class="st2" width="234.7" height="47.9"/>
	<line class="st0" x1="150.3" y1="54.1" x2="153.9" y2="106.2"/>
	<line class="st0" x1="162.9" y1="236.7" x2="165.2" y2="269.5"/>
	<line class="st0" x1="250.7" y1="199" x2="256.5" y2="282.5"/>
	<line class="st0" x1="427.9" y1="186.7" x2="433.7" y2="270.2"/>
	<line class="st0" x1="334.3" y1="41.4" x2="339.1" y2="110"/>
	<line class="st0" x1="348.4" y1="244.7" x2="357.3" y2="371.8"/>
	<line class="st0" x1="533.5" y1="27.5" x2="536.1" y2="65"/>
	<line class="st0" x1="546.2" y1="210.1" x2="549.8" y2="262.1"/>
	<line class="st0" x1="294.5" y1="323.1" x2="298.2" y2="376.6"/>
	<line class="st0" x1="405.9" y1="315.3" x2="408.3" y2="350.2"/>
	<line class="st0" x1="580.2" y1="303.2" x2="583.9" y2="356.8"/>
	<line class="st0" x1="119.7" y1="335.2" x2="123.4" y2="388.8"/>
	<line class="st0" x1="207.1" y1="329.1" x2="210.8" y2="382.7"/>
	<line class="st0" x1="493" y1="309.3" x2="496.8" y2="362.8"/>
	
		<rect x="375.4" y="264.7" transform="matrix(0.9976 -6.924367e-02 6.924367e-02 0.9976 -18.8028 34.8127)" width="234.7" height="47.9"/>
	<line class="st0" x1="22" y1="150.2" x2="77.8" y2="146.3"/>
	<line class="st0" x1="212.9" y1="136.9" x2="304.9" y2="130.5"/>
	<line class="st0" x1="596.8" y1="110.3" x2="655.7" y2="106.2"/>
	<line class="st0" x1="370.5" y1="126" x2="462.6" y2="119.6"/>
	<line class="st0" x1="26.5" y1="215.2" x2="65" y2="212.5"/>
	<line class="st0" x1="217.4" y1="201.9" x2="309.4" y2="195.5"/>
	<line class="st0" x1="601.4" y1="175.3" x2="660.2" y2="171.2"/>
	<line class="st0" x1="409.5" y1="188.6" x2="467.1" y2="184.6"/>
	<polyline class="st3" points="203.2,209.8 204.1,222.5 97.2,229.9 90,125.7 104.9,124.7 	"/>
	<polyline class="st3" points="190.5,224.4 191.2,234.2 84.3,241.6 77,137.5 90.2,136.6 	"/>
	<polygon class="st0" points="218.1,208 111.2,215.4 104,111.3 192.5,105.1 194.1,122.7 212.2,121.7 	"/>
	<line class="st0" x1="192.9" y1="104.7" x2="212.6" y2="121.3"/>
	<polyline class="st3" points="587.6,183.1 588.5,195.8 481.6,203.2 474.4,99.1 489.3,98 	"/>
	<polyline class="st3" points="574.9,197.7 575.6,207.5 468.7,215 461.4,110.8 474.6,109.9 	"/>
	<polygon class="st0" points="602.5,181.3 495.6,188.7 488.4,84.6 576.9,78.5 578.5,96 596.5,95.1 	"/>
	<line class="st0" x1="577.3" y1="78.1" x2="596.9" y2="94.6"/>
	<circle class="st4" cx="522.3" cy="127.6" r="8.9"/>
	<path class="st0" d="M509.7,163.3c0,0,5.5-15.5,14-16.1c7.4-0.5,14.1,10.7,14.1,10.7s7.4-44.8,20.9-45.7
		c13.2-0.9,25.5,45.9,25.5,45.9"/>
	<polyline class="st5" points="100.9,328.2 99,301 307.5,286.6 	"/>
	<polyline class="st5" points="387.6,308.3 385.7,281.1 594.2,266.7 	"/>
</g>
<g>
	<path class="st6" d="M167.1,171.9l-17.9,1.2l-3.9,10.4l-6.9,0.5l17.8-45.9l23,43l-6.9,0.5L167.1,171.9z M164.1,166l-7.2-13.8
		l-5.5,14.7L164.1,166z"/>
</g>
<circle class="st0" cx="155.9" cy="136.9" r="2.7"/>
<circle class="st0" cx="180.9" cy="180.9" r="2.7"/>
<path class="st0" d="M181.1,178.2c0,0,3.4-12.5-2.7-24.2c-6-11.7-20-16.2-20-16.2"/>
</svg>
