<?xml version="1.0" encoding="utf-8"?>
<!-- Generator: Adobe Illustrator 23.0.4, SVG Export Plug-In . SVG Version: 6.00 Build 0)  -->
<svg version="1.1" id="Layer_1" xmlns="http://www.w3.org/2000/svg" xmlns:xlink="http://www.w3.org/1999/xlink" x="0px" y="0px"
	 viewBox="0 0 450 450" style="enable-background:new 0 0 450 450;" xml:space="preserve">
<style type="text/css">
	.st0{fill:none;stroke:#334054;stroke-width:4;stroke-miterlimit:10;}
	.st1{fill:none;stroke:#1EB9D5;stroke-width:4;stroke-miterlimit:10;}
	.st2{fill-rule:evenodd;clip-rule:evenodd;fill:#FF6346;}
</style>
<title>m-operators-icon2</title>
<g>
	<polyline class="st0" points="187.1,204.8 190.3,210.4 167.9,249.2 123,249.2 100.6,210.4 123,171.5 167.9,171.5 181,194.2 	"/>
	<path class="st1" d="M141.1,199.5c6-2.4,12.9,0.5,15.3,6.6c2.4,6-0.5,12.9-6.6,15.3c-6,2.4-12.9-0.5-15.3-6.6
		c-0.6-1.4-0.8-2.9-0.8-4.4c0-1.7,0.4-3.4,1.1-4.9"/>
	<polyline class="st0" points="212.8,291.2 206.6,289.6 195,246.2 226.7,214.5 270,226.1 281.6,269.5 249.9,301.2 224.6,294.4 	"/>
	<path class="st1" d="M249.4,262.5c-2.6,5.9-9.5,8.7-15.4,6.1c-5.9-2.6-8.7-9.5-6.1-15.4c2.6-5.9,9.5-8.7,15.4-6.1
		c2.9,1.3,5.2,3.7,6.3,6.7"/>
	<polyline class="st0" points="267,147 268.6,140.8 312,129.2 343.7,160.9 332.1,204.2 288.7,215.8 257,184.1 263.8,158.8 	"/>
	<path class="st1" d="M295.7,183.6c-5.9-2.6-8.7-9.5-6.1-15.4s9.5-8.7,15.4-6.1c5.9,2.6,8.7,9.5,6.1,15.4c-1.3,3-3.7,5.3-6.7,6.4"/>
	<path class="st2" d="M150.4,210.4c0,2.7-2.2,5-4.9,5c-2.7,0-5-2.2-5-4.9c0-2.7,2.2-5,4.9-5c0,0,0,0,0,0
		C148.2,205.4,150.4,207.6,150.4,210.4z"/>
	<path class="st2" d="M243.2,257.8c0,2.7-2.2,5-4.9,5c-2.7,0-5-2.2-5-4.9c0-2.7,2.2-5,4.9-5c0,0,0,0,0,0
		C241,252.9,243.2,255.1,243.2,257.8z"/>
	<path class="st2" d="M305.3,172.5c0,2.7-2.2,5-4.9,5c-2.7,0-5-2.2-5-4.9c0-2.7,2.2-5,4.9-5c0,0,0,0,0,0
		C303.1,167.6,305.3,169.8,305.3,172.5z"/>
</g>
</svg>
