<svg xmlns="http://www.w3.org/2000/svg" viewBox="0 0 450 450"><defs><style>.a,.c{fill:none;stroke-miterlimit:10;stroke-width:6px;}.a{stroke:#334054;}.b{fill:#ff6346;fill-rule:evenodd;}.c{stroke:#1eb9d5;}</style></defs><title>m-op-onboarding-icon</title><path class="a" d="M271.92,155.86S244.45,157,215.51,180,176.79,220.69,188.75,229c10.06,7,29.4-15.86,54.39-26.39,10.91,9.46,64.39,61.07,67.07,65.46,4.26,7,6.89,12.85-.38,20.12s-19.34,1.16-19.34,1.16,3.56,12.89-4.44,19.44-18.77-.1-18.77-.1,4.38,13.91-5.81,19.73-19.72-2.32-19.72-2.32,2.12,15.41-7.33,19.05-17-2.42-30.55-14.54c-15.38-13.82-77.81-77.82-85.81-101.09"/><path class="a" d="M171,159a172.12,172.12,0,0,1,48.91,16"/><path class="a" d="M328.4,233.23s-8.9,18.57-20.53,31.17"/><path class="b" d="M111.81,221.61a9.59,9.59,0,1,1-2-13.41A9.59,9.59,0,0,1,111.81,221.61Z"/><rect class="c" x="69.05" y="164.48" width="117.79" height="38.64" transform="translate(-95.9 176.95) rotate(-53.4)"/><path class="b" d="M347.19,209.25a9.59,9.59,0,1,1-13.41-2.05A9.59,9.59,0,0,1,347.19,209.25Z"/><rect class="c" x="296.49" y="123.8" width="38.64" height="117.79" transform="matrix(0.81, -0.59, 0.59, 0.81, -46.9, 222.16)"/></svg>