<?xml version="1.0" encoding="utf-8"?>
<!-- Generator: Adobe Illustrator 23.0.4, SVG Export Plug-In . SVG Version: 6.00 Build 0)  -->
<svg version="1.1" id="Layer_1" xmlns="http://www.w3.org/2000/svg" xmlns:xlink="http://www.w3.org/1999/xlink" x="0px" y="0px"
	 viewBox="0 0 450 450" style="enable-background:new 0 0 450 450;" xml:space="preserve">
<style type="text/css">
	.st0{fill:none;stroke:#1EB9D5;stroke-width:4;stroke-miterlimit:10;}
	.st1{fill-rule:evenodd;clip-rule:evenodd;fill:#334054;}
	.st2{fill:none;stroke:#FF6346;stroke-width:4;stroke-miterlimit:10;}
	.st3{fill:none;stroke:#334054;stroke-width:4;stroke-miterlimit:10;}
</style>
<g>
	<path class="st0" d="M166.5,284.4c28.3,0,49.1,19.8,84.4,19.8h67c24,0,24.8-20.5,11.6-23.2c13.9-1.5,21.7-20.1,3.1-24.8
		c21.7-4.7,17-23.2,1.6-26.4c21.7-4.6,17-26.3,0-26.3h-83.5c0,0,13-25,10.8-66.6c-1.1-21.7-20.1-24.8-23.2-3.1
		c-3.1,21.7-9.1,46.8-35.4,66.9c-15.5,11.8-37.4,14.4-52.9,14.6"/>
	<path class="st1" d="M143.3,276.3c0,3.6-2.9,6.5-6.4,6.5s-6.5-2.9-6.5-6.4c0-3.6,2.9-6.5,6.4-6.5c0,0,0,0,0,0
		C140.4,269.8,143.2,272.7,143.3,276.3C143.3,276.2,143.3,276.2,143.3,276.3z"/>
	<path class="st2" d="M266.1,113.5c-5.4-19.3-38-21-41.7,11.1c-6.4,55.5-45.5,79.9-114.4,73.2c0,5.1,0.3,14.2,0,18.2"/>
	<rect x="123.8" y="209.8" class="st3" width="26" height="79.2"/>
</g>
</svg>
