<svg xmlns="http://www.w3.org/2000/svg" viewBox="0 0 450 450"><defs><style>.a,.c,.d{fill:none;stroke-miterlimit:10;stroke-width:4px;}.a{stroke:#ff6346;}.b{fill:#334054;}.b,.c,.d{fill-rule:evenodd;}.c{stroke:#1eb9d5;}.d{stroke:#334054;}</style></defs><title>m-operators-icon5</title><line class="a" x1="131.54" y1="195.07" x2="275.09" y2="195.07"/><path class="b" d="M152.63,177.87a5.76,5.76,0,1,1-5.76-5.75A5.76,5.76,0,0,1,152.63,177.87Z"/><path class="b" d="M171,177.87a5.76,5.76,0,1,1-5.76-5.75A5.76,5.76,0,0,1,171,177.87Z"/><path class="b" d="M189.27,177.87a5.76,5.76,0,1,1-5.76-5.75A5.76,5.76,0,0,1,189.27,177.87Z"/><path class="c" d="M163.54,277.12v5.32a12.07,12.07,0,0,0,12.07,12.07H296.26a12.07,12.07,0,0,0,12.07-12.07V204.37c0-6.67-3.27-9.94-9.94-9.94H291"/><path class="d" d="M292,195.43V188a12.08,12.08,0,0,0-12.08-12.07h-3.36"/><path class="d" d="M292,195.43v70.62a12.08,12.08,0,0,1-12.08,12.07H159.23a12.08,12.08,0,0,1-12.08-12.07v-3.37"/><path class="c" d="M276.51,195.43v55.18a12.07,12.07,0,0,1-12.07,12.07H166.68"/><path class="d" d="M279.87,278.12A12.08,12.08,0,0,0,292,266.05V195.43"/><path class="c" d="M276.51,175.91v-3.36a12.07,12.07,0,0,0-12.07-12.07H143.79a12.07,12.07,0,0,0-12.08,12.07v78.06a12.07,12.07,0,0,0,12.08,12.07H264.44a12.07,12.07,0,0,0,12.07-12.07v-74.7Z"/></svg>