<svg xmlns="http://www.w3.org/2000/svg" viewBox="0 0 450 450"><defs><style>.a,.b,.c,.d{fill:none;stroke-miterlimit:10;stroke-width:4px;}.a{stroke:#334054;}.a,.d{fill-rule:evenodd;}.b,.d{stroke:#1eb9d5;}.c{stroke:#ff6346;}</style></defs><title>m-operators-icon4</title><path class="a" d="M278,260.87c-1.39,2.45-5.43,4.59-10.24,5.62,16.49,4.11,9.62,19.06-2.74,20.44,11.67,2.39,11,20.6-10.31,20.6H195.29c-31.25,0-49.8-17.52-74.87-17.52H106.48"/><line class="b" x1="239.28" y1="189.6" x2="348.71" y2="189.6"/><line class="c" x1="219.73" y1="201.98" x2="348.71" y2="201.98"/><path class="d" d="M196.45,214.08l.08,33.84a12.71,12.71,0,0,0,12.72,12.72H336.43a12.72,12.72,0,0,0,12.73-12.72V165.63a12.72,12.72,0,0,0-12.73-12.72H209.25a12.71,12.71,0,0,0-12.72,12.72V187.7"/><path class="a" d="M89.17,290V233.35s40,.33,63.37-17.54,40.89-29.59,60-33.12c30.3-5.62,35.44,13.09,12.72,17.95C199.07,206.25,189,219.87,189,219.87"/></svg>