<?xml version="1.0" encoding="utf-8"?>
<!-- Generator: Adobe Illustrator 23.0.4, SVG Export Plug-In . SVG Version: 6.00 Build 0)  -->
<svg version="1.1" id="Layer_1" xmlns="http://www.w3.org/2000/svg" xmlns:xlink="http://www.w3.org/1999/xlink" x="0px" y="0px"
	 viewBox="0 0 450 450" style="enable-background:new 0 0 450 450;" xml:space="preserve">
<style type="text/css">
	.st0{fill:none;stroke:#1EB9D5;stroke-width:4;stroke-miterlimit:10;}
	.st1{fill:none;stroke:#334054;stroke-width:4;stroke-miterlimit:10;}
	.st2{fill:none;stroke:#FF6346;stroke-width:4;stroke-miterlimit:10;}
	.st3{fill:#FF6346;}
</style>
<g>
	<title>m-operators-icon1</title>
	<path class="st0" d="M146,227.8c0,0,1.3-2.3,2.9-1.3c2.3,0,7.8,0.6,10.9,2.3c4.2-0.4,4.4-0.8,5.1,0.2c0.8,1,3.8-1.9,4,0
		c0.2,1.9-5.1,1.9-6.9,4.6c-1.7,2.7-0.8,4.4,0.6,5.3c1.3,1,4.2-3.3,6.1-4.8s2.5-1.9,4.4-1.7c1.9,0.2,3.6,0.9,4.6,3.6
		c1,2.7-1.7,4.4-2.7,4.8c-1,0.4-2.1-1.5-3.2,1.1c-1.1,2.7-2.3,1.9-5.5,4c-3.2,2.1-5.1,1.1-7.1,4.4c-1.9,3.2-3.8,3.2-4.6,5.5
		c-0.8,2.3-0.4,6.5-1.1,7.3c-0.8,0.7-3.8-6.1-5.5-5.7c-1.7,0.4-3.3,1.3-3.4,4.4c-0.2,3.1-1.7,4.2-1.1,5.1s1.9,1.3,3.6,0.4
		s2.7-2.1,3.1,0.8s1.1,6.3,2.9,8.2s3.2,1.5,4.6,6.1c1.3,4.6,2.5,5.5-0.4,4.4c-2.9-1.1-6.9-5.5-7.6-6.5c-0.8-1-0.2-2.7-3.4-5
		c-3.2-2.3-4.2-3.8-4.6-4.6s-0.4-3.4-0.6-5.1s-2.4,0.6-2.8-2.9c-0.4-3.4-1.6-9.3-0.8-11.6c0.8-2.3,1.7-7.6,3.4-11.3
		c1.7-3.6,2.5-5.7,2.1-7.1C142.3,231.5,143.9,229.4,146,227.8z"/>
	<path class="st0" d="M175.8,225.3c0,0,2.6-0.7,4.1-1.3c1.5-0.6,2.6-0.7,1.7,1.3c-0.9,2-1.5,3-3,2.8c-1.5-0.2-6.1-0.4-5.2-1.3
		C174.3,225.9,175.2,227,175.8,225.3z"/>
	<path class="st0" d="M169.8,290.5c0.3,2.2,3.9,5.5,4.8,7.2c0.9,1.7,2.4,1.1,4.2,2.8c1.8,1.7,2.6,7.6,3.9,9.6c1.3,2,4.6,9,7.2,9.8
		c2,0.6-0.6-2.6,1.1-5.7c1.7-3.1,1.5-5.5,2.4-8.1c0.9-2.6,4.8-1.3,6.8-5.9s2.8-5.7,2.6-8.3s-3.7-2.6-6.3-5.2c-2.6-2.6-4.8-5.9-7.2-7
		c-2.4-1.1-5.5-5-10-5.9c-4.4-0.9-10-1.8-10,2s1.5,5.2-0.2,8.9C167.6,288.3,169.5,287.2,169.8,290.5z"/>
	<path class="st0" d="M220,209.3c-0.8,0.8,0.8,2.8,0.9,4.5s-2.6,0.6-5.9,2.8c-3.2,2.3-0.8,3.8-3.8,3.2c-3-0.6-4.5-4-4.9-6.4
		c-0.4-2.4-4.5-3.2-6.6-2.3c-2.1,1,1.7,1.3,1.1,4.2s-3.4,2.8-4.7,2.6c-1.3-0.2-2.3-0.9-4.2,1.1c-1.9,2.1,0.8,3.4,0.9,5.5
		c0.2,2.1-1.9,3.8-0.8,4c1.1,0.2,3.4-3.2,4.2-0.9c0.8,2.3-2.1,3.4-3,5.9s3,6.2,6,7.5c3,1.3,3.8,0,2.5,2.3c-1.3,2.3-4.5,5.3-6.2,8.3
		s0.8,3,3.6,2.8c2.8-0.2,3.4-0.6,2.8,2.6c-0.6,3.2-1.3,3.8,0.9,4s3.2,0.2,5.3-4c2.1-4.1-1.9-3.8-1.3-7c0.6-3.2,1.1-3,3.2-4.3
		c2.1-1.3-0.9-2.1,0.6-3.2c1.3-0.9,2.4-2,3.4-3.2c1.5-1.7,0.6,0.9,3.2,3.4c2.6,2.5,4.7,6.4,4.7,7.9s-2.5,4.3-0.9,4.5
		c1.5,0.2,1.9-1.1,3-3.2c1.1-2.1,2.5-0.8,3-2.1c0.5-1.1-3-2.1-4.9-5.3c-1.9-3.2-1.5-4-0.2-7.2s4-1.7,5.7-1.3c1.7,0.4-0.6,0.9,1.9,4
		s1.7-0.2,3.4,0.8c1.7,0.9,0-3,2.1-4.5c2.1-1.5,1.3-0.4,3.8,0.2c2.5,0.6,2.3-0.2,1.5-2.6c-0.8-2.5-1.3-1.1-2.3-3.2
		c-0.9-2.1,0.9-2.8,3-3.2"/>
	<path class="st0" d="M238.5,224.1c0,0-5.5,2.3-6.2-0.3c-0.8-2.6,0-3-1.7-4.5c-1.7-1.5-3.6-5.9-3.6-5.9"/>
	<path class="st0" d="M194.7,208.5c0.8-0.1,2.3-0.7,2.6-1.5c0.4-1-1.3-0.9-4.2-0.7c-2.9,0.1-3.1,2.8-4.8,1.2
		c-1.7-1.5-4.4,0.7-5.2,2.1c-0.8,1.4,2.9,0.3,3.8,0.2c0.9-0.2-0.9,1.8,1.5,1.7c2.4-0.2,5.1-0.2,3.5,1.1c-1.1,0.9-1.3,1.6-0.3,1.5
		c1.9-0.1,2.4-0.2,3.4-1.1c1.1-0.9,1-1.7-0.1-2.8C194.4,209.4,194,208.6,194.7,208.5z"/>
	<path class="st0" d="M206.5,203.4c-0.7,2-2.4,3.9-0.9,4.6c1.5,0.8,2.1,1.9,2.7,3.9c0.8,2.4,2.8,0.6,4.4-0.3l1.7-0.9
		c0,0,1.1,1.4,1.2,0.2c0.2-1.2-0.9-2-3.1-3.7c-2.1-1.7-3.7-2.6-3.4-3.1"/>
	<path class="st0" d="M249.8,246.9c0,0-2.8-2.5-3-0.8s-1.5,1.5-3.8,0c-2.3-1.5-3.8-2.1-6.3,3.8c-2.5,5.9-2.3,6.9-2.1,11.2
		c0.2,4.4-2.9,2.5-0.6,7.6c2.3,5.1,4.2,5.7,6.7,5c2.5-0.8,5.5-4,4.6,2.3c-1,6.3-2.6,5.5-3.2,9.3c-0.6,3.8-3.8,9.7-7.8,13.3
		s-7.1,6.3-7.3,8.2c-0.2,1.9-0.4,4,0.2,4.6"/>
	<path class="st1" d="M251.5,261.7c0,33-26.7,59.7-59.7,59.7s-59.7-26.7-59.7-59.7s26.7-59.7,59.7-59.7l0,0
		C224.8,202,251.5,228.7,251.5,261.7z"/>
	<path class="st2" d="M241.9,214.8c25.8,27.6,24.3,70.9-3.3,96.7c-27.6,25.8-70.9,24.3-96.7-3.3s-24.3-70.9,3.3-96.7
		c20.5-19.1,50.5-23.8,75.8-11.9"/>
	<circle class="st3" cx="241.7" cy="214.1" r="3.7"/>
</g>
</svg>
