<svg xmlns="http://www.w3.org/2000/svg" viewBox="0 0 450 450"><defs><style>.a,.b,.d{fill:none;stroke-miterlimit:10;stroke-width:4px;}.a{stroke:#334054;}.a,.c,.d{fill-rule:evenodd;}.b{stroke:#ff6346;}.c{fill:#334054;}.d{stroke:#1eb9d5;}</style></defs><title>m-operators-icon6</title><path class="a" d="M95.36,277.5h13.23c23.79,0,41.38,16.63,71,16.63H236c24.14,0,27.33-20,5.33-20-10,0-24.21-.51-47.91-.7-6.39.35-40.23,2.29-43.42-35,0,0,20.06-1.42,47.21,14,15.59,8.86,31-6.53,4.19-19.11-17.39-8.16-35.66-17-58.73-16.85-27.89.22-63.72,2-63.72,2v59"/><line class="b" x1="227.48" y1="179.59" x2="372.27" y2="179.59"/><path class="c" d="M247.84,163.36a5.06,5.06,0,1,1-5.06-5.06A5.06,5.06,0,0,1,247.84,163.36Z"/><path class="c" d="M263.94,163.36a5.06,5.06,0,1,1-5.06-5.06A5.05,5.05,0,0,1,263.94,163.36Z"/><path class="c" d="M280.05,163.36A5.06,5.06,0,1,1,275,158.3,5.06,5.06,0,0,1,280.05,163.36Z"/><path class="d" d="M227.38,181.62l.1-24.56A12.06,12.06,0,0,1,239.55,145H360.2a12.06,12.06,0,0,1,12.07,12.07v78.06A12.07,12.07,0,0,1,360.2,247.2H239.55a12.07,12.07,0,0,1-12.07-12.08V203.9"/></svg>