<svg xmlns="http://www.w3.org/2000/svg" viewBox="0 0 584.44 528.77"><defs><style>.a,.b,.d,.e,.f,.g,.h,.i,.j,.k,.l,.m,.n,.o,.p,.q,.r,.s,.t,.w{fill:none;}.a,.b,.d,.e,.f,.g,.h,.i,.j,.k,.l,.m,.n,.o,.p{stroke:#1eb9d5;stroke-linecap:round;stroke-linejoin:round;}.a,.b,.w{stroke-width:4px;}.a,.u,.w,.x{fill-rule:evenodd;}.c{opacity:0.52;}.e{stroke-dasharray:1.85 3.71;}.f{stroke-dasharray:2.11 4.22;}.g{stroke-dasharray:2.03 4.05;}.h{stroke-dasharray:1.94 3.88;}.i{stroke-dasharray:1.96 3.92;}.j{stroke-dasharray:1.87 3.73;}.k{stroke-dasharray:1.91 3.81;}.l{stroke-dasharray:1.98 3.97;}.m{stroke-dasharray:1.87 3.74;}.n{stroke-dasharray:1.99 3.98;}.o{stroke-dasharray:1.86 3.71;}.p{stroke-dasharray:1.99 3.99;}.q,.r{stroke:#1fbad6;}.q,.r,.s,.t,.w{stroke-miterlimit:10;}.r{opacity:0.31;}.s{stroke:#00d19a;}.t{stroke:#fee161;}.u{fill:#1eb9d5;}.v{fill:#1fbad6;}.w{stroke:#ff6346;}.x,.y{fill:#ff6346;}</style></defs><title>m-operators-img</title><path class="a" d="M295.59,356.13a14.72,14.72,0,1,1-10.86-.3"/><path class="b" d="M56.17,76.14H530.25a32.36,32.36,0,0,1,32.36,32.36V370.25a32.35,32.35,0,0,1-32.35,32.35H56.17a32.36,32.36,0,0,1-32.36-32.36V108.49A32.36,32.36,0,0,1,56.17,76.14Z"/><line class="b" x1="332.02" y1="402.61" x2="332.02" y2="471.86"/><line class="b" x1="242.22" y1="414.59" x2="242.22" y2="471.86"/><line class="b" x1="96.87" y1="473.38" x2="478.13" y2="473.38"/><line class="b" x1="24.57" y1="340.96" x2="561.85" y2="340.96"/><g class="c"><line class="d" x1="504.47" y1="269.12" x2="505.47" y2="269.12"/><line class="e" x1="509.17" y1="269.12" x2="540.68" y2="269.12"/><line class="d" x1="542.53" y1="269.12" x2="543.53" y2="269.12"/></g><g class="c"><line class="d" x1="407.83" y1="269.12" x2="408.83" y2="269.12"/><line class="f" x1="413.06" y1="269.12" x2="461.6" y2="269.12"/><line class="d" x1="463.71" y1="269.12" x2="464.71" y2="269.12"/></g><g class="c"><line class="d" x1="307.28" y1="269.12" x2="308.28" y2="269.12"/><line class="g" x1="312.34" y1="269.12" x2="365.05" y2="269.12"/><line class="d" x1="367.08" y1="269.12" x2="368.08" y2="269.12"/></g><g class="c"><line class="d" x1="209.64" y1="269.12" x2="210.64" y2="269.12"/><line class="h" x1="214.52" y1="269.12" x2="264.97" y2="269.12"/><line class="d" x1="266.91" y1="269.12" x2="267.91" y2="269.12"/></g><g class="c"><line class="d" x1="46.96" y1="269.12" x2="47.96" y2="269.12"/><line class="i" x1="51.87" y1="269.12" x2="167.43" y2="269.12"/><line class="d" x1="169.39" y1="269.12" x2="170.39" y2="269.12"/></g><g class="c"><line class="d" x1="504.22" y1="237.86" x2="505.22" y2="237.86"/><line class="j" x1="508.95" y1="237.86" x2="540.67" y2="237.86"/><line class="d" x1="542.53" y1="237.86" x2="543.53" y2="237.86"/></g><g class="c"><line class="d" x1="407.46" y1="237.86" x2="408.46" y2="237.86"/><line class="k" x1="412.27" y1="237.86" x2="461.81" y2="237.86"/><line class="d" x1="463.71" y1="237.86" x2="464.71" y2="237.86"/></g><g class="c"><line class="d" x1="46.96" y1="237.86" x2="47.96" y2="237.86"/><line class="l" x1="51.92" y1="237.86" x2="365.22" y2="237.86"/><line class="d" x1="367.2" y1="237.86" x2="368.2" y2="237.86"/></g><g class="c"><line class="d" x1="504.12" y1="206.6" x2="505.12" y2="206.6"/><line class="m" x1="508.86" y1="206.6" x2="540.66" y2="206.6"/><line class="d" x1="542.53" y1="206.6" x2="543.53" y2="206.6"/></g><g class="c"><line class="d" x1="46.96" y1="206.6" x2="47.96" y2="206.6"/><line class="n" x1="51.93" y1="206.6" x2="461.47" y2="206.6"/><line class="d" x1="463.46" y1="206.6" x2="464.46" y2="206.6"/></g><g class="c"><line class="d" x1="504.43" y1="175.33" x2="505.43" y2="175.33"/><line class="o" x1="509.14" y1="175.33" x2="540.68" y2="175.33"/><line class="d" x1="542.53" y1="175.33" x2="543.53" y2="175.33"/></g><g class="c"><line class="d" x1="46.96" y1="175.33" x2="47.96" y2="175.33"/><line class="n" x1="51.93" y1="175.33" x2="461.47" y2="175.33"/><line class="d" x1="463.46" y1="175.33" x2="464.46" y2="175.33"/></g><g class="c"><line class="d" x1="46.96" y1="144.07" x2="47.96" y2="144.07"/><line class="p" x1="51.94" y1="144.07" x2="540.54" y2="144.07"/><line class="d" x1="542.53" y1="144.07" x2="543.53" y2="144.07"/></g><rect class="q" x="72.87" y="294.17" width="17.93" height="6.25"/><rect class="q" x="170.52" y="257.33" width="17.93" height="43.09"/><rect class="q" x="268.29" y="242.16" width="17.93" height="58.26"/><rect class="q" x="368.34" y="210.9" width="17.93" height="89.53"/><rect class="q" x="464.97" y="159.74" width="17.93" height="140.69"/><rect class="r" x="93.2" y="291.99" width="17.93" height="8.34"/><rect class="r" x="190.86" y="262.62" width="17.93" height="37.71"/><rect class="r" x="288.63" y="247.82" width="17.93" height="52.51"/><rect class="r" x="388.67" y="218.85" width="17.93" height="81.48"/><rect class="r" x="485.31" y="170.62" width="17.93" height="129.71"/><rect class="s" x="210.89" y="296.45" width="17.93" height="3.91"/><rect class="s" x="308.66" y="294.66" width="17.93" height="5.7"/><rect class="s" x="408.7" y="292.27" width="17.93" height="8.09"/><rect class="s" x="505.31" y="289.28" width="17.93" height="11.08"/><rect class="t" x="123.78" y="300.49" width="17.93" height="3.91"/><line class="d" x1="46.96" y1="300.39" x2="543.53" y2="300.39"/><path class="u" d="M45.27,299.12a1.88,1.88,0,1,1,0,2.67A1.88,1.88,0,0,1,45.27,299.12Z"/><path class="u" d="M541.32,299.12a1.88,1.88,0,1,1,0,2.67A1.88,1.88,0,0,1,541.32,299.12Z"/><path class="v" d="M81,323.7h2.81v1.07H78.73l2.61-3.17c.26-.31.48-.59.65-.82a6.26,6.26,0,0,0,.4-.58,1.67,1.67,0,0,0,.28-.82,1.19,1.19,0,0,0-.38-.89,1.28,1.28,0,0,0-.91-.35c-.76,0-1.2.45-1.31,1.35H78.94c.18-1.59,1-2.38,2.4-2.38a2.4,2.4,0,0,1,1.73.65,2.13,2.13,0,0,1,.7,1.62,2.46,2.46,0,0,1-.32,1.21,6.64,6.64,0,0,1-.49.73c-.21.28-.48.61-.81,1Z"/><path class="v" d="M85.07,321a4.52,4.52,0,0,1,.84-2.87,2.2,2.2,0,0,1,3.65,0,5.5,5.5,0,0,1,0,5.84,2.2,2.2,0,0,1-3.65,0A4.69,4.69,0,0,1,85.07,321Zm1.12,0a4.42,4.42,0,0,0,.44,2.08,1.15,1.15,0,0,0,2.21,0,5,5,0,0,0,0-4.09,1.16,1.16,0,0,0-2.21,0A4.15,4.15,0,0,0,86.19,321Z"/><path class="v" d="M93.53,318.3h-1.3l.62-1.07h1.82v7.54H93.53Z"/><path class="v" d="M99.24,325l-.84-.62,1.8-2.46-.24,0h-.17a2.12,2.12,0,0,1-1.58-.69,2.36,2.36,0,0,1-.67-1.67,2.53,2.53,0,0,1,2.52-2.52,2.49,2.49,0,0,1,1.79.73,2.29,2.29,0,0,1,.76,1.72,3.34,3.34,0,0,1-.74,1.9Zm-.59-5.49a1.4,1.4,0,0,0,.42,1,1.37,1.37,0,0,0,1,.42,1.34,1.34,0,0,0,1-.42,1.37,1.37,0,0,0,.42-1,1.43,1.43,0,0,0-2.43-1A1.35,1.35,0,0,0,98.65,319.54Z"/><path class="v" d="M179.57,323.7h2.81v1.07h-5.07l2.62-3.17c.26-.31.47-.59.65-.82s.3-.42.4-.58a1.65,1.65,0,0,0,.27-.82,1.19,1.19,0,0,0-.37-.89,1.28,1.28,0,0,0-.91-.35c-.77,0-1.2.45-1.31,1.35h-1.14c.19-1.59,1-2.38,2.41-2.38a2.42,2.42,0,0,1,1.73.65,2.13,2.13,0,0,1,.7,1.62,2.58,2.58,0,0,1-.32,1.21,8.47,8.47,0,0,1-.49.73c-.21.28-.48.61-.81,1Z"/><path class="v" d="M183.66,321a4.52,4.52,0,0,1,.84-2.87,2.19,2.19,0,0,1,3.64,0,5.5,5.5,0,0,1,0,5.84,2.21,2.21,0,0,1-1.81,1,2.26,2.26,0,0,1-1.83-1A4.69,4.69,0,0,1,183.66,321Zm1.12,0a4.43,4.43,0,0,0,.43,2.08,1.16,1.16,0,0,0,2.22,0,5,5,0,0,0,0-4.09,1.16,1.16,0,0,0-2.21,0A4.15,4.15,0,0,0,184.78,321Z"/><path class="v" d="M191.91,323.7h2.81v1.07h-5.06l2.61-3.17c.26-.31.48-.59.65-.82a4.76,4.76,0,0,0,.4-.58,1.57,1.57,0,0,0,.28-.82,1.22,1.22,0,0,0-.37-.89,1.32,1.32,0,0,0-.92-.35c-.76,0-1.2.45-1.31,1.35h-1.13c.18-1.59,1-2.38,2.4-2.38a2.4,2.4,0,0,1,1.73.65,2.14,2.14,0,0,1,.71,1.62,2.48,2.48,0,0,1-.33,1.21,5.46,5.46,0,0,1-.49.73c-.21.28-.48.61-.8,1Z"/><path class="v" d="M196,321a4.52,4.52,0,0,1,.84-2.87,2.19,2.19,0,0,1,3.64,0,5.5,5.5,0,0,1,0,5.84,2.19,2.19,0,0,1-3.64,0A4.69,4.69,0,0,1,196,321Zm1.11,0a4.42,4.42,0,0,0,.44,2.08,1.15,1.15,0,0,0,2.21,0,5,5,0,0,0,0-4.09,1.16,1.16,0,0,0-2.21,0A4.15,4.15,0,0,0,197.12,321Z"/><path class="v" d="M278.16,323.7H281v1.07H275.9l2.62-3.17c.26-.31.47-.59.65-.82a5.89,5.89,0,0,0,.39-.58,1.57,1.57,0,0,0,.28-.82,1.19,1.19,0,0,0-.37-.89,1.3,1.3,0,0,0-.92-.35c-.76,0-1.19.45-1.3,1.35h-1.14c.18-1.59,1-2.38,2.41-2.38a2.42,2.42,0,0,1,1.73.65,2.13,2.13,0,0,1,.7,1.62,2.48,2.48,0,0,1-.33,1.21,6.36,6.36,0,0,1-.48.73c-.21.28-.48.61-.81,1Z"/><path class="v" d="M282.25,321a4.52,4.52,0,0,1,.84-2.87,2.19,2.19,0,0,1,3.64,0,5.5,5.5,0,0,1,0,5.84,2.21,2.21,0,0,1-1.81,1,2.26,2.26,0,0,1-1.83-1A4.69,4.69,0,0,1,282.25,321Zm1.12,0a4.43,4.43,0,0,0,.43,2.08,1.16,1.16,0,0,0,2.22,0,5,5,0,0,0,0-4.09,1.16,1.16,0,0,0-2.21,0A4.15,4.15,0,0,0,283.37,321Z"/><path class="v" d="M290.5,323.7h2.81v1.07h-5.06l2.61-3.17c.26-.31.48-.59.65-.82a6.26,6.26,0,0,0,.4-.58,1.67,1.67,0,0,0,.28-.82,1.22,1.22,0,0,0-.37-.89,1.32,1.32,0,0,0-.92-.35c-.76,0-1.2.45-1.31,1.35h-1.13c.18-1.59,1-2.38,2.4-2.38a2.4,2.4,0,0,1,1.73.65,2.14,2.14,0,0,1,.71,1.62,2.48,2.48,0,0,1-.33,1.21,5.46,5.46,0,0,1-.49.73c-.21.28-.48.61-.81,1Z"/><path class="v" d="M296.88,318.3h-1.3l.62-1.07H298v7.54h-1.14Z"/><path class="v" d="M376.75,323.7h2.8v1.07h-5.06l2.62-3.17c.26-.31.47-.59.65-.82a5.89,5.89,0,0,0,.39-.58,1.57,1.57,0,0,0,.28-.82,1.19,1.19,0,0,0-.37-.89,1.3,1.3,0,0,0-.92-.35c-.76,0-1.2.45-1.31,1.35H374.7c.18-1.59,1-2.38,2.41-2.38a2.42,2.42,0,0,1,1.73.65,2.13,2.13,0,0,1,.7,1.62,2.48,2.48,0,0,1-.33,1.21,6.36,6.36,0,0,1-.48.73l-.81,1Z"/><path class="v" d="M380.84,321a4.52,4.52,0,0,1,.84-2.87,2.19,2.19,0,0,1,3.64,0,5.5,5.5,0,0,1,0,5.84,2.23,2.23,0,0,1-1.82,1,2.26,2.26,0,0,1-1.82-1A4.69,4.69,0,0,1,380.84,321Zm1.12,0a4.43,4.43,0,0,0,.43,2.08,1.16,1.16,0,0,0,2.22,0,5,5,0,0,0,0-4.09,1.16,1.16,0,0,0-2.21,0A4,4,0,0,0,382,321Z"/><path class="v" d="M389.09,323.7h2.81v1.07h-5.07l2.62-3.17c.26-.31.47-.59.65-.82a6.26,6.26,0,0,0,.4-.58,1.67,1.67,0,0,0,.28-.82,1.19,1.19,0,0,0-.38-.89,1.28,1.28,0,0,0-.91-.35c-.77,0-1.2.45-1.31,1.35H387c.19-1.59,1-2.38,2.41-2.38a2.4,2.4,0,0,1,1.73.65,2.13,2.13,0,0,1,.7,1.62,2.58,2.58,0,0,1-.32,1.21,6.64,6.64,0,0,1-.49.73c-.21.28-.48.61-.81,1Z"/><path class="v" d="M395.26,323.7h2.81v1.07H393l2.61-3.17c.26-.31.48-.59.65-.82a4.76,4.76,0,0,0,.4-.58,1.67,1.67,0,0,0,.28-.82,1.22,1.22,0,0,0-.37-.89,1.32,1.32,0,0,0-.92-.35c-.76,0-1.2.45-1.31,1.35h-1.13c.18-1.59,1-2.38,2.4-2.38a2.4,2.4,0,0,1,1.73.65,2.14,2.14,0,0,1,.71,1.62,2.48,2.48,0,0,1-.33,1.21,5.46,5.46,0,0,1-.49.73c-.21.28-.48.61-.81,1Z"/><path class="v" d="M475.34,323.7h2.8v1.07h-5.06l2.62-3.17c.25-.31.47-.59.64-.82a4.76,4.76,0,0,0,.4-.58,1.57,1.57,0,0,0,.28-.82,1.19,1.19,0,0,0-.37-.89,1.3,1.3,0,0,0-.92-.35c-.76,0-1.2.45-1.31,1.35h-1.13c.18-1.59,1-2.38,2.41-2.38a2.43,2.43,0,0,1,1.73.65,2.16,2.16,0,0,1,.7,1.62,2.48,2.48,0,0,1-.33,1.21,6.36,6.36,0,0,1-.48.73l-.81,1Z"/><path class="v" d="M479.43,321a4.52,4.52,0,0,1,.84-2.87,2.19,2.19,0,0,1,3.64,0,5.5,5.5,0,0,1,0,5.84,2.19,2.19,0,0,1-3.64,0A4.69,4.69,0,0,1,479.43,321Zm1.12,0A4.43,4.43,0,0,0,481,323a1.16,1.16,0,0,0,2.22,0,5,5,0,0,0,0-4.09,1.16,1.16,0,0,0-2.21,0A4,4,0,0,0,480.55,321Z"/><path class="v" d="M487.68,323.7h2.81v1.07h-5.07L488,321.6c.26-.31.47-.59.65-.82a6.26,6.26,0,0,0,.4-.58,1.65,1.65,0,0,0,.27-.82,1.19,1.19,0,0,0-.37-.89,1.28,1.28,0,0,0-.91-.35c-.77,0-1.2.45-1.31,1.35h-1.14c.19-1.59,1-2.38,2.41-2.38a2.42,2.42,0,0,1,1.73.65,2.13,2.13,0,0,1,.7,1.62,2.58,2.58,0,0,1-.32,1.21,6.64,6.64,0,0,1-.49.73c-.21.28-.48.61-.81,1Z"/><path class="v" d="M493.93,321.27v-1a2,2,0,0,0,1-.16,1,1,0,0,0,.44-.91,1.07,1.07,0,0,0-.32-.79,1.16,1.16,0,0,0-.83-.3,1,1,0,0,0-.73.23,1.53,1.53,0,0,0-.37.79H492a2.59,2.59,0,0,1,.72-1.56,2.18,2.18,0,0,1,1.53-.5,2.25,2.25,0,0,1,1.61.59,1.93,1.93,0,0,1,.63,1.5,1.85,1.85,0,0,1-.82,1.61,1.93,1.93,0,0,1,.94,1.79,2.17,2.17,0,0,1-.69,1.66,2.44,2.44,0,0,1-1.75.64,2.24,2.24,0,0,1-2-1,2.61,2.61,0,0,1-.35-1.16h1.1a1.34,1.34,0,0,0,.43.84,1.31,1.31,0,0,0,.88.29,1.22,1.22,0,0,0,.92-.37,1.32,1.32,0,0,0,.36-.95,1.15,1.15,0,0,0-.54-1.08A2,2,0,0,0,493.93,321.27Z"/><path class="w" d="M110.51,222.36S345,254.47,501.13,100.46"/><polygon class="x" points="505.25 96.23 492.51 99.64 501.83 108.97 505.25 96.23"/><path class="y" d="M67.18,213.13v1.53a3.23,3.23,0,0,1,1.51.61,4.78,4.78,0,0,1,1.12,1.42l-1.53.85a2,2,0,0,0-1.79-1.25,1.68,1.68,0,0,0-1.15.4,1.31,1.31,0,0,0-.45,1,1.22,1.22,0,0,0,.37.92,5.33,5.33,0,0,0,1.45.85,15.52,15.52,0,0,1,1.56.81,3.85,3.85,0,0,1,.93.73,3.28,3.28,0,0,1,.89,2.31,3.71,3.71,0,0,1-.8,2.34A3.91,3.91,0,0,1,67.18,227v1.62H65.81v-1.57A4.12,4.12,0,0,1,63.48,226a4.92,4.92,0,0,1-1.19-2.48l1.72-.36a4,4,0,0,0,.86,1.69,2,2,0,0,0,1.41.49,2,2,0,0,0,1.44-.56,1.85,1.85,0,0,0,.57-1.41,1.64,1.64,0,0,0-.48-1.24,4,4,0,0,0-.71-.52c-.32-.19-.72-.39-1.21-.62a5.81,5.81,0,0,1-2-1.25,2.92,2.92,0,0,1-.76-2,3,3,0,0,1,.18-1,2.7,2.7,0,0,1,.52-.88,3.6,3.6,0,0,1,.84-.69,4.6,4.6,0,0,1,1.13-.45v-1.53Z"/><path class="y" d="M79.14,223.54h1.28v1.65H79.14v1.71H77.32v-1.71H71.4l7.74-11.25Zm-1.82,0v-4l-2.78,4Z"/><path class="y" d="M84,213.71v6.47a3.26,3.26,0,0,1,2.39-1.1A3.33,3.33,0,0,1,89,220.23a4.54,4.54,0,0,1,0,5.75,3.39,3.39,0,0,1-5,.13v.79H82.24V213.71Zm4.18,9.44a2.65,2.65,0,0,0-.59-1.78,1.89,1.89,0,0,0-1.51-.7,2.05,2.05,0,0,0-1.58.68,2.88,2.88,0,0,0,0,3.52,1.93,1.93,0,0,0,1.56.68,1.9,1.9,0,0,0,1.51-.68A2.48,2.48,0,0,0,88.17,223.15Z"/><path class="y" d="M91.83,219.29h1.76V220a2.9,2.9,0,0,1,2.08-.92,2.6,2.6,0,0,1,2.07.84,3.4,3.4,0,0,1,.64,2.32v4.66H96.62v-4.25a2.86,2.86,0,0,0-.31-1.55,1.28,1.28,0,0,0-1.11-.44,1.36,1.36,0,0,0-1.25.58,4,4,0,0,0-.36,2v3.67H91.83Z"/></svg>