<?xml version="1.0" encoding="utf-8"?>
<!-- Generator: Adobe Illustrator 23.0.3, SVG Export Plug-In . SVG Version: 6.00 Build 0)  -->
<svg version="1.1" id="Layer_1" xmlns="http://www.w3.org/2000/svg" xmlns:xlink="http://www.w3.org/1999/xlink" x="0px" y="0px"
	 viewBox="0 0 450 450" style="enable-background:new 0 0 450 450;" xml:space="preserve">
<style type="text/css">
	.st0{fill:none;stroke:#334054;stroke-width:4;stroke-miterlimit:10;}
	.st1{fill:#334054;}
	.st2{fill:none;stroke:#FF6346;stroke-width:4;stroke-miterlimit:10;}
	.st3{fill:#1FBAD6;}
</style>
<title>miami</title>
<polyline class="st0" points="372.1,295.9 372.1,334.3 260.8,341.7 242.2,338.6 209,338.6 190.4,341.7 102.2,335.9 "/>
<path class="st0" d="M91.4,335.1l-12.3-0.8v-59l54.5-12.1c0,0-1.1-6.1,1.6-6.6c1.3-0.2,2.6-0.5,3.8-1c0,0,0.7-3.1,3.3-4
	s4.5-1.5,4.5-1.5s1.2-3.8,3.8-4.3c1.2-0.2,2.3-0.5,3.5-0.8l0.3-3.1l16.5-4.5l0.3-3.1l4.8-1.2l4.3-1v2.5c0,0,6.9-1.5,9.7-1.5h8.2
	l0.5-10.9c0,0,8.8-7.4,16.5-6.4V204c0,0-2-4.6,10.1-4.6h0.3c12.1,0,10.1,4.6,10.1,4.6v11.9c11.6,0.5,16.5,6.4,16.5,6.4l0.5,10.9h8.3
	c2.8,0,9.7,1.5,9.7,1.5v-2.5l4.3,1l4.8,1.2l0.3,3.1l16.5,4.5l0.3,3.1c1.1,0.4,2.3,0.6,3.5,0.8c2.6,0.5,3.8,4.3,3.8,4.3
	s1.8,0.7,4.5,1.5s3.3,4,3.3,4c1.2,0.5,2.5,0.8,3.8,1c2.8,0.5,1.7,6.6,1.7,6.6l54.5,12.1v9.1"/>
<polyline class="st0" points="209,338.6 209,279.4 242,279.4 242,338.6 "/>
<line class="st0" x1="209.4" y1="311.9" x2="241.2" y2="311.9"/>
<line class="st0" x1="176.1" y1="233.2" x2="176.1" y2="192.6"/>
<line class="st0" x1="275.9" y1="233.2" x2="275.9" y2="192.6"/>
<line class="st0" x1="225.8" y1="199.3" x2="225.8" y2="155.7"/>
<path class="st0" d="M198.4,233.2c0,0,3.3,0.6,8.1,2v38.6"/>
<path class="st0" d="M252.8,233.2c0,0-3.9-1.3-9.1,2v38.6"/>
<ellipse class="st1" cx="151.2" cy="253" rx="3.8" ry="5.8"/>
<ellipse class="st1" cx="142.4" cy="257.1" rx="2.6" ry="4.1"/>
<ellipse class="st1" cx="136" cy="259.6" rx="1.8" ry="2.9"/>
<ellipse class="st1" cx="300.5" cy="253" rx="3.8" ry="5.8"/>
<ellipse class="st1" cx="309.3" cy="257.1" rx="2.6" ry="4.1"/>
<ellipse class="st1" cx="315.7" cy="259.6" rx="1.8" ry="2.9"/>
<path class="st2" d="M154.2,278.5c0,0,14.2-2,26.1-3.1s42.8-1.7,53.1-1.7s39.8,2.2,47.3,3.1s18.6,2.5,18.6,2.5"/>
<path class="st3" d="M184.6,110.1c0,1-0.8,1.8-1.8,1.8s-1.8-0.8-1.8-1.8c0-1,0.8-1.8,1.8-1.8c0,0,0,0,0,0
	C183.8,108.3,184.6,109.1,184.6,110.1z"/>
<path class="st3" d="M107.2,147.8c0,1-0.8,1.8-1.8,1.8s-1.8-0.8-1.8-1.8c0-1,0.8-1.8,1.8-1.8c0,0,0,0,0,0
	C106.4,146,107.2,146.8,107.2,147.8z"/>
<path class="st3" d="M145.9,147.8c0,1-0.8,1.8-1.8,1.8c-1,0-1.8-0.8-1.8-1.8s0.8-1.8,1.8-1.8c0,0,0,0,0,0
	C145.1,146,145.9,146.8,145.9,147.8z"/>
<path class="st3" d="M184.6,147.8c0,1-0.8,1.8-1.8,1.8c-1,0-1.8-0.8-1.8-1.8s0.8-1.8,1.8-1.8c0,0,0,0,0,0
	C183.8,146,184.6,146.8,184.6,147.8z"/>
<path class="st3" d="M225.9,110.1c0,1-0.8,1.8-1.8,1.8s-1.8-0.8-1.8-1.8c0-1,0.8-1.8,1.8-1.8c0,0,0,0,0,0
	C225,108.3,225.8,109.1,225.9,110.1z"/>
<path class="st3" d="M29.8,182.6c0,1-0.8,1.8-1.8,1.8c-1,0-1.8-0.8-1.8-1.8c0-1,0.8-1.8,1.8-1.8c0,0,0,0,0,0
	C28.9,180.8,29.7,181.7,29.8,182.6z"/>
<path class="st3" d="M29.8,217.2c0,1-0.8,1.8-1.8,1.8c-1,0-1.8-0.8-1.8-1.8c0-1,0.8-1.8,1.8-1.8c0,0,0,0,0,0
	C28.9,215.4,29.7,216.2,29.8,217.2z"/>
<path class="st3" d="M68.5,182.6c0,1-0.8,1.8-1.8,1.8s-1.8-0.8-1.8-1.8c0-1,0.8-1.8,1.8-1.8c0,0,0,0,0,0
	C67.7,180.9,68.5,181.7,68.5,182.6z"/>
<path class="st3" d="M68.5,217.2c0,1-0.8,1.8-1.8,1.8s-1.8-0.8-1.8-1.8c0-1,0.8-1.8,1.8-1.8c0,0,0,0,0,0
	C67.7,215.4,68.5,216.2,68.5,217.2z"/>
<path class="st3" d="M107.2,182.6c0,1-0.8,1.8-1.8,1.8s-1.8-0.8-1.8-1.8c0-1,0.8-1.8,1.8-1.8c0,0,0,0,0,0
	C106.4,180.9,107.2,181.7,107.2,182.6z"/>
<path class="st3" d="M145.9,182.6c0,1-0.8,1.8-1.8,1.8c-1,0-1.8-0.8-1.8-1.8s0.8-1.8,1.8-1.8c0,0,0,0,0,0
	C145.1,180.8,145.9,181.7,145.9,182.6z"/>
<path class="st3" d="M184.6,182.6c0,1-0.8,1.8-1.8,1.8c-1,0-1.8-0.8-1.8-1.8s0.8-1.8,1.8-1.8c0,0,0,0,0,0
	C183.8,180.8,184.6,181.7,184.6,182.6z"/>
<path class="st3" d="M107.2,217.2c0,1-0.8,1.8-1.8,1.8s-1.8-0.8-1.8-1.8c0-1,0.8-1.8,1.8-1.8c0,0,0,0,0,0
	C106.4,215.4,107.2,216.2,107.2,217.2z"/>
<path class="st3" d="M145.9,217c0,1-0.8,1.8-1.8,1.8c-1,0-1.8-0.8-1.8-1.8s0.8-1.8,1.8-1.8c0,0,0,0,0,0
	C145.1,215.2,145.9,216,145.9,217z"/>
<path class="st3" d="M68.5,254.1c0,1-0.8,1.8-1.8,1.8s-1.8-0.8-1.8-1.8c0-1,0.8-1.8,1.8-1.8c0,0,0,0,0,0
	C67.7,252.3,68.5,253.1,68.5,254.1z"/>
<path class="st3" d="M107.2,254.1c0,1-0.8,1.8-1.8,1.8s-1.8-0.8-1.8-1.8c0-1,0.8-1.8,1.8-1.8c0,0,0,0,0,0
	C106.4,252.3,107.2,253.1,107.2,254.1z"/>
<path class="st3" d="M269,147.8c0,1-0.8,1.8-1.8,1.8c-1,0-1.8-0.8-1.8-1.8c0-1,0.8-1.8,1.8-1.8c0,0,0,0,0,0
	C268.2,146,269,146.8,269,147.8z"/>
<path class="st3" d="M307.7,147.8c0,1-0.8,1.8-1.8,1.8c-1,0-1.8-0.8-1.8-1.8c0-1,0.8-1.8,1.8-1.8c0,0,0,0,0,0
	C306.9,146,307.7,146.8,307.7,147.8z"/>
<path class="st3" d="M346.4,217c0-1-0.8-1.8-1.8-1.8c-1,0-1.8,0.8-1.8,1.8s0.8,1.8,1.8,1.8c0,0,0,0,0,0
	C345.6,218.8,346.4,218,346.4,217z"/>
<path class="st3" d="M346.4,254.1c0-1-0.8-1.8-1.8-1.8c-1,0-1.8,0.8-1.8,1.8s0.8,1.8,1.8,1.8c0,0,0,0,0,0
	C345.6,255.9,346.4,255.1,346.4,254.1z"/>
<path class="st3" d="M145.9,110.1c0,1-0.8,1.8-1.8,1.8s-1.8-0.8-1.8-1.8c0-1,0.8-1.8,1.8-1.8c0,0,0,0,0,0
	C145.1,108.3,145.9,109.1,145.9,110.1z"/>
<path class="st3" d="M385.1,217c0-1-0.8-1.8-1.8-1.8c-1,0-1.8,0.8-1.8,1.8c0,1,0.8,1.8,1.8,1.8c0,0,0,0,0,0
	C384.3,218.8,385.1,218,385.1,217z"/>
<path class="st3" d="M423.9,217c0-1-0.8-1.8-1.8-1.8c-1,0-1.8,0.8-1.8,1.8c0,1,0.8,1.8,1.8,1.8c0,0,0,0,0,0
	C423.1,218.8,423.9,218,423.9,217z"/>
<path class="st3" d="M307.7,182.6c0,1-0.8,1.8-1.8,1.8c-1,0-1.8-0.8-1.8-1.8c0-1,0.8-1.8,1.8-1.8c0,0,0,0,0,0
	C306.9,180.9,307.7,181.7,307.7,182.6z"/>
<path class="st3" d="M346.4,182.1c0-1-0.8-1.8-1.8-1.8c-1,0-1.8,0.8-1.8,1.8s0.8,1.8,1.8,1.8c0,0,0,0,0,0
	C345.6,183.9,346.4,183.1,346.4,182.1z"/>
<path class="st3" d="M385.1,182.1c0-1-0.8-1.8-1.8-1.8c-1,0-1.8,0.8-1.8,1.8c0,1,0.8,1.8,1.8,1.8c0,0,0,0,0,0
	C384.3,183.9,385.1,183.1,385.1,182.1z"/>
<path class="st3" d="M307.7,217c0,1-0.8,1.8-1.8,1.8c-1,0-1.8-0.8-1.8-1.8c0-1,0.8-1.8,1.8-1.8c0,0,0,0,0,0
	C306.9,215.2,307.7,216,307.7,217z"/>
<path class="st3" d="M346.4,147.8c0-1-0.8-1.8-1.8-1.8c-1,0-1.8,0.8-1.8,1.8s0.8,1.8,1.8,1.8c0,0,0,0,0,0
	C345.6,149.6,346.4,148.8,346.4,147.8C346.4,147.8,346.4,147.8,346.4,147.8z"/>
</svg>
