<svg xmlns="http://www.w3.org/2000/svg" viewBox="0 0 450 450"><defs><style>.a{fill:#ffe161;}.b,.c{fill:none;stroke:#1fbad6;stroke-miterlimit:10;stroke-width:2px;}.b{fill-rule:evenodd;}.d{fill:#ccc;}</style></defs><title>miami</title><path class="a" d="M252,259.61c.7-11.24,13.34-9.13,13.34,0,0,8.48,2.11,92,2.11,92l-16.86-4.21S251.29,270.84,252,259.61Z"/><polyline class="a" points="273.76 294.02 373.48 305.96 377.94 349.43 377.94 349.43 273.06 350.9 273.76 294.02"/><polyline class="b" points="377.94 311.02 377.94 349.43 266.67 356.77 248.01 353.71 214.86 353.71 196.21 356.77 108.09 350.96"/><path class="b" d="M97.26,350.24l-12.32-.81v-59l54.55-12.12s-1.16-6.11,1.65-6.6a16.19,16.19,0,0,0,3.79-1s.67-3.14,3.31-4,4.45-1.48,4.45-1.48,1.16-3.8,3.8-4.3a22.22,22.22,0,0,0,3.47-.82l.33-3.14,17.5-4.45.33-3.14,3.8-1.16,3.3,1v1.49s7.92-2.48,10.73-2.48h8.25l.5-10.89s8.8-7.35,16.51-6.44V219s-2-4.62,10.07-4.62h.32c12.05,0,10.07,4.62,10.07,4.62v11.89c11.55.49,16.51,6.44,16.51,6.44l.49,10.89h8.26c2.8,0,10.73,2.48,10.73,2.48v-1.49l3.3-1,3.8,1.16.33,3.14,17.5,4.45.33,3.14a21.76,21.76,0,0,0,3.46.82c2.65.5,3.8,4.3,3.8,4.3s1.82.66,4.46,1.48,3.3,4,3.3,4a16.21,16.21,0,0,0,3.8,1c2.8.49,1.65,6.6,1.65,6.6l54.55,12.12v9.14"/><path class="b" d="M160,293.64s14.17-1.95,26.13-3.06,42.81-1.67,53.1-1.67S279,291.14,286.5,292s18.63,2.5,18.63,2.5"/><polyline class="b" points="214.86 353.71 214.86 294.47 247.86 294.47 247.86 353.71"/><line class="c" x1="215.27" y1="327" x2="247.03" y2="327"/><line class="c" x1="181.92" y1="248.26" x2="181.92" y2="207.73"/><line class="c" x1="281.72" y1="248.26" x2="281.72" y2="207.73"/><line class="c" x1="231.6" y1="214.42" x2="231.6" y2="170.76"/><path class="b" d="M204.2,248.26s3.35.62,8.07,2v38.64"/><path class="b" d="M258.67,248.26s-3.86-1.33-9.14,2v38.64"/><ellipse class="c" cx="157.09" cy="268.06" rx="3.75" ry="5.84"/><ellipse class="c" cx="148.29" cy="272.23" rx="2.61" ry="4.06"/><ellipse class="c" cx="141.85" cy="274.74" rx="1.84" ry="2.87"/><ellipse class="c" cx="306.32" cy="268.06" rx="3.75" ry="5.84"/><ellipse class="c" cx="315.12" cy="272.24" rx="2.61" ry="4.06"/><ellipse class="c" cx="321.56" cy="274.74" rx="1.84" ry="2.87"/><path class="d" d="M190.48,125.21a1.81,1.81,0,1,1-1.8-1.8A1.81,1.81,0,0,1,190.48,125.21Z"/><path class="d" d="M113.07,162.87a1.8,1.8,0,1,1-1.8-1.8A1.8,1.8,0,0,1,113.07,162.87Z"/><path class="d" d="M151.76,162.87a1.81,1.81,0,1,1-1.8-1.8A1.81,1.81,0,0,1,151.76,162.87Z"/><path class="d" d="M190.48,162.87a1.81,1.81,0,1,1-1.8-1.8A1.81,1.81,0,0,1,190.48,162.87Z"/><path class="d" d="M231.69,125.21a1.81,1.81,0,1,1-1.8-1.8A1.81,1.81,0,0,1,231.69,125.21Z"/><path class="d" d="M35.59,197.74a1.81,1.81,0,1,1-1.8-1.8A1.81,1.81,0,0,1,35.59,197.74Z"/><path class="d" d="M35.59,232.28a1.81,1.81,0,1,1-1.8-1.8A1.8,1.8,0,0,1,35.59,232.28Z"/><path class="d" d="M74.31,197.74a1.81,1.81,0,1,1-1.8-1.8A1.81,1.81,0,0,1,74.31,197.74Z"/><path class="d" d="M74.31,232.28a1.81,1.81,0,1,1-1.8-1.8A1.8,1.8,0,0,1,74.31,232.28Z"/><path class="d" d="M113,197.74a1.81,1.81,0,1,1-1.81-1.8A1.81,1.81,0,0,1,113,197.74Z"/><path class="d" d="M151.76,197.74a1.81,1.81,0,1,1-1.8-1.8A1.81,1.81,0,0,1,151.76,197.74Z"/><path class="d" d="M190.48,197.74a1.81,1.81,0,1,1-1.8-1.8A1.81,1.81,0,0,1,190.48,197.74Z"/><path class="d" d="M113,232.28a1.81,1.81,0,1,1-1.81-1.8A1.8,1.8,0,0,1,113,232.28Z"/><path class="d" d="M151.76,232.05a1.81,1.81,0,1,1-1.8-1.8A1.81,1.81,0,0,1,151.76,232.05Z"/><path class="d" d="M74.31,269.16a1.81,1.81,0,1,1-1.8-1.8A1.81,1.81,0,0,1,74.31,269.16Z"/><path class="d" d="M113,269.16a1.81,1.81,0,1,1-1.81-1.8A1.81,1.81,0,0,1,113,269.16Z"/><path class="d" d="M274.81,162.87a1.8,1.8,0,1,1-1.8-1.8A1.8,1.8,0,0,1,274.81,162.87Z"/><path class="d" d="M313.54,162.87a1.81,1.81,0,1,1-1.81-1.8A1.81,1.81,0,0,1,313.54,162.87Z"/><path class="d" d="M352.26,232.06a1.81,1.81,0,1,0-1.8,1.8A1.81,1.81,0,0,0,352.26,232.06Z"/><path class="d" d="M352.26,269.17a1.81,1.81,0,1,0-1.8,1.8A1.81,1.81,0,0,0,352.26,269.17Z"/><path class="d" d="M151.76,125.21a1.81,1.81,0,1,1-1.8-1.8A1.81,1.81,0,0,1,151.76,125.21Z"/><path class="d" d="M391,232.06a1.81,1.81,0,1,0-1.8,1.8A1.8,1.8,0,0,0,391,232.06Z"/><path class="d" d="M429.71,232.06a1.81,1.81,0,1,0-1.81,1.8A1.81,1.81,0,0,0,429.71,232.06Z"/><path class="d" d="M313.54,197.74a1.81,1.81,0,1,1-1.81-1.8A1.81,1.81,0,0,1,313.54,197.74Z"/><path class="d" d="M352.26,197.18a1.81,1.81,0,1,0-1.8,1.8A1.81,1.81,0,0,0,352.26,197.18Z"/><path class="d" d="M391,197.18a1.81,1.81,0,1,0-1.8,1.8A1.8,1.8,0,0,0,391,197.18Z"/><path class="d" d="M313.54,232.05a1.81,1.81,0,1,1-1.81-1.8A1.81,1.81,0,0,1,313.54,232.05Z"/><path class="d" d="M352.26,162.87a1.81,1.81,0,1,0-1.8,1.8A1.8,1.8,0,0,0,352.26,162.87Z"/></svg>