<?xml version="1.0" encoding="utf-8"?>
<!-- Generator: Adobe Illustrator 25.0.1, SVG Export Plug-In . SVG Version: 6.00 Build 0)  -->
<svg version="1.1" id="Layer_1" xmlns="http://www.w3.org/2000/svg" xmlns:xlink="http://www.w3.org/1999/xlink" x="0px" y="0px"
	 viewBox="0 0 500 500" style="enable-background:new 0 0 500 500;" xml:space="preserve">
<style type="text/css">
	.st0{fill:#344154;}
	.st1{fill:#4E5E75;}
	.st2{fill:none;stroke:#FEE162;stroke-width:2;stroke-miterlimit:10;}
	.st3{fill:none;stroke:#1CB9D5;stroke-width:2;stroke-miterlimit:10;}
	.st4{fill:none;stroke:#F2644A;stroke-width:2;stroke-miterlimit:10;}
	.st5{fill:#0A7A8A;}
	.st6{fill:none;stroke:#0A7A8A;stroke-width:2;stroke-miterlimit:10;}
	.st7{fill:#F2644A;}
	.st8{fill:none;stroke:#1CB9D5;stroke-width:2;stroke-miterlimit:10;stroke-dasharray:6.47,6.47;}
	.st9{fill:none;stroke:#1CB9D5;stroke-width:2;stroke-miterlimit:10;stroke-dasharray:6.11,6.11;}
</style>
<path class="st0" d="M123,428.7c-23.4,1.9-84.7-33.3-86-131.2s33-64.4,104.3-41.9c13.3,4.2,84,19.3,43,74.2S146.4,426.8,123,428.7z"
	/>
<path class="st1" d="M346,168.8c0-1-0.8-1.8-1.8-1.8c0,0-0.1,0-0.1,0c-1,0-1.9,0.8-1.9,1.8c0,0,0,0,0,0c0,1,0.8,1.8,1.8,1.8
	c0,0,0.1,0,0.1,0l0,0C345.1,170.6,345.9,169.8,346,168.8z"/>
<path class="st1" d="M383.4,168.8c0-1-0.8-1.8-1.8-1.8c0,0-0.1,0-0.1,0c-1,0-1.9,0.8-1.9,1.8c0,0,0,0,0,0c0,1,0.8,1.8,1.8,1.8
	c0,0,0.1,0,0.1,0l0,0C382.6,170.7,383.4,169.9,383.4,168.8z"/>
<path class="st1" d="M464.9,208.4c0-1-0.8-1.8-1.8-1.8c0,0-0.1,0-0.1,0c-1,0-1.8,0.7-1.9,1.7c0,0.1,0,0.1,0,0.2c0,1,0.8,1.8,1.8,1.8
	c0,0,0.1,0,0.1,0l0,0C464.1,210.2,464.9,209.4,464.9,208.4C464.9,208.4,464.9,208.4,464.9,208.4z"/>
<path class="st1" d="M422,168.8c0-1-0.8-1.8-1.8-1.8c0,0-0.1,0-0.1,0c-1,0-1.9,0.8-1.9,1.8c0,0,0,0,0,0c0,1,0.8,1.8,1.8,1.8
	c0,0,0.1,0,0.1,0l0,0C421.2,170.6,422,169.8,422,168.8z"/>
<path class="st1" d="M383.4,208.4c-0.1-1-1-1.7-2-1.6c-0.9,0.1-1.7,0.9-1.6,1.8c0.1,0.9,0.9,1.7,1.8,1.6l0,0l0,0
	C382.7,210.1,383.4,209.4,383.4,208.4C383.4,208.4,383.4,208.4,383.4,208.4L383.4,208.4z"/>
<path class="st1" d="M422.2,208.4c0-1-0.8-1.8-1.8-1.8c0,0-0.1,0-0.1,0c-1,0-1.8,0.7-1.9,1.7c0,0.1,0,0.1,0,0.2c0,1,0.8,1.8,1.8,1.8
	c0,0,0.1,0,0.1,0l0,0C421.4,210.2,422.2,209.4,422.2,208.4C422.2,208.4,422.2,208.4,422.2,208.4z"/>
<path class="st1" d="M383.4,248.2c0-1-0.8-1.8-1.8-1.8c0,0-0.1,0-0.1,0c-1,0-1.8,0.7-1.9,1.7c0,0.1,0,0.1,0,0.2c0,1,0.8,1.8,1.8,1.8
	c0,0,0.1,0,0.1,0l0,0C382.6,250,383.4,249.2,383.4,248.2z"/>
<path class="st1" d="M422.2,248.2c0-1-0.8-1.8-1.8-1.8c0,0-0.1,0-0.1,0c-1,0-1.8,0.7-1.9,1.7c0,0.1,0,0.1,0,0.2c0,1,0.8,1.8,1.8,1.8
	c0,0,0.1,0,0.1,0l0,0C421.4,250.1,422.2,249.2,422.2,248.2z"/>
<path class="st1" d="M464.9,248.2c0-1-0.8-1.8-1.8-1.8c0,0-0.1,0-0.1,0c-1,0-1.8,0.7-1.9,1.7c0,0.1,0,0.1,0,0.2c0,1,0.8,1.8,1.8,1.8
	c0,0,0.1,0,0.1,0l0,0C464.1,250.1,464.9,249.2,464.9,248.2z"/>
<path class="st1" d="M421.3,287.7c0-1-0.8-1.9-1.8-1.9c0,0,0,0,0,0c-1-0.1-1.8,0.7-1.9,1.7c0,0,0,0.1,0,0.1c0,1,0.8,1.8,1.9,1.9l0,0
	c0.9,0.1,1.8-0.6,1.9-1.5C421.3,287.9,421.3,287.8,421.3,287.7z"/>
<path class="st1" d="M346,248.2c0-1-0.8-1.8-1.8-1.8c0,0-0.1,0-0.1,0c-1,0-1.9,0.8-1.9,1.8c0,0,0,0,0,0c0,1,0.8,1.8,1.8,1.8
	c0,0,0.1,0,0.1,0l0,0C345.2,250.1,346,249.2,346,248.2z"/>
<path class="st1" d="M308.8,248.2c0-1-0.8-1.8-1.8-1.8c0,0-0.1,0-0.1,0c-1,0-1.9,0.8-1.9,1.8c0,0,0,0,0,0c0,1,0.8,1.8,1.8,1.8
	c0,0,0.1,0,0.1,0l0,0C307.9,250,308.6,249.2,308.8,248.2z"/>
<path class="st1" d="M421.3,327.9c0-1-0.8-1.8-1.8-1.8c0,0-0.1,0-0.1,0c-1,0-1.9,0.8-1.9,1.8c0,0,0,0,0,0c0,1,0.8,1.8,1.8,1.8
	c0,0,0.1,0,0.1,0l0,0C420.4,329.6,421.2,328.9,421.3,327.9z"/>
<path class="st2" d="M247.6,282.7l0.4,4.2l0.6,6.6c0.2,1.8-1,3.5-2.8,3.7c0,0,0,0,0,0l-21.2,2"/>
<polyline class="st2" points="245,254.6 245.4,258.9 245.7,261.9 "/>
<path class="st2" d="M207.3,242.3l-0.7-7.9c-0.2-1.8,1-3.5,2.8-3.7c0,0,0,0,0,0l29.9-2.8c1.8-0.1,3.4,1.3,3.5,3.1c0,0,0,0,0,0
	l1.6,17.4"/>
<path class="st3" d="M94.9,209.4c3.6,19,5.5,45.8,22.4,49.2c21.7,4.3,14.6-22.3,13.7-44.6c12.1,4.7,33.3-0.8,36.1-21.7
	c9,4.5,15-6.4,9.5-8.7c-5.4-2.3-7.8-14.1-8.2-16.3c-2.3-12.7-7.9-24.4-16.3-32.3"/>
<path class="st4" d="M154.9,203.2c0,0-4.9,0.6-9.2-4.6"/>
<path class="st3" d="M249.1,270.6c0,0,3.2,4.1-3.2,11.9c-3,3.5-7.4,5.6-12.1,5.8"/>
<path class="st3" d="M248.5,278.4c0,0-0.2,6.9-5.2,11.1c-3.7,3.2-26.5,13.7-31.9,15c-5.4,1.3-13.5,8.6-13.5,8.6
	c-9.6,8.7-27.1-3.3-9.8-18.5c4.2-4.1,8.7-12.3,10.5-18.5c2-6.9,3.7-23.9,5.8-26.4c2-2.4,5.2-0.6,5.4,5.2c0.2,5.8-1.3,14.1-0.4,15
	c0.9,0.9,2.8,2.2,14.8-8c8.2-6.9,14.3-11,16.3-12.8c4.1-3.5,8.4,1.5,4.1,5.6c-5,4.8-15,12.4-16.9,14.7c-1.9,2.2-0.9,5.4,1.9,4.6
	c3.3-1.1,6.6-2.4,9.6-4.1c3.2-1.5,5.5-4.4,6.3-7.8c0.4-1.8,3-4.1,4.6-1.7s0.7,8.1-0.8,10.2c-1.9,2.7-4.3,5-7,6.9
	c-3.5,2.6-10.8,4.4-10.8,4.4"/>
<circle class="st5" cx="147.9" cy="163.8" r="4.8"/>
<path class="st6" d="M118.2,150.7c5.8-4.4,15.3-3,21.6-1c3,0.9,6,2.1,9.2,2.1c3.2,0,6.6-1.4,7.8-4.4c1.9-4.5-1.6-11.3,2.6-13.9
	c1.7-1.1,3.8-0.7,5.8-0.3c0,0,8.9,4.5,14.3-4.7s2.5-24.8-8.6-34.4s-19.3,3.6-33.6,6.7c-9,1.9-24.7-6.3-40.6,3.3
	c-10.5,6.3-24.6,18-28,34.7c-3.4,16.6,1.4,31.4,8.9,39c7.5,7.6,18,4.9,23.7,0.2c2.6-2.1,4.2-5.1,5.7-8
	C110,164.2,112.8,154.8,118.2,150.7z"/>
<path class="st2" d="M427.9,131.9c-8.6,6.3-20.8,4.5-27.1-4.2c-6.3-8.6-4.5-20.8,4.2-27.1c2.5-1.8,5.3-3,8.3-3.5"/>
<path class="st2" d="M444.6,77.5c1.5,0.5,3,1,4.4,1.8c12,6.2,16.7,21,10.4,33c-6.2,12-21,16.7-33,10.4c-12-6.2-16.7-21-10.4-33
	c3.4-6.5,9.4-11.1,16.5-12.6"/>
<path class="st7" d="M436.3,116.6V112c-2.5-0.2-4.9-1.4-6.7-3.2c-1.8-2.2-2.7-4.9-2.6-7.8c0-5.9,3.6-10.4,9.2-11.4V85h2.8v4.5
	c1.7,0,3.5,0.4,5,1.1l-0.9,3.1c-1.5-0.8-3.1-1.2-4.8-1.1c-4.5,0-7.4,3.7-7.4,8.2c0,5.1,3.1,8.1,7.2,8.1c1.8,0,3.6-0.3,5.2-1.1
	l0.7,2.9c-1.6,0.8-3.3,1.3-5.1,1.3v4.6L436.3,116.6z"/>
<path class="st7" d="M342.4,219.4l-2.5-3.9c-2.3,1.2-4.9,1.5-7.4,0.9c-2.7-0.9-4.9-2.7-6.3-5.2c-3.2-5-2.5-10.8,1.7-14.5l-2.5-3.9
	l2.4-1.5l2.4,3.8c1.5-0.9,3.1-1.5,4.8-1.7l0.9,3.1c-1.7,0.1-3.3,0.6-4.6,1.6c-3.8,2.4-4.2,7.1-1.8,10.9c2.7,4.3,7,5.1,10.4,3
	c1.5-1,2.8-2.2,3.8-3.8l2.2,2c-0.9,1.5-2.1,2.9-3.6,3.9l2.5,3.9L342.4,219.4z"/>
<path class="st2" d="M314.4,216.9c-6.1-11.2-2-25.3,9.2-31.4c11.2-6.1,25.3-2,31.4,9.2s2,25.3-9.2,31.4c-7.1,3.9-15.8,3.8-22.8-0.3"
	/>
<path class="st8" d="M247.2,219c8.9-8.2,35.7-21,58.1-20.6"/>
<path class="st9" d="M241,216.9c6.5-25.1,39.6-94.8,147-103.8"/>
</svg>
