<?xml version="1.0" encoding="utf-8"?>
<!-- Generator: Adobe Illustrator 24.3.0, SVG Export Plug-In . SVG Version: 6.00 Build 0)  -->
<svg version="1.1" xmlns="http://www.w3.org/2000/svg" xmlns:xlink="http://www.w3.org/1999/xlink" x="0px" y="0px"
	 viewBox="0 0 450 355.4" style="enable-background:new 0 0 450 355.4;" xml:space="preserve">
<style type="text/css">
	.st0{display:none;}
	.st1{display:inline;fill:none;stroke:#FF6346;stroke-width:6;stroke-miterlimit:10;}
	.st2{display:inline;}
	.st3{fill-rule:evenodd;clip-rule:evenodd;fill:none;stroke:#334054;stroke-width:6;stroke-miterlimit:10;}
	.st4{fill:#1FBAD6;}
	.st5{fill:none;stroke:#1FBAD6;stroke-width:6;stroke-miterlimit:10;}
	.st6{fill:none;stroke:#1FBAD6;stroke-width:6;stroke-miterlimit:10;stroke-dasharray:10.3418,10.3418;}
	.st7{fill:none;stroke:#1EB9D5;stroke-width:6;stroke-miterlimit:10;}
	.st8{fill:none;stroke:#334054;stroke-width:6;stroke-miterlimit:10;}
	.st9{display:inline;fill:none;stroke:#1EB9D5;stroke-width:6;stroke-miterlimit:10;}
	.st10{fill:#FF6346;}
	.st11{display:inline;fill-rule:evenodd;clip-rule:evenodd;fill:none;stroke:#334054;stroke-width:6;stroke-miterlimit:10;}
	.st12{display:inline;fill-rule:evenodd;clip-rule:evenodd;fill:none;stroke:#FF6346;stroke-width:6;stroke-miterlimit:10;}
	.st13{fill:none;stroke:#1FBAD6;stroke-width:6;stroke-miterlimit:10;stroke-dasharray:10,10;}
	.st14{fill:#1EB9D5;}
	.st15{display:inline;fill:none;stroke:#334054;stroke-width:6;stroke-miterlimit:10;}
	.st16{fill:none;stroke:#FF6346;stroke-width:6;stroke-miterlimit:10;}
	.st17{fill:#334054;}
	.st18{fill-rule:evenodd;clip-rule:evenodd;fill:none;stroke:#F16349;stroke-width:6;stroke-miterlimit:10;}
	.st19{fill:none;stroke:#1FBAD6;stroke-width:4;stroke-miterlimit:10;}
	.st20{fill:none;stroke:#1FBAD6;stroke-width:4;stroke-miterlimit:10;stroke-dasharray:10.1601,10.1601;}
	.st21{fill:none;stroke:#1EB9D5;stroke-width:4;stroke-miterlimit:10;}
	.st22{display:inline;fill:none;stroke:#FFE161;stroke-width:4;stroke-miterlimit:10;}
	.st23{display:inline;fill:#334054;}
	.st24{fill-rule:evenodd;clip-rule:evenodd;fill:none;stroke:#FF6346;stroke-width:6;stroke-miterlimit:10;}
</style>
<g id="Layer_4_copy" class="st0">
</g>
<g id="Layer_4">
</g>
<g id="Layer_6">
</g>
<g id="Layer_10">
</g>
<g id="Layer_5">
</g>
<g id="Layer_8">
	<g>
		<polyline class="st3" points="197,170.8 171.6,184.2 200.6,213.3 215.3,189.1 		"/>
		<path class="st24" d="M172.1,234.4c-1.7,5.1-4.4,10.4-8.7,15.4c-18.6,21.6-51.7,14.9-51.7,14.9s-0.5-12.2,3.8-25.2
			c-4.2-1.7-10.3-6-10.3-6s7.3-1.7,11.5-4.8c4.9-3.6,10.8-13.9,27.3-19.1c15.1-4.8,33-0.8,33-0.8"/>
		<circle class="st7" cx="256.9" cy="128.5" r="23.1"/>
		<path class="st8" d="M275.7,180.2l-24.6,32.2l-8.1-19.6c-7.7,6.1-12.8,9.3-12.8,9.3l-45-42.2c0,0,2.7-5.1,8-12.8l-20.6-7.7
			l31.1-26l16,2.1c21-20.4,51.3-40.1,89.4-40.1c0.7,36.8-17.7,67.5-36.8,89.5L275.7,180.2z"/>
		<line class="st8" x1="276.5" y1="95.9" x2="301" y2="117.3"/>
	</g>
</g>
<g id="Layer_9">
</g>
<g id="Layer_2">
</g>
<g id="Layer_1">
</g>
<g id="Layer_3">
</g>
</svg>
