<svg xmlns="http://www.w3.org/2000/svg" viewBox="0 0 450 450"><defs><style>.a{fill:none;stroke:#1fbad6;stroke-miterlimit:10;stroke-width:2px;}.b{fill:#ffe161;}.c{fill:#ccc;}</style></defs><title>montreal</title><path class="a" d="M64,317.43s66.87-24.32,109.43-62.82,55.4-75.67,53.37-91.88l7.43-2.7L264,174.89s-13.51,10.81-21.62,31.75-3.23,39.08,18.38,91.77"/><path class="a" d="M249.11,268.12s41.2,4.73,58.77,14.86c17.56.67,39.89,2.28,56.1,20.52"/><path class="a" d="M324,321.65c-39.57-19.4-69.58-29.1-115.47-26.51C160.61,297.84,93.38,334,93.38,334"/><path class="a" d="M307.88,283s-16.57-1.19-53.77-.9"/><path class="a" d="M110.58,334.06S181.33,305.23,248,306.11c47.58.62,84.43,19.53,84.43,19.53l.52,8.94s-24-18.94-82.7-18.94-105.79,18.48-105.79,18.48l-60.64-.2"/><path class="a" d="M273.11,282.06s18.43,3.42,18.89,21.44"/><path class="a" d="M289,282.29s18.52,3.69,24.5,21.35"/><path class="a" d="M308.83,283s20.14,3.83,25.22,20.93"/><path class="a" d="M328.36,284.81s17.23,5.25,21.75,19.13"/><path class="b" d="M180.52,288.84s24.24-19.79,37-44.81a155.59,155.59,0,0,0,12-31.42l4.62,3.24s-5.08,18.28,5.55,45.27c10.19,25.88,12.09,31.37,12.09,31.37Z"/><line class="a" x1="281.42" y1="303.84" x2="386.03" y2="303.76"/><path class="c" d="M314.61,123.21a1.81,1.81,0,1,1-1.81-1.8A1.81,1.81,0,0,1,314.61,123.21Z"/><path class="c" d="M352.26,123.21a1.81,1.81,0,1,1-1.8-1.8A1.81,1.81,0,0,1,352.26,123.21Z"/><path class="c" d="M151.76,160.87a1.81,1.81,0,1,1-1.8-1.8A1.81,1.81,0,0,1,151.76,160.87Z"/><path class="c" d="M190.48,160.87a1.81,1.81,0,1,1-1.8-1.8A1.81,1.81,0,0,1,190.48,160.87Z"/><path class="c" d="M35.59,230.05a1.81,1.81,0,1,1-1.8-1.8A1.81,1.81,0,0,1,35.59,230.05Z"/><path class="c" d="M74.31,195.74a1.81,1.81,0,1,1-1.8-1.8A1.81,1.81,0,0,1,74.31,195.74Z"/><path class="c" d="M113,195.74a1.81,1.81,0,1,1-1.81-1.8A1.81,1.81,0,0,1,113,195.74Z"/><path class="c" d="M151.76,195.74a1.81,1.81,0,1,1-1.8-1.8A1.81,1.81,0,0,1,151.76,195.74Z"/><path class="c" d="M190.48,195.74a1.81,1.81,0,1,1-1.8-1.8A1.81,1.81,0,0,1,190.48,195.74Z"/><path class="c" d="M113,230.05a1.81,1.81,0,1,1-1.81-1.8A1.81,1.81,0,0,1,113,230.05Z"/><path class="c" d="M113,267.16a1.81,1.81,0,1,1-1.81-1.8A1.81,1.81,0,0,1,113,267.16Z"/><path class="c" d="M151.76,230.05a1.81,1.81,0,1,1-1.8-1.8A1.81,1.81,0,0,1,151.76,230.05Z"/><path class="c" d="M74.31,230.05a1.8,1.8,0,1,1-1.8-1.8A1.8,1.8,0,0,1,74.31,230.05Z"/><path class="c" d="M74.31,267.16a1.81,1.81,0,1,1-1.8-1.8A1.81,1.81,0,0,1,74.31,267.16Z"/><path class="c" d="M391,267.16a1.81,1.81,0,1,1-1.8-1.8A1.8,1.8,0,0,1,391,267.16Z"/><path class="c" d="M274.81,123.21a1.8,1.8,0,1,1-1.8-1.8A1.8,1.8,0,0,1,274.81,123.21Z"/><path class="c" d="M274.81,160.87a1.8,1.8,0,1,1-1.8-1.8A1.8,1.8,0,0,1,274.81,160.87Z"/><path class="c" d="M313.54,160.87a1.81,1.81,0,1,1-1.81-1.8A1.81,1.81,0,0,1,313.54,160.87Z"/><path class="c" d="M352.26,160.87a1.81,1.81,0,1,1-1.8-1.8A1.81,1.81,0,0,1,352.26,160.87Z"/><path class="c" d="M274.81,195.74a1.8,1.8,0,1,1-1.8-1.8A1.8,1.8,0,0,1,274.81,195.74Z"/><path class="c" d="M313.54,195.74a1.81,1.81,0,1,1-1.81-1.8A1.81,1.81,0,0,1,313.54,195.74Z"/><path class="c" d="M352.26,195.74a1.81,1.81,0,1,1-1.8-1.8A1.81,1.81,0,0,1,352.26,195.74Z"/><path class="c" d="M391,195.74a1.81,1.81,0,1,1-1.8-1.8A1.8,1.8,0,0,1,391,195.74Z"/><path class="c" d="M429.71,195.74a1.81,1.81,0,1,1-1.81-1.8A1.81,1.81,0,0,1,429.71,195.74Z"/><path class="c" d="M274.81,230.05a1.8,1.8,0,1,1-1.8-1.8A1.8,1.8,0,0,1,274.81,230.05Z"/><path class="c" d="M313.54,230.05a1.81,1.81,0,1,1-1.81-1.8A1.81,1.81,0,0,1,313.54,230.05Z"/><path class="c" d="M352.26,230.05a1.81,1.81,0,1,1-1.8-1.8A1.81,1.81,0,0,1,352.26,230.05Z"/><path class="c" d="M352.26,267.16a1.81,1.81,0,1,1-1.8-1.8A1.81,1.81,0,0,1,352.26,267.16Z"/></svg>