<svg xmlns="http://www.w3.org/2000/svg" viewBox="0 0 450 450"><defs><style>.a,.b{fill:none;stroke-miterlimit:10;stroke-width:4px;}.a{stroke:#334054;}.b{stroke:#ff6346;}.c{fill:#1fbad6;}</style></defs><title>montreal</title><path class="a" d="M172.17,280.74a190.56,190.56,0,0,0,27.18-31,247.73,247.73,0,0,0,21.3-36.33l2.92,2.17s-1.69,13.51,4.69,36.41c5.12,18.37,9.76,30.41,9.76,30.41Z"/><path class="a" d="M58.16,314.44S125,290.12,167.6,251.61,223,176,221,159.74l7.43-2.7,29.72,14.86s-13.51,10.81-21.61,31.75-3.24,39.08,18.38,91.77"/><path class="a" d="M243.26,265.12S284.47,269.85,302,280c17.57.67,39.9,2.27,56.11,20.51"/><path class="a" d="M302,280s-16.57-1.19-53.76-.9"/><path class="a" d="M267.26,279.06s18.43,3.43,18.89,21.44"/><path class="a" d="M283.11,279.29s18.36,3.07,24.51,21.36"/><path class="a" d="M303,280s20.13,3.83,25.22,20.92"/><path class="a" d="M322.51,281.81s17.23,5.26,21.76,19.13"/><line class="b" x1="275.58" y1="300.85" x2="401.7" y2="300.76"/><path class="a" d="M318.2,318.65c-39.58-19.39-69.59-29.09-115.47-26.51-48,2.71-115.2,38.89-115.2,38.89"/><path class="a" d="M114,331.07s61.53-28.84,128.24-28c47.58.63,84.43,19.54,84.43,19.54l.51,8.93s-24-18.94-82.69-18.94-105.8,18.48-105.8,18.48L78,330.93"/><path class="c" d="M308.76,120.22a1.81,1.81,0,1,1-1.8-1.8A1.8,1.8,0,0,1,308.76,120.22Z"/><path class="c" d="M346.42,120.22a1.81,1.81,0,1,1-1.81-1.8A1.81,1.81,0,0,1,346.42,120.22Z"/><path class="c" d="M145.92,157.87a1.81,1.81,0,1,1-1.81-1.8A1.81,1.81,0,0,1,145.92,157.87Z"/><path class="c" d="M184.64,157.87a1.81,1.81,0,1,1-1.81-1.8A1.81,1.81,0,0,1,184.64,157.87Z"/><path class="c" d="M29.75,227.06a1.81,1.81,0,1,1-1.81-1.8A1.8,1.8,0,0,1,29.75,227.06Z"/><path class="c" d="M68.47,192.75a1.81,1.81,0,1,1-1.8-1.8A1.8,1.8,0,0,1,68.47,192.75Z"/><path class="c" d="M107.19,192.75a1.81,1.81,0,1,1-1.8-1.8A1.8,1.8,0,0,1,107.19,192.75Z"/><path class="c" d="M145.92,192.75a1.81,1.81,0,1,1-1.81-1.8A1.8,1.8,0,0,1,145.92,192.75Z"/><path class="c" d="M184.64,192.75a1.81,1.81,0,1,1-1.81-1.8A1.8,1.8,0,0,1,184.64,192.75Z"/><path class="c" d="M107.19,227.06a1.81,1.81,0,1,1-1.8-1.8A1.8,1.8,0,0,1,107.19,227.06Z"/><path class="c" d="M107.19,264.17a1.81,1.81,0,1,1-1.8-1.8A1.8,1.8,0,0,1,107.19,264.17Z"/><path class="c" d="M145.92,227.06a1.81,1.81,0,1,1-1.81-1.8A1.8,1.8,0,0,1,145.92,227.06Z"/><path class="c" d="M68.47,227.06a1.81,1.81,0,1,1-1.8-1.8A1.8,1.8,0,0,1,68.47,227.06Z"/><path class="c" d="M68.47,264.17a1.81,1.81,0,1,1-1.8-1.8A1.8,1.8,0,0,1,68.47,264.17Z"/><path class="c" d="M385.14,264.17a1.81,1.81,0,1,1-1.8-1.8A1.8,1.8,0,0,1,385.14,264.17Z"/><path class="c" d="M269,120.22a1.81,1.81,0,1,1-1.8-1.8A1.81,1.81,0,0,1,269,120.22Z"/><path class="c" d="M269,157.87a1.81,1.81,0,1,1-1.8-1.8A1.81,1.81,0,0,1,269,157.87Z"/><path class="c" d="M307.69,157.87a1.81,1.81,0,1,1-1.8-1.8A1.81,1.81,0,0,1,307.69,157.87Z"/><path class="c" d="M346.42,157.87a1.81,1.81,0,1,1-1.81-1.8A1.81,1.81,0,0,1,346.42,157.87Z"/><path class="c" d="M269,192.75a1.81,1.81,0,1,1-1.8-1.8A1.8,1.8,0,0,1,269,192.75Z"/><path class="c" d="M307.69,192.75a1.81,1.81,0,1,1-1.8-1.8A1.8,1.8,0,0,1,307.69,192.75Z"/><path class="c" d="M346.42,192.75a1.81,1.81,0,1,1-1.81-1.8A1.8,1.8,0,0,1,346.42,192.75Z"/><path class="c" d="M385.14,192.75a1.81,1.81,0,1,1-1.8-1.8A1.8,1.8,0,0,1,385.14,192.75Z"/><path class="c" d="M423.86,192.75a1.81,1.81,0,1,1-1.8-1.8A1.8,1.8,0,0,1,423.86,192.75Z"/><path class="c" d="M269,227.06a1.81,1.81,0,1,1-1.8-1.8A1.8,1.8,0,0,1,269,227.06Z"/><path class="c" d="M307.69,227.06a1.81,1.81,0,1,1-1.8-1.8A1.8,1.8,0,0,1,307.69,227.06Z"/><path class="c" d="M346.42,227.06a1.81,1.81,0,1,1-1.81-1.8A1.8,1.8,0,0,1,346.42,227.06Z"/><path class="c" d="M346.42,264.17a1.81,1.81,0,1,1-1.81-1.8A1.8,1.8,0,0,1,346.42,264.17Z"/></svg>