<svg xmlns="http://www.w3.org/2000/svg" viewBox="0 0 450 450"><defs><style>.a{fill:none;stroke:#1fbad6;stroke-miterlimit:10;stroke-width:2px;}.b{fill:#ffe161;}.c{fill:#ccc;}</style></defs><title>montreal</title><path class="a" d="M64,338s66.87-24.32,109.43-62.83,55.4-75.66,53.37-91.87l7.43-2.7L264,195.49s-13.51,10.81-21.62,31.75-3.23,39.08,18.38,91.77"/><path class="a" d="M249.11,288.71s41.2,4.73,58.77,14.87c17.56.67,39.89,2.28,56.1,20.52"/><path class="a" d="M324,342.24c-39.57-19.39-69.58-29.09-115.47-26.5-48,2.7-115.19,38.88-115.19,38.88"/><path class="a" d="M307.88,303.58s-16.57-1.19-53.77-.9"/><path class="a" d="M110.58,354.66s70.75-28.83,137.45-28c47.58.63,84.43,19.54,84.43,19.54l.52,8.93s-24-18.94-82.7-18.94-105.79,18.48-105.79,18.48l-60.64-.19"/><path class="a" d="M273.11,302.66s18.43,3.42,18.89,21.44"/><path class="a" d="M289,302.89s18.52,3.68,24.5,21.35"/><path class="a" d="M308.83,303.61s20.14,3.83,25.22,20.92"/><path class="a" d="M328.36,305.41s17.23,5.25,21.75,19.12"/><path class="b" d="M180.52,309.44s24.24-19.8,37-44.82a155.4,155.4,0,0,0,12-31.41l4.62,3.23s-5.08,18.29,5.55,45.28c10.19,25.88,12.09,31.37,12.09,31.37Z"/><line class="a" x1="281.42" y1="324.44" x2="386.03" y2="324.36"/><path class="c" d="M314.61,143.81a1.81,1.81,0,1,1-1.81-1.8A1.81,1.81,0,0,1,314.61,143.81Z"/><path class="c" d="M352.26,143.81a1.81,1.81,0,1,1-1.8-1.8A1.81,1.81,0,0,1,352.26,143.81Z"/><path class="c" d="M151.76,181.46a1.81,1.81,0,1,1-1.8-1.8A1.81,1.81,0,0,1,151.76,181.46Z"/><path class="c" d="M190.48,181.46a1.81,1.81,0,1,1-1.8-1.8A1.81,1.81,0,0,1,190.48,181.46Z"/><path class="c" d="M35.59,250.65a1.81,1.81,0,1,1-1.8-1.8A1.8,1.8,0,0,1,35.59,250.65Z"/><path class="c" d="M74.31,216.34a1.81,1.81,0,1,1-1.8-1.8A1.81,1.81,0,0,1,74.31,216.34Z"/><path class="c" d="M113,216.34a1.81,1.81,0,1,1-1.81-1.8A1.81,1.81,0,0,1,113,216.34Z"/><path class="c" d="M151.76,216.34a1.81,1.81,0,1,1-1.8-1.8A1.81,1.81,0,0,1,151.76,216.34Z"/><path class="c" d="M190.48,216.34a1.81,1.81,0,1,1-1.8-1.8A1.81,1.81,0,0,1,190.48,216.34Z"/><path class="c" d="M113,250.65a1.81,1.81,0,1,1-1.81-1.8A1.8,1.8,0,0,1,113,250.65Z"/><path class="c" d="M113,287.76a1.81,1.81,0,1,1-1.81-1.8A1.8,1.8,0,0,1,113,287.76Z"/><path class="c" d="M151.76,250.65a1.81,1.81,0,1,1-1.8-1.8A1.8,1.8,0,0,1,151.76,250.65Z"/><path class="c" d="M74.31,250.65a1.8,1.8,0,1,1-1.8-1.8A1.79,1.79,0,0,1,74.31,250.65Z"/><path class="c" d="M74.31,287.76a1.81,1.81,0,1,1-1.8-1.8A1.8,1.8,0,0,1,74.31,287.76Z"/><path class="c" d="M391,287.76a1.81,1.81,0,1,1-1.8-1.8A1.79,1.79,0,0,1,391,287.76Z"/><path class="c" d="M274.81,143.81A1.8,1.8,0,1,1,273,142,1.8,1.8,0,0,1,274.81,143.81Z"/><path class="c" d="M274.81,181.46a1.8,1.8,0,1,1-1.8-1.8A1.8,1.8,0,0,1,274.81,181.46Z"/><path class="c" d="M313.54,181.46a1.81,1.81,0,1,1-1.81-1.8A1.81,1.81,0,0,1,313.54,181.46Z"/><path class="c" d="M352.26,181.46a1.81,1.81,0,1,1-1.8-1.8A1.81,1.81,0,0,1,352.26,181.46Z"/><path class="c" d="M274.81,216.34a1.8,1.8,0,1,1-1.8-1.8A1.8,1.8,0,0,1,274.81,216.34Z"/><path class="c" d="M313.54,216.34a1.81,1.81,0,1,1-1.81-1.8A1.81,1.81,0,0,1,313.54,216.34Z"/><path class="c" d="M352.26,216.34a1.81,1.81,0,1,1-1.8-1.8A1.81,1.81,0,0,1,352.26,216.34Z"/><path class="c" d="M391,216.34a1.81,1.81,0,1,1-1.8-1.8A1.8,1.8,0,0,1,391,216.34Z"/><path class="c" d="M429.71,216.34a1.81,1.81,0,1,1-1.81-1.8A1.81,1.81,0,0,1,429.71,216.34Z"/><path class="c" d="M274.81,250.65a1.8,1.8,0,1,1-1.8-1.8A1.79,1.79,0,0,1,274.81,250.65Z"/><path class="c" d="M313.54,250.65a1.81,1.81,0,1,1-1.81-1.8A1.8,1.8,0,0,1,313.54,250.65Z"/><path class="c" d="M352.26,250.65a1.81,1.81,0,1,1-1.8-1.8A1.8,1.8,0,0,1,352.26,250.65Z"/><path class="c" d="M352.26,287.76a1.81,1.81,0,1,1-1.8-1.8A1.8,1.8,0,0,1,352.26,287.76Z"/></svg>