<?xml version="1.0" encoding="utf-8"?>
<!-- Generator: Adobe Illustrator 25.2.0, SVG Export Plug-In . SVG Version: 6.00 Build 0)  -->
<svg version="1.1" id="Layer_1" xmlns="http://www.w3.org/2000/svg" xmlns:xlink="http://www.w3.org/1999/xlink" x="0px" y="0px"
	 viewBox="0 0 626.6 483.9" style="enable-background:new 0 0 626.6 483.9;" xml:space="preserve">
<style type="text/css">
	.st0{fill:none;stroke:#D8D8D8;stroke-width:0.5;stroke-miterlimit:10;}
	.st1{fill:#1DBAD6;}
</style>
<g>
	<line class="st0" x1="57" y1="421.7" x2="594.3" y2="421.7"/>
	<line class="st0" x1="57" y1="362.8" x2="594.3" y2="362.8"/>
	<line class="st0" x1="57" y1="304.2" x2="594.3" y2="304.2"/>
	<line class="st0" x1="57" y1="245.3" x2="594.3" y2="245.3"/>
	<line class="st0" x1="57" y1="186.5" x2="594.3" y2="186.5"/>
	<line class="st0" x1="57" y1="127.8" x2="594.3" y2="127.8"/>
	<line class="st0" x1="57" y1="69" x2="594.3" y2="69"/>
</g>
<rect x="88.8" y="158.2" class="st1" width="59.1" height="263.7"/>
<g>
	<path d="M111,145.8h1.1v0.9H111v1.7h-1v-1.7h-4.7l5.7-7.9V145.8z M110,145.8v-4l-2.9,4H110z"/>
	<path d="M114.3,147.2c0.4,0,0.7,0.3,0.7,0.7c0,0.4-0.3,0.7-0.7,0.7s-0.7-0.3-0.7-0.7C113.7,147.5,114,147.2,114.3,147.2z"/>
	<path d="M122.4,140.3h-2.9l-0.6,2c0.2,0,0.4-0.1,0.6-0.1c1.8,0,3,1.4,3,3.2c0,2-1.5,3.3-3.3,3.3c-0.7,0-1.4-0.2-2-0.7
		c-0.3-0.2-0.6-0.6-0.8-0.9l0.8-0.6c0.1,0.3,0.3,0.5,0.6,0.7c0.4,0.3,0.8,0.5,1.5,0.5c1.3,0,2.2-1.1,2.2-2.3c0-1.3-0.9-2.2-2.2-2.2
		c-0.3,0-0.9,0.1-1.8,0.6l1.3-4.4h3.6C122.4,139.4,122.4,140.3,122.4,140.3z"/>
	<path d="M124.8,141.6c0-0.5,0.2-1,0.4-1.3c0.6-0.9,1.6-1.1,2.1-1.1c1.7,0,2.6,1.2,2.6,2.5c0,0.7-0.2,1.6-1.2,2
		c0.3,0.1,1.3,0.6,1.3,2.2c0,1.7-1.2,2.7-2.8,2.7c-0.9,0-2-0.4-2.5-1.6c-0.1-0.3-0.2-0.6-0.2-1h1c0,0.3,0.2,0.7,0.3,0.9
		c0.3,0.4,0.8,0.7,1.4,0.7c1,0,1.8-0.8,1.8-1.8c0-0.5-0.2-1.2-0.9-1.5c-0.3-0.1-0.7-0.2-1-0.2v-0.9c0.4,0,0.8,0,1-0.2
		c0.3-0.1,0.8-0.5,0.8-1.4c0-0.8-0.4-1.6-1.6-1.6c-0.4,0-0.8,0.1-1.2,0.5c-0.2,0.2-0.3,0.6-0.4,1h-0.9V141.6z"/>
</g>
<g>
	<path d="M104.4,442l3.3-3.8c0.2-0.3,0.8-1,1.1-1.3c0.4-0.6,0.5-1,0.5-1.4c0-1-0.7-1.8-1.8-1.8c-0.6,0-1.2,0.3-1.5,0.8
		c-0.2,0.3-0.3,0.6-0.3,1.1h-1c0-0.9,0.3-1.5,0.7-1.9c0.4-0.4,1-0.9,2.2-0.9c1.6,0,2.8,1.1,2.8,2.7c0,0.6-0.2,1.2-0.7,2
		c-0.4,0.5-0.9,1.1-1.2,1.5l-1.9,2.1h3.8v0.9L104.4,442L104.4,442z"/>
	<path d="M112.6,440.8c-0.6-0.9-0.9-2-0.9-3.3s0.3-2.5,0.9-3.3c0.7-1,1.6-1.4,2.3-1.4c0.7,0,1.6,0.4,2.3,1.4c0.6,0.9,0.9,2,0.9,3.3
		s-0.3,2.5-0.9,3.3c-0.7,1-1.6,1.4-2.3,1.4C114.2,442.2,113.3,441.8,112.6,440.8z M113.4,434.7c-0.5,0.8-0.7,1.8-0.7,2.8
		s0.2,2,0.7,2.8s1.1,1,1.6,1s1.1-0.2,1.6-1s0.7-1.8,0.7-2.8s-0.2-2-0.7-2.8s-1.1-1-1.6-1S113.9,433.9,113.4,434.7z"/>
	<path d="M121.1,433.8h-1.5l0.5-1h2v9.1h-1V433.8z"/>
	<path d="M130,433.8h-2.9l-0.6,2c0.2,0,0.4-0.1,0.6-0.1c1.8,0,3,1.4,3,3.2c0,2-1.5,3.3-3.3,3.3c-0.7,0-1.4-0.2-2-0.7
		c-0.3-0.2-0.6-0.6-0.8-0.9l0.8-0.6c0.2,0.3,0.3,0.5,0.6,0.7c0.4,0.3,0.8,0.5,1.5,0.5c1.3,0,2.2-1.1,2.2-2.3c0-1.3-0.9-2.2-2.2-2.2
		c-0.3,0-0.9,0.1-1.8,0.6l1.3-4.4h3.6L130,433.8L130,433.8z"/>
</g>
<g>
	<path d="M454.1,468c-0.1-0.2-0.3-0.5-0.5-0.7c-0.2-0.1-0.5-0.3-1-0.3c-0.9,0-1.5,0.6-1.5,1.4c0,0.4,0.1,0.6,0.3,0.8
		c0.3,0.3,0.6,0.4,1,0.6l0.9,0.4c0.5,0.2,1,0.5,1.4,0.9c0.5,0.5,0.7,1,0.7,1.7c0,1.7-1.2,2.8-2.9,2.8c-0.6,0-1.4-0.1-2-0.7
		c-0.5-0.4-0.7-1.1-0.8-1.6l1-0.3c0.1,0.5,0.3,0.9,0.5,1.2c0.4,0.4,0.8,0.5,1.3,0.5c1.2,0,1.8-0.9,1.8-1.8c0-0.4-0.1-0.8-0.5-1.1
		c-0.3-0.2-0.6-0.4-1.1-0.6l-0.8-0.4c-0.4-0.2-0.8-0.4-1.2-0.8c-0.4-0.4-0.6-0.8-0.6-1.5c0-1.4,1.1-2.3,2.6-2.3c0.6,0,1,0.1,1.5,0.4
		c0.4,0.2,0.7,0.6,0.9,1L454.1,468z"/>
	<path d="M456.5,472.4c0-1.7,1.3-3,3-3s3,1.3,3,3s-1.3,3-3,3S456.5,474.2,456.5,472.4z M457.5,472.4c0,1.4,1,2.1,2,2.1s2-0.7,2-2.1
		s-1-2.1-2-2.1S457.5,471.1,457.5,472.4z"/>
	<path d="M465,472.9c0,0.4,0,0.9,0.3,1.2c0.2,0.2,0.5,0.4,1,0.4s0.8-0.2,1-0.4c0.3-0.4,0.3-0.8,0.3-1.2v-3.3h1v3.4
		c0,0.7-0.1,1.2-0.5,1.7c-0.5,0.5-1.2,0.7-1.7,0.7c-0.6,0-1.2-0.2-1.7-0.7s-0.5-1-0.5-1.7v-3.4h1v3.3H465z"/>
	<path d="M470.4,469.6h1v0.6c0.1-0.2,0.5-0.8,1.3-0.8c0.3,0,0.6,0.1,0.9,0.2l-0.5,0.9c-0.2-0.2-0.4-0.2-0.6-0.2
		c-0.4,0-0.6,0.2-0.8,0.4c-0.2,0.2-0.3,0.6-0.3,1.5v3h-1V469.6z"/>
	<path d="M478.5,471.2c-0.5-0.7-1.3-0.8-1.8-0.8c-1.1,0-2,0.7-2,2.1s1,2.1,2,2.1c0.6,0,1.3-0.3,1.8-0.9v1.2
		c-0.6,0.5-1.3,0.6-1.8,0.6c-1.8,0-3-1.3-3-3s1.3-3,3-3c0.9,0,1.5,0.4,1.8,0.5V471.2z"/>
	<path d="M485.1,473.8c-0.2,0.3-0.4,0.7-0.7,0.9c-0.5,0.5-1.2,0.7-1.9,0.7c-1.4,0-2.8-0.9-2.8-3c0-1.7,1-3,2.7-3
		c1.1,0,1.8,0.5,2.1,1c0.4,0.5,0.6,1.4,0.5,2.1h-4.4c0,1.2,0.8,1.9,1.8,1.9c0.5,0,0.8-0.1,1.2-0.4c0.3-0.2,0.5-0.5,0.6-0.8
		L485.1,473.8z M484.1,471.8c-0.2-0.9-0.8-1.5-1.7-1.5s-1.5,0.6-1.7,1.5H484.1z"/>
	<path d="M487.3,469.5c0.4,0,0.7,0.3,0.7,0.7s-0.3,0.7-0.7,0.7c-0.4,0-0.7-0.3-0.7-0.7S486.9,469.5,487.3,469.5z M487.3,474.1
		c0.4,0,0.7,0.3,0.7,0.7s-0.3,0.7-0.7,0.7c-0.4,0-0.7-0.3-0.7-0.7S486.9,474.1,487.3,474.1z"/>
	<path d="M493.2,466.2h1.9c0.9,0,2.2,0.1,3.4,1.1c0.8,0.7,1.6,1.9,1.6,3.5c0,1.9-0.9,2.9-1.6,3.5c-0.8,0.7-1.7,1.1-3.3,1.1h-1.8
		v-9.2H493.2z M494.2,474.3h0.9c0.7,0,1.7-0.1,2.6-0.8c0.7-0.6,1.2-1.5,1.2-2.8c0-2.2-1.5-3.6-3.8-3.6h-0.9L494.2,474.3L494.2,474.3
		z"/>
	<path d="M505.9,469.6h1v5.7h-1v-0.8c-0.3,0.4-0.9,1-1.9,1c-1.4,0-2.8-1-2.8-3s1.3-3,2.8-3c1.1,0,1.7,0.6,1.9,0.9V469.6z
		 M502.2,472.4c0,1.2,0.7,2.1,1.9,2.1c1.2,0,1.9-1,1.9-2.1c0-1.5-1-2.1-1.9-2.1C503.1,470.3,502.2,471,502.2,472.4z"/>
	<path d="M509.7,470.5v4.8h-1v-4.8h-0.6v-0.9h0.6v-2h1v2h1v0.9H509.7z"/>
	<path d="M516,469.6h1v5.7h-1v-0.8c-0.3,0.4-0.9,1-1.9,1c-1.4,0-2.8-1-2.8-3s1.3-3,2.8-3c1.1,0,1.7,0.6,1.9,0.9V469.6z M512.3,472.4
		c0,1.2,0.7,2.1,1.9,2.1s1.9-1,1.9-2.1c0-1.5-1-2.1-1.9-2.1C513.2,470.3,512.3,471,512.3,472.4z"/>
	<path d="M520.5,466.2c0.6,0,1.5,0,2.2,0.5c0.5,0.4,1,1,1,2c0,1.4-0.9,2.4-2.3,2.5l2.9,4.1h-1.2l-2.8-4H520v4h-1v-9.1H520.5z
		 M520,470.4h0.6c1.3,0,2-0.6,2-1.7c0-0.5-0.2-1-0.7-1.3c-0.4-0.2-0.9-0.3-1.3-0.3H520V470.4z"/>
	<path d="M530.4,473.8c-0.2,0.3-0.4,0.7-0.7,0.9c-0.5,0.5-1.2,0.7-1.9,0.7c-1.4,0-2.8-0.9-2.8-3c0-1.7,1-3,2.7-3
		c1.1,0,1.8,0.5,2.1,1c0.4,0.5,0.6,1.4,0.5,2.1H526c0,1.2,0.8,1.9,1.8,1.9c0.5,0,0.8-0.1,1.2-0.4c0.3-0.2,0.5-0.5,0.6-0.8
		L530.4,473.8z M529.4,471.8c-0.2-0.9-0.8-1.5-1.7-1.5c-0.8,0-1.5,0.6-1.7,1.5H529.4z"/>
	<path d="M532.9,478.4h-1v-8.8h1v0.8c0.7-0.8,1.5-0.9,1.9-0.9c1.8,0,2.8,1.5,2.8,3c0,1.6-1,3-2.7,3c-0.9,0-1.6-0.4-2-1V478.4z
		 M536.6,472.5c0-1.4-0.9-2.1-1.9-2.1c-0.9,0-1.9,0.8-1.9,2.1c0,1.2,0.7,2.1,1.9,2.1C535.9,474.6,536.6,473.6,536.6,472.5z"/>
	<path d="M538.7,472.4c0-1.7,1.3-3,3-3s3,1.3,3,3s-1.3,3-3,3S538.7,474.2,538.7,472.4z M539.8,472.4c0,1.4,1,2.1,2,2.1s2-0.7,2-2.1
		s-1-2.1-2-2.1C540.7,470.3,539.8,471.1,539.8,472.4z"/>
	<path d="M546.2,469.6h1v0.6c0.1-0.2,0.5-0.8,1.3-0.8c0.3,0,0.6,0.1,0.9,0.2l-0.5,0.9c-0.2-0.2-0.4-0.2-0.6-0.2
		c-0.4,0-0.6,0.2-0.8,0.4c-0.2,0.2-0.3,0.6-0.3,1.5v3h-1L546.2,469.6L546.2,469.6z"/>
	<path d="M551.6,470.5v4.8h-1v-4.8H550v-0.9h0.6v-2h1v2h1v0.9H551.6z"/>
	<path d="M557.8,469.6h1v5.7h-1v-0.8c-0.3,0.4-0.9,1-1.9,1c-1.4,0-2.8-1-2.8-3s1.3-3,2.8-3c1.1,0,1.7,0.6,1.9,0.9V469.6z
		 M554.1,472.4c0,1.2,0.7,2.1,1.9,2.1s1.9-1,1.9-2.1c0-1.5-1-2.1-1.9-2.1C555,470.3,554.1,471,554.1,472.4z"/>
	<path d="M561.6,465.3v9.9h-1v-9.9H561.6z"/>
	<path d="M566.4,475.3l3.3-3.8c0.2-0.3,0.8-1,1.1-1.3c0.4-0.6,0.5-1,0.5-1.4c0-1-0.7-1.8-1.8-1.8c-0.6,0-1.2,0.3-1.5,0.8
		c-0.2,0.3-0.3,0.6-0.3,1.1h-1c0-0.9,0.3-1.5,0.7-1.9s1-0.9,2.2-0.9c1.6,0,2.8,1.1,2.8,2.7c0,0.6-0.2,1.2-0.7,2
		c-0.4,0.5-0.9,1.1-1.2,1.5l-1.9,2.1h3.8v0.9L566.4,475.3L566.4,475.3z"/>
	<path d="M574.7,474.1c-0.6-0.9-0.9-2-0.9-3.3s0.3-2.5,0.9-3.3c0.7-1,1.6-1.4,2.3-1.4s1.6,0.4,2.3,1.4c0.6,0.9,0.9,2,0.9,3.3
		s-0.3,2.5-0.9,3.3c-0.7,1-1.6,1.4-2.3,1.4S575.4,475.1,574.7,474.1z M575.4,467.9c-0.5,0.8-0.7,1.8-0.7,2.8s0.2,2,0.7,2.8
		s1.1,1,1.6,1s1.1-0.2,1.6-1s0.7-1.8,0.7-2.8s-0.2-2-0.7-2.8s-1.1-1-1.6-1S575.9,467.2,575.4,467.9z"/>
	<path d="M581.6,475.3l3.3-3.8c0.2-0.3,0.8-1,1.1-1.3c0.4-0.6,0.5-1,0.5-1.4c0-1-0.7-1.8-1.8-1.8c-0.6,0-1.2,0.3-1.5,0.8
		c-0.2,0.3-0.3,0.6-0.3,1.1h-1c0-0.9,0.3-1.5,0.7-1.9s1-0.9,2.2-0.9c1.6,0,2.8,1.1,2.8,2.7c0,0.6-0.2,1.2-0.7,2
		c-0.4,0.5-0.9,1.1-1.2,1.5l-1.9,2.1h3.8v0.9L581.6,475.3L581.6,475.3z"/>
	<path d="M590.2,467.1h-1.5l0.5-1h2v9.1h-1V467.1z"/>
</g>
<g>
	<path d="M36.5,35.4V24l8.5,8.9v-8.5h1.2v11.4l-8.5-8.9v8.4h-1.2V35.4z"/>
	<path d="M49.9,32.5c0,0.5,0,1,0.3,1.5c0.2,0.2,0.5,0.5,1.2,0.5s1-0.3,1.2-0.5c0.3-0.4,0.3-1,0.3-1.5v-4h1.2v4.1
		c0,0.8-0.1,1.5-0.6,2c-0.6,0.6-1.4,0.9-2.1,0.9c-0.7,0-1.5-0.2-2.1-0.9c-0.5-0.6-0.6-1.2-0.6-2v-4.1h1.2
		C49.9,28.5,49.9,32.5,49.9,32.5z"/>
	<path d="M56.3,28.6h1.2v0.7c0.4-0.6,1-0.9,1.7-0.9c1.2,0,1.7,0.9,1.8,1.1c0.7-1,1.6-1.1,2-1.1c2,0,2.2,1.7,2.2,2.6v4.3H64v-4.1
		c0-0.8-0.1-1.8-1.2-1.8c-1.4,0-1.5,1.3-1.5,2.1v3.8h-1.2v-4c0-0.5,0-1.9-1.2-1.9c-1.3,0-1.5,1.4-1.5,2.2v3.7h-1.2v-6.7H56.3z"/>
	<path d="M68.7,35.4h-1.2v-12h1.2v6.1c0.8-1,1.8-1.1,2.3-1.1c2.1,0,3.3,1.8,3.3,3.6c0,1.9-1.2,3.5-3.3,3.5c-1.1,0-1.9-0.5-2.4-1.1
		L68.7,35.4L68.7,35.4z M73.1,32c0-1.7-1.1-2.6-2.2-2.6s-2.3,0.9-2.3,2.5c0,1.4,0.9,2.5,2.3,2.5C72.3,34.5,73.1,33.4,73.1,32z"/>
	<path d="M82.2,33.6c-0.2,0.4-0.5,0.8-0.8,1.1c-0.6,0.6-1.4,0.8-2.3,0.8c-1.6,0-3.4-1-3.4-3.5c0-2,1.2-3.6,3.3-3.6
		c1.3,0,2.2,0.7,2.6,1.2c0.4,0.6,0.7,1.7,0.6,2.6h-5.3c0,1.4,1,2.3,2.2,2.3c0.6,0,1-0.2,1.4-0.5c0.3-0.3,0.6-0.6,0.7-0.9L82.2,33.6z
		 M81,31.2c-0.2-1.1-1-1.8-2-1.8s-1.8,0.8-2,1.8H81z"/>
	<path d="M84,28.6h1.2v0.7c0.1-0.2,0.6-0.9,1.5-0.9c0.4,0,0.8,0.1,1,0.3l-0.6,1.1c-0.3-0.2-0.5-0.2-0.7-0.2c-0.5,0-0.8,0.2-0.9,0.4
		c-0.2,0.3-0.4,0.7-0.4,1.8v3.6H84V28.6z"/>
	<path d="M92.3,32c0-2.1,1.5-3.6,3.6-3.6s3.6,1.5,3.6,3.6s-1.5,3.6-3.6,3.6S92.3,34,92.3,32z M93.5,32c0,1.7,1.2,2.5,2.4,2.5
		c1.2,0,2.4-0.9,2.4-2.5c0-1.7-1.1-2.5-2.4-2.5S93.5,30.3,93.5,32z"/>
	<path d="M102.5,29.6v5.7h-1.2v-5.7h-0.7v-1.1h0.7v-3c0-0.6,0-1.4,0.7-1.9c0.3-0.3,0.8-0.4,1.4-0.4c0.4,0,0.7,0.1,0.8,0.1v1.1
		c-0.2-0.1-0.5-0.1-0.8-0.1s-0.6,0.1-0.8,0.4c-0.1,0.2-0.1,0.6-0.1,1v2.8h1.7v1.1C104.2,29.6,102.5,29.6,102.5,29.6z"/>
	<path d="M108.9,35.4l1.8-11.5l4.2,9.2l4.3-9.2l1.7,11.5h-1.2l-1-7.6l-3.7,8l-3.7-8l-1.1,7.6C110.2,35.4,108.9,35.4,108.9,35.4z"/>
	<path d="M122.7,32c0-2.1,1.5-3.6,3.6-3.6s3.6,1.5,3.6,3.6s-1.5,3.6-3.6,3.6C124.2,35.5,122.7,34,122.7,32z M123.9,32
		c0,1.7,1.2,2.5,2.4,2.5c1.2,0,2.4-0.9,2.4-2.5c0-1.7-1.1-2.5-2.4-2.5S123.9,30.3,123.9,32z"/>
	<path d="M132.9,35.4h-1.2v-12h1.2v6.1c0.8-1,1.8-1.1,2.3-1.1c2.1,0,3.3,1.8,3.3,3.6c0,1.9-1.2,3.5-3.3,3.5c-1.1,0-1.9-0.5-2.4-1.1
		L132.9,35.4L132.9,35.4z M137.3,32c0-1.7-1.1-2.6-2.2-2.6s-2.3,0.9-2.3,2.5c0,1.4,0.9,2.5,2.3,2.5C136.5,34.5,137.3,33.4,137.3,32z
		"/>
	<path d="M140.9,25.2c0.5,0,0.8,0.4,0.8,0.8s-0.4,0.8-0.8,0.8s-0.8-0.4-0.8-0.8S140.4,25.2,140.9,25.2z M141.5,28.6v6.8h-1.2v-6.8
		C140.3,28.6,141.5,28.6,141.5,28.6z"/>
	<path d="M144.9,23.4v11.9h-1.2V23.4H144.9z"/>
	<path d="M153.1,33.6c-0.2,0.4-0.5,0.8-0.8,1.1c-0.6,0.6-1.4,0.8-2.3,0.8c-1.6,0-3.4-1-3.4-3.5c0-2,1.2-3.6,3.3-3.6
		c1.3,0,2.2,0.7,2.6,1.2c0.4,0.6,0.7,1.7,0.6,2.6h-5.3c0,1.4,1,2.3,2.2,2.3c0.6,0,1-0.2,1.4-0.5c0.3-0.3,0.6-0.6,0.7-0.9L153.1,33.6
		z M152,31.2c-0.2-1.1-1-1.8-2-1.8s-1.8,0.8-2,1.8H152z"/>
	<path d="M161.1,24.4c1.1,0,2,0.1,2.7,0.8c0.8,0.7,1,1.7,1,2.3c0,1.5-1,3.1-3.5,3.1h-1.1v4.7H159V24.4H161.1z M160.3,29.5h1
		c1.4,0,2.3-0.7,2.3-2c0-1.7-1.6-1.9-2.4-1.9h-0.9L160.3,29.5L160.3,29.5z"/>
	<path d="M166.2,23.4h1.2v5.9c0.2-0.3,0.8-0.9,1.9-0.9c0.8,0,1.5,0.3,1.9,0.9c0.3,0.5,0.4,1.1,0.4,1.8v4.2h-1.2v-4.2
		c0-0.4,0-0.9-0.3-1.2c-0.2-0.3-0.6-0.5-1.1-0.5c-0.4,0-0.9,0.1-1.2,0.5c-0.5,0.5-0.5,1.3-0.5,1.8v3.5h-1.2V23.4H166.2z"/>
	<path d="M173.3,32c0-2.1,1.5-3.6,3.6-3.6s3.6,1.5,3.6,3.6s-1.5,3.6-3.6,3.6S173.3,34,173.3,32z M174.5,32c0,1.7,1.2,2.5,2.4,2.5
		s2.4-0.9,2.4-2.5c0-1.7-1.1-2.5-2.4-2.5S174.5,30.3,174.5,32z"/>
	<path d="M182.3,28.6h1.2v0.8c0.2-0.3,0.8-0.9,1.9-0.9c0.8,0,1.5,0.3,1.9,0.9c0.3,0.5,0.4,1.1,0.4,1.8v4.2h-1.2v-4.2
		c0-0.4,0-0.9-0.3-1.2c-0.2-0.3-0.6-0.5-1.1-0.5c-0.4,0-0.9,0.1-1.2,0.5c-0.5,0.5-0.5,1.3-0.5,1.8v3.5h-1.2v-6.7H182.3z"/>
	<path d="M196,33.6c-0.2,0.4-0.5,0.8-0.8,1.1c-0.6,0.6-1.4,0.8-2.3,0.8c-1.6,0-3.4-1-3.4-3.5c0-2,1.2-3.6,3.3-3.6
		c1.3,0,2.2,0.7,2.6,1.2c0.4,0.6,0.7,1.7,0.6,2.6h-5.3c0,1.4,1,2.3,2.2,2.3c0.6,0,1-0.2,1.4-0.5c0.3-0.3,0.6-0.6,0.7-0.9L196,33.6z
		 M194.8,31.2c-0.2-1.1-1-1.8-2-1.8s-1.8,0.8-2,1.8H194.8z"/>
	<path d="M203.1,31.1c0,0.9,0,1.9,0.9,2.6c0.4,0.4,1.2,0.6,1.8,0.6s1.4-0.2,1.8-0.6c0.9-0.7,0.9-1.7,0.9-2.6v-6.7h1.2v7
		c0,0.9-0.1,1.8-0.7,2.6c-0.7,0.9-1.8,1.5-3.2,1.5s-2.5-0.6-3.2-1.5c-0.6-0.8-0.7-1.7-0.7-2.6v-7h1.2V31.1z"/>
	<path d="M215,30.1c-0.2-0.4-0.5-0.7-0.9-0.7s-0.8,0.2-0.8,0.8c0,0.5,0.3,0.6,1.1,1c1,0.4,1.4,0.7,1.7,1c0.3,0.4,0.4,0.7,0.4,1.1
		c0,1.4-1,2.2-2.3,2.2c-0.3,0-1.8,0-2.4-1.7l1-0.4c0.1,0.4,0.5,1.1,1.4,1.1c0.8,0,1.1-0.6,1.1-1.1c0-0.6-0.5-0.9-1.1-1.1
		c-0.8-0.4-1.3-0.6-1.7-1c-0.3-0.3-0.3-0.7-0.3-1c0-1.2,0.8-1.9,2-1.9c0.4,0,1.3,0.1,1.9,1.2L215,30.1z"/>
	<path d="M224,33.6c-0.2,0.4-0.5,0.8-0.8,1.1c-0.6,0.6-1.4,0.8-2.3,0.8c-1.6,0-3.4-1-3.4-3.5c0-2,1.2-3.6,3.3-3.6
		c1.3,0,2.2,0.7,2.6,1.2c0.4,0.6,0.7,1.7,0.6,2.6h-5.3c0,1.4,1,2.3,2.2,2.3c0.6,0,1-0.2,1.4-0.5c0.3-0.3,0.6-0.6,0.7-0.9L224,33.6z
		 M222.8,31.2c-0.2-1.1-1-1.8-2-1.8s-1.8,0.8-2,1.8H222.8z"/>
	<path d="M225.8,28.6h1.2v0.7c0.1-0.2,0.6-0.9,1.5-0.9c0.4,0,0.8,0.1,1,0.3l-0.6,1.1c-0.3-0.2-0.5-0.2-0.7-0.2
		c-0.5,0-0.8,0.2-0.9,0.4c-0.2,0.3-0.4,0.7-0.4,1.8v3.6h-1.2L225.8,28.6L225.8,28.6z"/>
	<path d="M233.3,30.1c-0.2-0.4-0.5-0.7-0.9-0.7s-0.8,0.2-0.8,0.8c0,0.5,0.3,0.6,1.1,1c1,0.4,1.4,0.7,1.7,1c0.3,0.4,0.4,0.7,0.4,1.1
		c0,1.4-1,2.2-2.3,2.2c-0.3,0-1.8,0-2.4-1.7l1-0.4c0.1,0.4,0.5,1.1,1.4,1.1c0.8,0,1.1-0.6,1.1-1.1c0-0.6-0.5-0.9-1.1-1.1
		c-0.8-0.4-1.3-0.6-1.7-1c-0.3-0.3-0.3-0.7-0.3-1c0-1.2,0.8-1.9,2-1.9c0.4,0,1.3,0.1,1.9,1.2L233.3,30.1z"/>
	<path d="M240.4,24.4l2.9,8.2l3.4-8.7l3.2,8.7l3.2-8.2h1.3l-4.6,11.5l-3.2-8.7l-3.4,8.7L239,24.4C239,24.4,240.4,24.4,240.4,24.4z"
		/>
	<path d="M254.7,32c0-2.1,1.5-3.6,3.6-3.6s3.6,1.5,3.6,3.6s-1.5,3.6-3.6,3.6S254.7,34,254.7,32z M255.9,32c0,1.7,1.2,2.5,2.4,2.5
		c1.2,0,2.4-0.9,2.4-2.5c0-1.7-1.1-2.5-2.4-2.5S255.9,30.3,255.9,32z"/>
	<path d="M263.7,28.6h1.2v0.7c0.1-0.2,0.6-0.9,1.5-0.9c0.4,0,0.8,0.1,1,0.3l-0.6,1.1c-0.3-0.2-0.5-0.2-0.7-0.2
		c-0.5,0-0.8,0.2-0.9,0.4c-0.2,0.3-0.4,0.7-0.4,1.8v3.6h-1.2v-6.8H263.7z"/>
	<path d="M269.7,23.4v11.9h-1.2V23.4H269.7z"/>
	<path d="M277.1,23.4h1.2v11.9h-1.2v-0.9c-0.4,0.5-1.1,1.1-2.3,1.1c-1.7,0-3.3-1.2-3.3-3.6c0-2.3,1.6-3.5,3.3-3.5
		c1.3,0,2,0.7,2.3,1.1V23.4z M272.7,32c0,1.5,0.8,2.6,2.2,2.6c1.4,0,2.3-1.2,2.3-2.5c0-1.8-1.2-2.5-2.3-2.5
		C273.7,29.4,272.7,30.3,272.7,32z"/>
	<path d="M280.8,28.6l2,4.6L285,28l2.1,5.1l2-4.6h1.3l-3.4,7.3l-2.1-5.1l-2.1,5.1l-3.3-7.3h1.3V28.6z"/>
	<path d="M292.3,25.2c0.5,0,0.8,0.4,0.8,0.8s-0.4,0.8-0.8,0.8s-0.8-0.4-0.8-0.8S291.8,25.2,292.3,25.2z M292.8,28.6v6.8h-1.2v-6.8
		C291.6,28.6,292.8,28.6,292.8,28.6z"/>
	<path d="M300.3,23.4h1.2v11.9h-1.2v-0.9c-0.4,0.5-1.1,1.1-2.3,1.1c-1.7,0-3.3-1.2-3.3-3.6c0-2.3,1.6-3.5,3.3-3.5
		c1.3,0,2,0.7,2.3,1.1V23.4z M295.9,32c0,1.5,0.8,2.6,2.2,2.6c1.4,0,2.3-1.2,2.3-2.5c0-1.8-1.2-2.5-2.3-2.5
		C296.9,29.4,295.9,30.3,295.9,32z"/>
	<path d="M309.7,33.6c-0.2,0.4-0.5,0.8-0.8,1.1c-0.6,0.6-1.4,0.8-2.3,0.8c-1.6,0-3.4-1-3.4-3.5c0-2,1.2-3.6,3.3-3.6
		c1.3,0,2.2,0.7,2.6,1.2c0.4,0.6,0.7,1.7,0.6,2.6h-5.3c0,1.4,1,2.3,2.2,2.3c0.6,0,1-0.2,1.4-0.5c0.3-0.3,0.6-0.6,0.7-0.9L309.7,33.6
		z M308.5,31.2c-0.2-1.1-1-1.8-2-1.8s-1.8,0.8-2,1.8H308.5z"/>
	<path d="M311.9,33.8l1.1,0.4l-1.7,3.7l-0.8-0.3L311.9,33.8z"/>
	<path d="M318.8,35.4l4-4.6c0.3-0.3,1-1.2,1.3-1.6c0.5-0.7,0.6-1.2,0.6-1.7c0-1.2-0.9-2.1-2.2-2.1c-0.8,0-1.4,0.3-1.8,1
		c-0.2,0.3-0.3,0.7-0.4,1.3h-1.2c0-1.1,0.4-1.8,0.8-2.3c0.5-0.5,1.2-1.1,2.6-1.1c1.9,0,3.4,1.4,3.4,3.3c0,0.7-0.2,1.4-0.9,2.3
		c-0.5,0.6-1,1.3-1.5,1.8l-2.3,2.6h4.6v1.1C325.8,35.4,318.8,35.4,318.8,35.4z"/>
	<path d="M328.7,33.9c-0.7-1-1.1-2.5-1.1-4c0-1.6,0.4-3,1.1-4c0.8-1.2,1.9-1.6,2.8-1.6s2,0.4,2.8,1.6c0.7,1,1.1,2.5,1.1,4
		c0,1.6-0.4,3-1.1,4c-0.8,1.2-1.9,1.6-2.8,1.6S329.5,35.1,328.7,33.9z M329.6,26.6c-0.6,0.9-0.8,2.2-0.8,3.3c0,1.1,0.2,2.4,0.8,3.3
		c0.6,0.9,1.3,1.2,1.9,1.2s1.3-0.3,1.9-1.2c0.6-0.9,0.8-2.2,0.8-3.3c0-1.1-0.2-2.4-0.8-3.3c-0.6-0.9-1.3-1.2-1.9-1.2
		S330.2,25.7,329.6,26.6z"/>
	<path d="M338.9,25.6H337l0.6-1.1h2.4v10.9h-1.2v-9.8H338.9z"/>
	<path d="M349.6,25.6h-3.5l-0.7,2.4c0.2,0,0.4-0.1,0.7-0.1c2.2,0,3.6,1.7,3.6,3.8c0,2.4-1.8,3.9-4,3.9c-0.9,0-1.7-0.2-2.4-0.9
		c-0.3-0.3-0.7-0.7-0.9-1.1l1-0.7c0.2,0.4,0.4,0.6,0.7,0.9c0.5,0.4,1,0.7,1.8,0.7c1.5,0,2.7-1.3,2.7-2.8c0-1.6-1.1-2.7-2.7-2.7
		c-0.4,0-1.1,0.1-2.1,0.8l1.6-5.3h4.3v1.1H349.6z"/>
	<path d="M351.9,31.3h3.6v1.2h-3.6V31.3z"/>
	<path d="M357.1,35.4l4-4.6c0.3-0.3,1-1.2,1.3-1.6c0.5-0.7,0.6-1.2,0.6-1.7c0-1.2-0.9-2.1-2.2-2.1c-0.8,0-1.4,0.3-1.8,1
		c-0.2,0.3-0.3,0.7-0.4,1.3h-1.2c0-1.1,0.4-1.8,0.8-2.3c0.5-0.5,1.2-1.1,2.6-1.1c1.9,0,3.4,1.4,3.4,3.3c0,0.7-0.2,1.4-0.9,2.3
		c-0.5,0.6-1,1.3-1.5,1.8l-2.3,2.6h4.6v1.1C364.1,35.4,357.1,35.4,357.1,35.4z"/>
	<path d="M367,33.9c-0.7-1-1.1-2.5-1.1-4c0-1.6,0.4-3,1.1-4c0.8-1.2,1.9-1.6,2.8-1.6s2,0.4,2.8,1.6c0.7,1,1.1,2.5,1.1,4
		c0,1.6-0.4,3-1.1,4c-0.8,1.2-1.9,1.6-2.8,1.6S367.9,35.1,367,33.9z M367.9,26.6c-0.6,0.9-0.8,2.2-0.8,3.3c0,1.1,0.2,2.4,0.8,3.3
		c0.6,0.9,1.3,1.2,1.9,1.2s1.3-0.3,1.9-1.2c0.6-0.9,0.8-2.2,0.8-3.3c0-1.1-0.2-2.4-0.8-3.3c-0.6-0.9-1.3-1.2-1.9-1.2
		S368.5,25.7,367.9,26.6z"/>
	<path d="M375.3,35.4l4-4.6c0.3-0.3,1-1.2,1.3-1.6c0.5-0.7,0.6-1.2,0.6-1.7c0-1.2-0.9-2.1-2.2-2.1c-0.8,0-1.4,0.3-1.8,1
		c-0.2,0.3-0.3,0.7-0.4,1.3h-1.2c0-1.1,0.4-1.8,0.8-2.3c0.5-0.5,1.2-1.1,2.6-1.1c1.9,0,3.4,1.4,3.4,3.3c0,0.7-0.2,1.4-0.9,2.3
		c-0.5,0.6-1,1.3-1.5,1.8l-2.3,2.6h4.6v1.1C382.3,35.4,375.3,35.4,375.3,35.4z"/>
	<path d="M385.2,33.9c-0.7-1-1.1-2.5-1.1-4c0-1.6,0.4-3,1.1-4c0.8-1.2,1.9-1.6,2.8-1.6s2,0.4,2.8,1.6c0.7,1,1.1,2.5,1.1,4
		c0,1.6-0.4,3-1.1,4c-0.8,1.2-1.9,1.6-2.8,1.6S386,35.1,385.2,33.9z M386.1,26.6c-0.6,0.9-0.8,2.2-0.8,3.3c0,1.1,0.2,2.4,0.8,3.3
		c0.6,0.9,1.3,1.2,1.9,1.2s1.3-0.3,1.9-1.2c0.6-0.9,0.8-2.2,0.8-3.3c0-1.1-0.2-2.4-0.8-3.3c-0.6-0.9-1.3-1.2-1.9-1.2
		S386.7,25.7,386.1,26.6z"/>
	<path d="M400.2,23.7c-0.3,0.8-0.6,1.7-0.8,2.8c-0.3,1.4-0.4,2.7-0.4,4.1c0,1.3,0.1,2.5,0.4,4c0.2,1.1,0.5,2,0.8,3l-1,0.5
		c-0.7-1.9-1-3.4-1.1-3.7c-0.2-1.2-0.3-2.6-0.3-3.8c0-1.1,0.1-2.6,0.5-4.3c0.2-1,0.6-2.3,1-3.1L400.2,23.7z"/>
	<path d="M403,25.2c0.5,0,0.8,0.4,0.8,0.8s-0.4,0.8-0.8,0.8s-0.8-0.4-0.8-0.8S402.5,25.2,403,25.2z M403.6,28.6v6.8h-1.2v-6.8
		C402.4,28.6,403.6,28.6,403.6,28.6z"/>
	<path d="M405.8,28.6h1.2v0.8c0.2-0.3,0.8-0.9,1.9-0.9c0.8,0,1.5,0.3,1.9,0.9c0.3,0.5,0.4,1.1,0.4,1.8v4.2H410v-4.2
		c0-0.4,0-0.9-0.3-1.2c-0.2-0.3-0.6-0.5-1.1-0.5c-0.4,0-0.9,0.1-1.2,0.5c-0.5,0.5-0.5,1.3-0.5,1.8v3.5h-1.2v-6.7H405.8z"/>
	<path d="M418.5,35.4h-1.2v-12h1.2v6.1c0.8-1,1.8-1.1,2.3-1.1c2.1,0,3.3,1.8,3.3,3.6c0,1.9-1.2,3.5-3.3,3.5c-1.1,0-1.9-0.5-2.4-1.1
		v1H418.5z M422.9,32c0-1.7-1.1-2.6-2.2-2.6s-2.3,0.9-2.3,2.5c0,1.4,0.9,2.5,2.3,2.5C422.1,34.5,422.9,33.4,422.9,32z"/>
	<path d="M426.5,25.2c0.5,0,0.8,0.4,0.8,0.8s-0.4,0.8-0.8,0.8s-0.8-0.4-0.8-0.8S426,25.2,426.5,25.2z M427.1,28.6v6.8h-1.2v-6.8
		C425.9,28.6,427.1,28.6,427.1,28.6z"/>
	<path d="M430.5,23.4v11.9h-1.2V23.4H430.5z"/>
	<path d="M433.9,23.4v11.9h-1.2V23.4H433.9z"/>
	<path d="M436.7,25.2c0.5,0,0.8,0.4,0.8,0.8s-0.4,0.8-0.8,0.8s-0.8-0.4-0.8-0.8S436.2,25.2,436.7,25.2z M437.3,28.6v6.8h-1.2v-6.8
		C436.1,28.6,437.3,28.6,437.3,28.6z"/>
	<path d="M439.1,32c0-2.1,1.5-3.6,3.6-3.6s3.6,1.5,3.6,3.6s-1.5,3.6-3.6,3.6C440.6,35.5,439.1,34,439.1,32z M440.3,32
		c0,1.7,1.2,2.5,2.4,2.5c1.2,0,2.4-0.9,2.4-2.5c0-1.7-1.1-2.5-2.4-2.5C441.4,29.4,440.3,30.3,440.3,32z"/>
	<path d="M448.1,28.6h1.2v0.8c0.2-0.3,0.8-0.9,1.9-0.9c0.8,0,1.5,0.3,1.9,0.9c0.3,0.5,0.4,1.1,0.4,1.8v4.2h-1.2v-4.2
		c0-0.4,0-0.9-0.3-1.2c-0.2-0.3-0.6-0.5-1.1-0.5c-0.4,0-0.9,0.1-1.2,0.5c-0.5,0.5-0.5,1.3-0.5,1.8v3.5H448v-6.7H448.1z"/>
	<path d="M458.6,30.1c-0.2-0.4-0.5-0.7-0.9-0.7s-0.8,0.2-0.8,0.8c0,0.5,0.3,0.6,1.1,1c1,0.4,1.4,0.7,1.7,1c0.3,0.4,0.4,0.7,0.4,1.1
		c0,1.4-1,2.2-2.3,2.2c-0.3,0-1.8,0-2.4-1.7l1-0.4c0.1,0.4,0.5,1.1,1.4,1.1c0.8,0,1.1-0.6,1.1-1.1c0-0.6-0.5-0.9-1.1-1.1
		c-0.8-0.4-1.3-0.6-1.7-1c-0.3-0.3-0.3-0.7-0.3-1c0-1.2,0.8-1.9,2-1.9c0.4,0,1.3,0.1,1.9,1.2L458.6,30.1z"/>
	<path d="M462.5,23.2c0.3,0.9,0.7,2.1,1,3.1c0.4,1.6,0.5,3.2,0.5,4.3c0,1.2-0.1,2.6-0.3,3.8c0,0.3-0.4,1.8-1.1,3.7l-1-0.5
		c0.3-0.9,0.6-1.9,0.9-3c0.3-1.5,0.4-2.6,0.4-4s-0.1-2.7-0.4-4.1c-0.2-1.1-0.5-2.1-0.8-2.8L462.5,23.2z"/>
</g>
<g>
	<path d="M36.6,423.5c-0.6-0.9-0.9-2-0.9-3.3s0.3-2.5,0.9-3.3c0.7-1,1.6-1.4,2.3-1.4s1.6,0.4,2.3,1.4c0.6,0.9,0.9,2,0.9,3.3
		s-0.3,2.5-0.9,3.3c-0.7,1-1.6,1.4-2.3,1.4C38.2,424.8,37.3,424.5,36.6,423.5z M37.4,417.3c-0.5,0.8-0.7,1.8-0.7,2.8s0.2,2,0.7,2.8
		s1.1,1,1.6,1s1.1-0.2,1.6-1s0.7-1.8,0.7-2.8s-0.2-2-0.7-2.8s-1.1-1-1.6-1S37.9,416.6,37.4,417.3z"/>
</g>
<g>
	<path d="M38.7,358.4h-1.5l0.5-1h2v9.1h-1V358.4z"/>
</g>
<g>
	<path d="M35.8,308.2l3.3-3.8c0.2-0.3,0.8-1,1.1-1.3c0.4-0.6,0.5-1,0.5-1.4c0-1-0.7-1.8-1.8-1.8c-0.6,0-1.2,0.3-1.5,0.8
		c-0.2,0.3-0.3,0.6-0.3,1.1h-1c0-0.9,0.3-1.5,0.7-1.9s1-0.9,2.2-0.9c1.6,0,2.8,1.1,2.8,2.7c0,0.6-0.2,1.2-0.7,2
		c-0.4,0.5-0.9,1.1-1.2,1.5l-1.9,2.1h3.8v0.9H35.8L35.8,308.2z"/>
</g>
<g>
	<path d="M36.2,243c0-0.5,0.2-1,0.4-1.3c0.6-0.9,1.6-1.1,2.1-1.1c1.7,0,2.6,1.2,2.6,2.5c0,0.7-0.2,1.6-1.2,2
		c0.3,0.1,1.3,0.6,1.3,2.2c0,1.7-1.2,2.7-2.8,2.7c-0.9,0-2-0.4-2.5-1.6c-0.1-0.3-0.2-0.6-0.2-1h1c0,0.3,0.2,0.7,0.3,0.9
		c0.3,0.4,0.8,0.7,1.4,0.7c1,0,1.8-0.8,1.8-1.8c0-0.5-0.2-1.2-0.9-1.5c-0.3-0.1-0.7-0.2-1-0.2v-0.9c0.4,0,0.8,0,1-0.2
		c0.3-0.2,0.8-0.5,0.8-1.4c0-0.8-0.4-1.6-1.6-1.6c-0.4,0-0.8,0.1-1.2,0.5c-0.2,0.2-0.3,0.6-0.4,1h-0.9V243z"/>
</g>
<g>
	<path d="M41,189.2h1.1v0.9H41v1.7h-1v-1.7h-4.7l5.7-7.9V189.2z M40,189.2v-4l-2.9,4H40z"/>
</g>
<g>
	<path d="M41.6,125h-2.9l-0.6,2c0.2,0,0.4-0.1,0.6-0.1c1.8,0,3,1.4,3,3.2c0,2-1.5,3.3-3.3,3.3c-0.7,0-1.4-0.2-2-0.7
		c-0.3-0.2-0.6-0.6-0.8-0.9l0.8-0.6c0.1,0.3,0.3,0.5,0.6,0.7c0.4,0.3,0.8,0.5,1.5,0.5c1.3,0,2.2-1.1,2.2-2.3c0-1.3-0.9-2.2-2.2-2.2
		c-0.3,0-0.9,0.1-1.8,0.6l1.3-4.4h3.6C41.6,124.1,41.6,125,41.6,125z"/>
</g>
<g>
	<path d="M40.4,66.3l-2.1,2.9c0.3-0.1,0.5-0.1,0.8-0.1c1.7,0,2.9,1.3,2.9,3c0,1.8-1.3,3.1-3.1,3.1c-2.1,0-3.2-1.7-3.2-3.1
		c0-0.3,0.1-1.1,0.8-2.1l3.1-4.3L40.4,66.3z M41.1,72.1c0-1.2-0.9-2.1-2.1-2.1c-1.2,0-2.1,0.9-2.1,2.1c0,1.2,0.9,2.2,2.1,2.2
		C40.2,74.2,41.1,73.3,41.1,72.1z"/>
</g>
<rect x="171.8" y="147.1" class="st1" width="59.1" height="274.8"/>
<g>
	<path d="M187.3,442l3.3-3.8c0.2-0.3,0.8-1,1.1-1.3c0.4-0.6,0.5-1,0.5-1.4c0-1-0.7-1.8-1.8-1.8c-0.6,0-1.2,0.3-1.5,0.8
		c-0.2,0.3-0.3,0.6-0.3,1.1h-1c0-0.9,0.3-1.5,0.7-1.9s1-0.9,2.2-0.9c1.6,0,2.8,1.1,2.8,2.7c0,0.6-0.2,1.2-0.7,2
		c-0.4,0.5-0.9,1.1-1.2,1.5l-1.9,2.1h3.8v0.9L187.3,442L187.3,442z"/>
	<path d="M195.5,440.8c-0.6-0.9-0.9-2-0.9-3.3s0.3-2.5,0.9-3.3c0.7-1,1.6-1.4,2.3-1.4s1.6,0.4,2.3,1.4c0.6,0.9,0.9,2,0.9,3.3
		s-0.3,2.5-0.9,3.3c-0.7,1-1.6,1.4-2.3,1.4C197.1,442.2,196.2,441.8,195.5,440.8z M196.3,434.7c-0.5,0.8-0.7,1.8-0.7,2.8
		s0.2,2,0.7,2.8s1.1,1,1.6,1s1.1-0.2,1.6-1s0.7-1.8,0.7-2.8s-0.2-2-0.7-2.8s-1.1-1-1.6-1S196.8,433.9,196.3,434.7z"/>
	<path d="M204,433.8h-1.5l0.5-1h2v9.1h-1V433.8z"/>
	<path d="M212.1,433.2l-2.1,2.9c0.3-0.1,0.5-0.1,0.8-0.1c1.7,0,2.9,1.3,2.9,3c0,1.8-1.3,3.1-3.1,3.1c-2.1,0-3.2-1.7-3.2-3.1
		c0-0.3,0.1-1.1,0.8-2.1l3.1-4.3L212.1,433.2z M212.7,439.1c0-1.2-0.9-2.1-2.1-2.1c-1.2,0-2.1,0.9-2.1,2.1s0.9,2.2,2.1,2.2
		C211.9,441.2,212.7,440.3,212.7,439.1z"/>
</g>
<g>
	<path d="M197.1,135.5h1.1v0.9h-1.1v1.7h-1v-1.7h-4.7l5.7-7.9V135.5z M196,135.5v-4l-2.9,4H196z"/>
	<path d="M200.4,136.9c0.4,0,0.7,0.3,0.7,0.7s-0.3,0.7-0.7,0.7s-0.7-0.3-0.7-0.7S200,136.9,200.4,136.9z"/>
	<path d="M207.8,130h-5v-0.9h6.7l-6.1,9.3l-0.8-0.5L207.8,130z"/>
</g>
<rect x="254.8" y="137.2" class="st1" width="59.1" height="284.9"/>
<g>
	<path d="M270.4,442l3.3-3.8c0.2-0.3,0.8-1,1.1-1.3c0.4-0.6,0.5-1,0.5-1.4c0-1-0.7-1.8-1.8-1.8c-0.6,0-1.2,0.3-1.5,0.8
		c-0.2,0.3-0.3,0.6-0.3,1.1h-1c0-0.9,0.3-1.5,0.7-1.9c0.4-0.4,1-0.9,2.2-0.9c1.6,0,2.8,1.1,2.8,2.7c0,0.6-0.2,1.2-0.7,2
		c-0.4,0.5-0.9,1.1-1.2,1.5l-1.9,2.1h3.8v0.9L270.4,442L270.4,442z"/>
	<path d="M278.7,440.8c-0.6-0.9-0.9-2-0.9-3.3s0.3-2.5,0.9-3.3c0.7-1,1.6-1.4,2.3-1.4c0.7,0,1.6,0.4,2.3,1.4c0.6,0.9,0.9,2,0.9,3.3
		s-0.3,2.5-0.9,3.3c-0.7,1-1.6,1.4-2.3,1.4C280.3,442.2,279.4,441.8,278.7,440.8z M279.4,434.7c-0.5,0.8-0.7,1.8-0.7,2.8
		s0.2,2,0.7,2.8s1.1,1,1.6,1s1.1-0.2,1.6-1s0.7-1.8,0.7-2.8s-0.2-2-0.7-2.8s-1.1-1-1.6-1S279.9,433.9,279.4,434.7z"/>
	<path d="M287.1,433.8h-1.5l0.5-1h2v9.1h-1V433.8z"/>
	<path d="M295.6,433.8h-5v-0.9h6.7l-6.1,9.3l-0.8-0.5L295.6,433.8z"/>
</g>
<g>
	<path d="M277.3,125.1h1.1v0.9h-1.1v1.7h-1V126h-4.7l5.7-7.9V125.1z M276.3,125.1v-4l-2.9,4H276.3z"/>
	<path d="M280.6,126.5c0.4,0,0.7,0.3,0.7,0.7c0,0.4-0.3,0.7-0.7,0.7s-0.7-0.3-0.7-0.7C280,126.8,280.3,126.5,280.6,126.5z"/>
	<path d="M288.9,125.2c0,1.4-0.9,2.7-2.8,2.7s-2.8-1.3-2.8-2.7c0-1,0.5-1.8,1.4-2.2c-0.7-0.4-1.1-1.1-1.1-2c0-1.3,0.9-2.5,2.5-2.5
		s2.5,1.2,2.5,2.5c0,0.8-0.4,1.6-1.1,2C288.4,123.4,288.9,124.2,288.9,125.2z M287.9,125.2c0-1-0.7-1.7-1.8-1.7
		c-1,0-1.8,0.7-1.8,1.7s0.7,1.8,1.8,1.8S287.9,126.2,287.9,125.2z M287.6,121c0-1-0.7-1.6-1.6-1.6s-1.6,0.6-1.6,1.6
		c0,0.9,0.7,1.6,1.6,1.6S287.6,121.9,287.6,121z"/>
	<path d="M295.3,119l-2.1,2.9c0.3-0.1,0.5-0.1,0.8-0.1c1.7,0,2.9,1.3,2.9,3c0,1.8-1.3,3.1-3.1,3.1c-2.1,0-3.2-1.7-3.2-3.1
		c0-0.3,0.1-1.1,0.8-2.1l3.1-4.3L295.3,119z M296,124.8c0-1.2-0.9-2.1-2.1-2.1s-2.1,0.9-2.1,2.1s0.9,2.2,2.1,2.2
		C295.1,126.9,296,126,296,124.8z"/>
</g>
<rect x="337.7" y="128.3" class="st1" width="59.1" height="293.7"/>
<g>
	<path d="M353.5,442l3.3-3.8c0.2-0.3,0.8-1,1.1-1.3c0.4-0.6,0.5-1,0.5-1.4c0-1-0.7-1.8-1.8-1.8c-0.6,0-1.2,0.3-1.5,0.8
		c-0.2,0.3-0.3,0.6-0.3,1.1h-1c0-0.9,0.3-1.5,0.7-1.9c0.4-0.4,1-0.9,2.2-0.9c1.6,0,2.8,1.1,2.8,2.7c0,0.6-0.2,1.2-0.7,2
		c-0.4,0.5-0.9,1.1-1.2,1.5l-1.9,2.1h3.8v0.9L353.5,442L353.5,442z"/>
	<path d="M361.8,440.8c-0.6-0.9-0.9-2-0.9-3.3s0.3-2.5,0.9-3.3c0.7-1,1.6-1.4,2.3-1.4s1.6,0.4,2.3,1.4c0.6,0.9,0.9,2,0.9,3.3
		s-0.3,2.5-0.9,3.3c-0.7,1-1.6,1.4-2.3,1.4S362.5,441.8,361.8,440.8z M362.6,434.7c-0.5,0.8-0.7,1.8-0.7,2.8s0.2,2,0.7,2.8
		s1.1,1,1.6,1s1.1-0.2,1.6-1s0.7-1.8,0.7-2.8s-0.2-2-0.7-2.8s-1.1-1-1.6-1S363,433.9,362.6,434.7z"/>
	<path d="M370.3,433.8h-1.5l0.5-1h2v9.1h-1V433.8z"/>
	<path d="M379.3,439.5c0,1.4-0.9,2.7-2.8,2.7s-2.8-1.3-2.8-2.7c0-1,0.4-1.8,1.4-2.2c-0.7-0.4-1.1-1.1-1.1-2c0-1.3,0.9-2.5,2.5-2.5
		s2.5,1.2,2.5,2.5c0,0.8-0.4,1.6-1.1,2C378.9,437.7,379.3,438.5,379.3,439.5z M378.3,439.4c0-1-0.7-1.7-1.8-1.7
		c-1,0-1.8,0.7-1.8,1.7s0.7,1.8,1.8,1.8C377.6,441.2,378.3,440.5,378.3,439.4z M378.1,435.3c0-1-0.7-1.6-1.6-1.6s-1.6,0.6-1.6,1.6
		c0,0.9,0.7,1.6,1.6,1.6S378.1,436.2,378.1,435.3z"/>
</g>
<g>
	<path d="M369.9,108.8H367l-0.6,2c0.2,0,0.4-0.1,0.6-0.1c1.8,0,3,1.4,3,3.2c0,2-1.5,3.3-3.3,3.3c-0.7,0-1.4-0.2-2-0.7
		c-0.3-0.2-0.6-0.6-0.8-0.9l0.8-0.6c0.2,0.3,0.3,0.5,0.6,0.7c0.4,0.3,0.8,0.5,1.5,0.5c1.3,0,2.2-1.1,2.2-2.3c0-1.3-0.9-2.2-2.2-2.2
		c-0.3,0-0.9,0.1-1.8,0.6l1.3-4.4h3.6L369.9,108.8L369.9,108.8z"/>
</g>
<rect x="420.7" y="121.2" class="st1" width="59.1" height="300.9"/>
<g>
	<path d="M436.5,442l3.3-3.8c0.2-0.3,0.8-1,1.1-1.3c0.4-0.6,0.5-1,0.5-1.4c0-1-0.7-1.8-1.8-1.8c-0.6,0-1.2,0.3-1.5,0.8
		c-0.2,0.3-0.3,0.6-0.3,1.1h-1c0-0.9,0.3-1.5,0.7-1.9c0.4-0.4,1-0.9,2.2-0.9c1.6,0,2.8,1.1,2.8,2.7c0,0.6-0.2,1.2-0.7,2
		c-0.4,0.5-0.9,1.1-1.2,1.5l-1.9,2.1h3.8v0.9L436.5,442L436.5,442z"/>
	<path d="M444.8,440.8c-0.6-0.9-0.9-2-0.9-3.3s0.3-2.5,0.9-3.3c0.7-1,1.6-1.4,2.3-1.4s1.6,0.4,2.3,1.4c0.6,0.9,0.9,2,0.9,3.3
		s-0.3,2.5-0.9,3.3c-0.7,1-1.6,1.4-2.3,1.4S445.5,441.8,444.8,440.8z M445.5,434.7c-0.5,0.8-0.7,1.8-0.7,2.8s0.2,2,0.7,2.8
		s1.1,1,1.6,1s1.1-0.2,1.6-1s0.7-1.8,0.7-2.8s-0.2-2-0.7-2.8s-1.1-1-1.6-1S446,433.9,445.5,434.7z"/>
	<path d="M453.2,433.8h-1.5l0.5-1h2v9.1h-1V433.8z"/>
	<path d="M458.2,441.6l2.1-2.9c-0.3,0.1-0.5,0.1-0.8,0.1c-1.7,0-2.9-1.3-2.9-3c0-1.8,1.3-3.1,3.1-3.1c2.1,0,3.2,1.7,3.2,3.1
		c0,0.3-0.1,1.1-0.8,2.1l-3.1,4.3L458.2,441.6z M457.6,435.8c0,1.2,0.9,2.1,2.1,2.1s2.1-0.9,2.1-2.1s-0.9-2.2-2.1-2.2
		C458.5,433.7,457.6,434.6,457.6,435.8z"/>
</g>
<g>
	<path d="M444.2,102.1h-2.9l-0.6,2c0.2,0,0.4-0.1,0.6-0.1c1.8,0,3,1.4,3,3.2c0,2-1.5,3.3-3.3,3.3c-0.7,0-1.4-0.2-2-0.7
		c-0.3-0.2-0.6-0.6-0.8-0.9l0.8-0.6c0.2,0.3,0.3,0.5,0.6,0.7c0.4,0.3,0.8,0.5,1.5,0.5c1.3,0,2.2-1.1,2.2-2.3c0-1.3-0.9-2.2-2.2-2.2
		c-0.3,0-0.9,0.1-1.8,0.6l1.3-4.4h3.6L444.2,102.1L444.2,102.1z"/>
	<path d="M446.7,109.1c0.4,0,0.7,0.3,0.7,0.7c0,0.4-0.3,0.7-0.7,0.7c-0.4,0-0.7-0.3-0.7-0.7S446.3,109.1,446.7,109.1z"/>
	<path d="M450.2,102.2h-1.5l0.5-1h2v9.1h-1V102.2z"/>
	<path d="M453.6,103.4c0-0.5,0.2-1,0.4-1.3c0.6-0.9,1.6-1.1,2.1-1.1c1.7,0,2.6,1.2,2.6,2.5c0,0.7-0.2,1.6-1.2,2
		c0.3,0.1,1.3,0.6,1.3,2.2c0,1.7-1.2,2.7-2.8,2.7c-0.9,0-2-0.4-2.5-1.6c-0.1-0.3-0.2-0.6-0.2-1h1c0,0.3,0.1,0.7,0.3,0.9
		c0.3,0.4,0.8,0.7,1.4,0.7c1,0,1.8-0.8,1.8-1.8c0-0.5-0.2-1.2-0.9-1.5c-0.3-0.1-0.7-0.2-1-0.2V105c0.4,0,0.8,0,1-0.2
		c0.3-0.1,0.8-0.5,0.8-1.4c0-0.8-0.4-1.6-1.6-1.6c-0.4,0-0.8,0.1-1.2,0.5c-0.2,0.2-0.3,0.6-0.4,1h-0.9V103.4z"/>
</g>
<rect x="503.6" y="116" class="st1" width="59.1" height="306.1"/>
<g>
	<path d="M518.3,442l3.3-3.8c0.2-0.3,0.8-1,1.1-1.3c0.4-0.6,0.5-1,0.5-1.4c0-1-0.7-1.8-1.8-1.8c-0.6,0-1.2,0.3-1.5,0.8
		c-0.2,0.3-0.3,0.6-0.3,1.1h-1c0-0.9,0.3-1.5,0.7-1.9s1-0.9,2.2-0.9c1.6,0,2.8,1.1,2.8,2.7c0,0.6-0.2,1.2-0.7,2
		c-0.4,0.5-0.9,1.1-1.2,1.5l-1.9,2.1h3.8v0.9L518.3,442L518.3,442z"/>
	<path d="M526.6,440.8c-0.6-0.9-0.9-2-0.9-3.3s0.3-2.5,0.9-3.3c0.7-1,1.6-1.4,2.3-1.4s1.6,0.4,2.3,1.4c0.6,0.9,0.9,2,0.9,3.3
		s-0.3,2.5-0.9,3.3c-0.7,1-1.6,1.4-2.3,1.4S527.3,441.8,526.6,440.8z M527.3,434.7c-0.5,0.8-0.7,1.8-0.7,2.8s0.2,2,0.7,2.8
		s1.1,1,1.6,1s1.1-0.2,1.6-1s0.7-1.8,0.7-2.8s-0.2-2-0.7-2.8s-1.1-1-1.6-1S527.8,433.9,527.3,434.7z"/>
	<path d="M533.5,442l3.3-3.8c0.2-0.3,0.8-1,1.1-1.3c0.4-0.6,0.5-1,0.5-1.4c0-1-0.7-1.8-1.8-1.8c-0.6,0-1.2,0.3-1.5,0.8
		c-0.2,0.3-0.3,0.6-0.3,1.1h-1c0-0.9,0.3-1.5,0.7-1.9s1-0.9,2.2-0.9c1.6,0,2.8,1.1,2.8,2.7c0,0.6-0.2,1.2-0.7,2
		c-0.4,0.5-0.9,1.1-1.2,1.5l-1.9,2.1h3.8v0.9L533.5,442L533.5,442z"/>
	<path d="M541.7,440.8c-0.6-0.9-0.9-2-0.9-3.3s0.3-2.5,0.9-3.3c0.7-1,1.6-1.4,2.3-1.4s1.6,0.4,2.3,1.4c0.6,0.9,0.9,2,0.9,3.3
		s-0.3,2.5-0.9,3.3c-0.7,1-1.6,1.4-2.3,1.4S542.4,441.8,541.7,440.8z M542.5,434.7c-0.5,0.8-0.7,1.8-0.7,2.8s0.2,2,0.7,2.8
		s1.1,1,1.6,1s1.1-0.2,1.6-1s0.7-1.8,0.7-2.8s-0.2-2-0.7-2.8s-1.1-1-1.6-1S543,433.9,542.5,434.7z"/>
</g>
<g>
	<path d="M526.8,96h-2.9l-0.6,2c0.2,0,0.4-0.1,0.6-0.1c1.8,0,3,1.4,3,3.2c0,2-1.5,3.3-3.3,3.3c-0.7,0-1.4-0.2-2-0.7
		c-0.3-0.2-0.6-0.6-0.8-0.9l0.8-0.6c0.2,0.3,0.3,0.5,0.6,0.7c0.4,0.3,0.8,0.5,1.5,0.5c1.3,0,2.2-1.1,2.2-2.3c0-1.3-0.9-2.2-2.2-2.2
		c-0.3,0-0.9,0.1-1.8,0.6l1.3-4.4h3.6L526.8,96L526.8,96z"/>
	<path d="M529.3,103c0.4,0,0.7,0.3,0.7,0.7c0,0.4-0.3,0.7-0.7,0.7s-0.7-0.3-0.7-0.7S528.9,103,529.3,103z"/>
	<path d="M531.5,104.2l3.3-3.8c0.2-0.3,0.8-1,1.1-1.3c0.4-0.6,0.5-1,0.5-1.4c0-1-0.7-1.8-1.8-1.8c-0.6,0-1.2,0.3-1.5,0.8
		c-0.2,0.3-0.3,0.6-0.3,1.1h-1c0-0.9,0.3-1.5,0.7-1.9s1-0.9,2.2-0.9c1.6,0,2.8,1.1,2.8,2.7c0,0.6-0.2,1.2-0.7,2
		c-0.4,0.5-0.9,1.1-1.2,1.5l-1.9,2.1h3.8v0.9L531.5,104.2L531.5,104.2z"/>
	<path d="M538.8,104.2l3.3-3.8c0.2-0.3,0.8-1,1.1-1.3c0.4-0.6,0.5-1,0.5-1.4c0-1-0.7-1.8-1.8-1.8c-0.6,0-1.2,0.3-1.5,0.8
		c-0.2,0.3-0.3,0.6-0.3,1.1h-1c0-0.9,0.3-1.5,0.7-1.9s1-0.9,2.2-0.9c1.6,0,2.8,1.1,2.8,2.7c0,0.6-0.2,1.2-0.7,2
		c-0.4,0.5-0.9,1.1-1.2,1.5l-1.9,2.1h3.8v0.9L538.8,104.2L538.8,104.2z"/>
</g>
</svg>
