<?xml version="1.0" encoding="utf-8"?>
<!-- Generator: Adobe Illustrator 25.2.0, SVG Export Plug-In . SVG Version: 6.00 Build 0)  -->
<svg version="1.1" id="Layer_1" xmlns="http://www.w3.org/2000/svg" xmlns:xlink="http://www.w3.org/1999/xlink" x="0px" y="0px"
	 viewBox="0 0 500 500" style="enable-background:new 0 0 500 500;" xml:space="preserve">
<style type="text/css">
	.st0{fill:#4C5D75;}
	.st1{fill:none;}
	.st2{fill:none;stroke:#1FBAD6;stroke-width:2;stroke-miterlimit:10;}
	.st3{fill:#334054;}
	.st4{fill:none;stroke:#FF6346;stroke-width:2;stroke-miterlimit:10;stroke-dasharray:8,8;}
	.st5{fill:none;stroke:#1EB9D5;stroke-width:2;stroke-miterlimit:10;}
	.st6{fill:none;stroke:#047989;stroke-width:2;stroke-miterlimit:10;}
	.st7{fill:none;stroke:#334054;stroke-width:2;stroke-miterlimit:10;}
	.st8{fill:none;stroke:#FF6346;stroke-width:2;stroke-miterlimit:10;}
	.st9{fill:#FF6346;}
	.st10{fill:none;stroke:#FFE161;stroke-width:2;stroke-miterlimit:10;}
</style>
<g id="Layer_3">
	<g>
		<path class="st0" d="M142.2,75c0,1,0.9,1.9,1.9,1.9l0,0l0,0c1.1,0,1.9-0.8,1.9-1.8c0-1.1-0.9-1.9-1.9-1.9
			C143,73.2,142.2,74,142.2,75L142.2,75z"/>
		<path class="st0" d="M184.9,115.4c0,1,0.8,1.8,1.9,1.9l0,0l0,0c1.1,0,1.9-0.8,1.9-1.8c0-1.1-0.9-1.9-1.9-1.9
			C185.7,113.6,184.9,114.4,184.9,115.4L184.9,115.4z"/>
		<path class="st0" d="M184.9,155.8c0,1,0.8,1.9,1.9,1.9l0,0l0,0c1.1,0,1.9-0.8,1.9-1.8c0-1.1-0.8-1.9-1.9-1.9
			S184.9,154.8,184.9,155.8L184.9,155.8z"/>
		<path class="st0" d="M142.2,115.4c0,1,0.9,1.8,1.9,1.9l0,0l0,0c1.1,0,1.9-0.8,1.9-1.8c0-1.1-0.9-1.9-1.9-1.9
			C143,113.6,142.2,114.4,142.2,115.4L142.2,115.4z"/>
		<path class="st0" d="M142.2,155.8c0,1,0.9,1.9,1.8,1.8l0,0l0,0c1.1,0,1.9-0.8,1.9-1.8c0-0.9-0.8-1.6-1.7-1.7
			C143.2,154,142.3,154.8,142.2,155.8L142.2,155.8z"/>
		<path class="st0" d="M102.7,155.8c0,1,0.8,1.9,1.9,1.9l0,0l0,0c1.1,0,1.9-0.8,1.9-1.8c0-1.1-0.8-1.9-1.9-1.9
			S102.7,154.8,102.7,155.8L102.7,155.8z"/>
		<path class="st0" d="M102.7,197.6c0,1,0.8,1.9,1.9,1.9l0,0l0,0c1.1,0,1.9-0.8,1.9-1.8c0-1.1-0.8-1.9-1.9-1.9
			C103.5,195.8,102.7,196.6,102.7,197.6L102.7,197.6z"/>
		<path class="st0" d="M142.1,197.7c0,1.1,0.9,1.9,1.9,1.8l0,0c1.1-0.1,1.9-0.9,1.9-1.9s-0.8-1.8-1.9-1.8S142.1,196.7,142.1,197.7
			C142.1,197.8,142.1,197.8,142.1,197.7z"/>
	</g>
</g>
<line class="st1" x1="226" y1="285.8" x2="232.8" y2="288.6"/>
<path class="st2" d="M308.1,399.2c-6.9,8.6,9.2,23.2,23.3,16.6"/>
<path class="st3" d="M320.8,291.2c12.2-35,6.4-60.5-13.8-80.2c-16-15.6-39.7-18.6-58.6-9.1c-8.5,4.3-18.5,4.4-27.1,0.3
	c-19.2-9.2-42.8-5.7-58.5,10.4c-19.7,20.1-9.6,58.9,16.9,77.9s59.1,70,59.1,70S308.5,326.2,320.8,291.2z"/>
<path class="st4" d="M292.6,381.8c-23.9-1.8-44.9-7-58.8-15.9c-6.5-4.2-6-13.8,0.9-17.3c19-9.7,53.3-30.5,63.9-58.1
	c14.9-38.9,6.4-61.5-13.7-81.2c-16.6-16.2-41.4-18.8-60.6-8c-6.9,3.9-15.3,4.3-22.5,1.2c-18-7.8-37.8,2.8-46.9,17.1
	c-11.1,17.4-18.8,38.2,13.9,68.1c5.4,4.9,10.2,10,14.5,15.2c19.6,23.5,2.7,59.4-28,58.9c-7.6-0.1-15.1-1.1-22.2-2.3
	C39.3,343.8-13.4,176.2,83.4,99.6"/>
<g>
	<polyline class="st5" points="326.4,192.2 325.5,220.3 271.4,218.4 273.8,150.5 281.3,150.8 	"/>
	<polygon class="st5" points="338,195 285.8,180.8 303.6,115.2 346.3,126.8 344.2,135.4 353.4,138.2 	"/>
	<line class="st5" x1="346.7" y1="126.6" x2="353.9" y2="137.9"/>
</g>
<polyline class="st5" points="197.9,75.9 217.9,140.9 269.5,125 249.5,60 208,72.8 "/>
<path class="st6" d="M430.3,461.5c0,0,29.3-20.9,28.5-62.1s-26.7-52.1-33.9-52.9c-5.7,5.6-11.3,9.7-18.4,8.1
	c-10.5,1.3-21.2,9.7-28.8,28.7c-4.6,11.7-16.3,19-28.8,18.3c-5.2-0.3-8.9-1.1-8.9-1.1l-5.1,18.6c0,0,18.5,6.2,34,0.9"/>
<path class="st7" d="M329.9,397.9c1,1,1.8,1.8,2.3,2.3c1.5,1.5,0.5,2.8-0.1,3.6c-0.4,0.4-8.5,8.3-8.5,8.3c-1.3,1.3-2.5,1-3.7-0.3
	c-0.8-0.8-16.7-16.8-19.2-19.2c-1.8-1.7-0.9-2.7,0.3-4c0.5-0.6,7.6-7.6,7.6-7.6c1.5-1.5,2.5-1.6,3.6-0.6c0.5,0.5,5.1,4.9,9.8,9.6"/>
<path class="st2" d="M335.4,396.3c0,0-2.9-5.5-6.2-7.5c-3.3-2-8.2-0.2-9.5,4.9c-1.3,5.1,2.7,4.7,3.8,3.5s2.9-4.4,2.9-4.4"/>
<path class="st8" d="M84.1,100.2C77.4,96.8,74.6,88.7,78,82c3.3-6.7,11.5-9.4,18.2-6.1c1.9,0.9,3.6,2.3,4.8,4"/>
<path class="st8" d="M123.1,93c1.8,9.3-4.2,18.3-13.5,20.1c-9.3,1.8-18.3-4.2-20.1-13.5c-1.8-9.3,4.2-18.3,13.5-20.1
	c6.2-1.2,12.5,1,16.5,5.9"/>
<path class="st9" d="M106.9,87.8v0.9c1.2,0,3.4,0.5,3.4,1.2c0,0.3-0.5,1.1-0.7,1.1c-0.3,0-1.1-0.8-2.7-0.8v5
	c1.9,0.7,4.1,1.5,4.1,4.4c0,2.4-1.6,4-4.1,4.2v1.1c0,0.2-0.1,0.3-0.4,0.3s-0.4-0.1-0.4-0.3v-1c-2.4-0.1-4.2-1-4.2-1.6
	c0-0.3,0.5-1.2,0.7-1.2c0.2,0,1.4,1.1,3.5,1.2v-5.5c-1.9-0.7-4-1.5-4-4.2c0-2.1,1.5-3.5,4-3.8v-0.9c0-0.2,0.1-0.3,0.4-0.3
	C106.7,87.5,106.9,87.6,106.9,87.8z M104,92.6c0,1.2,0.9,1.8,2,2.3v-4.6C104.8,90.5,104,91.3,104,92.6z M106.9,102.2
	c1.3-0.2,2.2-1.3,2.1-2.6c0-1.3-1-2-2.1-2.5V102.2z"/>
<path class="st2" d="M423.7,319.5c-0.8,13.1-11.6,23.4-24.9,23.4c-9.7,0-17.5-2.9-22.2-13.5c-7.1,5.9-11.1-5.1-5-5.1
	c2.6,0,2.5-3.3,2.5-3.3s-0.2-1.3-0.2-2.9c0-2.4,0.3-4.8,1-7"/>
<path class="st10" d="M385.6,280.9c-0.7,0.6-1.4,1-2.3,1.2c-0.9,0.2-0.4-2.8-2.2-2.7s-1.1,3.9-2.3,4.8c-1.3,0.7-1.9-4.3-3.9-4.3
	c-2,0-0.2,5.1-0.9,5.9c-0.8,0.8-8.3-0.8-8.7,1.3c-1.8,9.2,4.4,13.8,9.5,16.5s8.6,2.2,13.1,1.7c0.7-0.1,1.4-0.1,2,0.1
	c1.7,0.7,1.6,3.1,1.6,4.9c0.3,6.6,5.3,12.1,11.9,12.9c1.8,0.3,3.6-0.2,5.1-1.2c1.3-1.1,1.9-2.8,3.4-3.7c2.4-1.3,5.3,0.6,7,2.7
	c1.7,2.1,3.5,4.7,6.1,5.1c3.6,0.5,6.3-3.1,7.6-6.5c3.7-9.5,3.4-20-0.7-29.3C424.5,274,399,271.4,385.6,280.9z"/>
</svg>
