<?xml version="1.0" encoding="utf-8"?>
<!-- Generator: Adobe Illustrator 25.2.0, SVG Export Plug-In . SVG Version: 6.00 Build 0)  -->
<svg version="1.1" id="Layer_1" xmlns="http://www.w3.org/2000/svg" xmlns:xlink="http://www.w3.org/1999/xlink" x="0px" y="0px"
	 viewBox="0 0 800 600" style="enable-background:new 0 0 800 600;" xml:space="preserve">
<style type="text/css">
	.st0{fill:#334054;}
	.st1{fill:none;stroke:#FF6346;stroke-width:2;stroke-miterlimit:10;}
	.st2{fill:none;stroke:#FFE161;stroke-width:2;stroke-miterlimit:10;stroke-dasharray:10,10;}
	.st3{fill:#1FBAD6;}
	.st4{fill:none;stroke:#1FBAD6;stroke-width:2;stroke-miterlimit:10;}
	.st5{fill:none;stroke:#BA9600;stroke-width:2;stroke-miterlimit:10;}
	.st6{fill:url(#SVGID_1_);}
	.st7{fill:#FFE161;}
	.st8{fill:none;stroke:#FFE161;stroke-width:2;stroke-miterlimit:10;}
</style>
<path class="st0" d="M310.3,443.9c19.8,89.3,200.1,78.9,343.6,28.4s136.8-184.4,130.4-242.8c-6.4-58.4-44.1-152.1-196.9-137.6
	C385.7,111,278.5,300.3,310.3,443.9z"/>
<path class="st1" d="M401.4,489.2c-13.6-65.8-10.4-122.4,53.2-144.8"/>
<path class="st2" d="M91.7,251.1c-16.4-15.8-33.9-38.5-48.5-70.3c-13.3-29-16.7-66.4-10.2-104.6"/>
<path class="st2" d="M159.2,362.3c-29.6-15-64.7-38.8-88.7-74.5C30.5,228.3,23,77.3,124.7,20.5"/>
<g>
	<path class="st3" d="M335.6,367.3c0,1-0.8,1.8-1.8,1.8c-1,0-1.8-0.8-1.8-1.8s0.8-1.8,1.8-1.8c0,0,0,0,0,0l0,0
		C334.8,365.5,335.6,366.3,335.6,367.3C335.6,367.2,335.6,367.2,335.6,367.3z"/>
	<path class="st3" d="M376.4,331.1c0,1-0.8,1.8-1.8,1.8c-1,0-1.8-0.8-1.8-1.8c0-1,0.8-1.8,1.8-1.8c0,0,0,0,0,0l0,0
		C375.6,329.3,376.4,330.1,376.4,331.1C376.4,331.1,376.4,331.1,376.4,331.1z"/>
	<path class="st3" d="M415.6,331.1c0,1-0.8,1.8-1.8,1.8c-1,0-1.8-0.8-1.8-1.8c0-1,0.8-1.8,1.8-1.8c0,0,0,0,0,0l0,0
		C414.8,329.3,415.6,330.1,415.6,331.1C415.6,331.1,415.6,331.1,415.6,331.1z"/>
	<path class="st3" d="M335.6,331.1c0,1-0.8,1.8-1.8,1.8c-1,0-1.8-0.8-1.8-1.8c0-1,0.8-1.8,1.8-1.8c0,0,0,0,0,0l0,0
		C334.8,329.3,335.6,330.1,335.6,331.1C335.6,331.1,335.6,331.1,335.6,331.1z"/>
	<path class="st3" d="M297.7,292.4c0,1-0.8,1.8-1.8,1.8c-1,0-1.8-0.8-1.8-1.8c0-1,0.8-1.8,1.8-1.8c0,0,0,0,0,0l0,0
		C296.9,290.6,297.7,291.4,297.7,292.4C297.7,292.4,297.7,292.4,297.7,292.4z"/>
	<path class="st3" d="M335.6,292.4c0,1-0.8,1.8-1.8,1.8c-1,0-1.8-0.8-1.8-1.8c0-1,0.8-1.8,1.8-1.8c0,0,0,0,0,0l0,0
		C334.8,290.6,335.6,291.4,335.6,292.4C335.6,292.4,335.6,292.4,335.6,292.4z"/>
	<path class="st3" d="M335.6,253.7c0,1-0.8,1.8-1.8,1.8s-1.8-0.8-1.8-1.8c0-1,0.8-1.8,1.8-1.8c0,0,0,0,0,0l0,0
		C334.8,251.9,335.6,252.7,335.6,253.7C335.6,253.7,335.6,253.7,335.6,253.7z"/>
	<path class="st3" d="M376.4,292.4c0,1-0.8,1.8-1.8,1.8c-1,0-1.8-0.8-1.8-1.8c0-1,0.8-1.8,1.8-1.8c0,0,0,0,0,0l0,0
		C375.6,290.6,376.4,291.4,376.4,292.4C376.4,292.4,376.4,292.4,376.4,292.4z"/>
	<path class="st3" d="M335.6,214.8c0,1-0.8,1.8-1.8,1.8s-1.8-0.8-1.8-1.8c0-1,0.8-1.8,1.8-1.8c0,0,0,0,0,0l0,0
		C334.8,213,335.6,213.8,335.6,214.8C335.6,214.8,335.6,214.8,335.6,214.8z"/>
	<path class="st3" d="M644.6,258.3c0,1-0.8,1.8-1.8,1.8c-1,0-1.8-0.8-1.8-1.8c0-1,0.8-1.8,1.8-1.8c0,0,0,0,0,0l0,0
		C643.8,256.5,644.6,257.3,644.6,258.3C644.6,258.3,644.6,258.3,644.6,258.3z"/>
	<path class="st3" d="M607.1,258.3c0,1-0.8,1.8-1.8,1.8c-1,0-1.8-0.8-1.8-1.8c0-1,0.8-1.8,1.8-1.8c0,0,0,0,0,0l0,0
		C606.3,256.5,607.1,257.3,607.1,258.3C607.1,258.3,607.1,258.3,607.1,258.3z"/>
	<path class="st3" d="M682.6,258.3c0,1-0.8,1.8-1.8,1.8c-1,0-1.8-0.8-1.8-1.8c0-1,0.8-1.8,1.8-1.8c0,0,0,0,0,0l0,0
		C681.8,256.5,682.6,257.3,682.6,258.3C682.6,258.3,682.6,258.3,682.6,258.3z"/>
	<path class="st3" d="M644.6,219.6c0,1-0.8,1.8-1.8,1.8c-1,0-1.8-0.8-1.8-1.8c0-1,0.8-1.8,1.8-1.8c0,0,0,0,0,0l0,0
		C643.8,217.8,644.6,218.6,644.6,219.6C644.6,219.6,644.6,219.6,644.6,219.6z"/>
	<path class="st3" d="M682.6,219.6c0,1-0.8,1.8-1.8,1.8c-1,0-1.8-0.8-1.8-1.8c0-1,0.8-1.8,1.8-1.8c0,0,0,0,0,0l0,0
		C681.8,217.8,682.6,218.6,682.6,219.6C682.6,219.6,682.6,219.6,682.6,219.6z"/>
	<path class="st3" d="M644.6,180.9c0,1-0.8,1.8-1.8,1.8c-1,0-1.8-0.8-1.8-1.8c0-1,0.8-1.8,1.8-1.8c0,0,0,0,0,0l0,0
		C643.8,179.1,644.6,179.9,644.6,180.9C644.6,180.9,644.6,180.9,644.6,180.9z"/>
	<path class="st3" d="M644.6,145.9c0,1-0.8,1.8-1.8,1.8c-1,0-1.8-0.8-1.8-1.8c0-1,0.8-1.8,1.8-1.8c0,0,0,0,0,0l0,0
		C643.8,144.2,644.6,145,644.6,145.9C644.6,145.9,644.6,145.9,644.6,145.9z"/>
	<path class="st3" d="M682.6,180.9c0,1-0.8,1.8-1.8,1.8c-1,0-1.8-0.8-1.8-1.8c0-1,0.8-1.8,1.8-1.8c0,0,0,0,0,0l0,0
		C681.8,179.1,682.6,179.9,682.6,180.9C682.6,180.9,682.6,180.9,682.6,180.9z"/>
	<path class="st3" d="M720.5,180.9c0,1-0.8,1.8-1.8,1.8c-1,0-1.8-0.8-1.8-1.8c0-1,0.8-1.8,1.8-1.8c0,0,0,0,0,0l0,0
		C719.7,179.1,720.5,179.9,720.5,180.9C720.5,180.9,720.5,180.9,720.5,180.9z"/>
	<path class="st3" d="M259.7,214.8c0,1-0.8,1.8-1.8,1.8s-1.8-0.8-1.8-1.8c0-1,0.8-1.8,1.8-1.8c0,0,0,0,0,0l0,0
		C258.9,213,259.7,213.8,259.7,214.8C259.7,214.8,259.7,214.8,259.7,214.8z"/>
	<path class="st3" d="M297.7,214.8c0,1-0.8,1.8-1.8,1.8c-1,0-1.8-0.8-1.8-1.8s0.8-1.8,1.8-1.8l0,0
		C296.9,213,297.7,213.8,297.7,214.8C297.7,214.8,297.7,214.8,297.7,214.8z"/>
	<path class="st3" d="M297.7,176.1c0,1-0.8,1.8-1.8,1.8c-1,0-1.8-0.8-1.8-1.8c0-1,0.8-1.8,1.8-1.8c0,0,0,0,0,0l0,0
		C296.9,174.3,297.7,175.1,297.7,176.1C297.7,176.1,297.7,176.1,297.7,176.1z"/>
	<path class="st3" d="M335.6,176.1c0,1-0.8,1.8-1.8,1.8s-1.8-0.8-1.8-1.8c0-1,0.8-1.8,1.8-1.8l0,0
		C334.8,174.3,335.6,175.1,335.6,176.1C335.6,176.1,335.6,176.1,335.6,176.1z"/>
	<path class="st3" d="M297.7,137.4c0,1-0.8,1.8-1.8,1.8c-1,0-1.8-0.8-1.8-1.8c0-1,0.8-1.8,1.8-1.8c0,0,0,0,0,0l0,0
		C296.9,135.6,297.7,136.4,297.7,137.4C297.7,137.4,297.7,137.4,297.7,137.4z"/>
	<path class="st3" d="M335.6,401.4c0,1-0.8,1.8-1.8,1.8c-1,0-1.8-0.8-1.8-1.8c0-1,0.8-1.8,1.8-1.8c0,0,0,0,0,0l0,0
		C334.8,399.6,335.6,400.4,335.6,401.4z"/>
</g>
<path class="st4" d="M406,263.8c-3.9-2.4-7-5.8-8.8-10c-0.8-1.9-2.4-3.4-4.4-4.2c-7.5-2.9-13.2-9.4-14.3-17.5l0,0
	c-0.3-2.4-1.6-4.5-3.7-6c-4.9-3.4-8.3-8.6-9.1-14.8c-0.3-2.1-0.2-4.1,0.1-6.1c0.4-2.2-0.3-4.4-1.8-6.2c-2.5-3-4.2-6.6-4.7-10.7
	c-0.6-4.3,0.2-8.5,2-12.2c1-2.1,1.1-4.5,0.2-6.6c-0.8-1.8-1.3-3.6-1.6-5.6c-0.8-6.1,1.1-12,4.9-16.5c1.6-1.9,2.2-4.3,1.9-6.6l0-0.2
	c-1.1-8.3,2.8-16.2,9.6-20.9c2-1.4,3.3-3.5,3.6-5.8c1.1-7.9,6.6-14.7,14.3-17.9c2.1-0.9,3.7-2.5,4.6-4.5
	c3.2-7.2,10.3-12.7,19.1-13.9c0.3,0,0.6-0.1,0.9-0.1c2.6-0.2,4.9-1.5,6.5-3.4c3.8-4.7,9.4-8,16.1-8.9c1.9-0.2,3.7-0.3,5.5-0.1
	c2.2,0.2,4.5-0.5,6.3-1.8c3.2-2.3,7.2-4,11.5-4.5c0.6-0.1,1.2-0.1,1.7-0.2c0.6-0.1,1.1-0.2,1.7-0.3c4.3-0.6,8.5,0,12.3,1.4
	c2.1,0.8,4.4,0.9,6.5,0.2c1.7-0.6,3.5-1,5.3-1.3c6.7-0.9,13,0.9,17.9,4.5c2,1.5,4.6,2.1,7.2,1.7c0.3,0,0.6-0.1,0.9-0.1
	c8.8-1.1,17.2,2.4,22.1,8.5c1.4,1.7,3.4,2.8,5.6,3.1c8.4,1.1,15.5,6.3,18.6,13.6c0.9,2.1,2.7,3.8,5,4.6c7.8,2.8,13.7,9.4,14.8,17.7
	l0,0.2c0.3,2.4,1.6,4.5,3.6,5.9c4.8,3.4,8.2,8.6,9,14.7c0.3,2,0.2,3.9,0,5.8c-0.3,2.3,0.3,4.6,1.9,6.4c2.7,3.1,4.6,6.9,5.2,11.3
	c0.5,4-0.1,8-1.7,11.5c-0.9,2.1-1,4.4-0.1,6.4c0.8,1.8,1.4,3.8,1.7,5.9c0.8,6.1-1.1,12-4.9,16.6c-1.6,1.9-2.3,4.3-2,6.7l0,0
	c1.1,8.1-2.7,15.8-9.2,20.5c-1.7,1.3-2.9,3.2-3.2,5.2c-1.2,7.9-6.9,14.8-14.9,17.8c-2.5,0.9-4.4,2.8-5.3,5.1
	c-2.9,7.7-10.3,13.7-19.5,14.9c-1.7,0.2-3.3,0.3-4.9,0.1c-3.2-0.2-6.2,1.5-7.7,4.2"/>
<path class="st5" d="M546.9,267.8c4.6,31.6,2.3,61.4,2.3,61.4S506,369.4,485.1,343c0,0-4.3-9.8-7.7-25.6"/>
<path class="st5" d="M407.9,171.3c-13.9,58.9,10.2,134.1,55.8,132.6c51.4-3.3,72.6-63.5,72.6-63.5s9.1,1,14.5-3.6
	c31.6-26.8,16.7-64-10.7-55.1"/>
<path class="st4" d="M553.2,170.9c0,0-19.6,12.5-27.1,32.1c-12.4,0-12.9-48.9-12.9-48.9c-48.9-22.3-89.2-13-105.8,6.3"/>
<path class="st1" d="M483.3,254.6c-0.2,0.1-12.9,11.7-27.4,11.7c-3.9,0-8-0.8-12-3"/>
<path class="st5" d="M453.2,242.6c0,0-0.2,0-0.4,0c-0.7,2.6-12.9,6-16.3-0.3c-4.2-7.3,0.8-12.8,4.3-17.8c4.3-6.1,8.1-12.6,6.9-18.2"
	/>
<g>
	<path class="st3" d="M426.3,215.6c0.8,0.2,0.6,1.5,0.7,2.4c0.3,3.4-2.2,6.5-5.7,6.8c-3.4,0.3-6.5-2.2-6.8-5.7
		c-0.1-1.5,0.2-2.9,1-4.1C415.5,215.1,419.8,214.1,426.3,215.6z"/>
</g>
<g>
	<path class="st3" d="M479.2,210.7c0.8,0.2,0.6,1.5,0.7,2.4c0.3,3.4-2.2,6.5-5.7,6.8c-3.4,0.3-6.5-2.2-6.8-5.7
		c-0.1-1.5,0.2-2.9,1-4.1C468.4,210.2,472.7,209.2,479.2,210.7z"/>
</g>
<path class="st4" d="M462.1,196.3c1.5-2.8,4.2-4.7,6.9-5.8c2.8-1.1,5.7-1.3,8.5-1.3c2.8,0,5.6,0.5,8.3,1.2c2.7,0.8,5.3,1.7,7.7,3.3"
	/>
<path class="st4" d="M406.6,200.4c1.4-2.6,3.9-4.3,6.5-5.5c2.6-1.2,5.4-1.6,8.2-1.8c2.8-0.1,5.5,0.1,8.1,0.6
	c2.6,0.6,5.2,1.3,7.7,2.6"/>
<path class="st5" d="M309.8,490.3c0,0,11.8,28.8,65.5,52.8c53.7,24,161.5,51.4,195.4,53.5s66.7-56.2,66.7-56.2"/>
<g>
	
		<linearGradient id="SVGID_1_" gradientUnits="userSpaceOnUse" x1="3775.7329" y1="-2939.7708" x2="3791.5815" y2="-2967.2212" gradientTransform="matrix(0.7599 -0.6741 0.6034 0.7248 -781.2252 5126.6768)">
		<stop  offset="0" style="stop-color:#E22D6C"/>
		<stop  offset="1" style="stop-color:#FF6346"/>
	</linearGradient>
	<path class="st6" d="M323.8,431.4c0,0-10.3-8.6-11.4-9.6c-1.1-0.9-2.2-1.7-3.7-1.2c-1.7,0.5-3.8,1.3-5,1.8
		c-1.2,0.5-2.6,1.2-3.8,1.7l-2.8,1.3c-1.2,0.6-2.6,1.3-3.7,1.9c-1.1,0.6-3,1.7-4.3,2.5c-1.1,0.8-0.3,1.7,0.7,2.6
		c1.1,0.9,11.1,9.3,11.1,9.3l2.3,1.9c3,2.4,7,5.7,7.6,6.2c1,0.8,2.1,1.4,3.5,0.9c1.6-0.6,3.6-1.5,4.8-2.1c1.2-0.5,2.6-1.2,3.8-1.8
		l2.8-1.2c1.2-0.5,2.7-1.1,3.9-1.6c1.2-0.5,3.2-1.4,4.6-2.1c1.2-0.6,0.5-1.4-0.5-2.3c-0.7-0.5-5-4.1-8.1-6.7L323.8,431.4z"/>
</g>
<g>
	<path class="st7" d="M224.5,366.2l-4.4,0.6c-0.4-0.7-0.9-1.3-1.5-1.7c-1.3-1-3.4-1.3-6.1-0.9c-2.2,0.3-4,0.8-5.3,1.2l0.2,3.2
		l-4,0.6l0.1,1.8l4-0.6l0.1,2.3l-4,0.6l0.1,1.8l4-0.6l0.7,12l2.8-0.4l-0.5-8.6c0.6,0.1,1.4,0,2.2-0.1c2.7-0.4,5-1.5,6.4-3.3
		c0.4-0.4,0.6-0.9,0.9-1.5l4.6-0.7l-0.1-1.8l-4,0.6c0.1-0.5,0.1-1,0-1.5c0-0.3,0-0.5-0.1-0.8l3.9-0.6L224.5,366.2z M210.1,367.1
		c0.5-0.2,1.4-0.4,2.6-0.6c1.8-0.3,3.3,0,4.2,0.9l-6.7,1L210.1,367.1z M212.9,375.3c-0.9,0.1-1.7,0.2-2.3,0.1l-0.1-1.2l6.5-0.9
		C216.2,374.3,214.8,375,212.9,375.3z M218,369.9c0,0.5,0,0.9-0.1,1.4l-7.5,1.1l-0.1-2.3l7.6-1.1C218,369.3,218,369.6,218,369.9z"/>
</g>
<g>
	<path class="st4" d="M343,510.6c12.3,7.3,14.6,1.9,17.8-0.8c3.5-3,11.2-17.9,13-21.3c1.8-3.3,0.1-5.7-3.6-9.2
		c-3.7-3.5-47.3-42.8-55.7-49.5c-8.4-6.7-12.9-8.4-16-8.2s-16.9,2.6-20.8,3.9s-4.3,6-5.2,12c-0.9,6-0.2,8.9,40.2,48
		c10,9.7,17.8,16.4,23.8,20.8"/>
	<path class="st4" d="M278.9,433.5c0,0,69.7,67.3,75,70.7c5.3,3.4,8.3,2.9,9.5,2"/>
	<path class="st4" d="M290.9,434.8c1.9-1,13.6-5.3,15.4-5.9c1.8-0.6,4.5,1.4,14.3,9c9.9,7.6,9.6,8.3,8.5,9.3
		c-1.5,1.5-12.7,7.1-14.6,8.2c-1.9,1.1-3.7,1.2-5.9-0.7c-2.3-2-16.7-15-18.1-16.4C289.2,437,289.2,435.7,290.9,434.8z"/>
	<path class="st4" d="M312.9,460.6c1.5,1.8,36.7,33,38.5,34.4c1.8,1.4,6.6,4.6,9.7-0.3c3.1-4.9,5.9-8.8,6.7-10.5
		c0.8-1.6,0.3-3.7-5.8-9c-6.1-5.2-26.9-25.7-27.6-26.3c-0.7-0.7-1.6,0.8-6,3.8c-4.4,3.1-12.6,5.9-14,6.3
		C313,459.6,312.1,459.7,312.9,460.6z"/>
	<line class="st4" x1="324.9" y1="461.2" x2="362" y2="492.8"/>
	<line class="st4" x1="330.1" y1="451.8" x2="361.8" y2="482.6"/>
	<path class="st4" d="M326,472.3c0,0,12.8-4.4,18.1-13"/>
	<path class="st4" d="M338,476.8c0,0,8.8-3.5,12.3-12.1"/>
	<path class="st4" d="M339.5,485.2c0,0,8-2.7,12.4-7"/>
	<path class="st4" d="M349.9,489.8c0,0,8.4-0.1,12.1-14.6"/>
</g>
<g>
	<path class="st5" d="M384.7,503.9c0,0-11.3-7.9-19.3-15.8c-20.7-17.7-8.7-30,9.9-16.2c11.3,8.3,23.9,13.6,35.7,26
		s20.7,24.6,67.7,30.4c51.3,5.1,100.7-5.6,100.7-5.6s12.9-27.2,17.7-65.5"/>
</g>
<g>
	<g>
		<path class="st7" d="M143,283.1l-0.1-1.6l-3.4-0.5l-0.6-6.9l-2.3-0.4l0.6,6.9l-4.8-0.8l-5-7.6l-2.7-0.4l0.5,6.9l-3.2-0.5l0.1,1.6
			l3.2,0.5l0.2,2.2l-3.2-0.5l0.1,1.6l3.3,0.5l0.5,6.4l2.3,0.4l-0.5-6.4l5.4,0.9l4.7,7.1l2.5,0.4l-0.6-6.4l3.4,0.5l-0.1-1.6l-3.4-0.5
			l-0.2-2.2L143,283.1z M127,275.1L127,275.1c0.8,1.4,1.6,2.8,2.5,4.3l-2.1-0.3C127.3,277.7,127.2,276.4,127,275.1z M127.8,282.8
			c-0.1-0.8-0.1-1.5-0.2-2.2l3,0.5c0.2,0.3,0.3,0.5,0.5,0.8l1.1,1.6L127.8,282.8z M138.2,289.3L138.2,289.3
			c-0.7-1.1-1.3-2.3-2.1-3.6l1.6,0.3C137.8,287.1,138,288.1,138.2,289.3z M137.5,284.4L135,284c-0.3-0.4-0.6-0.9-0.9-1.3l-0.7-1.1
			l3.8,0.6C137.4,283,137.4,283.7,137.5,284.4z"/>
	</g>
</g>
<path class="st8" d="M254.4,387.7c0,0-15.2,9-39.2,7C188.3,392.4,173,379,173,379l0.9-28.4c0,0,16.5,9.7,36.7,7.1s33-13,33-13
	L254.4,387.7z"/>
<path class="st8" d="M245.3,392.2l4,20c0,0-21.1,0.4-43.4-8.6c-27.7-11.2-40.5-16.5-40.5-16.5l1.5-23.9c0,0,2.5,1.5,6.7,3.1"/>
<path class="st8" d="M172,317.2c0,0-16-8.1-39.1-14.6c-26-7.3-38.4-23.4-38.4-23.4l6.3-27.7c0,0,14.4,12.7,34.6,14
	s34.1,7.6,34.1,7.6L172,317.2z"/>
<path class="st1" d="M589.9,457.2c0,0,64.7,6.1,96.6-13.8c0,0,5.7-58.7-42.7-99.7c-23.3-19.7-74.6-27.6-83.7-28.4"/>
</svg>
