<svg id="Layer_1" data-name="Layer 1" xmlns="http://www.w3.org/2000/svg" viewBox="0 0 500 500"><defs><style>.cls-1,.cls-3,.cls-4,.cls-6{fill:none;stroke-miterlimit:10;stroke-width:2px;}.cls-1{stroke:#21bbd7;}.cls-2{fill:#344154;}.cls-3{stroke:#fee162;}.cls-4{stroke:#0a7a8a;}.cls-5{fill:#0a7a8a;}.cls-6{stroke:#f2644a;}.cls-7{fill:#4e5e75;}</style></defs><path class="cls-1" d="M257.57,338.19c-5.7,3.4-11.7,11.4-14.4,10-3.2-1.6-1.4-6.2,4.8-12.8,10-10.7,25.9-8.7,30-7.7"/><path class="cls-2" d="M149.36,396.42c-37.41-6.85-68.13-19.27-79.46-88.7C53.55,207.48,122,200.27,147.23,230.39S191.62,401.29,149.36,396.42Z"/><path class="cls-2" d="M352.89,249.26c26.5-30.8,71.6-53.9,73.7,52.3-4.07,55.19-15.95,114.8-63.51,81.1S317.09,291,352.89,249.26Z"/><path class="cls-3" d="M404.81,163.89c-3.07,8.53-14.89,5.44-6.29-9.16a14.28,14.28,0,0,0,1.24-13.64c-14.41-36.16-58.07-13.66-53.91-29s26.22-22,36.89-24c26.66-5,53,6.59,55.77,43.78C440,152.49,424.08,174.9,417,181a41.09,41.09,0,0,1,25.05,38.68c0,17.16,12.91,18.45,12.91,18.45s-7.29,8.5-16.4,9.29"/><path class="cls-4" d="M79.75,375.57s-22.26-77,7.4-143.2a55.47,55.47,0,0,1,16.47-20.93s10.58,18.54,52,13.63a263.67,263.67,0,0,1,14.49,46.72c5.14,25.23,4.44,43.74,4.74,51.34"/><path class="cls-1" d="M361.57,228.59c.6-5.7,4.37-23.59,4.37-23.59s-12,5.72-20.47.79c-7.7-7.9-2.43-31.7-2.43-31.7s-6.87-.4-8.87-4.8,10.6-21.4,10.6-21.4"/><path class="cls-1" d="M402.17,176.79s-8.18,16.15-10.48,29.35"/><path class="cls-1" d="M404.77,163.89c1.3-4,11.6-5,9.4,7.4-2.1,12.1-11.2,9.7-12,5.1"/><path class="cls-3" d="M373,145.39c-.1-5.1-7.74-14.68-17.34-9.08"/><path class="cls-1" d="M341.07,188s7.7,2.5,10.6-.4"/><path class="cls-1" d="M163.15,124.61c4.21,7.94.4,17.79,1.65,21.56,5.36,16.12,18.87,16.73,17.17,20.62-2.1,4.7-10.8,4.8-10.8,4.8s1.9,6.9.7,20.4c-1.1,12.6-20,17.7-20,17.7l-.57,11.91"/><path class="cls-5" d="M147.66,149.66a23.43,23.43,0,0,1,3.8-.5,4.68,4.68,0,1,0-8.2.9,9,9,0,0,0,.9,1A16.13,16.13,0,0,1,147.66,149.66Z"/><path class="cls-5" d="M357.67,152.39a25.3,25.3,0,0,1,3.5,1.5,4.71,4.71,0,0,0,1.9-4,4.7,4.7,0,0,0-9.4.4,5.07,5.07,0,0,0,.2,1.3C353.87,151.69,356.07,151.89,357.67,152.39Z"/><path class="cls-1" d="M161.87,185.89c2.6,4,10.1,2.1,10.1,2.1"/><path class="cls-6" d="M110.06,183.66c-3.1,9.9-15.4,7.3-21.8-3-33.8-62,9.2-78.2,9.2-78.2s45.8-27.9,81.7,5.9c-2.9,7.3-11.8,11.6-25.6,14.2s-17.1,3.5-34.3,6.6c0,0-9.4,17.2-9.4,28.6"/><path class="cls-6" d="M134.26,144.66c6.1-13.3,17.2-8.6,17.2-8.6"/><path class="cls-1" d="M106.36,181.46c-.9,5-10.7,7.6-12.9-5.5-2.3-13.3,8.8-12.2,10.1-8"/><path class="cls-4" d="M431.76,324.05s-6.09-48.17-2.86-72.69c2.86-21.75-28.62-34.34-28.62-34.34-17.17,29.19-34.34,24.61-37.41,16l-2-7.7s-9-1.59-22.3,15.1-15.16,71.34-22.8,77.5-31.2,10.5-37.4,9.7c0,0,5.6,37.5-2.4,42.2"/><g id="Layer_3" data-name="Layer 3"><path class="cls-7" d="M249.17,222.69a2,2,0,0,0,1.9,1.9h0a1.82,1.82,0,0,0,1.9-1.8,1.9,1.9,0,0,0-1.9-1.9,1.82,1.82,0,0,0-1.9,1.8Z"/><path class="cls-7" d="M291.87,263.09a2,2,0,0,0,1.9,1.9h0a1.82,1.82,0,0,0,1.9-1.8,1.9,1.9,0,0,0-1.9-1.9,1.82,1.82,0,0,0-1.9,1.8Z"/><path class="cls-7" d="M291.87,303.49a1.9,1.9,0,0,0,1.9,1.9h0a1.82,1.82,0,0,0,1.9-1.8,1.84,1.84,0,0,0-1.9-1.9,1.82,1.82,0,0,0-1.9,1.8Z"/><path class="cls-7" d="M249.17,263.09a2,2,0,0,0,1.9,1.9h0a1.82,1.82,0,0,0,1.9-1.8,1.9,1.9,0,0,0-1.9-1.9,1.82,1.82,0,0,0-1.9,1.8Z"/><path class="cls-7" d="M249.17,303.49a1.79,1.79,0,0,0,1.8,1.8h0a1.75,1.75,0,1,0,.2-3.5,1.88,1.88,0,0,0-2,1.7Z"/><path class="cls-7" d="M209.67,303.49a1.9,1.9,0,0,0,1.9,1.9h0a1.82,1.82,0,0,0,1.9-1.8,1.84,1.84,0,0,0-1.9-1.9,1.82,1.82,0,0,0-1.9,1.8Z"/><path class="cls-7" d="M209.67,385.29a1.9,1.9,0,0,0,1.9,1.9h0a1.82,1.82,0,0,0,1.9-1.8,1.84,1.84,0,0,0-1.9-1.9,1.82,1.82,0,0,0-1.9,1.8Z"/><path class="cls-7" d="M249.07,385.39a1.76,1.76,0,0,0,1.9,1.8h0a2,2,0,0,0,1.9-1.9,1.82,1.82,0,0,0-1.9-1.8,1.9,1.9,0,0,0-1.9,1.9Z"/></g><path class="cls-1" d="M154.73,307.45s6.3,8.59,11.45,12,46.36,19.47,63,16l16.6-3.43"/><path class="cls-1" d="M125.54,324.14s20.6,22.24,54.37,29.1a437.54,437.54,0,0,0,52.76,7.65s20.3,7.5,23,8.4c4.3,1.3,6.6,1.9,8.3.1s-.3-5-.3-5,3,.9,4.7-1.5-.7-5-.7-5,3.1.4,4.2-1.9-1-4.8-1-4.8,3.3.1,4.2-2.2-.3-3.4-2-4.5c-.8-.5-10.1-3.9-16.4-6.1"/><path class="cls-4" d="M121.13,329.27c11.14-15.32,34.42-29.79,34.42-29.79-4.89-4.84-42.65-62-56.52-57.33,0,0-22.14,4.14-12.08,31.79s20.27,40.48,27.57,47.45"/></svg>