<?xml version="1.0" encoding="utf-8"?>
<!-- Generator: Adobe Illustrator 23.0.4, SVG Export Plug-In . SVG Version: 6.00 Build 0)  -->
<svg version="1.1" id="Layer_1" xmlns="http://www.w3.org/2000/svg" xmlns:xlink="http://www.w3.org/1999/xlink" x="0px" y="0px"
	 viewBox="0 0 450 450" style="enable-background:new 0 0 450 450;" xml:space="preserve">
<style type="text/css">
	.st0{fill:#1EB9D5;}
	.st1{fill:none;stroke:#334054;stroke-width:6;stroke-miterlimit:10;}
	.st2{fill:none;stroke:#FF6346;stroke-width:6;stroke-miterlimit:10;}
</style>
<g>
	<path class="st0" d="M224.3,195.1v3.2c4.7,0.1,12.9,2,12.9,4.7c0,1.3-1.8,4.3-2.6,4.3c-1.3,0-4.2-3-10.3-3.1v19.1
		c7.3,2.6,15.6,5.6,15.6,16.9c0,9.3-6.1,15.3-15.6,16.1v4.1c0,0.9-0.4,1.3-1.6,1.3c-1.2,0-1.6-0.4-1.6-1.3v-4
		c-9.3-0.3-16.3-3.8-16.3-6c0-1.3,2-4.4,2.9-4.4c1,0,5.4,4.2,13.4,4.5v-21.1c-7.2-2.8-15.2-5.7-15.2-16.3c0-8,5.9-13.6,15.2-14.6
		v-3.4c0-0.9,0.4-1.3,1.6-1.3C223.8,193.8,224.3,194.2,224.3,195.1z M213.3,213.5c0,4.7,3.3,6.9,7.7,8.7v-17.6
		C216.4,205.4,213.3,208.3,213.3,213.5z M224.3,250.3c4.9-0.9,8.2-4.7,8.2-10c0-5.1-3.7-7.6-8.2-9.6V250.3z"/>
</g>
<g>
	<polyline class="st1" points="279.9,161.9 279.9,292.9 198.1,292.9 197.7,265.1 165.9,265.5 165.9,161.9 261.6,161.9 	"/>
	<line class="st1" x1="196.9" y1="293.7" x2="164.8" y2="266.3"/>
</g>
<g>
	<line class="st2" x1="187.5" y1="110.2" x2="258.7" y2="181.6"/>
	<line class="st2" x1="258.7" y1="110.2" x2="187.5" y2="181.6"/>
</g>
<g id="Layer_4">
</g>
<g id="Layer_6">
</g>
<g id="Layer_10">
</g>
<g id="Layer_5">
</g>
<g id="Layer_8">
</g>
<g id="Layer_9">
</g>
</svg>
