<svg xmlns="http://www.w3.org/2000/svg" viewBox="0 0 450 450"><defs><style>.a,.b{fill:none;stroke-miterlimit:10;stroke-width:6px;}.a{stroke:#1eb9d5;}.b{stroke:#334054;}.c{fill:#ff6346;}</style></defs><title>number-icon-3</title><path class="a" d="M247,251.17a82.66,82.66,0,1,1,16.84-22.65"/><path class="b" d="M215.31,131.54s44.77,12.11,32.1,59.13"/><path class="c" d="M247,176.32q0,17.43-9.78,28.51t-27.7,14.82v1q21.91,2.75,32.5,14T252.64,264q0,26-18,40t-51.3,14a148.92,148.92,0,0,1-26.46-2.18,90.27,90.27,0,0,1-23.35-7.66V288.5A119.32,119.32,0,0,0,184,300.45q47.18,0,47.19-37,0-33.12-52-33.12H161.25v-17.8h18.18q21.28,0,33.74-9.4t12.45-26.09q0-13.32-9.15-20.92t-24.84-7.59a76.63,76.63,0,0,0-22.54,3.24q-10.58,3.24-24.15,12l-10.46-14a87.16,87.16,0,0,1,25.84-13.88,93.9,93.9,0,0,1,30.81-5q26.52,0,41.22,12.14T247,176.32Z"/><path class="c" d="M286.51,302.32q0-8.34,3.8-12.64t10.89-4.29q7.21,0,11.27,4.29t4,12.64q0,8.1-4.11,12.45t-11.21,4.36a14.77,14.77,0,0,1-10.52-3.92Q286.51,311.28,286.51,302.32Z"/></svg>