<svg xmlns="http://www.w3.org/2000/svg" viewBox="0 0 450 450"><defs><style>.a,.b{fill:none;stroke-miterlimit:10;stroke-width:6px;}.a{stroke:#334054;}.b{stroke:#1eb9d5;}.c{fill:#ff6346;}</style></defs><title>number-icon-1</title><line class="a" x1="207.15" y1="139.7" x2="207.15" y2="310.33"/><path class="b" d="M159.52,250.73A82.91,82.91,0,1,1,203,261a83.71,83.71,0,0,1-16.76-1"/><path class="c" d="M205,314.21H184.78V184.47q0-16.18,1-30.63c-1.74,1.74-3.7,3.57-5.85,5.48s-12,10-29.64,24.28l-10.95-14.19,48.18-37.23H205Z"/><path class="c" d="M280.66,301q0-8.34,3.79-12.63t10.9-4.3q7.22,0,11.27,4.3t4,12.63q0,8.1-4.1,12.46t-11.21,4.35a14.73,14.73,0,0,1-10.52-3.92Q280.66,310,280.66,301Z"/></svg>