<?xml version="1.0" encoding="utf-8"?>
<!-- Generator: Adobe Illustrator 24.1.2, SVG Export Plug-In . SVG Version: 6.00 Build 0)  -->
<svg version="1.1" id="Layer_1" xmlns="http://www.w3.org/2000/svg" xmlns:xlink="http://www.w3.org/1999/xlink" x="0px" y="0px"
	 viewBox="0 0 450 450" style="enable-background:new 0 0 450 450;" xml:space="preserve">
<style type="text/css">
	.st0{fill:#FF6346;}
	.st1{fill:none;stroke:#334054;stroke-width:6;stroke-miterlimit:10;}
	.st2{fill:none;stroke:#1EB9D5;stroke-width:6;stroke-miterlimit:10;}
</style>
<g>
	<path class="st0" d="M282,301.9c0-5.5,1.2-9.7,3.8-12.5c2.5-2.8,6.1-4.2,10.8-4.2c4.8,0,8.5,1.4,11.1,4.2c2.7,2.8,4,7,4,12.5
		c0,5.3-1.4,9.4-4.1,12.3c-2.7,2.9-6.4,4.3-11.1,4.3c-4.2,0-7.6-1.3-10.4-3.9C283.3,312,282,307.8,282,301.9z"/>
	<path class="st1" d="M256.5,264.8c0,0-4.3,44.2-59.4,51.1"/>
	<g>
		<path class="st2" d="M173.9,170.4c26.9-6.3,56.4,1.1,77.2,22.3c31.7,32.2,31.3,84-0.9,115.8s-84,31.3-115.8-0.9
			s-31.3-84,0.9-115.8c4-4,8.4-7.4,12.9-10.4"/>
	</g>
	<g>
		<path class="st0" d="M254.9,150.2h-57.3L186,188.8c3.5-0.8,7-1.1,11.3-1.1c35.9,0,58.9,27.1,58.9,61.9c0,39.9-30,64.3-65.1,64.3
			c-14.5,0-27.9-4-39.9-13.9c-5.6-4.8-11.3-11-15.5-18.2l15.8-11.3c2.9,5.9,6.7,10.2,12.1,14.5c7.5,6.2,16.6,10.7,28.9,10.7
			c25.2,0,43.9-20.6,43.9-45.8c0-25.7-18.5-43.9-43.9-43.9c-6.4,0-18.5,1.1-34.6,12.3l26-86.3h71V150.2z"/>
	</g>
</g>
</svg>
