<svg xmlns="http://www.w3.org/2000/svg" viewBox="0 0 450 450"><defs><style>.a,.b{fill:none;stroke-miterlimit:10;stroke-width:6px;}.a{stroke:#334054;}.b{stroke:#1eb9d5;}.c{fill:#ff6346;}</style></defs><title>number-icon-2</title><line class="a" x1="137.29" y1="318.75" x2="249.95" y2="318.75"/><path class="b" d="M242.74,297.65a82.6,82.6,0,1,1,3.53-28"/><path class="c" d="M253.51,315.52H133.86V297.71l47.93-48.18q21.92-22.17,28.89-31.63a80.47,80.47,0,0,0,10.46-18.43,52.79,52.79,0,0,0,3.49-19.29q0-14.58-8.84-23.1t-24.53-8.53a61.42,61.42,0,0,0-21.48,3.74q-10.16,3.74-22.6,13.57l-11-14.07q25.16-20.92,54.79-20.92,25.65,0,40.22,13.13t14.56,35.3q0,17.31-9.71,34.24t-36.36,42.84l-39.84,39v1h93.63Z"/><path class="c" d="M286.14,302.32q0-8.34,3.79-12.64t10.9-4.29q7.21,0,11.27,4.29t4,12.64q0,8.1-4.11,12.45t-11.2,4.36a14.76,14.76,0,0,1-10.52-3.92C287.52,312.59,286.14,308.3,286.14,302.32Z"/></svg>