<svg xmlns="http://www.w3.org/2000/svg" viewBox="0 0 450 450"><defs><style>.a,.b{fill:none;stroke-miterlimit:10;stroke-width:6px;}.a{stroke:#334054;}.b{stroke:#1eb9d5;}.c{fill:#ff6346;}</style></defs><title>number-icon-4</title><line class="a" x1="241.07" y1="304.95" x2="241.07" y2="143.46"/><path class="b" d="M235,198.25a82.41,82.41,0,1,1-26.86-8.69"/><path class="c" d="M265.65,272.87h-27v41.84H218.84V272.87H130.31V254.82l86.41-123.14h21.91V254.07h27Zm-46.81-18.8V193.56q0-17.81,1.24-40.22h-1a187.39,187.39,0,0,1-11.21,19.8L151,254.07Z"/><path class="c" d="M289.68,301.51q0-8.34,3.8-12.64t10.9-4.29q7.22,0,11.26,4.29t4.05,12.64q0,8.1-4.11,12.45t-11.2,4.36a14.8,14.8,0,0,1-10.53-3.92Q289.68,310.47,289.68,301.51Z"/></svg>