<svg xmlns="http://www.w3.org/2000/svg" viewBox="0 0 1482.15 460.05"><defs><style>.a{font-size:19px;fill:#ccc;font-family:PTSans-Regular, PT Sans;}.b{letter-spacing:-0.02em;}.c{letter-spacing:-0.02em;}.d{letter-spacing:-0.01em;}.e,.f,.g,.h{fill:none;stroke-width:2px;}.e{stroke:#ffe161;}.e,.f{stroke-miterlimit:10;}.e,.f,.h,.i,.j{fill-rule:evenodd;}.f,.g,.h{stroke:#1eb9d5;}.g,.h{stroke-linecap:round;stroke-linejoin:round;}.i{fill:#1eb9d5;}.j,.k{fill:#dfe8f4;}</style></defs><title>homepic2</title><text class="a" transform="translate(233.85 335.59)">self-servi<tspan class="b" x="74.46" y="0">c</tspan><tspan x="82.59" y="0">e model</tspan></text><text class="a" transform="translate(594.86 334.93)">unique d<tspan class="c" x="71.12" y="0">e</tspan><tspan class="d" x="80.35" y="0">v</tspan><tspan x="89.3" y="0">eloper </tspan><tspan class="b" x="146.15" y="0">e</tspan><tspan x="155.36" y="0">xperien</tspan><tspan class="b" x="216.68" y="0">c</tspan><tspan x="224.81" y="0">e</tspan></text><text class="a" transform="translate(1089.95 336.73)">runtime plat<tspan class="d" x="100.47" y="0">f</tspan><tspan x="106.32" y="0">orm</tspan></text><path class="e" d="M342.91,216.34c-2.3.86-4.17,2.34-7.86,3.13,12.65,3.16,7.38,15.82-2.11,16.87,9,1.84,8.43,15.82-7.91,15.82h-45.6c-24,0-38.22-13.45-57.47-13.45h-10.7"/><path class="f" d="M280.37,160.18V143.24a9.77,9.77,0,0,1,9.77-9.76h97.62a9.76,9.76,0,0,1,9.76,9.76V206.4a9.77,9.77,0,0,1-9.76,9.77H290.14a9.78,9.78,0,0,1-9.77-9.77V180.21"/><line class="g" x1="313.19" y1="161.64" x2="397.18" y2="161.64"/><path class="e" d="M198,238.71V191s30.72,4.49,48.64-9.22,31.39-22.71,46.05-25.43c23.26-4.31,27,9.32,9.76,13.79C283.27,175.06,276.56,183,276.56,183"/><path class="h" d="M753,150.6v-2.72a9.76,9.76,0,0,0-9.76-9.77H645.62a9.76,9.76,0,0,0-9.77,9.77V211a9.77,9.77,0,0,0,9.77,9.77h2.72"/><path class="e" d="M664.13,220.79H648.34v2.72a9.76,9.76,0,0,0,9.76,9.76h6"/><path class="e" d="M765.46,166.39v-6a9.76,9.76,0,0,0-9.76-9.76H753v15.79"/><path class="e" d="M771.49,166.39h-6v57.12a9.76,9.76,0,0,1-9.76,9.76H662.4v4.31a9.76,9.76,0,0,0,9.77,9.76h97.59a9.75,9.75,0,0,0,9.76-9.76V174.43C779.52,169,776.88,166.39,771.49,166.39Z"/><path class="e" d="M753,166.39V211a9.77,9.77,0,0,1-9.76,9.77H664.13"/><path class="e" d="M755.7,233.27a9.76,9.76,0,0,0,9.76-9.76V166.39"/><path class="h" d="M645.62,220.79h97.59A9.77,9.77,0,0,0,753,211V147.88"/><line class="g" x1="635.71" y1="166.1" x2="751.83" y2="166.1"/><path class="i" d="M651.64,150.81a4.09,4.09,0,1,1-4.09-4.09A4.09,4.09,0,0,1,651.64,150.81Z"/><path class="i" d="M664.67,150.81a4.09,4.09,0,1,1-4.1-4.09A4.1,4.1,0,0,1,664.67,150.81Z"/><path class="i" d="M677.69,150.81a4.09,4.09,0,1,1-4.09-4.09A4.09,4.09,0,0,1,677.69,150.81Z"/><path class="j" d="M1106.21,238.85s1.5,0,7.18.1"/><path class="k" d="M266.91,58.15a2.62,2.62,0,1,1-2.62-2.62A2.62,2.62,0,0,1,266.91,58.15Z"/><path class="k" d="M379.34,58.15a2.62,2.62,0,1,1-2.62-2.62A2.62,2.62,0,0,1,379.34,58.15Z"/><path class="k" d="M435.56,58.15a2.62,2.62,0,1,1-2.62-2.62A2.62,2.62,0,0,1,435.56,58.15Z"/><path class="k" d="M660.42,58.15a2.62,2.62,0,1,1-2.62-2.62A2.62,2.62,0,0,1,660.42,58.15Z"/><path class="k" d="M716.64,58.15A2.62,2.62,0,1,1,714,55.53,2.62,2.62,0,0,1,716.64,58.15Z"/><path class="k" d="M1053.93,58.15a2.62,2.62,0,1,1-2.62-2.62A2.62,2.62,0,0,1,1053.93,58.15Z"/><path class="k" d="M1166.36,58.15a2.62,2.62,0,1,1-2.62-2.62A2.62,2.62,0,0,1,1166.36,58.15Z"/><path class="k" d="M1222.58,58.15a2.62,2.62,0,1,1-2.62-2.62A2.62,2.62,0,0,1,1222.58,58.15Z"/><path class="k" d="M210.69,112.31a2.62,2.62,0,1,1-2.61-2.62A2.61,2.61,0,0,1,210.69,112.31Z"/><path class="k" d="M266.91,112.31a2.62,2.62,0,1,1-2.62-2.62A2.61,2.61,0,0,1,266.91,112.31Z"/><path class="k" d="M323.74,112.31a2.62,2.62,0,1,1-2.62-2.62A2.61,2.61,0,0,1,323.74,112.31Z"/><path class="k" d="M380,112.31a2.62,2.62,0,1,1-2.61-2.62A2.61,2.61,0,0,1,380,112.31Z"/><path class="k" d="M436.17,112.31a2.62,2.62,0,1,1-2.62-2.62A2.61,2.61,0,0,1,436.17,112.31Z"/><path class="k" d="M491.77,112.31a2.62,2.62,0,1,1-2.61-2.62A2.61,2.61,0,0,1,491.77,112.31Z"/><path class="k" d="M604.2,112.31a2.62,2.62,0,1,1-2.61-2.62A2.61,2.61,0,0,1,604.2,112.31Z"/><path class="k" d="M660.42,112.31a2.62,2.62,0,1,1-2.62-2.62A2.61,2.61,0,0,1,660.42,112.31Z"/><path class="k" d="M716.64,112.31a2.62,2.62,0,1,1-2.62-2.62A2.61,2.61,0,0,1,716.64,112.31Z"/><path class="k" d="M772.85,112.31a2.62,2.62,0,1,1-2.62-2.62A2.61,2.61,0,0,1,772.85,112.31Z"/><circle class="k" cx="826.45" cy="112.31" r="2.62"/><path class="k" d="M997.72,112.31a2.62,2.62,0,1,1-2.62-2.62A2.62,2.62,0,0,1,997.72,112.31Z"/><path class="k" d="M1053.93,112.31a2.62,2.62,0,1,1-2.62-2.62A2.61,2.61,0,0,1,1053.93,112.31Z"/><path class="k" d="M1110.15,112.31a2.62,2.62,0,1,1-2.63-2.62A2.62,2.62,0,0,1,1110.15,112.31Z"/><path class="k" d="M1278.8,112.31a2.62,2.62,0,1,1-2.62-2.62A2.62,2.62,0,0,1,1278.8,112.31Z"/><path class="k" d="M154.48,166.46a2.62,2.62,0,1,1-2.62-2.62A2.62,2.62,0,0,1,154.48,166.46Z"/><path class="k" d="M210.69,166.46a2.62,2.62,0,1,1-2.61-2.62A2.62,2.62,0,0,1,210.69,166.46Z"/><path class="k" d="M491.77,166.46a2.62,2.62,0,1,1-2.61-2.62A2.62,2.62,0,0,1,491.77,166.46Z"/><path class="k" d="M436.17,166.46a2.62,2.62,0,1,1-2.62-2.62A2.62,2.62,0,0,1,436.17,166.46Z"/><path class="k" d="M548,166.46a2.62,2.62,0,1,1-2.62-2.62A2.62,2.62,0,0,1,548,166.46Z"/><path class="k" d="M604.2,166.46a2.62,2.62,0,1,1-2.61-2.62A2.62,2.62,0,0,1,604.2,166.46Z"/><path class="k" d="M885.29,166.46a2.62,2.62,0,1,1-2.62-2.62A2.63,2.63,0,0,1,885.29,166.46Z"/><path class="k" d="M941.5,166.46a2.62,2.62,0,1,1-2.62-2.62A2.62,2.62,0,0,1,941.5,166.46Z"/><path class="k" d="M1278.8,166.46a2.62,2.62,0,1,1-2.62-2.62A2.63,2.63,0,0,1,1278.8,166.46Z"/><path class="k" d="M1335,166.46a2.62,2.62,0,1,1-2.62-2.62A2.62,2.62,0,0,1,1335,166.46Z"/><path class="k" d="M154.48,220.61a2.62,2.62,0,1,1-2.62-2.62A2.62,2.62,0,0,1,154.48,220.61Z"/><path class="k" d="M435.56,220.61a2.62,2.62,0,1,1-2.62-2.62A2.62,2.62,0,0,1,435.56,220.61Z"/><path class="k" d="M491.77,220.61a2.62,2.62,0,1,1-2.61-2.62A2.61,2.61,0,0,1,491.77,220.61Z"/><path class="k" d="M548,220.61a2.62,2.62,0,1,1-2.62-2.62A2.62,2.62,0,0,1,548,220.61Z"/><path class="k" d="M604.2,220.61a2.62,2.62,0,1,1-2.61-2.62A2.61,2.61,0,0,1,604.2,220.61Z"/><path class="k" d="M885.29,220.61a2.62,2.62,0,1,1-2.62-2.62A2.62,2.62,0,0,1,885.29,220.61Z"/><path class="k" d="M829.07,166.46a2.62,2.62,0,1,1-2.62-2.62A2.62,2.62,0,0,1,829.07,166.46Z"/><path class="k" d="M829.07,220.61a2.62,2.62,0,1,1-2.62-2.62A2.62,2.62,0,0,1,829.07,220.61Z"/><path class="k" d="M941.5,220.61a2.62,2.62,0,1,1-2.62-2.62A2.62,2.62,0,0,1,941.5,220.61Z"/><path class="k" d="M997.23,166.46a2.62,2.62,0,1,1-2.62-2.62A2.62,2.62,0,0,1,997.23,166.46Z"/><path class="k" d="M997.23,220.61a2.62,2.62,0,1,1-2.62-2.62A2.62,2.62,0,0,1,997.23,220.61Z"/><path class="k" d="M1222.58,220.61A2.62,2.62,0,1,1,1220,218,2.62,2.62,0,0,1,1222.58,220.61Z"/><path class="k" d="M1278.8,220.61a2.62,2.62,0,1,1-2.62-2.62A2.62,2.62,0,0,1,1278.8,220.61Z"/><path class="k" d="M1335,220.61a2.62,2.62,0,1,1-2.62-2.62A2.62,2.62,0,0,1,1335,220.61Z"/><path class="k" d="M1391.23,220.61a2.62,2.62,0,1,1-2.62-2.62A2.62,2.62,0,0,1,1391.23,220.61Z"/><path class="k" d="M98.26,274.76a2.62,2.62,0,1,1-2.62-2.62A2.62,2.62,0,0,1,98.26,274.76Z"/><path class="k" d="M154.48,274.76a2.62,2.62,0,1,1-2.62-2.62A2.62,2.62,0,0,1,154.48,274.76Z"/><path class="k" d="M210.69,274.76a2.62,2.62,0,1,1-2.61-2.62A2.61,2.61,0,0,1,210.69,274.76Z"/><path class="k" d="M266.91,274.76a2.62,2.62,0,1,1-2.62-2.62A2.62,2.62,0,0,1,266.91,274.76Z"/><path class="k" d="M323.13,274.76a2.62,2.62,0,1,1-2.62-2.62A2.62,2.62,0,0,1,323.13,274.76Z"/><path class="k" d="M379.34,274.76a2.62,2.62,0,1,1-2.62-2.62A2.62,2.62,0,0,1,379.34,274.76Z"/><path class="k" d="M435.56,274.76a2.62,2.62,0,1,1-2.62-2.62A2.62,2.62,0,0,1,435.56,274.76Z"/><path class="k" d="M491.77,274.76a2.62,2.62,0,1,1-2.61-2.62A2.61,2.61,0,0,1,491.77,274.76Z"/><path class="k" d="M548,274.76a2.62,2.62,0,1,1-2.62-2.62A2.62,2.62,0,0,1,548,274.76Z"/><path class="k" d="M604.2,274.76a2.62,2.62,0,1,1-2.61-2.62A2.61,2.61,0,0,1,604.2,274.76Z"/><path class="k" d="M660.42,274.76a2.62,2.62,0,1,1-2.62-2.62A2.62,2.62,0,0,1,660.42,274.76Z"/><path class="k" d="M716.64,274.76a2.62,2.62,0,1,1-2.62-2.62A2.62,2.62,0,0,1,716.64,274.76Z"/><path class="k" d="M772.85,274.76a2.62,2.62,0,1,1-2.62-2.62A2.62,2.62,0,0,1,772.85,274.76Z"/><path class="k" d="M829.07,274.76a2.62,2.62,0,1,1-2.62-2.62A2.62,2.62,0,0,1,829.07,274.76Z"/><path class="k" d="M885.29,274.76a2.62,2.62,0,1,1-2.62-2.62A2.62,2.62,0,0,1,885.29,274.76Z"/><path class="k" d="M941.5,274.76a2.62,2.62,0,1,1-2.62-2.62A2.62,2.62,0,0,1,941.5,274.76Z"/><path class="k" d="M997.72,274.76a2.62,2.62,0,1,1-2.62-2.62A2.62,2.62,0,0,1,997.72,274.76Z"/><path class="k" d="M1053.93,274.76a2.62,2.62,0,1,1-2.62-2.62A2.62,2.62,0,0,1,1053.93,274.76Z"/><path class="k" d="M1110.15,274.76a2.62,2.62,0,1,1-2.62-2.62A2.62,2.62,0,0,1,1110.15,274.76Z"/><path class="k" d="M1166.36,274.76a2.62,2.62,0,1,1-2.62-2.62A2.62,2.62,0,0,1,1166.36,274.76Z"/><path class="k" d="M1222.58,274.76a2.62,2.62,0,1,1-2.62-2.62A2.62,2.62,0,0,1,1222.58,274.76Z"/><path class="k" d="M1278.8,274.76a2.62,2.62,0,1,1-2.62-2.62A2.62,2.62,0,0,1,1278.8,274.76Z"/><path class="k" d="M1335,274.76a2.62,2.62,0,1,1-2.62-2.62A2.62,2.62,0,0,1,1335,274.76Z"/><path class="e" d="M1030.15,214.92h10.57c19,0,33.06,13.28,56.75,13.28h45c19.28,0,21.83-14.39,4.26-14.39-8,0-19.34-.42-38.28-.57-5.1.29-33.73-.56-36.29-30.33,0,0,18.43-1.14,40.12,11.2,12.46,7.08,24-4.42,2.55-14.46-13.89-6.52-28.49-13.61-46.92-13.47-22.28.17-50.9,1.61-50.9,1.61v47.13"/><path class="f" d="M1251.38,136.69H1135.7v-18a9.65,9.65,0,0,1,9.64-9.64h96.39a9.65,9.65,0,0,1,9.65,9.64v62.37a9.65,9.65,0,0,1-9.65,9.65h-96.39a9.65,9.65,0,0,1-9.64-9.65V156.12"/><path class="i" d="M1152,123.72a4,4,0,1,1-4-4A4,4,0,0,1,1152,123.72Z"/><path class="i" d="M1164.83,123.72a4,4,0,1,1-4-4A4,4,0,0,1,1164.83,123.72Z"/><path class="i" d="M1177.7,123.72a4,4,0,1,1-4-4A4,4,0,0,1,1177.7,123.72Z"/></svg>