<?xml version="1.0" encoding="utf-8"?>
<!-- Generator: Adobe Illustrator 25.2.0, SVG Export Plug-In . SVG Version: 6.00 Build 0)  -->
<svg version="1.1" id="Layer_1" xmlns="http://www.w3.org/2000/svg" xmlns:xlink="http://www.w3.org/1999/xlink" x="0px" y="0px"
	 viewBox="0 0 450 450" style="enable-background:new 0 0 450 450;" xml:space="preserve">
<style type="text/css">
	.st0{fill:none;stroke:#F16349;stroke-width:12;stroke-miterlimit:10;}
	.st1{fill:none;stroke:#344054;stroke-width:12;stroke-miterlimit:10;}
	.st2{fill:none;stroke:#1EB9D5;stroke-width:12;stroke-miterlimit:10;}
</style>
<g id="Layer_2_1_">
	<g id="Layer_3">
		<path class="st0" d="M168.6,49.1c0.2,0.9,0.3,1.9,0.3,2.8c0,8.1-6.7,14.7-15,14.7c-8.1,0-14.7-6.7-14.7-15
			c0-8.1,6.7-14.7,14.8-14.7c2.2,0,4.2,0.5,6.2,1.4"/>
		<path class="st0" d="M187,107.2V92.4c0.3-5.5-3.9-10-9.2-10.3h-47.5c-5.5,0.3-9.5,5-9.2,10.3v14.8H187z"/>
		<path class="st1" d="M76.5,185.6c0.2,0.9,0.3,1.9,0.3,2.8c0,8.1-6.5,14.8-14.8,14.8c-8.1,0-14.8-6.5-14.8-14.8
			c0-8.1,6.5-14.8,14.8-14.8l0,0c2.2,0,4.2,0.5,6.2,1.4"/>
		<path class="st1" d="M95.1,243.9v-14.8c0.3-5.5-3.9-10-9.2-10.3H38.4c-5.5,0.3-9.5,5-9.4,10.3v14.8H95.1z"/>
		<path class="st0" d="M409.4,185.6c0.2,0.9,0.3,1.9,0.3,2.8c0,8.1-6.5,14.8-14.8,14.8c-8.1,0-14.8-6.5-14.8-14.8
			c0-8.3,6.5-14.8,14.8-14.8l0,0c2.2,0,4.2,0.5,6.2,1.4"/>
		<path class="st0" d="M428,243.9v-14.8c0.3-5.5-3.9-10-9.2-10.3h-47.5c-5.5,0.3-9.5,5-9.4,10.3v14.8H428z"/>
		<path class="st1" d="M314.2,49.1c0.2,0.9,0.3,1.9,0.3,2.8c0,8.1-6.7,14.7-15,14.7c-8.1,0-14.7-6.7-14.7-15
			c0-8.1,6.7-14.7,14.8-14.7c2.2,0,4.2,0.5,6.2,1.4"/>
		<path class="st1" d="M332.8,107.2V92.4c0.3-5.5-3.9-10-9.2-10.3H276c-5.5,0.3-9.5,5-9.4,10.3v14.8H332.8z"/>
		<path class="st0" d="M168.6,348.3c0.2,0.9,0.3,1.9,0.3,2.8c0,8.1-6.5,14.8-14.8,14.8c-8.1,0-14.8-6.5-14.8-14.8
			c0-8.1,6.5-14.8,14.8-14.8l0,0c2.2,0,4.2,0.5,6.2,1.4"/>
		<path class="st0" d="M187,406.5v-14.8c0.3-5.5-3.9-10-9.2-10.3h-47.5c-5.5,0.3-9.5,5-9.2,10.3v14.8H187z"/>
		<path class="st1" d="M314.2,348.3c0.2,0.9,0.3,1.9,0.3,2.8c0,8.1-6.5,14.8-14.8,14.8c-8.1,0-14.8-6.5-14.8-14.8
			c0-8.1,6.5-14.8,14.8-14.8l0,0c2.2,0,4.2,0.5,6.2,1.4"/>
		<path class="st1" d="M332.8,406.5v-14.8c0.3-5.5-3.9-10-9.2-10.3H276c-5.5,0.3-9.5,5-9.4,10.3v14.8H332.8z"/>
		<line class="st2" x1="189.8" y1="154.6" x2="167.9" y2="122.5"/>
		<line class="st2" x1="267.9" y1="154.6" x2="290.1" y2="122.5"/>
		<line class="st2" x1="167.9" y1="323.1" x2="189.8" y2="291.1"/>
		<line class="st2" x1="111.1" y1="223.2" x2="150.1" y2="223.3"/>
		<line class="st2" x1="309.1" y1="223.2" x2="348" y2="223.3"/>
		<line class="st2" x1="291" y1="323.1" x2="269" y2="291.1"/>
		<polyline class="st2" points="156,232.7 150.4,223 189.8,154.6 268.7,154.6 308.3,223 268.7,291.3 189.8,291.3 166.8,251.2 		"/>
	</g>
</g>
</svg>
