<?xml version="1.0" encoding="utf-8"?>
<!-- Generator: Adobe Illustrator 25.0.0, SVG Export Plug-In . SVG Version: 6.00 Build 0)  -->
<svg version="1.1" id="Layer_1" xmlns="http://www.w3.org/2000/svg" xmlns:xlink="http://www.w3.org/1999/xlink" x="0px" y="0px"
	 viewBox="0 0 500 500" style="enable-background:new 0 0 500 500;" xml:space="preserve">
<style type="text/css">
	.st0{fill:none;stroke:#1FBAD6;stroke-width:2;stroke-miterlimit:10;}
	.st1{fill:#334054;}
	.st2{fill:none;stroke:#FF6346;stroke-width:2;stroke-miterlimit:10;}
	.st3{fill:none;stroke:#FFE161;stroke-width:2;stroke-miterlimit:10;}
	.st4{fill:none;stroke:#047989;stroke-width:2;stroke-miterlimit:10;}
	.st5{fill:#047989;}
	.st6{fill:#4C5D75;}
</style>
<path class="st0" d="M250.8,348.6c-5.7,3.4-11.7,11.4-14.4,10c-3.2-1.6-1.4-6.2,4.8-12.8c10-10.7,25.9-8.7,30-7.7"/>
<path class="st1" d="M104.5,223.2c39,13.1,72.8,22.7,72,128.9s-80,49.1-120.4,45.4C15.7,393.8,59.9,208.2,104.5,223.2z"/>
<path class="st1" d="M373.8,249.9c26.5-30.8,71.6-53.9,73.7,52.3c1.5,77.3-25.4,97.8-66.2,110.3C336.4,426.3,338,291.6,373.8,249.9z
	"/>
<path class="st2" d="M394.7,194.5c4.5,3.7,12.3-1.1,13.3-4.3s7.4-10.9,13.4-15.8c17.2-14.4,14.4-51.6-10.1-63.8
	c-9.9-4.9-21,3.4-23.8-9.5s-22.1-3.1-32.3,4.6c-6.6,5-30.3-0.8-31,16.6c-0.4,9.8,33.4,17.6,47.1,12.4c13.7-5.2,19.5,12.2,18.3,20.7
	s-11.4,18.8-11.4,18.8c-3.9,5.1,2.6,8.7,7.9,2"/>
<path class="st3" d="M147.9,239.2l0.2-3.8l-7-4.6l-6.9,7.9l6.7,3.2l18.3,72.5l5.8,74.5l11,4.4l3.8-7.9"/>
<path class="st4" d="M58.4,383.6c0,0-18.5-100.7,7.4-143.2C80.5,216.4,95.4,215,95.4,215s1-7.6,4.9-11.4
	c3.9-3.9,39.7,24.6,39.7,24.6s0.3,2.2,2.7-1.9c0.5-0.9,5.3,5.9,6.1,8.8c0,0,11.8,11.6,20.7,41.2c7.3,24.3,8,37,8.3,44.6"/>
<path class="st2" d="M320.8,397.3l-10.7,4.9l-5.3-9.7l13.1-75.3l29.5-63.5l9.6-9.1l-0.8,16"/>
<path class="st4" d="M227,371.6l8.8-31.5l-21.6-1.7c0,0-62.7-20-63.7-24.2c-1-4.2-52.6-76.5-69.7-70.7c0,0-27.3,5.1-14.9,39.2
	s32.7,54.6,41.7,63.2c10.4,9.8,31.9,20.1,59,20.7c35.6,0.8,42.3,0.8,45.3,1.5"/>
<path class="st0" d="M354.8,239c0.6-5.7,0.6-17.8,0.6-17.8s-7.5,4.5-16.7-5c-7.7-7.9-1.8-28.4-1.8-28.4s-7.5-3.7-9.5-8.1
	c-2-4.4,10.6-21.4,10.6-21.4"/>
<path class="st0" d="M395.4,187.2c0,0-0.4,9.8-2.7,23"/>
<path class="st0" d="M398,174.3c1.3-4,11.6-5,9.4,7.4c-2.1,12.1-11.2,9.7-12,5.1"/>
<path class="st2" d="M366.2,155.8c-0.1-5.1-8.7-12.9-18.3-7.3"/>
<path class="st0" d="M334.3,198.4c0,0,7.7,2.5,10.6-0.4"/>
<path class="st0" d="M161.2,142.3c7.9,19.6,16.1,30.1,14,34.9c-2.1,4.7-10.8,4.8-10.8,4.8s1.9,6.9,0.7,20.4
	c-1.1,12.6-20,17.7-20,17.7"/>
<g>
	<path class="st5" d="M147.9,156.8c1.6-0.4,3.8-0.5,3.8-0.5c0.6-1.4,0.4-3.1-0.5-4.4c-1.5-2.1-4.4-2.7-6.5-1.2
		c-2.1,1.5-2.7,4.4-1.2,6.5c0.3,0.4,0.6,0.7,0.9,1C144.3,158.2,146.3,157.2,147.9,156.8z"/>
</g>
<g>
	<path class="st5" d="M350.9,162.8c1.6,0.5,3.5,1.5,3.5,1.5c1.2-0.9,2-2.4,1.9-4c-0.1-2.6-2.4-4.6-4.9-4.5c-2.6,0.1-4.6,2.4-4.5,4.9
		c0,0.5,0.1,0.9,0.2,1.3C347.1,162.1,349.3,162.3,350.9,162.8z"/>
</g>
<path class="st0" d="M155.1,196.3c2.6,4,10.1,2.1,10.1,2.1"/>
<path class="st3" d="M110.3,190.8c-3.1,9.9-15.4,7.3-21.8-3c-33.8-62,9.2-78.2,9.2-78.2s45.8-27.9,81.7,5.9
	c-2.9,7.3-11.8,11.6-25.6,14.2c-13.8,2.6-17.1,3.5-34.3,6.6c0,0-9.4,17.2-9.4,28.6"/>
<path class="st3" d="M134.5,151.8c6.1-13.3,17.2-8.6,17.2-8.6"/>
<path class="st0" d="M106.6,188.6c-0.9,5-10.7,7.6-12.9-5.5c-2.3-13.3,8.8-12.2,10.1-8"/>
<path class="st4" d="M358.6,261.5l-0.7-17.6c5.2-2.4,15.3-6.7,24.8-12.9"/>
<g>
	<path class="st4" d="M356.1,243.4l-2-7.7c0,0-17.2,11.9-22.3,15.1c-5.1,3.2-10.3,13.9-10.5,16.8c-0.2,2.9-8.3,47-8.3,47
		s-2.8,7.4-4,13.7l-10.1,9.2c0,0-21.1,1.3-27.3,0.5c0,0,5.6,37.5-2.4,42.2"/>
</g>
<path class="st4" d="M405.5,228.9c0,0,16.4,9.6,32.2,21.3s13.5,67.7,13.5,67.7"/>
<path class="st4" d="M330,365.9c1-7.6,14.5-60,14.5-60s15.7-40.1,21.6-51.8c5.9-11.7,29.4-38,29.4-38l11.1,10.6
	c-4.3,9.1-12.7,24.9-20.3,31.4c-1.5,1.3-13.7,4.4-13.7,4.4s11.5,11.2,5.9,15.1C372.8,281.5,332.5,360.9,330,365.9L330,365.9z"/>
<path class="st0" d="M225.9,371.3c0,0,20.3,7.5,23,8.4c4.3,1.3,6.6,1.9,8.3,0.1c1.7-1.8-0.3-5-0.3-5s3,0.9,4.7-1.5
	c1.7-2.3-0.7-5-0.7-5s3.1,0.4,4.2-1.9c1.1-2.3-1-4.8-1-4.8s3.3,0.1,4.2-2.2c0.9-2.4-0.3-3.4-2-4.5c-0.8-0.5-10.1-3.9-16.4-6.1"/>
<g id="Layer_3">
	<g>
		<path class="st6" d="M242.4,233.1c0,1,0.9,1.9,1.9,1.9l0,0l0,0c1.1,0,1.9-0.8,1.9-1.8c0-1.1-0.9-1.9-1.9-1.9
			C243.2,231.3,242.4,232.1,242.4,233.1L242.4,233.1z"/>
		<path class="st6" d="M285.1,273.5c0,1,0.8,1.8,1.9,1.9l0,0l0,0c1.1,0,1.9-0.8,1.9-1.8c0-1.1-0.9-1.9-1.9-1.9
			C285.9,271.7,285.1,272.5,285.1,273.5L285.1,273.5z"/>
		<path class="st6" d="M285.1,313.9c0,1,0.8,1.9,1.9,1.9l0,0l0,0c1.1,0,1.9-0.8,1.9-1.8c0-1.1-0.8-1.9-1.9-1.9
			S285.1,312.9,285.1,313.9L285.1,313.9z"/>
		<path class="st6" d="M242.4,273.5c0,1,0.9,1.8,1.9,1.9l0,0l0,0c1.1,0,1.9-0.8,1.9-1.8c0-1.1-0.9-1.9-1.9-1.9
			C243.2,271.7,242.4,272.5,242.4,273.5L242.4,273.5z"/>
		<path class="st6" d="M242.4,313.9c0,1,0.9,1.9,1.8,1.8l0,0l0,0c1.1,0,1.9-0.8,1.9-1.8c0-0.9-0.8-1.6-1.7-1.7
			C243.4,312.1,242.5,312.9,242.4,313.9L242.4,313.9z"/>
		<path class="st6" d="M202.9,313.9c0,1,0.8,1.9,1.9,1.9l0,0l0,0c1.1,0,1.9-0.8,1.9-1.8c0-1.1-0.8-1.9-1.9-1.9
			C203.7,312.1,202.9,312.9,202.9,313.9L202.9,313.9z"/>
		<path class="st6" d="M202.9,395.7c0,1,0.8,1.9,1.9,1.9l0,0l0,0c1.1,0,1.9-0.8,1.9-1.8c0-1.1-0.8-1.9-1.9-1.9
			C203.7,393.9,202.9,394.7,202.9,395.7L202.9,395.7z"/>
		<path class="st6" d="M242.3,395.8c0,1.1,0.9,1.9,1.9,1.8l0,0c1.1-0.1,1.9-0.9,1.9-1.9s-0.8-1.8-1.9-1.8
			C243.1,393.9,242.3,394.8,242.3,395.8C242.3,395.9,242.3,395.9,242.3,395.8z"/>
	</g>
</g>
</svg>
