<?xml version="1.0" encoding="utf-8"?>
<!-- Generator: Adobe Illustrator 25.0.1, SVG Export Plug-In . SVG Version: 6.00 Build 0)  -->
<svg version="1.1" id="Layer_1" xmlns="http://www.w3.org/2000/svg" xmlns:xlink="http://www.w3.org/1999/xlink" x="0px" y="0px"
	 viewBox="0 0 500 500" style="enable-background:new 0 0 500 500;" xml:space="preserve">
<style type="text/css">
	.st0{fill:none;stroke:#0A7A8A;stroke-width:2;stroke-miterlimit:10;}
	.st1{fill:none;stroke:#1CB9D5;stroke-width:2;stroke-miterlimit:10;}
	.st2{fill:#0A7A8A;}
	.st3{fill:none;stroke:#FEE162;stroke-width:2;stroke-miterlimit:10;stroke-dasharray:6,6;}
	.st4{fill:#344154;}
	.st5{fill:#4E5E75;}
	.st6{fill:none;stroke:#F2644A;stroke-width:2;stroke-miterlimit:10;}
</style>
<path class="st0" d="M215,315.8c0.7-7.4,6.3-15.2-7.7-18c-8.1-1.7,4.3-25.3-19.1-20.7c-21.9,4.3-15.5-8.1-34.5-16.1
	c-17.4-7.3-14.3-22.8-6.1-29.5s23.9-1.1,34.6,0.3c5.8,0.7,7.3-4.5,18.4-10.4c10.2-5.4,18.5,2.5,23.5,10.8c8.3,14,18.2,7.6,24,16.3
	c8.4,12.5,5.9,26.5,8.9,34.2c6.1,15.8-20.8,42.4-34.2,43"/>
<path class="st1" d="M177.1,275.7c-5.9,4.9-7.2,15.1-13.7,23.9c-1.1,1.5-6.5,5.9-10.1,7c-6.3,2-4.9,8.4,3.3,11.3
	c0.9,1.6,0.8,3.5-0.1,5.1c-0.3,0.8-2.8-1.2-3.8,1.2c-0.9,2.2,0.9,3.4,0.8,4.5c-0.1,1.3-3.1,2.2-2.3,4.7c0.8,2.3,3.2,2.1,5,2.5
	c1.4,0.4-3.8,20,23.8,11.2c0.2,6.9-0.2,13.7-1,20.6c-2.5,20.1,30.2,24.6,33.5-0.2c2.2-16.4,3.9-35,10.8-31.5c3.2,1.6,8.2-0.4,11-4.9
	"/>
<path class="st2" d="M178.4,302.2c1.3,0.5,2.5,1.1,3.7,1.8c1.4-0.9,2.3-2.5,2.3-4.2c0.1-2.8-2-5.2-4.8-5.3c-2.8-0.1-5.2,2-5.3,4.8
	c0,0.2,0,0.3,0,0.5c0,0.5,0,0.9,0.1,1.4C174.3,301.3,176.6,301.6,178.4,302.2z"/>
<path class="st3" d="M139.2,329.5c0,0-15.1,1.4-30.1-11c-15.1-12.5-23.7-28.9-42-32.8s-23.6-11.1-24.9-19"/>
<path class="st3" d="M94,317.1c0,0-15.7-19-39.9-14.4c-12.4,2.4-28.8,9.2-41.2,3.9"/>
<path class="st1" d="M180.3,288c0,0,11-1.9,11.6,10.2"/>
<path class="st4" d="M185.1,421.4l74.6-184.6l-3.9-4.7L180.3,419L185.1,421.4z"/>
<path class="st4" d="M172.4,444.5c-0.3,5,0.7,10.2,4.5,13.5c0.8,0.7,1.7,1.3,2.6,1.8c13.4,6.9,26.1-5.6,26.7-6.2l0,0
	c1.1-1,1.2-2.7,0.2-3.8c-1-1.1-2.7-1.2-3.8-0.2c-0.1,0.1-0.2,0.2-0.2,0.2c-0.1,0.1-10.5,10.3-20.4,5.2c-3.1-1.6-4.2-4.9-4.3-8.6
	L172.4,444.5z"/>
<path class="st1" d="M182.9,412.6c-3.2-1.2-11.9-2.7-16.5-1.4c-6.2,1.9-13.6,7.4-12.1,18.6c0.8,5.8,6.6,9.7,13.1,12.2l16.4,6.4
	c5.9,2.3,8-2.7,5-4.6c3.6,0.9,7.2-2.9,3.1-5.8c5.7,0.9,6.4-4.1,2.9-6.3c5.7,0.9,6.7-4.8,2.5-6.4l-20.4-7.9"/>
<path class="st5" d="M273.8,31.8c0-0.8-0.6-1.4-1.4-1.4c0,0,0,0-0.1,0c-0.8,0-1.5,0.6-1.5,1.4l0,0c0,0.8,0.6,1.4,1.4,1.4
	c0,0,0,0,0.1,0l0,0C273.1,33.2,273.8,32.5,273.8,31.8z"/>
<path class="st5" d="M303.3,31.8c0-0.8-0.6-1.4-1.4-1.4h-0.1c-0.8,0-1.5,0.6-1.5,1.4l0,0c0,0.8,0.6,1.4,1.4,1.4c0,0,0,0,0.1,0l0,0
	C302.6,33.2,303.2,32.6,303.3,31.8z"/>
<path class="st5" d="M367.3,62.8c0-0.8-0.6-1.4-1.4-1.4c0,0,0,0-0.1,0c-0.8,0-1.4,0.6-1.5,1.3v0.1c0,0.8,0.6,1.4,1.4,1.4h0.1l0,0
	C366.7,64.3,367.3,63.7,367.3,62.8C367.3,62.9,367.3,62.8,367.3,62.8z"/>
<path class="st5" d="M303.3,62.8c-0.1-0.8-0.8-1.4-1.5-1.3c-0.7,0-1.3,0.7-1.3,1.4s0.7,1.3,1.4,1.3l0,0
	C302.6,64.2,303.3,63.6,303.3,62.8C303.3,62.9,303.3,62.8,303.3,62.8z"/>
<path class="st5" d="M333.7,62.8c0-0.8-0.6-1.4-1.4-1.4h-0.1c-0.8,0-1.4,0.6-1.5,1.4v0.1c0,0.8,0.6,1.4,1.4,1.4h0.1l0,0
	C333.1,64.3,333.7,63.7,333.7,62.8C333.7,62.9,333.7,62.8,333.7,62.8z"/>
<path class="st5" d="M333.7,94.2c0-0.8-0.6-1.4-1.4-1.4h-0.1c-0.8,0-1.4,0.6-1.4,1.4s0.6,1.4,1.4,1.4l0,0l0,0
	C333.1,95.6,333.7,95,333.7,94.2z"/>
<path class="st5" d="M367.3,94.2c0-0.8-0.6-1.4-1.4-1.4h-0.1c-0.8,0-1.4,0.6-1.4,1.4s0.6,1.4,1.4,1.4l0,0
	C366.7,95.6,367.3,95,367.3,94.2z"/>
<path class="st5" d="M367.3,125.7c0-0.8-0.6-1.4-1.4-1.4c0,0,0,0-0.1,0c-0.8,0-1.4,0.6-1.5,1.3v0.1c0,0.8,0.6,1.4,1.4,1.4h0.1l0,0
	C366.7,127.1,367.3,126.5,367.3,125.7z"/>
<path class="st5" d="M400.8,94.1c0-0.8-0.6-1.5-1.4-1.5l0,0c-0.8-0.1-1.4,0.5-1.5,1.3c0,0,0,0,0,0.1c0,0.8,0.7,1.4,1.5,1.5l0,0
	c0.7,0.1,1.4-0.5,1.5-1.2C400.8,94.2,400.8,94.1,400.8,94.1L400.8,94.1z"/>
<path class="st5" d="M434.1,94.2c0-0.8-0.6-1.4-1.4-1.4h-0.1c-0.8,0-1.5,0.6-1.5,1.4l0,0c0,0.8,0.6,1.4,1.4,1.4c0,0,0,0,0.1,0l0,0
	C433.4,95.6,434,95,434.1,94.2z"/>
<path class="st5" d="M244.5,62.9c0-0.8-0.6-1.4-1.4-1.4H243c-0.8,0-1.5,0.6-1.5,1.4l0,0c0,0.8,0.6,1.4,1.4,1.4c0,0,0,0,0.1,0l0,0
	C243.8,64.3,244.4,63.7,244.5,62.9z"/>
<path class="st5" d="M213.8,62.9c0-0.8-0.6-1.4-1.4-1.4h-0.1c-0.8,0-1.5,0.6-1.5,1.4l0,0c0,0.8,0.6,1.4,1.4,1.4c0,0,0,0,0.1,0l0,0
	C213.1,64.3,213.8,63.7,213.8,62.9z"/>
<path class="st5" d="M400.8,125.7c0-0.8-0.6-1.4-1.4-1.4h-0.1c-0.8,0-1.5,0.6-1.5,1.4l0,0c0,0.8,0.6,1.4,1.4,1.4h0.1l0,0
	C400.1,127,400.7,126.4,400.8,125.7z"/>
<path class="st5" d="M467.1,94.2c0-0.8-0.6-1.4-1.4-1.4h-0.1c-0.8,0-1.5,0.6-1.5,1.4l0,0c0,0.8,0.6,1.4,1.4,1.4h0.1l0,0
	C466.4,95.6,467.1,95,467.1,94.2z"/>
<path class="st5" d="M433.8,125.7c0-0.8-0.6-1.4-1.4-1.4c0,0,0,0-0.1,0c-0.8,0-1.5,0.6-1.5,1.4l0,0c0,0.8,0.6,1.4,1.4,1.4h0.1l0,0
	C433.1,127,433.7,126.4,433.8,125.7z"/>
<path class="st4" d="M309.4,114.2l13.9-34.3c0.5-1.4-0.2-2.9-1.6-3.4c-1.3-0.5-2.8,0.2-3.3,1.4l-14,34.8L309.4,114.2z"/>
<path class="st4" d="M310.7,114.7c77.2,28.1,142.3,83.2,157.6,195.8c1.2,8.9-9,14.7-16,9c-14.4-11.5-36.6-23.9-65.8-23.3
	c-3.8,0.1-7.3-1.9-9-5.3c-7.7-14.7-34.8-52.9-106.9-46.9c-3.6,0.3-7.1-1.4-9-4.4c-8.7-13.4-38.8-47.8-112.7-32.7
	c-2.7,0.6-5.6-0.1-7.8-1.7c-9.4-6.9-37.4-24.6-75.3-20.8c-9,0.9-14.4-9.7-8.4-16.4C132.7,83.4,233.7,86.8,310.7,114.7z"/>
<path class="st6" d="M393.6,155c-0.6,0.2-1,0.9-0.8,1.5c0.3,0.5,0.9,0.7,1.5,0.5c0.7,0.9,1.2,1.9,1.7,3c-1.6,1.2-2.9,2.8-3.7,4.6
	c-1.5-0.6-3-1.3-4.4-2.2c0.1-0.5-0.1-0.9-0.5-1.2c-0.6-0.2-1.2,0.2-1.4,0.8c-0.3,0.5-0.2,1.2,0.4,1.6c0.5,0.2,1,0,1.3-0.5
	c1.5,0.6,3,1.5,4.3,2.5c-0.7,1.9-1,3.8-0.9,5.8c-1.6,0.6-3.3,1.1-5,1.3c-0.2-0.5-0.7-0.8-1.2-0.7c-0.6,0.2-0.9,0.9-0.7,1.5
	c0.2,0.7,0.8,1.2,1.3,1c0.4-0.1,0.7-0.6,0.7-1c1.6-0.5,3.3-0.8,5-1c0.1,0.5,0.2,1,0.3,1.5c0.3,1.1,0.7,2.1,1.3,3
	c-0.9,0.6-1.9,1.2-2.9,1.8c-0.3-0.2-0.6-0.3-0.9-0.1c-0.3,0.4-0.3,0.9,0,1.3c0.2,0.4,0.8,0.6,1.2,0.4c0.3-0.2,0.3-0.6,0.2-0.9
	c0.9-0.7,1.9-1.2,2.9-1.7c0.8,1.1,1.7,2.1,2.8,2.8c-0.6,1.4-1.3,2.8-2.1,4c-0.4-0.1-0.9,0-1.2,0.4c-0.2,0.7,0.3,1.4,1,1.6
	c0.5,0.1,0.9,0,1.3-0.4c0.2-0.5,0-1-0.4-1.3c0.7-1.3,1.4-2.6,2.3-3.8c1,0.6,2.1,1,3.3,1.3c0.2,2.7,0.1,5.4-0.1,8
	c-0.5,0-0.9,0.4-1,0.9c-0.1,0.6,0.5,1,1.3,1.2c0.7,0.1,1.3-0.3,1.5-0.9c0-0.5-0.4-0.9-0.9-1c0-2.6,0.2-5.2,0.5-7.9
	c1.6,0.2,3.2,0.1,4.7-0.3c0.3-0.1,0.6-0.2,0.9-0.3c0.4,0.7,0.6,1.5,0.8,2.3c-0.3,0.2-0.5,0.7-0.3,1c0.4,0.4,1.1,0.5,1.5,0.1
	c0.3-0.3,0.4-0.6,0.3-1c-0.2-0.3-0.5-0.5-0.9-0.4c-0.3-0.8-0.5-1.5-0.7-2.3c1.8-0.8,3.4-2,4.6-3.6c1.7,0.9,3.3,1.9,4.8,3.1
	c-0.3,0.4-0.2,1,0.2,1.3c0.7,0.3,1.4,0,1.7-0.7c0.2-0.5,0.1-1-0.2-1.4c-0.3-0.2-0.7-0.2-1,0c-1.6-1-3.2-2.2-4.7-3.4
	c1.2-1.9,1.8-4,1.8-6.2c1.2-0.1,2.5-0.1,3.7-0.1c0.1,0.4,0.4,0.7,0.8,0.8c0.5,0,1-0.5,1-1.2c0.1-0.6-0.3-1.2-0.9-1.3
	c-0.4,0-0.8,0.3-0.9,0.8c-1.3,0-2.6-0.1-3.8-0.2c-0.1-0.7-0.2-1.3-0.4-2c-0.4-1.3-0.9-2.6-1.6-3.9c1.3-1.1,2.7-2.1,4.2-3
	c0.4,0.5,1.1,0.6,1.7,0.2c0.6-0.8,0.4-1.8-0.4-2.4c-0.5-0.3-1.1-0.4-1.6-0.2c-0.4,0.4-0.5,1.1-0.2,1.7c-1.3,1.1-2.7,2-4.3,2.7
	c-0.8-1.2-1.9-2.3-3.1-3.1c0.3-0.6,0.7-1.1,1.2-1.6c0.3,0.2,0.7,0.1,1-0.1c0.2-0.5-0.1-1.1-0.6-1.3c-0.3-0.1-0.6-0.1-0.9,0.1
	c-0.2,0.3-0.2,0.6,0,0.9c-0.4,0.6-0.8,1.2-1.3,1.7c-1.5-0.8-3.1-1.2-4.7-1.3c0-1,0.1-1.9,0.2-2.9c0.5,0,0.9-0.3,1-0.8
	c0-0.5-0.5-0.9-1.1-0.9c-0.5-0.1-1.1,0.3-1.2,0.8c0,0.3,0.2,0.6,0.5,0.8c0,1-0.2,2-0.4,3c-0.8,0-1.6,0-2.3,0.1
	c-1.3,0.1-2.6,0.5-3.8,1.2c-0.7-0.9-1.3-1.9-1.8-2.9c0.4-0.3,0.6-0.8,0.4-1.2c-0.3-0.6-1.1-0.8-1.7-0.5
	C393.7,154.9,393.7,154.9,393.6,155z"/>
<path class="st6" d="M399.2,82.3c0.3,0.6,1.1,0.8,1.7,0.4c0.4-0.4,0.5-1.1,0.1-1.5c0.7-0.9,1.6-1.7,2.5-2.3c1.5,1.3,3.3,2.2,5.3,2.5
	c-0.2,1.6-0.6,3.2-1.1,4.8c-0.5,0-0.9,0.3-1,0.7c0.1,0.7,0.7,1.3,1.4,1.3c0.5,0,0.9-0.3,1.1-0.7c0.1-0.5-0.3-1-0.8-1.1
	c0.3-1.6,0.8-3.2,1.4-4.8c2,0.2,4,0.1,5.9-0.5c1,1.4,1.8,3,2.5,4.6c-0.4,0.3-0.6,0.8-0.4,1.3c0.5,0.6,1.4,0.6,2,0.1
	c0.3-0.3,0.5-0.8,0.4-1.3c-0.2-0.4-0.7-0.6-1.2-0.4c-0.9-1.5-1.6-3-2.2-4.6c0.5-0.2,0.9-0.4,1.4-0.6c1-0.5,1.9-1.2,2.6-2
	c0.9,0.7,1.6,1.5,2.4,2.4c-0.2,0.3-0.1,0.7,0.1,0.9c0.5,0.3,1.1,0.1,1.4-0.4c0.2-0.4,0.2-0.8-0.1-1.1c-0.3-0.2-0.6-0.2-0.9,0
	c-0.9-0.7-1.6-1.5-2.3-2.4c0.9-1,1.6-2.2,2.1-3.4c1.5,0.2,3,0.6,4.4,1.1c0,0.5,0.2,0.9,0.7,1s1.1-0.3,1.3-1c0.2-0.6,0-1.2-0.6-1.5
	c-0.5-0.1-1,0.2-1.2,0.7c-1.4-0.3-2.9-0.8-4.3-1.3c0.3-1.1,0.5-2.3,0.5-3.5c2.6-0.8,5.2-1.4,7.8-1.8c0.1,0.5,0.6,0.8,1.1,0.8
	c0.6-0.2,1-0.9,0.8-1.5c-0.1-0.7-0.7-1.3-1.2-1.2c-0.5,0.1-0.9,0.6-0.8,1.1c-2.6,0.6-5.1,1-7.7,1.3c-0.2-1.6-0.6-3.1-1.4-4.5
	c-0.1-0.3-0.3-0.5-0.5-0.8c0.6-0.5,1.3-1,2.1-1.3c0.3,0.3,0.7,0.3,1,0.1c0.3-0.5,0.2-1.2-0.3-1.5c-0.3-0.2-0.7-0.3-1.1-0.1
	c-0.3,0.2-0.3,0.6-0.2,0.9c-0.7,0.4-1.4,0.9-2.1,1.2c-1.2-1.6-2.8-2.8-4.6-3.7c0.5-1.9,1.1-3.7,1.9-5.4c0.5,0.1,1-0.1,1.2-0.5
	c0.1-0.6-0.2-1.2-0.8-1.4c-0.5-0.3-1.2-0.1-1.5,0.4c-0.1,0.4,0,0.8,0.3,1c-0.6,1.8-1.4,3.6-2.2,5.4c-2.1-0.7-4.3-0.8-6.5-0.3
	c-0.4-1.2-0.7-2.4-1-3.6c0.4-0.2,0.6-0.6,0.6-1c-0.2-0.6-0.8-0.9-1.4-0.7c-0.7,0.1-1.1,0.6-1,1.1c0.1,0.4,0.5,0.7,1,0.7
	c0.3,1.2,0.5,2.5,0.7,3.8c-0.6,0.2-1.3,0.5-1.8,0.8c-1.2,0.7-2.4,1.5-3.4,2.4c-1.4-1-2.7-2.2-3.8-3.4c0.4-0.5,0.3-1.2-0.2-1.7
	c-0.9-0.4-1.9,0-2.2,0.8c-0.2,0.6-0.2,1.2,0.2,1.7c0.5,0.3,1.2,0.3,1.7-0.2c1.4,1,2.6,2.2,3.7,3.5c-1,1.1-1.8,2.4-2.3,3.7
	c-0.6-0.2-1.2-0.5-1.8-0.8c0.1-0.3,0-0.7-0.3-0.9c-0.6-0.1-1.1,0.3-1.2,0.9c0,0.3,0.1,0.6,0.3,0.9c0.3,0.1,0.7,0,0.9-0.2
	c0.7,0.2,1.3,0.5,1.9,0.9c-0.4,1.6-0.5,3.3-0.2,4.9c-0.9,0.2-1.9,0.3-2.9,0.4c-0.1-0.5-0.5-0.8-1-0.8c-0.5,0.2-0.8,0.7-0.7,1.3
	c0.1,0.6,0.6,1,1,1c0.3-0.1,0.6-0.3,0.6-0.6c1-0.2,2-0.3,3-0.3c0.2,0.8,0.4,1.5,0.6,2.2c0.4,1.3,1.1,2.4,2.1,3.4
	c-0.7,0.9-1.5,1.7-2.4,2.4c-0.4-0.3-0.9-0.4-1.3-0.1C398.6,81.1,398.7,81.8,399.2,82.3L399.2,82.3z"/>
<path class="st6" d="M293.1,64.7c0.1-0.7-0.3-1.3-1-1.4c-0.6,0-1,0.5-1.1,1.1c-1.1,0.2-2.3,0.2-3.4,0.1c-0.3-2-1.1-3.8-2.3-5.4
	c1.2-1.1,2.6-2,4-2.9c0.3,0.3,0.9,0.4,1.3,0.1c0.4-0.6,0.3-1.4-0.3-1.9c-0.4-0.3-0.9-0.3-1.3-0.2c-0.4,0.3-0.5,0.9-0.2,1.4
	c-1.3,1.1-2.7,1.9-4.2,2.6c-1.3-1.5-2.9-2.7-4.7-3.5c0.2-1.7,0.6-3.4,1.1-5.1c0.5,0.1,1-0.2,1.2-0.7c0-0.8-0.7-1.4-1.4-1.3
	c-0.5,0-0.9,0.3-1.2,0.7c-0.1,0.5,0.2,0.9,0.6,1.1c-0.3,1.7-0.8,3.3-1.4,4.9c-0.5-0.2-1-0.3-1.5-0.4c-1.1-0.2-2.2-0.3-3.3-0.2
	c-0.1-1.1-0.2-2.3-0.2-3.4c0.3-0.1,0.5-0.4,0.5-0.8c-0.1-0.5-0.6-0.7-1.1-0.6c-0.6,0.1-0.9,0.5-0.9,0.9c0.1,0.3,0.3,0.6,0.7,0.6
	c0.2,1.1,0.2,2.2,0.2,3.4c-1.3,0.2-2.6,0.6-3.8,1.2c-1-1.2-1.9-2.4-2.6-3.7c0.3-0.3,0.4-0.8,0.2-1.2c-0.5-0.5-1.4-0.5-1.9,0.1
	c-0.3,0.3-0.4,0.8-0.3,1.3c0.3,0.4,0.9,0.5,1.3,0.3c0.9,1.2,1.6,2.5,2.3,3.8c-1,0.6-1.9,1.4-2.7,2.3c-2.4-1.1-4.8-2.4-7.1-3.8
	c0.2-0.5,0.1-1-0.3-1.3c-0.6-0.3-1.3,0-1.6,0.6c-0.4,0.5-0.4,1.3,0.1,1.7c0.5,0.2,1.1,0.1,1.4-0.3c2.3,1.2,4.6,2.6,6.7,4.1
	c-0.9,1.3-1.5,2.8-1.9,4.3c-0.1,0.3-0.1,0.6-0.2,0.9c-0.8,0-1.6-0.1-2.4-0.3c0-0.4-0.3-0.7-0.7-0.7c-0.4,0-0.8,0.5-0.8,1
	c-0.1,0.5,0.3,1,0.8,1.1c0.4,0,0.7-0.3,0.8-0.6c0.8,0.1,1.6,0.2,2.4,0.4c-0.1,2,0.2,4,1,5.8c-1.6,1.1-3.2,2-5,2.7
	c-0.3-0.4-0.8-0.6-1.2-0.4c-0.5,0.5-0.6,1.3-0.1,1.8c0.3,0.4,0.8,0.5,1.2,0.4c0.4-0.2,0.6-0.6,0.5-1c1.7-1,3.4-1.8,5.2-2.6
	c1.1,1.9,2.7,3.5,4.7,4.5c-0.5,1.2-1,2.3-1.6,3.3c-0.4-0.1-0.8,0-1.1,0.4c-0.2,0.7,0.3,1.4,0.9,1.5c0.4,0.1,0.8,0,1.1-0.3
	c0.2-0.4,0.1-0.9-0.2-1.2c0.6-1.1,1.2-2.2,2-3.3c0.6,0.3,1.3,0.5,1.9,0.6c1.4,0.3,2.7,0.5,4.1,0.4c0.4,1.7,0.6,3.4,0.6,5.1
	c-0.6,0.2-1.1,0.7-1,1.4c0.3,0.7,1.1,1.2,1.8,0.9c0.9-0.2,1.5-0.8,1.4-1.5c-0.2-0.6-0.8-1-1.4-0.9c-0.4-1.7-0.5-3.4-0.4-5
	c1.5-0.2,2.9-0.6,4.1-1.4c0.3,0.6,0.6,1.2,0.9,1.8c-0.3,0.2-0.5,0.6-0.4,0.9c0.4,0.4,1,0.5,1.5,0.1c0.3-0.2,0.4-0.5,0.4-0.9
	c-0.2-0.3-0.5-0.4-0.8-0.4c-0.4-0.6-0.7-1.3-0.9-1.9c1.4-0.9,2.5-2.2,3.4-3.6c0.8,0.5,1.7,1,2.4,1.5c-0.2,0.4-0.1,0.9,0.2,1.2
	c0.6,0.2,1.3-0.2,1.5-0.8c0.1-0.4,0-0.8-0.3-1.1c-0.3-0.2-0.6-0.1-0.9,0.1c-0.9-0.5-1.7-1.1-2.5-1.7c0.4-0.7,0.7-1.4,1-2.1
	c0.5-1.2,0.8-2.6,0.7-3.9c1.1-0.2,2.2-0.3,3.4-0.3c0.1,0.5,0.4,0.8,0.9,0.9C292.6,66.1,293.1,65.5,293.1,64.7z"/>
<path class="st1" d="M187.6,421.5c5.2,2.5,8.5-1.9,3-4.7"/>
</svg>
