<?xml version="1.0" encoding="utf-8"?>
<!-- Generator: Adobe Illustrator 23.0.3, SVG Export Plug-In . SVG Version: 6.00 Build 0)  -->
<svg version="1.1" id="Layer_1" xmlns="http://www.w3.org/2000/svg" xmlns:xlink="http://www.w3.org/1999/xlink" x="0px" y="0px"
	 viewBox="0 0 450 450" style="enable-background:new 0 0 450 450;" xml:space="preserve">
<style type="text/css">
	.st0{fill:none;stroke:#FF6346;stroke-width:4;stroke-miterlimit:10;}
	.st1{fill:none;stroke:#334054;stroke-width:4;stroke-miterlimit:10;}
	.st2{fill:#1FBAD6;}
</style>
<title>paris</title>
<line class="st0" x1="275" y1="320.5" x2="415.2" y2="320.5"/>
<line class="st0" x1="35.1" y1="320.5" x2="165.2" y2="320.5"/>
<path class="st1" d="M293.6,365.2h-15c0,0-10.2-21.5-18.4-29.9c-9.8-10.1-20.6-10.8-31.2-10.8s-22.9,2.5-31.9,12.6
	c-6.3,7.1-18,28-18,28h-29.7c0,0,35-44.6,37.6-48.8s2-17.6,2-17.6h6.5c0,0,12.1-30.7,13.7-38.2c-1-8.8-2.3-9.8-0.6-11.4
	s4.9-1.6,4.9-1.6s7.8-40.1,9.1-74s1.3-43.7,1.3-43.7s-2.6-12.4-2-16.3s1.3-7.8,6.2-8.8c0.3-2.9,1-19.9,1-19.9s0.2,17,0.6,19.9
	c4.9,1,5.6,4.9,6.2,8.8s-2,16.3-2,16.3s0,9.8,1.3,43.7s9.1,74,9.1,74s3.3,0,4.9,1.6s0.3,2.6-0.6,11.4c1.6,7.5,13.7,38.2,13.7,38.2
	l6.3,0.2c0,0-0.4,13.1,2.2,17.4s37.6,48.8,37.6,48.8"/>
<polygon class="st1" points="228.9,274.3 234.8,274.3 239.1,298.8 228.9,298.8 228.7,298.8 218.6,298.8 222.9,274.3 228.7,274.3 "/>
<path class="st2" d="M145.9,128.5c0,1-0.8,1.8-1.8,1.8s-1.8-0.8-1.8-1.8s0.8-1.8,1.8-1.8l0,0C145.1,126.7,145.9,127.5,145.9,128.5z"
	/>
<path class="st2" d="M184.6,128.5c0,1-0.8,1.8-1.8,1.8s-1.8-0.8-1.8-1.8s0.8-1.8,1.8-1.8l0,0C183.8,126.7,184.6,127.5,184.6,128.5z"
	/>
<path class="st2" d="M68.5,166.2c0,1-0.8,1.8-1.8,1.8s-1.8-0.8-1.8-1.8c0-1,0.8-1.8,1.8-1.8c0,0,0,0,0,0
	C67.7,164.4,68.5,165.2,68.5,166.2z"/>
<path class="st2" d="M107.2,166.2c0,1-0.8,1.8-1.8,1.8s-1.8-0.8-1.8-1.8c0-1,0.8-1.8,1.8-1.8c0,0,0,0,0,0
	C106.4,164.4,107.2,165.2,107.2,166.2z"/>
<path class="st2" d="M145.9,166.2c0,1-0.8,1.8-1.8,1.8c-1,0-1.8-0.8-1.8-1.8s0.8-1.8,1.8-1.8c0,0,0,0,0,0
	C145.1,164.4,145.9,165.2,145.9,166.2z"/>
<path class="st2" d="M184.6,166.2c0,1-0.8,1.8-1.8,1.8c-1,0-1.8-0.8-1.8-1.8s0.8-1.8,1.8-1.8c0,0,0,0,0,0
	C183.8,164.4,184.6,165.2,184.6,166.2z"/>
<path class="st2" d="M29.8,201c0,1-0.8,1.8-1.8,1.8s-1.8-0.8-1.8-1.8c0-1,0.8-1.8,1.8-1.8h0C28.9,199.2,29.7,200.1,29.8,201z"/>
<path class="st2" d="M68.5,201c0,1-0.8,1.8-1.8,1.8c-1,0-1.8-0.8-1.8-1.8c0-1,0.8-1.8,1.8-1.8c0,0,0,0,0,0
	C67.7,199.2,68.5,200.1,68.5,201z"/>
<path class="st2" d="M107.2,201c0,1-0.8,1.8-1.8,1.8c-1,0-1.8-0.8-1.8-1.8c0-1,0.8-1.8,1.8-1.8c0,0,0,0,0,0
	C106.4,199.2,107.2,200.1,107.2,201z"/>
<path class="st2" d="M145.9,201c0,1-0.8,1.8-1.8,1.8s-1.8-0.8-1.8-1.8s0.8-1.8,1.8-1.8l0,0C145.1,199.2,145.9,200.1,145.9,201z"/>
<path class="st2" d="M184.6,201c0,1-0.8,1.8-1.8,1.8S181,202,181,201s0.8-1.8,1.8-1.8l0,0C183.8,199.2,184.6,200.1,184.6,201z"/>
<path class="st2" d="M107.2,235.3c0,1-0.8,1.8-1.8,1.8s-1.8-0.8-1.8-1.8c0-1,0.8-1.8,1.8-1.8c0,0,0,0,0,0
	C106.4,233.6,107.2,234.4,107.2,235.3z"/>
<path class="st2" d="M145.9,235.3c0,1-0.8,1.8-1.8,1.8c-1,0-1.8-0.8-1.8-1.8s0.8-1.8,1.8-1.8c0,0,0,0,0,0
	C145.1,233.5,145.9,234.4,145.9,235.3z"/>
<path class="st2" d="M184.6,235.3c0,1-0.8,1.8-1.8,1.8c-1,0-1.8-0.8-1.8-1.8s0.8-1.8,1.8-1.8c0,0,0,0,0,0
	C183.8,233.5,184.6,234.4,184.6,235.3z"/>
<path class="st2" d="M68.5,272.5c0,1-0.8,1.8-1.8,1.8c-1,0-1.8-0.8-1.8-1.8c0-1,0.8-1.8,1.8-1.8c0,0,0,0,0,0
	C67.7,270.7,68.5,271.5,68.5,272.5z"/>
<path class="st2" d="M107.2,272.5c0,1-0.8,1.8-1.8,1.8c-1,0-1.8-0.8-1.8-1.8c0-1,0.8-1.8,1.8-1.8c0,0,0,0,0,0
	C106.4,270.7,107.2,271.5,107.2,272.5z"/>
<path class="st2" d="M145.9,272.5c0,1-0.8,1.8-1.8,1.8s-1.8-0.8-1.8-1.8c0-1,0.8-1.8,1.8-1.8c0,0,0,0,0,0
	C145.1,270.7,145.9,271.5,145.9,272.5z"/>
<path class="st2" d="M269,128.5c0,1-0.8,1.8-1.8,1.8c-1,0-1.8-0.8-1.8-1.8c0-1,0.8-1.8,1.8-1.8c0,0,0,0,0,0
	C268.2,126.7,269,127.5,269,128.5z"/>
<path class="st2" d="M269,166.2c0,1-0.8,1.8-1.8,1.8c-1,0-1.8-0.8-1.8-1.8c0-1,0.8-1.8,1.8-1.8c0,0,0,0,0,0
	C268.2,164.4,269,165.2,269,166.2z"/>
<path class="st2" d="M307.7,166.2c0,1-0.8,1.8-1.8,1.8c-1,0-1.8-0.8-1.8-1.8c0-1,0.8-1.8,1.8-1.8c0,0,0,0,0,0
	C306.9,164.4,307.7,165.2,307.7,166.2z"/>
<path class="st2" d="M346.4,166.2c0,1-0.8,1.8-1.8,1.8c-1,0-1.8-0.8-1.8-1.8s0.8-1.8,1.8-1.8c0,0,0,0,0,0
	C345.6,164.4,346.4,165.2,346.4,166.2z"/>
<path class="st2" d="M269,201c0,1-0.8,1.8-1.8,1.8c-1,0-1.8-0.8-1.8-1.8c0-1,0.8-1.8,1.8-1.8c0,0,0,0,0,0
	C268.2,199.2,269,200.1,269,201z"/>
<path class="st2" d="M307.7,201c0,1-0.8,1.8-1.8,1.8c-1,0-1.8-0.8-1.8-1.8c0-1,0.8-1.8,1.8-1.8c0,0,0,0,0,0
	C306.9,199.2,307.7,200.1,307.7,201z"/>
<path class="st2" d="M346.4,201c0,1-0.8,1.8-1.8,1.8s-1.8-0.8-1.8-1.8s0.8-1.8,1.8-1.8l0,0C345.6,199.2,346.4,200.1,346.4,201z"/>
<path class="st2" d="M385.1,201c0,1-0.8,1.8-1.8,1.8c-1,0-1.8-0.8-1.8-1.8c0-1,0.8-1.8,1.8-1.8c0,0,0,0,0,0
	C384.3,199.2,385.1,200.1,385.1,201z"/>
<path class="st2" d="M423.9,201c0,1-0.8,1.8-1.8,1.8c-1,0-1.8-0.8-1.8-1.8c0-1,0.8-1.8,1.8-1.8c0,0,0,0,0,0
	C423.1,199.2,423.9,200.1,423.9,201z"/>
<path class="st2" d="M269,235.3c0,1-0.8,1.8-1.8,1.8c-1,0-1.8-0.8-1.8-1.8c0-1,0.8-1.8,1.8-1.8c0,0,0,0,0,0
	C268.2,233.6,269,234.4,269,235.3z"/>
<path class="st2" d="M307.7,235.3c0,1-0.8,1.8-1.8,1.8c-1,0-1.8-0.8-1.8-1.8c0-1,0.8-1.8,1.8-1.8c0,0,0,0,0,0
	C306.9,233.6,307.7,234.4,307.7,235.3z"/>
<path class="st2" d="M346.4,235.3c0,1-0.8,1.8-1.8,1.8c-1,0-1.8-0.8-1.8-1.8s0.8-1.8,1.8-1.8c0,0,0,0,0,0
	C345.6,233.5,346.4,234.4,346.4,235.3z"/>
<path class="st2" d="M307.7,272.5c0,1-0.8,1.8-1.8,1.8c-1,0-1.8-0.8-1.8-1.8c0-1,0.8-1.8,1.8-1.8c0,0,0,0,0,0
	C306.9,270.7,307.7,271.5,307.7,272.5z"/>
</svg>
