<svg xmlns="http://www.w3.org/2000/svg" viewBox="0 0 450 450"><defs><style>.a{fill:#ffe161;}.b{fill:none;stroke:#1fbad6;stroke-miterlimit:10;stroke-width:2px;fill-rule:evenodd;}.c{fill:#ccc;}</style></defs><title>paris</title><path class="a" d="M266.19,302.09c-5.87-12.28-20.82-53.91-24-87.54s-3.74-73.66-3.74-82.2,2.67-13.35,2.14-16.55-3-5.63-8-4.81c-3.2.54-5.87,5.34-3.74,17.09,2.39,13.14,1.82,28.36,2,46.21s-2,64.81-5.18,75.49-5.34,29.36-20.28,55-38.44,55-38.44,55l26.16,1.07s9.07-39,44.3-41.1,42.71,39,42.71,39h25.62S272.06,314.37,266.19,302.09Zm-40.57-2.4L233,271.86H244.8l2.71,28.63Z"/><path class="b" d="M300.17,363.43H285.33s-6.44-23.08-19.31-30.8-22.21-9.34-28.65-9.34h-2.15c-6.44,0-15.77,1.61-28.64,9.34s-19.31,30.8-19.31,30.8H157.91"/><path class="b" d="M157.91,363.43s34.51-44,37.08-48.18,1.93-17.38,1.93-17.38h6.44s11.91-30.25,13.52-37.66c-1-8.69-2.26-9.65-.65-11.26s4.83-1.61,4.83-1.61,7.72-39.58,9-73.05,1.29-43.13,1.29-43.13-2.58-12.23-1.93-16.09,1.28-7.72,6.11-8.69c.32-2.9,1-19.63,1-19.63s.22,16.73.54,19.63c4.83,1,5.47,4.83,6.12,8.69s-1.93,16.09-1.93,16.09,0,9.66,1.28,43.13,9,73.05,9,73.05,3.22,0,4.83,1.61.32,2.57-.64,11.26c1.61,7.41,13.51,37.66,13.51,37.66l6.19.22s-.39,13,2.18,17.16,37.09,48.18,37.09,48.18"/><polygon class="b" points="236.41 273.73 242.2 273.73 246.38 297.87 236.41 297.87 236.19 297.87 226.21 297.87 230.39 273.73 236.19 273.73 236.41 273.73"/><path class="c" d="M151.76,123.21a1.81,1.81,0,1,1-1.8-1.8A1.81,1.81,0,0,1,151.76,123.21Z"/><path class="c" d="M190.48,123.21a1.81,1.81,0,1,1-1.8-1.8A1.81,1.81,0,0,1,190.48,123.21Z"/><path class="c" d="M74.31,160.87a1.81,1.81,0,1,1-1.8-1.8A1.81,1.81,0,0,1,74.31,160.87Z"/><path class="c" d="M113,160.87a1.81,1.81,0,1,1-1.81-1.8A1.81,1.81,0,0,1,113,160.87Z"/><path class="c" d="M151.76,160.87a1.81,1.81,0,1,1-1.8-1.8A1.81,1.81,0,0,1,151.76,160.87Z"/><path class="c" d="M190.48,160.87a1.81,1.81,0,1,1-1.8-1.8A1.81,1.81,0,0,1,190.48,160.87Z"/><path class="c" d="M35.59,195.74a1.81,1.81,0,1,1-1.8-1.8A1.81,1.81,0,0,1,35.59,195.74Z"/><path class="c" d="M74.31,195.74a1.81,1.81,0,1,1-1.8-1.8A1.81,1.81,0,0,1,74.31,195.74Z"/><path class="c" d="M113,195.74a1.81,1.81,0,1,1-1.81-1.8A1.81,1.81,0,0,1,113,195.74Z"/><path class="c" d="M151.76,195.74a1.81,1.81,0,1,1-1.8-1.8A1.81,1.81,0,0,1,151.76,195.74Z"/><path class="c" d="M190.48,195.74a1.81,1.81,0,1,1-1.8-1.8A1.81,1.81,0,0,1,190.48,195.74Z"/><path class="c" d="M113,230.05a1.81,1.81,0,1,1-1.81-1.8A1.81,1.81,0,0,1,113,230.05Z"/><path class="c" d="M151.76,230.05a1.81,1.81,0,1,1-1.8-1.8A1.81,1.81,0,0,1,151.76,230.05Z"/><path class="c" d="M190.48,230.05a1.81,1.81,0,1,1-1.8-1.8A1.81,1.81,0,0,1,190.48,230.05Z"/><path class="c" d="M74.31,267.16a1.81,1.81,0,1,1-1.8-1.8A1.81,1.81,0,0,1,74.31,267.16Z"/><path class="c" d="M113,267.16a1.81,1.81,0,1,1-1.81-1.8A1.81,1.81,0,0,1,113,267.16Z"/><path class="c" d="M151.76,267.16a1.81,1.81,0,1,1-1.8-1.8A1.81,1.81,0,0,1,151.76,267.16Z"/><path class="c" d="M274.81,123.21a1.8,1.8,0,1,1-1.8-1.8A1.8,1.8,0,0,1,274.81,123.21Z"/><path class="c" d="M274.81,160.87a1.8,1.8,0,1,1-1.8-1.8A1.8,1.8,0,0,1,274.81,160.87Z"/><path class="c" d="M313.54,160.87a1.81,1.81,0,1,1-1.81-1.8A1.81,1.81,0,0,1,313.54,160.87Z"/><path class="c" d="M352.26,160.87a1.81,1.81,0,1,1-1.8-1.8A1.81,1.81,0,0,1,352.26,160.87Z"/><path class="c" d="M274.81,195.74a1.8,1.8,0,1,1-1.8-1.8A1.8,1.8,0,0,1,274.81,195.74Z"/><path class="c" d="M313.54,195.74a1.81,1.81,0,1,1-1.81-1.8A1.81,1.81,0,0,1,313.54,195.74Z"/><path class="c" d="M352.26,195.74a1.81,1.81,0,1,1-1.8-1.8A1.81,1.81,0,0,1,352.26,195.74Z"/><path class="c" d="M391,195.74a1.81,1.81,0,1,1-1.8-1.8A1.8,1.8,0,0,1,391,195.74Z"/><path class="c" d="M429.71,195.74a1.81,1.81,0,1,1-1.81-1.8A1.81,1.81,0,0,1,429.71,195.74Z"/><path class="c" d="M274.81,230.05a1.8,1.8,0,1,1-1.8-1.8A1.8,1.8,0,0,1,274.81,230.05Z"/><path class="c" d="M313.54,230.05a1.81,1.81,0,1,1-1.81-1.8A1.81,1.81,0,0,1,313.54,230.05Z"/><path class="c" d="M352.26,230.05a1.81,1.81,0,1,1-1.8-1.8A1.81,1.81,0,0,1,352.26,230.05Z"/><path class="c" d="M313.54,267.16a1.81,1.81,0,1,1-1.81-1.8A1.81,1.81,0,0,1,313.54,267.16Z"/></svg>