<svg xmlns="http://www.w3.org/2000/svg" viewBox="0 0 450 450"><defs><style>.a{fill:#ffe161;}.b{fill:none;stroke:#1fbad6;stroke-miterlimit:10;stroke-width:2px;fill-rule:evenodd;}.c{fill:#ccc;}</style></defs><title>paris</title><path class="a" d="M263,295.67c-5.69-11.91-20.2-52.3-23.3-84.93S236,139.27,236,131s2.59-13,2.07-16.06-2.95-5.46-7.76-4.66c-3.11.52-5.7,5.18-3.63,16.57,2.32,12.75,1.76,27.52,1.92,44.84s-1.92,62.88-5,73.24-5.18,28.48-19.68,53.34-37.28,53.34-37.28,53.34l25.37,1s8.81-37.81,43-39.88,41.43,37.81,41.43,37.81h24.85S268.66,307.58,263,295.67Zm-39.36-2.33,7.15-27h11.46l2.63,27.77Z"/><path class="b" d="M295.93,355.19h-14.4s-6.25-22.4-18.74-29.89-21.54-9.06-27.78-9.06h-2.09c-6.25,0-15.3,1.56-27.79,9.06s-18.74,29.89-18.74,29.89H157.91"/><path class="b" d="M157.91,355.19s33.48-42.69,36-46.75,1.87-16.86,1.87-16.86H202s11.56-29.35,13.12-36.54c-.94-8.43-2.19-9.36-.63-10.92s4.69-1.57,4.69-1.57,7.49-38.4,8.74-70.87,1.25-41.84,1.25-41.84-2.5-11.87-1.87-15.61,1.24-7.5,5.93-8.44c.31-2.81.93-19,.93-19s.22,16.23.53,19c4.69.94,5.31,4.69,5.94,8.44s-1.88,15.61-1.88,15.61,0,9.36,1.25,41.84,8.74,70.87,8.74,70.87,3.13,0,4.69,1.57.31,2.49-.63,10.92c1.56,7.19,13.12,36.54,13.12,36.54l6,.22s-.38,12.58,2.12,16.64,36,46.75,36,46.75"/><polygon class="b" points="234.07 268.16 239.69 268.16 243.75 291.58 234.07 291.58 233.85 291.58 224.17 291.58 228.23 268.16 233.85 268.16 234.07 268.16"/><path class="c" d="M151.76,123.21a1.81,1.81,0,1,1-1.8-1.8A1.81,1.81,0,0,1,151.76,123.21Z"/><path class="c" d="M190.48,123.21a1.81,1.81,0,1,1-1.8-1.8A1.81,1.81,0,0,1,190.48,123.21Z"/><path class="c" d="M74.31,160.87a1.81,1.81,0,1,1-1.8-1.8A1.81,1.81,0,0,1,74.31,160.87Z"/><path class="c" d="M113,160.87a1.81,1.81,0,1,1-1.81-1.8A1.81,1.81,0,0,1,113,160.87Z"/><path class="c" d="M151.76,160.87a1.81,1.81,0,1,1-1.8-1.8A1.81,1.81,0,0,1,151.76,160.87Z"/><path class="c" d="M190.48,160.87a1.81,1.81,0,1,1-1.8-1.8A1.81,1.81,0,0,1,190.48,160.87Z"/><path class="c" d="M35.59,195.74a1.81,1.81,0,1,1-1.8-1.8A1.81,1.81,0,0,1,35.59,195.74Z"/><path class="c" d="M74.31,195.74a1.81,1.81,0,1,1-1.8-1.8A1.81,1.81,0,0,1,74.31,195.74Z"/><path class="c" d="M113,195.74a1.81,1.81,0,1,1-1.81-1.8A1.81,1.81,0,0,1,113,195.74Z"/><path class="c" d="M151.76,195.74a1.81,1.81,0,1,1-1.8-1.8A1.81,1.81,0,0,1,151.76,195.74Z"/><path class="c" d="M190.48,195.74a1.81,1.81,0,1,1-1.8-1.8A1.81,1.81,0,0,1,190.48,195.74Z"/><path class="c" d="M113,230.05a1.81,1.81,0,1,1-1.81-1.8A1.81,1.81,0,0,1,113,230.05Z"/><path class="c" d="M151.76,230.05a1.81,1.81,0,1,1-1.8-1.8A1.81,1.81,0,0,1,151.76,230.05Z"/><path class="c" d="M190.48,230.05a1.81,1.81,0,1,1-1.8-1.8A1.81,1.81,0,0,1,190.48,230.05Z"/><path class="c" d="M74.31,267.16a1.81,1.81,0,1,1-1.8-1.8A1.81,1.81,0,0,1,74.31,267.16Z"/><path class="c" d="M113,267.16a1.81,1.81,0,1,1-1.81-1.8A1.81,1.81,0,0,1,113,267.16Z"/><path class="c" d="M151.76,267.16a1.81,1.81,0,1,1-1.8-1.8A1.81,1.81,0,0,1,151.76,267.16Z"/><path class="c" d="M274.81,123.21a1.8,1.8,0,1,1-1.8-1.8A1.8,1.8,0,0,1,274.81,123.21Z"/><path class="c" d="M274.81,160.87a1.8,1.8,0,1,1-1.8-1.8A1.8,1.8,0,0,1,274.81,160.87Z"/><path class="c" d="M313.54,160.87a1.81,1.81,0,1,1-1.81-1.8A1.81,1.81,0,0,1,313.54,160.87Z"/><path class="c" d="M352.26,160.87a1.81,1.81,0,1,1-1.8-1.8A1.81,1.81,0,0,1,352.26,160.87Z"/><path class="c" d="M274.81,195.74a1.8,1.8,0,1,1-1.8-1.8A1.8,1.8,0,0,1,274.81,195.74Z"/><path class="c" d="M313.54,195.74a1.81,1.81,0,1,1-1.81-1.8A1.81,1.81,0,0,1,313.54,195.74Z"/><path class="c" d="M352.26,195.74a1.81,1.81,0,1,1-1.8-1.8A1.81,1.81,0,0,1,352.26,195.74Z"/><path class="c" d="M391,195.74a1.81,1.81,0,1,1-1.8-1.8A1.8,1.8,0,0,1,391,195.74Z"/><path class="c" d="M429.71,195.74a1.81,1.81,0,1,1-1.81-1.8A1.81,1.81,0,0,1,429.71,195.74Z"/><path class="c" d="M274.81,230.05a1.8,1.8,0,1,1-1.8-1.8A1.8,1.8,0,0,1,274.81,230.05Z"/><path class="c" d="M313.54,230.05a1.81,1.81,0,1,1-1.81-1.8A1.81,1.81,0,0,1,313.54,230.05Z"/><path class="c" d="M352.26,230.05a1.81,1.81,0,1,1-1.8-1.8A1.81,1.81,0,0,1,352.26,230.05Z"/><path class="c" d="M313.54,267.16a1.81,1.81,0,1,1-1.81-1.8A1.81,1.81,0,0,1,313.54,267.16Z"/></svg>