<?xml version="1.0" encoding="utf-8"?>
<!-- Generator: Adobe Illustrator 25.2.0, SVG Export Plug-In . SVG Version: 6.00 Build 0)  -->
<svg version="1.1" id="Layer_1" xmlns="http://www.w3.org/2000/svg" xmlns:xlink="http://www.w3.org/1999/xlink" x="0px" y="0px"
	 viewBox="0 0 500 500" style="enable-background:new 0 0 500 500;" xml:space="preserve">
<style type="text/css">
	.st0{fill:none;stroke:#047989;stroke-width:2;stroke-miterlimit:10;}
	.st1{fill:#FFE161;}
	.st2{fill:none;stroke:#1FB8D4;stroke-width:2;stroke-miterlimit:10;}
	.st3{fill:none;stroke:#1EB9D5;stroke-width:2;stroke-miterlimit:10;}
	.st4{fill:none;stroke:#FF6346;stroke-width:2;stroke-miterlimit:10;stroke-dasharray:2.0254,5.0634;}
	.st5{fill:#4E5E75;}
	.st6{fill:none;stroke:#FF6346;stroke-width:2;stroke-miterlimit:10;}
</style>
<g>
	<g>
		<line class="st0" x1="140.2" y1="275.6" x2="140.2" y2="99.1"/>
		<path class="st0" d="M133.1,85.9c0,0-103.4,81.2-3.1,189.4"/>
		<path class="st0" d="M147.1,85.9c0,0,95.8,75.2,13.6,177.3"/>
		<line class="st0" x1="59.6" y1="180.6" x2="234.9" y2="180.6"/>
		<line class="st0" x1="76.5" y1="129.8" x2="219.9" y2="129.8"/>
		<line class="st0" x1="76.5" y1="231.5" x2="219.9" y2="231.5"/>
		<path class="st0" d="M97.6,96c12.8-6.5,27.3-10.1,42.6-10.1c52.4,0,94.8,42.5,94.8,94.8s-42.5,94.8-94.8,94.8S45.4,233,45.4,180.7
			c0-27.8,11.9-52.8,31-70.1"/>
	</g>
</g>
<path class="st1" d="M111.7,75.5l-8.3-0.4c-0.6-1.4-1.2-2.8-2.5-3.7c-2.2-2.2-6.1-3.7-11.1-4c-3.3-0.3-6.7-0.1-10.1,0.3l-0.3,6.2
	l-7.5-0.5l-0.3,3.3l7.5,0.4l-0.3,4.4l-7.5-0.4L71,84.4l7.5,0.4l-1.2,22.9l5.1,0.3l0.8-16.2c1.4,0.3,2.8,0.6,4.2,0.6
	c5.1,0.3,9.7-1,12.6-3.7c0.7-0.7,1.4-1.5,1.9-2.4l8.6,0.4l0.3-3.3l-7.6-0.4c0.3-0.8,0.3-1.8,0.3-2.8c0-0.6,0-1,0-1.5l7.5,0.4
	L111.7,75.5z M84.8,71.7c1.7-0.3,3.3-0.3,5-0.1c3.5,0.3,6.2,1.2,7.6,3.2l-12.8-0.7L84.8,71.7z M88.2,88.1c-1.4,0-2.9-0.3-4.3-0.7
	L84,85l12.3,0.7C94.6,87.6,91.8,88.2,88.2,88.1z M98.8,79.9c0,0.8-0.3,1.7-0.4,2.5l-14.1-0.7l0.3-4.3l14.3,0.7
	C98.8,78.8,98.9,79.4,98.8,79.9L98.8,79.9z"/>
<path class="st1" d="M239.5,260c-1.9,2.4-4.5,4.1-7.5,5.3c-4.3,1.6-9,1.2-12.8-1.1c-2.9-1.7-5.4-4.3-7.2-8.1l-3.4,1.2l-0.9-2.6
	l3.1-1.2l-0.2-0.8c-0.3-0.9-0.5-1.7-0.8-2.6l-3.3,1.1l-1-2.7l3.6-1.2c-0.7-3.7-0.2-7.4,1.3-10.9c1.8-3.9,5.1-7,9.3-8.4
	c2.6-0.9,5.3-1.1,8-0.7l0.1,4.1c-2.2-0.4-4.6-0.3-6.6,0.6c-2.8,0.9-5.1,2.9-6.2,5.6c-1.1,2.2-1.3,5.1-0.8,8.2l15.3-5.3l1,2.7
	l-15.8,5.5c0.2,0.7,0.5,1.6,0.6,2.3l0.4,1.1l15.9-5.6l0.9,2.6l-15.7,5.5c1.2,2.5,3.1,4.8,5.5,6.1c2.7,1.5,6,1.6,8.9,0.5
	c2.4-0.8,4.4-2.3,6-4.1L239.5,260z"/>
<path class="st2" d="M374.4,293.5l5.1-4.1c1-0.8,2-0.9,2.8-0.6s2,0.9,2,0.9c1.2,0.5,1.7,1.6,2,3.9l8.3,52.9c0.5,3-0.8,6.9-2.9,8.6
	l-3,2.4"/>
<path class="st2" d="M379.5,364.5c0,0-7.9,7.8-11.1,5.5c-0.9-0.4-1.7-1.5-1.9-3.1l-8.4-54c-0.5-3,0.8-6.9,2.9-8.6l5.2-4.2"/>
<path class="st2" d="M389,327.7l-5-31.8c-0.3-1.7-1.6-2.2-2.9-1.1l-2,1.6c0.2,1-0.4,2.5-1.2,3.1l-9.5,7.5c-0.8,0.7-1.6,0.4-1.8-0.7
	l-2,1.6c-1.3,1-2.3,3.4-2,5.1l8,50.8c0.3,1.7,1.6,2.2,2.9,1.1l7-5.4"/>
<path class="st2" d="M389.6,352c1.3-1,2.8-3.7,2.5-5.4l-1.2-7.9"/>
<path class="st3" d="M372.1,407.8c-5.4-12-9.9-20.8-12.5-30.1c-2.8-10.3-2.5-20.8-1.8-26.6c0.4-3.9,2.5-12.9,3.8-13.7"/>
<g>
	<g>
		<path class="st4" d="M201.9,165c138.9,45,173.5,134.7,179.5,176.8"/>
	</g>
</g>
<g>
	<g>
		<path class="st4" d="M305.6,178.3c49.1,41.9,79.3,93.7,75.8,163.4"/>
	</g>
</g>
<g>
	<g>
		<path class="st4" d="M243.8,250.9c63.2,3.6,100,28.4,137.7,90.9"/>
	</g>
</g>
<path class="st1" d="M127.1,185.2c-0.7-5-4.1-7.4-10.1-8.8l-1.7-11.9c2.1-0.2,4.2,0,6.2,0.8l0.7-3.8c-2.4-0.8-5-1-7.5-0.6l-0.5-3.5
	l-2.9,0.4l0.5,3.7c-5.2,1.6-8,5.8-7.3,10.4c0.7,4.6,4.4,7.2,10.1,8.4l1.9,12.9c-0.1,0-0.2,0-0.3,0.1c-2.8,0.4-5.7,0-8.3-1.1
	l-0.6,3.9c2,1,5.8,1.4,9.1,0.9l0.6-0.1l0.5,3.5l2.9-0.4l-0.5-3.8C125.5,194.1,127.8,189.7,127.1,185.2z M109,170.7
	c-0.3-1.9,0.6-4.3,3.5-5.5l1.5,10.4C110.9,174.5,109.4,173.2,109,170.7z M119.3,192.2l-1.6-11.2c3.1,1.1,4.5,2.6,4.9,5.2
	C123,188.7,121.7,191.2,119.3,192.2z"/>
<g>
	<path class="st1" d="M304.4,165.1l1.4-2.7l-5.6-3l6.3-11.8l-3.9-2.1l-6.3,11.8l-8.1-4.3l-1.2-15.8l-4.5-2.4l-6.3,11.8l-5.4-2.9
		l-1.4,2.7l5.4,2.9l-2,3.7l-5.4-2.9l-1.4,2.7l5.4,2.9l-5.9,11l3.9,2.1l5.9-11l9,4.8l1,14.7l4.1,2.2l5.9-11l5.6,3l1.4-2.7l-5.6-3
		l2-3.7L304.4,165.1z M283.5,141.9l0.1,0.1c-0.1,2.7-0.1,5.7,0,8.6l-3.5-1.9C281.4,146.3,282.4,144.1,283.5,141.9L283.5,141.9z
		 M276.8,155.1c0.7-1.3,1.4-2.5,2-3.7l5,2.7l0.1,1.6l0.3,3.3L276.8,155.1z M289,172.3L289,172.3c0.1-2.3,0.2-4.7,0.1-7.2l2.6,1.4
		C290.7,168.4,289.9,170.3,289,172.3z M293,163.8l-4.1-2.2l-0.2-2.7l-0.2-2.2l6.4,3.4C294.3,161.3,293.6,162.6,293,163.8L293,163.8z
		"/>
</g>
<path class="st1" d="M193.5,129l-26.9-3l-0.1,0.5l-0.3,3l-0.1,1l5.4,0.6c4.7,0.6,8.1,2.6,8.8,6.3l-14.7-1.7l-0.4,3.5l15.1,1.7
	c-0.9,4.3-4.8,6.7-10.3,6.1l-5.6-0.6l-0.5,4.1l5.1,0.6c4.9,0.7,6.9,3.2,7.6,9.2c0.6,5.4,1.1,9.2,1.7,10.4l5.6,0.6
	c-0.7-1.7-1.2-5.9-2-12c-0.5-4.5-2.1-7.7-5.3-9.2v-0.2c4.2-0.9,7.8-3.7,8.9-8.4l6.4,0.7l0.4-3.5l-6.5-0.7c-0.1-2.4-1-4.6-2.5-6.4
	c-0.1-0.1-0.2-0.2-0.3-0.3l10,1.2L193.5,129z"/>
<g>
	<path class="st5" d="M279.6,355.6L279.6,355.6C279.7,355.6,279.7,355.6,279.6,355.6c0.9,0,1.5-0.6,1.5-1.4l0,0
		c0-0.8-0.7-1.4-1.5-1.4c-0.1,0-0.1,0-0.1,0c-0.8,0-1.4,0.6-1.4,1.4C278.1,354.9,278.8,355.6,279.6,355.6z"/>
	<path class="st5" d="M246.3,355.6L246.3,355.6c0.1,0,0.1,0,0.1,0c0.8,0,1.4-0.6,1.4-1.4l0,0c0-0.8-0.7-1.4-1.5-1.4h-0.1
		c-0.8,0-1.4,0.6-1.4,1.4C244.9,355,245.5,355.6,246.3,355.6z"/>
	<path class="st5" d="M278.1,291.7c0,0.9,0.6,1.5,1.5,1.4l0,0h0.1c0.8,0,1.4-0.6,1.4-1.4v-0.1c-0.1-0.7-0.7-1.3-1.5-1.3
		c-0.1,0-0.1,0-0.1,0C278.7,290.3,278.1,290.9,278.1,291.7C278.1,291.7,278.1,291.8,278.1,291.7z"/>
	<path class="st5" d="M342.2,323.3c0,0.9,0.6,1.5,1.5,1.5l0,0h0.1c0.8,0,1.4-0.6,1.4-1.4v-0.1c-0.1-0.8-0.7-1.4-1.5-1.4h-0.1
		C342.8,321.9,342.2,322.5,342.2,323.3C342.2,323.3,342.2,323.4,342.2,323.3z"/>
	<path class="st5" d="M437,293.2L437,293.2L437,293.2c0.8,0,1.4-0.6,1.4-1.4s-0.6-1.4-1.4-1.4h-0.1c-0.8,0-1.4,0.6-1.4,1.4
		S436.1,293.2,437,293.2z"/>
	<path class="st5" d="M313.1,293.2L313.1,293.2c0.8,0,1.4-0.6,1.4-1.4s-0.6-1.4-1.4-1.4H313c-0.8,0-1.4,0.6-1.4,1.4
		S312.2,293.2,313.1,293.2z"/>
	<path class="st5" d="M407.3,293.2L407.3,293.2L407.3,293.2c0.8,0,1.4-0.6,1.4-1.4s-0.6-1.4-1.4-1.4h-0.1c-0.8,0-1.4,0.6-1.4,1.4
		S406.4,293.2,407.3,293.2z"/>
	<path class="st5" d="M408.2,324.7L408.2,324.7L408.2,324.7c0.8,0,1.4-0.6,1.4-1.4s-0.6-1.4-1.4-1.4h-0.1c-0.8,0-1.4,0.6-1.4,1.4
		S407.3,324.7,408.2,324.7z"/>
	<path class="st5" d="M407.3,259L407.3,259c0.8,0,1.4-0.6,1.4-1.4s-0.6-1.4-1.4-1.4h-0.1c-0.8,0-1.4,0.6-1.4,1.4
		S406.4,259,407.3,259z"/>
	<path class="st5" d="M313.1,324.7L313.1,324.7h0.1c0.8,0,1.4-0.6,1.4-1.4v-0.1c-0.1-0.7-0.7-1.3-1.5-1.3c-0.1,0-0.1,0-0.1,0
		c-0.8,0-1.4,0.6-1.4,1.4S312.2,324.7,313.1,324.7z"/>
	<path class="st5" d="M279.6,324.7L279.6,324.7h0.1c0.8,0,1.4-0.6,1.4-1.4v-0.1c-0.1-0.7-0.7-1.3-1.5-1.3c-0.1,0-0.1,0-0.1,0
		c-0.8,0-1.4,0.6-1.4,1.4S278.7,324.7,279.6,324.7z"/>
	<path class="st5" d="M341.4,354.1c0,0,0,0.1-0.1,0.2c0.1,0.7,0.8,1.3,1.5,1.2l0,0c0.8-0.1,1.5-0.7,1.5-1.5c0-0.1,0-0.1,0-0.1
		c-0.1-0.8-0.7-1.4-1.5-1.3l0,0C342,352.6,341.4,353.3,341.4,354.1L341.4,354.1z"/>
	<path class="st5" d="M246.3,293.2L246.3,293.2c0.1,0,0.1,0,0.1,0c0.8,0,1.4-0.6,1.4-1.4l0,0c0-0.8-0.7-1.4-1.5-1.4h-0.1
		c-0.8,0-1.4,0.6-1.4,1.4C244.9,292.6,245.5,293.2,246.3,293.2z"/>
	<path class="st5" d="M313.1,355.6L313.1,355.6c0.1,0,0.1,0,0.1,0c0.8,0,1.4-0.6,1.4-1.4l0,0c0-0.8-0.7-1.4-1.5-1.4H313
		c-0.8,0-1.4,0.6-1.4,1.4C311.7,355,312.3,355.6,313.1,355.6z"/>
	<path class="st5" d="M343.6,386.7L343.6,386.7c0.1,0,0.1,0,0.1,0c0.8,0,1.4-0.6,1.4-1.4l0,0c0-0.8-0.7-1.4-1.5-1.4h-0.1
		c-0.8,0-1.4,0.6-1.4,1.4S342.8,386.7,343.6,386.7z"/>
	<path class="st5" d="M279.6,386.7L279.6,386.7L279.6,386.7c0.9,0,1.5-0.6,1.5-1.4l0,0c0-0.8-0.7-1.4-1.5-1.4h-0.1
		c-0.8,0-1.4,0.6-1.4,1.4C278.2,386,278.8,386.6,279.6,386.7z"/>
	<path class="st5" d="M213.3,293.2L213.3,293.2h0.1c0.8,0,1.4-0.6,1.4-1.4l0,0c0-0.8-0.7-1.4-1.5-1.4h-0.1c-0.8,0-1.4,0.6-1.4,1.4
		S212.5,293.2,213.3,293.2z"/>
	<path class="st5" d="M246.3,324.7L246.3,324.7h0.1c0.8,0,1.4-0.6,1.4-1.4l0,0c0-0.8-0.7-1.4-1.5-1.4c-0.1,0-0.1,0-0.1,0
		c-0.8,0-1.4,0.6-1.4,1.4C244.9,324,245.5,324.6,246.3,324.7z"/>
</g>
<circle class="st6" cx="382.4" cy="345.4" r="4.3"/>
<g>
	<path class="st3" d="M394.3,396.8c-4.1-7.3-9.1-12.8-7.5-23.2c0.9-5.9,1.7-11.9,2.1-16.4c2.4-15-6.7-17.6-8.1,0.5
		c-0.8,8-3,11.5-3,11.5"/>
</g>
</svg>
