<svg xmlns="http://www.w3.org/2000/svg" viewBox="0 0 450 450"><defs><style>.a{fill:#f4f9f9;}.b,.c{fill:none;stroke-miterlimit:10;stroke-width:6px;}.b{stroke:#1eb9d5;}.c{stroke:#334054;}.d{fill:#ff6346;}</style></defs><title>pricing-1</title><rect class="a" x="109.19" y="109.19" width="231.61" height="231.61"/><path class="b" d="M275.68,349.1v19.73a8.69,8.69,0,0,1-8.84,8.54H183.16a8.69,8.69,0,0,1-8.84-8.54V212.59a8.69,8.69,0,0,1,8.84-8.54h83.68a8.69,8.69,0,0,1,8.84,8.54V332.23"/><path class="c" d="M184.87,275.54v82.73a8.31,8.31,0,0,0,8.31,8.31h63.64a8.31,8.31,0,0,0,8.31-8.31V223.15a8.31,8.31,0,0,0-8.31-8.31H240.07l-2.92,6.84H212.47L210,214.84H193.18a8.31,8.31,0,0,0-8.31,8.31v33.77"/><path class="d" d="M228.57,260.55v3.2c4.56.08,12.65,1.92,12.65,4.56,0,1.2-1.76,4.25-2.56,4.25-1.2,0-4.09-2.89-10.09-3.05v18.66c7.12,2.57,15.29,5.45,15.29,16.5,0,9.13-5.92,14.89-15.29,15.7v4c0,.88-.48,1.28-1.6,1.28s-1.6-.4-1.6-1.28v-3.92c-9.05-.25-15.86-3.69-15.86-5.85,0-1.28,1.92-4.32,2.8-4.32s5.29,4.16,13.06,4.4V294c-7.05-2.72-14.82-5.53-14.82-15.86,0-7.84,5.77-13.29,14.82-14.25v-3.36c0-.89.48-1.29,1.6-1.29S228.57,259.66,228.57,260.55Zm-10.73,17.93c0,4.57,3.28,6.73,7.53,8.49V269.76C220.8,270.56,217.84,273.44,217.84,278.48Zm10.73,36a9.52,9.52,0,0,0,8-9.77c0-5.05-3.61-7.45-8-9.37Z"/></svg>