<svg xmlns="http://www.w3.org/2000/svg" viewBox="0 0 450 450"><defs><style>.a,.b,.c,.d{fill:none;stroke-width:6px;}.a{stroke:#1fbad6;stroke-dasharray:10 10;}.a,.c,.d{stroke-miterlimit:10;}.b,.c{stroke:#334054;}.b{stroke-linejoin:bevel;}.d{stroke:#ff6346;}</style></defs><title>pricing-4</title><path class="a" d="M253.05,184.08c-7.09-3.83-16.4-8.17-28.58-8.17s-26.19,4.34-33,8.17"/><path class="a" d="M266.81,158.77a90.91,90.91,0,0,0-42.46-10.46,100.8,100.8,0,0,0-44.09,10.4"/><path class="a" d="M169.86,132.5c12.9-8.31,36.07-14.13,53.66-14,26.2.25,46.53,9.23,57.39,14.73"/><polyline class="b" points="189.69 340.75 223.76 232.52 255.06 340.75"/><line class="c" x1="195.34" y1="327.27" x2="245.41" y2="303.84"/><line class="c" x1="250.59" y1="326.24" x2="200.82" y2="304.27"/><line class="c" x1="206.21" y1="288.91" x2="235.21" y2="269.89"/><line class="c" x1="211.67" y1="269.98" x2="240.02" y2="289.25"/><path class="d" d="M234.9,220.09a10.44,10.44,0,1,1-10.44-10.43A10.43,10.43,0,0,1,234.9,220.09Z"/></svg>