<svg xmlns="http://www.w3.org/2000/svg" viewBox="0 0 450 450"><defs><style>.a{fill:#f4f9f9;}.b,.c{fill:none;stroke-miterlimit:10;stroke-width:6px;}.b{stroke:#334054;}.c{stroke:#1eb9d5;}.d{fill:#ff6346;}</style></defs><title>pricing-3</title><rect class="a" x="109.19" y="109.19" width="231.61" height="231.61"/><path class="b" d="M223.16,330.74l80.69-80.65-3.58-49.39A12.65,12.65,0,0,0,288.86,189l-51-4.94L130.12,291.77l66,66,10.28-10.27M289,210.29a8,8,0,1,1,0-11.37A8,8,0,0,1,289,210.29Z"/><path class="c" d="M284.53,203.34A20.42,20.42,0,1,1,313.89,206"/><path class="c" d="M209.45,227.44l5.49-5.49a22.28,22.28,0,0,1,31.42-.25l19.23,19.23a22.28,22.28,0,0,1-.26,31.42L211.71,326a22.3,22.3,0,0,1-31.43.26L161.05,307a22.29,22.29,0,0,1,.26-31.43l37.94-37.94Z"/><path class="d" d="M190.36,280.42a5.17,5.17,0,0,0,3.56,1.53,4.76,4.76,0,0,0,3.68-1.48,4.85,4.85,0,0,0,1.08-1.67,5.45,5.45,0,0,0,.36-1.93,5.35,5.35,0,0,0-.36-1.92,4.66,4.66,0,0,0-1.08-1.68,4.78,4.78,0,0,0-1.72-1.12,5.19,5.19,0,0,0-1.94-.34,5.55,5.55,0,0,0-1.93.4,5,5,0,0,0-3.09,4.62A4.71,4.71,0,0,0,190.36,280.42Zm14.47-29.28,4.11-4.1,13.41,50.4-4.14,4.14Zm24.76,24.08a5,5,0,0,0,3.62,1.55,5.11,5.11,0,0,0,3.62-8.7,4.78,4.78,0,0,0-1.72-1.12,5,5,0,0,0-1.94-.34,5.33,5.33,0,0,0-1.93.4,5,5,0,0,0-1.61,1.06,5.08,5.08,0,0,0-1.48,3.51A4.67,4.67,0,0,0,229.59,275.22Z"/></svg>