<svg xmlns="http://www.w3.org/2000/svg" viewBox="0 0 450 450"><defs><style>.a,.b{fill:none;stroke-miterlimit:10;stroke-width:6px;}.a{stroke:#334054;}.b{stroke:#1eb9d5;}.c{fill:#ff6346;}</style></defs><title>pricing-3</title><path class="a" d="M224.2,299.82l80.69-80.64-3.58-49.39a12.68,12.68,0,0,0-11.41-11.7l-51-4.93L131.15,260.86l66,66,10.28-10.27M290,179.38A8,8,0,1,1,290,168,8.06,8.06,0,0,1,290,179.38Z"/><path class="b" d="M285.57,172.43a20.42,20.42,0,1,1,29.36,2.62"/><path class="b" d="M210.49,196.53,216,191a22.3,22.3,0,0,1,31.43-.26L266.63,210a22.29,22.29,0,0,1-.26,31.43l-53.63,53.63a22.29,22.29,0,0,1-31.42.26L162.09,276.1a22.29,22.29,0,0,1,.26-31.43l37.94-37.94Z"/><path class="c" d="M191.4,249.51A5.15,5.15,0,0,0,195,251a4.75,4.75,0,0,0,3.68-1.49,4.54,4.54,0,0,0,1.08-1.67,5.35,5.35,0,0,0,.36-1.92,5.45,5.45,0,0,0-.36-1.93,4.8,4.8,0,0,0-2.79-2.79,5.24,5.24,0,0,0-1.95-.34,5.32,5.32,0,0,0-1.92.4,5,5,0,0,0-3.09,4.62A4.71,4.71,0,0,0,191.4,249.51Zm14.47-29.28,4.11-4.11,13.41,50.4-4.15,4.15Zm24.76,24.08a5,5,0,0,0,3.62,1.54,4.85,4.85,0,0,0,3.62-1.5,5,5,0,0,0,1.48-3.6,5.06,5.06,0,0,0-3.2-4.72,5.2,5.2,0,0,0-2-.33,5.12,5.12,0,0,0-1.92.4,4.66,4.66,0,0,0-1.61,1.06,5,5,0,0,0-1.48,3.51A4.67,4.67,0,0,0,230.63,244.31Z"/></svg>