<svg xmlns="http://www.w3.org/2000/svg" viewBox="0 0 450 450"><defs><style>.a,.b{fill:none;stroke-miterlimit:10;stroke-width:4px;}.a{stroke:#334054;}.b{stroke:#1eb9d5;}.c{fill:#ff6346;}</style></defs><title>pricing-3</title><path class="a" d="M222.66,291.77l80.69-80.65-3.58-49.39A12.66,12.66,0,0,0,288.35,150l-51-4.93L129.61,252.8l66,66,10.28-10.27m82.61-137.23a8,8,0,1,1,0-11.36A8,8,0,0,1,288.48,171.32Z"/><path class="b" d="M284,164.38A20.42,20.42,0,1,1,313.39,167"/><path class="b" d="M209,188.47l5.48-5.48a22.29,22.29,0,0,1,31.43-.26L265.09,202a22.3,22.3,0,0,1-.26,31.43L211.2,287a22.28,22.28,0,0,1-31.42.26L160.55,268a22.29,22.29,0,0,1,.25-31.43l37.95-37.94Z"/><path class="c" d="M189.86,241.46a5.09,5.09,0,0,0,3.55,1.52,5,5,0,0,0,4.76-3.15,5.33,5.33,0,0,0,0-3.85,4.63,4.63,0,0,0-1.08-1.67,4.83,4.83,0,0,0-1.71-1.12,5.24,5.24,0,0,0-3.87.06,4.7,4.7,0,0,0-1.61,1.06,4.93,4.93,0,0,0-1.48,3.55A4.75,4.75,0,0,0,189.86,241.46Zm14.47-29.29,4.1-4.1,13.42,50.4-4.15,4.15Zm24.76,24.08a5,5,0,0,0,3.62,1.55,4.89,4.89,0,0,0,3.61-1.5,5.09,5.09,0,0,0,0-7.2,4.74,4.74,0,0,0-1.71-1.12,5.24,5.24,0,0,0-2-.34,5.54,5.54,0,0,0-1.92.4,5,5,0,0,0-1.61,1.06,5,5,0,0,0-1.48,3.51A4.65,4.65,0,0,0,229.09,236.25Z"/></svg>