<svg xmlns="http://www.w3.org/2000/svg" viewBox="0 0 295.03 266.34"><defs><style>.a{fill:#1eb9d5;}.b,.c{fill:none;stroke-miterlimit:10;stroke-width:3px;}.b{stroke:#1eb9d5;}.c{stroke:#ffe161;}</style></defs><title>pricing-3</title><path class="a" d="M128.46,104.43c3.84,3.84,4,9.42-.2,13.62s-9.78,4-13.62.2-4-9.42.2-13.62S124.62,100.59,128.46,104.43Zm2.15-16.49,2.36-.72,14.69,55-2.36.72Zm33,24c3.84,3.84,4,9.42-.2,13.62s-9.78,4.05-13.62.21-4-9.42.2-13.62S159.79,108.11,163.63,112Z"/><path class="b" d="M135.15,179.12l-12.07,12.07L62.43,130.51l99.06-99L208.35,36a11.66,11.66,0,0,1,10.5,10.75l3.29,45.4L148,166.33"/><circle class="b" cx="204.2" cy="49.43" r="6.43"/><path class="c" d="M204.58,49.84a18.78,18.78,0,1,1,16.77,4.7,3.94,3.94,0,0,1-.66.11"/><path class="c" d="M136.13,67.81l5.31-5.31a21.78,21.78,0,0,1,30.7,0l18.93,18.93a21.78,21.78,0,0,1,0,30.7l-51.95,52a21.76,21.76,0,0,1-30.69,0L89.49,145.14a21.76,21.76,0,0,1,0-30.69l36.76-36.76"/></svg>