<svg xmlns="http://www.w3.org/2000/svg" viewBox="0 0 450 450"><defs><style>.a,.b,.c,.d{fill:none;stroke-width:4px;}.a{stroke:#1fbad6;stroke-dasharray:10 10;}.a,.c,.d{stroke-miterlimit:10;}.b,.c{stroke:#334054;}.b{stroke-linejoin:bevel;}.d{stroke:#ff6346;}</style></defs><title>pricing-4</title><path class="a" d="M252.66,179.44c-7.09-3.83-16.4-8.17-28.57-8.17s-26.2,4.34-33,8.17"/><path class="a" d="M266.43,154.13A91,91,0,0,0,224,143.67a100.83,100.83,0,0,0-44.09,10.4"/><path class="a" d="M169.47,127.86c12.9-8.31,36.07-14.14,53.66-14,26.2.25,46.53,9.23,57.4,14.73"/><polyline class="b" points="189.31 336.11 223.37 227.88 254.68 336.11"/><line class="c" x1="194.95" y1="322.63" x2="245.02" y2="299.19"/><line class="c" x1="250.21" y1="321.6" x2="200.43" y2="299.63"/><line class="c" x1="205.82" y1="284.26" x2="234.82" y2="265.25"/><line class="c" x1="211.28" y1="265.34" x2="239.63" y2="284.61"/><path class="d" d="M234.51,215.45A10.43,10.43,0,1,1,224.08,205,10.43,10.43,0,0,1,234.51,215.45Z"/></svg>