<svg xmlns="http://www.w3.org/2000/svg" viewBox="0 0 295.03 266.34"><defs><style>.a{fill:none;stroke:#1eb9d5;stroke-miterlimit:10;stroke-width:3px;}.b{fill:#ffe161;}</style></defs><title>pricing</title><path class="a" d="M196.16,191.88v19.73a8.54,8.54,0,0,1-8.55,8.54H106.73a8.54,8.54,0,0,1-8.54-8.54V55.37a8.54,8.54,0,0,1,8.54-8.54h80.88a8.54,8.54,0,0,1,8.55,8.54V175"/><path class="a" d="M105.81,117.23v85.82a8.62,8.62,0,0,0,8.63,8.62h66a8.62,8.62,0,0,0,8.62-8.62V62.88a8.62,8.62,0,0,0-8.62-8.63H163.09l-3,7.1h-25.6l-2.53-7.1H114.44a8.63,8.63,0,0,0-8.63,8.63v35"/><path class="b" d="M150.88,102.7v3.2c4.56.08,12.65,1.92,12.65,4.57,0,1.2-1.76,4.24-2.56,4.24-1.21,0-4.09-2.88-10.09-3v18.66c7.12,2.56,15.29,5.44,15.29,16.49,0,9.13-5.92,14.9-15.29,15.7v4c0,.88-.48,1.28-1.61,1.28s-1.6-.4-1.6-1.28V162.6c-9-.24-15.85-3.69-15.85-5.85,0-1.28,1.92-4.32,2.8-4.32s5.29,4.16,13,4.4V136.17c-7-2.72-14.81-5.52-14.81-15.85,0-7.85,5.76-13.3,14.81-14.26V102.7c0-.88.48-1.28,1.6-1.28S150.88,101.82,150.88,102.7Zm-10.73,17.94c0,4.56,3.28,6.72,7.52,8.48V111.91C143.11,112.71,140.15,115.59,140.15,120.64Zm10.73,36a9.51,9.51,0,0,0,8-9.77c0-5-3.6-7.45-8-9.37Z"/></svg>