<svg xmlns="http://www.w3.org/2000/svg" viewBox="0 0 450 450"><defs><style>.a,.b{fill:none;stroke-miterlimit:10;stroke-width:4px;}.a{stroke:#1eb9d5;}.b{stroke:#334054;}.c{fill:#ff6346;}</style></defs><title>pricing-1</title><path class="a" d="M275.68,283.39v19.73a8.69,8.69,0,0,1-8.84,8.54H183.16a8.69,8.69,0,0,1-8.84-8.54V146.88a8.69,8.69,0,0,1,8.84-8.54h83.68a8.69,8.69,0,0,1,8.84,8.54V266.52"/><path class="b" d="M184.87,209.83v82.73a8.31,8.31,0,0,0,8.31,8.31h63.64a8.31,8.31,0,0,0,8.31-8.31V157.44a8.31,8.31,0,0,0-8.31-8.31H240.07L237.15,156H212.47L210,149.13H193.18a8.31,8.31,0,0,0-8.31,8.31v33.77"/><path class="c" d="M228.57,194.84V198c4.56.08,12.65,1.92,12.65,4.56,0,1.21-1.76,4.25-2.56,4.25-1.2,0-4.09-2.88-10.09-3v18.65c7.12,2.57,15.29,5.45,15.29,16.5,0,9.13-5.92,14.9-15.29,15.7v4c0,.88-.48,1.28-1.6,1.28s-1.6-.4-1.6-1.28v-3.92c-9.05-.24-15.86-3.69-15.86-5.85,0-1.28,1.92-4.32,2.8-4.32s5.29,4.16,13.06,4.4V228.31c-7.05-2.72-14.82-5.53-14.82-15.85,0-7.85,5.77-13.3,14.82-14.26v-3.36c0-.88.48-1.28,1.6-1.28S228.57,194,228.57,194.84Zm-10.73,17.93c0,4.57,3.28,6.73,7.53,8.49V204.05C220.8,204.85,217.84,207.73,217.84,212.77Zm10.73,36a9.52,9.52,0,0,0,8-9.77c0-5-3.61-7.45-8-9.37Z"/></svg>