<svg xmlns="http://www.w3.org/2000/svg" viewBox="0 0 295.03 266.34"><defs><style>.a{fill:none;stroke:#1eb9d5;stroke-linecap:round;stroke-linejoin:round;stroke-width:3px;}.b{fill:#ffe161;}</style></defs><title>programmable-pic-1</title><polyline class="a" points="184.03 182.52 196.41 168.17 184.03 156.3 196.41 145.15 184.03 132.99 196.41 119 184.03 107.13 196.41 95.98 184.03 83.82"/><path class="b" d="M128.25,109.71v2.2c3.13,0,8.68,1.32,8.68,3.13,0,.82-1.21,2.91-1.76,2.91-.82,0-2.8-2-6.92-2.09v12.81c4.89,1.76,10.49,3.73,10.49,11.32,0,6.26-4.06,10.22-10.49,10.77v2.74c0,.61-.33.88-1.1.88s-1.1-.27-1.1-.88v-2.69c-6.21-.16-10.88-2.53-10.88-4,0-.88,1.32-3,1.92-3s3.63,2.86,9,3V132.68c-4.84-1.87-10.17-3.79-10.17-10.88,0-5.39,4-9.12,10.17-9.78v-2.31c0-.6.33-.88,1.1-.88S128.25,109.11,128.25,109.71ZM120.88,122c0,3.13,2.26,4.61,5.17,5.82V116C122.92,116.58,120.88,118.56,120.88,122Zm7.37,24.67a6.52,6.52,0,0,0,5.49-6.7c0-3.47-2.47-5.11-5.49-6.43Z"/><path class="a" d="M236.14,145.11a12.12,12.12,0,1,1,0-24.23h.07V95.37a11.42,11.42,0,0,0-11.42-11.43H70.25A11.43,11.43,0,0,0,58.82,95.37V120l.38,0a12.12,12.12,0,0,1,0,24.24l-.38,0v26.4a11.43,11.43,0,0,0,11.43,11.43H224.79a11.42,11.42,0,0,0,11.42-11.43V145.11Z"/></svg>