<svg xmlns="http://www.w3.org/2000/svg" viewBox="0 0 295.03 266.34"><defs><style>.a{fill:none;stroke:#1eb9d5;stroke-linecap:round;stroke-linejoin:round;stroke-width:3px;}.b{fill:#ffe161;}</style></defs><title>programmable-pic-1</title><rect class="a" x="71.52" y="54.4" width="152" height="157.55" rx="10.51"/><path class="b" d="M93.46,68.93V87h4.4c.42,0,.59.26.59.89v.35c0,.63-.17.89-.59.89H85.8c-.42,0-.6-.26-.6-.89v-.35c0-.63.18-.89.6-.89H91V71l-5.26.89c-.42,0-.6-1-.6-1.51,0-.33.18-.48.54-.57l6.89-1.51C93,68.31,93.46,68.58,93.46,68.93Z"/><path class="b" d="M114.53,78.77c0,7.39-3.21,10.57-6.8,10.57S101,86.16,101,78.77s3.18-10.58,6.75-10.58S114.53,71.37,114.53,78.77Zm-11,0c0,6.2,2.08,8.43,4.22,8.43S112,85,112,78.77s-2.14-8.44-4.27-8.44S103.51,72.56,103.51,78.77Z"/><path class="b" d="M130.43,78.77c0,7.39-3.21,10.57-6.81,10.57s-6.74-3.18-6.74-10.57,3.18-10.58,6.74-10.58S130.43,71.37,130.43,78.77Zm-11,0c0,6.2,2.08,8.43,4.22,8.43s4.28-2.23,4.28-8.43-2.14-8.44-4.28-8.44S119.4,72.56,119.4,78.77Z"/><path class="b" d="M146.32,78.77c0,7.39-3.2,10.57-6.8,10.57s-6.74-3.18-6.74-10.57,3.18-10.58,6.74-10.58S146.32,71.37,146.32,78.77Zm-11,0c0,6.2,2.08,8.43,4.22,8.43s4.28-2.23,4.28-8.43-2.14-8.44-4.28-8.44S135.3,72.56,135.3,78.77Z"/><path class="b" d="M157.05,68.93V87h4.4c.42,0,.59.26.59.89v.35c0,.63-.17.89-.59.89H149.39c-.42,0-.6-.26-.6-.89v-.35c0-.63.18-.89.6-.89h5.17V71l-5.26.89c-.42,0-.6-1-.6-1.51,0-.33.18-.48.54-.57l6.89-1.51C156.58,68.31,157.05,68.58,157.05,68.93Z"/><path class="b" d="M173,68.93V87h4.4c.41,0,.59.26.59.89v.35c0,.63-.18.89-.59.89H165.29c-.42,0-.6-.26-.6-.89v-.35c0-.63.18-.89.6-.89h5.17V71l-5.26.89c-.42,0-.6-1-.6-1.51,0-.33.18-.48.54-.57L172,68.31C172.48,68.31,173,68.58,173,68.93Z"/><path class="b" d="M194,78.77c0,7.39-3.21,10.57-6.81,10.57s-6.74-3.18-6.74-10.57,3.18-10.58,6.74-10.58S194,71.37,194,78.77Zm-11,0c0,6.2,2.08,8.43,4.21,8.43s4.28-2.23,4.28-8.43-2.14-8.44-4.28-8.44S183,72.56,183,78.77Z"/><path class="b" d="M204.75,68.93V87h4.39c.42,0,.6.26.6.89v.35c0,.63-.18.89-.6.89H197.08c-.41,0-.59-.26-.59-.89v-.35c0-.63.18-.89.59-.89h5.17V71L197,71.9c-.41,0-.59-1-.59-1.51,0-.33.18-.48.53-.57l6.89-1.51C204.27,68.31,204.75,68.58,204.75,68.93Z"/><path class="b" d="M98.63,114.43c0,7.39-3.21,10.57-6.8,10.57s-6.75-3.18-6.75-10.57,3.18-10.58,6.75-10.58S98.63,107,98.63,114.43Zm-11,0c0,6.2,2.08,8.43,4.22,8.43s4.28-2.23,4.28-8.43S94,106,91.83,106,87.61,108.22,87.61,114.43Z"/><path class="b" d="M109.36,104.59v18.09h4.4c.41,0,.59.27.59.9v.35c0,.63-.18.89-.59.89H101.69c-.41,0-.59-.26-.59-.89v-.35c0-.63.18-.9.59-.9h5.17v-16l-5.25.89c-.42,0-.6-1-.6-1.51,0-.33.18-.48.54-.57l6.89-1.51C108.88,104,109.36,104.24,109.36,104.59Z"/><path class="b" d="M130.43,114.43c0,7.39-3.21,10.57-6.81,10.57s-6.74-3.18-6.74-10.57,3.18-10.58,6.74-10.58S130.43,107,130.43,114.43Zm-11,0c0,6.2,2.08,8.43,4.22,8.43s4.28-2.23,4.28-8.43-2.14-8.44-4.28-8.44S119.4,108.22,119.4,114.43Z"/><path class="b" d="M141.15,104.59v18.09h4.4c.42,0,.6.27.6.9v.35c0,.63-.18.89-.6.89H133.49c-.42,0-.59-.26-.59-.89v-.35c0-.63.17-.9.59-.9h5.17v-16l-5.26.89c-.42,0-.59-1-.59-1.51,0-.33.17-.48.53-.57l6.89-1.51C140.68,104,141.15,104.24,141.15,104.59Z"/><path class="b" d="M157.05,104.59v18.09h4.4c.42,0,.59.27.59.9v.35c0,.63-.17.89-.59.89H149.39c-.42,0-.6-.26-.6-.89v-.35c0-.63.18-.9.6-.9h5.17v-16l-5.26.89c-.42,0-.6-1-.6-1.51,0-.33.18-.48.54-.57l6.89-1.51C156.58,104,157.05,104.24,157.05,104.59Z"/><path class="b" d="M178.12,114.43c0,7.39-3.21,10.57-6.8,10.57s-6.75-3.18-6.75-10.57,3.18-10.58,6.75-10.58S178.12,107,178.12,114.43Zm-11,0c0,6.2,2.08,8.43,4.22,8.43s4.28-2.23,4.28-8.43-2.14-8.44-4.28-8.44S167.1,108.22,167.1,114.43Z"/><path class="b" d="M188.85,104.59v18.09h4.4c.41,0,.59.27.59.9v.35c0,.63-.18.89-.59.89H181.18c-.41,0-.59-.26-.59-.89v-.35c0-.63.18-.9.59-.9h5.17v-16l-5.26.89c-.41,0-.59-1-.59-1.51,0-.33.18-.48.53-.57l6.9-1.51C188.37,104,188.85,104.24,188.85,104.59Z"/><path class="b" d="M204.75,104.59v18.09h4.39c.42,0,.6.27.6.9v.35c0,.63-.18.89-.6.89H197.08c-.41,0-.59-.26-.59-.89v-.35c0-.63.18-.9.59-.9h5.17v-16l-5.26.89c-.41,0-.59-1-.59-1.51,0-.33.18-.48.53-.57l6.89-1.51C204.27,104,204.75,104.24,204.75,104.59Z"/><path class="b" d="M93.46,140.25v18.09h4.4c.42,0,.59.27.59.89v.36c0,.63-.17.89-.59.89H85.8c-.42,0-.6-.26-.6-.89v-.36c0-.62.18-.89.6-.89H91v-16l-5.26.89c-.42,0-.6-1-.6-1.51,0-.33.18-.48.54-.57l6.89-1.51C93,139.63,93.46,139.89,93.46,140.25Z"/><path class="b" d="M114.53,150.08c0,7.4-3.21,10.58-6.8,10.58S101,157.48,101,150.08s3.18-10.57,6.75-10.57S114.53,142.69,114.53,150.08Zm-11,0c0,6.21,2.08,8.44,4.22,8.44s4.27-2.23,4.27-8.44-2.14-8.43-4.27-8.43S103.51,143.88,103.51,150.08Z"/><path class="b" d="M130.43,150.08c0,7.4-3.21,10.58-6.81,10.58s-6.74-3.18-6.74-10.58,3.18-10.57,6.74-10.57S130.43,142.69,130.43,150.08Zm-11,0c0,6.21,2.08,8.44,4.22,8.44s4.28-2.23,4.28-8.44-2.14-8.43-4.28-8.43S119.4,143.88,119.4,150.08Z"/><path class="b" d="M146.32,150.08c0,7.4-3.2,10.58-6.8,10.58s-6.74-3.18-6.74-10.58,3.18-10.57,6.74-10.57S146.32,142.69,146.32,150.08Zm-11,0c0,6.21,2.08,8.44,4.22,8.44s4.28-2.23,4.28-8.44-2.14-8.43-4.28-8.43S135.3,143.88,135.3,150.08Z"/><path class="b" d="M157.05,140.25v18.09h4.4c.42,0,.59.27.59.89v.36c0,.63-.17.89-.59.89H149.39c-.42,0-.6-.26-.6-.89v-.36c0-.62.18-.89.6-.89h5.17v-16l-5.26.89c-.42,0-.6-1-.6-1.51,0-.33.18-.48.54-.57l6.89-1.51C156.58,139.63,157.05,139.89,157.05,140.25Z"/><path class="b" d="M173,140.25v18.09h4.4c.41,0,.59.27.59.89v.36c0,.63-.18.89-.59.89H165.29c-.42,0-.6-.26-.6-.89v-.36c0-.62.18-.89.6-.89h5.17v-16l-5.26.89c-.42,0-.6-1-.6-1.51,0-.33.18-.48.54-.57l6.89-1.51C172.48,139.63,173,139.89,173,140.25Z"/><path class="b" d="M194,150.08c0,7.4-3.21,10.58-6.81,10.58s-6.74-3.18-6.74-10.58,3.18-10.57,6.74-10.57S194,142.69,194,150.08Zm-11,0c0,6.21,2.08,8.44,4.21,8.44s4.28-2.23,4.28-8.44-2.14-8.43-4.28-8.43S183,143.88,183,150.08Z"/><path class="b" d="M209.92,150.08c0,7.4-3.21,10.58-6.81,10.58s-6.74-3.18-6.74-10.58,3.18-10.57,6.74-10.57S209.92,142.69,209.92,150.08Zm-11,0c0,6.21,2.08,8.44,4.22,8.44s4.28-2.23,4.28-8.44-2.14-8.43-4.28-8.43S198.89,143.88,198.89,150.08Z"/><path class="b" d="M98.63,185.74c0,7.4-3.21,10.58-6.8,10.58s-6.75-3.18-6.75-10.58,3.18-10.57,6.75-10.57S98.63,178.35,98.63,185.74Zm-11,0c0,6.21,2.08,8.44,4.22,8.44s4.28-2.23,4.28-8.44-2.14-8.43-4.28-8.43S87.61,179.53,87.61,185.74Z"/><path class="b" d="M109.36,175.91V194h4.4c.41,0,.59.27.59.89v.36c0,.62-.18.89-.59.89H101.69c-.41,0-.59-.27-.59-.89v-.36c0-.62.18-.89.59-.89h5.17V178l-5.25.89c-.42,0-.6-1-.6-1.51,0-.33.18-.48.54-.57l6.89-1.51C108.88,175.29,109.36,175.55,109.36,175.91Z"/><path class="b" d="M125.26,175.91V194h4.39c.42,0,.6.27.6.89v.36c0,.62-.18.89-.6.89H117.59c-.41,0-.59-.27-.59-.89v-.36c0-.62.18-.89.59-.89h5.17V178l-5.26.89c-.41,0-.59-1-.59-1.51,0-.33.18-.48.53-.57l6.9-1.51C124.78,175.29,125.26,175.55,125.26,175.91Z"/><path class="b" d="M146.32,185.74c0,7.4-3.2,10.58-6.8,10.58s-6.74-3.18-6.74-10.58,3.18-10.57,6.74-10.57S146.32,178.35,146.32,185.74Zm-11,0c0,6.21,2.08,8.44,4.22,8.44s4.28-2.23,4.28-8.44-2.14-8.43-4.28-8.43S135.3,179.53,135.3,185.74Z"/><path class="b" d="M157.05,175.91V194h4.4c.42,0,.59.27.59.89v.36c0,.62-.17.89-.59.89H149.39c-.42,0-.6-.27-.6-.89v-.36c0-.62.18-.89.6-.89h5.17V178l-5.26.89c-.42,0-.6-1-.6-1.51,0-.33.18-.48.54-.57l6.89-1.51C156.58,175.29,157.05,175.55,157.05,175.91Z"/><path class="b" d="M178.12,185.74c0,7.4-3.21,10.58-6.8,10.58s-6.75-3.18-6.75-10.58,3.18-10.57,6.75-10.57S178.12,178.35,178.12,185.74Zm-11,0c0,6.21,2.08,8.44,4.22,8.44s4.28-2.23,4.28-8.44-2.14-8.43-4.28-8.43S167.1,179.53,167.1,185.74Z"/><path class="b" d="M188.85,175.91V194h4.4c.41,0,.59.27.59.89v.36c0,.62-.18.89-.59.89H181.18c-.41,0-.59-.27-.59-.89v-.36c0-.62.18-.89.59-.89h5.17V178l-5.26.89c-.41,0-.59-1-.59-1.51,0-.33.18-.48.53-.57l6.9-1.51C188.37,175.29,188.85,175.55,188.85,175.91Z"/><path class="b" d="M204.75,175.91V194h4.39c.42,0,.6.27.6.89v.36c0,.62-.18.89-.6.89H197.08c-.41,0-.59-.27-.59-.89v-.36c0-.62.18-.89.59-.89h5.17V178l-5.26.89c-.41,0-.59-1-.59-1.51,0-.33.18-.48.53-.57l6.89-1.51C204.27,175.29,204.75,175.55,204.75,175.91Z"/></svg>