<svg xmlns="http://www.w3.org/2000/svg" viewBox="0 0 295.03 266.34"><defs><style>.a,.b{fill:none;stroke-width:3px;}.a{stroke:#1eb9d5;stroke-linecap:round;stroke-linejoin:round;}.b{stroke:#ffe161;stroke-miterlimit:10;}</style></defs><title>programmable-pic-1</title><path class="a" d="M217.44,159V95.05a6.15,6.15,0,0,0-6.24-6H198.62l-2.2,5H177.88l-1.83-5H163.39a6.15,6.15,0,0,0-6.24,6v9.54c-1.78-1-3.61-2.17-5.51-3.39V89.46a6.15,6.15,0,0,1,6.24-6H217a6.14,6.14,0,0,1,6.24,6V200.05a6.14,6.14,0,0,1-6.24,6H157.88a6.15,6.15,0,0,1-6.24-6V150.69c1.81-.08,3.65-.19,5.51-.34V193.4a6.15,6.15,0,0,0,6.24,6H211.2a6.15,6.15,0,0,0,6.24-6V173.46"/><path class="b" d="M99,91.94a228.68,228.68,0,0,1,16.64-20.26,215.4,215.4,0,0,0,36,29.52l5.51,3.39c18.68,11,30.46,12.61,30.46,12.61a327.52,327.52,0,0,0-11.74,30.58c-4.34-.3-8.49-.76-12.51-1.32"/><path class="b" d="M108.73,128.52a151.65,151.65,0,0,0,42.91,15.88"/><path class="b" d="M157.15,145.47q3,.54,6.21,1c-.15,1.1-.31,2.22-.45,3.36q-2.92.31-5.76.53l-5.51.34c-53.74,2.44-84.33-20.61-84.33-20.61s10-25.67,22.11-44.47C92.71,87.88,95.91,90,99,91.94c-7.88,10.66-13.45,19.57-13.45,19.57a77.05,77.05,0,0,0,10.23,8.72"/><path class="b" d="M92.92,118a67.67,67.67,0,0,1-7.34-6.52S91.15,102.6,99,91.94"/><path class="b" d="M163.36,146.46q-3.17-.45-6.21-1l-5.51-1.07A151.21,151.21,0,0,1,108,128.08"/></svg>