<svg xmlns="http://www.w3.org/2000/svg" viewBox="0 0 295.03 266.34"><defs><style>.a,.b{fill:none;stroke-width:3px;}.a{stroke:#ffe161;stroke-miterlimit:10;}.b{stroke:#1eb9d5;stroke-linecap:round;stroke-linejoin:round;}</style></defs><title>programmable-pic-1</title><path class="a" d="M127.58,67.22a32.63,32.63,0,0,0-13.75,8.55,31,31,0,0,0-8.35,13.54"/><path class="a" d="M123.66,52.57c-6.38,2.09-13.41,6-20.43,13.06-6.86,6.86-10.66,13.6-12.64,19.7"/><path class="a" d="M105.48,89.31a31,31,0,0,1,8.35-13.54,32.63,32.63,0,0,1,13.75-8.55"/><path class="a" d="M118.8,34.41c-9,2.76-19,8.2-29,18.22C80.06,62.32,74.82,71.84,72.21,80.4"/><path class="a" d="M90.59,85.33c2-6.1,5.78-12.84,12.64-19.7,7-7,14-11,20.43-13.06"/><path class="b" d="M123.33,101.2V89.46a6.14,6.14,0,0,1,6.24-6h59.09a6.15,6.15,0,0,1,6.24,6V200.05a6.15,6.15,0,0,1-6.24,6H129.57a6.14,6.14,0,0,1-6.24-6V101.2Z"/><path class="b" d="M189.13,159V95.05a6.15,6.15,0,0,0-6.24-6H170.31l-2.2,5H149.57l-1.83-5H135.08a6.15,6.15,0,0,0-6.24,6V193.4a6.15,6.15,0,0,0,6.24,6h47.81a6.15,6.15,0,0,0,6.24-6V173.46"/></svg>