<svg id="Layer_1" data-name="Layer 1" xmlns="http://www.w3.org/2000/svg" viewBox="0 0 130 130"><defs><style>.cls-1,.cls-2,.cls-5{fill:none;stroke-linecap:round;stroke-miterlimit:10;stroke-width:1.5px;}.cls-1,.cls-5{stroke:#1eb9d5;}.cls-2{stroke:#ffe161;}.cls-3{fill:#ffe161;}.cls-4{fill:#1eb9d5;}.cls-5{stroke-dasharray:5 5;}.cls-6{fill:#fff;}</style></defs><path class="cls-1" d="M60.68,35.34a16.21,16.21,0,0,1,23.5,14.48,16.22,16.22,0,1,1-27.13-12"/><path class="cls-2" d="M75.76,45.18a9.14,9.14,0,0,1,.78,1.49,8.65,8.65,0,1,1-3.92-4.36"/><path class="cls-3" d="M67.14,45.85l.16.4c.58-.23,1.68-.41,1.82-.08.06.15,0,.62-.11.66a3.61,3.61,0,0,0-1.42.14l1,2.33c1,0,2.19-.1,2.75,1.28a2.06,2.06,0,0,1-1.11,2.75l.2.5c0,.11,0,.18-.14.24S70,54.1,70,54l-.2-.49c-1.14.43-2.17.35-2.28.08s0-.64.13-.69a4,4,0,0,0,1.86-.11l-1.06-2.59c-1,0-2.13.07-2.66-1.22a2,2,0,0,1,1.13-2.54L66.74,46c0-.11,0-.19.13-.24S67.09,45.74,67.14,45.85Zm-.43,2.79c.23.57.75.67,1.37.67l-.87-2.15A1.12,1.12,0,0,0,66.71,48.64Zm3.17,3.94A1.29,1.29,0,0,0,70.39,51c-.26-.63-.83-.74-1.48-.76Z"/><circle class="cls-4" cx="72.18" cy="58.04" r="2.29"/><path class="cls-5" d="M72.09,58.77C66,68,54.62,69.3,50.11,64.66c-4.84-5-4.5-12.07,1.84-17.77"/><path class="cls-6" d="M30.66,87.65c.35-.06.75-.11,1.21-.15s.88-.06,1.26-.06a5.28,5.28,0,0,1,1.21.14,2.83,2.83,0,0,1,1,.46,2.27,2.27,0,0,1,.7.83A3,3,0,0,1,35.69,92a3,3,0,0,1-1.58,1l.67.51,2.41,3.84H35.85l-2.68-4.19-1.36-.2v4.39H30.66Zm2.49.79h-.37l-.37,0-.34,0-.26,0V92.1h1.08a2.49,2.49,0,0,0,1.58-.47,1.71,1.71,0,0,0,.63-1.47,1.59,1.59,0,0,0-.52-1.23A2,2,0,0,0,33.15,88.44Z"/><path class="cls-6" d="M43.2,96.71a3.23,3.23,0,0,1-1.05.53,4.87,4.87,0,0,1-1.34.19,3.38,3.38,0,0,1-1.37-.26,2.41,2.41,0,0,1-1-.73,3.15,3.15,0,0,1-.55-1.15,5.69,5.69,0,0,1-.18-1.49,4.06,4.06,0,0,1,.79-2.71,2.79,2.79,0,0,1,2.26-.93,4.31,4.31,0,0,1,.94.11,2,2,0,0,1,.85.39,2.07,2.07,0,0,1,.61.83,3.61,3.61,0,0,1,.23,1.4,6.33,6.33,0,0,1-.08,1H38.9A4.46,4.46,0,0,0,39,95a2.21,2.21,0,0,0,.39.8,1.86,1.86,0,0,0,.69.5,2.93,2.93,0,0,0,2,0,2,2,0,0,0,.71-.39Zm-2.39-5.58a2,2,0,0,0-1.31.43A2.18,2.18,0,0,0,38.91,93h3.44a2.1,2.1,0,0,0-.4-1.47A1.48,1.48,0,0,0,40.81,91.13Z"/><path class="cls-6" d="M49.25,97.26V93.34a9.05,9.05,0,0,0,0-1,2.3,2.3,0,0,0-.19-.68.86.86,0,0,0-.4-.42,1.42,1.42,0,0,0-.67-.14,1.51,1.51,0,0,0-1.06.39,2.06,2.06,0,0,0-.59,1v4.77H45.18V90.33H46l.21.84h0a3.34,3.34,0,0,1,.87-.72,2.53,2.53,0,0,1,1.28-.29,2.07,2.07,0,0,1,1.09.26,1.7,1.7,0,0,1,.66.89,2.22,2.22,0,0,1,.88-.84,2.54,2.54,0,0,1,1.27-.31,3.37,3.37,0,0,1,1,.13,1.44,1.44,0,0,1,.67.47,2.08,2.08,0,0,1,.38.9,7.17,7.17,0,0,1,.12,1.44v4.16H53.31V93.09a7.17,7.17,0,0,0-.05-.87,1.69,1.69,0,0,0-.19-.61.9.9,0,0,0-.41-.36,1.58,1.58,0,0,0-.67-.12,1.46,1.46,0,0,0-1.08.39,2.33,2.33,0,0,0-.56,1.11v4.63Z"/><path class="cls-6" d="M56.44,88.22a.8.8,0,0,1,.22-.55.73.73,0,0,1,.55-.23.81.81,0,0,1,.57.23.76.76,0,0,1,.23.55.7.7,0,0,1-.23.53.83.83,0,0,1-.57.2.75.75,0,0,1-.55-.2A.73.73,0,0,1,56.44,88.22Zm.24,2.11h1.11v6.93H56.68Z"/><path class="cls-6" d="M59.25,90.33h1.08V89l1.11-.31v1.69h1.88v1H61.44v3.84a2.1,2.1,0,0,0,.18,1,.65.65,0,0,0,.61.3,2.15,2.15,0,0,0,.61-.08c.17,0,.35-.12.55-.2l.25.85a4.64,4.64,0,0,1-.82.29,4.06,4.06,0,0,1-1,.11,1.39,1.39,0,0,1-1.2-.48,2.82,2.82,0,0,1-.34-1.6v-4H59.25Z"/><path class="cls-6" d="M64,90.33H65V89l1.11-.31v1.69H68v1H66.14v3.84a2.1,2.1,0,0,0,.18,1,.65.65,0,0,0,.61.3,2.15,2.15,0,0,0,.61-.08c.17,0,.35-.12.56-.2l.25.85a5,5,0,0,1-.82.29,4.21,4.21,0,0,1-1,.11A1.37,1.37,0,0,1,65.38,97a2.81,2.81,0,0,1-.35-1.6v-4H64Z"/><path class="cls-6" d="M69.46,90.84a4,4,0,0,1,1.22-.47,7,7,0,0,1,1.47-.15,2.84,2.84,0,0,1,1.15.19,1.55,1.55,0,0,1,.67.51,1.91,1.91,0,0,1,.31.68,3.81,3.81,0,0,1,.07.75c0,.56,0,1.1,0,1.63s0,1,0,1.49,0,.67,0,1a5.17,5.17,0,0,0,.15.85h-.82l-.29-1h-.07a1.79,1.79,0,0,1-.31.38,1.54,1.54,0,0,1-.45.33,2.65,2.65,0,0,1-1.4.34,2.49,2.49,0,0,1-.83-.13,2,2,0,0,1-.65-.4,1.71,1.71,0,0,1-.44-.62,2.19,2.19,0,0,1,.09-1.84,1.83,1.83,0,0,1,.7-.65,3.52,3.52,0,0,1,1.08-.34,8.52,8.52,0,0,1,1.39-.11h.39l.38,0a7,7,0,0,0,0-.75A1.47,1.47,0,0,0,73,91.49a1.57,1.57,0,0,0-1.11-.3l-.5,0-.56.1-.54.16a2.35,2.35,0,0,0-.45.21Zm2,5.56a2.19,2.19,0,0,0,.7-.1,2.38,2.38,0,0,0,.53-.26,1.75,1.75,0,0,0,.36-.36,1.63,1.63,0,0,0,.22-.37V94.16l-.4,0h-.39a5.75,5.75,0,0,0-.84.05,2.53,2.53,0,0,0-.72.18,1.1,1.1,0,0,0-.5.36.84.84,0,0,0-.19.57,1,1,0,0,0,.35.8A1.25,1.25,0,0,0,71.42,96.4Z"/><path class="cls-6" d="M80.9,97.26v-4a3.49,3.49,0,0,0-.31-1.63,1.2,1.2,0,0,0-1.15-.55,1.8,1.8,0,0,0-1.21.4,2,2,0,0,0-.67,1v4.74H76.45V90.33h.77l.21.84h.06a2.57,2.57,0,0,1,.89-.72,2.94,2.94,0,0,1,1.34-.29,3.73,3.73,0,0,1,1,.13,1.56,1.56,0,0,1,.71.47,2.12,2.12,0,0,1,.43.89A5.66,5.66,0,0,1,82,93.07v4.19Z"/><path class="cls-6" d="M88.76,96.81a3.07,3.07,0,0,1-1,.46,4.27,4.27,0,0,1-1.19.16,3.23,3.23,0,0,1-1.36-.26,2.26,2.26,0,0,1-.91-.73,3.11,3.11,0,0,1-.52-1.15,6.88,6.88,0,0,1-.16-1.49,4.1,4.1,0,0,1,.78-2.7,2.73,2.73,0,0,1,2.24-.94,5.2,5.2,0,0,1,1.13.11,3,3,0,0,1,.83.29l-.31,1a3.29,3.29,0,0,0-1.54-.39c-1.32,0-2,.89-2,2.67a4.65,4.65,0,0,0,.1,1,2.58,2.58,0,0,0,.35.85,1.82,1.82,0,0,0,.64.59,2,2,0,0,0,1,.22,2.54,2.54,0,0,0,.9-.15A2.7,2.7,0,0,0,88.4,96Z"/><path class="cls-6" d="M95,96.71a3.18,3.18,0,0,1-1,.53,4.93,4.93,0,0,1-1.34.19,3.43,3.43,0,0,1-1.38-.26,2.45,2.45,0,0,1-1-.73,3.17,3.17,0,0,1-.56-1.15,5.69,5.69,0,0,1-.18-1.49,4.06,4.06,0,0,1,.79-2.71,2.81,2.81,0,0,1,2.26-.93,4.4,4.4,0,0,1,1,.11,2,2,0,0,1,.84.39,2.07,2.07,0,0,1,.61.83,3.42,3.42,0,0,1,.24,1.4,6.41,6.41,0,0,1-.09,1H90.73A4,4,0,0,0,90.86,95a2.06,2.06,0,0,0,.39.8,1.75,1.75,0,0,0,.68.5,3,3,0,0,0,2,0,2,2,0,0,0,.71-.39Zm-2.38-5.58a1.93,1.93,0,0,0-1.31.43A2.14,2.14,0,0,0,90.75,93h3.44a2.1,2.1,0,0,0-.41-1.47A1.44,1.44,0,0,0,92.65,91.13Z"/><path class="cls-6" d="M100.07,95.38a.9.9,0,0,0-.25-.66,2.35,2.35,0,0,0-.62-.39c-.24-.11-.51-.21-.8-.31a3.73,3.73,0,0,1-.81-.37,2.17,2.17,0,0,1-.62-.59,1.72,1.72,0,0,1-.24-1,1.76,1.76,0,0,1,.56-1.46,2.44,2.44,0,0,1,1.58-.47,5.55,5.55,0,0,1,1.26.13,5,5,0,0,1,.88.31l-.26.92a4.88,4.88,0,0,0-.77-.27,3.74,3.74,0,0,0-1-.12,1.52,1.52,0,0,0-.89.21.84.84,0,0,0-.29.72.69.69,0,0,0,.25.56,2.47,2.47,0,0,0,.62.36c.25.11.52.21.81.32a3.15,3.15,0,0,1,.8.4,2.07,2.07,0,0,1,.62.63,1.86,1.86,0,0,1,.25,1,2.31,2.31,0,0,1-.15.83,1.69,1.69,0,0,1-.45.66,2.13,2.13,0,0,1-.75.44,3.17,3.17,0,0,1-1.07.16,5.21,5.21,0,0,1-1.34-.15,4.64,4.64,0,0,1-.93-.36l.33-1a4.55,4.55,0,0,0,.83.34,3.74,3.74,0,0,0,1,.15,1.86,1.86,0,0,0,1-.24A.9.9,0,0,0,100.07,95.38Z"/></svg>