<?xml version="1.0" encoding="utf-8"?>
<!-- Generator: Adobe Illustrator 23.0.4, SVG Export Plug-In . SVG Version: 6.00 Build 0)  -->
<svg version="1.1" id="Layer_1" xmlns="http://www.w3.org/2000/svg" xmlns:xlink="http://www.w3.org/1999/xlink" x="0px" y="0px"
	 viewBox="0 0 450 450" style="enable-background:new 0 0 450 450;" xml:space="preserve">
<style type="text/css">
	.st0{fill:none;stroke:#1EB9D5;stroke-width:6;stroke-miterlimit:10;}
	.st1{fill:none;stroke:#334054;stroke-width:6;stroke-miterlimit:10;}
	.st2{fill:none;stroke:#F16349;stroke-width:6;stroke-miterlimit:10;}
</style>
<g id="Layer_4_copy">
	<g>
		<path class="st0" d="M182.1,310.3H169c-4.8,0-8.7-3.8-8.7-8.4v-68.6v-68.8v-16.3c0-4.6,3.9-8.4,8.7-8.4h82.3
			c4.8,0,8.7,3.8,8.7,8.4v42.1"/>
		<path class="st0" d="M260,261v40.9c0,4.6-3.9,8.4-8.7,8.4h-49.6"/>
		<path class="st1" d="M248.2,188.7v-27.8c0-4.4-3.5-7.9-7.9-7.9h-15.9l-2.8,6.5h-23.5l-2.3-6.5h-16c-4.4,0-7.9,3.5-7.9,7.9v12.5
			V193"/>
		<path class="st1" d="M171.9,210.7v78.7c0,4.4,3.5,7.9,7.9,7.9h60.5c4.4,0,7.9-3.5,7.9-7.9v-26v-2.8"/>
		<path class="st2" d="M245.2,259.2h44.5v-16c0-6.2-4.5-11.2-10-11.2h-51.3c-5.5,0-10,5-10,11.2v16"/>
		<circle class="st2" cx="254" cy="203.4" r="15.6"/>
	</g>
</g>
<g id="Layer_4">
</g>
<g id="Layer_6">
</g>
<g id="Layer_10">
</g>
<g id="Layer_5">
</g>
<g id="Layer_8">
</g>
<g id="Layer_9">
</g>
<g id="Layer_3">
</g>
</svg>
