<svg xmlns="http://www.w3.org/2000/svg" viewBox="0 0 450 450"><defs><style>.a{fill:#1fbad6;}.b,.c,.d,.e{fill:none;stroke-miterlimit:10;stroke-width:6px;}.b,.e{stroke:#334054;}.b,.c{fill-rule:evenodd;}.c{stroke:#ff6346;}.d{stroke:#1eb9d5;}</style></defs><title>rocket</title><path class="a" d="M278.73,43a1.81,1.81,0,1,1-1.8-1.8A1.81,1.81,0,0,1,278.73,43Z"/><path class="a" d="M240,80.61a1.81,1.81,0,1,1-1.81-1.8A1.81,1.81,0,0,1,240,80.61Z"/><path class="a" d="M278.73,80.61a1.81,1.81,0,1,1-1.8-1.8A1.81,1.81,0,0,1,278.73,80.61Z"/><path class="a" d="M317.45,80.61a1.8,1.8,0,1,1-1.8-1.8A1.8,1.8,0,0,1,317.45,80.61Z"/><path class="a" d="M201.29,115.49a1.81,1.81,0,1,1-1.81-1.8A1.81,1.81,0,0,1,201.29,115.49Z"/><path class="a" d="M317.45,115.49a1.8,1.8,0,1,1-1.8-1.8A1.8,1.8,0,0,1,317.45,115.49Z"/><path class="a" d="M356.46,43a1.81,1.81,0,1,1-1.81-1.8A1.81,1.81,0,0,1,356.46,43Z"/><path class="a" d="M356.46,80.61a1.81,1.81,0,1,1-1.81-1.8A1.81,1.81,0,0,1,356.46,80.61Z"/><path class="a" d="M395.18,80.61a1.81,1.81,0,1,1-1.8-1.8A1.81,1.81,0,0,1,395.18,80.61Z"/><path class="a" d="M356.46,115.49a1.81,1.81,0,1,1-1.81-1.8A1.81,1.81,0,0,1,356.46,115.49Z"/><path class="a" d="M395.18,115.49a1.81,1.81,0,1,1-1.8-1.8A1.81,1.81,0,0,1,395.18,115.49Z"/><path class="a" d="M317.45,186.91a1.8,1.8,0,1,1-1.8-1.8A1.79,1.79,0,0,1,317.45,186.91Z"/><path class="a" d="M356.46,149.8a1.81,1.81,0,1,1-1.81-1.8A1.8,1.8,0,0,1,356.46,149.8Z"/><path class="a" d="M395.18,149.8a1.81,1.81,0,1,1-1.8-1.8A1.8,1.8,0,0,1,395.18,149.8Z"/><path class="a" d="M433.9,149.8a1.8,1.8,0,1,1-1.8-1.8A1.79,1.79,0,0,1,433.9,149.8Z"/><path class="a" d="M395.18,186.91a1.81,1.81,0,1,1-1.8-1.8A1.8,1.8,0,0,1,395.18,186.91Z"/><polyline class="b" points="138.73 264.72 103.17 283.47 143.76 324.06 164.32 290.31"/><path class="c" d="M103.91,353.57a64.59,64.59,0,0,1-12.23,21.52c-26,30.21-72.29,20.81-72.29,20.81a109.34,109.34,0,0,1,5.35-35.29c-5.91-2.43-14.36-8.35-14.36-8.35s10.16-2.4,16-6.75c6.85-5.07,15.13-19.41,38.22-26.73,21.09-6.69,46.17-1.13,46.17-1.13"/><circle class="d" cx="222.48" cy="205.59" r="32.25"/><path class="e" d="M248.73,277.89,214.3,323l-11.36-27.42c-10.72,8.47-17.92,13-17.92,13l-62.88-59.06a211.29,211.29,0,0,1,11.2-17.94L104.56,220.8l43.53-36.38,22.37,3c29.43-28.5,71.69-56,125.07-56,.92,51.42-24.72,94.43-51.52,125.2Z"/><line class="e" x1="249.91" y1="159.98" x2="284.17" y2="189.88"/></svg>