<?xml version="1.0" encoding="utf-8"?>
<!-- Generator: Adobe Illustrator 25.0.1, SVG Export Plug-In . SVG Version: 6.00 Build 0)  -->
<svg version="1.1" id="Layer_1" xmlns="http://www.w3.org/2000/svg" xmlns:xlink="http://www.w3.org/1999/xlink" x="0px" y="0px"
	 viewBox="0 0 450 450" style="enable-background:new 0 0 450 450;" xml:space="preserve">
<style type="text/css">
	.st0{fill:none;stroke:#FFE161;stroke-width:6;stroke-miterlimit:10;}
	.st1{fill:none;stroke:#FF6346;stroke-width:6;stroke-linecap:square;stroke-miterlimit:10;}
	.st2{fill:none;stroke:#1EB9D5;stroke-width:6;stroke-miterlimit:10;}
</style>
<g id="Layer_3">
	<path class="st0" d="M286.4,157c4.8,16.8,5.5,36,5.5,53.8"/>
	<path class="st0" d="M158.1,210.7c0-44.8,4.9-99.4,66.9-99.4c19.4,0,33.2,5.3,43,14"/>
	<path class="st1" d="M253.7,263.2c0-15.9-12.9-28.7-28.7-28.7s-28.7,12.9-28.7,28.7c0,10.7,5.9,20.5,15.4,25.5v30.2h26.6v-30.2
		C247.8,283.7,253.8,273.9,253.7,263.2z"/>
	<polyline class="st2" points="131.4,269.5 131.4,211.5 318.6,211.5 318.6,338.7 131.4,338.7 131.4,307.5 	"/>
</g>
</svg>
