<?xml version="1.0" encoding="utf-8"?>
<!-- Generator: Adobe Illustrator 25.0.1, SVG Export Plug-In . SVG Version: 6.00 Build 0)  -->
<svg version="1.1" id="Layer_1" xmlns="http://www.w3.org/2000/svg" xmlns:xlink="http://www.w3.org/1999/xlink" x="0px" y="0px"
	 viewBox="0 0 546.6 389.5" style="enable-background:new 0 0 546.6 389.5;" xml:space="preserve">
<style type="text/css">
	.st0{fill:#283142;}
	.st1{fill:url(#SVGID_1_);}
	.st2{fill:none;stroke:#1EB9D5;stroke-width:2;stroke-miterlimit:10;}
	.st3{fill:none;stroke:#FFE161;stroke-width:2;stroke-miterlimit:10;}
	.st4{fill:#FF6346;}
	.st5{fill:#1EB9D5;}
</style>
<g id="Layer_3">
	<path class="st0" d="M25.7,236.3c5,39.2,83,41.8,146.7,25.7c63.7-16.1,66.1-73.9,65.6-99.3s-13-67.1-79.3-66.9
		C71.1,96,17.7,173.2,25.7,236.3z"/>
	
		<linearGradient id="SVGID_1_" gradientUnits="userSpaceOnUse" x1="255.6217" y1="65.4538" x2="120.7" y2="65.4538" gradientTransform="matrix(1 0 0 -1 0 162)">
		<stop  offset="0" style="stop-color:#E22D6C"/>
		<stop  offset="1" style="stop-color:#FF6346"/>
	</linearGradient>
	<path class="st1" d="M238.9,146.1c10-19.8,42.7-94-24.9-98.9c-59.8-4.3-85.4,59.3-93.3,87.4l14.4,0.4c6.9-23.2,28.9-76.4,74.4-75.6
		c50.6,0.9,24.1,61.6,16.5,76.8l8,0.6L238.9,146.1z"/>
	<path class="st2" d="M144.3,255.2H44.6c0,0-1.2-40,15.8-70.5s42.9-48.1,42.9-48.1h130.6c-1.6,23-7.5,45.4-17.4,66.2
		c-15.4,31.7-41.3,52.4-41.3,52.4h-17.8"/>
	<path class="st2" d="M234.1,136.1l12.2,27.9c0,0,5,23.2-11.7,56.2s-47,62.4-47,62.4H57l-7.7-12.9"/>
	<path class="st3" d="M293.6,238.5c4.6,21.2,25.5,34.7,46.8,30.1c21.2-4.6,34.7-25.5,30.1-46.8c-1.7-7.9-5.9-15.2-11.9-20.7l39-70.5
		l-7-3.8c-9.6-5.2-21.6-1.7-26.9,7.9l0,0l2.9,12.1l-12.6,5.8l7.7,17.3l-18.8,3l-9.6,18c-20.1-0.6-37.3,14-40.1,33.9"/>
	<polyline class="st3" points="363.4,206.1 400.5,139.1 398,130.6 	"/>
	<path class="st3" d="M296.5,246.8c4.5,21.2,25.4,34.8,46.6,30.3s34.8-25.4,30.3-46.6c-0.6-2.8-1.5-5.6-2.7-8.2"/>
	<path class="st3" d="M324.9,255.3c-6.4,0.1-11.7-5-11.8-11.4s5-11.7,11.4-11.8c6.4-0.1,11.7,5,11.8,11.4c0,2.1-0.5,4.1-1.5,5.9"/>
	<path class="st3" d="M320.8,254.6c-3.2-5.5-1.4-12.6,4.2-15.9c2.9-1.7,6.3-2,9.4-1"/>
	<line class="st2" x1="175.2" y1="255.2" x2="187.6" y2="282.5"/>
	<path class="st2" d="M134.2,136.5c6.9-23.2,26.9-72.2,72.5-71.4c41.2,0.7,32.9,37.6,24.4,59.5"/>
	<path class="st2" d="M119.8,136c7.9-28.1,31.6-87.5,91.3-83.1c67.6,4.9,37.8,73.8,27.7,93.6"/>
	<path class="st3" d="M131.9,211.5L131.9,211.5c-3.6-0.2-6.3-3.4-6.1-7c0-0.7,0.2-1.4,0.5-2l8.8-21.9c1.1-2.6,3.7-4.3,6.5-4.1l0,0
		c3.6,0.2,6.3,3.4,6.1,7c0,0.7-0.2,1.4-0.5,2l-8.8,21.9C137.4,210,134.7,211.7,131.9,211.5z"/>
	<polygon class="st4" points="114.7,89.9 127.7,114.5 151.4,127.9 127.7,141.4 114.7,166 101.8,141.4 78.1,127.9 101.8,114.5 	"/>
	<polygon class="st4" points="53.9,67.3 59,77 68.4,82.3 59,87.7 53.9,97.4 48.8,87.7 39.5,82.3 48.8,77 	"/>
	<polygon class="st4" points="91.7,13.3 94.8,19.2 100.5,22.5 94.8,25.7 91.7,31.6 88.6,25.7 82.8,22.5 88.6,19.2 	"/>
	<path class="st5" d="M466.2,252.5c-0.3,0.5-0.5,1.1-0.8,1.6C465.7,253.5,465.9,253,466.2,252.5z"/>
	<path class="st5" d="M465.4,254c-1.2,2.3-2.4,4.5-3.6,6.8C463,258.6,464.2,256.3,465.4,254z"/>
	<path class="st5" d="M449.3,280.6c-0.6,0.9-1.2,1.7-1.8,2.5C448.1,282.3,448.7,281.4,449.3,280.6z"/>
	<path class="st5" d="M490.2,139.8c0.1,1.3,0.1,2.5,0.2,3.8C490.4,142.3,490.3,141.1,490.2,139.8z"/>
	<path class="st5" d="M490,135.9c0.1,1.3,0.2,2.6,0.2,3.9C490.2,138.5,490.1,137.2,490,135.9z"/>
	<path class="st5" d="M488.4,120.4c0.2,1.3,0.3,2.6,0.5,3.8C488.7,122.9,488.6,121.7,488.4,120.4z"/>
	<path class="st5" d="M487.2,112.6c0.2,1.3,0.4,2.5,0.6,3.8C487.6,115.2,487.4,113.9,487.2,112.6z"/>
	<path class="st5" d="M485.7,104.9c0.3,1.3,0.6,2.6,0.8,3.9C486.2,107.5,485.9,106.2,485.7,104.9z"/>
	<path class="st5" d="M484.8,101.1c0.3,1.3,0.5,2.5,0.8,3.8C485.4,103.6,485.1,102.3,484.8,101.1z"/>
	<path class="st5" d="M301,371.7c1.8-0.2,3.5-0.5,5.3-0.8C304.5,371.2,302.8,371.5,301,371.7z"/>
	<path class="st5" d="M291.9,372.8c1.8-0.2,3.5-0.3,5.3-0.5C295.4,372.4,293.6,372.6,291.9,372.8z"/>
	<path class="st5" d="M257.6,373.1c1.1,0.1,2.3,0.2,3.4,0.2C259.9,373.3,258.8,373.2,257.6,373.1z"/>
	<path class="st5" d="M252.1,372.7c1.8,0.2,3.7,0.3,5.5,0.4C255.8,373,253.9,372.9,252.1,372.7z"/>
	<path class="st5" d="M248.2,372.2c1.3,0.1,2.6,0.3,3.9,0.5C250.8,372.5,249.5,372.4,248.2,372.2z"/>
	<path class="st5" d="M243.2,371.6c1.6,0.2,3.3,0.4,5,0.6C246.5,372,244.9,371.8,243.2,371.6z"/>
	<path class="st5" d="M101.4,283.3c0.4,1.3,1,2.6,1.8,3.7c55,76.3,154,106.6,243,73.4l1.2-0.4l1.1-0.4l3.4-1.4l1.2-0.5l1.1-0.5
		l2.2-1l1.2-0.5l1.2-0.5l1.1-0.5l1.1-0.5l1.1-0.5l1.2-0.5l1.1-0.5l1.1-0.5l2.2-1.1l1.1-0.6l1.1-0.6l1.1-0.6l1-0.5l1.2-0.6l1.1-0.6
		l1.1-0.6l1.1-0.6l2.1-1.2l1.1-0.6l1.1-0.6l1-0.6l1-0.6l1.1-0.7l2.2-1.3l2-1.3l2.1-1.4l1-0.7l1-0.7c0.3-0.2,0.6-0.4,1-0.6
		s0.6-0.4,5-3.6l1-0.8l2-1.5c0.3-0.2,0.6-0.4,1.9-1.4c0.3-0.2,0.6-0.4,2.9-2.3l0.9-0.8l1.9-1.5l1-0.8c0.3-0.2,0.6-0.5,0.9-0.8
		l0.9-0.8l0.9-0.8l2.8-2.5c0.3-0.2,0.5-0.5,0.9-0.8l0.9-0.8l0.9-0.9l0.9-0.8l0.9-0.8l1.7-1.6l0.9-0.9l0.9-0.9l0.8-0.8
		c0.8-0.8,1.7-1.7,2.5-2.6l0.8-0.9l0.8-0.9c0.8-0.9,1.6-1.7,2.5-2.6c0.3-0.3,0.5-0.6,0.8-0.9l0.8-0.9
		c51.8-57.4,71.3-139.5,48.3-214.7c-1.8-6.2-8.3-9.7-14.5-7.9c-0.8,0.2-1.5,0.5-2.2,0.9c-5.2,2.9-7.7,9-6,14.6
		C480.1,167,457.7,246.9,399,301c-1.1,0.9-2.1,1.9-9.4,7.8c-0.6,0.5-1.3,1-18.7,12.9c-0.3,0.2-0.6,0.4-8.6,4.9l-1,0.5
		c-0.4,0.2-0.7,0.4-8.9,4.5c-0.3,0.2-0.7,0.3-19.7,7.9c-0.8,0.3-1.6,0.5-9,2.8c-1.7,0.5-3.3,0.9-9.2,2.4
		c-68.1,15.7-139.2-8.1-184-61.7L101.4,283.3z"/>
	<path class="st5" d="M213,365c1.3,0.4,2.6,0.8,4,1.1C215.6,365.8,214.3,365.4,213,365z"/>
	<path class="st5" d="M208.1,363.5c-1.2-0.4-2.4-0.8-3.7-1.2C205.7,362.7,206.9,363.1,208.1,363.5z"/>
	<path class="st5" d="M188.1,355.9c2.4,1,4.8,2,7.2,3C192.9,357.9,190.5,356.9,188.1,355.9z"/>
	<path class="st5" d="M184.6,354.3c1.2,0.5,2.3,1.1,3.5,1.6C187,355.4,185.8,354.8,184.6,354.3z"/>
	<path class="st5" d="M172.2,348c1.4,0.8,2.8,1.5,4.1,2.2C174.9,349.4,173.5,348.7,172.2,348z"/>
	<path class="st5" d="M156.9,338.7c1.3,0.8,2.5,1.7,3.8,2.5C159.4,340.3,158.1,339.5,156.9,338.7z"/>
	<path class="st5" d="M145.9,330.9c1.2,0.9,2.4,1.8,3.6,2.6C148.3,332.6,147.1,331.8,145.9,330.9z"/>
	<path class="st5" d="M122.7,310.2c1,1,1.9,2,2.9,3C124.7,312.3,123.7,311.2,122.7,310.2z"/>
	<path class="st5" d="M110.3,296.2c1,1.2,1.9,2.4,2.9,3.5C112.2,298.5,111.3,297.4,110.3,296.2z"/>
	<path class="st5" d="M104.6,288.8c0.9,1.3,1.9,2.5,2.8,3.7C106.5,291.3,105.5,290,104.6,288.8z"/>
</g>
</svg>
