<?xml version="1.0" encoding="utf-8"?>
<!-- Generator: Adobe Illustrator 25.0.1, SVG Export Plug-In . SVG Version: 6.00 Build 0)  -->
<svg version="1.1" id="Layer_1" xmlns="http://www.w3.org/2000/svg" xmlns:xlink="http://www.w3.org/1999/xlink" x="0px" y="0px"
	 viewBox="0 0 584.6 544.5" style="enable-background:new 0 0 584.6 544.5;" xml:space="preserve">
<style type="text/css">
	.st0{fill:#283142;}
	.st1{fill:url(#SVGID_1_);}
	.st2{fill:none;stroke:#1EB9D5;stroke-width:2;stroke-miterlimit:10;}
	.st3{fill:none;stroke:#FFE161;stroke-width:2;stroke-miterlimit:10;}
	.st4{fill:#FF6346;}
	.st5{fill:#1EB9D5;}
</style>
<g id="Layer_3">
	<path class="st0" d="M63.7,338.3c5,39.2,83,41.8,146.7,25.7c63.7-16.1,66.1-73.9,65.6-99.3c-0.5-25.4-13-67.1-79.3-66.9
		C109.1,198,55.7,275.2,63.7,338.3z"/>
	
		<linearGradient id="SVGID_1_" gradientUnits="userSpaceOnUse" x1="293.6216" y1="376.5834" x2="158.7" y2="376.5834" gradientTransform="matrix(1 0 0 1 0 -178)">
		<stop  offset="0" style="stop-color:#E22D6C"/>
		<stop  offset="1" style="stop-color:#FF6346"/>
	</linearGradient>
	<path class="st1" d="M276.9,248.1c10-19.8,42.7-94-24.9-98.9c-59.8-4.3-85.4,59.3-93.3,87.4l14.4,0.4c6.9-23.2,28.9-76.4,74.4-75.6
		c50.6,0.9,24.1,61.6,16.5,76.8l8,0.6L276.9,248.1z"/>
	<path class="st2" d="M182.3,357.2H82.6c0,0-1.2-40,15.8-70.5s42.9-48.1,42.9-48.1h130.6c-1.6,23-7.5,45.4-17.4,66.2
		c-15.4,31.7-41.3,52.4-41.3,52.4h-17.8"/>
	<path class="st2" d="M272.1,238.1l12.2,27.9c0,0,5,23.2-11.7,56.2s-47,62.4-47,62.4H95l-7.7-12.9"/>
	<path class="st3" d="M331.6,340.5c4.6,21.2,25.5,34.7,46.8,30.1c21.2-4.6,34.7-25.5,30.1-46.8c-1.7-7.9-5.9-15.2-11.9-20.7l39-70.5
		l-7-3.8c-9.6-5.2-21.6-1.7-26.9,7.9v0l2.9,12.1l-12.6,5.8l7.7,17.3l-18.8,3l-9.6,18c-20.1-0.6-37.3,14-40.1,33.9"/>
	<polyline class="st3" points="401.4,308.1 438.5,241.1 436,232.6 	"/>
	<path class="st3" d="M334.5,348.8c4.5,21.2,25.4,34.8,46.6,30.3s34.8-25.4,30.3-46.6c-0.6-2.8-1.5-5.6-2.7-8.2"/>
	<path class="st3" d="M362.9,357.3c-6.4,0.1-11.7-5-11.8-11.4s5-11.7,11.4-11.8c6.4-0.1,11.7,5,11.8,11.4c0,2.1-0.5,4.1-1.5,5.9"/>
	<path class="st3" d="M358.8,356.6c-3.2-5.5-1.4-12.6,4.2-15.9c2.9-1.7,6.3-2,9.4-1"/>
	<line class="st2" x1="213.2" y1="357.2" x2="225.6" y2="384.5"/>
	<path class="st2" d="M172.2,238.5c6.9-23.2,26.9-72.2,72.5-71.4c41.2,0.7,32.9,37.6,24.4,59.5"/>
	<path class="st2" d="M157.8,238c7.9-28.1,31.6-87.5,91.3-83.1c67.6,4.9,37.8,73.8,27.7,93.6"/>
	<path class="st3" d="M169.9,313.5L169.9,313.5c-3.6-0.2-6.3-3.4-6.1-7c0-0.7,0.2-1.4,0.5-2l8.8-21.9c1.1-2.6,3.7-4.3,6.5-4.1l0,0
		c3.6,0.2,6.3,3.4,6.1,7c0,0.7-0.2,1.4-0.5,2l-8.8,21.9C175.4,312,172.7,313.7,169.9,313.5z"/>
	<polygon class="st4" points="152.7,191.9 165.7,216.5 189.4,229.9 165.7,243.4 152.7,268 139.8,243.4 116.1,229.9 139.8,216.5 	"/>
	<polygon class="st4" points="91.9,169.3 97,179 106.4,184.3 97,189.7 91.9,199.4 86.8,189.7 77.5,184.3 86.8,179 	"/>
	<polygon class="st4" points="129.7,115.3 132.8,121.2 138.5,124.5 132.8,127.7 129.7,133.6 126.6,127.7 120.8,124.5 126.6,121.2 	
		"/>
	<path class="st5" d="M504.2,354.5c-0.3,0.5-0.5,1.1-0.8,1.6C503.7,355.5,503.9,355,504.2,354.5z"/>
	<path class="st5" d="M503.4,356c-1.2,2.3-2.4,4.5-3.6,6.8C501,360.6,502.2,358.3,503.4,356z"/>
	<path class="st5" d="M487.3,382.6c-0.6,0.9-1.2,1.7-1.8,2.5C486.1,384.3,486.7,383.4,487.3,382.6z"/>
	<path class="st5" d="M528.2,241.8c0.1,1.3,0.1,2.5,0.2,3.8C528.4,244.3,528.3,243.1,528.2,241.8z"/>
	<path class="st5" d="M528,237.9c0.1,1.3,0.2,2.6,0.2,3.9C528.2,240.5,528.1,239.2,528,237.9z"/>
	<path class="st5" d="M526.4,222.4c0.2,1.3,0.3,2.6,0.5,3.8C526.7,224.9,526.6,223.7,526.4,222.4z"/>
	<path class="st5" d="M525.2,214.6c0.2,1.3,0.4,2.5,0.6,3.8C525.6,217.2,525.4,215.9,525.2,214.6z"/>
	<path class="st5" d="M523.7,206.9c0.3,1.3,0.6,2.6,0.8,3.9C524.2,209.5,523.9,208.2,523.7,206.9z"/>
	<path class="st5" d="M522.8,203.1c0.3,1.3,0.5,2.5,0.8,3.8C523.4,205.6,523.1,204.3,522.8,203.1z"/>
	<path class="st5" d="M339,473.7c1.8-0.2,3.5-0.5,5.3-0.8C342.5,473.2,340.8,473.5,339,473.7z"/>
	<path class="st5" d="M329.9,474.8c1.8-0.2,3.5-0.3,5.3-0.5C333.4,474.4,331.6,474.6,329.9,474.8z"/>
	<path class="st5" d="M295.6,475.1c1.1,0.1,2.3,0.2,3.4,0.2C297.9,475.3,296.8,475.2,295.6,475.1z"/>
	<path class="st5" d="M290.1,474.7c1.8,0.2,3.7,0.3,5.5,0.4C293.8,475,291.9,474.9,290.1,474.7z"/>
	<path class="st5" d="M286.2,474.2c1.3,0.1,2.6,0.3,3.9,0.5C288.8,474.5,287.5,474.4,286.2,474.2z"/>
	<path class="st5" d="M281.2,473.6c1.6,0.2,3.3,0.4,5,0.6C284.5,474,282.9,473.8,281.2,473.6z"/>
	<path class="st5" d="M139.4,385.3c0.4,1.3,1,2.6,1.8,3.7c55,76.3,154,106.6,243,73.4l1.2-0.4l1.1-0.4l3.4-1.4l1.2-0.5l1.1-0.5
		l2.2-1l1.2-0.5l1.2-0.5l1.1-0.5l1.1-0.5l1.1-0.5l1.2-0.5l1.1-0.5l1.1-0.5l2.2-1.1l1.1-0.6l1.1-0.6l1.1-0.6l1-0.5l1.2-0.6l1.1-0.6
		l1.1-0.6l1.1-0.6l2.1-1.2l1.1-0.6l1.1-0.6l1-0.6l1-0.6l1.1-0.7l2.2-1.3l2-1.3l2.1-1.4l1-0.7l1-0.7c0.3-0.2,0.6-0.4,1-0.6
		s0.6-0.4,5-3.6l1-0.8l2-1.5c0.3-0.2,0.6-0.4,1.9-1.4c0.3-0.2,0.6-0.4,2.9-2.3l0.9-0.8l1.9-1.5l1-0.8c0.3-0.2,0.6-0.5,0.9-0.8
		l0.9-0.8l0.9-0.8l2.8-2.5c0.3-0.2,0.5-0.5,0.9-0.8l0.9-0.8l0.9-0.9l0.9-0.8l0.9-0.8l1.7-1.6l0.9-0.9l0.9-0.9l0.8-0.8
		c0.8-0.8,1.7-1.7,2.5-2.6l0.8-0.9l0.8-0.9c0.8-0.9,1.6-1.7,2.5-2.6c0.3-0.3,0.5-0.6,0.8-0.9l0.8-0.9
		c51.8-57.4,71.3-139.5,48.3-214.7c-1.8-6.2-8.3-9.7-14.5-7.9c-0.8,0.2-1.5,0.5-2.2,0.9c-5.2,2.9-7.7,9-6,14.6
		C518.1,269,495.7,348.9,437,403c-1.1,0.9-2.1,1.9-9.4,7.8c-0.6,0.5-1.3,1-18.7,12.9c-0.3,0.2-0.6,0.4-8.6,4.9l-1,0.5
		c-0.4,0.2-0.7,0.4-8.9,4.5c-0.3,0.2-0.7,0.3-19.7,7.9c-0.8,0.3-1.6,0.5-9,2.8c-1.7,0.5-3.3,0.9-9.2,2.4
		c-68.1,15.7-139.2-8.1-184-61.7L139.4,385.3z"/>
	<path class="st5" d="M251,467c1.3,0.4,2.6,0.8,4,1.1C253.6,467.8,252.3,467.4,251,467z"/>
	<path class="st5" d="M246.1,465.5c-1.2-0.4-2.4-0.8-3.7-1.2C243.7,464.7,244.9,465.1,246.1,465.5z"/>
	<path class="st5" d="M226.1,457.9c2.4,1,4.8,2,7.2,3C230.9,459.9,228.5,458.9,226.1,457.9z"/>
	<path class="st5" d="M222.6,456.3c1.2,0.5,2.3,1.1,3.5,1.6C225,457.4,223.8,456.8,222.6,456.3z"/>
	<path class="st5" d="M210.2,450c1.4,0.8,2.8,1.5,4.1,2.2C212.9,451.4,211.5,450.7,210.2,450z"/>
	<path class="st5" d="M194.9,440.7c1.3,0.8,2.5,1.7,3.8,2.5C197.4,442.3,196.1,441.5,194.9,440.7z"/>
	<path class="st5" d="M183.9,432.9c1.2,0.9,2.4,1.8,3.6,2.6C186.3,434.6,185.1,433.8,183.9,432.9z"/>
	<path class="st5" d="M160.7,412.2c1,1,1.9,2,2.9,3C162.7,414.3,161.7,413.2,160.7,412.2z"/>
	<path class="st5" d="M148.3,398.2c1,1.2,1.9,2.4,2.9,3.5C150.2,400.5,149.3,399.4,148.3,398.2z"/>
	<path class="st5" d="M142.6,390.8c0.9,1.3,1.9,2.5,2.8,3.7C144.5,393.3,143.5,392,142.6,390.8z"/>
</g>
</svg>
