<?xml version="1.0" encoding="utf-8"?>
<!-- Generator: Adobe Illustrator 25.2.0, SVG Export Plug-In . SVG Version: 6.00 Build 0)  -->
<svg version="1.1" id="Layer_1" xmlns="http://www.w3.org/2000/svg" xmlns:xlink="http://www.w3.org/1999/xlink" x="0px" y="0px"
	 viewBox="0 0 174.3 144.6" style="enable-background:new 0 0 174.3 144.6;" xml:space="preserve">
<style type="text/css">
	.st0{fill:none;stroke:#1EB9D5;stroke-width:4;stroke-miterlimit:10;}
	.st1{fill:none;stroke:#334054;stroke-width:4;stroke-miterlimit:10;}
	.st2{fill:none;stroke:#FF6346;stroke-width:4;stroke-miterlimit:10;}
</style>
<g id="Layer_2_1_">
	<g id="Layer_3">
		<path class="st0" d="M48.3,56.3c9.8-25.8,38.6-38.8,64.4-29.1s38.8,38.6,29.1,64.4c-9.8,25.8-38.6,38.8-64.4,29.1
			c-19.8-7.5-32.7-26.6-32.3-47.7"/>
		<path class="st1" d="M124.8,87.4c-7.4,16.3-26.6,23.5-42.9,16.1S58.5,76.9,65.9,60.6c7.4-16.3,26.6-23.5,42.9-16.1
			c11.5,5.2,18.9,16.6,19,29.2"/>
		<polyline class="st2" points="21.4,74.7 79.5,74.7 89.2,59.8 104,89.6 112.2,74.7 134.4,74.7 		"/>
	</g>
</g>
</svg>
