<?xml version="1.0" encoding="utf-8"?>
<!-- Generator: Adobe Illustrator 25.2.0, SVG Export Plug-In . SVG Version: 6.00 Build 0)  -->
<svg version="1.1" id="Layer_1" xmlns="http://www.w3.org/2000/svg" xmlns:xlink="http://www.w3.org/1999/xlink" x="0px" y="0px"
	 viewBox="0 0 450 450" style="enable-background:new 0 0 450 450;" xml:space="preserve">
<style type="text/css">
	.st0{fill:none;stroke:#1EB9D5;stroke-width:12;stroke-miterlimit:10;}
	.st1{fill:#FF6346;}
	.st2{fill:#334054;}
</style>
<path class="st0" d="M331.5,50L207.9,83.1l-4.7,17.6l-9,33.7l-19.3,72.2l90.4,90.5L388.9,264L422,140.5L331.5,50z M324,199
	c-14.1,14.1-36.9,14.1-50.9,0c-14.1-14.1-14.1-36.9,0-50.9s36.9-14.1,50.9,0c0,0,0,0,0,0l0,0C338.1,162.1,338.1,184.9,324,199z"/>
<circle class="st1" cx="298.4" cy="173.6" r="22.8"/>
<path class="st0" d="M138.9,219.9l-89.1,23.9l-3.5,12.7l-6.5,24.3l-14,52.1L91,398.1l89.1-23.9l23.9-89.1L138.9,219.9z M133.4,327.3
	c-10.1,10.2-26.6,10.2-36.8,0c-10.2-10.1-10.2-26.6,0-36.8s26.6-10.2,36.8,0c0,0,0,0,0,0C143.5,300.7,143.5,317.1,133.4,327.3
	C133.4,327.3,133.4,327.3,133.4,327.3L133.4,327.3z"/>
<circle class="st2" cx="115" cy="308.9" r="14.1"/>
</svg>
