<?xml version="1.0" encoding="utf-8"?>
<!-- Generator: Adobe Illustrator 25.0.0, SVG Export Plug-In . SVG Version: 6.00 Build 0)  -->
<svg version="1.1" id="Layer_1" xmlns="http://www.w3.org/2000/svg" xmlns:xlink="http://www.w3.org/1999/xlink" x="0px" y="0px"
	 viewBox="0 0 500 500" style="enable-background:new 0 0 500 500;" xml:space="preserve">
<style type="text/css">
	.st0{fill:#334054;}
	.st1{fill:none;stroke:#FFE161;stroke-width:2;stroke-miterlimit:10;}
	.st2{fill:#1FBAD6;}
	.st3{fill:none;stroke:#FF6346;stroke-width:2;stroke-miterlimit:10;}
	.st4{fill:none;stroke:#047989;stroke-width:2;stroke-miterlimit:10;}
	.st5{fill:none;stroke:#1EB9D5;stroke-width:2;stroke-miterlimit:10;}
	.st6{fill:#FF6346;}
	.st7{fill:#4C5D75;}
</style>
<path class="st0" d="M306.7,196c-9.1-28.7-31-35.8-49.8-31.3c-29,6.8-32.3-17.3-22.2-25c-3.9,0.5-7.2,0.7-10.4,1.7
	c46.9-44.2,95.2-34.7,114.3-22.1c19,12.6,34.1,39.4,32.6,59.2c-2.4,31.3-19.1,50.3-25.8,57.2c-6.8,6.8-21.8,4-26.4-8
	C315.9,219.4,310.9,209.2,306.7,196z"/>
<path class="st0" d="M356.9,118.2c0,0,18.8-20.7,56.6,2.9s24.6,71.5,18,85.1c-6.6,13.6-24.6,43.4-19.8,51.1
	c4.7,7.7,15.6,9.4,15.6,9.4s1,9.9-19.5,23c-13.3,8.5-31.9,7.3-46.9-3.6c-15-10.9-33.3-60.8,4.7-87.4s34.9-50.4,21.3-66.3
	C373.3,116.4,356.9,118.2,356.9,118.2z"/>
<g>
	<path class="st1" d="M143.5,297.1l-48.1,15c-2.3,0.7-4.8-0.6-5.5-2.9L55.4,198.7c-0.7-2.3,0.6-4.8,2.9-5.5l57.9-18.1"/>
	<path class="st1" d="M124.2,172.6l11.6-3.6c2.3-0.7,4.8,0.6,5.5,2.9l34.5,110.6c0.7,2.3-0.6,4.8-2.9,5.5l-6.3,2"/>
	<path class="st2" d="M79.7,181.1l31.8-9.9c2.7-0.9,5.6,0.7,6.4,3.4l0,0c0.9,2.7-0.7,5.6-3.4,6.4l-31.8,9.9
		c-2.7,0.9-5.6-0.7-6.4-3.4l0,0C75.4,184.9,77,181.9,79.7,181.1z"/>
	<path class="st2" d="M94,169.9c-3.2,1-5,4.4-4,7.6c1,3.2,4.4,5,7.6,4c3.2-1,5-4.4,4-7.6S97.2,169,94,169.9z M96.8,179.1
		c-1.8,0.6-3.8-0.5-4.4-2.3c-0.6-1.8,0.5-3.8,2.3-4.4s3.8,0.5,4.4,2.3C99.7,176.6,98.7,178.5,96.8,179.1L96.8,179.1z"/>
	<line class="st1" x1="119.4" y1="266.7" x2="136.5" y2="261.4"/>
	<polyline class="st1" points="151,259.1 155.9,257.6 157.3,262 121.5,273.2 120.1,268.8 146.4,260.5 	"/>
	<line class="st1" x1="109.9" y1="236.7" x2="126.9" y2="231.4"/>
	<polyline class="st1" points="127.1,238.5 111.9,243.2 110.5,238.8 146.3,227.6 147.8,232.1 132.3,236.8 	"/>
	<line class="st1" x1="100.2" y1="205" x2="117.3" y2="199.6"/>
	<polyline class="st1" points="107,205.1 136.7,195.8 138,200.3 102.2,211.5 100.9,207 	"/>
	<path class="st3" d="M86,209c0.4,0.4,0.9,0.8,1.3,1.3c3.2,4.2,2.6,10.2-1.6,13.6c-4.2,3.3-10.2,2.6-13.6-1.6
		c-3.3-4.2-2.6-10.2,1.6-13.6c2.3-1.8,5.3-2.4,8-1.8"/>
	<polyline class="st3" points="72.5,215.7 80.4,219.8 89.8,201.8 	"/>
	<path class="st4" d="M96.5,241.4c0.4,0.4,0.9,0.9,1.2,1.5c3.1,4.3,1.9,10.4-2.4,13.4c-4.3,3.1-10.4,1.9-13.4-2.4
		c-3.1-4.3-1.9-10.4,2.4-13.4c2.4-1.7,5.4-2.1,8.1-1.4"/>
	<path class="st4" d="M98.4,270.1c0.6-0.2,1.2-0.2,1.9-0.2c5.4-0.1,9.7,4.2,9.8,9.5c0.1,5.4-4.2,9.7-9.5,9.8
		c-5.4,0.1-9.7-4.2-9.8-9.5c-0.1-3,1.3-5.7,3.4-7.5"/>
</g>
<path class="st5" d="M279.4,291.8c-2.6-5.6-6.1-10.3-6.1-10.3s-24.6-6.7-26.1-23.1c-1.6-17.7,0.9-26.7,0.9-26.7s-11.4-0.1-14.2-6.2
	c-2.8-6.2,17.2-9,21.8-40.2"/>
<path class="st5" d="M319.7,259.7c0,0-6.4,17.3-5.1,38"/>
<g>
	<path class="st2" d="M275.9,199c0.3-0.5,0.5-1,0.6-1.6c0.8-3.3-1.3-6.6-4.6-7.4s-6.6,1.3-7.4,4.6c-0.5,2.1,0.2,4.1,1.5,5.6
		c0,0,2.7-0.9,4.8-1.2C273,198.8,275.9,199,275.9,199z"/>
</g>
<path class="st5" d="M246.9,253.1c0,0,9.7,2.5,13.1-2.7"/>
<g>
	<path class="st5" d="M232.8,374.6l-32,17.6c0,0-23.6-38.2-38-63.5c-6-10.5-6.6-27.1-6.8-30.5c-0.4-4.5,0-13.9,0.5-19.8
		c0.3-13.1-10.1-14.9-11.5,0.4c-1,10.6-1.8,19.2-1.8,19.2"/>
</g>
<path class="st3" d="M353.7,244c-2.2,2.7-4.1,4.8-5.6,6.3c-6.8,6.8-20.4,3.4-24.5-9.5"/>
<path class="st3" d="M318.9,209.3c0-15-12.3-37.4-12.3-37.4c-22.4-4.1-51.7,4.1-51.7,4.1s-4.1-7.5-13-24.5
	c46.9-44.2,99.3-17.7,99.3-17.7s24.9,19.6,31.3,44.4"/>
<path class="st3" d="M354.5,119.5c0,0,27.9-27.2,65.7-3.6s33.2,73.4,26.6,87.1s-33.2,41.4-28.4,49.2c4.7,7.7,11.9,1.2,11.9,1.2
	s7.7,10.6-14.2,21.3c-21.9,10.6-41.4-9.5-41.4-9.5s-6.5,4.7-4.1,9.5c-10.6-7.1-36.1-54.5,1.8-81.2s34.9-50.4,21.3-66.3
	C379.9,111.3,354.5,119.5,354.5,119.5z"/>
<path class="st4" d="M278.8,313.5c0,0-3.3-6.3-4.3-8.8c-0.9-2.5,3.7-5.3,5.6-1.8c1.8,3.4,7.6,1.2,5.9-2.5c-1.6-3.5,5.2-5.5,6.2-1.3
	c1,4.3,7.1,2.8,6.2-0.9c-1-4.5,7.8-4.7,7.1,0.9c-0.3,3.3,5.9,4.6,6.8,0.9c1-4.3,8.3-2.5,6.5,3.1"/>
<path class="st6" d="M285.8,191.3c-7.2-12.6-18.7-9-18.7-9c-3.3,1.1-2.2,2.7,1,2.2c3.2-0.4,8.7,0.3,12.9,3.3
	c2.4,1.8,3.2,2.9,4.2,3.9C285.5,192,286,191.6,285.8,191.3z"/>
<path class="st5" d="M327.2,222.8c1.8-5.6,16.3-7,13.2,10.4c-3,17-15.8,13.7-16.9,7.1"/>
<g>
	<path class="st7" d="M164.8,191c-1,0-1.8,0.8-1.9,1.9l0,0l0,0c0,1.1,0.8,1.9,1.8,1.9c1.1,0,1.9-0.8,1.9-1.9
		C166.6,191.8,165.8,191,164.8,191L164.8,191z"/>
	<path class="st7" d="M164.8,148.2c-1,0-1.8,0.8-1.9,1.9l0,0l0,0c0,1.1,0.8,1.9,1.8,1.9c1.1,0,1.9-0.8,1.9-1.9
		C166.6,148.9,165.8,148.2,164.8,148.2L164.8,148.2z"/>
	<path class="st7" d="M125.2,148.2c-1.1,0-1.9,0.8-1.9,1.9l0,0l0,0c0,1.1,0.8,1.9,1.8,1.9c1.1,0,1.9-0.8,1.9-1.9
		C126.9,148.9,126.2,148.2,125.2,148.2C125.2,148.2,125.1,148.2,125.2,148.2z"/>
	<path class="st7" d="M164.8,109.2c-1,0-1.8,0.9-1.8,1.9l0,0c0.1,1.1,0.9,1.9,1.9,1.9c1,0,1.8-0.8,1.8-1.9
		C166.7,110,165.8,109.2,164.8,109.2L164.8,109.2z"/>
	<path class="st7" d="M125.2,109.2c-1.1,0-1.9,0.9-1.9,1.9l0,0l0,0c0,1.1,0.8,1.9,1.8,1.9c1.1,0,1.9-0.8,1.9-1.9
		C126.9,110,126.2,109.2,125.2,109.2C125.2,109.2,125.1,109.2,125.2,109.2z"/>
	<path class="st7" d="M125.2,69.4c-1.1,0-1.9,0.9-1.8,1.9l0,0c0.1,1.1,0.9,1.9,1.9,1.9s1.8-0.8,1.8-1.9S126.2,69.4,125.2,69.4
		C125.1,69.4,125.1,69.4,125.2,69.4z"/>
	<path class="st7" d="M85.4,109.2c-1,0-1.9,0.9-1.9,1.9l0,0l0,0c0,1.1,0.8,1.9,1.8,1.9c1.1,0,1.9-0.9,1.9-1.9
		C87.2,110,86.4,109.2,85.4,109.2L85.4,109.2z"/>
</g>
<path class="st4" d="M324.7,418.5c0.5-40.2,19.4-80.6,8.6-97.1c-12.9-19.7-30.6-19.5-59.4-5.7c-31.7,15.3-52.2,46.8-40.8,59.4"/>
</svg>
