<?xml version="1.0" encoding="utf-8"?>
<!-- Generator: Adobe Illustrator 23.0.4, SVG Export Plug-In . SVG Version: 6.00 Build 0)  -->
<svg version="1.1" id="Layer_1" xmlns="http://www.w3.org/2000/svg" xmlns:xlink="http://www.w3.org/1999/xlink" x="0px" y="0px"
	 viewBox="0 0 709 531" style="enable-background:new 0 0 709 531;" xml:space="preserve">
<style type="text/css">
	.st0{fill:#283142;}
	.st1{fill:#FFE161;}
	.st2{fill:none;stroke:#FFE161;stroke-width:3;stroke-miterlimit:10;}
	.st3{fill:none;stroke:#1EB9D5;stroke-width:3;stroke-miterlimit:10;}
</style>
<title>topup-icon</title>
<g>
	<path class="st0" d="M558.8,53.9l-0.1,3.4c4.8,0.2,13.4,2.4,13.3,5.2c0,1.3-2,4.5-2.8,4.4c-1.3,0-4.3-3.2-10.6-3.5l-0.5,19.8
		c7.5,2.9,16.1,6.2,15.8,17.9c-0.2,9.7-6.7,15.6-16.6,16.3l-0.1,4.2c0,0.9-0.5,1.4-1.7,1.3c-1.2,0-1.7-0.5-1.7-1.4l0.1-4.2
		c-9.6-0.5-16.7-4.3-16.7-6.6c0-1.4,2.1-4.6,3.1-4.5c1,0,5.5,4.6,13.7,5l0.5-21.9c-7.4-3.1-15.6-6.2-15.3-17.2
		c0.2-8.3,6.5-14,16.1-14.7l0.1-3.6c0-0.9,0.5-1.4,1.7-1.3C558.4,52.5,558.9,53,558.8,53.9z M547,72.7c-0.1,4.8,3.3,7.2,7.8,9.2
		l0.4-18.3C550.3,64.3,547.1,67.3,547,72.7L547,72.7z M557.5,111.1c5-0.8,8.6-4.6,8.7-10.2c0.1-5.4-3.6-8-8.3-10.1L557.5,111.1z"/>
</g>
<circle class="st1" cx="557.7" cy="187.1" r="16.7"/>
<path class="st2" d="M560.7,192.9c35.9,133.8-43.3,271.3-177.1,307.3S112.3,456.8,76.4,323.1C43.5,200.9,106.9,75.5,220.1,27.3"/>
<path class="st3" d="M483.2,100.2c-14.8-7.4-25-22.7-25-40.3c0-24.9,20.1-45,45-45c14.8,0,27.9,7.1,36.1,18.1"/>
<path class="st3" d="M612.9,76.6c0.7,3.6,1.1,7.2,1.1,11c0,31.4-25.4,56.8-56.8,56.8s-56.8-25.4-56.8-56.8s25.4-56.8,56.8-56.8
	c17.6,0,33.3,8,43.7,20.6"/>
</svg>
