<?xml version="1.0" encoding="utf-8"?>
<!-- Generator: Adobe Illustrator 25.2.1, SVG Export Plug-In . SVG Version: 6.00 Build 0)  -->
<svg version="1.1" id="Layer_1" xmlns="http://www.w3.org/2000/svg" xmlns:xlink="http://www.w3.org/1999/xlink" x="0px" y="0px"
	 viewBox="0 0 804.7 865.2" style="enable-background:new 0 0 804.7 865.2;" xml:space="preserve">
<style type="text/css">
	.st0{fill:none;stroke:#FF6346;stroke-width:4;stroke-miterlimit:10;}
	.st1{fill:#334054;}
	.st2{fill:none;stroke:#1EB9D5;stroke-width:4;stroke-miterlimit:10;}
	.st3{fill:#1EB9D5;}
	.st4{fill:#232D3D;}
	.st5{fill:#FFE161;}
	.st6{fill-rule:evenodd;clip-rule:evenodd;fill:#BA9600;}
	.st7{fill:none;stroke:#FFE161;stroke-width:3;stroke-miterlimit:10;stroke-dasharray:12,12;}
</style>
<path class="st0" d="M622.5,449.7c0,0,32.6-14.6,50.5,3.3c16,16,3.4,44.2-31.2,58.1"/>
<path class="st0" d="M622,564.8c0,0,35.6-12.4,46.5,4.2c11.9,18,0.9,39.8-46,60.6"/>
<path class="st0" d="M248,533.4c0,0,29.3,11.9,34.1,37.5"/>
<path class="st1" d="M379.8,710l209.5-21.6c23.2-2.4,40.1-23.2,37.7-46.4l0,0l-55.7-540.4C569,78.4,548.2,61.5,525,63.9c0,0,0,0,0,0
	l-45.7,4.7c-5.3,0.5-10.1,3.4-13.1,7.8l-6.3,9.2c-3,4.4-7.8,7.3-13.1,7.8l-70,7.2c-5.7,0.6-11.4-1.6-15.3-5.8l-5.5-6
	c-3.9-4.3-9.5-6.5-15.3-5.9l-43.3,4.5c-23.2,2.4-40.1,23.2-37.7,46.4L309,611.4c0,0,23.8-18.4,71.2-56.3
	c47.8-38.3,80.1-68.7,113.8-49.6c14,11.7,28.1,36.7-4.1,66.1c-34.6,31.4-72.6,66.2-84.9,78.4C393.4,661.4,379.8,710,379.8,710z"/>
<path class="st2" d="M282.1,598.2V124.3c0-23.3,18.9-42.3,42.3-42.3h255.3c23.3,0,42.3,18.9,42.3,42.3v569.6
	c0,23.3-18.9,42.3-42.3,42.3H366.4"/>
<path class="st2" d="M608.6,192.2v-54.7c0-23.3-18.9-42.3-42.3-42.3c0,0,0,0,0,0h-45.9c-5.3,0-10.4,2.3-13.8,6.4l-7.2,8.5
	c-3.4,4.1-8.5,6.4-13.8,6.4h-70.4c-5.8,0-11.2-2.7-14.6-7.4l-4.8-6.6c-3.4-4.6-8.8-7.4-14.6-7.4h-43.6c-23.3,0-42.3,18.9-42.3,42.3
	v432.7"/>
<line class="st2" x1="414.1" y1="102.1" x2="464.7" y2="102.1"/>
<circle class="st3" cx="482.1" cy="101.6" r="4.8"/>
<path class="st2" d="M608.6,218.9v461.9c0,23.3-19,42.2-42.3,42.2H340.1"/>
<polygon class="st4" points="637.8,405.1 326.5,469.1 326.5,216.3 637.8,152.3 "/>
<path class="st0" d="M49.2,786.6c0,0,91.5-213.1,110.5-266.7s52.4-139.5,61.4-169.6c4.5-15.1,19-27.3,32.4-35.9"/>
<path class="st0" d="M217.7,636c0,0,79.2-44.7,121.7-72.5s58.1-36.2,75.9-48c63.5-42.1,109.8,22,52.5,62.5
	c-31,21.9-44.4,33.8-80.4,59.1c-37.3,26.2-48,90.4-51.3,112.7s-10,59.1-41.3,94.8"/>
<g>
	
		<image style="overflow:visible;opacity:0.25;enable-background:new    ;" width="294" height="264" xlink:href="96441459B860EE84.png"  transform="matrix(1 0 0 1 308.4879 200.3961)">
	</image>
	<path class="st5" d="M392.1,254.8v69.2h-19.9v-69.2h-18.7v-16.8h57.2v16.8L392.1,254.8z"/>
	<path class="st5" d="M482.6,248.7c17.9,17.9,17.9,46.8,0,64.7c-8,7.7-18.8,12.6-33.3,12.6c-16.1,0-27.1-6.5-33.5-12.6
		c-8.7-8.4-13.5-19.9-13.4-32c0-12.4,5.5-24.9,13.3-32.6c5.8-5.8,16.5-12.6,33.6-12.6C462.7,236.2,473.9,240.3,482.6,248.7z"/>
	<path class="st5" d="M445,371.5c0,8.2-1,18.4-9.5,27.2c-8.2,8.5-17.8,9.8-26.8,9.8s-18.6-1.3-26.8-9.8c-8.5-8.8-9.5-19-9.5-27.2
		v-50.9h19.9V371c0,3.7,0.2,10.1,4.5,14.4c3.5,3.7,8.2,4.5,12,4.5s8.5-0.8,12-4.5c4.3-4.4,4.5-10.7,4.5-14.4v-50.4H445L445,371.5z"
		/>
	<path class="st5" d="M525.8,238.1c7.5,0,15.7,1,22.6,7.1c7.3,6.4,8.4,14.9,8.4,20.9c0,10.8-4.1,16.9-7.3,20.2
		c-6.8,7-15.9,7.6-21.9,7.6h-12.1v30.2h-19.9v-86L525.8,238.1z M515.4,277.7h7.1c2.7,0,7.5-0.1,10.7-3.2c2.1-2.3,3.3-5.4,3.2-8.5
		c0.1-3.1-1-6.1-3.2-8.4c-3-2.8-7.2-3.2-11.1-3.2h-6.7L515.4,277.7z"/>
	<path class="st5" d="M505.8,322.5c7.5,0,15.7,1,22.5,7.1c7.4,6.4,8.4,15,8.4,20.9c0,10.8-4.1,16.9-7.3,20.2
		c-6.8,7-15.9,7.6-21.9,7.6h-12.1v30.2h-19.9v-86L505.8,322.5z M495.4,362.1h7.1c2.7,0,7.5-0.1,10.7-3.2c2.1-2.3,3.3-5.4,3.2-8.5
		c0.1-3.1-1-6.1-3.2-8.4c-3-2.8-7.2-3.2-11.1-3.2h-6.7L495.4,362.1z"/>
	<path class="st6" d="M435.8,312.2l6.6-0.1h1.2v4.9l5.9-0.1v-4.9h4.1v4.9h5.8l0-5.4c12-1.8,14.2-10.3,14.2-16.9
		c-0.1-12.8-6.4-14.7-10.5-15.2v-0.2c5.4-1.1,8.7-6.8,8.6-14.1c-0.1-9.1-5.1-14-12.8-14.8l0-5.3H453l0,5.1H449l0-5.1H443v5.1h-1.1
		l-6.6,0.1l-6.6,0.1l0.1,10.7l6.6,0l0.4,40.3l-6.6,0.1l0.1,10.8L435.8,312.2z M448.6,261h3.6c4.8,0,6.5,3.4,6.5,6.5
		c0,4.4-1.9,7.3-6.4,7.4h-3.6L448.6,261z M448.8,284.6h4.3c4,0,6.8,2.5,6.8,8.7c0,4.2-1.7,8-7,8.1h-4L448.8,284.6z"/>
</g>
<path class="st0" d="M461.9,512.8c-13.4-2-25.8,7.2-27.9,20.5c9.9,8,15.8,18,20.5,27.8c13.3,2.1,25.9-7,28-20.4
	c2.1-13.3-7-25.9-20.4-28C462.1,512.9,462,512.9,461.9,512.8z"/>
<g>
	
		<ellipse transform="matrix(1.151324e-03 -1 1 1.151324e-03 582.5089 874.4535)" class="st5" cx="729" cy="145.6" rx="12.1" ry="12.1"/>
	<path class="st7" d="M731.1,149.8C757,246.5,699.7,345.7,603,371.6c-71.4,19.1-144.1-7.2-187.7-61.2"/>
</g>
</svg>
