<?xml version="1.0" encoding="utf-8"?>
<!-- Generator: Adobe Illustrator 25.2.0, SVG Export Plug-In . SVG Version: 6.00 Build 0)  -->
<svg version="1.1" id="Layer_1" xmlns="http://www.w3.org/2000/svg" xmlns:xlink="http://www.w3.org/1999/xlink" x="0px" y="0px"
	 viewBox="0 0 1561 540.6" style="enable-background:new 0 0 1561 540.6;" xml:space="preserve">
<style type="text/css">
	.st0{fill:none;stroke:#FF6346;stroke-width:3;stroke-miterlimit:10;}
	.st1{fill:none;stroke:#1EB9D5;stroke-width:3;stroke-miterlimit:10;}
	.st2{fill:none;stroke:#334054;stroke-width:3;stroke-miterlimit:10;}
	.st3{fill:none;stroke:#F4F9F9;stroke-width:4;stroke-miterlimit:10;}
	.st4{fill:#334054;}
	.st5{fill:none;stroke:#334054;stroke-width:3;stroke-miterlimit:10;stroke-dasharray:5,5;}
	.st6{fill:#FF6346;}
	.st7{fill-rule:evenodd;clip-rule:evenodd;fill:#1FBAD6;}
	.st8{fill:none;stroke:#1EB9D5;stroke-width:3;stroke-linejoin:round;stroke-miterlimit:10;}
	.st9{fill:none;stroke:#1EB9D5;stroke-width:3;stroke-linejoin:bevel;stroke-miterlimit:10;}
	.st10{fill-rule:evenodd;clip-rule:evenodd;fill:#334054;}
</style>
<g>
	<polyline class="st0" points="101.4,57.3 114.1,46.4 167.2,46.4 179,57.5 	"/>
	<polyline class="st1" points="137.1,110.8 110.7,110.8 110.7,64.1 	"/>
	<polyline class="st1" points="170.6,64.1 170.6,110.8 147.6,110.8 	"/>
	<polyline class="st2" points="163.3,61.9 163.3,96.8 117.6,96.8 117.6,61.2 	"/>
	<path class="st0" d="M117.3,58c0,7.7-15.3,7.5-15.3-0.2l76.6,0.2c0,7.7-15.3,8.1-15.3,0.4"/>
	<path class="st0" d="M132.7,58.6c0,7.7-15.3,6.8-15.3-0.9"/>
	<path class="st0" d="M147.9,58.6c0,7.7-15.3,7.5-15.3-0.2"/>
	<path class="st0" d="M163.3,58.6c0,7.7-15.3,7.5-15.3-0.2"/>
</g>
<g>
	<path d="M85.2,130.8c1.1,0,3.1,0.1,4.5,1.2c0.6,0.5,1.8,1.7,1.8,4.1c0,1-0.2,2.7-2,3.9c2.8,0.7,3.8,3.1,3.8,5s-0.9,3.4-2,4.3
		c-1.6,1.2-3.4,1.3-4.7,1.3h-4.9v-19.8H85.2z M83.8,139.5h1.7c1.2,0,3.9-0.2,3.9-3.3c0-3.3-3.2-3.3-3.8-3.3h-1.7V139.5z M83.8,148.6
		h2.5c1.3,0,2.5-0.1,3.5-0.8c0.8-0.6,1.3-1.5,1.3-2.7c0-1.6-0.9-2.5-1.7-2.9c-0.7-0.4-1.8-0.6-3.4-0.6h-2.3V148.6z"/>
	<path d="M99,145.5c0,0.9,0,1.9,0.6,2.6c0.3,0.4,1,1,2.2,1c1.2,0,1.8-0.5,2.2-1c0.6-0.8,0.6-1.8,0.6-2.6v-7.2h2.1v7.4
		c0,1.5-0.1,2.6-1.1,3.7c-1.1,1.2-2.6,1.5-3.8,1.5s-2.7-0.4-3.8-1.5c-1-1.1-1.1-2.2-1.1-3.7v-7.4H99V145.5z"/>
	<path d="M115.7,141.2c-0.3-0.7-0.9-1.2-1.7-1.2c-0.8,0-1.5,0.4-1.5,1.4c0,0.9,0.6,1.2,2,1.8c1.8,0.7,2.6,1.3,3.1,1.9
		c0.5,0.7,0.7,1.3,0.7,2c0,2.6-1.9,4-4.2,4c-0.5,0-3.3-0.1-4.3-3.1l1.8-0.8c0.2,0.7,0.9,2,2.5,2c1.4,0,2-1,2-2c0-1.2-0.8-1.5-2-2
		c-1.5-0.7-2.4-1.1-3-1.8c-0.5-0.6-0.6-1.2-0.6-1.8c0-2.2,1.5-3.4,3.6-3.4c0.7,0,2.4,0.1,3.4,2.2L115.7,141.2z"/>
	<path d="M122.2,132.1c0.8,0,1.5,0.7,1.5,1.5s-0.7,1.5-1.5,1.5s-1.5-0.7-1.5-1.5S121.3,132.1,122.2,132.1z M123.2,138.3v12.3h-2.1
		v-12.3H123.2z"/>
	<path d="M127.3,138.3h2.1v1.4c0.4-0.5,1.5-1.7,3.5-1.7c1.5,0,2.8,0.6,3.5,1.7c0.6,0.9,0.7,1.9,0.7,3.3v7.6H135v-7.6
		c0-0.7-0.1-1.6-0.6-2.3c-0.4-0.5-1.1-0.9-2-0.9c-0.7,0-1.5,0.2-2.2,0.9c-0.8,1-0.9,2.4-0.9,3.3v6.4h-2.1V138.3z"/>
	<path d="M152.1,147.5c-0.4,0.7-0.9,1.4-1.5,2c-1.1,1-2.5,1.5-4.1,1.5c-3,0-6.1-1.9-6.1-6.4c0-3.7,2.3-6.5,6-6.5
		c2.4,0,3.9,1.2,4.7,2.3c0.8,1.1,1.2,3,1.2,4.6h-9.6c0,2.6,1.8,4.2,3.9,4.2c1,0,1.8-0.3,2.5-0.9c0.6-0.5,1-1.1,1.3-1.7L152.1,147.5z
		 M150,143.1c-0.4-1.9-1.8-3.2-3.6-3.2c-1.8,0-3.3,1.4-3.6,3.2H150z"/>
	<path d="M160.6,141.2c-0.3-0.7-0.9-1.2-1.7-1.2c-0.8,0-1.5,0.4-1.5,1.4c0,0.9,0.6,1.2,2,1.8c1.8,0.7,2.6,1.3,3.1,1.9
		c0.5,0.7,0.7,1.3,0.7,2c0,2.6-1.9,4-4.2,4c-0.5,0-3.3-0.1-4.3-3.1l1.8-0.8c0.2,0.7,0.9,2,2.5,2c1.4,0,2-1,2-2c0-1.2-0.8-1.5-2-2
		c-1.5-0.7-2.4-1.1-3-1.8c-0.5-0.6-0.6-1.2-0.6-1.8c0-2.2,1.5-3.4,3.6-3.4c0.7,0,2.4,0.1,3.4,2.2L160.6,141.2z"/>
	<path d="M171,141.2c-0.3-0.7-0.9-1.2-1.7-1.2c-0.8,0-1.5,0.4-1.5,1.4c0,0.9,0.6,1.2,2,1.8c1.8,0.7,2.6,1.3,3.1,1.9
		c0.5,0.7,0.7,1.3,0.7,2c0,2.6-1.9,4-4.2,4c-0.5,0-3.3-0.1-4.3-3.1l1.8-0.8c0.2,0.7,0.9,2,2.5,2c1.4,0,2-1,2-2c0-1.2-0.8-1.5-2-2
		c-1.5-0.7-2.4-1.1-3-1.8c-0.5-0.6-0.6-1.2-0.6-1.8c0-2.2,1.5-3.4,3.6-3.4c0.7,0,2.4,0.1,3.4,2.2L171,141.2z"/>
	<path d="M187.3,147.5c-0.4,0.7-0.9,1.4-1.5,2c-1.1,1-2.5,1.5-4.1,1.5c-3,0-6.1-1.9-6.1-6.4c0-3.7,2.3-6.5,6-6.5
		c2.4,0,3.9,1.2,4.7,2.3c0.8,1.1,1.2,3,1.2,4.6h-9.6c0,2.6,1.8,4.2,3.9,4.2c1,0,1.8-0.3,2.5-0.9c0.6-0.5,1-1.1,1.3-1.7L187.3,147.5z
		 M185.2,143.1c-0.4-1.9-1.8-3.2-3.6-3.2s-3.3,1.4-3.6,3.2H185.2z"/>
	<path d="M195.7,141.2c-0.3-0.7-0.9-1.2-1.7-1.2c-0.8,0-1.5,0.4-1.5,1.4c0,0.9,0.6,1.2,2,1.8c1.8,0.7,2.6,1.3,3.1,1.9
		c0.5,0.7,0.7,1.3,0.7,2c0,2.6-1.9,4-4.2,4c-0.5,0-3.3-0.1-4.3-3.1l1.8-0.8c0.2,0.7,0.9,2,2.5,2c1.4,0,2-1,2-2c0-1.2-0.8-1.5-2-2
		c-1.5-0.7-2.4-1.1-3-1.8c-0.5-0.6-0.6-1.2-0.6-1.8c0-2.2,1.5-3.4,3.6-3.4c0.7,0,2.4,0.1,3.4,2.2L195.7,141.2z"/>
</g>
<g>
	<path d="M76.5,484.7h4c2,0,4.8,0.2,7.3,2.3c1.8,1.5,3.4,4,3.4,7.6c0,4.2-2,6.4-3.5,7.6c-1.8,1.5-3.7,2.3-7.2,2.3h-4V484.7z
		 M78.6,502.4h1.9c1.6,0,3.7-0.2,5.7-1.8c1.5-1.2,2.7-3.2,2.7-6c0-4.7-3.3-7.8-8.3-7.8h-1.9V502.4z"/>
	<path d="M105.6,501.4c-0.4,0.7-0.9,1.4-1.5,2c-1.1,1-2.5,1.5-4.1,1.5c-3,0-6.1-1.9-6.1-6.4c0-3.7,2.3-6.5,6-6.5
		c2.4,0,3.9,1.2,4.7,2.3c0.8,1.1,1.2,3,1.2,4.6h-9.6c0,2.6,1.8,4.2,3.9,4.2c1,0,1.8-0.3,2.5-0.9c0.6-0.5,1-1.1,1.3-1.7L105.6,501.4z
		 M103.5,497c-0.4-1.9-1.8-3.2-3.6-3.2c-1.8,0-3.3,1.4-3.6,3.2H103.5z"/>
	<path d="M109.5,492.2l3.7,8.3l3.7-8.3h2.4l-6.1,13.1l-6.1-13.1H109.5z"/>
	<path d="M132.5,501.4c-0.4,0.7-0.9,1.4-1.5,2c-1.1,1-2.5,1.5-4.1,1.5c-3,0-6.1-1.9-6.1-6.4c0-3.7,2.3-6.5,6-6.5
		c2.4,0,3.9,1.2,4.7,2.3c0.8,1.1,1.2,3,1.2,4.6H123c0,2.6,1.8,4.2,3.9,4.2c1,0,1.8-0.3,2.5-0.9c0.6-0.5,1-1.1,1.3-1.7L132.5,501.4z
		 M130.4,497c-0.4-1.9-1.8-3.2-3.6-3.2c-1.8,0-3.3,1.4-3.6,3.2H130.4z"/>
	<path d="M138,482.9v21.6h-2.1v-21.6H138z"/>
	<path d="M141.2,498.4c0-3.7,2.8-6.5,6.5-6.5c3.8,0,6.5,2.8,6.5,6.5c0,3.7-2.8,6.5-6.5,6.5C144,504.9,141.2,502.1,141.2,498.4z
		 M143.4,498.4c0,3,2.1,4.6,4.3,4.6c2.2,0,4.3-1.6,4.3-4.6c0-3-2.1-4.6-4.3-4.6C145.5,493.8,143.4,495.4,143.4,498.4z"/>
	<path d="M159.7,511.3h-2.1v-19.1h2.1v1.7c1.5-1.8,3.3-2,4.2-2c3.9,0,6,3.2,6,6.5c0,3.4-2.2,6.4-5.9,6.4c-2,0-3.4-0.9-4.3-2.1V511.3
		z M167.7,498.4c0-3-2-4.6-4-4.6s-4.1,1.6-4.1,4.6c0,2.5,1.6,4.6,4.1,4.6C166.2,503,167.7,500.9,167.7,498.4z"/>
	<path d="M184.1,501.4c-0.4,0.7-0.9,1.4-1.5,2c-1.1,1-2.5,1.5-4.1,1.5c-3,0-6.1-1.9-6.1-6.4c0-3.7,2.3-6.5,6-6.5
		c2.4,0,3.9,1.2,4.7,2.3c0.8,1.1,1.2,3,1.2,4.6h-9.6c0,2.6,1.8,4.2,3.9,4.2c1,0,1.8-0.3,2.5-0.9c0.6-0.5,1-1.1,1.3-1.7L184.1,501.4z
		 M182,497c-0.4-1.9-1.8-3.2-3.6-3.2s-3.3,1.4-3.6,3.2H182z"/>
	<path d="M187.4,492.2h2.1v1.3c0.2-0.3,1.1-1.6,2.8-1.6c0.7,0,1.4,0.2,1.9,0.5l-1,1.9c-0.5-0.3-0.9-0.4-1.2-0.4
		c-0.9,0-1.4,0.4-1.7,0.8c-0.4,0.5-0.7,1.3-0.7,3.3v6.5h-2.1V492.2z"/>
	<path d="M201,495.1c-0.3-0.7-0.9-1.2-1.7-1.2c-0.8,0-1.5,0.4-1.5,1.4c0,0.9,0.6,1.2,2,1.8c1.8,0.7,2.6,1.3,3.1,1.9
		c0.5,0.7,0.7,1.3,0.7,2c0,2.6-1.9,4-4.2,4c-0.5,0-3.3-0.1-4.3-3.1l1.8-0.8c0.2,0.7,0.9,2,2.5,2c1.4,0,2-1,2-2c0-1.2-0.8-1.5-2-2
		c-1.5-0.7-2.4-1.1-3-1.8c-0.5-0.6-0.6-1.2-0.6-1.8c0-2.2,1.5-3.4,3.6-3.4c0.7,0,2.4,0.1,3.4,2.2L201,495.1z"/>
</g>
<path class="st3" d="M589.7,342.4c6,46.4,17.5,91.1,33.8,133.5"/>
<path class="st3" d="M622.7,64.7c-16.7,44-28.3,90.5-33.9,138.9"/>
<path class="st3" d="M610.1,342.4c7.2,55.3,22.1,108.2,43.6,157.6"/>
<path class="st3" d="M653.5,39.1c-22.4,51.4-37.6,106.6-44.4,164.4"/>
<path class="st3" d="M630.5,342.4c8.4,65,27.6,126.6,55.5,183"/>
<path class="st3" d="M686,13.2c-29,58.6-48.5,122.7-56.4,190.4"/>
<g>
	<polygon class="st4" points="259.7,173.6 262.3,171 240.6,165.6 246.7,187.1 256.8,176.6 	"/>
	<line class="st5" x1="254" y1="178.1" x2="302.8" y2="225.5"/>
</g>
<g>
	<polygon class="st4" points="249.8,381.9 247.2,379.3 241.8,401 263.3,394.9 252.8,384.8 	"/>
	<line class="st5" x1="254.3" y1="387.6" x2="301.6" y2="338.8"/>
</g>
<g>
	<g>
		<g>
			<path class="st1" d="M98,414.4v-4.7c0-2.2,1.7-3.9,3.8-3.9h16.6h38.1h7h7.3c2.1,0,3.8,1.7,3.8,3.9v36.9c0,2.2-1.7,3.9-3.8,3.9
				h-69.1c-2.1,0-3.8-1.7-3.8-3.9v-23.3V414.4z"/>
		</g>
	</g>
	<g>
		<path class="st4" d="M111.8,427.2v-0.8l13.1-8l1.1,1.7l-11,6.5l11.1,6.4l-1.1,1.7L111.8,427.2z"/>
		<path class="st4" d="M139.8,415.9l1.8,0.8l-10.2,22.9l-1.8-0.8L139.8,415.9z"/>
		<path class="st4" d="M146.2,434.7l-1.1-1.7l11.1-6.4l-11-6.5l1.1-1.7l13.1,8v0.8L146.2,434.7z"/>
	</g>
	<circle class="st6" cx="86" cy="440.7" r="4.7"/>
	<circle class="st6" cx="194.5" cy="435.7" r="4.7"/>
	<path class="st0" d="M195.3,436.5c0,0-10.9-7.4-27.3-2.3c-19.1,5.9-30.6,29.1-50.1,32.9c-17.9,3.6-31.9-25.9-31.9-25.9"/>
</g>
<g>
	<g>
		<path class="st7" d="M418.3,296.8l20.5,20.2h-58.9v-4.7v-4v-3.4V286v-2.3v-24.8l21.8,21.5c3.7-3.5,5.9-8.4,5.9-14
			c0-10.7-8.7-19.3-19.3-19.3c-10.6,0-19.2,8.5-19.3,19.1l0,0v0.2v38.2V317h-23.4v-50.6c0-23.6,19.1-42.8,42.7-42.8
			c23.6,0,42.7,19.2,42.7,42.7C431,278.3,426.2,289,418.3,296.8z"/>
	</g>
	<g>
		<path d="M466.6,258.8l-1.6,9.3c-1.3-0.3-2.3-0.5-3.2-0.5c-2.1,0-3.8,0.7-5,2.2c-1.2,1.5-2.1,3.8-2.8,6.8v18.7h-9.7v-36.1h8.4
			l0.9,7c0.9-2.5,2.1-4.5,3.8-5.9c1.7-1.4,3.5-2.1,5.6-2.1C464.1,258.3,465.3,258.5,466.6,258.8z"/>
		<path d="M497.5,280.3H475c0.3,3.3,1.2,5.6,2.7,6.9c1.5,1.4,3.4,2,5.9,2c1.5,0,3-0.2,4.4-0.7c1.4-0.5,2.8-1.3,4.4-2.4l4,5.4
			c-4,3.3-8.6,4.9-13.7,4.9c-5.7,0-10-1.7-13.1-5.1c-3-3.4-4.6-8-4.6-13.8c0-3.7,0.6-7,1.9-9.9c1.3-2.9,3.2-5.2,5.7-6.9
			c2.5-1.7,5.4-2.5,8.8-2.5c5.1,0,9.1,1.6,12,4.8c2.9,3.2,4.3,7.7,4.3,13.5C497.8,277,497.7,278.2,497.5,280.3z M488.2,273.8
			c0-6-2.2-9-6.5-9c-2,0-3.6,0.7-4.7,2.2c-1.1,1.5-1.8,3.9-2,7.2h13.1V273.8z"/>
		<path d="M504.8,293.9c-1.6-1.7-2.5-4.1-2.5-7.3v-41.7l9.7-1.1v42.6c0,1.6,0.7,2.4,2,2.4c0.7,0,1.4-0.1,1.9-0.4l2,6.9
			c-1.9,0.8-3.9,1.2-6.2,1.2C508.8,296.5,506.5,295.6,504.8,293.9z"/>
		<path d="M548.3,263.3c3,3.4,4.6,8.1,4.6,14.1c0,3.8-0.7,7.2-2.1,10c-1.4,2.9-3.4,5.1-6,6.7c-2.6,1.6-5.7,2.4-9.2,2.4
			c-5.4,0-9.6-1.7-12.7-5.1c-3.1-3.4-4.6-8.1-4.6-14.1c0-3.8,0.7-7.2,2.1-10c1.4-2.9,3.4-5.1,6-6.7c2.6-1.6,5.7-2.4,9.3-2.4
			C541.1,258.2,545.3,259.9,548.3,263.3z M530.2,268.3c-1.2,1.9-1.8,4.9-1.8,9c0,4.1,0.6,7.1,1.8,9c1.2,1.9,3,2.9,5.4,2.9
			c2.4,0,4.2-1,5.4-2.9c1.2-1.9,1.8-4.9,1.8-9c0-4.1-0.6-7.1-1.8-9c-1.2-1.9-3-2.9-5.4-2.9C533.2,265.4,531.4,266.4,530.2,268.3z"/>
		<path d="M585.7,288.5c0.4,0.7,1.1,1.1,2,1.5l-2,6.4c-2.1-0.2-3.9-0.7-5.2-1.5c-1.3-0.8-2.4-2.1-3.1-3.8c-2.4,3.6-6,5.4-10.8,5.4
			c-3.6,0-6.4-1-8.5-3.1c-2.1-2.1-3.2-4.8-3.2-8.1c0-3.9,1.4-7,4.3-9.1c2.9-2.1,7-3.1,12.3-3.1h4.2v-1.8c0-2.2-0.5-3.8-1.5-4.6
			c-1-0.9-2.7-1.3-5-1.3c-2.5,0-5.7,0.6-9.5,1.9l-2.2-6.5c4.5-1.8,8.9-2.7,13.3-2.7c4.9,0,8.5,1.1,10.8,3.2c2.3,2.1,3.5,5.3,3.5,9.4
			v14.6C585.1,286.8,585.3,287.8,585.7,288.5z M575.6,285.5v-6.9h-3.2c-5.2,0-7.8,2-7.8,5.9c0,1.6,0.4,2.8,1.2,3.7
			c0.8,0.9,1.9,1.3,3.4,1.3C572,289.5,574.1,288.2,575.6,285.5z"/>
		<path d="M624,244.9v50.5h-8.5l-0.5-4.4c-2.5,3.7-6,5.5-10.3,5.5c-4.4,0-7.8-1.7-10.2-5.1c-2.3-3.4-3.5-8.1-3.5-14
			c0-3.7,0.6-7,1.8-9.9c1.2-2.9,2.9-5.1,5.1-6.8c2.2-1.6,4.8-2.5,7.7-2.5c3.4,0,6.3,1.2,8.8,3.6v-18L624,244.9z M611.2,288.2
			c1.1-0.7,2.1-1.8,3.1-3.3v-16.1c-1-1.1-1.9-2-2.9-2.6c-1-0.6-2.1-0.9-3.4-0.9c-2.2,0-4,1-5.2,2.9c-1.2,2-1.9,5-1.9,9.1
			c0,4.3,0.6,7.4,1.7,9.2c1.1,1.8,2.7,2.7,4.8,2.7C608.8,289.2,610.1,288.9,611.2,288.2z"/>
		<path d="M633.6,293.9c-1.6-1.7-2.5-4.1-2.5-7.3v-41.7l9.7-1.1v42.6c0,1.6,0.7,2.4,2,2.4c0.7,0,1.4-0.1,1.9-0.4l2,6.9
			c-1.9,0.8-3.9,1.2-6.2,1.2C637.5,296.5,635.2,295.6,633.6,293.9z"/>
		<path d="M667.5,295.4c-1.5,4.6-3.7,8.1-6.8,10.6c-3.1,2.5-7.3,3.9-12.6,4.3l-1-6.9c3.4-0.5,6-1.3,7.6-2.5c1.6-1.2,2.9-3,4-5.6
			h-3.3L644,259.3h10.3l7.2,29.8l7.6-29.8h10L667.5,295.4z"/>
	</g>
</g>
<g>
	<g>
		<path class="st1" d="M1210.4,175.3v6.4c0,2.3-1.9,4.2-4.2,4.2h-39.7c-2.3,0-4.2-1.9-4.2-4.2v-34.3v-34.4v-8.1
			c0-2.3,1.9-4.2,4.2-4.2h39.7c2.3,0,4.2,1.9,4.2,4.2v58.8"/>
		<path class="st2" d="M1168.1,152.3v24.1c0,2.2,1.7,4.1,3.8,4.1h28.9c2.1,0,3.8-1.8,3.8-4.1V163v-9.7v-43c0-2.2-1.7-4.1-3.8-4.1
			h-7.6l-1.3,3.3h-11.2l-1.1-3.3h-7.7c-2.1,0-3.8,1.8-3.8,4.1v6.4v26.5"/>
	</g>
	<g>
		<path class="st6" d="M1188.2,128.2v1.6c2.2,0,6.2,0.9,6.2,2.2c0,0.6-0.9,2.1-1.3,2.1c-0.6,0-2-1.4-5-1.5v9.2
			c3.5,1.3,7.5,2.7,7.5,8.1c0,4.5-2.9,7.3-7.5,7.7v2c0,0.4-0.2,0.6-0.8,0.6c-0.6,0-0.8-0.2-0.8-0.6v-1.9c-4.4-0.1-7.8-1.8-7.8-2.9
			c0-0.6,0.9-2.1,1.4-2.1c0.5,0,2.6,2,6.4,2.2v-10.2c-3.5-1.3-7.3-2.7-7.3-7.8c0-3.9,2.8-6.5,7.3-7v-1.7c0-0.4,0.2-0.6,0.8-0.6
			C1187.9,127.6,1188.2,127.8,1188.2,128.2z M1182.9,137c0,2.2,1.6,3.3,3.7,4.2v-8.5C1184.4,133.1,1182.9,134.5,1182.9,137z
			 M1188.2,154.7c2.3-0.4,3.9-2.2,3.9-4.8c0-2.5-1.8-3.7-3.9-4.6V154.7z"/>
	</g>
</g>
<g>
	<path d="M1236.6,151.7l3.3-20.9l7.6,16.7l7.7-16.7l3.1,20.9h-2.3l-1.9-13.8l-6.7,14.6l-6.6-14.6l-2,13.8H1236.6z"/>
	<path d="M1261.6,145.6c0-3.7,2.8-6.5,6.5-6.5s6.5,2.8,6.5,6.5c0,3.7-2.8,6.5-6.5,6.5C1264.4,152.1,1261.6,149.3,1261.6,145.6z
		 M1263.8,145.6c0,3,2.1,4.6,4.3,4.6c2.2,0,4.3-1.6,4.3-4.6c0-3-2.1-4.6-4.3-4.6S1263.8,142.6,1263.8,145.6z"/>
	<path d="M1280.1,151.7h-2.1v-21.6h2.1v11c1.5-1.8,3.3-2,4.2-2c3.9,0,6,3.2,6,6.5c0,3.4-2.2,6.4-5.9,6.4c-2,0-3.4-0.9-4.3-2.1V151.7
		z M1288.1,145.6c0-3-2-4.6-4-4.6s-4.1,1.6-4.1,4.6c0,2.5,1.6,4.6,4.1,4.6C1286.6,150.2,1288.1,148.1,1288.1,145.6z"/>
	<path d="M1294.6,133.2c0.8,0,1.5,0.7,1.5,1.5s-0.7,1.5-1.5,1.5s-1.5-0.7-1.5-1.5S1293.8,133.2,1294.6,133.2z M1295.7,139.4v12.3
		h-2.1v-12.3H1295.7z"/>
	<path d="M1301.9,130.1v21.6h-2.1v-21.6H1301.9z"/>
	<path d="M1316.8,148.6c-0.4,0.7-0.9,1.4-1.5,2c-1.1,1-2.5,1.5-4.1,1.5c-3,0-6.1-1.9-6.1-6.4c0-3.7,2.3-6.5,6-6.5
		c2.4,0,3.9,1.2,4.7,2.3c0.8,1.1,1.2,3,1.2,4.6h-9.6c0,2.6,1.8,4.2,3.9,4.2c1,0,1.8-0.3,2.5-0.9c0.6-0.5,1-1.1,1.3-1.7L1316.8,148.6
		z M1314.7,144.2c-0.4-1.9-1.8-3.2-3.6-3.2c-1.8,0-3.3,1.4-3.6,3.2H1314.7z"/>
	<path d="M1327.1,139.4h2.1v1.3c0.7-1,1.8-1.6,3.1-1.6c2.2,0,3.1,1.6,3.4,2c1.2-1.9,2.9-2,3.7-2c3.7,0,4,3.1,4,4.8v7.8h-2.1v-7.5
		c0-1.4-0.2-3.2-2.2-3.2c-2.5,0-2.7,2.4-2.7,3.9v6.9h-2.1v-7.3c0-0.9,0-3.4-2.2-3.4c-2.4,0-2.7,2.5-2.7,4v6.7h-2.1V139.4z"/>
	<path d="M1346.7,145.6c0-3.7,2.8-6.5,6.5-6.5c3.8,0,6.5,2.8,6.5,6.5c0,3.7-2.8,6.5-6.5,6.5C1349.4,152.1,1346.7,149.3,1346.7,145.6
		z M1348.9,145.6c0,3,2.1,4.6,4.3,4.6c2.2,0,4.3-1.6,4.3-4.6c0-3-2.1-4.6-4.3-4.6C1350.9,141,1348.9,142.6,1348.9,145.6z"/>
	<path d="M1363,139.4h2.1v1.4c0.4-0.5,1.5-1.7,3.5-1.7c1.5,0,2.8,0.6,3.5,1.7c0.6,0.9,0.7,1.9,0.7,3.3v7.6h-2.1v-7.6
		c0-0.7-0.1-1.6-0.6-2.3c-0.4-0.5-1.1-0.9-2-0.9c-0.7,0-1.5,0.2-2.2,0.9c-0.8,1-0.9,2.4-0.9,3.3v6.4h-2.1V139.4z"/>
	<path d="M1387.9,148.6c-0.4,0.7-0.9,1.4-1.5,2c-1.1,1-2.5,1.5-4.1,1.5c-3,0-6.1-1.9-6.1-6.4c0-3.7,2.3-6.5,6-6.5
		c2.4,0,3.9,1.2,4.7,2.3c0.8,1.1,1.2,3,1.2,4.6h-9.6c0,2.6,1.8,4.2,3.9,4.2c1,0,1.8-0.3,2.5-0.9c0.6-0.5,1-1.1,1.3-1.7L1387.9,148.6
		z M1385.7,144.2c-0.4-1.9-1.8-3.2-3.6-3.2s-3.3,1.4-3.6,3.2H1385.7z"/>
	<path d="M1395.1,150.5l-5.7-11.2h2.4l4.4,8.8l4-8.8h2.4l-9.1,19.1h-2.4L1395.1,150.5z"/>
</g>
<g>
	<g>
		<polygon class="st8" points="956.8,339.5 966.9,345.1 976.7,339.5 966.9,334.4 		"/>
		<line class="st9" x1="976.6" y1="347.3" x2="976.7" y2="339.5"/>
		<polyline class="st9" points="956.8,339.5 956.8,350.9 966.8,356.6 972.9,353.4 		"/>
		<line class="st9" x1="966.9" y1="345.1" x2="966.9" y2="355.8"/>
	</g>
	<g>
		<polygon class="st8" points="1008.6,339.5 1018.6,345.1 1028.4,339.5 1018.6,334.4 		"/>
		<line class="st9" x1="1028.4" y1="344.9" x2="1028.4" y2="339.5"/>
		<polyline class="st9" points="1008.6,339.5 1008.6,350.9 1018.5,356.6 1028.3,351.5 1028.3,348 		"/>
		<line class="st9" x1="1018.6" y1="345.1" x2="1018.6" y2="355.8"/>
	</g>
	<line class="st0" x1="971.5" y1="348" x2="986.7" y2="357.7"/>
	<line class="st2" x1="997.6" y1="357.3" x2="1014" y2="347.8"/>
	<g>
		<polygon class="st8" points="982.2,359.8 992.2,365.5 1002.1,359.8 992.2,354.8 		"/>
		<polyline class="st9" points="996.1,374.9 1001.9,371.8 1002.1,359.8 		"/>
		<polyline class="st9" points="982.2,359.8 982.2,371.2 988.7,375 		"/>
		<line class="st9" x1="992.2" y1="365.5" x2="992.2" y2="373.5"/>
	</g>
</g>
<g>
	<path d="M1078.7,347.6c-0.6-0.6-1.6-1.4-2.6-1.8c-1-0.5-2.3-0.8-3.4-0.8c-4.6,0-8,3.7-8,8.3c0,5.4,4.4,8.1,8,8.1
		c1.3,0,2.6-0.4,3.7-0.9c1.1-0.6,1.9-1.3,2.3-1.7v2.7c-2.2,1.6-4.5,1.9-6,1.9c-5.9,0-10.2-4.5-10.2-10.2c0-5.9,4.4-10.3,10.4-10.3
		c1.2,0,3.5,0.1,5.8,2V347.6z"/>
	<path d="M1082.2,350.7h2.1v1.3c0.2-0.3,1.1-1.6,2.8-1.6c0.7,0,1.4,0.2,1.9,0.5l-1,1.9c-0.5-0.3-0.9-0.4-1.2-0.4
		c-0.9,0-1.4,0.4-1.7,0.8c-0.4,0.5-0.7,1.3-0.7,3.3v6.5h-2.1V350.7z"/>
	<path d="M1095.8,361.9l-5.7-11.2h2.4l4.4,8.8l4-8.8h2.4l-9.1,19.1h-2.4L1095.8,361.9z"/>
	<path d="M1107.7,369.9h-2.1v-19.1h2.1v1.7c1.5-1.8,3.3-2,4.2-2c3.9,0,6,3.2,6,6.5c0,3.4-2.2,6.4-5.9,6.4c-2,0-3.4-0.9-4.3-2.1
		V369.9z M1115.7,357c0-3-2-4.6-4-4.6s-4.1,1.6-4.1,4.6c0,2.5,1.6,4.6,4.1,4.6C1114.2,361.5,1115.7,359.4,1115.7,357z"/>
	<path d="M1123.4,352.7v10.4h-2.1v-10.4h-1.3v-2h1.3v-4.5h2.1v4.5h2.1v2H1123.4z"/>
	<path d="M1126.8,356.9c0-3.7,2.8-6.5,6.5-6.5c3.8,0,6.5,2.8,6.5,6.5c0,3.7-2.8,6.5-6.5,6.5C1129.6,363.4,1126.8,360.7,1126.8,356.9
		z M1129,356.9c0,3,2.1,4.6,4.3,4.6c2.2,0,4.3-1.6,4.3-4.6c0-3-2.1-4.6-4.3-4.6C1131.1,352.3,1129,354,1129,356.9z"/>
	<path d="M1152.7,354.2c-1.1-1.4-2.8-1.8-3.9-1.8c-2.3,0-4.4,1.6-4.4,4.6c0,3,2.1,4.6,4.3,4.6c1.3,0,2.8-0.6,4-1.9v2.6
		c-1.3,1-2.8,1.3-3.9,1.3c-3.8,0-6.6-2.7-6.6-6.4c0-3.8,2.8-6.5,6.6-6.5c2,0,3.2,0.8,3.8,1.2V354.2z"/>
	<path d="M1158.2,357.9c0,0.9,0,1.9,0.6,2.6c0.3,0.4,1,1,2.2,1s1.8-0.5,2.2-1c0.6-0.8,0.6-1.8,0.6-2.6v-7.2h2.1v7.4
		c0,1.5-0.1,2.6-1.1,3.7c-1.1,1.2-2.6,1.5-3.8,1.5s-2.7-0.4-3.8-1.5c-1-1.1-1.1-2.2-1.1-3.7v-7.4h2.1V357.9z"/>
	<path d="M1169.9,350.7h2.1v1.3c0.2-0.3,1.1-1.6,2.8-1.6c0.7,0,1.4,0.2,1.9,0.5l-1,1.9c-0.5-0.3-0.9-0.4-1.2-0.4
		c-0.9,0-1.4,0.4-1.7,0.8c-0.4,0.5-0.7,1.3-0.7,3.3v6.5h-2.1V350.7z"/>
	<path d="M1178.7,350.7h2.1v1.3c0.2-0.3,1.1-1.6,2.8-1.6c0.7,0,1.4,0.2,1.9,0.5l-1,1.9c-0.5-0.3-0.9-0.4-1.2-0.4
		c-0.9,0-1.4,0.4-1.7,0.8c-0.4,0.5-0.7,1.3-0.7,3.3v6.5h-2.1V350.7z"/>
	<path d="M1197.7,359.9c-0.4,0.7-0.9,1.4-1.5,2c-1.1,1-2.5,1.5-4.1,1.5c-3,0-6.1-1.9-6.1-6.4c0-3.7,2.3-6.5,6-6.5
		c2.4,0,3.9,1.2,4.7,2.3c0.8,1.1,1.2,3,1.2,4.6h-9.6c0,2.6,1.8,4.2,3.9,4.2c1,0,1.8-0.3,2.5-0.9c0.6-0.5,1-1.1,1.3-1.7L1197.7,359.9
		z M1195.6,355.6c-0.4-1.9-1.8-3.2-3.6-3.2c-1.8,0-3.3,1.4-3.6,3.2H1195.6z"/>
	<path d="M1201.1,350.7h2.1v1.4c0.4-0.5,1.5-1.7,3.5-1.7c1.5,0,2.8,0.6,3.5,1.7c0.6,0.9,0.7,1.9,0.7,3.3v7.6h-2.1v-7.6
		c0-0.7-0.1-1.6-0.6-2.3c-0.4-0.5-1.1-0.9-2-0.9c-0.7,0-1.5,0.2-2.2,0.9c-0.8,1-0.9,2.4-0.9,3.3v6.4h-2.1V350.7z"/>
	<path d="M1224.7,354.2c-1.1-1.4-2.8-1.8-3.9-1.8c-2.3,0-4.4,1.6-4.4,4.6c0,3,2.1,4.6,4.3,4.6c1.3,0,2.8-0.6,4-1.9v2.6
		c-1.3,1-2.8,1.3-3.9,1.3c-3.8,0-6.6-2.7-6.6-6.4c0-3.8,2.8-6.5,6.6-6.5c2,0,3.2,0.8,3.8,1.2V354.2z"/>
	<path d="M1231.9,361.9l-5.7-11.2h2.4l4.4,8.8l4-8.8h2.4l-9.1,19.1h-2.4L1231.9,361.9z"/>
	<path d="M1259.5,359.9c-0.4,0.7-0.9,1.4-1.5,2c-1.1,1-2.5,1.5-4.1,1.5c-3,0-6.1-1.9-6.1-6.4c0-3.7,2.3-6.5,6-6.5
		c2.4,0,3.9,1.2,4.7,2.3c0.8,1.1,1.2,3,1.2,4.6h-9.6c0,2.6,1.8,4.2,3.9,4.2c1,0,1.8-0.3,2.5-0.9c0.6-0.5,1-1.1,1.3-1.7L1259.5,359.9
		z M1257.4,355.6c-0.4-1.9-1.8-3.2-3.6-3.2s-3.3,1.4-3.6,3.2H1257.4z"/>
	<path d="M1266.3,356.5l-4.5-5.7h2.6l3.2,4.2l3.2-4.2h2.6l-4.5,5.8l5.1,6.6h-2.6l-3.9-5l-3.9,5h-2.6L1266.3,356.5z"/>
	<path d="M1286,354.2c-1.1-1.4-2.8-1.8-3.9-1.8c-2.3,0-4.4,1.6-4.4,4.6c0,3,2.1,4.6,4.3,4.6c1.3,0,2.8-0.6,4-1.9v2.6
		c-1.3,1-2.8,1.3-3.9,1.3c-3.8,0-6.6-2.7-6.6-6.4c0-3.8,2.8-6.5,6.6-6.5c2,0,3.2,0.8,3.8,1.2V354.2z"/>
	<path d="M1289.3,341.4h2.1v10.7c0.4-0.5,1.5-1.7,3.5-1.7c1.5,0,2.8,0.6,3.5,1.7c0.6,0.9,0.7,1.9,0.7,3.3v7.6h-2.1v-7.6
		c0-0.7-0.1-1.6-0.6-2.3c-0.4-0.5-1.1-0.9-2-0.9c-0.7,0-1.5,0.2-2.2,0.9c-0.8,1-0.9,2.4-0.9,3.3v6.4h-2.1V341.4z"/>
	<path d="M1312.7,350.7h2.1v12.3h-2.1v-1.7c-0.7,0.9-2,2.1-4.2,2.1c-3.1,0-6-2.2-6-6.5c0-4.2,2.8-6.4,6-6.4c2.4,0,3.7,1.3,4.2,2
		V350.7z M1304.7,356.9c0,2.6,1.5,4.6,4,4.6c2.6,0,4.1-2.2,4.1-4.6c0-3.2-2.2-4.6-4.1-4.6C1306.6,352.3,1304.7,353.9,1304.7,356.9z"
		/>
	<path d="M1318.9,350.7h2.1v1.4c0.4-0.5,1.5-1.7,3.5-1.7c1.5,0,2.8,0.6,3.5,1.7c0.6,0.9,0.7,1.9,0.7,3.3v7.6h-2.1v-7.6
		c0-0.7-0.1-1.6-0.6-2.3c-0.4-0.5-1.1-0.9-2-0.9c-0.7,0-1.5,0.2-2.2,0.9c-0.8,1-0.9,2.4-0.9,3.3v6.4h-2.1V350.7z"/>
	<path d="M1342.3,350.7h2.1v12c0,1.3,0,3.2-1.2,4.8c-0.9,1.2-2.6,2.3-4.9,2.3c-2.1,0-3.6-0.8-4.4-1.7s-1.6-2.2-1.6-4h2.1
		c0,1,0.4,2,0.9,2.6c0.9,1,2,1.2,3,1.2c1.5,0,2.6-0.5,3.3-1.7c0.6-1,0.7-2.1,0.7-3.1v-1.8c-0.7,0.9-2,2.1-4.2,2.1
		c-1.8,0-3.3-0.7-4.2-1.7c-0.8-0.8-1.8-2.4-1.8-4.9c0-2.4,0.9-3.9,1.8-4.8c1-1,2.6-1.7,4.2-1.7c1.8,0,3.2,0.8,4.2,2V350.7z
		 M1335.5,353.5c-1,1.1-1.2,2.4-1.2,3.4c0,1.1,0.2,2.5,1.4,3.6c0.7,0.6,1.5,1,2.6,1s2-0.4,2.7-1c0.8-0.8,1.4-2.1,1.4-3.6
		s-0.5-2.7-1.3-3.5c-0.7-0.7-1.7-1.1-2.8-1.1C1337,352.3,1336.1,352.9,1335.5,353.5z"/>
	<path d="M1359.4,359.9c-0.4,0.7-0.9,1.4-1.5,2c-1.1,1-2.5,1.5-4.1,1.5c-3,0-6.1-1.9-6.1-6.4c0-3.7,2.3-6.5,6-6.5
		c2.4,0,3.9,1.2,4.7,2.3c0.8,1.1,1.2,3,1.2,4.6h-9.6c0,2.6,1.8,4.2,3.9,4.2c1,0,1.8-0.3,2.5-0.9c0.6-0.5,1-1.1,1.3-1.7L1359.4,359.9
		z M1357.3,355.6c-0.4-1.9-1.8-3.2-3.6-3.2s-3.3,1.4-3.6,3.2H1357.3z"/>
</g>
<g>
	<path d="M1390.2,252.7h8.3v0.5c0,2.2-0.7,4.6-1.9,6.3c-0.6,0.8-2.8,3.6-7.4,3.6c-5.9,0-10.3-4.5-10.3-10.2
		c0-5.8,4.4-10.2,10.3-10.2c1.9,0,4.1,0.5,6.1,2c0.9,0.7,1.7,1.6,2.3,2.3l-1.6,1.5c-0.6-0.8-1.2-1.5-1.9-2c-0.9-0.8-2.4-1.7-4.8-1.7
		c-4.8,0-8.1,3.6-8.1,8.2c0,5.4,4.3,8.1,8,8.1c2.6,0,4.9-1.3,6.1-3.3c0.4-0.6,0.7-1.6,0.8-2.8h-5.9V252.7z"/>
	<path d="M1403,244.1c0.8,0,1.5,0.7,1.5,1.5s-0.7,1.5-1.5,1.5c-0.8,0-1.5-0.7-1.5-1.5S1402.1,244.1,1403,244.1z M1404,250.3v12.3
		h-2.1v-12.3H1404z"/>
	<path d="M1410.3,252.3v10.4h-2.1v-10.4h-1.2v-2h1.2v-5.4c0-1.1,0.1-2.6,1.2-3.5c0.6-0.5,1.5-0.8,2.5-0.8c0.8,0,1.3,0.2,1.5,0.3v2.1
		c-0.4-0.2-0.9-0.3-1.4-0.3c-0.5,0-1,0.1-1.4,0.7c-0.3,0.4-0.3,1.1-0.3,1.8v5.1h3v2H1410.3z"/>
	<path d="M1418,252.3v10.4h-2.1v-10.4h-1.3v-2h1.3v-4.5h2.1v4.5h2.1v2H1418z"/>
	<path d="M1438.7,253.7c-1.1-1.4-2.8-1.8-3.9-1.8c-2.3,0-4.4,1.6-4.4,4.6c0,3,2.1,4.6,4.3,4.6c1.3,0,2.8-0.6,4-1.9v2.6
		c-1.3,1-2.8,1.3-3.9,1.3c-3.8,0-6.6-2.7-6.6-6.4c0-3.8,2.8-6.5,6.6-6.5c2,0,3.2,0.8,3.8,1.2V253.7z"/>
	<path d="M1451.5,250.3h2.1v12.3h-2.1v-1.7c-0.7,0.9-2,2.1-4.2,2.1c-3.1,0-6-2.2-6-6.5c0-4.2,2.8-6.4,6-6.4c2.4,0,3.7,1.3,4.2,2
		V250.3z M1443.5,256.4c0,2.6,1.5,4.6,4,4.6c2.6,0,4.1-2.2,4.1-4.6c0-3.2-2.2-4.6-4.1-4.6C1445.4,251.9,1443.5,253.4,1443.5,256.4z"
		/>
	<path d="M1457.7,250.3h2.1v1.3c0.2-0.3,1.1-1.6,2.8-1.6c0.7,0,1.4,0.2,1.9,0.5l-1,1.9c-0.5-0.3-0.9-0.4-1.2-0.4
		c-0.9,0-1.4,0.4-1.7,0.8c-0.4,0.5-0.7,1.3-0.7,3.3v6.5h-2.1V250.3z"/>
	<path d="M1475.2,241h2.1v21.6h-2.1v-1.7c-0.7,0.9-2,2.1-4.2,2.1c-3.1,0-6-2.2-6-6.5c0-4.2,2.8-6.4,6-6.4c2.4,0,3.7,1.3,4.2,2V241z
		 M1467.2,256.4c0,2.6,1.5,4.6,4,4.6c2.6,0,4.1-2.2,4.1-4.6c0-3.2-2.2-4.6-4.1-4.6C1469.1,251.9,1467.2,253.4,1467.2,256.4z"/>
	<path d="M1486.4,253.1c-0.3-0.7-0.9-1.2-1.7-1.2c-0.8,0-1.5,0.4-1.5,1.4c0,0.9,0.6,1.2,2,1.8c1.8,0.7,2.6,1.3,3.1,1.9
		c0.5,0.7,0.7,1.3,0.7,2c0,2.6-1.9,4-4.2,4c-0.5,0-3.3-0.1-4.3-3.1l1.8-0.8c0.2,0.7,0.9,2,2.5,2c1.4,0,2-1,2-2c0-1.2-0.8-1.5-2-2
		c-1.5-0.7-2.4-1.1-3-1.8c-0.5-0.6-0.6-1.2-0.6-1.8c0-2.2,1.5-3.4,3.6-3.4c0.7,0,2.4,0.1,3.4,2.2L1486.4,253.1z"/>
</g>
<g>
	<path class="st2" d="M1325,286.2c-0.3,0-0.7,0.1-1,0.1h-37.4c-7.4,0-13.4-6-13.4-13.4v-16.8c0-5.4,4.4-9.8,9.8-9.8"/>
	<path class="st8" d="M1329.7,277.8h-33.2c-7.5,0-13.6-6.1-13.6-13.6v-12.7c0-7.5,6.1-13.6,13.6-13.6h33.2c7.5,0,13.6,6.1,13.6,13.6
		v12.7C1343.3,271.7,1337.2,277.8,1329.7,277.8z"/>
	<polygon class="st6" points="1338.2,222.3 1343.6,233.1 1355.6,234.9 1346.9,243.3 1349,255.2 1338.2,249.6 1327.5,255.2 
		1329.6,243.3 1320.9,234.9 1332.9,233.1 	"/>
</g>
<g>
	<path d="M1278.1,447.4c1.3,0,3.3,0.1,4.8,1.1c1.2,0.8,2.2,2.3,2.2,4.4c0,3-2,5.3-5,5.5l6.3,8.8h-2.7l-6-8.7h-0.6v8.7h-2.2v-19.8
		H1278.1z M1277.1,456.6h1.4c2.7,0,4.4-1.3,4.4-3.6c0-1.1-0.3-2.2-1.6-2.9c-0.9-0.5-1.9-0.6-2.8-0.6h-1.3V456.6z"/>
	<path d="M1299.6,464c-0.4,0.7-0.9,1.4-1.5,2c-1.1,1-2.5,1.5-4.1,1.5c-3,0-6.1-1.9-6.1-6.4c0-3.7,2.3-6.5,6-6.5
		c2.4,0,3.9,1.2,4.7,2.3c0.8,1.1,1.2,3,1.2,4.6h-9.6c0,2.6,1.8,4.2,3.9,4.2c1,0,1.8-0.3,2.5-0.9c0.6-0.5,1-1.1,1.3-1.7L1299.6,464z
		 M1297.5,459.7c-0.4-1.9-1.8-3.2-3.6-3.2c-1.8,0-3.3,1.4-3.6,3.2H1297.5z"/>
	<path d="M1303,454.9h2.1v1.3c0.7-1,1.8-1.6,3.1-1.6c2.2,0,3.1,1.6,3.4,2c1.2-1.9,2.9-2,3.7-2c3.7,0,4,3.1,4,4.8v7.8h-2.1v-7.5
		c0-1.4-0.2-3.2-2.2-3.2c-2.5,0-2.7,2.4-2.7,3.9v6.9h-2.1v-7.3c0-0.9,0-3.4-2.2-3.4c-2.4,0-2.7,2.5-2.7,4v6.7h-2.1V454.9z"/>
	<path d="M1324.4,448.7c0.8,0,1.5,0.7,1.5,1.5s-0.7,1.5-1.5,1.5s-1.5-0.7-1.5-1.5S1323.6,448.7,1324.4,448.7z M1325.5,454.9v12.3
		h-2.1v-12.3H1325.5z"/>
	<path d="M1331.7,456.8v10.4h-2.1v-10.4h-1.3v-2h1.3v-4.5h2.1v4.5h2.1v2H1331.7z"/>
	<path d="M1338.6,456.8v10.4h-2.1v-10.4h-1.3v-2h1.3v-4.5h2.1v4.5h2.1v2H1338.6z"/>
	<path d="M1352.2,454.9h2.1v12.3h-2.1v-1.7c-0.7,0.9-2,2.1-4.2,2.1c-3.1,0-6-2.2-6-6.5c0-4.2,2.8-6.4,6-6.4c2.4,0,3.7,1.3,4.2,2
		V454.9z M1344.2,461c0,2.6,1.5,4.6,4,4.6c2.6,0,4.1-2.2,4.1-4.6c0-3.2-2.2-4.6-4.1-4.6C1346.1,456.5,1344.2,458,1344.2,461z"/>
	<path d="M1358.4,454.9h2.1v1.4c0.4-0.5,1.5-1.7,3.5-1.7c1.5,0,2.8,0.6,3.5,1.7c0.6,0.9,0.7,1.9,0.7,3.3v7.6h-2.1v-7.6
		c0-0.7-0.1-1.6-0.6-2.3c-0.4-0.5-1.1-0.9-2-0.9c-0.7,0-1.5,0.2-2.2,0.9c-0.8,1-0.9,2.4-0.9,3.3v6.4h-2.1V454.9z"/>
	<path d="M1382,458.3c-1.1-1.4-2.8-1.8-3.9-1.8c-2.3,0-4.4,1.6-4.4,4.6c0,3,2.1,4.6,4.3,4.6c1.3,0,2.8-0.6,4-1.9v2.6
		c-1.3,1-2.8,1.3-3.9,1.3c-3.8,0-6.6-2.7-6.6-6.4c0-3.8,2.8-6.5,6.6-6.5c2,0,3.2,0.8,3.8,1.2V458.3z"/>
	<path d="M1396.3,464c-0.4,0.7-0.9,1.4-1.5,2c-1.1,1-2.5,1.5-4.1,1.5c-3,0-6.1-1.9-6.1-6.4c0-3.7,2.3-6.5,6-6.5
		c2.4,0,3.9,1.2,4.7,2.3c0.8,1.1,1.2,3,1.2,4.6h-9.6c0,2.6,1.8,4.2,3.9,4.2c1,0,1.8-0.3,2.5-0.9c0.6-0.5,1-1.1,1.3-1.7L1396.3,464z
		 M1394.2,459.7c-0.4-1.9-1.8-3.2-3.6-3.2c-1.8,0-3.3,1.4-3.6,3.2H1394.2z"/>
	<path d="M1404.7,457.7c-0.3-0.7-0.9-1.2-1.7-1.2c-0.8,0-1.5,0.4-1.5,1.4c0,0.9,0.6,1.2,2,1.8c1.8,0.7,2.6,1.3,3.1,1.9
		c0.5,0.7,0.7,1.3,0.7,2c0,2.6-1.9,4-4.2,4c-0.5,0-3.3-0.1-4.3-3.1l1.8-0.8c0.2,0.7,0.9,2,2.5,2c1.4,0,2-1,2-2c0-1.2-0.8-1.5-2-2
		c-1.5-0.7-2.4-1.1-3-1.8c-0.5-0.6-0.6-1.2-0.6-1.8c0-2.2,1.5-3.4,3.6-3.4c0.7,0,2.4,0.1,3.4,2.2L1404.7,457.7z"/>
</g>
<g>
	<g>
		<path class="st1" d="M1207.9,431.8c3.8-1.9,8.1-3,12.7-3c15.6,0,28.3,12.7,28.3,28.3s-12.7,28.3-28.3,28.3
			c-15.6,0-28.3-12.7-28.3-28.3c0-8.3,3.6-15.7,9.2-20.9"/>
		<g>
			<path class="st0" d="M1236.7,446.8c0.7,1,1.3,2.1,1.7,3.3c4,9.8-0.7,21-10.5,25c-9.8,4-21-0.7-25-10.5s0.7-21,10.5-25
				c5.5-2.2,11.4-1.7,16.3,0.9"/>
			<g>
				<path class="st6" d="M1216.8,445.6l0.5,1.2c1.7-0.7,4.9-1.2,5.3-0.2c0.2,0.4,0,1.8-0.3,1.9c-0.4,0.2-1.9-0.4-4.2,0.4l2.8,6.9
					c3-0.1,6.4-0.3,8.1,3.8c1.4,3.4,0.1,6.4-3.3,8.1l0.6,1.5c0.1,0.3,0,0.5-0.4,0.7c-0.4,0.2-0.6,0.1-0.8-0.2l-0.6-1.4
					c-3.4,1.3-6.4,1-6.7,0.2c-0.2-0.5,0.1-1.9,0.4-2c0.4-0.1,2.6,0.7,5.5-0.3l-3.1-7.6c-3,0.1-6.3,0.2-7.8-3.6
					c-1.2-2.9,0.1-5.8,3.3-7.5l-0.5-1.2c-0.1-0.3,0-0.5,0.4-0.7C1216.4,445.2,1216.6,445.3,1216.8,445.6z M1215.5,453.8
					c0.7,1.7,2.2,2,4,2l-2.6-6.3C1215.4,450.4,1214.7,451.9,1215.5,453.8z M1224.8,465.4c1.6-1,2.3-2.9,1.5-4.8
					c-0.8-1.9-2.4-2.2-4.4-2.2L1224.8,465.4z"/>
			</g>
		</g>
		<circle class="st10" cx="1228.7" cy="475.4" r="5.1"/>
		<path class="st5" d="M1226.8,476.5c-10.6,16.2-29.4,14.5-37.3,6.4c-8.4-8.7-6.9-21.6,0.4-32"/>
	</g>
</g>
<g>
	<g>
		<path d="M847.5,89.1h4c2,0,4.8,0.2,7.3,2.3c1.8,1.5,3.4,4,3.4,7.6c0,4.2-2,6.4-3.5,7.6c-1.8,1.5-3.7,2.3-7.2,2.3h-4V89.1z
			 M849.7,106.9h1.9c1.6,0,3.7-0.2,5.7-1.8c1.5-1.2,2.7-3.2,2.7-6c0-4.7-3.3-7.8-8.3-7.8h-1.9V106.9z"/>
		<path d="M866.8,90.4c0.8,0,1.5,0.7,1.5,1.5s-0.7,1.5-1.5,1.5c-0.8,0-1.5-0.7-1.5-1.5S866,90.4,866.8,90.4z M867.9,96.6v12.3h-2.1
			V96.6H867.9z"/>
		<path d="M881.4,96.6h2.1v12c0,1.3,0,3.2-1.2,4.8c-0.9,1.2-2.6,2.3-4.9,2.3c-2.1,0-3.6-0.8-4.4-1.7c-0.8-0.8-1.6-2.2-1.6-4h2.1
			c0,1,0.4,2,0.9,2.6c0.9,1,2,1.2,3,1.2c1.5,0,2.6-0.5,3.3-1.7c0.6-1,0.7-2.1,0.7-3.1v-1.8c-0.7,0.9-2,2.1-4.2,2.1
			c-1.8,0-3.3-0.7-4.2-1.7c-0.8-0.8-1.8-2.4-1.8-4.9c0-2.4,0.9-3.9,1.8-4.8c1-1,2.6-1.7,4.2-1.7c1.8,0,3.2,0.8,4.2,2V96.6z
			 M874.6,99.4c-1,1.1-1.2,2.4-1.2,3.4c0,1.1,0.2,2.5,1.4,3.6c0.7,0.6,1.5,1,2.6,1c1.1,0,2-0.4,2.7-1c0.8-0.8,1.4-2.1,1.4-3.6
			s-0.5-2.7-1.3-3.5c-0.7-0.7-1.7-1.1-2.8-1.1C876.1,98.2,875.2,98.8,874.6,99.4z"/>
		<path d="M888.6,90.4c0.8,0,1.5,0.7,1.5,1.5s-0.7,1.5-1.5,1.5s-1.5-0.7-1.5-1.5S887.8,90.4,888.6,90.4z M889.7,96.6v12.3h-2.1V96.6
			H889.7z"/>
		<path d="M895.9,98.6v10.4h-2.1V98.6h-1.3v-2h1.3v-4.5h2.1v4.5h2.1v2H895.9z"/>
		<path d="M909.5,96.6h2.1v12.3h-2.1v-1.7c-0.7,0.9-2,2.1-4.2,2.1c-3.1,0-6-2.2-6-6.5c0-4.2,2.8-6.4,6-6.4c2.4,0,3.7,1.3,4.2,2V96.6
			z M901.5,102.8c0,2.6,1.5,4.6,4,4.6c2.6,0,4.1-2.2,4.1-4.6c0-3.2-2.2-4.6-4.1-4.6C903.4,98.2,901.5,99.8,901.5,102.8z"/>
		<path d="M917.8,87.3v21.6h-2.1V87.3H917.8z"/>
		<path d="M938.2,96.6h2.1v12c0,1.3,0,3.2-1.2,4.8c-0.9,1.2-2.6,2.3-4.9,2.3c-2.1,0-3.6-0.8-4.4-1.7s-1.6-2.2-1.6-4h2.1
			c0,1,0.4,2,0.9,2.6c0.9,1,2,1.2,3,1.2c1.5,0,2.6-0.5,3.3-1.7c0.6-1,0.7-2.1,0.7-3.1v-1.8c-0.7,0.9-2,2.1-4.2,2.1
			c-1.8,0-3.3-0.7-4.2-1.7c-0.8-0.8-1.8-2.4-1.8-4.9c0-2.4,0.9-3.9,1.8-4.8c1-1,2.6-1.7,4.2-1.7c1.8,0,3.2,0.8,4.2,2V96.6z
			 M931.4,99.4c-1,1.1-1.2,2.4-1.2,3.4c0,1.1,0.2,2.5,1.4,3.6c0.7,0.6,1.5,1,2.6,1s2-0.4,2.7-1c0.8-0.8,1.4-2.1,1.4-3.6
			s-0.5-2.7-1.3-3.5c-0.7-0.7-1.7-1.1-2.8-1.1C932.9,98.2,932,98.8,931.4,99.4z"/>
		<path d="M943.6,102.8c0-3.7,2.8-6.5,6.5-6.5c3.8,0,6.5,2.8,6.5,6.5c0,3.7-2.8,6.5-6.5,6.5C946.4,109.3,943.6,106.6,943.6,102.8z
			 M945.8,102.8c0,3,2.1,4.6,4.3,4.6c2.2,0,4.3-1.6,4.3-4.6c0-3-2.1-4.6-4.3-4.6C947.9,98.2,945.8,99.8,945.8,102.8z"/>
		<path d="M959.2,102.8c0-3.7,2.8-6.5,6.5-6.5c3.8,0,6.5,2.8,6.5,6.5c0,3.7-2.8,6.5-6.5,6.5C962,109.3,959.2,106.6,959.2,102.8z
			 M961.4,102.8c0,3,2.1,4.6,4.3,4.6c2.2,0,4.3-1.6,4.3-4.6c0-3-2.1-4.6-4.3-4.6C963.4,98.2,961.4,99.8,961.4,102.8z"/>
		<path d="M984.9,87.3h2.1v21.6h-2.1v-1.7c-0.7,0.9-2,2.1-4.2,2.1c-3.1,0-6-2.2-6-6.5c0-4.2,2.8-6.4,6-6.4c2.4,0,3.7,1.3,4.2,2V87.3
			z M976.9,102.8c0,2.6,1.5,4.6,4,4.6c2.6,0,4.1-2.2,4.1-4.6c0-3.2-2.2-4.6-4.1-4.6C978.8,98.2,976.9,99.8,976.9,102.8z"/>
		<path d="M996.2,99.5c-0.3-0.7-0.9-1.2-1.7-1.2c-0.8,0-1.5,0.4-1.5,1.4c0,0.9,0.6,1.2,2,1.8c1.8,0.7,2.6,1.3,3.1,1.9
			c0.5,0.7,0.7,1.3,0.7,2c0,2.6-1.9,4-4.2,4c-0.5,0-3.3-0.1-4.3-3.1l1.8-0.8c0.2,0.7,0.9,2,2.5,2c1.4,0,2-1,2-2c0-1.2-0.8-1.5-2-2
			c-1.5-0.7-2.4-1.1-3-1.8c-0.5-0.6-0.6-1.2-0.6-1.8c0-2.2,1.5-3.4,3.6-3.4c0.7,0,2.4,0.1,3.4,2.2L996.2,99.5z"/>
	</g>
</g>
<g>
	<path class="st1" d="M741.7,65.1l11.4,4.2c0,0,0,37.5,0,43.5s2.9,9.1,8.9,9.1c4.5,0,30.4,0,42.9,0"/>
	<polyline class="st2" points="808.6,114 761.5,114 761.5,77.9 818.6,85.8 815.6,94.1 	"/>
	<circle class="st4" cx="763.8" cy="131.4" r="4.7"/>
	<circle class="st4" cx="803.6" cy="131.4" r="4.7"/>
	<polygon class="st0" points="811.4,121.1 803.9,97.3 828,104.5 820.1,109.6 829.7,119.2 826.1,122.8 816.5,113.2 	"/>
</g>
<g>
	<path d="M908.9,235.2c0,1.7,0,3.5,1.6,4.8c0.8,0.7,2.2,1.1,3.3,1.1c1.1,0,2.5-0.4,3.3-1.1c1.6-1.3,1.6-3.1,1.6-4.8v-12.1h2.2v12.7
		c0,1.7-0.2,3.3-1.2,4.7c-1.2,1.6-3.3,2.7-5.8,2.7s-4.6-1-5.8-2.7c-1.1-1.5-1.2-3.1-1.2-4.7v-12.7h2.2V235.2z"/>
	<path d="M927.5,232.5v10.4h-2.1v-10.4h-1.3v-2h1.3v-4.5h2.1v4.5h2.1v2H927.5z"/>
	<path d="M932.8,224.4c0.8,0,1.5,0.7,1.5,1.5s-0.7,1.5-1.5,1.5c-0.8,0-1.5-0.7-1.5-1.5S931.9,224.4,932.8,224.4z M933.8,230.5v12.3
		h-2.1v-12.3H933.8z"/>
	<path d="M940,221.2v21.6h-2.1v-21.6H940z"/>
	<path d="M945.1,224.4c0.8,0,1.5,0.7,1.5,1.5s-0.7,1.5-1.5,1.5s-1.5-0.7-1.5-1.5S944.3,224.4,945.1,224.4z M946.2,230.5v12.3h-2.1
		v-12.3H946.2z"/>
	<path d="M952.4,232.5v10.4h-2.1v-10.4H949v-2h1.3v-4.5h2.1v4.5h2.1v2H952.4z"/>
	<path d="M961.4,241.7l-5.7-11.2h2.4l4.4,8.8l4-8.8h2.4l-9.1,19.1h-2.4L961.4,241.7z"/>
	<path d="M980.2,249.7H978v-19.1h2.1v1.7c1.5-1.8,3.3-2,4.2-2c3.9,0,6,3.2,6,6.5c0,3.4-2.2,6.4-5.9,6.4c-2,0-3.4-0.9-4.3-2.1V249.7z
		 M988.2,236.8c0-3-2-4.6-4-4.6s-4.1,1.6-4.1,4.6c0,2.5,1.6,4.6,4.1,4.6C986.7,241.3,988.2,239.2,988.2,236.8z"/>
	<path d="M1003.1,230.5h2.1v12.3h-2.1v-1.7c-0.7,0.9-2,2.1-4.2,2.1c-3.1,0-6-2.2-6-6.5c0-4.2,2.8-6.4,6-6.4c2.4,0,3.7,1.3,4.2,2
		V230.5z M995.1,236.7c0,2.6,1.5,4.6,4,4.6c2.6,0,4.1-2.2,4.1-4.6c0-3.2-2.2-4.6-4.1-4.6C997,232.1,995.1,233.7,995.1,236.7z"/>
	<path d="M1013.1,241.7l-5.7-11.2h2.4l4.4,8.8l4-8.8h2.4l-9.1,19.1h-2.4L1013.1,241.7z"/>
	<path d="M1022.9,230.5h2.1v1.3c0.7-1,1.8-1.6,3.1-1.6c2.2,0,3.1,1.6,3.4,2c1.2-1.9,2.9-2,3.7-2c3.7,0,4,3.1,4,4.8v7.8h-2.1v-7.5
		c0-1.4-0.2-3.2-2.2-3.2c-2.5,0-2.7,2.4-2.7,3.9v6.9h-2.1v-7.3c0-0.9,0-3.4-2.2-3.4c-2.4,0-2.7,2.5-2.7,4v6.7h-2.1V230.5z"/>
	<path d="M1054.2,239.7c-0.4,0.7-0.9,1.4-1.5,2c-1.1,1-2.5,1.5-4.1,1.5c-3,0-6.1-1.9-6.1-6.4c0-3.7,2.3-6.5,6-6.5
		c2.4,0,3.9,1.2,4.7,2.3c0.8,1.1,1.2,3,1.2,4.6h-9.6c0,2.6,1.8,4.2,3.9,4.2c1,0,1.8-0.3,2.5-0.9c0.6-0.5,1-1.1,1.3-1.7L1054.2,239.7
		z M1052.1,235.3c-0.4-1.9-1.8-3.2-3.6-3.2s-3.3,1.4-3.6,3.2H1052.1z"/>
	<path d="M1057.5,230.5h2.1v1.4c0.4-0.5,1.5-1.7,3.5-1.7c1.5,0,2.8,0.6,3.5,1.7c0.6,0.9,0.7,1.9,0.7,3.3v7.6h-2.1v-7.6
		c0-0.7-0.1-1.6-0.6-2.3c-0.4-0.5-1.1-0.9-2-0.9c-0.7,0-1.5,0.2-2.2,0.9c-0.8,1-0.9,2.4-0.9,3.3v6.4h-2.1V230.5z"/>
	<path d="M1073.7,232.5v10.4h-2.1v-10.4h-1.3v-2h1.3v-4.5h2.1v4.5h2.1v2H1073.7z"/>
	<path d="M1082.9,233.4c-0.3-0.7-0.9-1.2-1.7-1.2c-0.8,0-1.5,0.4-1.5,1.4c0,0.9,0.6,1.2,2,1.8c1.8,0.7,2.6,1.3,3.1,1.9
		c0.5,0.7,0.7,1.3,0.7,2c0,2.6-1.9,4-4.2,4c-0.5,0-3.3-0.1-4.3-3.1l1.8-0.8c0.2,0.7,0.9,2,2.5,2c1.4,0,2-1,2-2c0-1.2-0.8-1.5-2-2
		c-1.5-0.7-2.4-1.1-3-1.8c-0.5-0.6-0.6-1.2-0.6-1.8c0-2.2,1.5-3.4,3.6-3.4c0.7,0,2.4,0.1,3.4,2.2L1082.9,233.4z"/>
</g>
<g>
	<polyline class="st2" points="860.4,266.8 860.4,272.5 811.5,272.5 811.5,211.2 	"/>
	<polyline class="st1" points="866.6,266.2 817.7,266.2 817.7,204.8 824.6,204.8 	"/>
	<polygon class="st1" points="873.5,258.3 824.6,258.3 824.6,196.9 862.1,196.9 862.1,207.9 873.5,207.9 	"/>
	<line class="st1" x1="862.6" y1="196.4" x2="874" y2="207.4"/>
	<polyline class="st0" points="861.6,235.4 858,245.1 865.3,242.4 860.7,252.6 	"/>
</g>
<g>
	<path d="M810.2,444l3.3-20.9l7.6,16.7l7.7-16.7l3.1,20.9h-2.3l-1.9-13.8l-6.7,14.6l-6.6-14.6l-2,13.8H810.2z"/>
	<path d="M837,425.5c0.8,0,1.5,0.7,1.5,1.5s-0.7,1.5-1.5,1.5c-0.8,0-1.5-0.7-1.5-1.5S836.2,425.5,837,425.5z M838.1,431.7V444H836
		v-12.3H838.1z"/>
	<path d="M851.8,435.1c-1.1-1.4-2.8-1.8-3.9-1.8c-2.3,0-4.4,1.6-4.4,4.6c0,3,2.1,4.6,4.3,4.6c1.3,0,2.8-0.6,4-1.9v2.6
		c-1.3,1-2.8,1.3-3.9,1.3c-3.8,0-6.6-2.7-6.6-6.4c0-3.8,2.8-6.5,6.6-6.5c2,0,3.2,0.8,3.8,1.2V435.1z"/>
	<path d="M855.1,431.7h2.1v1.3c0.2-0.3,1.1-1.6,2.8-1.6c0.7,0,1.4,0.2,1.9,0.5l-1,1.9c-0.5-0.3-0.9-0.4-1.2-0.4
		c-0.9,0-1.4,0.4-1.7,0.8c-0.4,0.5-0.7,1.3-0.7,3.3v6.5h-2.1V431.7z"/>
	<path d="M862.4,437.9c0-3.7,2.8-6.5,6.5-6.5c3.8,0,6.5,2.8,6.5,6.5c0,3.7-2.8,6.5-6.5,6.5C865.2,444.4,862.4,441.6,862.4,437.9z
		 M864.6,437.9c0,3,2.1,4.6,4.3,4.6c2.2,0,4.3-1.6,4.3-4.6c0-3-2.1-4.6-4.3-4.6C866.7,433.3,864.6,434.9,864.6,437.9z"/>
	<path d="M887.8,450.8h-2.1v-19.1h2.1v1.7c1.5-1.8,3.3-2,4.2-2c3.9,0,6,3.2,6,6.5c0,3.4-2.2,6.4-5.9,6.4c-2,0-3.4-0.9-4.3-2.1V450.8
		z M895.8,437.9c0-3-2-4.6-4-4.6s-4.1,1.6-4.1,4.6c0,2.5,1.6,4.6,4.1,4.6C894.3,442.5,895.8,440.4,895.8,437.9z"/>
	<path d="M910.7,431.7h2.1V444h-2.1v-1.7c-0.7,0.9-2,2.1-4.2,2.1c-3.1,0-6-2.2-6-6.5c0-4.2,2.8-6.4,6-6.4c2.4,0,3.7,1.3,4.2,2V431.7
		z M902.7,437.8c0,2.6,1.5,4.6,4,4.6c2.6,0,4.1-2.2,4.1-4.6c0-3.2-2.2-4.6-4.1-4.6C904.6,433.3,902.7,434.9,902.7,437.8z"/>
	<path d="M920.8,442.9l-5.7-11.2h2.4l4.4,8.8l4-8.8h2.4l-9.1,19.1h-2.4L920.8,442.9z"/>
	<path d="M930.6,431.7h2.1v1.3c0.7-1,1.8-1.6,3.1-1.6c2.2,0,3.1,1.6,3.4,2c1.2-1.9,2.9-2,3.7-2c3.7,0,4,3.1,4,4.8v7.8h-2.1v-7.5
		c0-1.4-0.2-3.2-2.2-3.2c-2.5,0-2.7,2.4-2.7,3.9v6.9h-2.1v-7.3c0-0.9,0-3.4-2.2-3.4c-2.4,0-2.7,2.5-2.7,4v6.7h-2.1V431.7z"/>
	<path d="M961.8,440.9c-0.4,0.7-0.9,1.4-1.5,2c-1.1,1-2.5,1.5-4.1,1.5c-3,0-6.1-1.9-6.1-6.4c0-3.7,2.3-6.5,6-6.5
		c2.4,0,3.9,1.2,4.7,2.3c0.8,1.1,1.2,3,1.2,4.6h-9.6c0,2.6,1.8,4.2,3.9,4.2c1,0,1.8-0.3,2.5-0.9c0.6-0.5,1-1.1,1.3-1.7L961.8,440.9z
		 M959.7,436.5c-0.4-1.9-1.8-3.2-3.6-3.2c-1.8,0-3.3,1.4-3.6,3.2H959.7z"/>
	<path d="M965.2,431.7h2.1v1.4c0.4-0.5,1.5-1.7,3.5-1.7c1.5,0,2.8,0.6,3.5,1.7c0.6,0.9,0.7,1.9,0.7,3.3v7.6h-2.1v-7.6
		c0-0.7-0.1-1.6-0.6-2.3c-0.4-0.5-1.1-0.9-2-0.9c-0.7,0-1.5,0.2-2.2,0.9c-0.8,1-0.9,2.4-0.9,3.3v6.4h-2.1V431.7z"/>
	<path d="M981.3,433.7V444h-2.1v-10.4h-1.3v-2h1.3v-4.5h2.1v4.5h2.1v2H981.3z"/>
	<path d="M990.5,434.6c-0.3-0.7-0.9-1.2-1.7-1.2c-0.8,0-1.5,0.4-1.5,1.4c0,0.9,0.6,1.2,2,1.8c1.8,0.7,2.6,1.3,3.1,1.9
		c0.5,0.7,0.7,1.3,0.7,2c0,2.6-1.9,4-4.2,4c-0.5,0-3.3-0.1-4.3-3.1l1.8-0.8c0.2,0.7,0.9,2,2.5,2c1.4,0,2-1,2-2c0-1.2-0.8-1.5-2-2
		c-1.5-0.7-2.4-1.1-3-1.8c-0.5-0.6-0.6-1.2-0.6-1.8c0-2.2,1.5-3.4,3.6-3.4c0.7,0,2.4,0.1,3.4,2.2L990.5,434.6z"/>
</g>
<g>
	<path class="st1" d="M726.1,454.4c6.2,6.3,14.8,8.4,23.6,8.4c9.7,0,17.9-1.4,25.1-9c7.1-7.6,4.9-22.6,4.9-22.6"/>
	<ellipse class="st1" cx="749.8" cy="431.1" rx="30" ry="22.6"/>
	<path class="st2" d="M726.8,429.9c2.3-6,5.9-10.5,13.2-13.4"/>
	<g>
		<path class="st6" d="M750.9,416.9v1.9c3.3,0.2,6.1,1.2,6.1,2.2c0,0.8-1,2.6-1.6,2.6c-0.3,0-1.9-1.1-4.6-1.3v19.1
			c3-0.2,4.9-1.5,5.2-1.5c0.7,0,1.7,1.8,1.7,2.5c0,1.1-3,2.4-6.9,2.5v2.6c0,0.6-0.3,0.8-1,0.8c-0.7,0-1-0.2-1-0.8v-2.6
			c-6.9-0.4-10.5-4.3-10.5-13.2c0-9.7,5.2-12.6,10.5-12.9v-1.9c0-0.6,0.3-0.8,1-0.8C750.6,416.1,750.9,416.4,750.9,416.9z
			 M742.8,431.6c0,6.3,1.7,9.2,6.1,9.7v-19C745.2,422.7,742.8,425.3,742.8,431.6z"/>
	</g>
</g>
</svg>
