<svg xmlns="http://www.w3.org/2000/svg" viewBox="0 0 565.65 361.64"><defs><style>.cls-1,.cls-2,.cls-5{fill:none;stroke-miterlimit:10;stroke-width:4px;}.cls-1{stroke:#1eb9d5;}.cls-2{stroke:#334054;}.cls-3{fill:#ff6346;}.cls-4{fill:#1fbad6;}.cls-5{stroke:#ff6346;stroke-dasharray:5.98 5.98;}</style></defs><g id="Layer_2" data-name="Layer 2"><g id="Layer_3" data-name="Layer 3"><path class="cls-1" d="M225.63,229.76V197.44c0-5.68-4-13.09-11-16.11a62.6,62.6,0,0,1-12.51-7.64A51.2,51.2,0,0,1,190,181.33c-6.95,3.13-11,10.55-11,16.11v46.69h42.52"/><path class="cls-2" d="M310,197.09a46.71,46.71,0,0,1,8-.58,35.45,35.45,0,0,1,6.95.58"/><path class="cls-2" d="M132.25,270.2s26.65-.7,50.63,11.24c16.1-5.45,32.44-10.32,45.76-10.55-3.36-14.36-10.54-39.27-10.54-39.27S260.5,219,302.79,243.2"/><line class="cls-2" x1="228.64" y1="270.89" x2="240.81" y2="307.74"/><path class="cls-2" d="M300,306.92,276.38,247s32.09-9.62,63.84,2.78,61,37.88,85,62.91"/><path class="cls-2" d="M320.17,243.9s29.78-64,105.2-77.28a205.87,205.87,0,0,1-2.43,23.64"/><path class="cls-2" d="M430.24,313.07s.46-9.16,10-61.29c7.42-41.37,14.83-57.24,27-80.29C399.07,184.46,363.27,260,363.27,260"/><path class="cls-2" d="M444.26,230.92s33.13-17.38,60.47-21.55c-8.57,19.47-15.06,39.51-22.24,90.37"/><path class="cls-2" d="M492.34,243.9S533,232.31,559,236.37c-13.67,19.11-31.4,48.19-33.83,54"/><path class="cls-2" d="M157.85,315.73s4.64-.58,12.29-1.39c19.34-2.2,58-6.26,91.64-8.11,29.77-1.74,66.27,4,88.86,3.13s79.6,3.71,79.6,3.71,21.55-10.32,27-11.59,22.94-.7,22.94-.7,19.47-6.48,33.49-9.84,37,5.44,47.15,9.27c-33.83,18.07-69.75,36.61-69.75,36.61H196.43"/><path class="cls-2" d="M312.29,228a45.84,45.84,0,0,1,8-.58,34.76,34.76,0,0,1,6.95.58"/><path class="cls-2" d="M107.8,167.78l12.33-3V149c.23-.93,2-1.51,3-1.51a1.59,1.59,0,0,1,1.62,1.63s1,0,1,.11v14.83H158.2v-28.5L156.93,133V114.6c0-5.91,9.38-26.18,25.37-32.32,1.39-3.83,5.56-6.33,7.07-6.8a73.85,73.85,0,0,0,7.34-6.07s-.12-3.36,2.66-3.59c-.23-.92-1-1.62-1-2.55a3.94,3.94,0,0,1,1-2.2A3.11,3.11,0,0,1,198,58.41a4.12,4.12,0,0,1,1.63-3l2.85-13.1,3,13.1a3.93,3.93,0,0,1,1.62,3,3.4,3.4,0,0,1-1.39,2.66,3.87,3.87,0,0,1,1,2.2c0,.93-.81,1.63-1,2.55,2.78.23,2.67,3.59,2.67,3.59a71.62,71.62,0,0,0,7.34,6.07,12.52,12.52,0,0,1,7.06,6.8c16,6.14,25.38,26.41,25.38,32.32V133l-1.28,2.55V164h32.49V149.13c0-.93,1.69-1.63,2.62-1.63h.11c.93,0,2.74.58,3,1.51v15.76l15.89,4V153.76c0-1.39,1.69-2,2.85-2s2.86.81,2.86,1.85V243.2"/><line class="cls-2" x1="281.94" y1="147.39" x2="281.94" y2="138.93"/><line class="cls-2" x1="303.53" y1="151.67" x2="303.53" y2="143.1"/><line class="cls-2" x1="319.82" y1="154.46" x2="319.82" y2="146"/><line class="cls-2" x1="198.59" y1="65.82" x2="206.07" y2="65.82"/><line class="cls-2" x1="199.06" y1="61.07" x2="205.99" y2="61.07"/><path class="cls-2" d="M156.93,132.91s16.91-9.62,47-9.39S247.88,132,247.88,132"/><path class="cls-2" d="M158.32,138s15.52-8.8,45.65-8.57,42.75,7.65,42.75,7.65"/><path class="cls-2" d="M325.5,234.51l-.69-61s2.31-4.09-.24-5c-.23-2.44,1.05-14-5-14.18h.47c-6,.12-4.75,11.63-5,14.18-2.54,1-.23,5-.23,5l-.81,70"/><path class="cls-2" d="M313.1,161.87a65.7,65.7,0,0,1,6.84-.7,29.19,29.19,0,0,1,6.37.7"/><circle class="cls-3" cx="97.96" cy="62.93" r="4.52"/><circle class="cls-3" cx="201.53" cy="191.07" r="4.63"/><circle class="cls-3" cx="27.51" cy="348.4" r="4.63"/><circle class="cls-3" cx="435.22" cy="198.13" r="4.63"/><path class="cls-4" d="M65.32,86a1.8,1.8,0,1,1-1.8-1.8h0A1.79,1.79,0,0,1,65.32,86Z"/><path class="cls-4" d="M65.32,120.82a1.8,1.8,0,1,1-1.8-1.8h0A1.86,1.86,0,0,1,65.32,120.82Z"/><path class="cls-4" d="M133.15,86a1.8,1.8,0,1,1-1.8-1.8h0A1.86,1.86,0,0,1,133.15,86Z"/><path class="cls-4" d="M65.32,155.12a1.8,1.8,0,1,1-1.8-1.8h0A1.93,1.93,0,0,1,65.32,155.12Z"/><path class="cls-4" d="M133.15,120.82a1.8,1.8,0,1,1-1.8-1.8h0A1.86,1.86,0,0,1,133.15,120.82Z"/><path class="cls-4" d="M26.62,192.32a1.8,1.8,0,1,1-1.8-1.8h0A1.79,1.79,0,0,1,26.62,192.32Z"/><path class="cls-4" d="M26.62,227a1.8,1.8,0,1,1-1.8-1.8h0A1.79,1.79,0,0,1,26.62,227Z"/><path class="cls-4" d="M65.32,192.32a1.8,1.8,0,1,1-1.8-1.8h0A1.79,1.79,0,0,1,65.32,192.32Z"/><path class="cls-4" d="M254.25,154.62a1.8,1.8,0,1,1,1.8,1.8h0A1.79,1.79,0,0,1,254.25,154.62Z"/><path class="cls-4" d="M293,119.82a1.8,1.8,0,1,1,1.8,1.8h0A1.86,1.86,0,0,1,293,119.82Z"/><path class="cls-4" d="M254.25,119.82a1.8,1.8,0,1,1,1.8,1.8h0A1.86,1.86,0,0,1,254.25,119.82Z"/><path class="cls-4" d="M254.25,85.52a1.8,1.8,0,1,1,1.8,1.8h0A1.93,1.93,0,0,1,254.25,85.52Z"/><path class="cls-4" d="M167.28,52.32a1.8,1.8,0,1,1,1.8,1.8h0A1.86,1.86,0,0,1,167.28,52.32Z"/><path class="cls-4" d="M254.23,52.32a1.8,1.8,0,1,1,1.8,1.8h0A1.79,1.79,0,0,1,254.23,52.32Z"/><path class="cls-4" d="M215.55,52.32a1.8,1.8,0,1,1,1.8,1.8h0A1.79,1.79,0,0,1,215.55,52.32Z"/><path class="cls-4" d="M296.55,86a1.8,1.8,0,1,1-1.8-1.8h0A1.79,1.79,0,0,1,296.55,86Z"/><path class="cls-4" d="M338.06,120.82a1.8,1.8,0,1,1-1.8-1.8h0A1.86,1.86,0,0,1,338.06,120.82Z"/><path class="cls-4" d="M338.06,155.12a1.8,1.8,0,1,1-1.8-1.8h0A1.86,1.86,0,0,1,338.06,155.12Z"/><path class="cls-4" d="M338.06,190.88a1.8,1.8,0,1,1-1.8-1.8h0A1.86,1.86,0,0,1,338.06,190.88Z"/><path class="cls-4" d="M488.29,154.62a1.8,1.8,0,1,1,1.8,1.8h0A1.79,1.79,0,0,1,488.29,154.62Z"/><path class="cls-4" d="M410.89,154.62a1.8,1.8,0,1,1,1.8,1.8h0A1.79,1.79,0,0,1,410.89,154.62Z"/><path class="cls-4" d="M372.19,154.62a1.8,1.8,0,1,1,1.8,1.8h0A1.79,1.79,0,0,1,372.19,154.62Z"/><path class="cls-4" d="M488.29,119.82a1.8,1.8,0,1,1,1.8,1.8h0A1.86,1.86,0,0,1,488.29,119.82Z"/><path class="cls-4" d="M449.59,119.82a1.8,1.8,0,1,1,1.8,1.8h0A1.86,1.86,0,0,1,449.59,119.82Z"/><path class="cls-4" d="M372.19,119.82a1.8,1.8,0,1,1,1.8,1.8h0A1.86,1.86,0,0,1,372.19,119.82Z"/><path class="cls-4" d="M449.59,85.52a1.8,1.8,0,1,1,1.8,1.8h0A1.93,1.93,0,0,1,449.59,85.52Z"/><path class="cls-4" d="M372.19,85.52a1.8,1.8,0,1,1,1.8,1.8h0A1.86,1.86,0,0,1,372.19,85.52Z"/><path class="cls-4" d="M410.89,48.32a1.8,1.8,0,1,1,1.8,1.8h0A1.79,1.79,0,0,1,410.89,48.32Z"/><path class="cls-2" d="M174,359.64H156.23s-7.64-27.57-23-36.84S106.64,311.68,99,311.68H96.45c-7.65,0-18.77,2-34.18,11.12s-23.06,36.84-23.06,36.84H4.11S45.36,307,48.37,302.06s2.31-20.74,2.31-20.74h7.65s14.25-36.15,16.11-44.95c-1.16-10.43-2.67-11.59-.82-13.44s5.8-2,5.8-2,9.27-47.27,10.77-87.24S91.7,82.16,91.7,82.16s-3.13-14.6-2.32-19.23,1.51-9.27,7.3-10.31c.35-3.48,1.16-23.41,1.16-23.41s.23,19.93.69,23.41c5.8,1.15,6.49,5.79,7.3,10.31s-2.31,19.23-2.31,19.23,0,11.59,1.5,51.56S115.8,221,115.8,221s3.82,0,5.79,2,.35,3-.81,13.44c2,8.8,16.1,44.95,16.1,44.95l7.42.23s-.46,15.53,2.55,20.51,44.26,57.58,44.26,57.58"/><polygon class="cls-2" points="97.84 252.47 104.79 252.47 109.77 281.32 97.84 281.32 97.61 281.32 85.67 281.32 90.66 252.47 97.61 252.47 97.84 252.47"/><path class="cls-5" d="M38.4,349.33c12.86.46,38.47,1,82.5,1,83.53,0,82.64-125.54,81-156.24"/><path class="cls-5" d="M105.72,56.09C133.87,34.66,231.19-29.76,334,21.1,432.21,69.65,436.61,164.3,435.8,190.6"/></g></g></svg>